<svg width="16" height="16" viewBox="0 0 16 16" fill="none" xmlns="http://www.w3.org/2000/svg">
<path fill-rule="evenodd" clip-rule="evenodd" d="M3.88582 10.3962C3.88582 10.3962 2.41981 1.98848 2.26453 1.06962L0.538095 1.06536C0.240472 1.06429 -0.00053827 0.825119 9.0289e-07 0.531082C0.000540076 0.237577 0.242629 -0.0010618 0.540252 3.55321e-06L2.72228 0.00533031C2.98486 0.00586299 3.20916 0.193365 3.25283 0.449582C3.40703 1.3578 3.56124 2.27986 3.71598 3.19553H14.3824C14.8601 3.19553 15.313 3.40381 15.6204 3.76443C15.9277 4.12505 16.0576 4.60179 15.9762 5.06629C15.7115 6.5743 15.2731 9.07361 15.0408 10.3962C14.9065 11.1617 14.2342 11.721 13.447 11.721C11.5836 11.721 7.34353 11.721 5.47961 11.721C4.69296 11.721 4.02061 11.1617 3.88582 10.3962Z" fill="white"/>
<path d="M6.49851 16C7.39184 16 8.11602 15.2845 8.11602 14.402C8.11602 13.5194 7.39184 12.8039 6.49851 12.8039C5.60518 12.8039 4.88099 13.5194 4.88099 14.402C4.88099 15.2845 5.60518 16 6.49851 16Z" fill="white"/>
<path d="M12.4294 16C13.3227 16 14.0469 15.2845 14.0469 14.402C14.0469 13.5194 13.3227 12.8039 12.4294 12.8039C11.5361 12.8039 10.8119 13.5194 10.8119 14.402C10.8119 15.2845 11.5361 16 12.4294 16Z" fill="white"/>
</svg>
