<svg width="45" height="45" viewBox="0 0 45 45" fill="none" xmlns="http://www.w3.org/2000/svg">
<path d="M30.7496 4.06757L30.9271 4.1361L31.0183 4.17162C30.8702 4.11562 30.7213 4.06011 30.5694 4.00688L30.7496 4.06757Z" fill="#B92E2D"/>
<path d="M44.4859 18.0958C44.4814 18.0808 44.481 18.073 44.4773 18.058C44.5107 18.0203 44.5391 17.9857 44.5592 17.9541L44.4859 18.0958Z" fill="#B92E2D"/>
<path d="M42.1538 32.2163C42.1772 32.1942 42.2002 32.1706 42.225 32.1353C42.1997 32.1834 42.1764 32.2043 42.1538 32.2163Z" fill="#B92E2D"/>
<path d="M7.46694 23.2335C7.4656 23.2515 7.46245 23.2694 7.46148 23.2874C7.45942 23.2596 7.46197 23.2429 7.46694 23.2335Z" fill="#B92E2D"/>
<path d="M33.6114 5.57101L33.557 5.50658C33.5825 5.53115 33.5991 5.55198 33.6114 5.57101Z" fill="#B92E2D"/>
<path d="M44.4879 22.15C44.4959 22.2649 44.5057 22.3737 44.5239 22.4656L44.5951 22.4508C44.6508 22.7107 44.6854 22.9619 44.6788 23.2094C44.6734 23.457 44.6477 23.7012 44.6137 23.9493C44.5276 24.4451 44.4079 24.9545 44.3049 25.5538L44.4708 25.4159C44.5533 25.8509 44.2431 25.4975 44.2286 25.9947L44.4004 26.0501C44.0858 26.4368 44.3543 26.6163 44.3683 26.9336L44.1717 26.7453L44.0892 27.3085C44.0569 27.6227 44.1006 27.7351 44.1746 27.7619C44.2492 27.789 44.3569 27.7308 44.4266 27.7009C44.3297 27.8252 44.2282 27.9469 44.1297 28.0678L44.3048 28.2075C43.9826 28.441 44.2628 28.5284 43.9555 29.0134C44.0146 29.0826 44.1031 28.9637 44.0726 29.1545L43.7849 29.5388L43.4794 29.9085C43.5857 29.7546 43.6998 29.6025 43.8004 29.4436L43.4951 29.4C43.2852 29.6223 43.2209 29.7996 43.1818 29.9686C43.1417 30.1364 43.1303 30.2966 43.0044 30.4608C43.0697 30.3889 43.1386 30.318 43.1992 30.243C42.8637 30.8151 42.962 30.898 42.8642 31.2685C42.8647 31.1383 42.8621 30.9415 42.715 31.1658C42.6102 31.3315 42.7612 31.3077 42.7048 31.4879C42.6048 31.4612 42.4767 31.5397 42.3597 31.6764C42.2433 31.8137 42.1381 32.0095 42.0677 32.2149C42.0952 32.2249 42.1237 32.2311 42.1538 32.2163C42.0701 32.2938 41.9971 32.3154 41.9424 32.5035L42.1917 32.5227L41.8228 32.727C41.7519 32.9709 41.4124 33.1725 41.5587 33.2311L41.6726 33.1401C41.3543 33.6696 41.0064 34.1823 40.6362 34.679L40.7596 34.8122C40.605 34.8062 40.4634 35.0173 40.3337 35.2007C40.205 35.3849 40.0754 35.5284 39.9831 35.404C39.927 35.5887 39.6784 35.831 39.4807 36.0223C39.2816 36.2123 39.1466 36.369 39.3417 36.4202C39.2353 36.5317 39.131 36.6327 39.0283 36.7264C38.9217 36.8159 38.8162 36.8976 38.7124 36.9752C38.5392 37.1018 38.3723 37.2212 38.1982 37.3346C38.1588 37.3749 38.1189 37.4148 38.0799 37.4555C37.9964 37.541 37.9126 37.6266 37.8289 37.7124C37.745 37.798 37.6611 37.8836 37.5772 37.9694C37.4894 38.0514 37.4017 38.1334 37.3138 38.2157C37.2259 38.2978 37.1381 38.38 37.05 38.4624C36.9622 38.5449 36.8747 38.6281 36.7814 38.7048C36.5978 38.8616 36.4138 39.0187 36.2295 39.1761C36.184 39.2162 36.1367 39.254 36.0884 39.2907L35.6572 39.6262C35.5606 39.6999 35.4668 39.7777 35.3676 39.8483L34.77 40.2707C34.7199 40.3056 34.6706 40.3418 34.6198 40.3758L34.4653 40.4745C34.2593 40.6063 34.0528 40.7384 33.846 40.8706C33.4206 41.115 32.9992 41.3702 32.5559 41.5873L32.2267 41.7567L32.1443 41.799L31.8914 41.9144C31.666 42.0158 31.4424 42.1225 31.2147 42.2198C30.9846 42.3118 30.7542 42.4038 30.5237 42.4959C30.4659 42.5185 30.4088 42.5433 30.3503 42.5639L29.8217 42.7461C28.8793 43.063 27.9122 43.3247 26.9256 43.4918C26.5131 43.5637 26.0975 43.6229 25.6808 43.6722C25.6568 43.6904 25.6322 43.7055 25.6088 43.7147C25.4092 43.7938 25.2096 43.8835 25.0081 43.9657C24.8057 44.0442 24.5995 44.1079 24.3927 44.15C24.3904 44.1505 24.3882 44.1507 24.3859 44.1512C24.3726 44.1663 24.3608 44.1835 24.3462 44.1966C24.2183 44.3054 24.0335 44.3416 23.7481 44.2576C23.6414 44.226 23.5309 44.206 23.418 44.1948C23.3049 44.1825 23.1887 44.173 23.0722 44.1729C22.839 44.1709 22.6029 44.1946 22.3784 44.2201C22.1551 44.2373 21.9325 44.2593 21.7096 44.2837C21.5983 44.2951 21.4869 44.3103 21.3754 44.3199L21.0405 44.3454C20.8172 44.3614 20.5933 44.3819 20.3692 44.3917C20.145 44.3967 19.9206 44.3992 19.6959 44.3968C18.6186 44.3717 17.5433 44.2251 16.4836 44.0026C16.7205 43.9824 17.0104 43.9735 17.3359 43.9789C17.4983 43.9844 17.6716 43.9787 17.8516 43.9799C17.9512 43.9801 18.0535 43.9811 18.1572 43.9825C18.1197 43.9316 18.0816 43.8809 18.0448 43.8299C18.1355 43.8767 18.2266 43.9252 18.3184 43.9664C18.3137 43.9726 18.309 43.9789 18.3044 43.9852C18.3402 43.9859 18.3754 43.9862 18.4116 43.9871C18.6044 43.9885 18.8034 43.9825 19.0056 43.983C19.1065 43.983 19.2086 43.983 19.3113 43.983C19.3627 43.9828 19.4142 43.9843 19.4659 43.983C19.5175 43.9812 19.5694 43.9794 19.6214 43.9776C19.8291 43.9706 20.0387 43.9648 20.2483 43.9604L20.4055 43.9572C20.4578 43.9554 20.5102 43.9512 20.5625 43.9484C20.6671 43.9425 20.7715 43.9365 20.8755 43.9306C20.9794 43.9253 21.0829 43.92 21.1858 43.9147C21.2887 43.909 21.391 43.9074 21.4922 43.8966C21.6947 43.8792 21.894 43.8633 22.0878 43.8492C22.1847 43.8422 22.2803 43.8353 22.3744 43.8286C22.4683 43.8187 22.5605 43.8091 22.6511 43.7996C22.6668 43.798 22.6818 43.7967 22.6975 43.7951C22.61 43.7938 22.5225 43.7921 22.4352 43.7845L22.3243 43.7772C22.3195 43.78 22.315 43.7813 22.31 43.7842C22.1816 43.8602 21.9815 43.8559 21.8288 43.8101C21.6644 43.7649 21.5025 43.7302 21.3423 43.7046C21.2691 43.6929 21.1965 43.6838 21.1239 43.6754L21.0632 43.6683C20.9971 43.6611 20.9313 43.6541 20.8654 43.6468C20.7072 43.6318 20.5501 43.6247 20.3934 43.6244C20.3149 43.6241 20.2367 43.6256 20.1584 43.6284C20.0802 43.6321 20.0017 43.6304 19.9234 43.6336C19.7667 43.6384 19.6098 43.6486 19.4527 43.6625C19.374 43.6695 19.2954 43.6775 19.2166 43.6863C19.1378 43.6949 19.0589 43.6989 18.9798 43.7066C18.8216 43.7205 18.6628 43.7368 18.5034 43.7543L18.2636 43.7812C18.1836 43.7896 18.1037 43.7937 18.0234 43.8002C18.0313 43.8095 18.0371 43.8198 18.0446 43.83C18.0271 43.8209 18.0093 43.8116 17.9914 43.8022H17.9912L18.0111 43.7834C17.8135 43.7115 17.5847 43.7191 17.3561 43.6596C17.1288 43.5959 16.9028 43.4556 16.7281 43.1102C16.8616 43.1142 16.9851 43.1157 17.1009 43.1163C17.1587 43.1165 17.2147 43.1166 17.2693 43.1169C17.3235 43.1176 17.3764 43.1171 17.4283 43.1146C17.635 43.1076 17.8207 43.1054 18.0049 43.1211C18.0969 43.1286 18.189 43.1393 18.2813 43.1508C18.3113 43.1535 18.3412 43.1571 18.3711 43.1601C18.2449 43.1265 18.1177 43.0956 17.9923 43.0588C17.8719 43.0247 17.7504 42.9948 17.6313 42.9571L16.9191 42.7229L16.7415 42.6638L16.5667 42.5967C16.5363 42.5851 16.5061 42.5734 16.4757 42.5617C16.3304 42.5297 16.1849 42.4977 16.039 42.4678L15.902 42.4398L15.766 42.4067L15.4933 42.3428L15.0563 42.2428C15.0077 42.2316 14.96 42.2169 14.9119 42.204L14.1895 42.0042C14.1414 41.9905 14.0942 41.9738 14.0465 41.9587L13.331 41.7251C13.2836 41.7085 13.2368 41.6899 13.1898 41.6724L12.6244 41.4583L12.4827 41.4044L12.3437 41.3445L12.0654 41.224L11.7866 41.1026C11.7402 41.0821 11.6933 41.0623 11.6472 41.0412L11.5107 40.9742L10.9632 40.7043C10.2431 40.3246 9.53061 39.912 8.85968 39.4299L8.60554 39.2519C8.52022 39.1932 8.4406 39.1272 8.35782 39.0648L7.86627 38.6822C7.70593 38.55 7.54959 38.4124 7.39143 38.2762L7.15523 38.0704C7.07839 37.9996 7.0035 37.9267 6.92775 37.8546C6.76814 37.7007 6.60659 37.548 6.4494 37.3905L5.99057 36.9041C5.83471 36.7438 5.6934 36.5705 5.54664 36.4012C5.4023 36.2299 5.25153 36.0631 5.11628 35.8835L4.70108 35.3507C4.56643 35.1698 4.43784 34.9839 4.30587 34.8001C4.24054 34.7076 4.17401 34.6158 4.10978 34.5225L3.7382 33.9513C3.67712 33.8553 3.61167 33.7616 3.55532 33.6626L3.11757 32.9257L2.87131 32.4722C2.64468 32.0714 2.44992 31.6537 2.24123 31.2389C2.14306 31.0289 2.04986 30.8164 1.95303 30.6042L1.80881 30.2849L1.67598 29.9606C1.58812 29.7437 1.49504 29.5274 1.40936 29.3081C1.32682 29.0868 1.24417 28.8656 1.16176 28.6444C1.06941 28.4124 1.06166 28.1538 1.01742 27.9044C1.11813 28.1525 1.21218 28.3997 1.32355 28.6416C1.34816 28.6967 1.37191 28.7509 1.39615 28.8059L1.21133 28.1965C1.14237 27.9804 1.09207 27.7595 1.03511 27.5398C0.981183 27.3194 0.919497 27.0998 0.877443 26.8763L0.739889 26.2064C0.698805 25.9819 0.665356 25.756 0.627907 25.53C0.610092 25.417 0.590701 25.3039 0.57434 25.1904L0.492534 24.5068C0.480052 24.3925 0.4626 24.2783 0.455571 24.1637L0.387096 23.3011L0.365646 22.7813C0.338499 22.3176 0.347346 21.8537 0.342377 21.3858C0.346497 21.1527 0.356314 20.9193 0.362616 20.6847L0.373402 20.3325L0.39655 19.981C0.412911 19.7464 0.424303 19.5098 0.443815 19.2741C0.466842 19.0381 0.489868 18.802 0.512774 18.5662C0.531801 18.316 0.637724 18.0818 0.707167 17.8386C0.688625 18.107 0.664629 18.3716 0.658327 18.6396C0.648631 18.9065 0.634815 19.1704 0.627059 19.4338C0.624756 19.6967 0.622453 19.9597 0.620151 20.2229C0.619908 20.2883 0.617605 20.3532 0.61906 20.4186L0.624029 20.6147L0.642813 21.3932L0.665719 21.7806L0.699047 22.3577L0.717226 22.5494L0.788608 23.3115L0.887623 24.0664C1.03354 25.0676 1.23496 26.0484 1.49686 27.003C1.76554 27.9563 2.09834 28.8811 2.49258 29.7681C2.47707 29.6681 2.45428 29.5709 2.43574 29.4723C2.41695 29.3738 2.39526 29.2762 2.37127 29.1795C2.32424 28.9857 2.26352 28.7959 2.20523 28.6052C2.15021 28.4135 2.08986 28.2226 2.02853 28.0315C1.99896 27.9356 1.96454 27.8408 1.93873 27.7439L1.86007 27.453C1.81014 27.2584 1.75863 27.0636 1.72409 26.8658C1.69222 26.6676 1.66835 26.4681 1.65683 26.2677C1.65223 26.1674 1.64581 26.0674 1.65211 25.9661C1.6572 25.8651 1.66592 25.7639 1.67889 25.6628C1.70579 25.4604 1.74543 25.2586 1.81438 25.0577C1.87765 25.2704 1.94564 25.4811 2.00575 25.6915L2.09616 26.0062C2.12936 26.1104 2.16172 26.2146 2.19311 26.3185C2.2245 26.4224 2.25492 26.5263 2.28437 26.6303C2.3137 26.7342 2.34121 26.8383 2.3749 26.941C2.43877 27.1472 2.49864 27.3536 2.55427 27.5606C2.58069 27.6666 2.61656 27.77 2.64843 27.8744L2.74636 28.1866L2.84464 28.4979L3.12072 29.2639C3.1389 29.315 3.1612 29.3645 3.1812 29.4148L3.42807 30.0147C3.77722 30.8046 4.17134 31.5688 4.6246 32.2899C5.08489 33.0066 5.59342 33.6843 6.15793 34.3012C6.30021 34.4544 6.44904 34.6012 6.59508 34.7487C6.66682 34.8191 6.7359 34.8913 6.81007 34.9589C6.61459 34.6789 6.42613 34.3948 6.24592 34.1061L5.98075 33.7491L5.81932 33.5312C5.76503 33.4587 5.71716 33.3821 5.66565 33.3076L5.36048 32.8565C5.30789 32.782 5.26244 32.7033 5.2142 32.6261L4.92637 32.16L4.8545 32.043L4.78736 31.9232C4.60933 31.6033 4.42136 31.2855 4.25957 30.9534C3.68996 29.8457 3.1709 28.6843 2.76926 27.4549C2.36763 26.2268 2.08598 24.933 1.99217 23.6079C1.96212 23.3033 1.95364 22.9948 1.9437 22.6833L1.93921 22.4496L1.93836 22.3325L1.94333 22.2157C1.95109 22.06 1.96248 21.9042 1.97884 21.7489C1.98696 21.6714 1.99642 21.5938 2.00732 21.5166C2.01872 21.4394 2.0289 21.3622 2.04756 21.2862C2.08186 21.1339 2.12258 20.9829 2.17118 20.8342C2.20257 20.7397 2.23759 20.6466 2.27552 20.5544C2.29625 19.9203 2.34085 19.2822 2.41696 18.6421C2.40617 18.5877 2.39805 18.5331 2.39514 18.4798C2.39369 18.4149 2.39938 18.3519 2.41223 18.2932C2.45731 18.0961 2.50349 17.8983 2.55245 17.7012C2.73921 16.6045 3.0291 15.5123 3.45243 14.4644C3.55859 14.1787 3.68584 13.8996 3.81285 13.6173L3.9109 13.4067L3.96131 13.3019L4.01682 13.2002C4.09172 13.0649 4.16989 12.9314 4.2523 12.8006C4.2935 12.7352 4.3358 12.6705 4.37919 12.6068C4.42294 12.5434 4.46596 12.4793 4.51565 12.4202C4.61273 12.3003 4.71501 12.1848 4.82336 12.075C4.93231 11.9658 5.04466 11.8602 5.16852 11.7659C5.20609 11.7383 5.24559 11.7128 5.2845 11.6865C5.5007 11.3648 5.72503 11.0485 5.95918 10.7387C5.95857 10.7163 5.9593 10.6949 5.95772 10.6716C5.94851 10.5457 5.95894 10.4054 5.98984 10.2722C6.00523 10.2056 6.02583 10.1409 6.05128 10.0807C6.07831 10.0222 6.11091 9.9687 6.148 9.92234C6.32651 9.70376 6.50491 9.48289 6.69312 9.2713C6.88497 9.06392 7.07985 8.85799 7.27691 8.6535C7.47978 8.45636 7.68726 8.26331 7.89511 8.06954C7.99752 7.97067 8.10829 7.88288 8.21567 7.79003L8.54107 7.51545C8.61003 7.45945 8.68614 7.41285 8.7797 7.37262C8.87253 7.33131 8.97809 7.28892 9.09916 7.23063C9.0668 7.36395 9.00427 7.47186 8.92949 7.56771C9.11067 7.41164 9.29307 7.25677 9.48019 7.10707C9.47789 7.11237 9.47522 7.11852 9.4734 7.12297C9.47037 7.12502 9.46734 7.12706 9.46407 7.12754C9.46625 7.12766 9.46868 7.12911 9.47159 7.13031C9.38057 7.36997 9.30204 7.62696 9.2046 7.93671C9.30373 7.96994 9.39342 8.01149 9.47583 8.04702C9.67386 7.86047 9.87504 7.67755 10.0797 7.49835C10.033 7.43031 9.97987 7.36515 9.92861 7.31698C9.81614 7.20956 9.62938 7.18716 9.47159 7.13007C9.47231 7.12778 9.47304 7.1255 9.4734 7.12273C9.7107 7.01675 9.94133 6.86501 10.1783 6.78059C10.1841 6.75193 10.187 6.72097 10.1941 6.69352C10.2332 6.54527 10.2902 6.40979 10.3689 6.2949C10.5248 6.06187 10.7479 5.87509 11.0207 5.70637C11.9546 5.14589 12.9376 4.66117 13.9572 4.25809C13.9854 4.2434 14.0127 4.22918 14.0413 4.21437C14.1341 4.16704 14.2286 4.11876 14.3247 4.06962C14.4218 4.02301 14.5218 3.97906 14.6232 3.93281C14.8262 3.84129 15.0368 3.74807 15.2539 3.65378C15.4727 3.56574 15.6994 3.48132 15.9318 3.39389C16.0481 3.35102 16.1656 3.30574 16.2852 3.26455C16.4055 3.22626 16.5271 3.18748 16.6496 3.14846C16.7728 3.11016 16.8971 3.07162 17.0221 3.03273C17.1476 2.99419 17.2741 2.95432 17.4028 2.92349C17.6597 2.85738 17.9211 2.79211 18.1863 2.72804L18.2859 2.70408L18.386 2.68409C18.4531 2.67096 18.5201 2.65795 18.5873 2.64482C18.7222 2.61929 18.8577 2.59364 18.9935 2.56787C19.1296 2.54366 19.2664 2.51536 19.4037 2.49573C19.5413 2.47731 19.6792 2.45876 19.8172 2.44021C19.9559 2.42263 20.0946 2.40517 20.2334 2.38759C20.3029 2.3794 20.3725 2.36989 20.4422 2.36314L20.6514 2.34689C20.9306 2.32581 21.2106 2.30678 21.4902 2.29016C21.5638 2.28823 21.6372 2.28847 21.7108 2.28715C22.2462 2.23055 22.783 2.19514 23.3198 2.18575C24.5356 2.15974 25.7536 2.23753 26.9584 2.42203C28.5757 2.67577 30.1621 3.12883 31.6811 3.76023C31.5149 3.66967 31.348 3.58043 31.1842 3.4871C31.0054 3.38389 30.827 3.28093 30.6497 3.17857C30.4738 3.07428 30.3027 2.96372 30.1385 2.84341C30.0443 2.77549 29.9511 2.70601 29.8544 2.64386C29.7576 2.58208 29.66 2.52211 29.562 2.4637C29.3659 2.347 29.1673 2.23717 28.967 2.13505C28.8676 2.0823 28.7639 2.03907 28.6611 1.99475C28.5581 1.95103 28.4546 1.90937 28.3506 1.86963C28.1424 1.7911 27.9342 1.71692 27.7219 1.65851C27.5081 1.60324 27.293 1.55675 27.0771 1.51941C26.8611 1.48304 26.6461 1.45077 26.4255 1.44318C26.2061 1.43235 25.9864 1.43126 25.7672 1.44065C25.6574 1.44571 25.5482 1.45162 25.4382 1.46342C25.3278 1.47703 25.2174 1.49316 25.1074 1.51207C24.9251 1.54326 24.7321 1.56169 24.5482 1.54121C24.3427 1.51556 24.1347 1.50473 23.9279 1.49292C23.7211 1.48124 23.5148 1.47112 23.3094 1.46197C23.1036 1.45462 22.8968 1.45824 22.6917 1.45691C22.4862 1.45824 22.282 1.45498 22.0776 1.46112L21.4657 1.48606L21.1614 1.49798C21.0602 1.50015 20.9586 1.51159 20.8575 1.51761C20.4527 1.54868 20.0505 1.56554 19.6491 1.60649C18.1863 1.72547 16.7463 1.97777 15.352 2.36868C14.6874 2.55498 14.0335 2.7738 13.3929 3.02309C13.235 3.10643 13.077 3.18796 12.9219 3.27551L12.3872 3.58477L12.1211 3.7382C12.0319 3.78769 11.9462 3.84538 11.8587 3.89824C11.5113 4.11586 11.16 4.31963 10.82 4.54435C9.56757 5.33665 8.3937 6.23709 7.32102 7.23978C6.24846 8.24212 5.2771 9.34705 4.43445 10.54C4.28938 10.7463 4.14104 10.9885 3.93865 11.1072C3.83685 11.1682 3.74026 11.2344 3.64839 11.3051C3.55968 11.3783 3.4757 11.4561 3.39595 11.5375C3.23634 11.7006 3.09333 11.8783 2.96184 12.0653C2.83616 12.2563 2.72345 12.4574 2.61583 12.662C2.56214 12.7643 2.50991 12.8677 2.4584 12.9715C2.40896 13.0767 2.36254 13.1838 2.31479 13.2901C2.21408 13.5186 2.09264 13.7366 1.9603 13.9802C1.83305 14.2266 1.68956 14.4955 1.5331 14.8164C1.52667 14.4966 1.49916 14.3865 1.53116 14.3029C1.72458 13.8052 1.9363 13.3124 2.16403 12.8262C2.12597 12.8123 2.08804 12.7984 2.04998 12.7846C2.1101 12.6578 2.17045 12.5306 2.2308 12.4034L2.3223 12.2128L2.42108 12.0265C2.45598 12.0455 2.49209 12.0653 2.52797 12.0848C2.85434 11.4536 3.21477 10.8388 3.61398 10.248C3.56913 10.2408 3.50842 10.2143 3.4603 10.2038C3.51217 10.1222 3.55556 10.0312 3.62185 9.96389C3.64415 9.94124 3.71699 9.97545 3.79104 9.99352C3.83564 9.93017 3.87818 9.86549 3.92374 9.80263C4.82469 8.54957 5.85374 7.38466 6.9921 6.32742C6.95562 6.35476 6.91999 6.381 6.8823 6.40967C7.01622 6.12148 7.03973 6.01033 7.10481 5.95083C8.34013 4.83217 9.70161 3.82467 11.2036 3.06031C11.8696 2.71769 12.5545 2.41011 13.2543 2.13589C14.5663 1.5264 15.94 1.02482 17.358 0.641373C18.8132 0.247692 20.3183 0.0359764 21.8427 0.00418091C23.369 -0.0276108 24.9183 0.125206 26.4405 0.456627C27.9631 0.787445 29.4578 1.29602 30.8866 1.96103C32.3158 2.62591 33.6792 3.44664 34.9531 4.39706C36.4436 5.51368 37.7928 6.8337 38.974 8.29884C39.0501 8.38844 39.1197 8.48369 39.1919 8.57679L39.4058 8.8581L39.6183 9.14063C39.6887 9.23517 39.7602 9.32862 39.8263 9.42665L40.2266 10.011L40.4246 10.3047L40.6123 10.6059L40.6922 10.7362C40.7979 10.8104 40.8743 10.8923 40.853 10.9985L40.9834 11.211C41.0378 11.298 41.0873 11.3882 41.1374 11.4779C41.3404 11.7732 41.5389 12.0722 41.7284 12.3788C41.7444 12.3696 41.7543 12.3651 41.7476 12.4092C41.784 12.4682 41.823 12.5252 41.8588 12.5847C42.1746 13.1083 42.4691 13.6486 42.7439 14.2024L42.7651 14.2145C43.0125 14.5399 43.0832 14.7704 43.1563 15.0445C43.1621 15.0679 43.1675 15.0925 43.1731 15.1168C43.3136 15.4346 43.4481 15.756 43.5745 16.0822C43.6219 16.2043 43.6724 16.3287 43.7144 16.457C43.7222 16.482 43.7291 16.5072 43.7369 16.5321C43.9338 16.7315 44.1092 16.7372 44.1623 16.4367C44.1293 16.7236 44.1022 16.793 44.1022 16.8773C44.1013 16.9612 44.123 17.0609 44.1625 17.4046C44.2946 17.4749 44.2955 17.3998 44.3426 17.2265C44.4922 17.5013 44.4947 17.5999 44.4745 17.6836C44.4558 17.7672 44.4181 17.8358 44.4775 18.0576C44.3704 18.1773 44.2155 18.3147 44.1294 18.4357C44.1302 18.4497 44.1314 18.4653 44.1319 18.4784C44.1321 18.5483 44.1278 18.6068 44.1206 18.6515C44.1059 18.7409 44.0775 18.7753 44.033 18.7388C44.0154 18.7244 43.9946 18.6953 43.9719 18.6576C43.9781 18.8324 43.9863 19.0111 44.0155 19.1902C44.0576 19.4416 44.1107 19.6996 44.2003 19.9621L44.2964 19.9262C44.3067 20.1219 44.328 20.3156 44.3287 20.5114L44.4602 20.5322C44.4747 20.812 44.4975 21.0904 44.5037 21.3697L44.462 21.2581C44.4602 21.3567 44.4568 21.5674 44.4655 21.7984C44.4694 21.9145 44.4764 22.0352 44.4879 22.15ZM3.65773 31.9762L3.62173 31.9125L3.52199 31.7172C3.43376 31.5428 3.34553 31.3683 3.25755 31.1944C3.18532 31.2327 3.11333 31.2709 3.04073 31.3093C3.23282 31.6564 3.41413 32.0071 3.62501 32.3398C3.68536 32.3024 3.74208 32.2672 3.80195 32.2302C3.75383 32.1457 3.70584 32.061 3.65773 31.9762ZM19.3593 0.6451C19.2477 0.644737 19.1362 0.654736 19.0253 0.663528C18.9144 0.67292 18.8039 0.684242 18.6939 0.697609C18.4739 0.725307 18.2559 0.756859 18.041 0.80431C17.9037 0.836945 17.7678 0.874279 17.6329 0.91378C18.0536 0.840797 18.4767 0.778061 18.9028 0.728561C19.1783 0.696289 19.455 0.670269 19.7323 0.647869C19.6074 0.644859 19.4831 0.643536 19.3593 0.6451ZM5.51331 17.4387C5.50979 17.4426 5.50495 17.4455 5.50143 17.4495C5.42326 17.5368 5.3474 17.6329 5.28547 17.7356C5.25565 17.7853 5.22948 17.8364 5.20742 17.8887C5.19966 17.9263 5.19203 17.9637 5.18439 18.0009C5.16827 18.0781 5.15143 18.1533 5.13458 18.2283C5.12331 18.3092 5.11168 18.3903 5.10113 18.471L5.07532 18.6744L5.06284 18.7758C5.05944 18.8097 5.05762 18.8443 5.05496 18.8784L5.03799 19.1323C5.169 18.6113 5.32025 18.0952 5.49331 17.5863C5.49937 17.5372 5.50507 17.4882 5.51331 17.4387ZM19.8237 3.99279C19.7605 4.00507 19.6973 4.01723 19.6341 4.0294C19.594 4.08431 19.5491 4.12658 19.4988 4.1544C19.4737 4.16764 19.4471 4.17716 19.4195 4.18475C19.4574 4.18752 19.4957 4.18848 19.534 4.18945L19.5786 4.17921L19.6697 4.16283L19.8524 4.12971C19.9235 4.1167 19.9951 4.1037 20.0665 4.09069C20.0623 4.07949 20.0575 4.06925 20.0535 4.05757C20.0419 4.02397 20.0335 3.98929 20.0227 3.95533C19.9563 3.96785 19.8899 3.98026 19.8237 3.99279ZM9.35754 10.0717C9.4202 10.0103 9.48334 9.94835 9.54685 9.88597L9.56454 9.86863C9.58745 9.84274 9.61047 9.81672 9.6335 9.79071C9.71736 9.69557 9.81105 9.60332 9.89891 9.50831C9.94303 9.46098 9.98508 9.41232 10.025 9.36319C10.0659 9.31514 10.1037 9.26552 10.1363 9.21337C10.1447 9.20013 10.1516 9.18628 10.1591 9.17266C10.0756 9.25588 9.99223 9.33922 9.91055 9.42352C9.64441 9.70592 9.38469 9.99363 9.13515 10.2881C9.20908 10.2163 9.28216 10.1451 9.35754 10.0717ZM8.81799 11.117L8.85144 11.08C8.85229 11.077 8.85338 11.0744 8.85423 11.0714C8.84235 11.0866 8.82975 11.1017 8.81799 11.117ZM23.4644 4.34419C23.4351 4.34359 23.4065 4.34323 23.3769 4.34263C23.2196 4.34142 23.0573 4.34636 22.8924 4.346C22.8099 4.346 22.7268 4.346 22.6429 4.346C22.601 4.34612 22.5591 4.34492 22.5169 4.346C22.4747 4.34745 22.4324 4.34901 22.3901 4.35046C22.2206 4.35611 22.0497 4.36081 21.8787 4.36454L21.7505 4.3672C21.7078 4.36864 21.665 4.37214 21.6224 4.37442C21.5371 4.37924 21.452 4.38417 21.3671 4.38899C21.3505 4.38984 21.3341 4.39068 21.3175 4.39152C21.3167 4.39236 21.316 4.39321 21.3153 4.39405C21.2447 4.46547 21.1738 4.51966 21.1033 4.56398L21.5188 4.5075C21.6323 4.48931 21.7473 4.48486 21.8616 4.47378L22.5486 4.41633C22.6633 4.40826 22.7783 4.40766 22.8931 4.40297L23.5011 4.38369C23.485 4.37599 23.4691 4.36696 23.453 4.35973C23.4567 4.35443 23.4605 4.34937 23.4644 4.34419ZM21.3751 4.62034C21.5041 4.6325 21.6323 4.63828 21.7602 4.63864C21.8242 4.63888 21.888 4.63768 21.9518 4.63539C22.0156 4.6325 22.0795 4.63382 22.1435 4.63117C22.2304 4.62852 22.3175 4.62142 22.4046 4.61516C22.4999 4.583 22.5933 4.5529 22.68 4.52809C22.2131 4.53628 21.7434 4.56326 21.2732 4.60842C21.3072 4.61215 21.3412 4.61661 21.3751 4.62034ZM19.8394 4.57325C19.9488 4.60059 20.0632 4.58794 20.1967 4.50834C20.2227 4.49293 20.2524 4.48172 20.2842 4.4739C20.2811 4.47041 20.2783 4.46619 20.2753 4.4627C20.2314 4.46583 20.1872 4.46896 20.1442 4.47209C20.0676 4.48016 19.9923 4.48799 19.9185 4.49582C19.8442 4.50328 19.7713 4.51027 19.6999 4.51665C19.7459 4.5411 19.7922 4.56145 19.8394 4.57325ZM24.2377 4.60986C24.2886 4.62419 24.3394 4.64382 24.3892 4.66959C24.4469 4.67273 24.5046 4.67417 24.5621 4.67778C24.7424 4.68151 24.9359 4.67405 25.1394 4.65839C24.7124 4.6048 24.2804 4.56675 23.8443 4.54495C23.9693 4.56784 24.1033 4.57493 24.2377 4.60986ZM18.9767 5.13818C18.89 5.11229 18.8016 5.08243 18.7116 5.04895C18.677 5.05846 18.643 5.06942 18.6086 5.07917C18.6126 5.13361 18.6129 5.18311 18.6094 5.22803C18.7316 5.19683 18.854 5.16684 18.9767 5.13818ZM10.2461 14.3149C10.2798 14.2467 10.314 14.1776 10.3476 14.1097C10.3024 14.0846 10.2584 14.0603 10.2136 14.0355C10.1989 14.1196 10.184 14.2041 10.1693 14.2876C10.1947 14.2968 10.2202 14.3066 10.2461 14.3149ZM14.2915 6.88031C14.2826 6.89885 14.2736 6.91752 14.2655 6.93679C14.4878 6.816 14.7118 6.69894 14.9383 6.5873C14.9691 6.55021 15.0003 6.51456 15.0318 6.48072C14.7819 6.60826 14.5353 6.74181 14.2915 6.88031ZM18.6081 5.07412C18.6413 5.06544 18.6744 5.05593 18.7076 5.0475C18.6724 5.03437 18.638 5.02293 18.6022 5.00836C18.6052 5.0316 18.6064 5.05256 18.6081 5.07412ZM26.6907 4.50051L26.6158 4.56747C26.6001 4.56759 26.585 4.56783 26.5702 4.56796L26.6808 4.49437C26.6181 4.45113 26.5525 4.415 26.4835 4.38683C26.3608 4.33408 26.23 4.29964 26.0917 4.27808C26.0225 4.26736 25.9514 4.25977 25.8784 4.25483C25.8056 4.24942 25.7307 4.24725 25.6526 4.25062C25.499 4.25496 25.3352 4.21919 25.177 4.15898C25.0978 4.12887 25.02 4.09262 24.9456 4.05215C24.8711 4.01205 24.8005 3.96569 24.7339 3.92318C24.7307 3.92113 24.7278 3.91944 24.7247 3.91739C24.3661 3.8962 24.0068 3.88476 23.6474 3.88271C23.6187 3.90078 23.5911 3.92197 23.5616 3.93811C23.4914 3.97629 23.4192 4.00904 23.3449 4.0418C23.3194 4.05276 23.293 4.06047 23.2672 4.07047C23.8312 4.1261 24.3932 4.21329 24.9497 4.3301C24.7564 4.3466 24.52 4.35383 24.2544 4.34949C24.122 4.34492 23.9805 4.34961 23.8338 4.34877C23.7525 4.34865 23.6691 4.34781 23.5845 4.3466C23.5931 4.35828 23.6017 4.36997 23.6103 4.38165L24.272 4.39465C24.3869 4.3979 24.502 4.3973 24.6168 4.40369L25.3052 4.45307C25.4197 4.46294 25.5351 4.46583 25.649 4.48269L26.1458 4.54435C26.1505 4.52834 26.1552 4.51244 26.1598 4.49642L26.3884 4.54375L26.5026 4.5682L26.5056 4.56892C26.527 4.56879 26.5489 4.56759 26.5701 4.56807C26.5639 4.57228 26.5577 4.5765 26.5515 4.5806L26.6155 4.59697C26.6574 4.60793 26.6995 4.6189 26.7414 4.62997L26.8643 4.65165C26.8091 4.59433 26.7515 4.54338 26.6907 4.50051ZM24.4623 3.76794C24.383 3.73109 24.3041 3.70279 24.2247 3.68822C24.1403 3.67269 24.0552 3.67172 23.9684 3.68943C23.9359 3.69617 23.9031 3.70616 23.8701 3.71844C23.858 3.72953 23.8452 3.73904 23.8328 3.74976C23.9773 3.75313 24.1211 3.75734 24.2635 3.76108C24.3303 3.76337 24.3961 3.76566 24.4623 3.76794ZM26.611 4.91177C26.4734 4.88179 26.3356 4.85204 26.1963 4.82531C26.1906 4.8294 26.1848 4.83314 26.1791 4.83735L26.1655 4.84758C26.3099 4.86878 26.4537 4.89286 26.5975 4.91719C26.6019 4.91526 26.6064 4.91346 26.611 4.91177ZM7.37907 26.7503C7.3958 26.6904 7.41252 26.6305 7.42912 26.5708C7.44476 26.5117 7.4673 26.4514 7.48475 26.3927C7.52147 26.2746 7.55371 26.1589 7.57431 26.0449C7.58461 25.9878 7.59213 25.9312 7.59589 25.8749C7.60267 25.8181 7.60594 25.7615 7.60461 25.7051C7.60388 25.6755 7.59807 25.646 7.5948 25.6164C7.58074 25.5753 7.56777 25.5323 7.55141 25.4951C7.51299 25.4101 7.4919 25.3196 7.48124 25.2275C7.46536 25.1806 7.45082 25.1333 7.43555 25.0859C7.40573 24.9914 7.37725 24.896 7.35035 24.8C7.3375 24.7519 7.3226 24.7039 7.31266 24.6555L7.28527 24.5095C7.26794 24.412 7.25267 24.3141 7.23982 24.2158C7.23303 24.161 7.23134 24.1057 7.23715 24.0495C7.24455 23.9931 7.2563 23.9358 7.27012 23.8769C7.29787 23.759 7.33411 23.6348 7.35992 23.498C7.4553 23.5251 7.5445 23.5528 7.62873 23.5811C7.61443 23.5137 7.5971 23.4524 7.57831 23.4011C7.53553 23.2702 7.48402 23.2011 7.46694 23.2335C7.51226 22.6336 7.79343 22.081 7.73477 21.2602C7.6703 21.1826 7.66787 21.0005 7.69587 20.7714C7.72993 20.543 7.80409 20.2695 7.87208 20.0055C7.93619 19.7761 8.00346 19.5552 8.04587 19.3749C7.9877 19.4038 7.93001 19.4324 7.86651 19.4646C7.74216 19.1691 7.50948 18.8871 7.57359 18.6693C7.60122 18.5672 7.62097 18.4656 7.63479 18.3639C7.64848 18.2657 7.65394 18.1671 7.66278 18.0695C7.46548 18.6128 7.29193 19.1639 7.14784 19.7226C7.09645 19.9392 7.04519 20.1558 6.9938 20.3722C6.95344 20.5911 6.91296 20.8098 6.87261 21.0285C6.82631 21.2463 6.80668 21.4685 6.77529 21.6887L6.7313 22.0195C6.72269 22.0746 6.71881 22.1301 6.71469 22.1856L6.7016 22.352C6.67555 22.5312 6.64792 22.7071 6.61871 22.8793C6.60174 22.9653 6.59592 23.0511 6.58405 23.1358C6.57278 23.2206 6.56175 23.3043 6.55072 23.3871C6.52854 23.5528 6.50054 23.7148 6.47776 23.8729C6.4597 24.0311 6.43934 24.1852 6.4168 24.3354C6.44165 24.4574 6.46419 24.589 6.48528 24.7293C6.51388 24.8691 6.5409 25.0175 6.56647 25.1737C6.57859 25.2518 6.59108 25.3319 6.6038 25.4138C6.61725 25.4956 6.62428 25.5799 6.64282 25.6646C6.67506 25.8344 6.70633 26.0112 6.73663 26.194C6.75226 26.2853 6.76535 26.3785 6.78244 26.4724C6.79977 26.5558 6.81746 26.6409 6.83528 26.7264C7.00313 26.753 7.18444 26.7621 7.37907 26.7503ZM8.88319 11.4673C8.89216 11.4096 8.90331 11.3526 8.91761 11.2963C8.89022 11.3115 8.86029 11.3297 8.83096 11.3473C8.68044 11.5249 8.53246 11.705 8.38691 11.8876C8.39358 11.9431 8.40315 11.9994 8.41891 12.0573C8.56955 11.8575 8.72504 11.6613 8.88319 11.4673ZM14.7779 6.3297C14.718 6.37185 14.6591 6.41412 14.6062 6.46482C14.5248 6.53985 14.4544 6.62511 14.3908 6.7164C14.6672 6.56827 14.9461 6.42521 15.2288 6.29069C15.3203 6.21157 15.4129 6.13895 15.51 6.08282C15.6335 6.0084 15.7585 5.9453 15.8835 5.88725C15.9461 5.85835 16.0086 5.83041 16.0711 5.8032C16.1346 5.77851 16.198 5.75382 16.2615 5.72925C16.3779 5.68373 16.5016 5.64543 16.6215 5.60196C16.6815 5.5804 16.7402 5.55667 16.7972 5.53175C16.8548 5.50814 16.9102 5.48165 16.962 5.45045C16.9637 5.44949 16.9652 5.44829 16.9668 5.44733C16.8802 5.47503 16.7934 5.50224 16.7078 5.53102C16.0467 5.76369 15.3942 6.01719 14.7779 6.3297ZM28.2168 4.80279C28.5422 4.76811 28.7237 4.78822 28.8366 4.83037C28.8982 4.75787 28.9808 4.67923 29.092 4.55832C29.1311 4.8394 29.1607 4.99728 29.168 5.07279C29.2071 5.08472 29.2564 5.09073 29.3232 5.08748C29.4124 5.07507 29.5021 5.06303 29.5919 5.05171C29.592 5.0204 29.591 4.98861 29.5929 4.95778C29.58 4.94598 29.5689 4.93611 29.5564 4.92479C29.4923 4.91286 29.4283 4.9007 29.364 4.88914C29.4197 4.88986 29.4691 4.89058 29.5193 4.8913C29.3494 4.73752 29.2101 4.61721 29.0935 4.53508C29.0273 4.48702 28.9659 4.45427 28.909 4.43319C28.8521 4.41188 28.7997 4.40188 28.7491 4.40357C28.5825 4.40887 28.4347 4.54158 28.2168 4.80279ZM5.71194 16.7154C5.71473 16.7078 5.71752 16.7001 5.72031 16.6925C5.76515 16.5745 5.81883 16.4503 5.85847 16.3267C5.87883 16.2651 5.89349 16.2028 5.90585 16.1425C5.91809 16.0822 5.92391 16.0224 5.92039 15.964C5.91955 15.9516 5.91967 15.9393 5.91894 15.9269C5.86707 16.0451 5.81399 16.1632 5.76393 16.2817C5.70819 16.4135 5.65498 16.5464 5.60214 16.6795C5.63996 16.6894 5.6768 16.7007 5.71194 16.7154ZM6.04862 14.0846C5.98887 14.186 5.93639 14.2913 5.88367 14.3962C5.83059 14.5008 5.77763 14.6053 5.72467 14.7097C5.67159 14.814 5.61863 14.9182 5.56579 15.0221C5.51234 15.1258 5.4681 15.2339 5.41878 15.3391C5.32207 15.5507 5.22572 15.7615 5.12973 15.9714C5.21942 15.7792 5.30898 15.5872 5.39842 15.3955L5.5327 15.1082C5.57948 15.0136 5.63038 14.921 5.67898 14.8274C5.77739 14.6409 5.87568 14.4546 5.97384 14.2684C6.07613 14.0846 6.18605 13.9054 6.29173 13.7242C6.30349 13.7032 6.31633 13.6831 6.32833 13.6623C6.28785 13.706 6.24871 13.7507 6.21102 13.7965C6.15684 13.8926 6.10255 13.9889 6.04862 14.0846ZM31.5495 5.35002C31.5498 5.35014 31.55 5.35014 31.5502 5.35025C31.8486 5.44094 32.1028 5.55764 32.4031 5.67818C32.4116 5.68192 32.4214 5.68541 32.43 5.68914L32.3219 5.63314C32.1367 5.5427 31.9479 5.46009 31.7609 5.37338C31.5317 5.26271 31.2963 5.1666 31.0604 5.07231C31.2262 5.16191 31.3888 5.25536 31.5495 5.35002ZM27.9006 3.24095C27.9616 3.26431 28.0215 3.28852 28.0804 3.31152C28.2571 3.38257 28.4242 3.45266 28.5805 3.52118C28.6585 3.55611 28.7338 3.59007 28.8069 3.62283C28.8796 3.6563 28.9475 3.69388 29.0138 3.72832C29.0823 3.76469 29.1472 3.80034 29.2093 3.83538L29.5641 3.94196C29.6188 3.95882 29.6739 3.97411 29.7282 3.9923L30.2139 4.16379C31.3726 4.56759 32.4883 5.08664 33.556 5.69059C33.623 5.67421 33.6545 5.63832 33.6114 5.57125L33.8101 5.80669C34.243 6.00636 34.5516 6.18844 34.817 6.32814C35.084 6.46507 35.289 6.59441 35.5049 6.71051C35.6406 6.78409 35.7802 6.8573 35.9314 6.93956C35.4505 6.56442 34.9605 6.21711 34.4568 5.89484C33.4696 5.26536 32.4267 4.72704 31.2788 4.2735L31.2814 4.27447L31.6357 4.4132C31.7542 4.45848 31.868 4.51472 31.9844 4.56518C32.2153 4.66959 32.4482 4.77076 32.6775 4.87902L33.3559 5.22392L33.5253 5.31052C33.5811 5.34075 33.6357 5.37302 33.691 5.40409L34.0216 5.5928L34.2974 5.75093C33.7505 5.42276 33.1848 5.11398 32.5984 4.83241C31.4028 4.25797 30.13 3.78793 28.8081 3.45025C28.5079 3.37318 28.2052 3.30405 27.9006 3.24095Z" fill="#B92E2D"/>
<path d="M0.745221 26.5568C0.725709 26.5992 0.70741 26.6387 0.688504 26.6797C0.671416 26.6586 0.653115 26.6359 0.635663 26.6143C0.646207 26.5878 0.649722 26.5497 0.668628 26.5389C0.684868 26.5302 0.718074 26.5492 0.745221 26.5568Z" fill="#B92E2D"/>
<path d="M0.189431 22.1265C0.190522 22.1949 0.194037 22.2633 0.196339 22.3315C0.202035 22.4677 0.20761 22.6039 0.213306 22.7404C0.146165 22.7496 0.0763584 22.7591 0.00776333 22.7684C0.00606663 22.627 0.00424883 22.4854 0.00255213 22.3437L0.000976563 22.1308L0.0076422 21.9184C0.0671479 21.9192 0.130047 21.9202 0.190158 21.9211C0.190037 21.9897 0.189674 22.0581 0.189431 22.1265Z" fill="#B92E2D"/>
<path d="M0.482597 17.7817C0.52865 17.6006 0.574219 17.421 0.619787 17.2418C0.672385 17.2565 0.725103 17.2713 0.777337 17.2858C0.732375 17.4631 0.686807 17.6428 0.641844 17.8199C0.589004 17.8072 0.535194 17.7942 0.482597 17.7817Z" fill="#B92E2D"/>
<path d="M0.138409 19.8056C0.149074 19.7085 0.147983 19.607 0.177676 19.5158C0.188098 19.4838 0.274993 19.4816 0.351587 19.4607C0.348315 19.562 0.368433 19.6658 0.335953 19.7455C0.318259 19.7862 0.207368 19.7864 0.138409 19.8056Z" fill="#B92E2D"/>
<path d="M9.60853 5.87051C9.62029 5.89327 9.63314 5.91508 9.64695 5.93868L9.12437 6.28443L8.86393 6.45881C8.77764 6.51782 8.69438 6.58128 8.60954 6.64258C8.60494 6.61211 8.5996 6.58478 8.59645 6.55564C8.67935 6.49638 8.75946 6.43328 8.84466 6.37776L9.09843 6.20795C9.26822 6.0956 9.43814 5.98323 9.60853 5.87051Z" fill="#B92E2D"/>
<path d="M11.9265 42.6965C11.9107 42.7402 11.8948 42.7844 11.8793 42.8275C11.7373 42.7479 11.5985 42.6601 11.4587 42.5763C11.4764 42.5445 11.4939 42.5129 11.5122 42.48C11.6503 42.5525 11.7877 42.6277 11.9265 42.6965Z" fill="#B92E2D"/>
<path d="M14.496 43.523L14.6286 43.5688L14.763 43.6092L15.0322 43.689C15.0215 43.7253 15.0106 43.762 14.9998 43.7986L14.7196 43.7407L14.5796 43.7108L14.4412 43.6754C14.2564 43.6271 14.0716 43.5787 13.8869 43.5304C13.9122 43.4661 13.9401 43.4019 13.9667 43.3376C14.143 43.3994 14.3194 43.4612 14.496 43.523Z" fill="#B92E2D"/>
<path d="M5.90525 38.0886L6.00341 38.1917L6.10558 38.2907L6.31076 38.4881C6.28543 38.5154 6.25974 38.5431 6.23404 38.5707L6.00947 38.3875L5.89773 38.2951L5.78975 38.1986C5.64602 38.0687 5.5024 37.939 5.35879 37.8093C5.40957 37.7638 5.46229 37.7197 5.51428 37.6749C5.64444 37.8128 5.77472 37.9506 5.90525 38.0886Z" fill="#B92E2D"/>
<path d="M8.69765 40.07C8.85811 40.1548 9.02402 40.2449 9.19381 40.3392C9.36518 40.4309 9.54515 40.519 9.72524 40.6142C9.81529 40.6616 9.9063 40.7095 9.99793 40.7577C10.0439 40.7816 10.0891 40.807 10.1357 40.8302C10.1826 40.8528 10.2296 40.8754 10.2767 40.8982C10.465 40.9895 10.6544 41.0826 10.8432 41.1769L10.9848 41.2478C11.0323 41.2708 11.0808 41.2915 11.1287 41.3136C11.2245 41.3573 11.3201 41.401 11.4155 41.4445C11.5105 41.4885 11.6052 41.5324 11.6992 41.576C11.7934 41.6192 11.8854 41.6657 11.9804 41.7036C12.1686 41.7831 12.3532 41.8624 12.5322 41.9408C12.6217 41.98 12.71 42.0188 12.7968 42.0569C12.8847 42.0921 12.9713 42.1268 13.0561 42.1608C13.2255 42.2296 13.3878 42.2971 13.5411 42.3631C14.1596 42.6105 14.6389 42.8235 14.8567 42.9763C14.7026 43.1353 14.5571 43.2691 14.3941 43.31C14.2325 43.347 14.0519 43.2926 13.8342 43.0837C13.7528 43.0056 13.663 42.9359 13.5672 42.8729C13.4717 42.8088 13.3723 42.7458 13.2684 42.6912C13.0614 42.5799 12.8405 42.4904 12.6291 42.4078C12.4226 42.3184 12.2144 42.2335 12.0051 42.1507C11.9008 42.1086 11.7949 42.07 11.6912 42.0261L11.3816 41.8917C11.1754 41.8013 10.9669 41.7145 10.7627 41.6183C10.5606 41.5176 10.3593 41.4144 10.1601 41.3068C9.21041 40.7791 8.31553 40.1438 7.46778 39.4484C7.68787 39.5416 7.95025 39.6696 8.23821 39.827C8.38061 39.9084 8.53767 39.9846 8.69765 40.07Z" fill="#B92E2D"/>
<path d="M3.97477 36.1462C3.94168 36.1778 3.90811 36.2098 3.87551 36.2409C3.78364 36.1032 3.69821 35.9599 3.6101 35.8196C3.63967 35.7996 3.66912 35.7797 3.6999 35.7589C3.79152 35.8884 3.8812 36.0199 3.97477 36.1462Z" fill="#B92E2D"/>
<path d="M4.6509 8.56114C4.771 8.42132 4.89014 8.28247 5.00903 8.14409C5.0495 8.18191 5.0901 8.21984 5.13022 8.2573C5.01278 8.39422 4.89365 8.5332 4.77621 8.67001C4.73452 8.63388 4.69223 8.59703 4.6509 8.56114Z" fill="#B92E2D"/>
<path d="M17.3878 2.28258C17.5882 2.26211 17.7888 2.24151 17.99 2.22092C17.9905 2.24669 17.9924 2.27222 17.9945 2.29967L17.3775 2.3629L17.069 2.39626C16.9664 2.40842 16.8643 2.42601 16.7619 2.44082C16.7712 2.41156 16.7783 2.3847 16.7882 2.35712C16.888 2.34315 16.987 2.32449 17.0873 2.31485L17.3878 2.28258Z" fill="#B92E2D"/>
<path d="M7.45433 22.7491C7.39568 22.7507 7.3375 22.7538 7.27751 22.7573C7.25703 22.6535 7.23376 22.5487 7.21098 22.4436C7.26927 22.4424 7.32744 22.4413 7.3838 22.4402C7.40707 22.5423 7.43082 22.6458 7.45433 22.7491Z" fill="#B92E2D"/>
<path d="M0.93004 16.5092C0.951007 16.4905 0.970761 16.4581 0.992334 16.4574C1.01063 16.4572 1.03196 16.4898 1.05293 16.5093C1.01694 16.538 0.983486 16.5646 0.948704 16.5923C0.942644 16.5654 0.9361 16.5367 0.93004 16.5092Z" fill="#B92E2D"/>
<path d="M28.001 21.5341C28.001 26.3068 22.001 30.3977 22.001 30.3977C22.001 30.3977 16.001 26.3068 16.001 21.5341C16.001 19.9066 16.6331 18.3458 17.7583 17.195C18.8836 16.0442 20.4097 15.3977 22.001 15.3977C23.5923 15.3977 25.1184 16.0442 26.2436 17.195C27.3688 18.3458 28.001 19.9066 28.001 21.5341Z" stroke="white" stroke-width="2" stroke-linecap="round" stroke-linejoin="round"/>
<path d="M22.001 23.5795C23.1055 23.5795 24.001 22.6637 24.001 21.5341C24.001 20.4044 23.1055 19.4886 22.001 19.4886C20.8964 19.4886 20.001 20.4044 20.001 21.5341C20.001 22.6637 20.8964 23.5795 22.001 23.5795Z" stroke="white" stroke-width="2" stroke-linecap="round" stroke-linejoin="round"/>
</svg>
