<svg width="151" height="140" viewBox="0 0 151 140" fill="none" xmlns="http://www.w3.org/2000/svg">
<g opacity="0.15">
<path d="M133.488 17.8734C133.78 20.1154 134.26 22.3519 134.324 24.6009C134.455 29.1807 133.231 33.5028 131.228 37.5945C130.699 38.6748 130.666 39.5697 131.157 40.7038C137.357 55.0012 143.518 69.3151 149.65 83.6415C151.973 89.0666 151.316 94.1477 147.544 98.7296C146.049 100.546 144.113 101.785 141.941 102.717C124.294 110.284 106.659 117.881 89.0207 125.468C78.8378 129.849 68.6569 134.232 58.4719 138.608C50.4228 142.067 42.5654 138.928 39.0955 130.867C33.0988 116.936 27.0767 103.016 21.1551 89.0542C20.4223 87.3271 19.4605 86.3826 17.6542 85.8008C12.953 84.2875 8.81021 81.7676 5.51335 78.0171C0.527385 72.3459 -0.91559 65.7232 0.536352 58.4401C2.11997 50.4979 6.39994 43.9828 11.8085 38.1647C19.0793 30.3431 27.8419 24.614 37.5836 20.3636C47.9561 15.8375 58.3679 11.4038 68.7658 6.937C77.958 2.98864 87.5018 0.467405 97.533 0.0613318C104.915 -0.237191 112.164 0.505317 119.068 3.36783C124.11 5.45748 128.331 8.57715 131.263 13.2749C131.383 13.4666 131.572 13.6141 131.729 13.7823C132.315 15.1467 132.901 16.5097 133.488 17.8734ZM81.8499 122.494C90.2409 118.884 98.632 115.275 107.022 111.665C112.809 109.174 114.544 104.836 112.061 99.0612C105.74 84.3661 99.4379 69.6626 93.0683 54.9888C92.3678 53.3749 92.4423 52.0429 93.2627 50.522C94.1383 48.8984 94.8656 47.1734 95.4675 45.4278C98.7154 36.0178 95.1407 27.3482 86.2491 22.9373C79.8836 19.779 73.0589 18.9075 66.0929 19.2971C47.4727 20.3388 31.3104 27.2889 17.7534 40.0951C12.4703 45.0859 8.24074 50.8757 6.31378 58.0361C4.81565 63.6032 5.37957 68.8884 9.03355 73.5724C12.2553 77.7013 16.6876 79.931 21.6129 81.2581C23.382 81.7345 24.4499 82.6328 25.1807 84.3502C31.4642 99.1116 37.8256 113.84 44.1683 128.576C46.5014 133.996 50.9799 135.769 56.4202 133.432C64.8988 129.788 73.374 126.14 81.8499 122.494ZM67.8951 13.246C67.9364 13.3763 67.9778 13.5059 68.0192 13.6362C69.4511 13.6893 70.8858 13.7113 72.3157 13.801C78.4461 14.1857 84.3456 15.499 89.7583 18.4987C97.1649 22.6029 101.614 28.7257 102.116 37.3532C102.407 42.3723 101.155 47.1004 98.9581 51.5803C98.4679 52.5799 98.4417 53.3921 98.8933 54.4338C105.069 68.6871 111.19 82.9638 117.339 97.2287C118.308 99.4763 118.877 101.791 118.75 104.246C118.71 105.014 118.585 105.778 118.476 106.739C119.068 106.484 119.482 106.306 119.896 106.129C126.371 103.343 132.846 100.559 139.319 97.7727C145.005 95.3259 146.745 90.9474 144.294 85.2492C137.936 70.4686 131.59 55.6831 125.199 40.9162C124.591 39.5104 124.633 38.3115 125.331 36.9568C126.22 35.2325 127.027 33.4455 127.665 31.6144C130.953 22.1706 127.489 13.7182 118.552 9.25692C113.384 6.67708 107.827 5.78565 102.129 5.61123C93.8907 5.3589 85.8886 6.76532 78.1008 9.36584C74.6515 10.5165 71.2939 11.9436 67.8951 13.246Z" fill="#B92E2D"/>
<path d="M56.163 102.594C55.0606 102.331 53.9568 102.366 53.3363 101.836C52.7096 101.301 52.4284 100.231 52.2553 99.3432C52.154 98.8248 52.5215 98.1926 52.7428 97.6369C57.948 84.5515 63.1614 71.4696 68.3749 58.3877C69.3118 56.0374 70.6879 55.1405 72.3694 55.7741C74.093 56.4235 74.5039 58.0747 73.5394 60.4974C68.328 73.58 63.1249 86.6667 57.8818 99.7369C57.504 100.676 56.8317 101.498 56.163 102.594Z" fill="#B92E2D"/>
<path d="M52.4904 66.212C52.3443 67.4013 52.4063 68.31 52.1092 69.08C50.2119 74.0012 48.2539 78.8989 46.2759 83.7883C45.5079 85.6856 44.0056 86.395 42.4379 85.7187C40.9432 85.0741 40.3992 83.5553 41.1169 81.7262C43.0446 76.8168 45.0156 71.9246 46.9639 67.0228C47.4507 65.7977 48.3221 64.8725 49.632 64.989C50.5731 65.0731 51.4611 65.748 52.4904 66.212Z" fill="#B92E2D"/>
<path d="M85.5962 73.5151C85.4363 74.6803 85.4769 75.5421 85.1922 76.2784C83.2866 81.1961 81.3287 86.0938 79.3514 90.9839C78.6254 92.7792 77.1418 93.523 75.634 92.9598C74.0628 92.3731 73.4643 90.7888 74.2027 88.9059C76.129 83.9958 78.089 79.0995 80.0532 74.2046C80.5544 72.9553 81.4328 71.957 82.853 72.1859C83.7934 72.3376 84.6455 73.0332 85.5962 73.5151Z" fill="#B92E2D"/>
<path d="M54.8669 59.8776C53.5032 60.4401 51.8197 59.7473 51.2667 58.3946C50.7166 57.0481 51.4294 55.3266 52.7627 54.7827C54.1058 54.2346 55.8252 54.9502 56.374 56.2856C56.9304 57.6397 56.2264 59.3171 54.8669 59.8776Z" fill="#B92E2D"/>
<path d="M73.6064 103.254C72.2916 103.845 70.5536 103.174 69.9586 101.847C69.3602 100.513 70.0178 98.8179 71.3677 98.2174C72.7135 97.619 74.4109 98.265 75.0079 99.6025C75.5967 100.923 74.9301 102.66 73.6064 103.254Z" fill="#B92E2D"/>
<path d="M120.906 73.1387C118.359 67.2193 115.886 61.2661 113.227 55.3983C112.316 53.3893 112.263 51.601 112.956 49.5361C114.953 43.5898 115.452 37.4842 114.166 31.3186C113.706 29.1083 112.914 26.9642 112.223 24.8063C111.547 22.6939 112.656 20.8021 114.657 20.7959C116.026 20.7918 116.903 21.5439 117.402 22.7677C119.369 27.5813 120.408 32.5844 120.413 37.7903C120.417 42.2226 119.784 46.5647 118.419 50.7826C118.085 51.8133 118.139 52.6875 118.576 53.6941C123.684 65.4757 128.747 77.2774 133.822 89.0742C133.931 89.33 134.042 89.585 134.151 89.8408C135.087 92.0318 134.697 93.674 133.076 94.3738C131.453 95.0743 129.983 94.2318 129.042 92.0463C126.327 85.7456 123.617 79.4422 120.906 73.1387Z" fill="#B92E2D"/>
</g>
</svg>
