<svg width="48" height="52" viewBox="0 0 48 52" fill="none" xmlns="http://www.w3.org/2000/svg">
<path d="M46.1816 6.57361C32.3901 7.03947 24.7739 0.344126 24.698 0.279123C24.499 0.099454 24.2403 0 23.9722 0C23.704 0 23.4454 0.099454 23.2463 0.279123C23.1705 0.344126 15.5759 7.03947 1.76269 6.57361C1.50771 6.56897 1.25926 6.65444 1.06109 6.81496C0.862912 6.97548 0.727719 7.20077 0.679305 7.45116C0.603468 7.81951 -6.01604 44.1672 23.7122 51.9676C23.8901 52.0108 24.0759 52.0108 24.2538 51.9676C53.9712 44.1672 47.3517 7.81951 47.265 7.45116C47.2166 7.20077 47.0814 6.97548 46.8832 6.81496C46.6851 6.65444 46.4366 6.56897 46.1816 6.57361ZM23.9722 49.79C-1.3033 42.9538 1.76269 14.3307 2.64024 8.76206C14.5575 8.88123 21.7404 4.16849 23.9722 2.4784C26.2039 4.16849 33.4627 8.89206 45.2933 8.76206C46.0733 14.2332 48.9334 43.0296 23.9722 49.79Z" fill="#B92E2D"/>
<path d="M42.6267 10.6905C36.2245 10.4557 29.9888 8.5872 24.5124 5.26275C24.3402 5.15513 24.1413 5.09807 23.9382 5.09807C23.7352 5.09807 23.5362 5.15513 23.364 5.26275C17.8961 8.5781 11.6724 10.4426 5.28228 10.6797C5.02219 10.6914 4.77503 10.7964 4.58603 10.9755C4.39703 11.1545 4.27883 11.3957 4.25306 11.6547C3.42968 20.4735 3.64636 41.6321 23.6241 47.6341C23.8295 47.6919 24.047 47.6919 24.2524 47.6341C44.2301 41.6321 44.4468 20.4735 43.6234 11.6547C43.5962 11.4028 43.4816 11.1684 43.2995 10.9923C43.1174 10.8161 42.8794 10.7093 42.6267 10.6905ZM23.9707 45.4673C6.48484 40.0504 5.7048 21.4919 6.36567 12.7923C12.5709 12.4128 18.6006 10.5834 23.9707 7.45119C29.3387 10.5883 35.3697 12.418 41.5758 12.7923C42.2367 21.4919 41.4566 40.007 23.9707 45.4673Z" fill="#B92E2D"/>
<path d="M29.5183 21.5675L21.4579 29.6171L18.4244 26.5403C18.2229 26.3482 17.9552 26.2411 17.6769 26.2411C17.3985 26.2411 17.1308 26.3482 16.9293 26.5403C16.8278 26.641 16.7472 26.7608 16.6922 26.8928C16.6372 27.0249 16.6089 27.1665 16.6089 27.3095C16.6089 27.4525 16.6372 27.5941 16.6922 27.7261C16.7472 27.8582 16.8278 27.978 16.9293 28.0787L20.7212 31.8706C20.8224 31.971 20.9425 32.0504 21.0745 32.1043C21.2065 32.1582 21.3478 32.1856 21.4904 32.1847C21.633 32.1856 21.7743 32.1582 21.9063 32.1043C22.0383 32.0504 22.1584 31.971 22.2596 31.8706L31.0134 23.0951C31.2152 22.8921 31.3284 22.6175 31.3284 22.3313C31.3284 22.0451 31.2152 21.7705 31.0134 21.5675C30.8119 21.3755 30.5442 21.2683 30.2658 21.2683C29.9875 21.2683 29.7198 21.3755 29.5183 21.5675Z" fill="#B92E2D"/>
</svg>
