<svg width="23" height="24" viewBox="0 0 23 24" fill="none" xmlns="http://www.w3.org/2000/svg">
<path d="M1.81258 4.46464H19.2247C20.8018 4.46464 21.9405 5.91813 21.5079 7.38078L19.6149 13.7899C19.3231 14.7741 18.3915 15.4516 17.3317 15.4516H6.85058C5.78964 15.4516 4.85689 14.773 4.5662 13.7899L1.81258 4.46464ZM1.81258 4.46464L1 1.7179M16.4505 22.3185C16.9058 22.3185 17.3424 22.1376 17.6644 21.8157C17.9863 21.4938 18.1672 21.0571 18.1672 20.6018C18.1672 20.1465 17.9863 19.7098 17.6644 19.3879C17.3424 19.0659 16.9058 18.8851 16.4505 18.8851C15.9952 18.8851 15.5585 19.0659 15.2366 19.3879C14.9146 19.7098 14.7337 20.1465 14.7337 20.6018C14.7337 21.0571 14.9146 21.4938 15.2366 21.8157C15.5585 22.1376 15.9952 22.3185 16.4505 22.3185ZM7.29463 22.3185C7.74994 22.3185 8.18659 22.1376 8.50854 21.8157C8.83048 21.4938 9.01135 21.0571 9.01135 20.6018C9.01135 20.1465 8.83048 19.7098 8.50854 19.3879C8.18659 19.0659 7.74994 18.8851 7.29463 18.8851C6.83933 18.8851 6.40268 19.0659 6.08073 19.3879C5.75878 19.7098 5.57792 20.1465 5.57792 20.6018C5.57792 21.0571 5.75878 21.4938 6.08073 21.8157C6.40268 22.1376 6.83933 22.3185 7.29463 22.3185Z" stroke="#002922" stroke-width="1.5" stroke-linecap="round" stroke-linejoin="round"/>
</svg>
