<svg width="54" height="54" viewBox="0 0 54 54" fill="none" xmlns="http://www.w3.org/2000/svg">
<path d="M53 35.6667C53 37.199 52.3913 38.6686 51.3077 39.7522C50.2242 40.8357 48.7546 41.4444 47.2222 41.4444H12.5556L1 53V6.77778C1 5.24542 1.60873 3.77582 2.69227 2.69227C3.77582 1.60873 5.24542 1 6.77778 1H47.2222C48.7546 1 50.2242 1.60873 51.3077 2.69227C52.3913 3.77582 53 5.24542 53 6.77778V35.6667Z" stroke="#B92E2D" stroke-width="2" stroke-linecap="round" stroke-linejoin="round"/>
<rect x="9.66797" y="10.9048" width="37.1429" height="2.47619" rx="1.2381" fill="#B92E2D"/>
<rect x="9.66797" y="19.5714" width="37.1429" height="2.47619" rx="1.2381" fill="#B92E2D"/>
<rect x="9.66797" y="29.4762" width="22.2857" height="2.47619" rx="1.2381" fill="#B92E2D"/>
</svg>
