<svg width="222" height="170" viewBox="0 0 222 170" fill="none" xmlns="http://www.w3.org/2000/svg">
<g opacity="0.15">
<path d="M221.486 60.3972C220.558 68.4684 214.577 71.4053 207.845 73.5026C199.543 76.0891 191.278 75.8407 183.035 73.1619C182.214 72.8949 181.006 73.092 180.224 73.5184C172.531 77.7151 164.463 80.5161 155.569 80.3705C153.957 80.3443 152.349 80.1428 150.53 80.0062C146.717 91.7761 137.439 93.3857 126.642 92.2592C126.1 93.4245 125.617 94.6338 124.995 95.7686C123.019 99.3699 120.086 101.906 116.315 103.614C115.4 104.029 114.646 105.043 114.092 105.946C112.915 107.866 111.919 109.894 110.72 112.112C113.769 115.056 116.306 118.766 117.652 123.199C117.8 123.689 118.069 124.187 118.05 124.674C117.927 127.847 119.892 129.188 122.435 130.639C126.106 132.735 129.757 135.126 132.758 138.054C138.72 143.873 138.214 150.711 131.859 156.149C126.822 160.46 120.782 162.947 114.447 164.448C109.02 165.734 103.408 166.861 97.8751 166.886C93.8951 166.903 90.1872 167.568 86.3858 168.296C74.9943 170.479 63.6605 170.728 52.4928 167.104C44.6961 164.574 38.261 160.16 33.4662 153.482C32.9284 152.732 32.1517 152.115 31.3882 151.569C12.5733 138.144 2.2981 119.944 0.732538 97.0131C0.111414 87.9105 1.22047 78.9135 3.67492 70.0824C3.98532 68.9653 4.00305 67.5868 3.63881 66.5003C2.01482 61.6511 2.40588 56.886 5.24306 52.7989C10.7231 44.9045 16.3544 37.0759 22.4625 29.6561C29.5815 21.0086 37.6525 13.2264 47.4776 7.52689C57.3807 1.7821 67.88 -0.665942 79.0834 3.00493C82.4671 4.11348 85.6136 6.00821 88.7371 7.77136C89.9574 8.46034 90.8303 8.6132 92.1536 8.10495C106.311 2.66838 120.892 -0.233254 136.134 1.08233C144.058 1.76625 151.656 3.70123 158.946 6.85409C162.941 8.58172 166.309 11.0814 169.23 14.2798C169.916 15.0322 171.132 15.6077 172.159 15.7065C178.964 16.357 185.533 17.8811 191.825 20.5207C195.53 22.0749 197.51 25.1157 197.105 28.9899C196.963 30.3495 197.435 30.894 198.488 31.523C205.9 35.955 212.34 41.4662 217.097 48.7062C218.524 50.8789 219.56 53.3049 220.775 55.6145C221.015 57.2101 221.251 58.8036 221.486 60.3972ZM9.83412 61.8279C10.0641 61.9599 10.2931 62.0922 10.5232 62.2251C11.232 61.8416 11.9407 61.4572 12.6498 61.0753C21.7443 56.1727 31.4028 53.2279 41.7896 53.0333C56.4141 52.7582 69.3983 57.6841 81.3608 65.5984C93.4065 73.5671 103.246 83.7634 111.485 95.504C112.496 96.9456 113.296 97.0599 114.683 96.1936C117.94 94.1573 119.747 91.0674 120.027 87.493C120.366 83.1595 120.618 78.6383 119.769 74.4272C115.409 52.8087 105.096 34.1475 89.8825 18.2275C82.5585 10.5636 73.4698 6.96566 62.6241 9.33258C56.8405 10.5945 51.6711 13.2686 46.9275 16.7085C32.4327 27.2189 21.6908 41.0615 12.0293 55.8102C10.8868 57.5515 10.5462 59.8093 9.83412 61.8279ZM26.8979 138.161C26.796 136.387 26.7435 135.319 26.672 134.252C26.2672 128.191 27.3876 122.402 30.3689 117.101C37.7169 104.033 49.6124 98.6674 64.0693 98.6516C77.272 98.6372 89.8674 102.069 102.067 106.894C103.419 107.429 104.568 107.791 105.452 106.284C106.338 104.774 108 103.427 106.563 101.397C97.3571 88.3956 86.4857 77.0663 72.5771 68.9502C54.3447 58.3108 35.6981 57.5112 16.6572 67.1284C12.8437 69.0548 10.1274 71.4523 9.9016 75.9419C9.8545 76.88 9.50875 77.7999 9.34614 78.736C5.85701 98.8356 9.16531 117.316 22.5207 133.377C23.763 134.869 25.1421 136.249 26.8979 138.161ZM85.4036 160.953C76.3958 147.553 93.944 122.09 110.116 125.023C110.07 124.711 110.059 124.427 109.982 124.162C109.861 123.743 109.713 123.329 109.546 122.925C107.28 117.435 102.636 114.583 97.3392 112.914C90.4743 110.752 83.4945 108.869 76.461 107.318C68.9265 105.657 61.3198 105.265 53.688 107.411C41.9201 110.719 34.1327 120.465 33.9267 132.526C33.7302 144.042 41.7344 155.287 53.3369 159.578C63.7675 163.436 74.4271 163.085 85.4036 160.953ZM96.8143 14.2491C114.176 34.8721 127.202 57.2101 128.26 84.8855C137.133 86.8228 142.79 83.5089 144.124 74.9156C144.972 69.4478 145.46 63.8594 145.393 58.3349C145.281 49.1777 146.458 40.4163 150.96 32.267C153.944 26.8655 157.905 22.2858 163.206 18.0131C160.376 16.3441 157.949 14.5643 155.255 13.3823C143.407 8.1827 130.964 7.16827 118.225 8.83072C110.912 9.78437 103.805 11.5927 96.8143 14.2491ZM152.28 72.4666C157.743 73.7035 167.046 71.9932 173.667 68.7418C175.707 67.7397 176.324 66.5097 176.42 64.2198C176.952 51.4992 179.436 39.3809 188.865 29.7761C190.247 28.3689 189.886 27.6695 188.172 26.9938C182.587 24.7912 176.821 23.3794 170.816 23.0803C169.765 23.0282 168.462 23.4011 167.641 24.0401C159.685 30.2279 154.557 38.2691 153.441 48.2302C152.542 56.2548 152.63 64.3841 152.28 72.4666ZM104.496 159.224C104.533 159.319 104.572 159.415 104.61 159.511C109.19 158.138 113.873 157.026 118.318 155.305C121.499 154.074 124.547 152.281 127.315 150.278C130.097 148.262 130.107 146.127 127.836 143.532C126.736 142.275 125.51 140.978 124.068 140.189C119.241 137.547 114.331 135.041 109.365 132.662C107.424 131.732 105.323 132.1 103.388 133.115C95.9335 137.027 91.5756 143.137 90.3949 151.385C89.7435 155.937 92.9951 159.615 97.6573 159.677C99.9333 159.708 102.216 159.386 104.496 159.224ZM192.578 36.565C192.03 37.2544 191.536 37.7905 191.136 38.3896C185.863 46.2985 184.278 55.2405 183.749 64.457C183.724 64.8934 184.316 65.6399 184.768 65.7824C193.408 68.5036 201.979 68.9966 210.327 64.657C213.487 63.0142 214.339 61.232 213.459 57.8326C213.152 56.6451 212.67 55.4574 212.041 54.4041C207.362 46.5798 200.53 41.0651 192.578 36.565Z" fill="#B92E2D"/>
<path d="M198.923 124.15C191.86 125.174 185.266 120.364 184.18 113.394C183.086 106.384 188.111 99.6567 195.21 98.6292C202.351 97.5955 208.957 102.529 209.954 109.641C210.935 116.626 205.994 123.124 198.923 124.15ZM202.53 110.597C202.091 107.623 199.36 105.548 196.369 105.917C193.351 106.29 191.115 109.211 191.552 112.211C191.995 115.239 194.879 117.301 197.969 116.796C201.003 116.3 202.977 113.617 202.53 110.597Z" fill="#B92E2D"/>
<path d="M161.819 114.66C162.159 116.566 160.781 118.54 158.849 118.916C156.847 119.305 154.76 117.837 154.472 115.836C154.196 113.921 155.644 111.97 157.573 111.658C159.498 111.347 161.477 112.745 161.819 114.66Z" fill="#B92E2D"/>
<path d="M172.893 113.079C170.892 113.39 169.064 112.074 168.733 110.084C168.396 108.057 169.652 106.273 171.672 105.91C173.794 105.528 175.67 106.865 175.964 108.969C176.243 110.97 174.901 112.768 172.893 113.079Z" fill="#B92E2D"/>
<path d="M66.6769 33.1433C69.9498 33.2204 72.3073 33.1586 74.6406 33.3636C76.9499 33.566 78.3743 35.2917 78.2026 37.3167C78.0224 39.4374 76.2367 40.8439 73.8308 40.6143C68.8552 40.1394 64.4222 41.3892 60.2372 44.1442C53.4636 48.602 47.7784 54.1906 42.4479 60.1938C39.99 62.9623 37.7478 63.4906 35.9048 61.7621C34.1389 60.106 34.4935 58.0192 36.9088 55.2873C42.9168 48.4941 49.2979 42.0809 57.1826 37.4388C60.365 35.5659 63.9445 34.3585 66.6769 33.1433Z" fill="#B92E2D"/>
</g>
</svg>
