<svg width="994" height="996" viewBox="0 0 994 996" fill="none" xmlns="http://www.w3.org/2000/svg">
<mask id="mask0_2009_225" style="mask-type:alpha" maskUnits="userSpaceOnUse" x="0" y="0" width="994" height="996">
<rect width="994" height="996" fill="#D9D9D9"/>
</mask>
<g mask="url(#mask0_2009_225)">
<path d="M878.403 180.621C920.291 230.651 941.553 270.935 962.843 327.413C1013.34 451.81 997.06 640.516 921.146 755.435C904.911 782.123 886.038 807.38 864.94 830.691C816.529 884.364 755.998 927.269 690.198 954.875C685.364 956.908 682.414 957.979 680.199 958.858C659.474 967.401 623.426 978.398 601.602 982.75C556.039 994.114 473.946 996.674 431.583 989.426C413.547 987.058 395.256 983.262 388.422 981.46C381.941 979.99 378.374 979.297 376.69 978.893C376.671 978.888 376.651 978.883 376.632 978.878C371.197 977.617 357.621 973.671 354.658 972.741C354.214 972.602 356.907 973.599 349.703 971.339C349.064 971.129 349.679 971.248 343.625 969.294C342.008 968.879 321.887 962.007 316.253 959.664C297.17 952.849 253.78 931.254 233.617 917.825C230.486 915.848 228.657 914.744 225.376 912.594C223.683 911.484 221.221 909.757 220.707 909.409C218.439 907.931 208.532 901.329 212.36 903.312C202.217 896.124 205.108 898.356 204.798 898.311C193.968 890.363 189.104 885.993 186.163 884.017C178.883 878.132 171.801 872.073 164.812 865.748C122.546 827.529 86.9436 782.131 60.1389 731.891C60.0881 731.896 60.0374 731.901 59.9866 731.905C51.0271 714.519 48.0811 708.527 43.7516 698.221C40.9222 691.947 38.2345 685.64 35.6648 679.241C-30.123 514.442 1.87004 316.214 115.242 182.189C119.965 176.549 121.168 175.176 129.317 166.072C129.399 165.981 129.482 165.889 129.565 165.797C138.573 155.781 151.559 142.313 164.555 130.581C176.039 120.048 193.84 105.627 207.951 95.6001C211.132 93.3145 213.417 91.6492 213.777 91.3967C215.903 89.9204 216.067 89.9295 218.137 88.5165C220.619 86.8257 223.565 84.7641 226.491 82.8611C237.358 75.7346 249.545 68.6705 250.995 67.861C257.876 63.9542 259.474 63.2532 260.04 62.9336C267.773 58.7748 264.837 60.2777 266.774 59.2515C276.9 54.0217 284.129 50.6399 298.297 44.1509C297.942 44.3958 297.587 44.6411 297.232 44.8869C308.165 40.1969 300.871 43.1237 303.087 42.124C303.922 41.5787 327.803 32.2289 329.712 31.73C336.195 29.4417 336.427 29.5188 336.986 29.3211C338.347 28.8003 354.756 23.3354 363.371 21.1215C373.525 18.4489 361.667 21.9309 364.193 21.2829C364.611 21.1438 375.22 18.3033 376.673 18.0454C378.265 17.7084 369.072 20.0635 369.225 20.0768C369.317 20.0125 384.646 16.3592 381.741 17.2006C379.372 17.7554 358.688 23.1146 354.391 24.5918C353.678 24.8145 355.063 24.5321 354.431 24.7268C351.714 24.9235 305.379 41.6996 303.535 43.1169C305.871 42.0613 308.212 41.0251 310.564 40.0062C307.406 41.2834 304.262 42.5929 301.128 43.9368C305.564 41.9748 310.012 40.085 314.516 38.2497C307.573 40.3287 287.91 49.6032 287.247 50.2913C286.929 50.5394 299.116 45.263 287.967 50.5758C289.676 49.8091 291.398 49.0489 293.118 48.3009C296.622 46.6625 300.142 45.0667 303.678 43.5137C301.299 44.4921 298.927 45.4899 296.561 46.507C297.414 46.0922 298.268 45.6799 299.123 45.2701C305.723 42.3302 312.381 39.5386 319.116 36.8875C322.597 35.581 321.91 35.9512 324.308 35.0736C354.404 24.6916 334.685 31.1613 354.555 24.8911C357.421 24.0857 360.3 23.3045 363.18 22.551C362.114 22.6343 371.02 20.1962 381.866 17.5166C380.583 17.8958 379.301 18.2806 378.024 18.6696C393.673 14.4184 426.099 9.45269 417.309 10.5457C420.973 9.98184 424.639 9.45967 428.317 8.97773C431.408 8.47976 434.505 8.01101 437.606 7.57154C441.903 7.05905 446.205 6.60293 450.515 6.20283C450.537 6.2354 450.56 6.26797 450.583 6.30055C447.148 6.62519 443.718 6.98533 440.291 7.38134C442.875 7.18896 445.46 7.01692 448.045 6.86515C450.575 6.59538 453.108 6.34495 455.643 6.11407C444.999 6.95989 459.003 5.52316 462.4 5.18904C471.383 4.51176 477.144 4.49702 480.16 4.39507C481.574 4.2797 498.291 3.72953 491.74 4.16557C500.341 4.02655 508.942 4.11067 517.543 4.41848C520.906 4.58234 524.26 4.78004 527.616 5.01199C520.325 4.7195 541.409 6.25561 525.865 5.33607C514.258 4.75929 511.388 4.60943 505.873 4.48751C500.899 4.41088 498.27 4.49741 492.857 4.54187C456.462 5.04688 426.839 8.48789 393.008 15.5653C386.33 16.9896 380.289 18.4944 375.845 19.6107C370.828 20.8857 377.077 19.1381 370.7 20.8304C364.011 22.6448 362.605 23.1897 360.843 23.6873C359.75 24 356.247 24.9156 353.075 25.8827C339.981 29.7435 321.243 36.7891 319.457 37.5418C317.26 37.9811 281.83 53.3435 280.33 54.4742C279.451 54.9073 281.102 53.6534 273.661 57.8104C271.295 59.0183 268.933 60.2484 266.588 61.4946C266.934 61.233 267.283 60.9703 267.632 60.7083C253.912 68.3677 258.571 65.6084 245.447 73.2495C213.998 91.3554 171.275 124.376 143.956 153.172C138.595 158.703 136.201 161.345 131.001 167.096C130.231 167.953 129.402 168.879 128.496 169.897C121.842 177.079 105.771 196.757 109.513 192.68C95.985 209.587 94.5829 212.95 88.1574 221.663C87.4608 222.774 86.7692 223.887 86.0827 225.002C79.4286 234.738 77.6153 237.918 71.0914 248.966C68.3186 253.778 71.2844 248.108 65.9789 257.971C64.9217 259.829 63.8775 261.692 62.8463 263.56C63.037 263.099 63.2283 262.639 63.4206 262.178C57.5765 273.1 57.282 273.901 58.0823 272.704C55.3024 278.032 52.6266 283.4 50.0552 288.804C49.7971 289.504 49.5407 290.205 49.2861 290.905C48.1436 287.465 103.88 191.955 131.123 167.206C133.863 164.165 135.995 161.868 137.308 160.459C152.239 143.97 185.643 114.216 200.352 103.786C206.09 99.5104 208.754 97.6879 217.347 91.7392C225.908 85.8062 237.027 78.6456 241.784 75.7966C256.819 64.5232 337.282 28.898 282.891 53.7409C284.468 53.059 286.048 52.3858 287.63 51.7214C309.179 41.6976 301.341 45.3033 319.658 37.9987C327.356 34.9162 346.013 28.4849 345.082 29.1879C330.432 33.9618 315.102 39.6986 302.815 44.987C301.582 45.4623 287.128 52.031 279.84 55.6505C273.253 58.9162 277.555 56.2437 263.562 64.0216C252.956 69.368 247.177 73.2158 244.508 74.8321C239.894 77.6693 239.303 77.8397 234.691 80.7028C229.675 83.8369 226.333 86.1904 225.657 86.635C218.636 90.6629 184.918 116.157 183.65 117.67C184.936 116.569 186.224 115.479 187.534 114.382C179.019 121.275 180.938 119.989 178.739 121.851C177.103 123.237 175.475 124.636 173.854 126.048C174.473 125.462 175.094 124.878 175.716 124.296C165.993 132.854 173.35 126.305 159.883 138.722C151.349 146.703 142.888 155.283 142.119 156.108C141.89 156.351 144.498 153.768 141.213 157.202C138.445 160.104 134.684 164.14 131.55 167.592C128.53 170.909 126.102 173.649 125.565 174.173C123.042 177.099 123.358 176.932 123.023 177.322C121.305 178.799 97.4747 209.002 93.8033 214.952C82.8314 230.531 71.5041 248.704 61.8266 266.989C60.833 268.867 61.3988 267.632 60.4092 269.518C58.7326 272.537 51.0711 288.375 50.0542 290.781C47.2186 296.725 40.4592 312.577 39.5484 315.14C39.4087 315.501 41.6218 310.259 39.1799 316.445C36.5168 323.327 37.8433 319.58 37.6921 319.952C32.2581 333.933 29.3914 342.978 26.3693 352.753C25.3933 355.917 23.5534 361.761 22.3397 366.29C22.1992 366.81 22.5777 365.806 22.4409 366.318C20.5956 373.152 18.8356 379.524 18.1111 382.499C16.3556 389.792 17.4302 385.847 17.3374 386.228C16.2104 391.093 14.7219 397.646 13.3047 405.092C7.14764 438.353 4.45042 465.991 4.54571 501.956C4.57345 506.473 4.62467 511.835 4.64794 512.526C4.71945 514.66 4.7825 514.048 5.04108 520.216C5.62695 533.219 6.64014 545.258 8.19073 558.051C8.50651 560.626 8.54921 561.737 8.8077 563.699C9.52953 570.31 13.6894 592.551 13.5435 592.964C16.3808 605.82 18.1762 614.405 20.8635 624.65C26.9881 649.031 40.5479 686.055 51.4959 708.599C53.7391 713.36 54.7641 715.613 56.0649 718.242C58.1862 723.091 72.8002 749.357 73.7896 750.613C75.3887 753.251 73.9419 751.948 82.7506 765.19C87.8655 773.008 87.1597 772.113 88.2195 773.728C96.5298 786.222 105.753 797.586 103.835 795.604C114.495 809.482 122.06 817.874 126.546 823.451C126.599 823.286 132.067 829.438 138.825 836.645C131.8 829.37 132.199 830.635 116.432 811.86C116.188 811.563 116.736 812.063 116.491 811.766C114.281 809.093 109.608 803.39 105.985 798.657C102.362 793.914 104.433 796.503 102.99 794.602C101.677 792.856 101.637 792.976 99.7588 790.438C93.6366 782.146 88.5083 774.643 85.2981 769.781C83.2586 766.699 81.1021 763.177 79.5806 760.757C73.5935 751.483 61.9102 731.181 55.751 718.505C54.4546 715.877 55.0621 716.946 52.2899 711.174C51.9701 710.494 50.6919 708.103 48.3336 702.991C45.9842 697.883 44.306 693.867 42.8923 690.553C41.7209 687.779 42.1028 688.988 39.7674 683.267C36.9882 678.776 19.0775 623.221 19.1275 619.914C18.0326 615.495 17.6576 613.35 17.0073 610.647C16.8931 610.171 16.5842 609.391 16.1996 607.738C8.93736 580.644 2.35195 518.795 4.0618 486.794C5.80809 420.033 19.3494 358.558 46.613 296.901C47.0847 295.793 47.5606 294.687 48.041 293.581C45.2071 299.796 42.51 306.056 39.9494 312.356C39.8795 312.375 39.8098 312.393 39.7399 312.411C36.2915 320.974 36.9208 319.906 37.0781 319.689C35.8117 322.858 34.5795 326.039 33.3814 329.229C32.4708 332.009 25.0143 353.517 22.0062 364.859C19.9324 372.209 17.8309 381.012 16.9158 384.939C14.987 393.218 14.9704 392.985 14.8149 393.635C14.5532 394.741 12.2368 406.364 10.8328 414.811C8.80356 427.288 8.30359 428.612 6.51738 445.835C4.05717 467.886 3.14314 492.513 4.07342 516.412C3.68721 511.869 4.73998 533.281 5.75324 542.897C10.4234 601.728 30.7547 672.496 58.8005 725.348C62.3319 732.178 65.0456 737.281 67.1553 741.013C68.3016 743.033 68.9074 743.854 70.5159 746.653C70.8017 747.137 70.8873 747.57 73.9451 752.707C81.2682 765.741 102.915 796.031 108.838 803.336C126.121 825.248 145.276 845.684 166.02 864.412C183.253 879.97 201.404 894.216 220.604 907.217C221.636 907.973 222.671 908.725 223.709 909.473C231.76 914.968 264.568 934.722 281.641 942.523C311.141 957.158 350.963 970.965 379.033 977.557C385.117 979.044 390.118 980.242 395.918 981.455C398.415 981.976 401.54 982.511 404.145 983.007C433.381 988.848 473.735 992.492 503.781 991.817C571.94 990.691 636.084 976.821 699.226 948.756C761.57 920.898 817.77 879.778 863.345 829.249C974.757 708.073 1017.08 529.8 974.441 372.021C973.65 369.031 973.785 369.155 973.154 366.841C969.64 353.106 959.411 323.185 953.036 308.5C948.267 296.699 939.622 278.406 937.426 274.602C957.749 315.017 973.49 360.614 982.036 406.919C982.645 410.211 982.614 410.639 982.687 411.044C983.95 418.559 983.33 413.785 985.037 424.7C985.9 428.322 989.142 462.274 988.905 458.224C990.307 466.341 990.724 523.964 989.025 535.015C988.782 538.382 989.053 536.006 989.007 536.674C988.799 539.577 988.562 540.876 988.324 543.466C987.778 550.367 985.66 567.88 985.093 571.178C984.093 578.819 979.764 601.517 977.313 611.403C975.156 620.48 975.696 618.805 973.654 626.609C971.967 632.739 973.806 626.065 969.807 639.685C967.947 646.455 960.033 669.767 957.733 675.292C955.581 680.882 953.04 687.015 949.767 694.578C945.192 705.573 933.758 728.744 927.722 739.2C927.371 739.83 926.596 741.413 925.709 742.957C923.865 746.154 924.31 745.131 922.892 747.532C921.977 750.185 895.439 790.494 889.97 796.6C886.555 801.078 884.184 804.182 882.227 806.622C880.69 808.531 880.432 808.684 878.86 810.604C878.375 811.2 874.292 816.315 869.973 821.278C868.642 822.813 866.072 825.738 863.089 829.017C856.969 835.793 849.09 843.816 847.795 845.103C846.543 846.362 847.991 845.031 844.258 848.748C840.84 852.132 838.499 854.24 836.52 856.121C831.925 860.486 826.789 865.293 821.703 869.744C807.068 882.369 807.599 881.4 806.727 882.185C804.211 884.201 803.265 885.082 802.437 885.74C798.953 888.545 790.292 895.122 787.053 897.446C783.039 900.36 781.269 901.492 776.951 904.482C773.733 906.705 767.255 911.227 759.674 915.995C742.688 926.772 721.531 938.22 703.548 946.413C698.174 948.87 697.298 949.125 695.648 949.854C686.959 953.639 682.071 955.668 679.55 956.676C661.706 964.059 628.729 974.151 611.245 977.99C604.197 979.877 572.892 986.188 554.951 987.987C552.905 988.223 554.812 987.929 552.536 988.2C547.091 988.829 547.61 988.91 544.842 989.181C543.505 989.308 540.45 989.514 536.553 989.817C516.337 991.361 502.377 991.45 493.134 991.397C404.172 991.054 314.467 964.336 243.596 921.235C235.703 916.488 225.894 910.417 214.54 902.355C214.215 902.069 213.891 901.784 213.566 901.498C213.14 901.254 212.714 901.009 212.288 900.764C199.402 891.532 194.656 887.971 182.199 877.668C181.134 876.782 178.033 873.894 175.869 872.379C167.651 865.081 168.182 865.503 166.401 863.99C165.595 863.289 164.311 862.168 161.569 859.634C152.84 851.556 144.725 843.382 136.856 834.964C132.53 830.344 151.077 849.349 152.394 850.386C154.374 852.323 156.362 854.416 158.304 856.261C161.228 859.042 164.172 861.721 166.534 863.844C168.814 865.894 170.536 867.419 171.154 868.042C178.963 874.705 169.301 866.345 170.347 867.094C175.45 871.679 180.622 876.138 185.865 880.474C188.615 882.712 218.659 905.546 216.854 903.582C219.289 905.341 221.736 907.076 224.196 908.785C235.436 915.75 241.751 920.101 257.059 928.877C255.975 928.218 254.892 927.554 253.811 926.885C254.113 927.101 267.746 934.464 262.788 931.987C276.932 939.2 276.208 939.28 289.184 945.105C296.91 948.581 292.157 946.769 306.087 952.743C314.335 956.222 324.825 960.189 334.277 963.472C336.46 964.232 337.383 964.659 339.334 965.319C341.286 965.976 342.272 966.195 344.643 966.964C349.542 968.559 355.895 970.558 358.992 971.445C361.767 972.242 365.756 973.305 372.479 975.048C396.027 980.859 388.941 979.034 392.654 979.98C396.675 980.884 399.59 981.35 407.662 982.87C408.473 983.021 406.356 982.744 408.993 983.22C411.121 983.592 412.207 983.704 419.268 984.822C422.005 985.735 465.976 990.541 472.736 990.332C483.041 990.97 506.039 991.193 516.713 990.631C520.826 990.468 525.214 990.146 529.577 989.859C544.041 988.997 567.122 986.4 585.189 983.039C601.523 980.329 629.743 973.34 638.337 970.386C660.541 963.592 665.776 961.376 667.443 960.864C671.887 959.229 673.903 958.361 679.46 956.161C743.306 931.93 816.56 881.396 862.728 828.691C869.093 821.652 874.981 814.741 880.454 807.981C989.056 676.374 1019.76 485.507 958.893 325.664C958.689 325.253 958.485 324.842 958.281 324.431C965.394 343.274 972.19 366.007 976.649 385.379C983.038 411.163 988.241 450.315 988.722 469.795C988.29 461.913 987.21 449.092 987.047 449.341C988.43 463.385 989.213 477.483 989.393 491.591C989.463 491.17 989.533 490.748 989.603 490.325C989.866 505.06 989.416 520.146 988.331 534.893C988.139 537.455 988.348 535.646 988.173 537.877C987.97 540.373 988.037 538.675 987.999 539.143C987.466 545.451 987.316 547.351 987.243 548.12C987.034 550.089 987.147 548.553 986.497 554.225C985.263 564.746 984.241 572.267 984.323 569.763C983.829 573.144 983.3 576.52 982.736 579.892C982.671 580.778 982.603 581.665 982.532 582.552C978.531 603.197 976.654 612.752 973.325 623.881C972.418 627.604 971.467 631.319 970.471 635.027C969.792 637.086 969.103 639.13 968.399 641.171C968.345 641.594 968.289 642.016 968.234 642.439C962.174 662.192 954.436 682.81 946.273 700.804C940.531 713.319 939.036 716.226 933.418 727.08C920.488 750.866 933.422 727.269 922.147 746.793C922.816 745.822 923.482 744.849 924.144 743.874C922.299 747.135 920.43 750.353 918.524 753.551C917.118 755.73 915.693 757.901 914.249 760.062C908.39 770.036 903.881 775.957 902.999 777.257C902.262 778.275 900.065 782.095 891.784 792.919C895.418 788.594 885.531 801.203 884.675 802.183C883.949 803.188 874.176 815.367 869.969 820.117C868.264 822.09 865.513 825.206 862.513 828.496C859.77 831.51 856.835 834.649 854.391 837.227C849.867 841.977 850.384 841.544 850.056 841.894C844.419 847.651 847.922 843.986 843.786 848.12C839.621 852.248 836.39 855.423 835.47 856.284C835.006 856.717 836.482 855.193 834.366 857.178C828.736 862.503 818.203 871.979 811.332 877.619C808.912 879.629 805.758 882.092 802.99 884.284C798.748 887.64 796.807 889.25 794.31 891.145C793.438 891.801 787.814 895.878 780.733 900.9C779.39 901.852 775.626 904.935 770.017 908.08C769.644 908.412 769.271 908.744 768.897 909.075C744.612 925.071 736.987 928.053 725.89 934.619C707.062 944.176 719.884 937.407 717.809 938.443C716.468 939.108 710.318 942.167 709.632 942.479C708.424 943.048 708.604 942.893 707.282 943.518C682.824 954.677 693.695 949.745 685.917 953.193C667.192 960.924 652.263 966.077 685.116 953.417C685.103 953.384 685.09 953.352 685.076 953.32C677.118 956.795 656.411 964.192 663.258 961.537C668.889 960.068 716.805 939.429 689.617 950.983C683.429 953.527 680.268 955.033 669.318 958.895C662.114 961.527 661.191 962.236 651.277 965.408C652.937 964.98 654.595 964.542 656.252 964.096C642.875 968.861 625.957 973.455 615.39 976.073C611.81 977.033 598.889 980.435 601.814 979.238C595.784 980.822 566.855 985.704 561.422 986.232C560.117 986.35 558.491 987.149 539.586 988.801C538.27 988.879 536.953 988.951 535.636 989.019C552.918 987.503 522.373 989.827 530.649 988.907C533.478 988.888 547.185 987.752 549.386 987.528C553.153 987.216 541.981 988.61 556.232 986.956C565.158 985.484 539.501 988.572 543.38 987.663C524.654 989.506 522.74 989.133 518.491 989.376C500.301 990.058 488.828 990.013 471.673 989.156C467.476 989.199 498.567 990.298 502.423 989.952C488.238 990.335 512.667 990.327 522.944 989.441C523.812 989.49 524.681 989.535 525.55 989.579C512.151 990.299 499.055 990.497 485.769 990.274C484.905 990.22 484.041 990.163 483.177 990.104C486.158 990.134 489.139 990.138 492.118 990.115C481.078 989.83 487.687 990.341 472.989 989.503C472.529 989.586 472.068 989.668 471.607 989.75C457.51 988.991 443.449 987.628 429.462 985.663C422.123 985.089 395.407 980.006 400.368 980.614C389.64 978.391 402.855 981.287 392.79 979.236C388.41 978.342 379.885 976.327 377.822 975.719C378.768 975.727 391.522 978.692 395.433 979.28C392.862 979.638 334.363 963.203 339.805 963.921C335.223 962.313 337.263 963.227 329.024 960.314C305.788 952.353 271.535 935.706 254.357 926.022C274.483 937.502 280.867 940.209 297.031 947.575C306.896 953.461 372.762 974.966 358.021 970.257C360.476 970.943 362.934 971.608 365.395 972.254C367.852 973.02 370.315 973.766 372.782 974.493C365.772 972.681 358.768 970.704 351.856 968.585C350.227 967.998 348.602 967.402 346.979 966.797C346.201 966.61 345.424 966.42 344.646 966.229C341.74 965.296 338.84 964.335 335.947 963.346C336.781 963.56 337.616 963.773 338.451 963.983C333.988 962.451 329.589 960.871 325.184 959.217C326.337 959.747 327.492 960.272 328.649 960.793C307.907 953.014 314.953 955.545 303.687 950.697C295.287 947.008 309.386 953.481 291.633 945.577C271.298 935.886 284.506 942.419 258.738 928.726C258.347 928.563 257.957 928.399 257.567 928.235C251.978 925.062 246.43 921.764 240.995 918.388C241.688 918.879 242.382 919.369 243.078 919.857C231.697 913.061 216.532 902.833 213.109 900.056C224.06 907.865 224.231 907.333 221.373 905.349C218.22 903.179 191.366 884.78 167.414 862.87C146.463 844.134 127.847 823.139 121.696 815.78C104.685 795.589 93.1139 779.29 80.069 759C87.8305 773.507 123.011 819.009 130.904 826.661C131.628 827.47 131.123 827.512 136.117 832.318C145.11 842.075 155.553 852.498 167.256 863.045C175.303 870.297 183.716 877.416 192.684 884.506C191.948 884.059 191.213 883.609 190.478 883.158C179.103 873.873 168.68 864.917 167.074 863.247C166.804 862.967 166.789 862.899 167.07 863.074C164.522 860.769 162.003 858.443 159.515 856.097C159.466 856.149 159.418 856.2 159.37 856.251C155.615 852.712 151.935 849.134 148.309 845.498C148.359 845.449 148.409 845.399 148.459 845.349C145.431 842.314 142.451 839.248 139.519 836.151C139.162 835.877 138.807 835.602 138.451 835.327C129.413 826.316 101.765 792.558 114.141 807.226C110.354 802.545 106.665 797.809 103.074 793.02C103.045 793.066 103.015 793.113 102.986 793.16C101.435 791.104 99.9059 789.043 98.3766 786.947C98.9147 787.61 99.4546 788.271 99.9964 788.93C92.8944 779.406 86.9103 770.024 82.5685 763.536C85.3101 767.878 88.1053 772.155 90.9693 776.391C85.4114 768.353 75.7147 752.991 74.9484 751.594C72.4246 747.379 71.1827 745.052 68.5497 740.402C66.1859 736.192 66.4538 736.804 66.018 736.018C53.8067 713.039 58.9438 721.535 53.0865 710.885C52.5916 709.689 52.1019 708.491 51.6172 707.293C50.8363 705.765 50.0562 704.217 49.288 702.673C46.097 695.662 43.0843 688.606 40.2303 681.462C41.1045 683.881 41.9929 686.282 42.902 688.68C38.436 678.056 36.7827 672.91 36.3787 671.875C35.278 668.914 34.6852 667.593 34.3504 666.676C19.3708 622.147 28.4582 649.189 22.2375 626.567C19.9379 618.525 21.937 626.747 22.1005 627.936C19.3049 617.166 18.4227 613.8 15.9018 602.324C15.2585 599.335 14.6899 596.098 14.3179 594.207C13.99 592.57 12.9104 587.455 12.2242 583.502C11.0646 576.917 9.74214 568.119 8.61848 559.033C7.57639 551.496 5.29487 528.289 4.97504 512.032C4.79961 505.099 4.93807 506.706 4.90405 504.915C4.89019 504.17 4.73429 498.766 4.7745 494.318C5.01816 458.033 9.47488 420.892 17.8167 385.393C23.6659 360.388 31.5507 335.424 41.3211 311.592C43.4073 306.537 42.3686 309.241 43.2915 307.038C43.623 306.286 43.8378 305.309 47.315 297.577C48.5841 294.788 47.2173 298.038 48.4587 295.292C49.0757 293.966 49.1905 293.312 52.8335 285.591C59.5396 271.555 63.8038 264.33 64.4321 263.105C65.6794 260.806 65.2298 261.432 66.9135 258.398C75.2123 243.554 82.7689 231.549 91.3205 219.094C94.8344 212.845 125.063 174.639 127.3 172.987C131.065 168.785 128.137 172.315 132.018 168.015C132.274 167.734 132.56 167.419 132.879 167.067C134.299 165.435 135.728 163.814 137.165 162.205C135.384 164.076 133.614 165.964 131.856 167.869C131.281 168.491 130.708 169.114 130.138 169.739C130.7 169.119 131.27 168.491 131.845 167.859C137.764 161.345 144.244 154.51 148.716 150.045C149.603 149.117 158.155 140.836 162.59 136.767C160.734 138.536 158.89 140.322 157.056 142.124C157.734 141.517 158.412 140.911 159.092 140.308C167.789 132.004 177.463 123.497 187.039 115.728C190.527 112.911 189.39 113.913 192.943 111.101C213.846 95.1531 208.367 98.7496 229.693 85.1296C222.33 89.5028 197.108 107.891 193.681 110.874C191.155 112.787 181.374 120.199 185.158 117.724C165.896 134.032 182.279 119.46 164.694 135.23C165.081 134.955 165.467 134.681 165.854 134.408C159.817 139.976 155.457 144.242 151.804 147.697C151.07 148.689 141.388 158.233 132.316 168.285C128.252 172.76 124.337 177.253 121.286 180.876C106.939 197.813 92.168 218.121 80.5115 236.776C76.4865 243.194 74.2376 246.826 73.7489 247.638C73.0435 248.823 71.143 252.26 69.772 254.671C64.3873 263.53 50.1697 291.621 47.476 299.031C68.5946 251.321 97.4183 207.145 132.461 168.416C138.823 161.38 145.302 154.61 152.008 147.988C145.941 152.773 192.071 111.029 195.263 109.812C197.576 108.022 195.69 109.607 196.38 109.078C201.522 105.142 205.862 101.787 207.536 100.566C208.807 99.6421 211.404 97.8156 215.971 94.6213C216.809 94.0364 217.003 93.8185 217.906 93.1937C223.875 89.071 229.876 85.1197 236.061 81.2407C236.437 81.005 238.05 80.1129 239.617 79.1497C241.188 78.1826 242.695 77.1548 243.094 76.9145C248.05 73.8953 256.795 68.9562 261.662 66.3293C263.351 65.4111 262.144 65.9816 264.04 64.9593C269.876 61.8548 268.013 62.9702 275.297 59.2097C277.747 57.9667 277.533 57.9331 282.264 55.6408C285.619 54.0305 285.344 54.3881 285.879 54.1389C286.589 53.7691 298.221 48.2475 302.147 46.7477C293.852 50.6912 311.381 42.8129 310.5 43.1025C315.228 41.2053 319.991 39.3801 324.771 37.6335C326.384 36.9928 328.001 36.3608 329.621 35.7375C349.033 29.0089 361.034 25.3141 380.648 20.49C381.584 20.1884 398.223 16.5772 397.464 16.8496C387.506 18.9805 377.625 21.4107 371.289 22.9264C361.023 26.0454 360.723 25.7189 344.234 31.0097C338.726 32.8338 338.371 33.0722 337.737 33.2834C316.282 40.3072 283.295 55.1371 269.823 62.2146C266.058 64.2216 279.716 57.2462 274.429 60.0011C270.783 60.1709 204.654 101.833 225.601 88.2749C223.452 89.7102 221.312 91.1641 219.181 92.6364C217.172 94.276 206.648 101.749 207.692 100.699C206.731 101.467 205.782 102.232 204.837 103C202.932 104.469 200.667 106.194 197.506 108.648C188.681 114.902 151.983 146.309 132.69 168.623C124.286 177.912 118.584 184.919 117.672 186.03C117.65 186.154 117.629 186.278 117.607 186.402C122.549 180.417 127.619 174.547 132.848 168.765C154.528 144.846 178.318 122.785 206.925 101.914C205.863 102.621 204.809 103.328 203.754 104.043C217.861 93.6184 232.523 83.9618 247.623 75.1439C231.649 84.4875 207.284 101.273 192.131 113.441C189.411 115.59 191.346 113.942 190.718 114.431C189.081 115.72 187.399 117.207 181.708 121.991C175.944 126.713 161.988 139.266 160.804 140.491C158.399 142.742 152.038 149.121 148.118 153.12C142.947 158.391 146.34 154.787 145.302 155.845C141.018 160.24 137.283 164.317 134.02 167.895C133.717 168.227 133.395 168.58 133.055 168.953C127.902 174.54 119.166 184.626 116.441 188.418C119.665 184.481 122.952 180.59 126.313 176.733C108.34 197.762 95.1294 215.085 80.7713 238.301C77.7308 243.715 89.7213 224.614 79.6805 240.821C81.494 237.878 83.3419 234.949 85.224 232.035C85.6112 231.317 86.0003 230.599 86.3916 229.882C89.6984 224.919 93.0748 220.045 96.5651 215.198C95.5333 216.554 94.5091 217.914 93.4929 219.279C105.454 201.796 119.029 185.287 124.066 179.936C124.291 179.556 124.516 179.176 124.742 178.797C127.36 175.775 130.277 172.457 133.266 169.144C144.889 156.159 157.618 143.831 154.713 147.101C155.363 146.434 156.015 145.77 156.669 145.107C165.308 136.972 161.533 140.362 164.77 137.306C165.584 136.372 183.047 121.211 175.416 128.038C192.565 113.524 187.131 117.835 191.919 113.876C203.191 104.897 224.352 89.942 215.594 96.4246C217.356 95.2016 219.125 93.9913 220.899 92.7939C226.558 88.6384 232.559 85.0461 239.085 81.1091C241.285 79.7529 243.494 78.4154 245.71 77.0969C247.149 76.1419 248.602 75.1887 250.061 74.2432C271.43 62.5574 264.25 65.5438 274.522 61.1458C273.001 61.9801 271.485 62.8227 269.972 63.6738C266.344 65.5995 262.757 67.5612 259.181 69.5766C273.642 61.5716 288.542 54.2899 303.772 47.7877C323.215 39.8827 334.363 35.4274 356.723 28.807C358.811 28.1595 360.903 27.526 362.999 26.9067C360.916 27.7265 352.749 29.9786 367.969 25.7984C369.302 25.5683 359.032 28.4309 354.368 29.7708C353.24 30.0829 362.736 27.0964 352.028 30.3412C344.78 32.6686 357.946 28.4392 336.287 35.6136C337.098 35.3694 337.909 35.1275 338.72 34.8877C336.379 35.6851 334.04 36.5015 331.717 37.332C329.623 37.9959 327.531 38.6744 325.443 39.3675C320.208 41.4825 317.24 42.6875 305.346 47.6499C308.551 46.2477 304.101 47.9051 298.254 50.5002C298.278 50.5538 298.302 50.6074 298.326 50.6609C284.234 57.0992 289.034 54.689 277.541 60.4761C276.37 61.0116 275.199 61.5521 274.031 62.0975C267.768 65.2873 245.457 78.187 249.407 75.6434C243.287 79.4837 230.365 87.4879 225.568 90.4908C225.24 90.7796 224.912 91.0689 224.585 91.3586C222.1 93.0407 219.628 94.7478 217.168 96.4799C215.772 97.4119 214.38 98.352 212.991 99.3001C211.273 100.57 209.563 101.851 207.859 103.146C206.787 103.86 205.724 104.574 204.659 105.295C201.962 107.396 199.282 109.527 196.622 111.69C194.939 112.943 193.262 114.208 191.592 115.486C191.408 115.671 175.514 128.91 171.184 132.851C169.91 134.038 168.656 135.219 167.41 136.406C166.749 136.931 166.09 137.458 165.431 137.987C164.52 138.892 163.611 139.801 162.705 140.714C160.514 142.705 158.336 144.721 156.172 146.76C147.694 155.474 147.385 155.599 145.436 157.576C143.302 159.773 138.183 165.261 134.086 169.885C131.346 172.963 129.063 175.613 128.292 176.49C126.371 178.682 125.379 179.682 123.851 181.464C99.1839 211.327 109.715 199.36 104.92 205.451C102.447 208.801 100.607 211.165 98.4569 214.19C94.5375 219.201 77.3329 246.17 76.6041 247.85C75.2255 250.144 78.0436 244.474 73.721 252.049C73.7086 252.391 64.4433 268.546 68.9593 261.099C65.2193 267.78 61.6312 274.56 58.2025 281.429C58.8439 280.789 54.4599 289.119 50.2726 298.562C44.0176 311.773 33.0891 342.745 33.3638 341.589C32.3099 344.927 31.2932 348.273 30.3136 351.626C23.0838 374.423 17.8199 397.334 14.0841 420.777C2.6455 490.321 7.55261 568.312 27.4946 635.588C28.4416 638.826 28.2153 638.388 28.9132 640.71C32.3506 652.99 43.7575 684.173 51.3847 700.336C53.7501 705.561 54.8721 708.096 55.6482 709.737C58.308 715.287 57.7978 713.921 59.0501 716.466C60.9194 720.552 71.9987 741.441 76.3177 748.396C78.3706 751.86 80.9417 755.879 83.4477 759.89C83.6635 760.235 83.1762 759.654 83.359 759.946C87.9954 767.22 85.2749 762.801 86.8549 765.256C98.1456 782.656 111.477 800.569 126.176 817.611C129.822 821.868 135.519 828.296 138.789 831.788C140.042 833.124 137.836 830.686 142.184 835.291C143.681 836.864 144.124 837.469 145.83 839.236C153.253 846.849 155.943 848.995 162.387 855.431C164.314 857.233 166.475 859.221 168.81 861.326C181.919 873.301 200.788 888.157 211.879 895.997C214.957 898.205 216.43 899.313 219.392 901.362C221.494 902.817 225.251 905.261 228.579 907.445C231.923 909.645 237.176 913.147 243.723 917.113C250.579 921.299 259.422 926.196 261.007 927.054C262.931 928.114 263.778 928.7 265.71 929.738C271.516 932.946 287.509 940.813 295.348 944.251C303.753 948.033 308.838 950.161 311.741 951.355C314.424 952.454 317.634 953.624 318.872 954.105C320.803 954.856 321.22 955.135 323.678 956.067C327.699 957.583 331.862 959.048 337.953 961.143C447.715 998.961 568.244 995.63 673.486 954.991C685.218 950.398 691.782 947.721 708.567 939.843C715.333 936.589 712.538 938.073 717.764 935.442C720.088 934.254 719.462 934.479 722.395 932.962C735.341 926.31 750.009 917.674 755.332 914.315C757.457 912.991 759.834 911.394 764.147 908.587C796.321 887.829 831.236 858.589 858.882 827.965C859.333 827.47 859.79 826.966 860.253 826.453C875.023 810.347 894.573 785.248 907.657 764.828C945.851 707.048 971.696 635.7 980.843 573.308C995.443 479.187 981.931 381.406 942.537 294.927C961.242 335.279 978.277 393.931 983.257 443.225C999.526 576.646 954.165 724.326 860.063 826.281C854.043 832.941 847.913 839.363 841.625 845.607C805.78 881.892 752.867 919.753 701.905 942.587C699.603 943.645 694.853 945.882 689.824 948.019C688.777 948.517 675.398 953.858 670.836 955.516C675.233 954.156 657.358 960.58 651.736 962.336C644.715 964.687 629.993 969.476 613.12 973.48C597.779 977.03 601.97 975.852 601.127 976.067C595.678 977.197 593.809 977.722 589.622 978.549C572.797 983.989 483.095 990.066 458.16 985.771C451.716 985.244 451.544 985.096 450.096 984.965C446.261 984.598 440.793 984.12 434.662 983.334C423.6 981.95 410.983 979.683 404.956 978.507C390.547 975.917 363.432 969.364 345.378 963.298C340.283 961.627 340.631 961.617 338.331 960.837C328.173 957.566 302.267 947.411 290.315 941.596C270.82 932.506 251.369 921.721 232.968 909.911C231.823 909.12 230.681 908.324 229.541 907.523C227.671 906.354 225.845 905.197 224.006 904.013C204.817 891.037 186.423 876.665 169.086 861.021C158.646 851.601 148.75 841.877 139.3 831.76C136.344 828.775 122.5 812.891 120.378 810.147C118.528 807.916 116.621 805.77 113.934 802.372C110.206 797.6 113.854 801.969 107.781 794.185C106.167 792.081 107.633 794.193 104.42 789.949C103.116 788.713 83.7329 760.524 82.9985 758.785C81.3721 756.185 80.1134 753.754 79.7051 753.078C77.5903 749.561 77.558 749.785 76.1388 747.427C71.916 740.441 66.9155 731.062 66.303 729.895C58.5094 715.911 45.9101 688.779 40.1861 672.974C39.3698 670.801 39.5767 671.02 39.4358 670.638C38.5344 668.169 37.8513 666.68 37.0004 664.33C32.336 651.693 26.2517 631.488 23.0496 618.339C22.6692 616.829 21.8186 613.648 21.1871 610.936C17.7149 595.585 19.0221 600.529 18.8062 599.66C18.3802 597.583 17.507 593.964 16.4602 588.415C13.5894 574.158 10.0376 546.488 9.19162 530.919C8.46848 519.269 8.71162 519.434 8.65767 518.67C8.59894 517.035 8.28778 512.496 8.16454 504.811C8.03034 490.025 8.24809 491.712 8.34469 485.636C8.36537 485.126 8.21194 486.011 8.44056 479.27C8.69944 466.237 11.5231 437.081 13.862 423.329C14.6886 418.032 14.8023 416.778 15.7573 411.368C17.1746 402.765 21.582 383.62 22.0278 382.127C22.1312 381.706 22.2538 380.735 22.8759 378.26C23.5609 375.538 24.3152 372.879 24.8587 370.857C27.8335 359.282 34.1027 339.732 32.6922 345.274C33.7951 341.617 34.9494 337.949 36.1346 334.33C44.523 310.785 54.3533 288.557 66.0616 266.724C68.692 261.829 71.0314 257.809 73.3836 253.73C75.6396 249.576 86.4515 231.952 88.4797 229.083C91.5761 223.762 112.364 195.413 115.378 192.186C120.744 185.515 126.222 179.384 128.5 176.734C130.322 174.62 128.54 176.495 132.062 172.489C132.741 171.721 133.476 170.897 134.253 170.036C140.453 163.1 149.325 154.154 151.093 152.415C151.949 151.586 150.253 153.054 158.33 145.203C162.701 141.002 165.144 138.871 166.754 137.387C167.282 136.936 166.328 137.488 175.36 129.529C181.616 124.087 184.409 121.952 185.071 121.39C186.074 120.562 188.41 118.479 192.523 115.2C202.033 107.47 220.269 94.4755 230.059 88.2423C231.954 87.0272 231.218 87.285 238.82 82.5293C244.276 79.1656 243.381 79.8537 245.432 78.6153C248.678 76.6784 253.529 73.6508 260.881 69.5956C269.417 62.9478 341.916 32.6147 346.331 32.8227C348.937 32.0009 351.963 31.0608 353.272 30.7161C352.178 31.1046 351.086 31.497 349.995 31.8934C338.497 35.3953 343.184 34.1336 340.158 35.1434C335.742 36.5658 319.423 42.563 315.544 44.2503C314.161 44.8306 317.368 43.6212 309.936 46.7246C301.985 50.0963 298.402 51.5269 295.366 53.1788C284.058 57.9867 273.695 63.5889 286.482 57.4225C293.067 52.621 366.148 25.7095 382.104 23.6547C394.603 20.5223 418.29 15.8857 434.021 13.9971C443.237 12.6452 466.094 10.8285 465.141 11.1231C473.385 10.6301 464.652 11.0268 466.381 10.902C469.989 10.4583 495.773 9.77536 500.652 9.99015C524.727 10.0027 555.085 12.5205 578.101 16.6788C577.021 16.5363 575.942 16.3975 574.862 16.2623C569.7 15.3317 545.506 12.2756 542.741 12.3506C578.213 15.6479 613.32 22.8315 647.223 33.7677C646.792 32.9878 688.254 48.3618 689.941 49.7104C689.199 49.472 688.457 49.2356 687.715 49.0011C664.73 39.2597 666.601 40.6403 650.816 34.9771C644.328 32.8493 646.247 33.616 643.036 32.6231C610.871 23.4239 642.668 31.9542 617.913 25.3582C625.342 27.4296 605.002 22.2768 595.762 20.5391C593.714 19.9173 566.017 15.1147 562.68 14.8834C544.12 12.1609 511.94 10.2467 493.32 10.5377C478.65 10.7023 470.584 11.238 457.313 12.2994C447.246 13.1934 450.125 12.8775 445.392 13.3533C435.468 14.4375 432.255 15.1831 425.873 15.7175C419.186 16.7492 412.519 17.9196 405.877 19.2282C405.866 19.1707 405.855 19.1131 405.844 19.0555C401.663 19.8493 397.504 20.6951 393.348 21.5967C392.138 21.9189 390.929 22.2458 389.722 22.5773C376.559 25.5445 382.018 24.1708 379.525 24.5881C376.694 25.2769 373.868 25.9912 371.048 26.7311C368.9 27.4353 366.757 28.1544 364.619 28.8883C352.087 32.4042 339.693 36.4231 327.497 40.9261C326.688 41.1633 325.879 41.4027 325.07 41.6443C325.066 41.7086 325.061 41.7728 325.056 41.8371C304.423 49.6124 284.355 58.7775 264.975 69.2831C259.761 71.9707 291.199 55.9027 293.77 55.0981C307.124 48.4697 344.212 34.9103 344.432 35.381C353.092 32.1393 379.932 24.7571 388.466 23.2216C375.656 26.1301 362.968 29.5543 350.446 33.4834C350.871 33.4226 351.297 33.3625 351.722 33.3029C336.066 38.0279 333.789 38.8314 318.193 45.1197C318.145 45.0384 318.096 44.957 318.047 44.8757C307.214 49.3518 288.127 57.5201 287.807 58.1964C282.163 60.8433 276.561 63.6039 271.003 66.4783C259.337 73.1999 277.031 62.026 232.022 89.5586C228.967 91.5462 229.533 91.0343 225.008 94.0786C223.739 94.9819 216.189 100.028 202.446 110.431C200.305 112.064 200.089 112.118 197.874 113.828C192.718 117.757 182.959 126.117 187.264 122.173C167.707 138.629 175.986 132.068 170.103 137.372C166.256 140.971 166.923 140.13 163.612 143.283C159.604 147.26 162.418 144.296 146.521 160.392C148.274 158.553 150.039 156.73 151.815 154.924C150.885 155.796 149.957 156.672 149.031 157.553C140.13 166.923 140.905 166.003 136.945 170.683C136.642 171.008 136.342 171.332 136.043 171.655C129.995 178.222 124.775 184.189 117.092 193.758C101.787 213.554 109.551 203.323 92.9117 226.503C90.3892 230.342 87.885 234.271 85.4581 238.204C81.3391 244.588 84.4105 239.274 78.5274 248.944C83.287 241.45 71.0016 262.008 69.4296 265.746C69.1757 266.089 68.9222 266.433 68.6693 266.778C67.4648 269.004 66.2869 271.223 65.1121 273.478C65.1501 273.506 65.1882 273.535 65.2263 273.564C63.6333 276.546 62.0735 279.541 60.5471 282.549C59.4647 284.843 58.4014 287.143 57.3576 289.449C55.487 293.158 53.6506 296.92 51.868 300.696C50.7989 303.089 49.7502 305.489 48.722 307.895C49.1099 307.16 49.4997 306.426 49.8914 305.693C48.5402 308.773 47.2225 311.864 45.9383 314.966C47.5405 311.403 46.6476 313.676 42.8494 323.454C39.8255 331.548 42.8415 322.291 36.7415 339.83C36.3809 341.073 35.5422 343.244 30.5079 360.036C24.7769 380.313 27.513 370.448 26.4957 374.062C26.3039 374.778 24.7657 381.005 23.4125 386.884C22.6382 390.216 21.8671 393.418 21.7713 393.859C21.3268 395.921 21.2911 396.542 20.7016 399.402C19.1977 406.651 17.3858 416.466 16.3019 423.645C15.8002 426.909 15.4254 429.99 15.2257 431.453C14.9136 433.719 14.4521 436.586 14.1738 438.881C13.097 447.355 12.2903 460.287 11.6416 464.218C11.3573 472.422 10.4216 489.595 10.7429 488.345C9.14269 510.342 15.3309 568.584 15.3006 566.858C17.4703 579.095 17.1286 578.021 18.0029 583.153C19.0399 588.881 18.5672 585.902 19.4234 590.449C21.4579 601.045 23.7133 611.136 26.4209 621.527C25.9386 619.91 25.4647 618.29 24.9991 616.668C27.7917 627.597 26.9045 623.814 30.0782 634.883C36.2505 655.124 33.6484 646.596 34.4115 649.634C34.1612 648.839 42.4129 672.395 43.476 674.716C44.0421 676.123 41.3354 670.046 47.1249 684.208C46.8603 683.414 46.5983 682.62 46.3375 681.823C48.7771 688.327 56.6587 705.58 58.096 708.423C58.7159 709.754 61.7229 717.064 65.4121 723.305C65.7634 724.105 66.1195 724.909 66.473 725.704C70.2706 732.743 74.2553 739.711 78.4146 746.579C78.9756 747.73 79.5416 748.88 80.1127 750.028C81.4268 752.202 82.7593 754.368 84.1102 756.525C83.2929 755.044 82.4842 753.56 81.6841 752.073C89.7762 765.564 100.979 781.116 102.679 783.912C104.717 786.62 106.75 789.262 108.829 791.907C110.066 793.713 111.318 795.512 112.583 797.306C122.306 809.558 122.567 809.59 129.601 817.618C129.265 817.357 128.93 817.096 128.595 816.835C133.839 822.761 143.529 833.22 151.616 841.273C155.397 845.1 161.989 851.57 162.939 852.43C163.531 852.983 167.534 856.489 170.671 859.268C172.515 860.908 174.041 862.298 174.329 862.743C188.437 874.92 194.866 879.982 200.834 884.626C204.733 887.607 206.548 888.859 211.039 892.131C217.48 896.814 224.038 901.346 227.84 903.862C230.011 905.3 230.485 905.5 232 906.485C239.2 911.102 234.92 908.506 242.561 913.255C243.277 913.693 248.888 917.024 255.346 920.738C258.929 922.843 268.275 928.072 269.117 928.489C272.828 930.409 269.926 928.773 282.632 935.435C282.279 935.209 281.927 934.983 281.574 934.757C297.545 942.409 300.167 943.513 303.419 945.002C303.837 945.188 307.838 946.82 310.219 947.815C314.236 949.502 315.837 950.247 316.735 950.614C319.895 951.92 330.633 955.974 337.689 958.49C336.278 957.815 361.273 965.788 366.872 967.492C371.379 968.666 375.896 969.774 380.424 970.816C382.448 971.374 384.488 971.923 386.526 972.456C387.787 972.689 389.049 972.917 390.31 973.14C396.904 974.748 403.506 976.214 410.173 977.548C410.621 977.498 411.069 977.448 411.517 977.396C413.384 977.743 415.253 978.079 417.123 978.404C418.568 978.747 420.015 979.083 421.464 979.413C423.812 979.761 426.161 980.091 428.513 980.404C429.105 980.413 429.698 980.421 430.29 980.427C442.96 981.915 436.345 982.175 460.624 983.644C464.39 983.983 468.161 984.279 471.934 984.531C476.211 984.476 484.206 984.949 490.664 984.988C495.214 985.01 494.966 984.911 501.165 984.874C507.368 984.804 507.148 984.885 507.631 984.882C512.688 984.777 516.494 984.533 520.201 984.379C520.759 984.351 522.165 984.43 526.885 984.155C531.607 983.864 534.442 983.544 541.459 982.944C545.055 982.624 546.103 982.626 549.288 982.298C564.479 980.736 579.548 977.739 590.902 976.164C593.431 975.668 611.668 971.436 619.388 969.347C631.425 966.187 626.819 967.513 631.595 966.207C632.275 965.998 635.94 964.992 645.892 961.844C647.672 961.275 647.236 961.337 647.491 961.254C659.131 957.63 681.292 949.327 693.476 943.829C694.56 943.341 700.256 940.681 709.893 936.318C724.038 929.432 750.116 915.414 767.124 903.469C769.504 901.876 772.42 899.968 773.464 899.242C782.378 892.874 779.238 895.342 799.005 880.449C797.344 881.606 801.912 877.945 808.176 872.743C817.573 864.826 811.061 870.654 818.528 864.147C818.489 864.103 818.451 864.059 818.412 864.015C835.424 848.932 838.531 845.552 854.201 828.977C855.446 827.633 856.821 826.141 858.217 824.612C863.11 819.27 868.141 813.482 869.118 812.319C869.629 811.745 875.206 804.787 875.749 804.081C878.793 800.305 880.531 798.198 883.08 794.899C891.51 784.081 900.646 770.292 899.224 772.955C901.31 769.787 903.331 766.637 905.357 763.399C913.493 751.561 918.34 742.048 920.148 739.599C921.36 737.338 922.552 735.071 923.724 732.797C953.412 679.075 972.668 619.633 980.256 558.707C980.636 556.29 983.104 529.636 983.026 528.252C983.448 521.963 983.41 528.632 983.896 515.768C983.841 514.341 983.78 512.914 983.712 511.488C983.985 495.324 983.923 503.1 984.029 496.719C984.003 494.052 983.932 494.914 983.881 491.305C983.961 471.712 980.222 431.667 975.979 410.666C975.197 406.42 975.381 407.048 975.132 405.73C974.438 402.109 972.906 395.005 971.228 387.8C961.633 343.027 936.948 282.431 912.234 243.51C910.601 240.847 910.469 240.472 909.35 238.682C907.807 236.202 904.173 230.731 902.473 228.189C900.873 225.782 899.891 224.209 898.138 221.654C890.135 209.908 878.447 194.795 868.75 183.154C868.002 182.143 857.686 169.915 857.44 169.702C856.086 168.071 865.937 178.24 850.217 161.128C864.444 176.236 860.694 170.984 841.762 151.564C851.457 161.132 860.676 171.01 869.544 181.341C869.586 181.331 869.628 181.321 869.67 181.311C861.747 171.787 853.649 162.606 840.259 149.364C840.701 149.748 841.142 150.133 841.582 150.518C853.593 162.052 867.004 176.97 875.193 186.596C863.523 172.189 850.971 158.384 837.735 145.374C838.422 145.997 839.107 146.622 839.79 147.249C846.268 153.319 859.728 167.449 864.619 173.007C883.52 194.092 848.245 154.441 854.046 160.951C874.588 182.648 893.148 206.214 909.393 231.287C912.603 230.269 839.524 141.358 838.329 144.012C845.085 150.479 851.751 157.231 858.144 164.09C855.365 160.963 852.538 157.862 849.664 154.789C850.494 155.599 851.32 156.411 852.143 157.225C863.189 168.602 873.721 180.545 883.639 192.963C853.203 155.301 835.804 140.982 827.843 132.432C828.834 133.304 829.82 134.179 830.803 135.057C838.599 142.1 873.272 177.434 888.804 198.734C885.758 194.302 870.983 176.509 867.687 172.868C866.787 171.809 870.05 175.391 867.962 172.942C862.776 166.291 837.699 140.745 841.398 144.417C844.417 146.123 883.373 188.607 889.514 198.19C873.621 177.147 855.374 156.894 836.272 138.634C848.482 149.944 859.496 159.98 879.107 183.393C885.753 190.019 842.533 141.801 840.818 141.46C848.89 149.103 856.843 157.159 864.39 165.338C858.043 158.385 851.401 151.514 844.655 144.922C844.656 144.881 844.657 144.841 844.658 144.801C862.232 161.971 877.408 178.506 894.355 201C893.995 200.171 883.676 186.801 878.403 180.621ZM504.465 10.9287C505.02 11.0515 494.901 10.925 489.201 11.0488C490.057 11.058 490.914 11.0695 491.771 11.0832C479.602 11.0376 457.002 12.5485 456.195 12.9562C447.559 13.7506 451.359 13.2074 448.572 13.4467C447.48 13.5309 436.236 14.8361 427.251 16.0131C425.119 16.3216 422.993 16.6437 420.867 16.98C420.468 17.1258 420.07 17.272 419.672 17.4187C416.695 17.7962 413.72 18.2012 410.747 18.6338C441.626 13.0728 473.042 10.4896 504.418 10.9281C504.434 10.9283 504.449 10.9285 504.465 10.9287ZM211.352 103.51C202.042 110.096 188.368 121.077 191.269 119.036C196.891 114.474 202.594 110.054 208.373 105.776C209.355 105.023 210.357 104.261 211.352 103.51ZM408.824 977.516C418.187 979.426 426.883 980.696 441.55 982.444C441.536 982.396 441.522 982.347 441.508 982.299C435.489 981.776 419.689 979.54 408.824 977.516ZM771.491 94.3434C773.219 95.5412 774.94 96.7514 776.656 97.974C769.467 93.2924 768.362 92.3146 760.179 87.0442C759.685 86.7298 759.825 86.8877 759.653 86.7781C757.652 85.5022 755.832 84.2762 754.014 83.1489C750.494 80.9783 747.634 79.2916 741.289 75.6001C736.38 72.7697 736.379 72.6698 734.644 71.6969C733.186 70.8326 718.298 63.0934 708.589 58.3697C690.642 48.3191 767.332 89.0747 771.491 94.3434ZM819.435 131.819C817.905 130.474 816.369 129.14 814.827 127.818C819.554 131.685 810.266 123.604 803.199 117.959C803.599 117.987 818.205 130.187 824.582 136.039C822.873 134.618 821.157 133.212 819.435 131.819ZM591.868 19.0938C599.664 20.6377 598.319 20.6082 597.984 20.5888C595.508 20.0685 593.029 19.5678 590.547 19.0865C590.987 19.0883 591.428 19.0908 591.868 19.0938ZM649.724 34.1396C647.345 33.4347 630.843 28.4042 622.898 26.4002C622.552 26.3129 624.747 26.7977 619.146 25.3491C617.487 24.8426 600.77 21.2286 604.501 21.7888C619.757 25.1753 634.851 29.2968 649.701 34.1323C649.709 34.1348 649.716 34.1372 649.724 34.1396ZM666.165 39.95C663.097 38.8658 660.029 37.816 656.94 36.7934C655.37 36.1821 653.796 35.5791 652.22 34.9844C655.742 36.1441 659.249 37.3438 662.731 38.5795C663.877 39.0319 665.022 39.4887 666.165 39.95ZM984.946 523.819C984.837 524.572 984.727 525.323 984.616 526.075C984.466 529 983.637 543.242 984.051 538.746C984.425 533.773 984.723 528.797 984.946 523.819ZM984.527 463.62C984.352 460.657 984.15 457.696 983.922 454.737C983.503 451.347 983.049 447.964 982.56 444.588C984.157 459.321 984.785 475.077 985.004 472.519C985.182 475.906 985.325 479.296 985.433 482.686C985.181 479.836 985.208 480.222 985.314 489.095C985.55 491.032 985.618 500.211 985.386 510.713C985.59 503.074 985.616 495.434 985.464 487.792C985.499 487.792 985.534 487.791 985.569 487.79C985.763 504.829 985.898 483.64 985.077 472.562C985.078 471.686 985.076 470.811 985.072 469.935C984.904 467.828 984.722 465.723 984.527 463.62ZM120.957 809.894C122.276 811.536 123.607 813.172 124.95 814.801C130.627 820.687 119.393 808.473 112.38 798.815C114.539 802.096 103.539 787.761 102.987 786.897C104.141 788.626 105.303 790.343 106.48 792.058C111.148 798.096 116.017 804.094 120.957 809.894ZM161.695 853.716C159.374 851.362 163.36 855.142 169.452 860.616C176.87 867.331 187.386 876.141 192.618 880.308C194.907 882.161 198.96 885.476 200.653 886.743C201.701 887.486 202.75 888.224 203.802 888.957C204.814 890.068 224.108 903.735 232.026 908.554C232.73 909.08 233.435 909.604 234.141 910.125C237.01 911.934 239.893 913.71 242.789 915.453C242.396 915.281 242.003 915.108 241.61 914.935C243.827 916.216 246.051 917.477 248.281 918.719C257.007 923.74 251.484 920.899 258.106 924.554C265.489 928.554 253.572 921.673 253.871 921.66C247.891 918.325 234.729 910.298 228.946 906.417C225.66 904.19 229.437 906.681 215.258 897.105C212.234 894.891 209.193 892.61 206.247 890.345C200.69 886.329 195.193 882.179 189.761 877.895C188.806 877.016 187.871 876.146 186.937 875.27C186.351 874.853 174.135 864.655 174.76 865.214C173.411 863.969 171.649 862.362 169.589 860.464C164.38 855.673 157.376 849.079 150.365 842.002C149.384 841.077 148.406 840.148 147.434 839.216C157.019 848.763 150.427 842.309 153.207 845.213C154.805 846.882 159.837 851.881 161.695 853.716ZM971.292 616.678C976.255 594.565 973.524 608.328 978.166 584.282C977.762 585.948 977.35 587.611 976.929 589.272C975.004 601.148 970.103 620.372 971.287 616.701C971.289 616.693 971.29 616.685 971.292 616.678ZM970.835 379.454C973.919 392.036 972.705 385.651 976.128 401.71C976.13 401.718 976.132 401.726 976.133 401.733C974.476 393.409 972.599 385.11 970.511 376.881C970.621 377.739 970.729 378.596 970.835 379.454ZM625.475 969.467C613.458 972.591 615.844 972.065 604.826 974.457C588.47 978.204 602.349 975.192 602.387 975.359C606.125 974.484 609.852 973.565 613.57 972.602C622.632 970.519 614.1 972.741 614.1 972.75C614.108 972.748 614.116 972.746 614.123 972.744C614.135 972.795 613.849 972.887 617.317 972.05C620.044 971.213 622.764 970.351 625.475 969.467ZM573.548 980.793C577.735 979.985 579.606 979.593 568.531 981.203C568.524 981.204 568.516 981.205 568.508 981.206C567.661 981.626 556.99 982.874 552.126 983.405C550.854 983.578 549.581 983.746 548.307 983.909C556.741 983.089 565.166 982.049 573.548 980.793ZM387.335 974.623C387.358 974.32 396.525 976.404 383.692 973.159C381.187 972.568 378.704 971.962 376.215 971.334C374.567 970.981 372.92 970.619 371.274 970.249C340.17 960.569 330.364 959.492 383.635 973.398C383.643 973.4 383.651 973.402 383.658 973.403C384.882 973.815 386.108 974.221 387.335 974.623ZM443.928 984.132C444.356 984.023 444.784 983.913 445.212 983.802C452.321 984.917 461.623 985.467 475.698 986.361C476.976 986.369 478.254 986.373 479.532 986.371C484.8 987.387 536.59 985.729 525.353 985.759C520.46 985.972 509.804 986.472 508.884 986.468C505.773 986.53 501.712 986.471 496.462 986.473C493.428 986.479 487.028 986.58 480.833 986.368C466.973 986.034 441.806 983.578 423.756 981.114C422.467 980.872 421.18 980.625 419.893 980.373C406.567 978.173 410.957 979.108 398.67 976.51C389.892 976.128 448.538 984.748 436.29 983.267C436.298 983.268 436.305 983.268 436.313 983.269C438.85 983.577 441.388 983.865 443.928 984.132ZM793.942 886.438C794.702 886.102 806.869 876.15 804.177 878.692C808.095 875.38 811.927 872.036 815.736 868.606C815.687 868.609 815.638 868.612 815.589 868.616C811.747 871.958 807.885 875.212 803.938 878.434C803.893 878.41 803.849 878.386 803.804 878.362C798.172 883.521 772.528 902.011 773.109 901.158C771.757 902.171 770.401 903.175 769.04 904.173C756.342 912.421 745.353 919.387 730.801 927.14C729.709 927.8 728.615 928.457 727.519 929.108C726.765 929.458 726.011 929.806 725.256 930.151C719.937 932.952 714.569 935.653 709.165 938.247C691.606 946.841 726.004 930.662 729.881 928.118C730.416 927.821 730.28 927.77 733.621 925.908C739.755 922.907 772.178 902.972 781.464 895.691C781.593 895.697 781.723 895.703 781.852 895.709C785.953 892.665 789.961 889.59 793.942 886.438ZM318.025 952.827C317.254 952.436 316.485 952.043 315.717 951.648C301.958 946.215 293.541 942.11 296.885 943.958C296.892 943.961 296.899 943.964 296.906 943.967C303.892 947.094 310.899 950.034 318.025 952.827ZM257.819 72.1888C257.413 72.2361 251.144 75.6491 243.41 80.4922C243.81 80.3037 244.212 80.1158 244.613 79.9285C248.614 77.3853 253.839 74.4058 266.752 67.4105C266.714 67.3384 266.675 67.2663 266.636 67.1942C263.683 68.8268 260.743 70.4917 257.819 72.1888ZM329.974 957.39C334.16 959.06 346.29 962.835 338.384 960.139C332.355 958.059 327.722 956.506 329.974 957.39ZM956.091 330.704C957.219 333.853 958.314 337.015 959.38 340.194C960.009 341.824 960.629 343.457 961.24 345.094C961.238 345.086 961.235 345.079 961.233 345.071C959.594 340.256 957.876 335.455 956.091 330.704ZM665.918 956.572C655.273 960.491 644.465 964.047 633.565 967.215C633.469 967.29 633.373 967.365 633.277 967.441C644.157 964.096 648.523 962.765 651.056 961.958C651.044 961.962 651.033 961.966 651.022 961.969C659.134 959.323 666.765 956.599 674.308 953.732C671.517 954.705 668.72 955.652 665.918 956.572ZM702.007 941.966C700.112 942.427 697.913 943.674 681.899 950.549C682.552 950.325 683.206 950.1 683.859 949.873C692.197 946.4 696.966 944.12 695.586 944.931C697.732 943.959 699.873 942.971 702.007 941.966ZM530.528 985.59C532.631 985.626 549.181 984.017 548.27 984.003C547.923 984.133 526.447 985.744 530.528 985.59ZM374.529 25.2011C370.817 26.1357 367.114 27.1143 363.421 28.137C368.316 26.7131 373.23 25.3667 378.162 24.0977C376.949 24.4608 375.738 24.8286 374.529 25.2011ZM415.562 15.9957C418.265 15.6137 409.541 17.2372 425.68 14.8064C413.934 16.5427 402.235 18.7084 390.646 21.2931C396.076 20.0374 401.516 18.8766 406.991 17.8055C406.019 17.9029 405.048 18.0032 404.077 18.1064C407.897 17.3572 411.726 16.6536 415.562 15.9957ZM428.203 14.2471C421.81 14.7552 455.273 10.6145 458.44 10.6962C459.138 10.6445 462.467 10.5617 463.692 10.5169C458.615 10.865 453.542 11.292 448.478 11.7976C450.177 11.6805 451.878 11.5722 453.578 11.4729C447.647 12.0206 441.732 12.6754 435.826 13.438C438.345 13.0675 440.867 12.7166 443.392 12.3852C438.321 12.9269 433.258 13.5475 428.203 14.2471ZM298.661 51.4163C302.559 49.6926 306.477 48.0221 310.411 46.4047C309.594 46.6533 308.778 46.9042 307.961 47.1573C305.611 48.1416 303.266 49.145 300.928 50.1673C300.171 50.5816 299.416 50.998 298.661 51.4163ZM380.691 23.3462C374.76 25.1673 358.21 28.7182 377.403 24.0086C379.34 23.5539 381.253 23.1703 380.691 23.3462ZM471.051 9.90659C484.28 9.02164 481.312 9.72983 468.813 10.1927C468.185 10.2193 470.059 9.9798 471.051 9.90659ZM570.141 14.6222C571.2 14.8019 573.031 15.1979 583.162 16.7671C584.824 17.0862 586.485 17.414 588.144 17.7504C584.276 16.7965 550.756 12.1183 555.395 12.6705C560.54 13.2835 564.846 13.8254 570.141 14.6222ZM537.632 10.0896C532.556 9.67821 527.475 9.34583 522.393 9.09238C524.065 9.24203 525.737 9.40024 527.408 9.56698C524.908 9.43142 522.408 9.31497 519.908 9.21761C515.638 8.91042 511.363 8.65888 507.084 8.46315C518.154 8.66503 529.206 9.23942 540.24 10.1872C539.371 10.1523 538.501 10.1198 537.632 10.0896ZM402.877 17.4111C412.517 15.6232 424.328 13.4615 440.141 11.6137C440.149 11.613 440.157 11.6123 440.165 11.6116C440.953 11.5212 442.36 11.4443 444.9 11.1753C447.025 10.475 489.932 7.94806 486.6 8.55187C469.986 9.10831 463.785 9.53254 459.831 10.127C459.018 10.1187 458.206 10.1123 457.393 10.108C441.453 11.3601 436.965 12.2951 428.086 13.5887C428.114 13.5314 428.141 13.4741 428.169 13.4168C422.233 14.2531 416.317 15.1969 410.415 16.2497C411.253 16.1348 412.091 16.0221 412.929 15.9115C410.84 16.2749 408.754 16.6519 406.669 17.0424C401.559 17.8382 395.14 19.1207 402.877 17.4111ZM560.581 12.607C565.356 12.3729 610.59 20.4909 630.623 26.7346C619.984 23.925 603.454 19.7685 591.675 17.5198C568.861 13.3168 584.607 16.3629 580.725 15.7175C578.809 15.3791 565.869 13.0837 560.581 12.607ZM368.052 25.612C379.219 22.6397 385.512 21.0666 395.319 19.1101C394.506 19.3122 393.693 19.5163 392.881 19.7225C389.478 20.2139 362.418 27.0954 368.052 25.612ZM659.861 36.101C638.744 28.7899 649.069 32.6759 638.075 28.9562C645.389 31.129 652.676 33.4813 659.896 36.002C659.884 36.035 659.873 36.068 659.861 36.101ZM353.709 966.914C362.695 969.688 372.866 972.473 378.357 973.668C372.161 972.101 365.99 970.412 359.845 968.598C357.789 968.048 355.752 967.489 353.709 966.914ZM129.484 824.502C130.895 826.173 136.7 832.359 137.328 833.007C138.466 834.224 138.117 833.927 138.123 833.954C145.647 841.876 138.806 834.465 144.442 840.273C145.385 841.342 158.733 854.732 164.537 859.91C165.551 860.84 166.569 861.767 167.583 862.683C175.356 869.721 182.813 875.937 185.839 878.408C191.656 883.206 202.626 891.658 212.717 898.793C216.866 901.731 218.266 902.822 222.483 905.681C249.073 924.954 307.326 953.456 335.129 962.105C341.915 964.494 348.405 966.693 352.037 967.798C354.913 968.636 357.785 969.443 360.684 970.231C369.441 973.157 372.52 973.595 382.166 975.907C388.314 977.349 391.173 978.075 392.001 978.261C397.494 979.448 400.221 979.93 404.552 980.753C409.421 981.686 416.429 982.929 418.18 983.193C419.264 983.3 415.819 982.852 434.857 985.429C454.273 987.892 473.593 989.218 493.503 989.373C486.87 988.815 481.152 989.03 473.03 988.663C470.853 988.559 472.237 988.55 470.343 988.453C464.992 988.201 454.75 987.496 450.335 987.031C445.572 986.542 447.218 986.537 441.176 985.937C440.87 985.905 441.826 986.092 440.405 985.942C426.129 984.314 421.487 983.593 403.627 980.266C391.453 979.448 321.454 958.259 319.558 956.105C307.141 952.046 380.075 976.63 389.302 977.048C392.376 977.74 389.132 977.108 391.933 977.741C393.123 978.014 403.834 980.176 414.508 981.951C427.362 984.297 453.473 987.404 465.926 988.013C572.819 994.805 680.335 966.337 769.359 906.819C771.248 905.549 773.698 903.828 779.781 899.551C809.248 878.772 836.67 854.49 861.225 827.332C931.531 750.279 976.366 648.614 985.783 544.982C988.663 514.483 988.644 483.978 985.9 453.191C985.479 449.377 985.014 445.572 984.505 441.771C985.782 451.497 986.869 469.444 986.897 471.078C986.925 471.666 987.228 475.373 987.432 481.364C987.703 489.789 987.616 493.488 987.632 494.179C987.647 496.323 987.712 494.918 987.72 496.966C987.728 512.232 987.238 524.05 986.139 538.021C984.807 553.797 983.593 561.743 982.04 573.159C981.784 574.44 981.523 575.72 981.256 576.998C980.745 585.657 969.508 635.798 962.085 655.267C959.964 661.483 960.222 660.346 959.495 662.423C958.975 663.732 959.52 663.32 953.264 679.314C950.041 687.332 949.034 689.345 947.328 693.327C946.39 695.485 946.637 695.175 945.262 698.267C937.242 716.098 929.877 730.257 920.168 746.795C917.43 751.411 917.311 751.408 916.693 752.438C914.4 756.205 910.466 762.9 904.179 772.224C894.229 787.565 871.868 815.753 861.039 827.163C860.854 827.366 860.673 827.564 860.496 827.757C858.983 829.41 857.657 830.708 856.539 831.913C854.848 833.738 854.25 834.513 853.952 834.832C848.232 840.849 851.612 837.173 847.769 841.174C845.685 843.314 843.603 845.623 838.599 850.515C831.976 856.917 833.171 855.533 830.381 858.168C830.084 858.443 830.067 858.605 827.291 861.146C816.747 870.889 800.697 884.103 789.791 892.118C786.685 894.424 784.284 896.108 779.853 899.244C771.531 906.46 717.686 937.706 712.618 939.053C712.131 939.281 717.042 936.75 709.119 940.589C706.838 941.746 704.556 942.88 702.246 944.006C698.311 945.711 694.359 947.361 690.39 948.957C690.728 949.33 667.327 958.698 667.401 958.158C664.813 959.099 662.222 960.016 659.618 960.913C654.265 963.004 650.633 964.21 640.078 967.588C638.406 968.022 636.728 968.448 635.048 968.865C634.643 969.032 634.238 969.198 633.833 969.364C628.081 970.792 618.761 973.482 617.614 973.755C613.226 974.867 609.885 975.582 607.815 976.062C600.094 977.923 583.239 981.336 574.058 982.669C573.628 982.734 574.035 982.565 571.426 982.953C566.72 983.632 566.279 983.87 559.963 984.512C558.698 984.722 557.432 984.927 556.166 985.127C554.812 985.266 553.459 985.399 552.105 985.527C544.133 986.435 536.134 987.149 528.125 987.667C535.395 986.985 527.014 987.521 519.091 988.013C516.409 988.179 518.795 988.187 517.9 988.243C516.679 988.635 480.651 988.718 478.278 988.223C476.573 988.193 474.866 988.155 473.163 988.108C472.306 987.996 471.448 987.881 470.592 987.765C469.652 987.739 468.712 987.711 467.772 987.679C458.41 987.176 434.193 984.854 429.834 984.086C427.502 983.729 429.63 983.819 418.475 982.102C418.075 982.121 417.675 982.14 417.275 982.157C414.721 981.75 412.169 981.323 409.62 980.875C404.832 980.019 397.947 978.477 397.746 978.329C396.25 978.08 394.755 977.825 393.26 977.562C389.287 976.626 368.192 971.558 359.787 969.091C357.345 968.321 354.925 967.536 352.501 966.729C349.204 965.787 345.913 964.809 342.63 963.795C335.075 961.284 343.085 963.851 341.48 963.301C338.036 962.233 320.837 956.146 322.064 956.281C319.735 955.391 317.412 954.482 315.094 953.555C313.875 953.143 312.661 952.728 311.452 952.309C307.609 950.447 300.675 947.797 286.986 941.242C285.814 940.747 284.644 940.247 283.474 939.743C279.288 937.627 275.125 935.447 270.988 933.204C270.088 932.839 269.191 932.472 268.3 932.105C266.493 931.165 264.692 930.214 262.895 929.25C259.351 927.102 252.754 923.623 249.519 921.612C244.823 918.672 248.537 920.816 257.501 925.846C256.783 925.516 230.555 909.842 224.828 905.684C225.197 905.967 225.567 906.249 225.937 906.531C231.951 910.508 238.079 914.369 244.243 918.064C249.212 921.521 232.503 911.313 225.055 906.249C224.377 905.789 220.413 903.374 213.02 898.105C210.106 896.088 199.293 887.764 197.261 886.113C180.778 872.886 192.61 882.941 177.007 869.469C179.411 871.722 174.728 867.708 168.309 861.881C166.346 860.098 164.229 858.151 162.107 856.179C160.489 854.789 147.702 842.506 146.876 841.558C141.614 836.181 147.403 841.96 139.875 834.131C138.947 833.214 138.023 832.294 137.104 831.371C135.386 829.519 133.697 827.67 132.002 825.785C122.072 814.018 119.723 811.404 116.22 807.229C114.818 805.52 116.677 807.673 113.08 803.217C111.735 801.534 110.166 799.725 106.65 795.135C95.7655 780.685 92.6049 775.39 83.2175 761.624C81.8917 759.435 80.5848 757.238 79.2967 755.034C78.3346 753.603 77.3804 752.169 76.4343 750.729C69.8875 739.28 72.1608 743.456 69.7877 739.323C63.4337 728.474 52.1952 705.278 51.5314 703.112C46.6043 693.396 42.1221 681.22 40.5682 677.221C39.5977 674.868 38.6459 672.509 37.7129 670.143C36.7111 667.326 35.7359 664.502 34.7873 661.671C34.8711 663.184 30.2379 648.385 29.8578 646.953C29.2281 645.362 22.4235 622.522 20.5121 613.863C18.3605 605.262 15.4498 590.122 15.2409 588.774C14.9253 587.242 12.1571 572.431 10.7195 560.727C8.34963 550.579 6.17009 489.515 6.71866 493.357C6.63027 497.351 6.60638 503.041 6.68833 507.96C4.83867 523.382 16.9666 612.448 25.5244 634.029C38.0778 678.235 57.9029 722.407 82.703 761.337C84.1626 763.631 84.3063 764.031 85.5771 765.99C87.5021 768.99 92.5826 776.336 94.6025 779.19C102.046 789.94 111.728 802.389 116.195 807.812C126.02 819.826 133.209 827.856 141.286 836.39C143.807 839.128 156.939 852.304 166.472 860.931C166.959 861.386 167.447 861.84 167.936 862.293C169.158 863.424 170.384 864.548 171.614 865.664C170.639 864.808 169.355 863.674 167.881 862.354C161.812 856.966 152.838 848.411 148.316 843.821C139.871 835.3 135.785 830.633 132.823 827.39C130.26 824.685 117.861 810.51 112.57 803.699C110.907 801.606 110.65 801.111 109.245 799.311C101.617 789.593 92.1466 776.241 86.2266 767.314C88.5448 771.026 73.9788 747.836 73.4219 746.502C72.1769 744.373 70.7417 742.11 68.2859 737.724C63.6244 729.254 64.3547 730.287 58.6589 719.607C57.3628 716.91 56.0929 714.203 54.8493 711.488C54.2614 711.585 39.293 676.857 35.7177 666.718C35.0584 666.654 53.9736 712.034 56.3317 715.385C66.8216 737.349 85.6043 768.175 99.6801 787.14C103.709 792.953 117.519 810.616 118.659 811.803C120.398 813.884 118.901 811.943 119.654 812.84C135.325 831.058 127.454 822.033 129.484 824.502ZM428.002 12.9983C420.79 14.0115 413.603 15.1839 406.439 16.5167C406.948 16.3616 407.457 16.2073 407.967 16.0538C411.255 15.4712 414.547 14.9223 417.844 14.407C420.37 13.959 422.899 13.5308 425.431 13.1223C426.288 13.0788 427.146 13.0374 428.002 12.9983ZM445.791 10.5548C452.073 9.87975 452.397 10.006 453.848 9.87595C458.185 9.51234 461.934 9.17933 466.15 8.91257C461.312 9.4861 450.982 10.2125 445.791 10.5548ZM319.268 41.0438C320.609 40.5383 329.562 37.3905 339.73 33.6568C347.438 31.151 355.174 28.8467 362.997 26.7253C349.704 30.2505 331.747 36.6128 325.476 39.0191C323.082 39.9126 322.592 39.9971 320.683 40.7276C309.656 44.9375 299.307 49.7674 298.07 49.969C308.283 45.5252 317.56 41.6863 319.268 41.0438ZM387.201 20.3159C389.053 19.9602 390.907 19.6154 392.761 19.2814C386.112 20.725 379.481 22.3099 372.904 24.0272C374.667 23.4967 376.433 22.9761 378.201 22.4654C381.191 21.7214 384.195 21.0039 387.201 20.3159ZM25.1567 364.286C26.3033 360.235 27.4974 356.215 28.7446 352.206C28.6247 352.41 27.2187 357.002 26.6927 358.69C26.6949 358.682 26.6971 358.675 26.6994 358.667C26.1083 360.548 26.2773 359.72 25.2594 363.165C25.2247 363.539 25.1905 363.912 25.1567 364.286ZM984.104 436.69C984.363 429.499 970.763 365.829 971.198 371.44C971.947 374.125 977.199 395.757 978.33 402.216C980.224 410.869 983.573 434.505 984.104 436.69ZM956.564 325.051C956.348 323.935 969.207 362.495 969.879 366.46C969.678 365.64 969.381 364.372 969.084 363.286C967.807 357.939 959.786 333.197 956.564 325.051ZM16.2108 597.298C15.6398 594.069 15.1005 590.832 14.5937 587.591C14.6353 588.46 14.6793 589.33 14.7255 590.201C15.2037 592.573 15.6985 594.937 16.2108 597.298ZM173.633 867.371C214.643 903.381 261.778 932.602 312.375 953.122C307.915 951.363 303.474 949.536 299.054 947.64C255.887 928.761 213.118 901.455 178.625 871.916C176.954 870.415 175.289 868.9 173.633 867.371ZM304.818 46.3488C291.939 51.8537 281.412 56.896 267.841 63.8694C280.677 57.0197 287.209 54.1158 300.049 48.2145C300.056 48.2114 300.063 48.2082 300.07 48.2051C301.651 47.5777 303.233 46.9589 304.818 46.3488ZM73.9116 249.154C75.9967 245.458 78.1316 241.785 80.3209 238.131C77.6011 242.48 74.9748 246.829 72.3862 251.272C72.8927 250.565 73.4013 249.859 73.9116 249.154ZM619.203 974.18C633.464 970.763 669.164 959.249 680.029 954.27C680.733 953.963 674.145 956.543 684.68 952.079C676.704 955.405 670.987 957.557 670.436 957.917C668.017 958.776 665.593 959.616 663.165 960.436C659.178 961.902 655.147 963.324 651.115 964.687C651.508 964.405 651.2 964.552 644.996 966.618C642.141 967.48 639.285 968.313 636.412 969.123C635.215 969.537 634.017 969.945 632.817 970.349C630.31 970.982 627.8 971.595 625.287 972.187C615.584 974.841 621.545 973.426 619.203 974.18ZM568.93 984.232C571.488 984.974 637.767 969.992 607.603 976.608C599.786 978.414 591.939 980.026 584.041 981.449C590.668 980.77 569.051 984.072 567.258 984.195C558.75 985.396 547.885 986.712 541.674 987.25C536.334 987.724 533.152 987.872 529.392 988.126C516.585 989.094 496.294 989.278 493.503 989.373C503.485 989.448 513.633 989.221 523.999 988.65C534.951 987.979 544.632 987.603 565.045 984.611C570.1 983.922 568.319 984.311 568.93 984.232ZM87.2896 227.342C87.0194 227.809 101.846 206.526 102.017 206.443C102.012 206.348 97.0188 213.209 96.3258 214.19C96.3212 214.197 96.3167 214.203 96.3121 214.209C96.0158 214.616 97.4314 212.489 95.1211 215.721C92.4486 219.567 89.8381 223.441 87.2896 227.342ZM986.811 537.733C988.795 534.303 988.056 454.196 986.222 451.931C986.148 451.295 986.185 452.189 986.135 451.939C988.17 470.513 988.735 497.1 988.002 514.807C987.823 519.745 987.942 518.272 987.936 518.552C987.935 518.564 987.935 518.576 987.934 518.587C987.862 521.394 986.935 534.01 986.811 537.733ZM703.538 944.049C700.431 945.452 697.313 946.822 694.184 948.158C693.416 948.557 692.647 948.954 691.877 949.35C691.884 949.347 691.892 949.343 691.899 949.34C695.798 947.629 699.678 945.865 703.538 944.049ZM803.677 882.339C803.003 882.826 802.328 883.311 801.652 883.793C794.911 889.121 788.099 894.221 781.075 899.198C781.767 898.679 782.458 898.157 783.147 897.634C772.542 905.116 768.148 908.098 762.317 911.851C762.323 911.847 762.33 911.843 762.337 911.838C761.709 912.237 760.907 912.655 758.568 914.126C753.261 917.575 737.549 926.677 735.634 927.749C731.783 930.365 763.262 911.828 768.759 907.718C771.319 906.026 774.418 904.005 775.959 902.941C777.647 901.775 779.889 900.106 783.957 897.184C785.204 896.357 798.237 886.817 803.677 882.339ZM905.59 771.292C904.054 773.432 901.006 778.023 899.822 779.672C899.541 780.066 901.64 776.937 898.998 780.662C898.297 781.749 897.591 782.834 896.879 783.917C899.857 779.743 902.76 775.534 905.59 771.292ZM112.84 192.103C112.314 192.652 103.811 203.668 103.466 204.231C98.5356 210.942 116.057 188.092 112.84 192.103ZM407.562 14.8947C401.044 14.6728 476.537 5.50826 484.017 6.84178C483.651 6.93445 465.589 7.60289 475.055 7.37564C466.014 7.48553 441.14 9.82526 435.325 10.6875C431.784 11.1179 430.875 11.1171 430.34 11.1838C428.222 11.3656 409.785 14.4782 407.562 14.8947ZM546.719 9.24418C539.541 8.493 532.335 7.89854 525.129 7.4631C533.634 7.92488 542.143 8.60836 550.61 9.50985C549.313 9.41614 548.016 9.32757 546.719 9.24418ZM555.752 10.166C555.56 9.86537 579.821 13.3769 586.142 14.6826C578.948 13.6071 567.04 11.4338 555.752 10.166ZM176.551 125.336C167.953 132.694 164.65 136.318 174.827 127.039C175.137 126.758 176.911 125.032 176.551 125.336ZM622.739 973.927C624.64 973.584 647.696 966.967 648.949 966.333C653.053 964.782 638.118 969.659 632.991 970.956C624.755 973.076 636.815 969.808 616.769 975.122C617.58 974.871 618.391 974.618 619.201 974.363C607.423 977.285 611.337 976.599 609.23 977.158C608.585 977.336 601.167 978.969 599.828 979.258C583.138 983.098 621.103 974.727 622.739 973.927ZM26.117 356.728C19.8252 378.34 22.4449 369.01 17.1344 391.483C16.8202 392.191 25.0689 359.485 26.117 356.728ZM405.526 981.438C428.415 985.657 447.448 988.011 469.127 989.109C467.62 989.911 399.479 981.207 405.526 981.438ZM937.198 277.577C978.181 358.41 998.074 465.028 984.976 560.791C983.608 571.216 983.27 572.173 982.707 575.932C982.319 578.39 982.481 577.976 981.931 581.239C966.03 675.025 923.276 760.447 862.008 828.04C846.144 845.584 829.187 861.859 811.052 876.915C805.709 881.791 777.47 902.707 771.223 906.837C766.675 910.256 787.385 895.808 790.649 893.152C793.175 891.268 793.342 891.265 795.018 889.992C796.793 888.636 795.285 889.704 797.341 888.122C806.075 881.391 815.284 873.768 822.743 867.146C836.635 854.842 849.734 841.853 862.122 828.143C914.663 770.036 952.674 700.474 972.783 624.507C975.731 613.147 975.142 615.49 975.304 614.921C975.306 614.913 975.308 614.906 975.309 614.898C990.575 553.781 993.632 480.58 982.069 414.857C974.213 368.561 959.703 323.38 939.066 281.207C938.448 279.995 937.826 278.785 937.198 277.577ZM574.064 983.84C579.879 983.149 581.192 982.955 601.775 978.782C603.435 978.368 605.092 977.946 606.747 977.515C595.918 979.992 585.001 982.105 574.029 983.846C574.041 983.844 574.053 983.842 574.064 983.84ZM706.331 943.433C709.901 942.723 751.534 920.736 768.882 908.499C772.075 906.321 746.212 922.915 739.711 926.248C736.583 928.074 719.456 937.214 706.132 943.48C706.198 943.464 706.264 943.449 706.331 943.433ZM330.666 34.989C327.453 36.1536 324.251 37.3524 321.06 38.5855C329.07 35.5732 337.156 32.7714 345.316 30.1809C332.306 34.3577 319.495 39.0678 306.885 44.3122C309.195 43.2512 311.511 42.2093 313.847 41.1805C319.423 39.0114 325.03 36.9475 330.666 34.989ZM289.705 51.8462C311.525 41.9892 288.757 52.3482 283.412 54.9298C280.171 56.4234 287.487 52.8588 289.705 51.8462ZM235.044 81.4178C244.307 75.2207 264.053 64.2534 257.197 68.4329C246.613 74.2558 239.976 78.2155 225.291 87.765C227.381 86.3077 229.5 84.8559 231.619 83.428C231.629 83.4217 231.639 83.4153 231.649 83.4089C232.779 82.7402 233.91 82.0765 235.044 81.4178ZM299.598 47.1845C313.953 40.9189 272.651 59.6394 285.554 53.5931C286.122 53.2612 299.014 47.378 299.598 47.1845ZM972.927 370.98C972.365 369.179 975.404 380.828 976.276 384.751C980.3 401.66 984.226 423.626 986.217 441.598C986.094 440.242 985.965 438.886 985.83 437.531C983.058 415.086 978.745 392.832 972.927 370.98ZM989.474 498.011C989.482 510.426 989.022 522.849 988.096 535.231C988.017 536.385 987.656 541.804 988.005 537.781C989.028 524.549 989.518 511.277 989.474 498.011ZM496.08 990.474C505.604 990.607 478.175 990.622 479.419 990.197C484.972 990.383 490.526 990.475 496.08 990.474ZM407.944 982.512C413.829 983.561 419.727 984.501 425.636 985.334C425.638 985.37 425.641 985.406 425.644 985.442C419.731 984.573 413.83 983.597 407.944 982.512ZM958.109 324.47C960.266 330.408 965.253 344.672 967.944 353.682C966.204 347.446 961.245 332.783 958.109 324.47ZM636.849 970.44C636.177 970.892 672.099 958.829 659.721 963.176C652.147 965.786 644.526 968.206 636.849 970.44ZM708.708 943.117C701.385 946.617 695.574 949.1 697.06 948.311C701 946.57 704.935 944.769 708.815 942.93C708.78 942.992 708.744 943.055 708.708 943.117ZM199.991 105.381C189.077 113.672 178.558 122.38 168.344 131.579C168.7 131.212 169.056 130.846 169.412 130.48C179.281 121.647 189.443 113.261 199.965 105.269C199.973 105.306 199.982 105.343 199.991 105.381ZM955.62 317.125C952.142 308.362 948.433 299.746 944.455 291.193C948.394 299.773 952.063 308.413 955.498 317.198C955.542 317.181 955.585 317.164 955.629 317.146C955.626 317.139 955.623 317.132 955.62 317.125ZM367.161 22.6527C326.912 34.2467 378.071 18.7084 389.075 17.1197C389.087 17.1169 389.098 17.1141 389.11 17.1114C390.059 16.9212 388.085 17.4678 389.665 17.1576C385.497 18.0377 381.332 18.9735 377.188 19.9612C373.434 20.9593 369.69 22.0019 365.957 23.0891C364.717 23.4067 363.478 23.7292 362.24 24.0566C363.878 23.58 365.518 23.112 367.161 22.6527ZM534.565 6.56833C572.361 10.2131 533.707 6.15728 514.919 5.55276C515.06 5.45388 531.079 6.22879 534.565 6.56833ZM435.258 9.12046C429.324 9.89243 423.405 10.7719 417.507 11.7576C416.748 11.8515 415.99 11.9471 415.231 12.0445C419.756 11.2552 424.286 10.5297 428.835 9.86601C430.975 9.60347 433.116 9.35496 435.258 9.12046ZM249.797 71.1085C241.498 76.0185 230.964 82.3521 257.743 66.8413C257.712 66.8182 257.681 66.7951 257.65 66.7719C256.573 67.3718 253.437 69.1797 253.265 69.278C252.769 69.5535 253.287 69.1088 249.797 71.1085ZM604.266 15.9083C605.318 16.1506 606.013 15.8172 616.867 18.8681C620.174 19.6669 623.476 20.5006 626.77 21.369C627.599 21.6782 628.426 21.9897 629.253 22.3033C616.55 18.7817 615.126 18.7546 614.206 18.5027C609.942 17.4924 613.115 18.165 610.363 17.5122C603.266 15.7621 586.998 12.6359 594.417 13.8568C597.09 14.2901 603.207 15.6785 604.266 15.9083ZM579 10.7946C580.573 11.0858 575.473 10.3549 576.659 10.582C577.708 10.7134 593.327 13.6687 589.06 13.0811C586.497 12.5901 583.931 12.1197 581.362 11.6698C580.5 11.4703 579.637 11.2732 578.773 11.0784C576.274 10.7092 573.774 10.3594 571.272 10.0289C567.094 9.26428 558.129 7.88298 568.801 9.27261C564.888 8.71356 560.959 8.20018 557.032 7.73486C554.991 7.54732 552.949 7.37252 550.907 7.21045C551.984 7.23633 553.061 7.26576 554.138 7.29872C562.455 8.25387 570.746 9.41971 579 10.7946ZM696.206 45.7862C695.746 45.6348 695.286 45.4842 694.826 45.3344C708.263 50.9616 728.355 61.2987 716.765 55.76C699.175 47.0427 680.983 39.3545 662.459 32.8104C661.24 32.3409 660.027 31.8787 658.799 31.4168C672.566 36.4466 668.507 34.3527 680.365 39.1482C682.342 39.9939 676.525 37.7739 689.052 42.8201C688.627 42.5899 688.202 42.3604 687.776 42.1316C690.595 43.3223 693.405 44.5405 696.206 45.7862ZM802.881 110.068C783.232 94.8359 805.081 111.315 808.514 114.457C808.508 114.452 808.502 114.447 808.496 114.442C818.017 122.681 797.083 105.469 795.674 104.619C793.913 103.31 789.759 100.395 780.206 93.173C787.951 98.6078 795.471 104.213 802.881 110.068ZM735.347 65.1398C737.18 66.1421 736.133 65.6447 736.923 66.0815C736.93 66.0853 736.937 66.0892 736.944 66.093C748.789 72.3115 775.384 89.4724 777.94 91.786C770.181 85.7446 732.191 63.195 729.717 62.2247C731.598 63.1833 733.475 64.155 735.347 65.1398ZM649.428 28.1648C641.688 25.5107 659.236 31.1466 663.711 32.9216C664.563 33.2475 657.445 30.909 649.428 28.1648ZM93.4119 212.906C83.1875 227.713 96.7834 208.376 92.2091 215.163C94.1709 212.342 96.1659 209.537 98.194 206.748C96.5821 208.79 94.9879 210.844 93.4119 212.906ZM248.585 925.862C252.216 927.986 250.535 926.911 250.851 927.094C253.244 928.474 255.477 929.806 256.405 930.316C273.619 939.553 262.247 933.269 262.078 933.175C261.756 932.904 266.31 935.265 260.112 931.788C256.313 929.742 252.534 927.641 248.776 925.486C246.938 924.361 245.122 923.233 243.314 922.093C235.938 917.747 245.503 923.578 246.542 924.316C246.939 924.61 239.953 920.56 248.585 925.862ZM75.4083 239.656C73.9982 242.215 70.5017 248.427 74.235 242.502C74.2391 242.496 74.2431 242.489 74.2472 242.482C74.9347 241.386 77.7195 236.898 78.6241 235.547C84.715 225.675 82.0555 229.259 75.4083 239.656ZM184.736 881.933C179.38 877.521 174.098 872.983 168.886 868.313C169.033 868.325 169.181 868.338 169.328 868.351C172.114 870.851 174.92 873.313 177.746 875.738C178.769 876.551 179.793 877.36 180.82 878.163C177.34 875.131 173.892 872.043 170.478 868.898C168.893 867.518 167.313 866.126 165.74 864.721C163.131 862.391 160.551 860.04 158.002 857.667C159.837 859.461 161.689 861.243 163.558 863.015C153.498 853.759 155.822 855.628 147.868 847.692C145.074 845.02 142.297 842.301 139.567 839.566C135.752 835.459 132.048 831.333 128.372 827.099C122.092 820.076 121.544 819.465 125.632 824.303C122.458 820.858 119.254 816.864 115.649 812.569C115.351 812.214 115.829 812.951 115.567 812.636C97.2048 790.002 98.9015 790.74 96.0503 787.036C94.0882 784.391 86.5201 773.721 86.388 773.566C86.2484 773.334 100.912 796.331 77.5059 760.633C88.9416 779.542 104.391 799.414 95.0118 786.13C98.8386 791.994 118.053 816.065 119.47 817.404C121.311 819.591 120.561 818.912 122.902 821.629C124.318 823.2 128.08 827.411 139.415 839.712C140.93 841.228 142.457 842.737 143.996 844.237C145.375 845.697 146.784 847.17 148.165 848.597C145.146 845.788 142.125 842.906 139.168 840.013C149.319 850.427 158.011 858.907 165.23 865.286C166.191 866.135 167.122 866.943 168.022 867.707C174.476 873.476 177.678 876.154 174.777 873.85C176.742 875.538 178.717 877.208 180.702 878.86C182.043 879.892 183.385 880.915 184.736 881.933ZM50.382 286.214C46.6096 293.877 45.6646 296.869 46.2171 295.646C49.3849 288.804 52.3684 282.242 50.382 286.214ZM235.366 917.696C227.375 912.606 219.58 907.319 211.909 901.79C211.855 901.867 211.801 901.943 211.747 902.019C219.477 907.475 227.325 912.685 235.366 917.696ZM94.7703 210.638C95.3346 209.97 95.9008 209.304 96.469 208.639C102.325 200.094 108.951 192.263 112.128 188.219C112.815 187.342 111.303 189.013 109.962 190.657C109.014 191.63 95.7468 209.022 94.7703 210.638ZM458.184 5.21794C454.344 5.56807 450.507 5.96298 446.677 6.40213C446.881 6.30211 447.086 6.20218 447.29 6.10241C449.183 5.89642 451.079 5.70112 452.975 5.51681C454.711 5.40805 456.448 5.30844 458.184 5.21794ZM414.672 10.7164C407.89 11.853 401.125 13.132 394.401 14.5486C420.117 9.38816 398.972 13.4191 414.634 10.4907C414.646 10.5659 414.659 10.6411 414.672 10.7164ZM347.022 26.9057C347.813 26.605 348.606 26.3064 349.399 26.0099C355.956 23.9642 362.584 22.0475 369.229 20.2753C364.983 21.2389 360.746 22.2596 356.518 23.3375C354.094 24.0526 351.685 24.7833 349.275 25.5343C348.523 25.9896 347.771 26.4468 347.022 26.9057ZM422.81 987.541C426.908 988.227 441.308 989.88 440.697 989.716C434.734 988.972 428.768 988.116 422.844 987.156C422.802 987.244 422.761 987.333 422.72 987.421C421.887 987.248 421.054 987.073 420.222 986.895C416.84 986.402 413.461 985.872 410.086 985.308C408.403 984.926 406.721 984.534 405.042 984.135C403.32 983.905 401.608 983.668 399.892 983.421C416.077 986.712 415.588 986.249 418.97 986.841C420.691 987.116 421.772 987.338 422.378 987.46C422.522 987.487 422.666 987.514 422.81 987.541ZM229.524 914.692C246.135 925.331 256.156 930.593 268.651 937.408C260.366 933.557 209.651 903.004 194.019 889.077C192.269 887.806 190.524 886.521 188.785 885.222C197.728 892.269 203.909 896.96 208.426 900.249C211.996 902.83 211.67 902.49 211.943 902.688C211.955 902.697 211.968 902.707 211.981 902.716C220.4 908.659 222.965 910.419 229.524 914.692ZM103.192 198.662C99.8846 202.776 94.4469 210.303 94.5272 210.493C97.5869 206.303 100.676 202.209 103.842 198.145C103.167 198.96 103.755 197.955 103.192 198.662ZM339.271 28.9596C335.316 30.2009 326.142 33.548 330.153 32.2599C330.86 32.0107 340.038 28.7403 334.72 30.8423C343.694 27.7708 341.516 28.2539 339.271 28.9596ZM27.3139 653.235C26.222 649.931 25.1657 646.618 24.1449 643.296C23.8455 642.541 23.5479 641.785 23.2522 641.028C24.5525 645.112 25.9065 649.182 27.3139 653.235ZM131.793 164.243C135.161 161.028 140.336 155.021 146.617 149.084C148.866 146.825 151.176 144.549 153.481 142.321C153.487 142.316 153.492 142.31 153.498 142.305C153.5 142.181 153.502 142.058 153.504 141.934C145.986 149.196 138.843 156.538 131.793 164.243ZM137.474 838.055C136.03 836.472 134.599 834.881 133.18 833.284C130.571 830.526 127.977 827.72 125.41 824.879C126.752 826.453 128.107 828.023 129.47 829.583C132.099 832.432 134.767 835.256 137.474 838.055ZM172.072 124.816C163.611 132.233 160.671 135.288 171.407 125.716C175.966 121.733 181.008 117.172 172.072 124.816ZM634.976 973.493C631.275 974.538 627.564 975.538 623.843 976.495C622.594 976.886 621.342 977.271 620.089 977.652C625.07 976.344 630.033 974.957 634.976 973.493ZM390.528 14.809C390.1 14.9629 389.673 15.1175 389.245 15.2726C385.897 16.0058 382.555 16.774 379.22 17.5772C380.044 17.3158 380.869 17.0566 381.694 16.7995C384.634 16.1089 387.578 15.4454 390.528 14.809ZM609.949 979.984C606.954 980.671 603.953 981.329 600.948 981.96C598.936 982.419 596.922 982.865 594.905 983.299C597.727 982.762 600.546 982.2 603.36 981.613C605.56 981.085 607.756 980.542 609.949 979.984ZM259.096 64.0495C255.255 66.0106 240.42 74.855 253.93 67.1586C262.585 62.3651 259.674 63.7596 259.096 64.0495ZM279.723 53.2846C264.983 60.5782 276.136 55.3087 293.806 46.7965C275.886 55.1134 280.623 52.9208 279.723 53.2846ZM416.971 9.28306C417.379 9.21862 417.731 9.25165 420.996 8.74546C432.751 6.88423 448.372 5.20961 456.859 4.56864C477.225 1.75651 539.966 3.60541 547.162 5.54634C548.673 5.75797 545.164 5.58547 545.781 5.65695C547.59 5.82846 558.005 6.92561 556.065 6.84291C545.865 5.6279 535.62 4.72907 525.364 4.14899C527.886 4.19894 530.41 4.26814 532.934 4.35664C507.368 2.86885 515.816 3.53845 508.453 3.45018C504.122 3.27532 499.79 3.15702 495.455 3.09531C486.015 3.20893 476.584 3.5909 467.173 4.24023C469.304 4.05245 471.437 3.87838 473.572 3.71805C459.37 4.38294 463.317 4.27443 455.574 5.00883C455.553 4.95197 455.532 4.89512 455.512 4.83827C441.848 6.18803 439.192 6.47496 436.21 6.80819C430.108 7.64599 422.396 8.98068 399.233 12.7997C389.613 15.1119 389.697 14.4576 384.1 16.0869C367.714 19.6439 398.708 12.1394 413.643 9.89602C413.65 9.89468 413.658 9.89336 413.666 9.89203C414.788 9.7048 412.995 9.93535 416.971 9.28306ZM333.738 30.7651C343.144 26.9469 305.569 40.8541 318.145 36.6115C319.992 35.9122 321.841 35.2244 323.695 34.5479C327.038 33.2472 330.387 31.9859 333.76 30.7573C333.753 30.7599 333.745 30.7625 333.738 30.7651ZM56.4555 271.947C40.2433 305.321 49.564 286.41 55.0044 275.078C56.1072 272.822 56.7012 271.578 56.4555 271.947ZM253.528 929.475C254.018 929.711 254.508 929.945 254.999 930.179C243.993 924.242 223.872 911.127 224.043 911.424C233.698 917.809 243.448 923.779 253.528 929.475ZM173.12 872.917C175.117 874.71 183.456 881.714 182.511 880.79C178.914 877.744 175.352 874.639 171.823 871.475C170.132 870.055 168.449 868.621 166.772 867.174C169.063 869.253 172.573 872.443 173.12 872.917Z" fill="#B92E2D"/>
</g>
</svg>
