<svg width="52" height="52" viewBox="0 0 52 52" fill="none" xmlns="http://www.w3.org/2000/svg">
<path d="M23.6434 0.00446651C23.4841 0.00268449 23.3261 0.0330685 23.1789 0.0937981L0.72542 9.54952C0.485314 9.65034 0.285155 9.82752 0.155954 10.0536C0.0267539 10.2797 -0.0242765 10.5421 0.0107693 10.8002V36.6393C0.0101669 36.8709 0.077559 37.0977 0.204593 37.2914C0.331627 37.4851 0.512718 37.6373 0.72542 37.7291L23.1789 47.1848C23.1833 47.1864 23.1878 47.1878 23.1923 47.1893C23.2187 47.2007 23.2455 47.2111 23.2727 47.2206C23.2816 47.2236 23.2905 47.2266 23.2995 47.2295C23.3187 47.2345 23.3381 47.2389 23.3575 47.2429C23.3841 47.2498 23.4109 47.2557 23.4379 47.2608C23.472 47.2667 23.5062 47.2712 23.5407 47.2742C23.5451 47.2742 23.5496 47.2742 23.5541 47.2742C23.5719 47.2746 23.5898 47.2746 23.6077 47.2742C23.6225 47.2759 23.6374 47.2774 23.6523 47.2786C23.6882 47.2773 23.7239 47.2743 23.7595 47.2697C23.7849 47.2675 23.8102 47.2646 23.8354 47.2608C23.8549 47.2583 23.8742 47.2553 23.8935 47.2518C23.898 47.2519 23.9024 47.2519 23.9069 47.2518C23.9401 47.2428 23.9729 47.2324 24.0052 47.2206C24.0097 47.2191 24.0141 47.2176 24.0186 47.2161C24.0457 47.2067 24.0726 47.1962 24.099 47.1848L38.8833 40.9629C40 41.7803 41.3265 42.3207 42.7692 42.4905L45.0918 49.57C45.3899 50.4601 46.0271 51.1968 46.865 51.62C47.703 52.0431 48.6741 52.1186 49.5674 51.8301C50.4575 51.532 51.1942 50.8948 51.6173 50.0569C52.0405 49.2189 52.116 48.2479 51.8274 47.3546L49.4735 40.2125C50.2713 39.4423 50.9058 38.5194 51.3394 37.4988C51.7729 36.4783 51.9966 35.3808 51.9972 34.272C51.9972 30.9891 50.0587 28.1483 47.2715 26.8128V10.6438C47.2723 10.4104 47.204 10.182 47.0752 9.98726C46.9465 9.79255 46.763 9.64025 46.5479 9.54952L35.8103 5.02936C35.7004 4.95941 35.5797 4.9081 35.453 4.87749L24.0945 0.0937981C23.9531 0.033852 23.8014 0.00199374 23.6479 0L23.6434 0.00446651ZM23.6434 2.46108L32.1209 6.03434L12.7137 14.2082L4.24508 10.6349L23.6434 2.46108ZM35.1582 7.31177L43.0417 10.6394L23.6389 18.8087L15.7599 15.4901L35.1582 7.31177ZM2.36912 12.4215L22.4553 20.8857V44.3128L2.36912 35.8487V12.4215ZM44.9087 12.4215V26.0982C44.5199 26.0388 44.1273 26.0075 43.734 26.0044C39.1781 26.0044 35.4619 29.7205 35.4619 34.272C35.4619 34.2794 35.4619 34.2869 35.4619 34.2943C35.4619 34.4774 35.4753 34.665 35.4887 34.8526V34.8884C35.4722 35.077 35.4633 35.2663 35.4619 35.4556C35.4619 36.4606 35.9086 37.3316 36.4401 38.1624C36.6232 38.5108 36.8421 38.8323 37.0699 39.1495L24.8181 44.3128V20.8812L44.9087 12.4215ZM6.04957 27.4203C6.01237 27.4185 5.97511 27.4185 5.93791 27.4203C5.67224 27.4422 5.42175 27.5531 5.227 27.7352C5.03226 27.9172 4.90465 28.1596 4.86486 28.4232C4.82506 28.6868 4.8754 28.9561 5.00773 29.1875C5.14006 29.4189 5.34663 29.5988 5.59398 29.6982L10.0516 31.5742C10.3413 31.6956 10.6673 31.697 10.9579 31.578C11.2486 31.4591 11.4801 31.2296 11.6015 30.9399C11.7229 30.6503 11.7243 30.3243 11.6054 30.0336C11.4864 29.743 11.2569 29.5114 10.9673 29.39L6.50963 27.5141C6.36408 27.4524 6.20765 27.4205 6.04957 27.4203ZM43.7206 28.3627C44.3325 28.3672 44.9445 28.4788 45.5296 28.6709C46.7007 29.0413 47.7266 29.7691 48.4632 30.7521C49.1997 31.7351 49.6101 32.9241 49.6367 34.1521C49.6633 35.3802 49.3048 36.5858 48.6115 37.5998C47.9182 38.6138 46.9248 39.3853 45.7708 39.8061C45.6546 39.8507 45.534 39.882 45.4134 39.9177C44.8704 40.0839 44.3063 40.1712 43.7385 40.1768H43.7027C43.6581 40.1743 43.6134 40.1743 43.5687 40.1768C42.1372 40.1412 40.7675 39.5858 39.7154 38.6143C38.6633 37.6427 38.0008 36.3215 37.8515 34.8973C37.8516 34.8884 37.8516 34.8794 37.8515 34.8705V34.8616C37.8501 34.8272 37.8471 34.7929 37.8426 34.7588C37.827 34.5955 37.8181 34.4316 37.8158 34.2675V34.2586C37.8189 33.4703 37.9767 32.6903 38.2803 31.9628C38.3607 31.7707 38.4769 31.601 38.5751 31.4178C38.6645 31.266 38.727 31.1052 38.8253 30.9578C39.2499 30.3304 39.7913 29.7906 40.4198 29.3677C40.7325 29.1578 41.0719 28.9746 41.4248 28.8272C41.7375 28.6932 42.0724 28.5994 42.4119 28.5235C42.4566 28.5146 42.4878 28.4922 42.528 28.4833H42.537C42.6397 28.461 42.7469 28.452 42.8541 28.4342C43.14 28.3895 43.4214 28.3672 43.7206 28.3627ZM6.04957 32.1459C6.0123 32.1456 5.97504 32.1471 5.93791 32.1504C5.67224 32.1723 5.42175 32.2832 5.227 32.4653C5.03226 32.6473 4.90465 32.8897 4.86486 33.1533C4.82506 33.4169 4.8754 33.6862 5.00773 33.9176C5.14006 34.149 5.34663 34.3289 5.59398 34.4283L10.0516 36.3043C10.195 36.3644 10.3489 36.3957 10.5044 36.3963C10.6599 36.397 10.814 36.367 10.9579 36.3081C11.1018 36.2492 11.2328 36.1626 11.3432 36.0531C11.4536 35.9436 11.5414 35.8134 11.6015 35.67C11.6616 35.5266 11.6929 35.3728 11.6936 35.2173C11.6943 35.0617 11.6643 34.9076 11.6054 34.7637C11.5465 34.6198 11.4598 34.4889 11.3503 34.3785C11.2408 34.268 11.1107 34.1802 10.9673 34.1201L6.50963 32.2442C6.36439 32.181 6.20795 32.1475 6.04957 32.1459ZM47.4681 41.6463L49.5852 48.0871C49.6365 48.2347 49.6574 48.3912 49.6467 48.5472C49.636 48.7031 49.594 48.8553 49.5231 48.9946C49.4522 49.1339 49.3539 49.2575 49.2341 49.3579C49.1143 49.4583 48.9754 49.5334 48.8259 49.5789C48.6789 49.6316 48.5227 49.6539 48.3668 49.6444C48.2109 49.6349 48.0586 49.5938 47.919 49.5237C47.7795 49.4535 47.6557 49.3557 47.5552 49.2362C47.4546 49.1167 47.3794 48.978 47.3341 48.8285L45.2258 42.4056C46.0209 42.2582 46.7713 42.0036 47.4681 41.6463Z" fill="#B92E2D"/>
</svg>
