<svg width="64" height="63" viewBox="0 0 64 63" fill="none" xmlns="http://www.w3.org/2000/svg">
<path d="M42.9048 34.0527C42.8825 33.8467 42.6345 33.7962 42.3857 33.8183C42.3082 33.8247 42.1393 34.0305 42.0773 34.0434C41.9564 34.0685 42.0033 33.9317 41.8691 33.9713C41.8237 33.9853 41.547 34.3023 41.5062 34.3102C41.2847 34.3514 41.2744 34.1902 41.1196 34.162C40.3568 34.0236 39.8011 33.6925 39.2084 33.3721C39.0133 33.2662 38.5609 33.3534 38.5226 33.0801C38.5184 33.0479 38.7893 32.7977 38.8073 32.7727C39.0812 32.3892 38.5742 32.9342 38.469 32.9689C38.0529 33.1053 37.8724 32.9734 37.8374 32.7378C37.8232 32.6368 38.3975 32.1758 38.0496 32.409C38.026 32.4247 37.7644 32.7165 37.7192 32.7303C37.6171 32.7611 37.5985 32.6439 37.5488 32.6382C37.4517 32.6286 37.4457 32.617 37.3919 32.5697C37.316 32.5075 37.0964 32.5634 37.0847 32.4266C37.0831 32.3966 37.3872 32.1333 37.4101 32.0597C37.4329 31.9862 37.3419 31.9437 37.2526 31.9882C37.1633 32.0327 36.9504 32.2657 36.8954 32.3129C36.4321 32.7123 36.9509 32.0367 36.9557 32.012C37.0253 31.5789 36.5299 31.7647 36.3604 31.5939C36.2325 31.4635 36.2062 31.2131 36.0677 31.1059C35.9016 30.9793 35.6238 31.0094 35.5077 30.841C35.4951 30.8235 35.8456 30.5069 35.8309 30.485C35.6745 30.2517 35.4444 30.095 35.0253 30.127C34.983 30.1305 34.7159 30.4489 34.6561 30.47C34.2967 30.5924 33.5311 30.9837 34.7328 29.6358C34.6023 29.6052 34.453 29.5591 34.1242 29.7446C33.9126 29.8639 33.6394 30.2286 33.7181 30.0352C33.7354 29.992 34.031 29.7288 34.036 29.6851C34.0566 29.5015 33.8769 29.5038 33.9404 29.2789C33.954 29.2325 34.2083 28.9861 34.2486 28.9364C34.5739 28.5317 33.9066 29.0716 33.8487 29.1014C33.4145 29.3216 33.4641 29.1142 33.3556 29.022C33.3303 29.0008 33.6935 28.6914 33.6812 28.6588C33.6129 28.4946 33.4634 28.4035 33.2006 28.4394C33.1413 28.4482 32.8787 28.7584 32.8358 28.7773C32.6499 28.8571 33.1779 28.3033 33.01 28.3694C32.9753 28.3826 32.7367 28.6343 32.7079 28.6594C32.2551 29.0522 32.8261 28.4254 32.8314 28.4042C32.9114 28.1233 32.2232 28.6859 32.2147 28.5006C32.2143 28.4778 32.5501 28.193 32.53 28.148C32.3984 27.8459 32.0837 27.7025 31.6211 27.737C31.5496 27.742 31.3408 27.9992 31.31 28.0259C30.8277 28.4416 31.4059 27.8168 31.4176 27.7833C31.4944 27.5343 30.9106 27.9597 31.5672 27.1837C30.9551 27.0702 30.9942 26.3061 29.9926 26.5895C29.9806 26.5924 29.6932 26.8974 29.6705 26.9019C29.3942 26.9587 29.8749 26.5185 30.3639 25.8817C30.4866 25.7217 29.7522 26.3471 29.6975 26.3921C29.4962 26.5581 29.0751 27.0183 29.0336 27.0479C28.7049 27.278 30.1677 25.8258 30.1007 25.7582C30.0962 25.7586 29.8373 26.0362 29.8051 26.0573C29.7039 26.1237 29.7929 25.9995 29.6835 26.0749C29.4309 26.2498 28.7101 26.9454 29.0614 26.4726C29.1071 26.4114 29.9439 25.5947 29.8447 25.5739C29.8045 25.5663 29.7125 25.4463 29.6293 25.4704C29.5462 25.4944 29.3007 25.7816 29.287 25.7911C28.8554 26.0643 28.74 26.2408 28.1794 26.7234C27.6207 27.2041 28.8687 25.9735 28.9904 25.8186C29.1116 25.6641 28.7628 25.8968 28.6476 25.9837C28.5323 26.0706 28.3813 26.2582 28.3114 26.3027C27.8534 26.5925 28.888 25.6492 29.0563 25.4243C29.4551 24.8918 28.4864 25.7614 28.3361 25.7914C28.2954 25.7995 28.5177 25.6031 28.5227 25.569C28.5396 25.4366 28.2187 25.6894 28.4155 25.3605C28.4475 25.3069 28.9459 24.7004 28.5069 25.0725C28.4436 25.1262 28.2289 25.3695 28.1531 25.3964C28.0395 25.4369 27.9234 25.4212 27.9603 25.3051C27.9877 25.2194 28.3977 24.8745 28.244 24.9554C28.1755 24.9917 27.9854 25.2429 27.875 25.2925C27.7648 25.3422 27.6965 25.2549 27.6745 25.2177C27.6527 25.1804 27.9546 24.9098 27.9714 24.8881C28.0672 24.763 28.1482 24.5681 28.1428 24.5634C27.9245 24.2762 27.2095 24.5271 27.1224 24.1216C27.1152 24.0902 27.4293 23.8006 27.4313 23.7927C27.4913 23.6 26.7425 24.4561 26.4282 24.6792C27.0462 24.0721 26.9082 24.156 26.9286 24.0423C26.9389 23.9869 27.1879 23.7615 27.2101 23.7351C27.5363 23.341 27.0487 23.7841 26.9477 23.8735C26.5761 24.2023 26.9651 23.7639 26.7164 23.9834C26.4696 24.2012 26.1604 24.5807 26.1201 24.5317C26.3264 24.2995 26.9315 23.7584 26.9902 23.6315C27.2127 23.1519 26.5248 23.3641 26.3751 23.3083C26.2257 23.2526 26.2329 23.179 26.0939 23.1987C25.8426 23.2344 26.3066 22.848 26.4336 22.586C26.5604 22.3239 25.5491 23.4047 25.315 23.6203C25.0812 23.8361 25.3017 23.5939 25.1666 23.7059C25.0315 23.8179 24.9044 23.9966 24.8304 24.0154C24.7564 24.0342 25.0796 23.558 25.3044 23.3126C25.7808 22.7928 26.3368 22.303 26.08 22.4139C26.0649 22.4206 25.8041 22.7099 25.7602 22.7216C25.4204 22.8058 25.2739 22.6861 24.9587 22.7459C24.9149 22.7546 24.6253 23.0769 24.5964 23.0854C24.2941 23.175 24.8473 22.6961 25.3607 22.0635C24.6126 22.8408 24.1145 23.2761 24.0288 23.1998C23.9771 23.1542 24.318 22.8287 24.5207 22.5621C24.5819 22.4817 24.3191 22.6765 24.4692 22.5133C24.9597 21.9797 25.5644 21.4377 25.2529 21.583C25.2384 21.5903 24.9703 21.8828 24.9407 21.8871C24.7478 21.9168 25.2726 21.3703 25.2487 21.2171C25.2301 21.0969 24.7805 21.3011 24.6484 21.2755C23.7942 22.1364 23.9155 21.8652 24.4753 21.2426C24.3998 21.2158 24.3777 21.127 24.2465 21.1595C24.2016 21.1704 23.9651 21.4303 23.9361 21.4551C23.4831 21.8438 24.0349 21.2453 24.0463 21.2116C24.145 20.8724 23.6121 21.2117 23.9227 20.6707C23.934 20.6513 24.5219 20.0479 24.0572 20.4531C24.0253 20.4812 23.7926 20.7904 23.7178 20.7577C23.6429 20.7251 23.2226 20.9438 23.4232 20.5926C23.4714 20.508 23.9082 19.9779 23.4944 20.3198C23.4382 20.3663 23.2731 20.5428 23.1711 20.631C22.846 20.9118 23.4344 20.2961 22.897 20.7818C22.3597 21.2675 21.9215 21.5956 22.1982 21.1669C22.206 21.1542 22.6644 20.6583 22.6331 20.6422C22.5828 20.6169 22.4298 20.6629 22.3933 20.6204C22.376 20.5998 22.6839 20.315 22.686 20.3063C22.7244 20.0131 22.37 20.1874 22.1192 20.1663C22.0726 20.1631 22.404 19.6866 22.0367 19.9584C21.6345 20.2559 20.2372 21.7679 20.4609 21.2988C20.5499 21.1108 22.3295 19.1995 21.2866 20.0693C21.3512 19.6607 20.7039 19.9927 20.8692 19.4821C20.8765 19.4594 21.3661 18.9189 21.3408 18.9077C21.3024 18.8922 21.0473 19.1187 21.0121 19.1153C20.8589 19.1074 20.9904 18.8272 20.8804 18.7816C20.8391 18.7638 20.6011 19.0235 20.5518 19.0023C20.5029 18.9808 20.8065 18.6289 20.6007 18.7399C20.4441 18.8248 19.7392 19.4601 19.6133 19.4906C20.2711 18.8266 20.2246 18.8074 20.3402 18.5743C20.3627 18.5292 20.6043 18.3107 20.6268 18.2775C20.7235 18.1371 20.5132 18.3082 20.6214 18.1584C20.6473 18.1223 20.8724 17.896 20.9063 17.8537C21.2032 17.486 20.6392 17.9376 20.5411 18.0164C20.1684 18.3152 20.4437 18.0035 20.2828 18.1071C20.122 18.2108 20.0003 18.4194 19.8865 18.4661C19.6509 18.5627 19.5974 18.4366 19.516 18.3762C19.4849 18.3507 19.805 18.0681 19.8075 18.0575C19.8251 17.9225 19.446 18.1846 20.0125 17.5509C18.4232 19.0651 20.1273 17.3649 19.7335 17.5927C19.7018 17.6113 18.9611 18.3381 18.8789 18.4713C18.7969 18.6044 19.0642 18.4128 18.9318 18.6161C18.9008 18.6639 18.2622 19.4003 18.2271 19.4485C17.9532 19.8254 19.0548 18.734 19.1176 18.6763C19.7969 18.0556 19.1159 18.8558 19.0801 18.9224C18.9163 19.2273 19.1298 19.1322 19.0215 19.3584C18.9519 19.5051 18.2388 20.2285 18.2909 20.2365C18.4636 20.2636 19.4987 19.2945 18.726 20.2591C18.5614 20.4649 17.7577 21.2314 18.4464 20.6852C18.4898 20.6508 19.1073 20.1386 18.782 20.5275C18.7409 20.5766 18.5124 20.8057 18.4984 20.8301C18.4089 20.9891 18.6139 20.8294 18.5644 20.9544C18.5149 21.0793 18.4303 21.2548 18.5507 21.2199C18.6229 21.1992 19.0816 20.8052 19.1982 20.713C19.5332 20.4467 19.0788 20.9779 19.4639 20.6348C19.8509 20.29 20.3627 19.6907 20.656 19.5109C20.0649 20.1086 19.4609 20.7248 18.8677 21.3271C19.0143 21.4314 19.3298 21.362 19.4297 21.5139C19.4415 21.5334 19.1066 21.8376 19.111 21.8667C19.131 21.988 19.4202 21.8213 19.403 21.9853C19.3884 22.1134 19.113 22.5144 19.0873 22.6589C19.8024 22.0136 19.66 22.3327 19.7861 22.3341C19.8299 22.335 20.0097 22.1514 20.0848 22.1079C20.3637 21.9482 19.7357 22.5224 19.6577 22.6336C19.3256 23.1085 20.6894 21.7515 20.7393 21.8682C20.7424 21.874 20.0726 22.6543 20.035 22.707C19.7884 23.0491 20.2947 22.4619 20.3778 22.4377C20.5295 22.3934 20.7399 22.2572 20.5913 22.5332C20.547 22.6146 20.1402 23.1117 20.525 22.7971C20.5754 22.7559 20.812 22.5132 20.8298 22.5029C21.1322 22.3369 20.3822 23.0934 20.167 23.3881C19.9517 23.6828 20.5314 23.2223 20.6933 23.0845C21.1125 22.7283 20.8339 22.8938 20.8701 22.854C21.3013 22.3799 21.2678 22.5021 21.3398 22.4975C22.0818 21.7624 22.0849 21.854 21.4115 22.4956C21.3379 22.5656 21.3803 22.4704 21.3398 22.4975C20.6464 23.253 20.6058 23.3978 21.339 22.7766C21.6826 22.4854 22.0265 22.0894 21.973 22.3063C21.9491 22.4045 21.4273 22.8997 21.3216 23.0712C21.0806 23.4625 21.6511 23.084 21.6536 23.2356C21.6545 23.2906 21.3494 23.5424 21.3405 23.5896C21.3158 23.7158 21.5689 23.5511 21.5131 23.709C21.5077 23.7237 21.2056 24.0044 21.2177 24.0239C21.304 24.1774 21.5948 24.0945 21.7253 24.2142C21.7882 24.2721 21.7361 24.541 21.8311 24.5711C21.994 24.6251 22.5507 24.3338 22.5408 24.5295C22.5357 24.6558 22.2315 24.9346 22.0593 25.1594C21.7252 25.5949 22.502 24.9925 22.6205 24.8974C22.6244 24.8942 22.6408 24.7735 22.818 24.6513C23.1452 24.3551 22.6213 24.8955 22.6205 24.8974C22.6972 24.8361 22.8673 24.8736 22.8324 24.95C22.8133 24.9917 22.5314 25.2621 22.5266 25.2786C22.4193 25.6649 22.4887 25.8742 22.7588 25.8855C22.7669 25.8824 23.0714 25.5692 23.0865 25.5658C23.3053 25.5096 22.9806 25.9403 22.8241 26.2323C22.6678 26.5241 22.7962 26.5021 23.3653 26.0106C23.3495 26.1282 23.6565 25.9661 23.8404 25.8654C24.0244 25.7647 23.4302 26.3729 23.4221 26.3885C23.1577 26.8845 23.5677 26.6061 23.7408 26.6715C23.8241 26.7016 23.8498 26.9013 23.8458 27.0285C23.8416 27.1301 24.0115 27.0181 23.9664 27.153C23.9605 27.1711 23.6872 27.4332 23.6787 27.4454C23.4091 27.8161 24.0382 27.1365 24.1652 27.0297C24.6268 26.6411 24.8759 26.4374 24.7404 26.7015C24.7095 26.7621 23.8121 27.7491 23.7841 27.8311C23.7493 27.9361 24.0732 27.5845 24.0282 27.703C24.0246 27.7128 23.816 27.921 23.8478 27.9343C23.9927 27.999 24.2283 27.9916 24.3166 28.1213C24.3295 28.1382 23.9805 28.4503 23.9937 28.4802C24.0557 28.6201 24.1787 28.7183 24.4316 28.6614C24.4949 28.6464 24.7106 28.3994 24.7845 28.3358C25.2317 27.9514 24.6747 28.6023 24.6707 28.6213C24.5614 29.0918 25.245 28.6816 25.1691 29.1255C25.1638 29.1508 24.5946 29.8763 25.1832 29.3541C25.2224 29.3194 25.8235 28.784 25.4658 29.2032C25.4435 29.2294 25.1303 29.5013 25.1971 29.5083C25.2637 29.5153 25.1283 29.7703 25.4998 29.4989C25.617 29.4135 26.2207 28.8835 25.8177 29.384C25.7894 29.4187 24.8439 30.5161 25.5738 29.8362C25.6939 29.7242 26.4338 28.9724 26.1094 29.4126C26.0464 29.4978 25.8605 29.6447 25.7856 29.7775C25.67 29.982 25.9279 29.8401 25.6506 30.2271C25.6013 30.2955 25.1364 30.8429 25.5522 30.4901C25.6173 30.4349 25.8562 30.1758 25.9011 30.1649C26.1158 30.1118 26.0345 30.3634 26.289 30.2729C26.3786 30.2414 26.7654 29.8231 26.9035 29.7454C27.0416 29.6677 27.2065 29.6248 27.0548 29.8409C26.9029 30.057 26.2278 30.6652 26.2243 30.7642C26.2093 31.1943 26.7905 31.022 27.0527 31.1732C27.0916 31.1956 26.837 31.4002 26.8779 31.4497C27.0279 31.6332 27.1013 32.136 27.7331 31.7916C28.2392 31.5158 28.39 31.0722 28.6374 31.0012C28.7559 30.9679 28.0577 31.7614 28.0446 31.7952C27.9075 32.1348 28.3075 31.8736 28.2971 32.0657C28.2949 32.1055 27.9748 32.3901 27.9762 32.4206C27.9784 32.5274 28.1704 32.4493 28.1979 32.526C28.2096 32.5611 27.9748 32.7881 28.0141 32.7917C28.1055 32.8029 28.2479 32.751 28.5141 32.5842C28.5383 32.569 28.7942 32.2505 28.8429 32.2777C28.921 32.3226 29.2106 32.1849 29.0615 32.4765C29.0164 32.5639 28.4905 33.0935 28.8995 32.7734C28.9849 32.7066 29.6053 32.0596 29.1115 32.6607C29.0296 32.7607 28.381 33.5888 28.8996 33.1551C29.0361 33.041 29.5829 32.5506 29.5269 32.6574C29.5173 32.6739 29.2206 32.9442 29.214 32.9928C29.1956 33.1591 29.3032 33.206 29.2906 33.3706C29.2866 33.4151 28.9637 33.6789 28.9671 33.7359C28.9762 33.8929 29.1545 33.9215 29.3274 33.9104C29.3917 33.9058 29.6135 33.6417 29.6421 33.6174C30.1064 33.2214 29.5478 33.8237 29.5256 33.8692C29.3957 34.1444 29.7229 33.926 29.7176 34.0648C29.7169 34.1023 29.4276 34.3667 29.4066 34.3951C29.2039 34.6745 29.6717 34.1483 29.7505 34.1173C29.9727 34.029 30.0257 34.1261 30.0585 34.2294C30.0702 34.2678 29.7217 34.5614 29.7359 34.5921C29.8136 34.7799 29.9825 34.8869 30.2889 34.8388C30.3471 34.8292 30.5784 34.5663 30.6399 34.5148C31.0691 34.154 30.5829 34.745 30.5435 34.8082C30.3635 35.0966 30.6025 34.8984 30.6094 34.9866C30.6388 35.4214 31.0699 35.5619 31.3784 35.6906C31.7788 35.8598 32.2351 35.845 32.4465 36.1774C32.4602 36.1982 32.1146 36.5103 32.1222 36.5324C32.2358 36.8037 32.5536 36.8639 32.6519 37.1513C32.6605 37.1743 32.3266 37.4639 32.33 37.5113C32.3349 37.6108 32.4178 37.6596 32.5699 37.6124C32.6434 37.59 32.8759 37.2876 32.9445 37.2705C33.1049 37.2301 33.1916 37.2722 33.2037 37.3839C33.2081 37.4322 32.8502 37.712 32.8808 37.7498C33.0825 38.0138 33.2568 38.297 33.9045 38.1183C33.949 38.1059 34.6098 37.4709 34.5201 37.6296C34.3432 37.8124 34.132 38.0242 33.9413 38.2178C34.1776 38.6598 34.7379 38.7696 35.1131 39.074C35.1288 39.0869 34.7614 39.4062 34.7901 39.4329C34.9561 39.5881 35.0174 39.839 35.5225 39.661C35.5721 39.6439 36.1665 39.0304 36.1234 39.1699C36.1153 39.195 36.1074 39.3479 35.9953 39.4979C35.9781 39.5203 35.6835 39.7896 35.6987 39.821C35.7917 39.9991 35.9981 40.0763 36.3055 40.0387C36.3556 40.0321 36.6319 39.7081 36.6702 39.7008C36.9397 39.6512 36.8322 39.9995 37.2097 39.8316C37.4635 39.7181 37.9553 39.1721 38.5026 38.6978C38.5798 38.6308 38.635 38.663 38.9338 38.3675C39.6855 37.6246 40.4809 36.7836 41.2846 35.9942C41.4577 35.8241 41.3318 36.0676 41.7109 35.6177C41.7362 35.5875 41.8311 35.4073 41.961 35.256C42.0507 35.1513 42.3655 34.8615 42.4749 34.722C42.5841 34.5826 42.3149 34.8202 42.4363 34.6491C42.5594 34.4762 42.9134 34.1425 42.9048 34.0527ZM24.6641 25.4168C24.9911 25.1663 23.9414 26.2315 24.1519 25.9361C24.1633 25.9206 24.6479 25.429 24.6641 25.4168ZM20.1251 20.5621C20.6415 20.1454 19.9918 20.8672 19.5964 21.1924C19.2014 21.5172 19.9685 20.6883 20.1251 20.5621ZM19.9378 19.6957C20.3642 19.3865 18.877 20.8982 19.1159 20.5311C19.1293 20.5102 19.913 19.7137 19.9378 19.6957ZM38.4736 38.3786C38.4882 38.3651 38.5333 38.3827 38.5202 38.3974C38.2017 38.7506 38.1117 38.7151 38.4736 38.3786ZM19.7846 18.8031C20.0056 18.6183 19.8253 18.9062 19.5505 19.1359C19.3294 19.3207 19.5096 19.0329 19.7846 18.8031ZM27.8193 26.307C27.8356 26.2918 27.8723 26.3 27.7829 26.3888C27.4951 26.6748 27.5445 26.5624 27.8193 26.307ZM18.9126 17.9C19.1003 17.9743 20.4162 16.8126 20.1336 16.8101C20.0825 16.8097 19.7952 17.2615 19.6508 17.3406C19.3874 17.4843 20.1236 16.6651 19.646 17.0214C19.5588 17.0867 18.8991 17.8985 18.9111 17.902C18.9116 17.9013 18.9121 17.9007 18.9126 17.9ZM25.9541 24.1665C25.9689 24.1533 26.0133 24.1711 26.0002 24.1857C25.6821 24.5389 25.5923 24.5032 25.9541 24.1665ZM29.7875 26.9625C29.819 26.9343 29.9192 26.9786 29.8942 27.0084C29.3841 27.5961 29.1798 27.5083 29.7875 26.9625ZM24.6243 21.2972C24.9273 20.9249 24.9263 20.8445 24.4759 21.2424C24.5322 21.2535 24.5696 21.2841 24.6243 21.2972ZM63.8829 23.4116C64.0056 23.2738 63.8569 23.1105 63.6587 22.9913C63.5973 22.9539 63.3338 22.9894 63.2794 22.9642C63.1734 22.915 63.3003 22.8565 63.1747 22.809C63.1318 22.7934 62.7139 22.8394 62.6785 22.8224C62.4874 22.7294 62.5886 22.6254 62.4936 22.5256C62.025 22.0338 61.839 21.535 61.6186 21.0229C61.5463 20.854 61.1541 20.6659 61.3104 20.4785C61.329 20.4566 61.6977 20.4482 61.7278 20.4426C62.1885 20.3544 61.4469 20.4169 61.3459 20.3819C60.9472 20.2431 60.9033 20.0663 61.0366 19.9036C61.0944 19.8343 61.8288 19.8592 61.4149 19.816C61.387 19.8129 60.9972 19.8516 60.9545 19.8359C60.8585 19.8003 60.9239 19.7187 60.8912 19.6887C60.8261 19.6311 60.8295 19.6207 60.8218 19.5631C60.8078 19.4846 60.6083 19.4015 60.6921 19.3117C60.7111 19.2925 61.113 19.2939 61.1795 19.2612C61.2459 19.2285 61.2077 19.154 61.1118 19.1335C61.0159 19.113 60.7017 19.1417 60.6293 19.1412C60.0182 19.138 60.8567 19.0021 60.8769 18.9895C61.2207 18.7621 60.7301 18.6112 60.7205 18.4164C60.7143 18.2685 60.864 18.1015 60.8343 17.962C60.7974 17.796 60.5724 17.6662 60.6005 17.5013C60.6031 17.4839 61.0751 17.4775 61.0791 17.4562C61.1214 17.2302 61.0576 17.0117 60.7272 16.8076C60.6936 16.7872 60.2818 16.8391 60.2235 16.8201C59.8761 16.703 59.0477 16.5335 60.8433 16.3513C60.7678 16.263 60.6889 16.1551 60.3213 16.093C60.0848 16.053 59.6373 16.13 59.8258 16.0538C59.8678 16.0367 60.2633 16.0336 60.2965 16.0096C60.4356 15.9084 60.3017 15.8139 60.5003 15.7104C60.5416 15.6892 60.8954 15.6745 60.9587 15.6656C61.4717 15.5919 60.6154 15.5657 60.5526 15.553C60.0839 15.4557 60.2606 15.3555 60.2428 15.2413C60.2385 15.2148 60.715 15.2196 60.7279 15.1931C60.7885 15.0563 60.7399 14.9209 60.5219 14.8026C60.4723 14.7763 60.0694 14.8257 60.025 14.8143C59.8341 14.7639 60.5972 14.7073 60.4288 14.6581C60.3943 14.6477 60.0485 14.6741 60.0104 14.674C59.4115 14.6724 60.2555 14.5942 60.2737 14.584C60.5223 14.4551 59.6353 14.4315 59.7541 14.3138C59.7692 14.2996 60.209 14.3048 60.2246 14.2666C60.3316 14.0118 60.1965 13.7562 59.8323 13.5304C59.7762 13.4953 59.4487 13.5411 59.408 13.5409C58.772 13.5375 59.6198 13.4643 59.6511 13.4501C59.8758 13.3389 59.1584 13.2873 60.1662 13.1636C59.7917 12.7675 60.3365 12.3216 59.407 11.9602C59.3962 11.9555 58.9785 11.9885 58.9588 11.9791C58.7168 11.8664 59.3683 11.8539 60.1586 11.7258C60.357 11.6936 59.3936 11.6838 59.3229 11.6821C59.0625 11.6761 58.4414 11.7325 58.3908 11.7284C57.9933 11.6935 60.0517 11.587 60.048 11.51C60.0445 11.5078 59.6662 11.5392 59.6282 11.5349C59.5089 11.5214 59.6582 11.4931 59.5268 11.4808C59.2225 11.4528 58.2217 11.4931 58.7998 11.3917C58.8748 11.3787 60.0429 11.3263 59.9839 11.2607C59.9593 11.2346 59.9725 11.1122 59.895 11.0825C59.8175 11.0528 59.4426 11.0973 59.4262 11.0958C58.9237 11.0323 58.7195 11.0786 57.9805 11.0742C57.2442 11.0697 58.9948 10.9839 59.189 10.9542C59.3827 10.9246 58.9685 10.8806 58.8249 10.8722C58.6813 10.8637 58.4434 10.8977 58.3618 10.8876C57.8286 10.8202 59.2279 10.7961 59.5039 10.7485C60.1572 10.636 58.8562 10.6503 58.7252 10.5884C58.6898 10.5717 58.9862 10.5703 59.0129 10.5521C59.1148 10.4802 58.7076 10.4634 59.0747 10.3675C59.1345 10.3518 59.9112 10.2473 59.3365 10.2403C59.2536 10.2394 58.9311 10.2734 58.8571 10.2494C58.746 10.2136 58.6711 10.1419 58.7767 10.0908C58.8548 10.053 59.3897 10.0611 59.2219 10.0285C59.1469 10.0141 58.8371 10.0661 58.7223 10.0375C58.6075 10.009 58.6162 9.91926 58.6251 9.88479C58.6342 9.85036 59.0394 9.84611 59.0665 9.84185C59.2215 9.81653 59.4128 9.74068 59.412 9.73497C59.445 9.443 58.7487 9.21468 58.9583 8.92042C58.9742 8.89736 59.4013 8.88808 59.4081 8.88432C59.5824 8.79862 58.4525 8.92207 58.0703 8.89058C58.9356 8.84952 58.7772 8.82714 58.8691 8.76852C58.9141 8.74023 59.2498 8.73535 59.2839 8.73108C59.7904 8.66436 59.1319 8.67484 58.9971 8.67558C58.5013 8.6782 59.0839 8.61786 58.7525 8.61931C58.4235 8.62063 57.9395 8.68748 57.9428 8.63602C58.2516 8.60426 59.0629 8.59664 59.1918 8.55046C59.6796 8.37614 59.0294 8.13863 58.9568 8.02463C58.8843 7.91087 58.9393 7.86972 58.8235 7.80757C58.6143 7.69532 59.2171 7.70683 59.4876 7.61458C59.758 7.52212 58.2831 7.64271 57.9649 7.64952C57.6469 7.65653 57.973 7.62627 57.7977 7.62258C57.6225 7.61893 57.4083 7.66025 57.341 7.63225C57.2738 7.60423 57.8335 7.48578 58.1649 7.45584C58.867 7.39249 59.6074 7.38997 59.3433 7.3207C59.3276 7.31674 58.9401 7.35427 58.8998 7.338C58.5926 7.20812 58.5654 7.05674 58.2928 6.92509C58.2546 6.90703 57.8236 6.94937 57.7965 6.93913C57.5133 6.83255 58.2443 6.8352 59.0498 6.72269C57.9737 6.79836 57.3127 6.79843 57.3011 6.7061C57.2938 6.65061 57.7647 6.63372 58.0942 6.57901C58.1935 6.56257 57.8683 6.54133 58.0891 6.52173C58.8109 6.45746 59.6224 6.44902 59.2947 6.37159C59.2792 6.36826 58.8841 6.4039 58.8593 6.39076C58.6971 6.30594 59.4529 6.25215 59.5387 6.14576C59.6062 6.06236 59.137 5.9472 59.0569 5.86108C57.8462 5.93115 58.1186 5.8302 58.9515 5.74858C58.914 5.69186 58.9577 5.62587 58.8391 5.57569C58.7987 5.5584 58.4488 5.59096 58.4108 5.59063C57.8145 5.58637 58.6252 5.51515 58.6564 5.5007C58.9582 5.3461 58.3363 5.26899 58.9305 5.10421C58.9519 5.09834 59.7926 5.04346 59.1765 5.04304C59.134 5.04316 58.7538 5.10794 58.7207 5.04802C58.6876 4.9881 58.2302 4.89737 58.6151 4.78992C58.7078 4.76395 59.3876 4.67316 58.8518 4.66119C58.779 4.65968 58.5382 4.67938 58.4035 4.67886C57.9743 4.67683 58.8236 4.61471 58.0997 4.62468C57.3757 4.63464 56.8313 4.60125 57.3247 4.48696C57.339 4.4834 58.0117 4.42505 57.9995 4.39853C57.9795 4.35622 57.8356 4.30267 57.8375 4.25722C57.8386 4.23544 58.2578 4.22574 58.2652 4.22155C58.4915 4.06283 58.1127 3.98026 57.942 3.83348C57.9099 3.80662 58.4758 3.69236 58.0216 3.66244C57.5244 3.62949 55.4739 3.80757 55.9554 3.64038C56.1479 3.57304 58.7499 3.35501 57.394 3.32982C57.7175 3.11469 57.0163 2.97206 57.4829 2.74833C57.5036 2.73829 58.2293 2.66934 58.2183 2.64909C58.2004 2.6191 57.8595 2.62128 57.8359 2.60048C57.7283 2.51381 58.0144 2.41285 57.9641 2.32627C57.9458 2.29336 57.595 2.32498 57.573 2.28574C57.5515 2.24649 58.0128 2.19353 57.7862 2.15147C57.6135 2.11979 56.6651 2.13178 56.5517 2.0832C57.4848 2.02857 57.4634 1.99203 57.706 1.91127C57.7531 1.89572 58.0786 1.89122 58.1177 1.88293C58.2837 1.84875 58.0132 1.841 58.1941 1.80724C58.2375 1.79906 58.5562 1.78085 58.6097 1.77314C59.0768 1.70698 58.3563 1.68187 58.2308 1.67765C57.7544 1.66124 58.1677 1.61777 57.9792 1.59521C57.7907 1.57272 57.5602 1.63521 57.4447 1.60303C57.206 1.53631 57.2517 1.43074 57.2325 1.3504C57.2268 1.31824 57.6534 1.31638 57.6624 1.31122C57.7666 1.23818 57.3103 1.19594 58.1555 1.11111C55.962 1.18804 58.3657 1.05876 57.9218 0.987744C57.8859 0.982199 56.8493 1.03095 56.6988 1.06846C56.5485 1.10596 56.8748 1.13162 56.64 1.18512C56.5848 1.19776 55.6171 1.30691 55.5587 1.31765C55.1023 1.40176 56.651 1.32284 56.7362 1.32113C57.6559 1.30439 56.6137 1.42985 56.5425 1.45145C56.2158 1.5503 56.4374 1.60618 56.2048 1.68657C56.0545 1.73904 55.0406 1.80044 55.0736 1.83314C55.1826 1.94188 56.5996 1.9022 55.379 2.07919C55.1187 2.11706 54.0089 2.15647 54.8852 2.19031C54.9405 2.19243 55.7413 2.20909 55.2389 2.27306C55.1756 2.2811 54.8525 2.29915 54.8257 2.30657C54.6524 2.35593 54.9113 2.36778 54.7904 2.41772C54.6696 2.46767 54.4888 2.52973 54.6011 2.57266C54.6683 2.59857 55.2723 2.60265 55.4204 2.60852C55.8472 2.62461 55.1536 2.70669 55.669 2.70253C56.1871 2.69843 56.9689 2.6054 57.3064 2.65213C56.4672 2.70181 55.6061 2.75589 54.7622 2.80732C54.7999 2.94926 55.0792 3.07527 55.0503 3.22144C55.0458 3.23961 54.5936 3.24675 54.5772 3.26688C54.5101 3.35171 54.8357 3.40416 54.7123 3.49516C54.6151 3.56569 54.1414 3.66371 54.0248 3.7383C54.9876 3.72565 54.6672 3.84463 54.7591 3.91279C54.7908 3.93669 55.0472 3.92054 55.1319 3.93404C55.4453 3.98532 54.5948 4.00091 54.4623 4.02726C53.8968 4.14016 55.8182 4.03892 55.7761 4.13687C55.7745 4.14202 54.754 4.26137 54.6907 4.27346C54.278 4.35086 55.0476 4.26233 55.1252 4.29186C55.2669 4.34577 55.5139 4.37488 55.218 4.46415C55.1304 4.49026 54.495 4.57683 54.991 4.59002C55.0559 4.59177 55.3942 4.56974 55.4143 4.57296C55.7491 4.63292 54.6858 4.69486 54.3281 4.76004C53.9706 4.82521 54.7086 4.85323 54.921 4.85543C55.4704 4.86153 55.1533 4.81397 55.2069 4.80894C55.8448 4.74946 55.7376 4.80623 55.7938 4.84184C56.8368 4.78872 56.7773 4.8463 55.8478 4.87899C55.7463 4.88247 55.8418 4.84692 55.7938 4.84184C54.7726 4.93337 54.6449 5.00014 55.6047 5.01192C56.0545 5.01739 56.5753 4.95895 56.3894 5.06299C56.3055 5.11019 55.5866 5.13426 55.393 5.18264C54.9512 5.29314 55.6272 5.36635 55.5266 5.46028C55.4901 5.49438 55.0953 5.48539 55.0568 5.50946C54.9534 5.57339 55.2512 5.60787 55.1034 5.67455C55.0895 5.68062 54.6774 5.6909 54.6732 5.70929C54.6331 5.84913 54.9033 5.95371 54.9187 6.09648C54.9259 6.16548 54.706 6.30194 54.7557 6.37105C54.8393 6.49095 55.4461 6.61007 55.3068 6.72437C55.2177 6.79881 54.8053 6.80681 54.5266 6.85224C53.9864 6.94007 54.9655 6.98655 55.117 6.99171C55.1221 6.99184 55.2157 6.92683 55.4287 6.94671C55.8699 6.9404 55.1189 6.99093 55.117 6.99171C55.2149 6.99518 55.315 7.10889 55.2377 7.13694C55.1954 7.1522 54.8052 7.16697 54.7905 7.17451C54.4506 7.35323 54.3605 7.51818 54.5518 7.66926C54.5599 7.67166 54.9957 7.64282 55.0092 7.64877C55.2083 7.73126 54.6782 7.8211 54.3658 7.91598C54.0536 8.01083 54.163 8.06594 54.9142 8.06939C54.8233 8.13281 55.1589 8.19756 55.3625 8.23423C55.566 8.2709 54.7175 8.3254 54.7009 8.33056C54.1712 8.49249 54.6614 8.54125 54.7447 8.6736C54.7858 8.73644 54.6699 8.8722 54.581 8.94775C54.5094 9.00754 54.7102 9.02982 54.5859 9.08819C54.5693 9.09608 54.1909 9.11036 54.1765 9.11329C53.7275 9.19591 54.6499 9.11642 54.8156 9.11892C55.4181 9.12791 55.7392 9.13635 55.4611 9.22543C55.3974 9.24595 54.0697 9.37004 53.9936 9.40519C53.8972 9.45076 54.3732 9.40881 54.26 9.45721C54.2508 9.46132 53.9565 9.47714 53.971 9.50227C54.0341 9.61911 54.2126 9.74032 54.1902 9.8667C54.1882 9.88391 53.7204 9.88834 53.7099 9.91362C53.6611 10.0322 53.6855 10.1579 53.9102 10.2581C53.967 10.2827 54.2928 10.2469 54.3901 10.2475C54.9792 10.2513 54.1292 10.3517 54.1135 10.3612C53.7152 10.5903 54.496 10.7046 54.1403 10.9352C54.1194 10.9479 53.21 11.0874 53.9964 11.0825C54.0487 11.0822 54.8531 11.0759 54.3065 11.1411C54.2724 11.1452 53.858 11.1442 53.9024 11.1841C53.9468 11.2239 53.6748 11.3074 54.1319 11.3399C54.2759 11.3503 55.0786 11.3486 54.4438 11.4394C54.3994 11.4455 52.9617 11.6113 53.9587 11.5855C54.1228 11.5812 55.1757 11.5167 54.6394 11.6126C54.5354 11.631 54.2992 11.6215 54.1544 11.6627C53.9311 11.7259 54.217 11.7769 53.7513 11.8653C53.6688 11.8808 52.9566 11.9671 53.5012 11.9735C53.5865 11.9745 53.9375 11.9437 53.978 11.961C54.172 12.0431 53.9422 12.1535 54.1908 12.234C54.2782 12.2626 54.8456 12.2135 54.9999 12.2397C55.1541 12.2659 55.3046 12.3277 55.0469 12.3787C54.789 12.4298 53.8809 12.441 53.8115 12.4996C53.51 12.7544 54.0546 12.9593 54.1457 13.1917C54.1593 13.2261 53.8335 13.2153 53.8302 13.2674C53.8169 13.4595 53.5315 13.8059 54.2296 13.9327C54.7888 14.0342 55.1994 13.8437 55.4296 13.9324C55.5394 13.9753 54.4892 14.0875 54.4567 14.1012C54.1264 14.2354 54.5975 14.2893 54.4602 14.4012C54.4317 14.4243 54.0036 14.4273 53.9841 14.4467C53.9135 14.5132 54.1078 14.568 54.0763 14.6295C54.0612 14.6571 53.7348 14.6705 53.7614 14.6937C53.8212 14.7493 53.9611 14.7936 54.2699 14.8338C54.2981 14.8374 54.7017 14.7794 54.7192 14.822C54.7464 14.8911 55.0528 14.9616 54.7461 15.0601C54.6538 15.0895 53.9087 15.1324 54.4262 15.1551C54.5343 15.1598 55.4283 15.0956 54.6585 15.1994C54.5306 15.2167 53.4935 15.3766 54.1685 15.3883C54.3462 15.3915 55.0802 15.3837 54.9668 15.4191C54.9486 15.424 54.5475 15.4308 54.5098 15.457C54.3839 15.5488 54.4316 15.6349 54.3112 15.7287C54.2782 15.7538 53.8621 15.7426 53.8262 15.7792C53.7268 15.8801 53.839 15.9926 53.9738 16.0782C54.0243 16.1097 54.3661 16.0667 54.4036 16.0671C55.0131 16.0729 54.1947 16.1428 54.1477 16.1588C53.8662 16.2575 54.2547 16.2988 54.1571 16.3807C54.1312 16.4033 53.7396 16.4104 53.7049 16.4165C53.3669 16.4791 54.067 16.4073 54.1459 16.4304C54.3693 16.495 54.3427 16.5826 54.2971 16.6633C54.2798 16.6929 53.8248 16.6863 53.8145 16.7126C53.745 16.8689 53.7973 17.0244 54.0554 17.1586C54.1049 17.1838 54.4529 17.1466 54.5329 17.1479C55.0928 17.1566 54.3355 17.2582 54.2638 17.2758C53.9364 17.3559 54.2464 17.3624 54.1918 17.4199C53.92 17.7013 54.1428 18.0172 54.2832 18.2605C54.464 18.5776 54.8103 18.812 54.7416 19.128C54.7377 19.148 54.2723 19.1542 54.2629 19.1718C54.1634 19.3982 54.357 19.6046 54.2354 19.8327C54.2262 19.8513 53.7846 19.85 53.7551 19.8808C53.6915 19.9442 53.7197 20.0183 53.8636 20.0706C53.933 20.0962 54.3084 20.0355 54.3705 20.0617C54.516 20.1225 54.5515 20.1946 54.4849 20.2693C54.4556 20.3011 54.0029 20.2811 54 20.3205C53.9703 20.5895 53.9075 20.8555 54.5055 21.092C54.5466 21.1082 55.4623 21.0729 55.2891 21.122C55.0354 21.1393 54.7367 21.1559 54.4655 21.1725C54.3411 21.5686 54.6799 21.9347 54.7508 22.321C54.7537 22.3373 54.2674 22.3362 54.2705 22.3679C54.288 22.5513 54.1638 22.7373 54.6561 22.8982C54.7043 22.9142 55.5565 22.8566 55.4306 22.9188C55.4076 22.9298 55.2986 23.019 55.1147 23.0508C55.0869 23.0553 54.6881 23.0626 54.678 23.0899C54.6262 23.2484 54.7263 23.4057 54.9782 23.5468C55.0196 23.5695 55.4419 23.519 55.4751 23.535C55.7072 23.6485 55.3927 23.8039 55.7844 23.9029C56.048 23.969 56.779 23.8978 57.5026 23.9001C57.6047 23.9005 57.6236 23.9495 58.0434 23.9285C59.0989 23.8757 60.2529 23.7865 61.3781 23.7331C61.6205 23.7215 61.3633 23.8031 61.9465 23.7306C61.9855 23.7256 62.1771 23.6661 62.375 23.643C62.5118 23.6269 62.9394 23.6179 63.1142 23.591C63.2888 23.5642 62.9301 23.5656 63.135 23.5259C63.3425 23.486 63.8286 23.471 63.8829 23.4116ZM56.2722 8.39974C56.6824 8.42121 55.1897 8.51183 55.5442 8.44367C55.5631 8.44027 56.2521 8.39857 56.2722 8.39974ZM56.2054 3.01105C56.8672 3.03205 55.9011 3.12632 55.3902 3.11399C54.8798 3.10163 56.0048 3.00459 56.2054 3.01105ZM56.6523 2.38169C57.1754 2.42034 55.0587 2.55024 55.4826 2.45343C55.5066 2.44784 56.6219 2.37942 56.6523 2.38169ZM57.6968 23.6897C57.7166 23.6892 57.738 23.724 57.7184 23.726C57.2453 23.7718 57.2029 23.7021 57.6968 23.6897ZM57.1421 1.75454C57.4297 1.75961 57.1025 1.83924 56.7449 1.83296C56.4572 1.8279 56.7844 1.74821 57.1421 1.75454ZM57.9963 10.6276C58.0186 10.627 58.04 10.6517 57.9142 10.6582C57.5091 10.6793 57.6214 10.637 57.9963 10.6276ZM57.1093 0.73736C57.1974 0.882953 58.9515 0.875476 58.745 0.723149C58.7076 0.695562 58.1908 0.818343 58.031 0.789547C57.7399 0.736792 58.8355 0.629192 58.243 0.591984C58.1346 0.585313 57.1004 0.729275 57.1069 0.737764C57.1077 0.737629 57.1085 0.737494 57.1093 0.73736ZM58.0671 8.32434C58.0869 8.32412 58.1076 8.35872 58.0881 8.36068C57.6152 8.40668 57.5731 8.33698 58.0671 8.32434ZM59.0041 12.0786C59.0463 12.0782 59.0903 12.1587 59.0517 12.1636C58.279 12.2504 58.1877 12.0877 59.0041 12.0786ZM59.0245 5.86147C59.4992 5.79571 59.5527 5.74601 58.9521 5.74872C58.9861 5.78559 58.993 5.82425 59.0245 5.86147ZM29.9935 51.5181C29.815 51.4032 29.6083 51.5614 29.4587 51.7665C29.4118 51.8302 29.4616 52.0919 29.4303 52.1477C29.369 52.2566 29.2919 52.133 29.2331 52.2614C29.2138 52.3053 29.2796 52.7209 29.2584 52.7573C29.1423 52.9539 29.0075 52.8585 28.8811 52.9593C28.2588 53.4566 27.6227 53.6712 26.9702 53.9211C26.7551 54.0031 26.5204 54.4065 26.2777 54.2607C26.2494 54.2433 26.2327 53.8749 26.2249 53.8451C26.1044 53.389 26.1966 54.1276 26.1535 54.2307C25.9821 54.6377 25.7563 54.6918 25.5457 54.5677C25.456 54.5138 25.4758 53.7772 25.4273 54.194C25.4238 54.2222 25.4798 54.6101 25.4604 54.6537C25.4162 54.7518 25.3106 54.691 25.2728 54.7255C25.2 54.7939 25.1867 54.7911 25.113 54.8021C25.0127 54.8206 24.9095 55.025 24.7931 54.9463C24.7681 54.9284 24.7633 54.5261 24.7203 54.4614C24.6773 54.3967 24.5825 54.4393 24.5578 54.5364C24.5332 54.6336 24.5751 54.9464 24.5756 55.0189C24.5815 55.6308 24.3936 54.7993 24.3772 54.7798C24.0802 54.4487 23.8949 54.9483 23.6455 54.9691C23.456 54.9838 23.2396 54.8435 23.0615 54.8812C22.8493 54.9276 22.6867 55.1603 22.475 55.1415C22.4527 55.14 22.4368 54.6679 22.4094 54.6651C22.1192 54.6358 21.8403 54.7121 21.5842 55.0545C21.5585 55.0892 21.6319 55.4985 21.6084 55.5579C21.4641 55.9123 21.2605 56.7511 20.9977 54.9644C20.8858 55.045 20.7488 55.1301 20.6753 55.5015C20.6278 55.7406 20.7339 56.1841 20.6332 55.9998C20.6105 55.9587 20.6002 55.563 20.5688 55.5312C20.4369 55.3977 20.318 55.5372 20.1821 55.3443C20.1544 55.3041 20.1296 54.9509 20.1172 54.888C20.0145 54.3789 19.9949 55.2374 19.9796 55.301C19.8627 55.7756 19.7314 55.6046 19.5854 55.6288C19.5515 55.6347 19.5498 55.1574 19.5157 55.1461C19.3395 55.0933 19.1667 55.1496 19.0187 55.3746C18.9859 55.4258 19.0558 55.8262 19.0419 55.8713C18.9804 56.0652 18.8954 55.3047 18.8351 55.476C18.8223 55.5112 18.8619 55.8558 18.8623 55.894C18.8701 56.4934 18.756 55.6532 18.7428 55.6356C18.5735 55.3941 18.5578 56.2832 18.405 56.171C18.3867 56.1567 18.3861 55.7163 18.3369 55.7028C18.0086 55.6103 17.6834 55.7602 17.4001 56.1376C17.356 56.1957 17.42 56.5209 17.4205 56.5617C17.4265 57.1985 17.3189 56.3541 17.3002 56.3236C17.1541 56.105 17.0997 56.826 16.9247 55.8244C16.4234 56.2218 15.8431 55.7022 15.3953 56.6531C15.3895 56.6642 15.4386 57.0804 15.4269 57.1007C15.2864 57.3493 15.2598 56.698 15.0827 55.9143C15.0382 55.7175 15.0414 56.6824 15.0403 56.7532C15.0369 57.0142 15.1193 57.6326 15.115 57.6835C15.0768 58.0833 14.9066 56.0292 14.808 56.0373C14.8052 56.041 14.8517 56.4177 14.8468 56.456C14.8315 56.5763 14.7927 56.4284 14.7791 56.5607C14.7483 56.8668 14.8163 57.8662 14.6769 57.2934C14.6591 57.219 14.5728 56.0529 14.4897 56.1158C14.4566 56.1418 14.2996 56.1356 14.2628 56.2149C14.226 56.2942 14.2891 56.6668 14.2875 56.6833C14.2144 57.19 14.277 57.3917 14.2835 58.1316C14.2898 58.8687 14.1512 57.1216 14.11 56.9289C14.0688 56.7367 14.0193 57.1537 14.0108 57.2979C14.0024 57.4422 14.0498 57.6783 14.0382 57.7606C13.9606 58.2981 13.9068 56.8989 13.8413 56.6255C13.6865 55.978 13.7261 57.2793 13.6489 57.414C13.6281 57.4504 13.6214 57.1538 13.5977 57.1281C13.504 57.0303 13.4891 57.4387 13.3602 57.0769C13.3392 57.0179 13.1925 56.2464 13.193 56.8221C13.1932 56.9051 13.242 57.2259 13.2124 57.3014C13.1683 57.4146 13.0778 57.4937 13.0105 57.391C12.9608 57.315 12.9625 56.779 12.9235 56.9489C12.9062 57.0248 12.978 57.3318 12.9432 57.4484C12.9086 57.5649 12.7934 57.5614 12.7491 57.5545C12.7048 57.5473 12.6928 57.142 12.6869 57.1151C12.6519 56.9614 12.5516 56.7743 12.5443 56.7755C12.1697 56.7591 11.8885 57.4691 11.5081 57.2761C11.4783 57.2615 11.4594 56.8346 11.4545 56.828C11.3418 56.6584 11.5185 57.7822 11.4844 58.1667C11.4176 57.3029 11.3916 57.4627 11.3149 57.3741C11.278 57.3307 11.2662 56.995 11.2602 56.961C11.1664 56.4579 11.1906 57.1164 11.1938 57.2513C11.2052 57.7474 11.1184 57.1677 11.1257 57.4993C11.1328 57.8285 11.2263 58.3092 11.1603 58.3088C11.1146 58.0015 11.0916 57.19 11.0303 57.0635C10.799 56.5853 10.5053 57.2497 10.3605 57.3288C10.2159 57.4079 10.1623 57.3552 10.0845 57.4746C9.94413 57.6905 9.94902 57.0865 9.82641 56.8211C9.70353 56.5557 9.88215 58.025 9.89608 58.3431C9.91026 58.6609 9.86616 58.3364 9.86429 58.512C9.86249 58.6875 9.91892 58.8996 9.88416 58.9685C9.84937 59.0374 9.68844 58.4839 9.64467 58.154C9.55202 57.4549 9.53669 56.714 9.45225 56.9823C9.44744 56.9982 9.50186 57.3839 9.48167 57.4252C9.3203 57.7401 9.12679 57.7759 8.96259 58.0564C8.94006 58.0956 9.00136 58.5246 8.98869 58.5522C8.85677 58.8418 8.8482 58.1101 8.69088 57.3103C8.80543 58.383 8.81634 59.0446 8.69823 59.0615C8.62726 59.072 8.59791 58.6016 8.52244 58.275C8.49975 58.1765 8.47785 58.5032 8.44913 58.2833C8.35497 57.5646 8.33089 56.7528 8.23706 57.0852C8.23305 57.101 8.28516 57.4943 8.26874 57.5199C8.16272 57.6871 8.08144 56.9338 7.94373 56.8539C7.83578 56.7912 7.69591 57.2673 7.58687 57.3524C7.69646 58.5602 7.56266 58.2933 7.44446 57.4643C7.37241 57.5051 7.28715 57.4652 7.22481 57.5868C7.20332 57.6282 7.25075 57.9765 7.25095 58.0146C7.25524 58.6117 7.15074 57.8043 7.13171 57.7739C6.9287 57.4807 6.84009 58.1076 6.61924 57.5222C6.61138 57.5011 6.52731 56.6629 6.53685 57.2795C6.5377 57.322 6.62691 57.6989 6.5507 57.7354C6.47446 57.772 6.3657 58.235 6.22175 57.8559C6.18695 57.7646 6.05952 57.0894 6.05295 57.6264C6.05219 57.6993 6.08138 57.9392 6.08291 58.0741C6.08733 58.5038 5.99385 57.6572 6.01846 58.3813C6.04307 59.1053 6.0092 59.6521 5.8547 59.1648C5.8499 59.1506 5.76414 58.4807 5.73036 58.4944C5.67649 58.5169 5.61023 58.6639 5.55197 58.6647C5.52405 58.6648 5.50476 58.2458 5.49927 58.2386C5.29222 58.0212 5.19262 58.4051 5.00736 58.5843C4.97347 58.618 4.81784 58.0581 4.78692 58.5144C4.75284 59.0139 5.01454 61.0561 4.79246 60.5838C4.70304 60.3949 4.38113 57.8031 4.37104 59.1616C4.09012 58.8501 3.91887 59.5601 3.62458 59.1059C3.61137 59.0858 3.51118 58.3633 3.48541 58.3756C3.44728 58.3951 3.45565 58.7362 3.42939 58.761C3.32011 58.8737 3.18608 58.5931 3.07598 58.6484C3.03411 58.6686 3.08036 59.018 3.03044 59.0421C2.98051 59.066 2.90512 58.6073 2.85493 58.8365C2.81716 59.0112 2.84805 59.9597 2.78766 60.0759C2.7024 59.1452 2.65593 59.1686 2.5485 58.9305C2.52782 58.8843 2.51672 58.5587 2.50545 58.5201C2.45895 58.3559 2.45345 58.627 2.40723 58.4479C2.39605 58.4049 2.36749 58.087 2.35675 58.0339C2.26434 57.5702 2.24395 58.2928 2.2406 58.4186C2.22737 58.8964 2.16491 58.4851 2.1391 58.6751C2.11336 58.8651 2.19719 59.0922 2.15786 59.2096C2.07628 59.4524 1.94027 59.4127 1.83766 59.4365C1.79655 59.4441 1.78719 59.0172 1.78043 59.0084C1.68515 58.9084 1.6385 59.3675 1.51598 58.5264C1.65043 60.7174 1.44548 58.3189 1.36175 58.7674C1.35524 58.8036 1.43464 59.8383 1.48517 59.9868C1.53567 60.1351 1.56321 59.807 1.6356 60.039C1.65271 60.0935 1.80836 61.0559 1.82309 61.1137C1.93831 61.5656 1.81185 60.0201 1.80827 59.9349C1.77178 59.0153 1.94958 60.0513 1.97841 60.1214C2.1104 60.4426 2.17837 60.2177 2.28517 60.4459C2.35485 60.5933 2.4501 61.6046 2.49146 61.5697C2.629 61.4544 2.55498 60.0384 2.8017 61.2499C2.85447 61.5083 2.92313 62.6168 2.95215 61.7378C2.95396 61.6824 2.96221 60.8799 3.05237 61.3791C3.06372 61.442 3.09212 61.7643 3.10207 61.7907C3.16815 61.9613 3.17909 61.7016 3.24506 61.8197C3.31103 61.9378 3.39349 62.1152 3.44666 62.0003C3.47875 61.9316 3.47409 61.3268 3.47919 61.1782C3.49283 60.7502 3.60934 61.4396 3.59557 60.924C3.58185 60.4058 3.44987 59.6286 3.50423 59.2881C3.5816 60.1252 3.66498 60.984 3.74466 61.8256C3.9259 61.7798 4.08278 61.493 4.27052 61.5136C4.29387 61.517 4.31041 61.9693 4.33648 61.9845C4.44625 62.0469 4.50813 61.7179 4.62674 61.8362C4.71869 61.9295 4.85202 62.398 4.94949 62.5104C4.91753 61.5476 5.07522 61.8614 5.16104 61.7655C5.19114 61.7324 5.16626 61.4767 5.18216 61.3911C5.24274 61.0746 5.27662 61.9249 5.31255 62.056C5.46645 62.6155 5.30532 60.6983 5.43149 60.7348C5.43812 60.7361 5.60772 61.7507 5.62424 61.8133C5.73016 62.222 5.60415 61.4567 5.64071 61.3774C5.70746 61.2325 5.74072 60.9836 5.85993 61.2746C5.89482 61.3609 6.01612 61.9918 6.02491 61.4947C6.02609 61.4296 5.99233 61.0922 5.99613 61.072C6.06747 60.7334 6.16422 61.7942 6.25358 62.1484C6.34293 62.5026 6.36675 61.7623 6.36609 61.5496C6.36493 60.9993 6.30917 61.3194 6.30186 61.2661C6.21522 60.631 6.28971 60.7351 6.33441 60.6768C6.2493 59.6358 6.32403 59.6921 6.38112 60.6206C6.38724 60.722 6.34013 60.6284 6.33441 60.6768C6.46838 61.6936 6.55601 61.8176 6.5554 60.8563C6.55507 60.4058 6.47166 59.8879 6.60801 60.0679C6.66984 60.1492 6.71244 60.8674 6.77759 61.0584C6.92639 61.4943 7.00913 60.8135 7.13112 60.9088C7.1754 60.9434 7.17035 61.339 7.20181 61.3762C7.2854 61.476 7.32472 61.176 7.41256 61.3201C7.42057 61.3337 7.44048 61.7456 7.46411 61.7488C7.64392 61.7808 7.77349 61.5044 7.95616 61.4808C8.04445 61.4697 8.22288 61.682 8.3106 61.6283C8.46285 61.5378 8.60554 60.9236 8.75426 61.0565C8.8511 61.1414 8.86808 61.5537 8.93085 61.83C9.05221 62.3657 9.09575 61.383 9.09987 61.2311C9.09997 61.2261 9.01513 61.1361 9.03713 60.9217C9.02183 60.4805 9.09884 61.2293 9.09987 61.2311C9.10272 61.1329 9.24677 61.0262 9.28398 61.102C9.30422 61.1435 9.32952 61.5332 9.33942 61.5475C9.57396 61.8775 9.78676 61.9583 9.9772 61.7581C9.98013 61.7499 9.93607 61.3153 9.94346 61.3015C10.0459 61.0975 10.1697 61.6229 10.2963 61.9301C10.423 62.2372 10.4918 62.1245 10.4839 61.3724C10.5667 61.4599 10.6441 61.1202 10.6878 60.9144C10.7314 60.7086 10.8151 61.5547 10.822 61.571C11.0381 62.0919 11.0926 61.5985 11.2608 61.5076C11.3406 61.4629 11.5165 61.5711 11.6147 61.6557C11.6925 61.724 11.7177 61.5217 11.7946 61.6428C11.8049 61.659 11.8294 62.0369 11.8334 62.0511C11.9466 62.4958 11.8297 61.5771 11.8302 61.4111C11.8319 60.8075 11.8374 60.4857 11.9561 60.759C11.9834 60.8216 12.1641 62.1433 12.2104 62.2175C12.2704 62.3114 12.2088 61.8374 12.2727 61.9478C12.2781 61.9569 12.3032 62.2505 12.3351 62.2346C12.4838 62.1647 12.6362 61.9791 12.7985 61.9943C12.8205 61.9953 12.8339 62.4633 12.8664 62.4724C13.0192 62.5145 13.1798 62.4828 13.3045 62.2522C13.3351 62.1939 13.2839 61.8699 13.283 61.7724C13.2783 61.1826 13.4208 62.0276 13.4333 62.0428C13.7334 62.4283 13.8669 61.6404 14.1683 61.9831C14.1848 62.0034 14.3784 62.9055 14.3592 62.1188C14.3581 62.0664 14.3368 61.2616 14.4293 61.805C14.4351 61.8389 14.4406 62.2538 14.491 62.207C14.5413 62.1603 14.6528 62.4277 14.6869 61.9684C14.6978 61.8237 14.6826 61.0203 14.8092 61.6505C14.8177 61.6946 15.0538 63.1241 15.0044 62.1277C14.9961 61.9637 14.8964 60.9136 15.0279 61.4449C15.0532 61.5479 15.0449 61.7848 15.1001 61.9274C15.1847 62.1473 15.2453 61.8583 15.3663 62.3193C15.3875 62.4009 15.5097 63.1088 15.509 62.5634C15.5088 62.4779 15.4637 62.1284 15.4851 62.0869C15.5872 61.8881 15.7324 62.1117 15.8314 61.8583C15.8666 61.7692 15.7944 61.2041 15.8255 61.0481C15.8565 60.8923 15.9333 60.7382 16.0029 60.9932C16.0725 61.2483 16.1017 62.1566 16.178 62.2228C16.5093 62.5099 16.763 61.9531 17.0591 61.8486C17.1031 61.8331 17.0945 62.1598 17.1613 62.1601C17.4076 62.1624 17.8562 62.4283 18.0071 61.7223C18.1281 61.1568 17.8773 60.7567 17.9871 60.5212C18.0403 60.4088 18.2012 61.4536 18.2193 61.4853C18.3967 61.8083 18.458 61.3337 18.6036 61.4647C18.6337 61.4919 18.6445 61.9202 18.6697 61.9386C18.756 62.0054 18.823 61.8079 18.9023 61.8359C18.938 61.8494 18.9606 62.1753 18.9898 62.1474C19.0601 62.0844 19.1146 61.9417 19.1609 61.6303C19.1652 61.602 19.0842 61.2013 19.1385 61.1814C19.2266 61.1502 19.3119 60.8395 19.4432 61.1409C19.4822 61.2316 19.5494 61.9749 19.57 61.4556C19.5744 61.3471 19.4775 60.456 19.623 61.2205C19.6473 61.3475 19.8691 62.3764 19.8731 61.7001C19.8742 61.5222 19.8522 60.7879 19.8994 60.8994C19.906 60.9173 19.9214 61.3184 19.9555 61.3546C20.0751 61.4753 20.1846 61.4227 20.3068 61.5379C20.3395 61.5695 20.332 61.9866 20.3795 62.0204C20.5103 62.1141 20.6527 61.9954 20.7601 61.8555C20.7996 61.8032 20.739 61.4636 20.7389 61.426C20.7364 60.8156 20.8393 61.6307 20.8605 61.6769C20.9917 61.953 21.0382 61.5617 21.1448 61.6548C21.1741 61.6794 21.1896 62.071 21.198 62.1053C21.2837 62.4401 21.1802 61.7435 21.2085 61.6632C21.2877 61.4359 21.4004 61.4575 21.5045 61.4985C21.5427 61.5141 21.5417 61.9699 21.5756 61.9787C21.777 62.0393 21.9753 61.9781 22.143 61.712C22.1745 61.6611 22.1211 61.315 22.1215 61.2348C22.1235 60.6739 22.266 61.4261 22.2897 61.4968C22.3977 61.8199 22.401 61.5093 22.4756 61.5606C22.8405 61.8166 23.2417 61.5755 23.551 61.4211C23.9543 61.2219 24.249 60.862 24.6549 60.9126C24.6807 60.9154 24.6962 61.3808 24.719 61.3892C25.0106 61.4758 25.2719 61.2703 25.5661 61.379C25.5901 61.3871 25.5957 61.8291 25.6356 61.8569C25.7178 61.9169 25.8123 61.8845 25.877 61.7374C25.9086 61.6666 25.8247 61.2943 25.8572 61.2306C25.9329 61.0815 26.0246 61.0419 26.1214 61.1043C26.1626 61.1317 26.1443 61.586 26.1949 61.5867C26.54 61.601 26.8819 61.6486 27.1751 61.0365C27.1952 60.9945 27.1349 60.08 27.2007 60.2505C27.227 60.5035 27.2532 60.8015 27.2789 61.072C27.7884 61.1738 28.2519 60.8138 28.7456 60.7207C28.7665 60.7169 28.7731 61.2037 28.8136 61.1988C29.0483 61.1708 29.2886 61.2845 29.4867 60.7825C29.5064 60.7333 29.4187 59.8837 29.5004 60.0061C29.5149 60.0285 29.631 60.1325 29.6748 60.3148C29.681 60.3423 29.6969 60.7411 29.732 60.7497C29.9359 60.7924 30.1358 60.6833 30.3124 60.4231C30.3409 60.3803 30.2693 59.9605 30.2892 59.9263C30.4309 59.6875 30.6351 59.9934 30.7554 59.5958C30.8358 59.3281 30.7327 58.6005 30.7238 57.8761C30.7226 57.7739 30.7851 57.7522 30.7513 57.3333C30.6664 56.2798 30.5332 55.1299 30.4464 54.0068C30.4277 53.7648 30.5364 54.0175 30.4339 53.438C30.4269 53.3992 30.3476 53.2109 30.3147 53.0141C30.2919 52.8781 30.2733 52.4507 30.236 52.2773C30.1987 52.104 30.2065 52.463 30.1522 52.2602C30.0977 52.0548 30.0706 51.5691 29.9935 51.5181ZM10.8849 59.9943C10.9057 59.5826 11.0463 61.0715 10.9531 60.7205C10.9485 60.7018 10.8838 60.0146 10.8849 59.9943ZM3.98208 60.3695C3.99816 59.7059 4.13474 60.6675 4.12729 61.1795C4.1198 61.6911 3.97709 60.5707 3.98208 60.3695ZM3.16843 59.9582C3.20939 59.4325 3.41044 61.5436 3.27948 61.1248C3.27193 61.1012 3.16602 59.9887 3.16843 59.9582ZM30.451 57.6939C30.45 57.674 30.4943 57.6506 30.4972 57.6702C30.5636 58.1411 30.475 58.1875 30.451 57.6939ZM2.35693 59.5038C2.35871 59.2157 2.46608 59.5386 2.46389 59.8969C2.46211 60.1852 2.35467 59.8623 2.35693 59.5038ZM13.7111 58.1413C13.71 58.1191 13.7412 58.0961 13.7516 58.2217C13.7853 58.626 13.7292 58.516 13.7111 58.1413ZM1.05425 59.5949C1.23935 59.4983 1.20107 57.7431 1.00929 57.9586C0.97456 57.9975 1.14031 58.5077 1.10604 58.6693C1.04321 58.9638 0.887435 57.8734 0.849453 58.4684C0.842686 58.5773 1.04403 59.6043 1.05481 59.5973C1.05462 59.5965 1.05444 59.5957 1.05425 59.5949ZM10.759 58.2022C10.7584 58.1824 10.8024 58.1597 10.8052 58.1791C10.8719 58.6498 10.7833 58.6959 10.759 58.2022ZM15.5536 57.0496C15.5524 57.0074 15.6548 56.9587 15.6617 56.9971C15.7856 57.7655 15.5786 57.8662 15.5536 57.0496ZM7.58791 57.3848C7.4959 56.9135 7.43135 56.8628 7.44464 57.4637C7.49132 57.4276 7.54074 57.4185 7.58791 57.3848Z" fill="#B92E2D"/>
</svg>
