<svg width="69" height="55" viewBox="0 0 69 55" fill="none" xmlns="http://www.w3.org/2000/svg">
<path d="M11.0895 54.2079C10.5394 54.2115 9.99573 54.0891 9.50006 53.8502C8.86915 53.5494 8.33634 53.0757 7.96342 52.4841C7.59051 51.8925 7.39276 51.2072 7.39311 50.5076V45.7589C5.34001 45.4622 3.46249 44.4348 2.10469 42.8649C0.746896 41.2949 -0.000207529 39.2877 0.000324915 37.2112V17.4761C-0.0193958 15.2101 0.859302 13.0287 2.44376 11.4101C4.02823 9.79163 6.18915 8.86811 8.45274 8.84208H9.85738C10.1842 8.84208 10.4976 8.97203 10.7286 9.20334C10.9597 9.43466 11.0895 9.74839 11.0895 10.0755C11.0895 10.4026 10.9597 10.7164 10.7286 10.9477C10.4976 11.179 10.1842 11.309 9.85738 11.309H8.45274C6.84271 11.3349 5.30856 11.9985 4.18622 13.1544C3.06388 14.3103 2.44482 15.8643 2.46459 17.4761V37.2112C2.4869 38.8398 3.14313 40.3956 4.29368 41.5473C5.44422 42.6991 6.99828 43.356 8.62524 43.3783C8.95202 43.3783 9.26542 43.5083 9.49649 43.7396C9.72756 43.9709 9.85738 44.2847 9.85738 44.6118V50.5076C9.85803 50.7401 9.92431 50.9677 10.0486 51.1641C10.1728 51.3605 10.35 51.5177 10.5597 51.6177C10.7703 51.7173 11.0047 51.7551 11.2359 51.7267C11.4671 51.6983 11.6854 51.6049 11.8657 51.4574L21.4024 43.662C21.6209 43.4808 21.895 43.3806 22.1787 43.3783H46.9938C47.2851 43.3971 47.5773 43.3971 47.8686 43.3783C48.2165 43.3226 48.5588 43.2359 48.8913 43.1193C49.2017 43.0146 49.541 43.0377 49.8345 43.1834C50.1279 43.3292 50.3515 43.5856 50.4561 43.8964C50.5607 44.2072 50.5376 44.5468 50.3921 44.8406C50.2465 45.1343 49.9903 45.3582 49.6799 45.4629C49.2111 45.6228 48.7285 45.7384 48.2383 45.8082C47.8306 45.8716 47.4187 45.9046 47.0061 45.9069H22.6223L13.4306 53.3692C12.7704 53.911 11.9432 54.2074 11.0895 54.2079ZM57.9105 45.5739C57.061 45.5705 56.2387 45.2743 55.5818 44.7351L46.0574 36.9275C45.9137 36.8323 45.7915 36.708 45.6988 36.5626C45.6061 36.4172 45.5449 36.254 45.5191 36.0835C45.4933 35.9129 45.5035 35.7389 45.5491 35.5725C45.5947 35.4062 45.6746 35.2513 45.7837 35.1178C45.8928 34.9843 46.0287 34.8752 46.1825 34.7975C46.3364 34.7198 46.5048 34.6753 46.6769 34.6669C46.849 34.6584 47.0209 34.6862 47.1816 34.7484C47.3423 34.8106 47.4882 34.9058 47.6099 35.028L57.1466 42.8233C57.327 42.966 57.5437 43.0554 57.7722 43.0813C58.0007 43.1071 58.2319 43.0685 58.4396 42.9697C58.6472 42.8708 58.8232 42.7158 58.9474 42.5221C59.0717 42.3284 59.1393 42.1037 59.1426 41.8736V35.9777C59.1426 35.6506 59.2724 35.3369 59.5035 35.1055C59.7346 34.8742 60.048 34.7443 60.3748 34.7443C62.0017 34.7219 63.5558 34.065 64.7063 32.9132C65.8569 31.7615 66.5131 30.2058 66.5354 28.5771V8.84208C66.5552 7.23024 65.9361 5.67624 64.8138 4.52035C63.6914 3.36446 62.1573 2.70087 60.5473 2.67488H22.0062C20.3962 2.70087 18.862 3.36446 17.7397 4.52035C16.6173 5.67624 15.9983 7.23024 16.018 8.84208V28.5771C15.9983 30.1889 16.6173 31.7429 17.7397 32.8988C18.862 34.0547 20.3962 34.7183 22.0062 34.7443H40.0692C40.396 34.7443 40.7094 34.8742 40.9405 35.1055C41.1716 35.3369 41.3014 35.6506 41.3014 35.9777C41.3014 36.3048 41.1716 36.6186 40.9405 36.8499C40.7094 37.0812 40.396 37.2112 40.0692 37.2112H22.0062C19.7426 37.1851 17.5817 36.2616 15.9972 34.6431C14.4127 33.0246 13.534 30.8432 13.5538 28.5771V8.84208C13.534 6.57601 14.4127 4.39459 15.9972 2.77607C17.5817 1.15756 19.7426 0.234045 22.0062 0.208008H60.5473C62.8109 0.234045 64.9718 1.15756 66.5562 2.77607C68.1407 4.39459 69.0194 6.57601 68.9997 8.84208V28.5771C69.0002 30.6537 68.2531 32.6609 66.8953 34.2308C65.5375 35.8007 63.66 36.8282 61.6069 37.1248V41.8736C61.6061 42.5744 61.4066 43.2607 61.0314 43.8524C60.6562 44.4442 60.1208 44.9171 59.4876 45.2162C58.9957 45.4533 58.4565 45.5755 57.9105 45.5739ZM40.6607 28.8854C40.5501 28.8976 40.4385 28.8976 40.328 28.8854C40.0939 28.8114 34.5739 27.208 30.6557 20.2514C28.5488 16.5511 28.7213 12.7767 31.1116 10.4702C31.7591 9.85124 32.5412 9.39099 33.3963 9.12561C34.2515 8.86023 35.1565 8.79695 36.0402 8.94075C37.883 9.21871 39.5426 10.2111 40.6607 11.7037C41.7616 10.2302 43.3922 9.24368 45.2072 8.95308C46.0908 8.81869 46.9933 8.88648 47.8469 9.15139C48.7005 9.41629 49.4831 9.87141 50.1357 10.4825C52.5261 12.7891 52.7602 16.5264 50.7518 20.239C48.7423 24.2903 45.2251 27.3904 40.9564 28.8731C40.8585 28.8875 40.7594 28.8917 40.6607 28.8854ZM35.1654 11.309C34.2993 11.2945 33.4626 11.6224 32.8366 12.2217C30.9884 13.9978 31.6045 16.8841 32.8366 19.0056C34.5435 22.268 37.3003 24.8582 40.6607 26.3569C44.0874 24.949 46.9007 22.3645 48.5956 19.0673C49.15 18.0435 50.7765 14.5159 48.4354 12.2587C48.0513 11.902 47.5904 11.6385 47.0883 11.4888C46.5862 11.3391 46.0564 11.3071 45.5399 11.3953C44.8121 11.526 44.1238 11.8219 43.5279 12.2602C42.9321 12.6985 42.4444 13.2676 42.1022 13.9238C41.634 14.8736 41.634 14.8736 41.4615 15.0339C41.233 15.249 40.9312 15.3688 40.6175 15.3688C40.3039 15.3688 40.002 15.249 39.7735 15.0339C39.601 14.8736 39.601 14.8736 39.1205 13.8992C38.7766 13.2551 38.2905 12.6981 37.699 12.2706C37.1075 11.8431 36.4264 11.5564 35.7075 11.4323C35.5294 11.3803 35.3484 11.3391 35.1654 11.309Z" fill="#B92E2D"/>
</svg>
