<svg width="71" height="44" viewBox="0 0 71 44" fill="none" xmlns="http://www.w3.org/2000/svg">
<path d="M0.00491169 23.6334C0.00561609 23.6218 0.000349671 23.6109 0.00175848 23.5994C1.00798 15.0223 6.5964 9.93856 16.6123 8.48776C16.7363 8.4696 16.8622 8.47294 16.9878 8.47044C16.9917 8.46574 16.995 8.46026 16.999 8.45557C17.9042 7.41432 19.1533 6.68177 20.5749 6.45826C20.3667 5.80581 20.0554 5.12551 19.5822 4.56633C19.3898 4.33963 19.4179 3.99921 19.6453 3.80689C19.8728 3.61388 20.2132 3.64265 20.4048 3.87006C21.045 4.62621 21.4358 5.54051 21.6774 6.37847H21.6785C22.2032 6.39282 22.7135 6.47186 23.195 6.61562C23.2008 6.61729 23.2064 6.61979 23.2122 6.62146C23.7664 4.18684 25.3113 2.11347 27.6242 0.757911C27.852 0.625255 28.1538 0.687022 28.3223 0.889862C30.3017 3.27416 31.1247 6.10768 30.6393 8.8682C30.5758 9.23011 30.486 9.58267 30.3791 9.92848C32.4266 9.49853 34.5456 9.98722 36.3343 11.3233C36.5499 11.4814 36.6075 11.7761 36.4852 12.0133C35.4939 13.9452 33.9717 15.3315 32.1478 15.9933L45.7115 23.1859C45.7843 23.2242 45.9862 23.4246 45.9934 23.6427C45.9935 23.645 45.9946 23.6473 45.9946 23.6495C46.0018 23.6567 46.0018 23.6567 45.9946 23.6639C45.9946 30.0451 45.9946 34.7771 45.9946 40.2954C45.9946 42.164 44.4779 43.6877 42.602 43.6877H3.39261C1.52389 43.6877 -1.83695e-06 42.164 -1.83695e-06 40.2954C-1.83695e-06 33.8999 -1.83695e-06 29.5824 -1.83695e-06 23.6567C0.000177858 23.6483 0.00455948 23.6416 0.00491169 23.6334ZM1.07817 35.8392H44.9164V30.9734H1.07817V35.8392ZM44.9164 29.8953V24.203H1.07817V29.8953H44.9164ZM21.9276 7.47797C22.0551 8.23167 22.0645 8.7776 22.0649 8.82958C22.0673 9.12718 21.828 9.37003 21.5304 9.37284C21.5286 9.37284 21.5258 9.37284 21.5258 9.37284C21.2299 9.37284 20.9892 9.1342 20.9867 8.838C20.9865 8.82611 20.9771 8.26811 20.8383 7.51394L20.8374 7.51403C18.4654 7.84466 16.6326 9.87868 16.6326 12.3367C16.6326 15.032 18.832 17.2169 21.5346 17.2169C23.2022 17.2169 24.6685 16.3832 25.5454 15.111C27.6769 12.0262 25.6661 7.77136 21.9299 7.4781L21.9276 7.47797ZM27.7761 1.93145C25.8922 3.16251 24.6485 4.95162 24.2233 7.02257C25.8725 7.85738 27.0842 9.44324 27.3999 11.3233C27.9167 10.9142 28.4837 10.584 29.0866 10.3327C29.3095 9.80642 29.4769 9.25522 29.5777 8.68148C29.9851 6.36315 29.3397 3.97393 27.7761 1.93145ZM35.3135 11.9198C33.8185 10.9568 32.1222 10.6333 30.4835 11.0071C29.355 11.273 28.3342 11.8408 27.4861 12.6745C27.4431 13.3932 27.2776 14.0832 26.9973 14.7157C28.2912 15.341 29.6928 15.5135 31.0584 15.1973C32.8195 14.7876 34.3217 13.6232 35.3135 11.9198ZM30.567 16.3752L30.5625 16.376C30.275 16.4119 29.9874 16.4335 29.7 16.4335C28.6002 16.4335 27.5077 16.1747 26.4798 15.6573C25.4089 17.2457 23.5903 18.295 21.5346 18.295C18.2355 18.295 15.5545 15.6213 15.5545 12.3367C15.5545 11.3674 15.784 10.4555 16.2002 9.65109C7.20129 11.1051 2.26268 15.5134 1.15187 23.1228H43.2916L30.567 16.3752ZM3.39261 42.6096H42.602C43.8814 42.6096 44.9164 41.5747 44.9164 40.2954V36.9173H1.07817V40.2954C1.07817 41.5747 2.11316 42.6096 3.39261 42.6096Z" fill="#B92E2D"/>
<path d="M58.171 18.1415C58.1997 18.1038 58.2579 18.1128 58.3078 18.1357C58.3234 18.1428 58.3351 18.1948 58.3467 18.202C58.3693 18.2159 58.3753 18.1862 58.399 18.2038C58.407 18.2099 58.4285 18.2914 58.4362 18.296C58.4781 18.3205 58.499 18.2905 58.535 18.2967C58.712 18.3276 58.8678 18.3061 59.03 18.2894C59.0835 18.2838 59.1688 18.3346 59.2087 18.2852C59.2133 18.2793 59.1852 18.2111 59.1844 18.2049C59.1712 18.111 59.2148 18.2534 59.2329 18.2679C59.3049 18.3253 59.3583 18.3137 59.3931 18.2712C59.4078 18.253 59.3402 18.1216 59.3865 18.1924C59.3897 18.1972 59.4109 18.2726 59.4189 18.2787C59.4368 18.2923 59.4544 18.2712 59.4655 18.2739C59.4871 18.2794 59.4897 18.2776 59.5066 18.2726C59.5298 18.2664 59.5697 18.2936 59.588 18.2683C59.5919 18.2627 59.5583 18.1895 59.562 18.1737C59.5658 18.1579 59.5899 18.1566 59.6036 18.1719C59.6172 18.1871 59.6351 18.2477 59.6412 18.2608C59.6925 18.3721 59.6616 18.2038 59.6635 18.1987C59.6991 18.1107 59.782 18.1835 59.8376 18.1636C59.8798 18.1483 59.9144 18.1023 59.9561 18.0923C60.0059 18.0805 60.061 18.1072 60.1051 18.0837C60.1098 18.0813 60.0726 17.9944 60.0783 17.9913C60.1384 17.9584 60.2052 17.9458 60.2899 17.9834C60.2984 17.9873 60.3177 18.0683 60.3279 18.0768C60.3895 18.1273 60.5055 18.2597 60.4087 17.9115C60.4398 17.9155 60.4766 17.9179 60.5244 17.9781C60.5552 18.0168 60.5705 18.1071 60.5763 18.0642C60.5777 18.0547 60.5459 17.9821 60.55 17.9734C60.567 17.9367 60.6046 17.9506 60.6174 17.9028C60.6199 17.893 60.5949 17.8267 60.5921 17.8141C60.5706 17.7123 60.6486 17.8657 60.6573 17.8758C60.7234 17.9506 60.737 17.9072 60.7706 17.8977C60.7784 17.8956 60.7378 17.809 60.7441 17.8038C60.7776 17.7775 60.8198 17.7713 60.871 17.7979C60.8825 17.8041 60.9019 17.8832 60.9087 17.89C60.9387 17.9193 60.8916 17.7736 60.9194 17.7989C60.9252 17.804 60.9462 17.8701 60.9494 17.8771C60.9993 17.9863 60.9517 17.8234 60.953 17.819C60.9688 17.7592 61.0486 17.9186 61.0719 17.8838C61.0747 17.8795 61.0369 17.7998 61.0464 17.7926C61.1093 17.7448 61.1924 17.741 61.2859 17.7824C61.3005 17.7888 61.3146 17.8537 61.318 17.8611C61.3714 17.9769 61.3221 17.8139 61.3235 17.8066C61.3362 17.7532 61.41 17.8785 61.3616 17.6806C61.504 17.705 61.5845 17.5559 61.7629 17.6855C61.7651 17.6869 61.7903 17.7669 61.7946 17.7694C61.8463 17.8011 61.796 17.6807 61.7669 17.5221C61.7596 17.4823 61.8418 17.6572 61.8481 17.6699C61.8713 17.7168 61.9067 17.8365 61.912 17.8453C61.9546 17.914 61.8148 17.5262 61.8367 17.5183C61.8377 17.5187 61.86 17.5913 61.8644 17.5978C61.878 17.6181 61.8737 17.5876 61.888 17.6103C61.9209 17.6627 61.9921 17.85 61.973 17.7332C61.9705 17.718 61.8889 17.4988 61.9122 17.5023C61.9216 17.5039 61.9549 17.4879 61.9697 17.4987C61.9844 17.5096 62.0028 17.583 62.0046 17.5858C62.0639 17.6706 62.0677 17.713 62.1299 17.8475C62.1919 17.9815 62.0717 17.6522 62.064 17.6134C62.0564 17.5747 62.1029 17.6455 62.1171 17.6708C62.1314 17.6961 62.1414 17.7433 62.151 17.7571C62.2139 17.847 62.1053 17.5887 62.0959 17.533C62.0737 17.4012 62.177 17.6404 62.2052 17.6574C62.2128 17.662 62.1888 17.6078 62.1917 17.6009C62.2035 17.5743 62.2418 17.6468 62.2385 17.5691C62.238 17.5564 62.2034 17.4029 62.2527 17.5071C62.2598 17.5221 62.2769 17.5848 62.2897 17.5957C62.309 17.612 62.3353 17.6177 62.341 17.5927C62.3452 17.5742 62.2988 17.4774 62.3218 17.5045C62.3321 17.5166 62.343 17.5789 62.3605 17.5967C62.378 17.6145 62.4025 17.6029 62.4115 17.5975C62.4204 17.592 62.3882 17.5175 62.3872 17.5121C62.3815 17.481 62.3871 17.4376 62.3887 17.4371C62.4682 17.3986 62.5899 17.5004 62.6554 17.4294C62.6606 17.4239 62.6279 17.3449 62.6284 17.3432C62.6382 17.3018 62.6966 17.5219 62.737 17.5882C62.6772 17.4256 62.6966 17.4521 62.7055 17.4288C62.7097 17.4174 62.6834 17.3556 62.6818 17.3488C62.6588 17.2489 62.7102 17.3704 62.7211 17.3951C62.7613 17.4859 62.7302 17.3728 62.7571 17.4335C62.7839 17.4937 62.805 17.5895 62.8192 17.5832C62.8027 17.5233 62.7379 17.3743 62.7402 17.3456C62.7491 17.2371 62.8695 17.3294 62.9076 17.33C62.9456 17.3306 62.9526 17.316 62.9797 17.3302C63.0285 17.356 62.9756 17.2471 62.9792 17.1875C62.9829 17.1278 63.0707 17.4106 63.095 17.4695C63.1193 17.5283 63.1009 17.4654 63.1164 17.497C63.1318 17.5286 63.1379 17.5723 63.1513 17.5815C63.1648 17.5907 63.1519 17.4753 63.133 17.4114C63.0929 17.2761 63.0325 17.1406 63.0738 17.1812C63.0762 17.1836 63.0976 17.2585 63.1055 17.2641C63.1674 17.3057 63.2123 17.2939 63.2718 17.329C63.28 17.334 63.3037 17.4174 63.3088 17.4212C63.3622 17.4611 63.3011 17.3279 63.2663 17.1683C63.3338 17.3732 63.3883 17.4939 63.4153 17.4858C63.4315 17.481 63.3974 17.3931 63.3856 17.3268C63.382 17.3068 63.4148 17.3639 63.4021 17.3214C63.3607 17.1824 63.2961 17.0332 63.3449 17.0845C63.3472 17.0869 63.3697 17.1631 63.3755 17.1661C63.4127 17.1863 63.3655 17.0423 63.3884 17.0148C63.4063 16.9932 63.4774 17.0661 63.5082 17.0711C63.5884 17.3001 63.5943 17.2391 63.5486 17.0779C63.5676 17.0784 63.5826 17.0631 63.6065 17.0792C63.6147 17.0846 63.6344 17.1522 63.6376 17.1591C63.688 17.2675 63.6412 17.1115 63.6427 17.1042C63.6613 17.0319 63.7343 17.1369 63.7316 17.01C63.7315 17.0055 63.6776 16.8458 63.7286 16.9583C63.732 16.9661 63.7452 17.0427 63.7648 17.0421C63.7844 17.0415 63.8476 17.115 63.8461 17.0327C63.8458 17.0129 63.8152 16.8786 63.8628 16.9752C63.8692 16.9883 63.8836 17.0345 63.8948 17.059C63.9308 17.1372 63.8782 16.9751 63.9351 17.1085C63.992 17.2418 64.0464 17.3375 64.0378 17.2347C64.0376 17.2317 63.9986 17.1023 64.007 17.1016C64.0206 17.1006 64.0475 17.1209 64.0602 17.1155C64.0662 17.1129 64.0344 17.0352 64.0349 17.0334C64.0609 16.9744 64.1154 17.0344 64.1708 17.0493C64.181 17.0521 64.1665 16.9361 64.2124 17.0157C64.2627 17.1029 64.3817 17.4972 64.389 17.3906C64.3921 17.348 64.2388 16.8485 64.3577 17.0933C64.3916 17.0103 64.4896 17.1225 64.5141 17.0124C64.5152 17.0075 64.4747 16.8673 64.4813 16.8671C64.4912 16.867 64.5187 16.9295 64.5265 16.9315C64.5598 16.9415 64.5646 16.8781 64.5931 16.8776C64.6039 16.8773 64.6239 16.9449 64.6368 16.9445C64.6496 16.9441 64.6265 16.854 64.657 16.8907C64.6802 16.9187 64.755 17.0932 64.778 17.1085C64.7165 16.9321 64.7285 16.9319 64.7312 16.8786C64.7317 16.8683 64.7061 16.8083 64.7052 16.8003C64.7012 16.7661 64.7256 16.8147 64.7202 16.7779C64.7189 16.769 64.6978 16.7088 64.6955 16.6982C64.6756 16.6055 64.7421 16.7343 64.7537 16.7568C64.7976 16.842 64.7757 16.7616 64.7976 16.7936C64.8195 16.8255 64.8209 16.8745 64.8395 16.892C64.878 16.9282 64.9039 16.9081 64.9281 16.9027C64.9376 16.9002 64.903 16.8221 64.9037 16.8198C64.9156 16.7927 64.9652 16.8713 64.9193 16.7075C65.0786 17.1167 64.9167 16.6633 64.9733 16.7365C64.9778 16.7424 65.0496 16.9372 65.0515 16.9688C65.0533 17.0005 65.0192 16.9437 65.0235 16.9926C65.0245 17.004 65.0736 17.1929 65.0754 17.2048C65.0894 17.2975 64.9838 17.0058 64.9773 16.9901C64.9061 16.8203 64.9568 17.0246 64.9566 17.04C64.9557 17.1106 64.9217 17.0764 64.9183 17.1278C64.9159 17.1611 64.9823 17.3531 64.9704 17.3507C64.9308 17.3429 64.825 17.0797 64.8759 17.3223C64.8867 17.374 64.9672 17.5811 64.8854 17.4248C64.8802 17.415 64.8095 17.2706 64.8329 17.3694C64.8359 17.3819 64.8574 17.4429 64.8576 17.4486C64.858 17.4858 64.8333 17.4398 64.8292 17.4674C64.8251 17.4951 64.8226 17.535 64.8012 17.5192C64.7884 17.5099 64.7374 17.4 64.7235 17.3736C64.6838 17.2974 64.7179 17.4332 64.6766 17.3386C64.635 17.2436 64.5967 17.0904 64.5557 17.034C64.6109 17.1928 64.6668 17.3561 64.7219 17.5159C64.6788 17.5248 64.6203 17.4878 64.5816 17.5094C64.5768 17.5122 64.6121 17.5956 64.6078 17.6008C64.5895 17.6225 64.5479 17.5689 64.5324 17.6015C64.5206 17.6271 64.5321 17.7245 64.5207 17.7541C64.4449 17.5769 64.4378 17.6486 64.411 17.6394C64.4017 17.6363 64.3851 17.5877 64.3743 17.5737C64.334 17.5222 64.3998 17.6792 64.4033 17.7064C64.4182 17.8222 64.2882 17.46 64.2641 17.4786C64.2628 17.4795 64.3134 17.6791 64.3152 17.692C64.3275 17.776 64.2889 17.6256 64.2742 17.6147C64.2473 17.5948 64.2187 17.553 64.218 17.6169C64.2179 17.6358 64.246 17.7615 64.2013 17.6724C64.1955 17.6607 64.1738 17.5965 64.1712 17.5932C64.1267 17.5387 64.197 17.7398 64.2082 17.8124C64.2193 17.8849 64.1506 17.7532 64.1324 17.7147C64.0854 17.615 64.1249 17.6677 64.1219 17.6573C64.086 17.5342 64.0789 17.5601 64.0642 17.5538C63.9931 17.3574 63.9819 17.3746 64.0493 17.548C64.0567 17.567 64.0588 17.5456 64.0642 17.5538C64.1227 17.7505 64.1145 17.7812 64.032 17.6072C63.9933 17.5257 63.9668 17.4241 63.9529 17.4696C63.9465 17.4901 63.999 17.6241 64.0014 17.6649C64.0067 17.7579 63.9304 17.6425 63.9122 17.6713C63.9057 17.6818 63.9407 17.7529 63.9371 17.7626C63.9277 17.7886 63.8934 17.7381 63.8868 17.7725C63.8863 17.7757 63.9174 17.8521 63.9126 17.8549C63.8765 17.8778 63.8248 17.8401 63.7833 17.8531C63.7633 17.8595 63.7431 17.9148 63.7195 17.9134C63.6789 17.9115 63.5953 17.8139 63.5746 17.8521C63.561 17.8766 63.5928 17.9528 63.603 18.0088C63.6229 18.1172 63.529 17.9436 63.515 17.9165C63.5146 17.9156 63.5252 17.8912 63.502 17.8545C63.4674 17.7732 63.5151 17.916 63.515 17.9165C63.506 17.899 63.4657 17.8933 63.4642 17.9106C63.4634 17.92 63.4915 17.9929 63.4905 17.9964C63.4683 18.0784 63.4293 18.1132 63.371 18.095C63.3697 18.0938 63.3418 18.011 63.339 18.0092C63.2994 17.982 63.3178 18.0888 63.3169 18.1565C63.316 18.224 63.2914 18.2102 63.2285 18.0733C63.2182 18.097 63.1722 18.0429 63.1451 18.0098C63.118 17.9767 63.1727 18.1378 63.1726 18.1414C63.1707 18.2561 63.1166 18.172 63.0724 18.1715C63.0514 18.171 63.0227 18.2073 63.0088 18.2319C62.9979 18.2516 62.975 18.2174 62.9689 18.2466C62.968 18.2505 62.9952 18.3212 62.9956 18.3242C63.0094 18.4154 62.9556 18.2381 62.9413 18.2081C62.889 18.099 62.8602 18.0413 62.858 18.102C62.8575 18.116 62.9321 18.3722 62.9285 18.39C62.9236 18.4127 62.8962 18.3211 62.8919 18.3472C62.8915 18.3493 62.9113 18.4048 62.9031 18.405C62.865 18.4064 62.8161 18.3873 62.7824 18.4055C62.7777 18.4077 62.8151 18.4937 62.8088 18.4984C62.7795 18.5205 62.7421 18.53 62.6954 18.5001C62.6838 18.4925 62.667 18.429 62.6588 18.4113C62.6091 18.3041 62.651 18.4705 62.6496 18.4745C62.618 18.5727 62.5214 18.4428 62.4858 18.5334C62.484 18.5386 62.5198 18.7202 62.4563 18.5761C62.452 18.5665 62.3874 18.4189 62.4142 18.5259C62.4159 18.5326 62.4503 18.6082 62.4354 18.6045C62.4205 18.6009 62.4195 18.6598 62.3726 18.58C62.3578 18.5548 62.2921 18.408 62.3189 18.5341C62.3209 18.5428 62.3928 18.8239 62.3178 18.6389C62.3055 18.6085 62.2368 18.409 62.254 18.5176C62.2574 18.5386 62.2796 18.5807 62.2799 18.6117C62.2806 18.6595 62.2427 18.613 62.2562 18.7079C62.2586 18.7247 62.2931 18.8644 62.2464 18.7656C62.239 18.7501 62.2187 18.6826 62.2105 18.6771C62.1714 18.6508 62.1593 18.7051 62.1162 18.6686C62.1009 18.6558 62.0679 18.5468 62.0478 18.5215C62.0277 18.4962 61.9979 18.4756 62.0048 18.5284C62.0117 18.5811 62.0835 18.7483 62.0727 18.7675C62.0259 18.8509 61.9233 18.7742 61.8504 18.7834C61.8396 18.7847 61.8695 18.843 61.8551 18.8494C61.8021 18.8732 61.7282 18.9639 61.6349 18.8505C61.5602 18.7596 61.58 18.6634 61.536 18.6313C61.5149 18.616 61.5699 18.8203 61.5688 18.8277C61.5582 18.903 61.5042 18.8229 61.4841 18.8604C61.4799 18.8682 61.5144 18.9467 61.5105 18.9525C61.4976 18.9727 61.4662 18.9434 61.4515 18.9559C61.4449 18.9618 61.4681 19.0229 61.4594 19.0206C61.4388 19.0159 61.4148 18.9952 61.378 18.9433C61.3747 18.9386 61.3577 18.8584 61.3443 18.8599C61.3226 18.8626 61.2775 18.8145 61.275 18.8815C61.2744 18.9016 61.3238 19.0425 61.2747 18.9505C61.2644 18.9313 61.2088 18.7609 61.2431 18.913C61.2487 18.9383 61.2893 19.1455 61.2303 19.0235C61.2148 18.9914 61.1564 18.8565 61.1558 18.8811C61.1559 18.885 61.1871 18.959 61.1828 18.9688C61.1674 19.002 61.1392 19.0029 61.1228 19.0353C61.1184 19.0441 61.1559 19.1189 61.1485 19.1295C61.1284 19.1588 61.0874 19.1509 61.0522 19.1358C61.0392 19.13 61.0231 19.0628 61.0199 19.056C60.968 18.9454 61.0158 19.1026 61.0152 19.113C61.0106 19.1754 60.967 19.109 60.952 19.1359C60.9477 19.1432 60.9781 19.2155 60.9792 19.2225C60.9895 19.2912 60.9519 19.1554 60.9389 19.1435C60.9023 19.1099 60.8798 19.1245 60.8609 19.1418C60.854 19.1482 60.8934 19.2306 60.8868 19.2354C60.8486 19.2655 60.8005 19.2732 60.7415 19.241C60.7303 19.2348 60.712 19.1671 60.7051 19.1526C60.6564 19.0513 60.6903 19.2009 60.6913 19.216C60.6957 19.2847 60.6683 19.2288 60.6567 19.2452C60.5999 19.3261 60.4926 19.3206 60.4126 19.322C60.3084 19.3242 60.2139 19.287 60.1306 19.3347C60.1253 19.3377 60.1619 19.4233 60.1578 19.427C60.1023 19.4704 60.0282 19.458 59.9741 19.5055C59.9696 19.5093 60.0064 19.5898 60.0001 19.5986C59.9875 19.6173 59.9644 19.6204 59.9378 19.5999C59.9249 19.5901 59.911 19.5148 59.8985 19.5063C59.8693 19.4865 59.8461 19.4881 59.8306 19.5085C59.8241 19.5174 59.8671 19.5979 59.8562 19.6028C59.783 19.6381 59.7133 19.6792 59.5974 19.5962C59.5894 19.5905 59.5238 19.4194 59.5243 19.4565C59.5404 19.5047 59.5603 19.5611 59.578 19.6125C59.4768 19.6793 59.3458 19.6581 59.2313 19.6881C59.2265 19.6894 59.2669 19.7781 59.2577 19.7811C59.2046 19.7983 59.1625 19.8416 59.0767 19.7696C59.0682 19.7626 59.0141 19.6005 59.007 19.6304C59.0058 19.6359 58.9897 19.6657 58.9959 19.7028C58.9969 19.7084 59.0277 19.7821 59.0209 19.7869C58.9806 19.814 58.928 19.8132 58.8676 19.7829C58.8577 19.7779 58.8371 19.6951 58.8299 19.6909C58.7788 19.6611 58.761 19.7358 58.7008 19.6753C58.6605 19.6345 58.6202 19.4931 58.5599 19.3611C58.5514 19.3425 58.536 19.3445 58.5073 19.2655C58.4351 19.0669 58.365 18.8462 58.2872 18.6347C58.2704 18.5892 58.2687 18.6452 58.241 18.5306C58.2392 18.523 58.2401 18.4814 58.2303 18.4426C58.2235 18.4159 58.1908 18.3368 58.1839 18.3019C58.1771 18.267 58.2063 18.3327 58.2006 18.2908C58.1947 18.2485 58.1588 18.158 58.171 18.1415ZM63.0235 17.8621C62.9836 17.7895 63.0813 18.0722 63.0712 17.9999C63.0706 17.9961 63.0255 17.8656 63.0235 17.8621ZM64.5455 17.275C64.485 17.1564 64.5382 17.3434 64.5838 17.4353C64.6294 17.5272 64.5639 17.3109 64.5455 17.275ZM64.6858 17.1234C64.6317 17.0321 64.7698 17.4332 64.7621 17.345C64.7617 17.34 64.6889 17.1287 64.6858 17.1234ZM58.6031 19.3023C58.6016 19.2986 58.59 19.2986 58.5911 19.3024C58.6172 19.3939 58.6403 19.3939 58.6031 19.3023ZM64.8218 16.9642C64.7967 16.9122 64.8013 16.9808 64.8325 17.0454C64.8577 17.0974 64.8531 17.0288 64.8218 16.9642ZM62.2543 17.7949C62.2526 17.7908 62.2439 17.7896 62.2525 17.8133C62.28 17.8897 62.2826 17.8645 62.2543 17.7949ZM65.1108 16.857C65.0626 16.8571 64.92 16.5359 64.9799 16.5567C64.9907 16.5605 64.9988 16.6685 65.0201 16.6945C65.0589 16.7418 64.9988 16.5297 65.0582 16.6338C65.069 16.6529 65.1138 16.8578 65.1109 16.8575C65.1109 16.8574 65.1108 16.8572 65.1108 16.857ZM62.8967 17.5259C62.8951 17.5222 62.8836 17.5223 62.8847 17.5261C62.9108 17.6176 62.9338 17.6175 62.8967 17.5259ZM61.7628 17.7722C61.7595 17.7645 61.7332 17.7654 61.735 17.773C61.7743 17.9238 61.8276 17.9224 61.7628 17.7722ZM63.5108 17.0771C63.4901 16.9831 63.4997 16.9678 63.5485 17.0778C63.5353 17.0757 63.5239 17.0787 63.5108 17.0771ZM54.7663 13.4647C54.7588 13.4241 54.8035 13.4005 54.8523 13.3908C54.8675 13.3877 54.9116 13.4176 54.9242 13.4166C54.9488 13.4146 54.932 13.3911 54.96 13.3912C54.9695 13.3913 55.0405 13.4364 55.0488 13.4357C55.0935 13.4311 55.0863 13.3998 55.1144 13.3857C55.2526 13.3165 55.3401 13.2221 55.4354 13.1277C55.4667 13.0965 55.5583 13.0879 55.5501 13.0335C55.5491 13.0271 55.4829 12.9944 55.4781 12.9906C55.4038 12.9326 55.5319 13.0085 55.554 13.0092C55.6415 13.012 55.6685 12.9767 55.6618 12.9297C55.6588 12.9096 55.5226 12.8536 55.6025 12.8787C55.6079 12.8804 55.6746 12.9215 55.684 12.9216C55.7053 12.9218 55.7022 12.8984 55.7114 12.8945C55.7295 12.8872 55.73 12.8847 55.7376 12.8726C55.7486 12.8565 55.7938 12.8549 55.7882 12.8281C55.7868 12.8222 55.7136 12.7889 55.7051 12.7761C55.6965 12.7633 55.7115 12.7501 55.7311 12.7536C55.7508 12.7571 55.8048 12.7898 55.818 12.7957C55.9295 12.8462 55.7917 12.746 55.7894 12.7415C55.7514 12.6626 55.8568 12.6704 55.8795 12.6283C55.8966 12.5962 55.8874 12.5469 55.9078 12.5186C55.9324 12.4851 55.9873 12.4753 56 12.4366C56.0014 12.4326 55.9163 12.3916 55.9178 12.3866C55.9345 12.3332 55.9697 12.2904 56.0517 12.2731C56.06 12.2714 56.1293 12.3173 56.1419 12.318C56.2177 12.3213 56.3866 12.3533 56.0798 12.1628C56.103 12.1496 56.129 12.1325 56.2025 12.1495C56.2498 12.1605 56.3229 12.215 56.2968 12.1824C56.291 12.1751 56.2195 12.1413 56.216 12.1332C56.2016 12.0993 56.2362 12.0897 56.2112 12.0502C56.206 12.0421 56.1432 12.0092 56.1327 12.0019C56.0474 11.9428 56.2059 12.0087 56.2187 12.0111C56.3143 12.0289 56.293 11.992 56.3086 11.9684C56.3122 11.9629 56.2251 11.924 56.2256 11.9171C56.2293 11.8819 56.2527 11.8561 56.3051 11.8483C56.317 11.8466 56.3849 11.8913 56.3942 11.8925C56.4343 11.8973 56.3017 11.821 56.3376 11.8242C56.345 11.8248 56.405 11.8596 56.412 11.8628C56.521 11.9125 56.376 11.8246 56.3738 11.8209C56.3425 11.7716 56.5063 11.8407 56.4974 11.8048C56.4962 11.8004 56.4156 11.7648 56.4169 11.755C56.4249 11.6899 56.477 11.6449 56.5676 11.6256C56.5816 11.6225 56.6362 11.66 56.6436 11.6634C56.7596 11.7159 56.6133 11.6288 56.6092 11.623C56.5803 11.5797 56.7163 11.6284 56.5464 11.5168C56.6572 11.4608 56.6062 11.3169 56.8141 11.315C56.8166 11.3149 56.889 11.3571 56.8936 11.3567C56.9497 11.3521 56.8326 11.2948 56.7027 11.2004C56.6701 11.1767 56.8463 11.2552 56.8594 11.2608C56.9074 11.2812 57.0142 11.3457 57.0239 11.349C57.0999 11.3746 56.7371 11.1788 56.7461 11.1621C56.747 11.1619 56.8124 11.2005 56.8197 11.2027C56.8429 11.2098 56.8188 11.191 56.844 11.1993C56.9023 11.2186 57.08 11.3113 56.9858 11.2405C56.9735 11.2314 56.7668 11.1221 56.7846 11.1125C56.7919 11.1088 56.8027 11.0807 56.82 11.0807C56.8373 11.0806 56.9006 11.1218 56.9038 11.1229C57.002 11.1509 57.0341 11.1782 57.169 11.2391C57.3033 11.2998 56.9943 11.1343 56.9622 11.1115C56.9301 11.0888 57.0102 11.1137 57.0372 11.1239C57.0642 11.1341 57.1038 11.1615 57.1197 11.1661C57.2239 11.1959 56.9721 11.0734 56.9271 11.0398C56.8204 10.9603 57.0554 11.0724 57.0859 11.0697C57.0941 11.069 57.0404 11.0439 57.0375 11.0376C57.0267 11.0132 57.1026 11.0436 57.0462 10.9917C57.037 10.9833 56.907 10.8952 57.0123 10.9418C57.0274 10.9485 57.0824 10.983 57.0985 10.9839C57.1225 10.9853 57.1439 10.9758 57.1302 10.9557C57.1201 10.9408 57.0219 10.8978 57.0559 10.9047C57.0711 10.9078 57.1218 10.9452 57.1458 10.9485C57.1697 10.9518 57.1778 10.9313 57.1799 10.923C57.182 10.9146 57.1088 10.8798 57.1043 10.8766C57.0789 10.858 57.0523 10.8253 57.053 10.8241C57.0785 10.7569 57.2297 10.7649 57.2233 10.6825C57.2229 10.6761 57.1462 10.6383 57.1454 10.6369C57.1229 10.6034 57.3151 10.7252 57.388 10.7503C57.235 10.6688 57.2663 10.6771 57.2559 10.6565C57.2507 10.6465 57.1902 10.6173 57.1845 10.6135C57.0996 10.5564 57.2182 10.6138 57.2426 10.6253C57.3325 10.6673 57.233 10.6053 57.2931 10.6333C57.3528 10.6612 57.4336 10.7164 57.4386 10.7048C57.3858 10.672 57.2392 10.6024 57.2207 10.5814C57.1508 10.5021 57.2946 10.5042 57.3201 10.4851C57.3455 10.4661 57.34 10.4525 57.3677 10.4484C57.4179 10.4412 57.307 10.3933 57.2678 10.3503C57.2286 10.3073 57.4837 10.4574 57.5408 10.4855C57.5979 10.5137 57.5419 10.4797 57.5741 10.4935C57.6064 10.5074 57.6409 10.5345 57.6561 10.5339C57.6714 10.5334 57.5824 10.4604 57.5254 10.426C57.4045 10.3533 57.2702 10.2908 57.3257 10.2976C57.329 10.298 57.3954 10.3388 57.4044 10.3385C57.4743 10.3356 57.4955 10.3045 57.5593 10.2983C57.5682 10.2976 57.642 10.343 57.648 10.343C57.711 10.3432 57.5778 10.2826 57.4435 10.1903C57.631 10.2971 57.7511 10.3525 57.7632 10.3331C57.7705 10.3215 57.6867 10.2783 57.6327 10.2387C57.6164 10.2267 57.6778 10.2493 57.6398 10.2265C57.5155 10.1519 57.3689 10.0821 57.4368 10.0924C57.44 10.093 57.508 10.1339 57.5139 10.1331C57.5525 10.128 57.4209 10.0529 57.4168 10.0222C57.4135 9.99821 57.5112 10.0121 57.535 9.99982C57.7476 10.1166 57.709 10.0716 57.5663 9.98384C57.5793 9.97447 57.5784 9.95627 57.6054 9.95514C57.6146 9.95471 57.6747 9.99118 57.6817 9.99429C57.7905 10.0433 57.6508 9.9597 57.6467 9.9539C57.6085 9.89456 57.7299 9.92962 57.6396 9.84355C57.6363 9.84046 57.4894 9.75799 57.6015 9.80947C57.6092 9.81305 57.6713 9.85916 57.6838 9.84872C57.6963 9.83829 57.7892 9.85658 57.7308 9.80067C57.7167 9.78719 57.6029 9.71026 57.7016 9.75248C57.715 9.75823 57.7567 9.78275 57.7812 9.79391C57.8595 9.82939 57.7118 9.74459 57.8423 9.8074C57.9729 9.8702 58.0755 9.90842 57.9981 9.84191C57.9958 9.83993 57.8798 9.77075 57.8849 9.76593C57.8931 9.75828 57.925 9.75851 57.9296 9.74834C57.9317 9.74345 57.8566 9.70621 57.8557 9.70467C57.8316 9.65073 57.9094 9.66425 57.9562 9.64618C57.965 9.64294 57.8744 9.57038 57.9602 9.60181C58.0542 9.63617 58.4078 9.84709 58.3383 9.76993C58.3105 9.73896 57.8609 9.47307 58.1102 9.58102C58.0745 9.50652 58.2174 9.53378 58.1567 9.44539C58.154 9.44145 58.0295 9.3655 58.0337 9.36196C58.0401 9.35684 58.1019 9.38586 58.1084 9.38325C58.1373 9.37316 58.0962 9.32695 58.1147 9.31207C58.1215 9.30635 58.1819 9.34269 58.1901 9.33587C58.1983 9.32903 58.1201 9.27874 58.1658 9.28843C58.2007 9.29591 58.3718 9.37795 58.3976 9.37673C58.2339 9.28657 58.2417 9.2803 58.2063 9.24219C58.1994 9.23483 58.1407 9.20658 58.1345 9.20148C58.108 9.18005 58.158 9.20099 58.1288 9.1784C58.1218 9.17296 58.0658 9.14227 58.0569 9.13609C57.9791 9.0824 58.1128 9.13719 58.1361 9.14676C58.2245 9.18303 58.154 9.13884 58.1907 9.14965C58.2274 9.16047 58.2626 9.19355 58.287 9.19612C58.3376 9.2014 58.3407 9.1743 58.3528 9.1582C58.3573 9.15159 58.28 9.11546 58.2789 9.11356C58.2678 9.08875 58.3553 9.11764 58.2108 9.02817C58.6013 9.22877 58.1782 8.99903 58.2666 9.02054C58.2737 9.02233 58.4569 9.11986 58.4803 9.14072C58.5035 9.16157 58.4414 9.13991 58.4784 9.17137C58.487 9.17877 58.6512 9.28385 58.6607 9.29111C58.7346 9.34785 58.4615 9.2008 58.4462 9.19329C58.2808 9.1126 58.4568 9.22751 58.4674 9.23824C58.5161 9.28737 58.4698 9.28114 58.5035 9.31834C58.5251 9.34249 58.7029 9.4409 58.6933 9.44535C58.6618 9.4602 58.4084 9.33282 58.6113 9.47402C58.6545 9.50416 58.852 9.60576 58.6891 9.53986C58.6788 9.5357 58.5314 9.47233 58.6159 9.52849C58.6265 9.53556 58.6833 9.56659 58.6874 9.57047C58.7136 9.59586 58.6652 9.5768 58.6818 9.59792C58.6984 9.61905 58.7246 9.64787 58.6995 9.64793C58.6845 9.64802 58.5743 9.59835 58.5467 9.58724C58.4674 9.55506 58.5846 9.63122 58.4914 9.58715C58.3976 9.54288 58.2655 9.45692 58.1991 9.43897C58.3463 9.52018 58.4971 9.60419 58.645 9.68617C58.6228 9.71431 58.5584 9.7187 58.548 9.75335C58.5468 9.75772 58.6283 9.79716 58.6291 9.80297C58.6321 9.82729 58.5673 9.81159 58.5799 9.84198C58.59 9.86567 58.6655 9.92693 58.6787 9.95313C58.505 9.86975 58.5504 9.9228 58.5264 9.93013C58.518 9.93274 58.4732 9.90771 58.4563 9.9036C58.3938 9.88867 58.5468 9.96331 58.568 9.98021C58.6587 10.0524 58.3202 9.86927 58.3173 9.89438C58.3171 9.89565 58.4897 10.0074 58.5 10.0154C58.5667 10.067 58.4363 9.98302 58.419 9.98304C58.3874 9.98306 58.3394 9.9688 58.3835 10.0133C58.3967 10.0263 58.5028 10.0986 58.4112 10.06C58.3993 10.055 58.3401 10.0218 58.3361 10.0208C58.2688 10.006 58.4554 10.1087 58.5134 10.153C58.5714 10.1973 58.4342 10.1417 58.3954 10.1244C58.2948 10.0797 58.3576 10.0958 58.3484 10.0902C58.2388 10.0237 58.2522 10.0452 58.2382 10.0483C58.0542 9.94928 58.0589 9.96696 58.2243 10.052C58.2424 10.0612 58.2289 10.0454 58.2382 10.0483C58.414 10.154 58.43 10.1794 58.2542 10.1016C58.1718 10.0652 58.0834 10.0087 58.106 10.0472C58.1162 10.0646 58.2443 10.1301 58.2743 10.157C58.3427 10.2183 58.2119 10.1779 58.2201 10.207C58.223 10.2176 58.2958 10.2487 58.3002 10.2572C58.3121 10.2799 58.2543 10.2626 58.2739 10.2897C58.2758 10.2922 58.3496 10.3289 58.3484 10.3334C58.3406 10.3675 58.2802 10.368 58.262 10.3981C58.2533 10.4128 58.2786 10.4612 58.2621 10.4723C58.234 10.4918 58.1108 10.4672 58.1238 10.5041C58.132 10.5279 58.2061 10.5642 58.2519 10.5976C58.3406 10.6622 58.1576 10.5904 58.1295 10.5789C58.1286 10.5785 58.1186 10.5563 58.0777 10.5429C57.9982 10.5046 58.1293 10.5786 58.1295 10.5789C58.1113 10.5715 58.0809 10.5881 58.0919 10.6008C58.098 10.6077 58.1673 10.6436 58.1692 10.6465C58.2117 10.7144 58.2103 10.7583 58.1593 10.7756C58.1575 10.7754 58.0814 10.7326 58.0783 10.7328C58.0332 10.7343 58.1199 10.7985 58.1665 10.8455C58.213 10.8926 58.1872 10.8956 58.0502 10.8334C58.06 10.855 57.9919 10.8412 57.951 10.8323C57.91 10.8233 58.0584 10.9063 58.0609 10.9089C58.1397 10.9889 58.0454 10.9586 58.016 10.9808C58.0017 10.9912 58.0082 11.0309 58.0162 11.055C58.0228 11.0741 57.9838 11.0622 58.0002 11.0855C58.0023 11.0886 58.0696 11.1235 58.0719 11.1253C58.1446 11.1811 57.9855 11.0864 57.9551 11.0731C57.8446 11.0246 57.7853 10.9996 57.8262 11.0425C57.8356 11.0524 58.0636 11.1909 58.0737 11.205C58.0863 11.2231 58.0043 11.174 58.0196 11.1941C58.0209 11.1958 58.0727 11.2239 58.0673 11.2283C58.0433 11.2488 57.9977 11.2605 57.9882 11.2903C57.9867 11.2942 58.0713 11.3344 58.0705 11.3408C58.0666 11.3711 58.0486 11.3967 57.9969 11.4C57.984 11.4006 57.9286 11.3655 57.9108 11.3575C57.8033 11.309 57.947 11.4023 57.9489 11.4057C57.9966 11.4895 57.8423 11.4494 57.8821 11.53C57.8846 11.5345 58.0349 11.6414 57.8924 11.5745C57.8829 11.5701 57.7374 11.5013 57.8297 11.5615C57.8355 11.5652 57.9109 11.5997 57.8985 11.6048C57.8862 11.6098 57.9266 11.651 57.84 11.6199C57.8127 11.6101 57.667 11.5426 57.7726 11.6157C57.78 11.6208 58.0235 11.7777 57.8451 11.6885C57.8157 11.6739 57.6312 11.5715 57.7184 11.6375C57.7353 11.6503 57.7793 11.668 57.8012 11.6892C57.8349 11.7218 57.7775 11.7091 57.8526 11.7676C57.8659 11.7779 57.9861 11.8566 57.8864 11.8124C57.8708 11.8055 57.8103 11.7693 57.8011 11.7697C57.757 11.7716 57.7868 11.8151 57.733 11.8121C57.714 11.8111 57.6161 11.7527 57.5853 11.7456C57.5544 11.7385 57.5204 11.7395 57.5617 11.7723C57.6031 11.8051 57.767 11.8837 57.7733 11.9024C57.8007 11.9838 57.6796 11.9834 57.638 12.027C57.6318 12.0334 57.6922 12.0583 57.6872 12.0701C57.6689 12.1135 57.6835 12.2138 57.5429 12.1833C57.4303 12.1589 57.3761 12.0825 57.3247 12.0828C57.3001 12.083 57.479 12.1957 57.4834 12.2014C57.529 12.2587 57.4376 12.2311 57.4505 12.2673C57.4531 12.2747 57.5307 12.3112 57.5321 12.3172C57.5378 12.3377 57.4966 12.3335 57.4957 12.3497C57.4954 12.3571 57.5533 12.3874 57.546 12.3902C57.5291 12.3975 57.4989 12.3956 57.4384 12.3786C57.4329 12.377 57.3658 12.3304 57.358 12.3383C57.3456 12.3513 57.2823 12.3412 57.3275 12.3886C57.3411 12.4028 57.4719 12.4746 57.3754 12.4363C57.3552 12.4283 57.1996 12.3393 57.3284 12.4266C57.3498 12.4411 57.5211 12.5632 57.3971 12.5093C57.3645 12.4951 57.2318 12.4319 57.2487 12.4492C57.2514 12.4518 57.3236 12.4869 57.3277 12.4959C57.3406 12.5266 57.3227 12.5416 57.3345 12.5724C57.3378 12.5807 57.4146 12.613 57.4172 12.6241C57.4244 12.6547 57.3919 12.6701 57.3582 12.6777C57.3456 12.6804 57.2881 12.6423 57.2812 12.6392C57.1698 12.5895 57.311 12.6734 57.3179 12.6809C57.3584 12.7262 57.2833 12.7028 57.2922 12.729C57.2945 12.7362 57.3649 12.7705 57.3706 12.7748C57.4253 12.8169 57.3058 12.7424 57.2889 12.7409C57.2413 12.7365 57.2367 12.758 57.2363 12.7796C57.2363 12.7876 57.3197 12.8242 57.3187 12.8309C57.3145 12.8711 57.2883 12.901 57.2269 12.909C57.2152 12.9104 57.1559 12.8731 57.1412 12.8667C57.0385 12.8217 57.1652 12.9075 57.1764 12.9174C57.2273 12.9625 57.1702 12.9379 57.1739 12.9552C57.193 13.04 57.1185 13.091 57.0667 13.1328C56.9997 13.1876 56.9115 13.2103 56.8899 13.2857C56.8885 13.2904 56.9724 13.3308 56.9722 13.3354C56.9659 13.3937 56.9085 13.423 56.906 13.4834C56.9057 13.4883 56.9861 13.525 56.9881 13.5342C56.9929 13.5535 56.9798 13.5675 56.948 13.567C56.9326 13.5668 56.8709 13.522 56.8568 13.5226C56.8237 13.5238 56.8095 13.5367 56.8136 13.5588C56.8155 13.5683 56.8999 13.6017 56.8962 13.6107C56.8726 13.6724 56.8554 13.7364 56.7212 13.7384C56.712 13.7386 56.5493 13.6541 56.5755 13.6794C56.6197 13.7045 56.6722 13.7332 56.7198 13.7595C56.6997 13.8573 56.5987 13.9096 56.5441 13.9888C56.5419 13.9922 56.6304 14.0326 56.6264 14.0394C56.6035 14.0783 56.606 14.1297 56.4991 14.124C56.4887 14.1235 56.3399 14.0394 56.3561 14.0637C56.3591 14.068 56.3693 14.0968 56.3993 14.1192C56.4039 14.1226 56.4756 14.1576 56.4745 14.1644C56.4668 14.2037 56.4317 14.23 56.3707 14.24C56.3607 14.2415 56.2894 14.1951 56.2816 14.1958C56.2272 14.2014 56.2676 14.262 56.1858 14.251C56.1307 14.2435 56.0055 14.1666 55.8737 14.1065C55.8551 14.0981 55.8463 14.1073 55.7723 14.0675C55.5861 13.9675 55.3859 13.8512 55.187 13.7453C55.1442 13.7224 55.1822 13.762 55.084 13.6971C55.0774 13.6928 55.049 13.6636 55.0155 13.642C54.9924 13.627 54.9156 13.5892 54.8867 13.5686C54.8579 13.5481 54.9229 13.5784 54.89 13.5525C54.8565 13.5264 54.7698 13.4824 54.7663 13.4647ZM57.7677 10.7926C57.6909 10.763 57.9525 10.9079 57.8954 10.8632C57.8923 10.8609 57.7715 10.794 57.7677 10.7926ZM58.3606 9.61026C58.238 9.55948 58.4035 9.66115 58.4977 9.7012C58.5919 9.7412 58.3978 9.62564 58.3606 9.61026ZM58.3472 9.43411C58.2479 9.39884 58.6188 9.60468 58.5521 9.54785C58.5484 9.54461 58.353 9.43615 58.3472 9.43411ZM55.861 14.0439C55.8575 14.0421 55.8498 14.048 55.8532 14.0501C55.9343 14.0998 55.9495 14.088 55.861 14.0439ZM58.3257 9.25485C58.2729 9.23189 58.3238 9.27684 58.3895 9.30539C58.4423 9.32836 58.3914 9.28341 58.3257 9.25485ZM57.2142 11.1394C57.2102 11.1374 57.2037 11.141 57.2258 11.153C57.2972 11.1915 57.2814 11.1728 57.2142 11.1394ZM58.4413 9.03337C58.4096 9.05808 58.0915 8.90959 58.1454 8.8933C58.1552 8.89035 58.2359 8.96068 58.2681 8.96771C58.3267 8.98045 58.1391 8.86501 58.2508 8.90641C58.2713 8.91401 58.4438 9.03233 58.4417 9.03366C58.4416 9.03356 58.4414 9.03346 58.4413 9.03337ZM57.4495 10.6257C57.446 10.624 57.4385 10.6299 57.4418 10.6319C57.5228 10.6817 57.538 10.6698 57.4495 10.6257ZM56.8746 11.3749C56.867 11.3712 56.8503 11.3853 56.8568 11.3896C56.9879 11.4734 57.0221 11.4452 56.8746 11.3749ZM57.5409 10.0026C57.4617 9.94838 57.4573 9.93294 57.5662 9.98382C57.556 9.9891 57.5506 9.99705 57.5409 10.0026ZM59.0008 23.3571C59.0495 23.3556 59.0819 23.407 59.0978 23.4608C59.1028 23.4775 59.0703 23.5199 59.0726 23.5335C59.0771 23.5601 59.1042 23.5459 59.1065 23.5757C59.1071 23.5859 59.0584 23.6546 59.06 23.6635C59.0693 23.7121 59.1068 23.7094 59.1262 23.7415C59.2219 23.9002 59.3439 24.0087 59.4666 24.1255C59.5071 24.1639 59.5253 24.2631 59.5907 24.2629C59.5983 24.2629 59.6324 24.1974 59.6366 24.1928C59.7006 24.1226 59.6195 24.2475 59.6204 24.271C59.6245 24.364 59.6696 24.3985 59.7261 24.3988C59.7503 24.3987 59.8067 24.262 59.783 24.3434C59.7814 24.349 59.7371 24.4137 59.7378 24.4238C59.7394 24.4465 59.7676 24.4469 59.773 24.4573C59.7834 24.4778 59.7865 24.4787 59.8018 24.4888C59.8223 24.5031 59.8281 24.5516 59.8602 24.55C59.8671 24.5494 59.9014 24.4765 59.9162 24.4693C59.9309 24.4622 59.9483 24.4803 59.9457 24.5007C59.9431 24.5212 59.908 24.5737 59.9019 24.5869C59.8502 24.698 59.96 24.5666 59.9653 24.5649C60.0578 24.5368 60.0573 24.6482 60.1103 24.6792C60.1507 24.7025 60.2098 24.7005 60.2459 24.7268C60.2886 24.7584 60.3052 24.8186 60.3532 24.8382C60.3582 24.8404 60.4007 24.7559 60.4069 24.7584C60.4731 24.7847 60.528 24.829 60.556 24.9194C60.5588 24.9286 60.5089 24.9953 60.5092 25.0087C60.5116 25.0892 60.4871 25.2646 60.6923 24.9669C60.7102 24.9938 60.7333 25.0243 60.7188 25.1001C60.7095 25.149 60.6496 25.2184 60.6869 25.1957C60.6953 25.1907 60.7302 25.1195 60.7397 25.1172C60.7797 25.1072 60.7943 25.1456 60.8401 25.1252C60.8495 25.1209 60.884 25.059 60.8919 25.0489C60.9565 24.9671 60.89 25.126 60.8881 25.1393C60.8746 25.2387 60.9176 25.2218 60.9476 25.2422C60.9546 25.2469 60.9943 25.1599 61.0028 25.1616C61.0458 25.1712 61.0791 25.2003 61.0931 25.2575C61.0961 25.2704 61.0477 25.3359 61.047 25.3457C61.0445 25.3878 61.1259 25.2582 61.125 25.296C61.1249 25.3038 61.0878 25.3625 61.0846 25.3694C61.0334 25.478 61.1278 25.337 61.1321 25.3352C61.1893 25.3096 61.1193 25.4736 61.1622 25.4698C61.1674 25.4692 61.2038 25.3888 61.2157 25.3917C61.2955 25.4106 61.3545 25.4734 61.3856 25.5732C61.3905 25.5887 61.3496 25.6411 61.3461 25.6485C61.2923 25.7641 61.3856 25.6216 61.3922 25.6181C61.4423 25.5941 61.3948 25.7317 61.5159 25.5678C61.5932 25.6951 61.7635 25.6634 61.7834 25.8859C61.7838 25.8885 61.7387 25.9592 61.7396 25.9642C61.7499 26.0249 61.8095 25.9088 61.913 25.785C61.939 25.7539 61.8587 25.9298 61.8531 25.9428C61.8323 25.9909 61.7632 26.0948 61.76 26.1046C61.7354 26.1818 61.9422 25.8252 61.9632 25.8374C61.9635 25.8384 61.9222 25.9021 61.9201 25.9097C61.9136 25.9333 61.9343 25.9105 61.9264 25.9361C61.9079 25.9954 61.8105 26.1705 61.8884 26.0811C61.8984 26.0695 62.0136 25.8659 62.0266 25.8864C62.0318 25.8948 62.0668 25.9108 62.0683 25.9293C62.0698 25.9478 62.0252 26.0089 62.0242 26.0121C61.9985 26.1126 61.9681 26.1426 61.9056 26.277C61.8434 26.411 62.018 26.107 62.0429 26.0763C62.0678 26.0457 62.0443 26.1273 62.0343 26.1545C62.0242 26.1818 61.9943 26.2197 61.9901 26.236C61.9628 26.3426 62.09 26.093 62.127 26.0502C62.2144 25.9488 62.0984 26.1821 62.1042 26.2152C62.1058 26.2241 62.1317 26.1706 62.139 26.1685C62.1677 26.1609 62.1373 26.2371 62.1954 26.1851C62.2049 26.1766 62.3008 26.0517 62.2532 26.1568C62.2463 26.1719 62.2091 26.2252 62.2094 26.2422C62.2097 26.2676 62.2231 26.292 62.2463 26.2805C62.2635 26.2721 62.3073 26.174 62.3019 26.2093C62.2994 26.225 62.2583 26.2733 62.2564 26.2984C62.2543 26.3234 62.2799 26.3353 62.2902 26.3389C62.3005 26.3424 62.3366 26.2697 62.3401 26.2654C62.3605 26.2412 62.398 26.2179 62.3995 26.2189C62.4831 26.2568 62.4863 26.4171 62.5858 26.4233C62.5935 26.4239 62.6329 26.348 62.6345 26.3473C62.6732 26.3286 62.5417 26.5146 62.5175 26.5885C62.6034 26.438 62.596 26.4701 62.6201 26.4622C62.6318 26.4583 62.6621 26.3983 62.6662 26.3928C62.7283 26.3111 62.6687 26.4287 62.6568 26.453C62.6134 26.5424 62.6803 26.446 62.6513 26.5057C62.6226 26.5651 62.5624 26.6427 62.5769 26.6498C62.6123 26.5987 62.6843 26.453 62.7082 26.4365C62.7985 26.3744 62.8082 26.5278 62.8335 26.558C62.8587 26.5882 62.8748 26.5844 62.882 26.6147C62.8951 26.6694 62.9438 26.5586 62.9926 26.5235C63.0415 26.4884 62.8811 26.7373 62.8518 26.7938C62.8224 26.8503 62.8589 26.7959 62.8448 26.8281C62.8307 26.8604 62.8009 26.893 62.8028 26.9094C62.8048 26.9257 62.8858 26.8422 62.9226 26.7867C63.0006 26.6691 63.0651 26.5355 63.0615 26.5937C63.0613 26.5971 63.0175 26.6616 63.0185 26.6714C63.028 26.7465 63.0675 26.7741 63.0805 26.8432C63.0822 26.8528 63.0333 26.9245 63.0338 26.9309C63.0389 26.9982 63.1012 26.8655 63.2017 26.7366C63.088 26.92 63.0311 27.0396 63.0556 27.0556C63.0703 27.0652 63.1156 26.9825 63.1591 26.9311C63.1722 26.9156 63.1501 26.9776 63.1745 26.9406C63.2545 26.8196 63.3267 26.674 63.3199 26.7449C63.3195 26.7482 63.2756 26.8144 63.2771 26.8209C63.2866 26.8629 63.3666 26.7342 63.4034 26.7346C63.4323 26.735 63.4238 26.8372 63.4407 26.8646C63.317 27.0732 63.3684 27.039 63.4627 26.9005C63.4752 26.9158 63.4972 26.9178 63.5009 26.9468C63.5022 26.9568 63.463 27.0152 63.4598 27.0221C63.4096 27.1307 63.4992 26.9946 63.5059 26.9912C63.5747 26.9597 63.5424 27.0839 63.6392 27.001C63.6427 26.9981 63.7303 26.8541 63.6773 26.9657C63.6736 26.9734 63.6229 27.0325 63.6367 27.0474C63.6504 27.0624 63.6361 27.1589 63.699 27.1053C63.7141 27.0924 63.7978 26.983 63.755 27.0818C63.7491 27.0952 63.7229 27.1358 63.7115 27.1603C63.675 27.2383 63.7654 27.0939 63.7003 27.2234C63.6351 27.3529 63.5975 27.4565 63.6716 27.3843C63.6738 27.3823 63.7479 27.2693 63.7542 27.2755C63.7642 27.2854 63.7666 27.3195 63.7794 27.326C63.7855 27.3291 63.8243 27.2547 63.8261 27.2539C63.8895 27.2368 63.8797 27.3178 63.9056 27.3707C63.9103 27.3805 63.9906 27.2952 63.9598 27.3819C63.926 27.4769 63.7001 27.8213 63.7878 27.7593C63.8231 27.7345 64.1076 27.2963 63.9977 27.5455C64.0851 27.5192 64.0642 27.6675 64.1663 27.6166C64.1708 27.6144 64.2524 27.4934 64.2571 27.4984C64.2638 27.5062 64.2339 27.5675 64.2376 27.5749C64.2523 27.6074 64.3049 27.5708 64.3245 27.5929C64.332 27.6011 64.293 27.6599 64.302 27.6697C64.311 27.6795 64.3654 27.604 64.3575 27.6513C64.3514 27.6873 64.2664 27.8572 64.2701 27.885C64.3656 27.7243 64.3738 27.7337 64.4171 27.7019C64.4254 27.6957 64.4547 27.6374 64.4604 27.6316C64.4841 27.6067 64.463 27.6568 64.4879 27.6291C64.4939 27.6225 64.5264 27.5676 64.5332 27.559C64.5917 27.4844 64.5366 27.6186 64.5269 27.6419C64.4904 27.7306 64.5381 27.6624 64.5281 27.6999C64.518 27.7374 64.4809 27.7697 64.4798 27.7954C64.4777 27.8487 64.5109 27.8562 64.5314 27.8718C64.5399 27.8776 64.5771 27.8007 64.5793 27.7998C64.6085 27.7919 64.5809 27.8809 64.6772 27.7406C64.4669 28.1261 64.7098 27.7104 64.6912 27.8014C64.6896 27.8088 64.5868 27.9891 64.5635 28.0107C64.5401 28.0323 64.5612 27.9693 64.5261 28.0038C64.5179 28.0119 64.4043 28.1707 64.3963 28.1796C64.3337 28.2496 64.489 27.9811 64.4968 27.966C64.5807 27.802 64.4562 27.9718 64.444 27.9815C64.3885 28.0258 64.3922 27.9773 64.3499 28.0073C64.3224 28.0267 64.2181 28.201 64.2119 28.1901C64.1912 28.154 64.3243 27.9035 64.1701 28.0979C64.1372 28.1393 64.0307 28.3343 64.0968 28.1706C64.101 28.1603 64.1654 28.0128 64.1044 28.0941C64.0967 28.1044 64.0639 28.1602 64.0595 28.1639C64.0309 28.1879 64.05 28.1392 64.0257 28.1536C64.0015 28.168 63.9688 28.1914 63.9666 28.1646C63.9652 28.1486 64.0161 28.0386 64.0272 28.0109C64.0596 27.9313 63.9771 28.0445 64.0226 27.9518C64.0684 27.8587 64.1615 27.7311 64.1777 27.663C64.0916 27.8075 64.0025 27.9552 63.9155 28.1002C63.8795 28.0721 63.8687 28.0027 63.8258 27.986C63.8204 27.984 63.7794 28.0648 63.7724 28.0648C63.7432 28.0642 63.7567 27.9974 63.7209 28.006C63.693 28.0131 63.6251 28.0841 63.5944 28.094C63.6809 27.9216 63.6203 27.9618 63.6094 27.9349C63.6055 27.9256 63.6321 27.8816 63.6356 27.8642C63.6485 27.7998 63.5709 27.9514 63.5522 27.9714C63.4722 28.0569 63.6658 27.7243 63.635 27.7172C63.6335 27.7167 63.5125 27.8835 63.5037 27.8931C63.4467 27.9562 63.5376 27.8302 63.5361 27.8117C63.5334 27.778 63.5466 27.7289 63.4964 27.7691C63.4816 27.781 63.4029 27.883 63.442 27.7913C63.4471 27.7793 63.4824 27.7213 63.4832 27.7172C63.4955 27.6476 63.3867 27.8308 63.3379 27.8858C63.289 27.9407 63.3449 27.8029 63.3625 27.7641C63.4082 27.6638 63.394 27.7283 63.4 27.7194C63.4715 27.6128 63.4465 27.6237 63.4415 27.6082C63.5461 27.4274 63.525 27.4295 63.4359 27.5928C63.4262 27.6107 63.4442 27.5987 63.4415 27.6082C63.3282 27.7793 63.2987 27.7924 63.3782 27.6169C63.4154 27.5347 63.4764 27.4492 63.4316 27.4672C63.4114 27.4753 63.3428 27.6018 63.3127 27.6296C63.244 27.693 63.282 27.5596 63.2474 27.5637C63.2348 27.5652 63.2033 27.638 63.1933 27.6414C63.1667 27.6505 63.1828 27.5914 63.1516 27.6082C63.1488 27.6098 63.1104 27.6828 63.105 27.6808C63.0628 27.6671 63.0572 27.6025 63.019 27.5783C63.0005 27.5666 62.9438 27.586 62.929 27.5666C62.903 27.5335 62.9223 27.4057 62.8787 27.4138C62.8504 27.4188 62.8127 27.4922 62.7761 27.5358C62.7053 27.6204 62.7768 27.4362 62.7884 27.408C62.7888 27.4071 62.8148 27.3999 62.8277 27.3584C62.8675 27.2795 62.7888 27.4078 62.7884 27.408C62.7959 27.3898 62.773 27.3546 62.7586 27.3644C62.7507 27.3698 62.713 27.4382 62.7097 27.4397C62.6309 27.4744 62.5775 27.466 62.5522 27.4087C62.5523 27.4068 62.5978 27.3323 62.5973 27.329C62.5917 27.2805 62.5211 27.363 62.468 27.4053C62.4148 27.4476 62.409 27.4195 62.4728 27.283C62.4474 27.29 62.4584 27.2195 62.4658 27.1771C62.4732 27.1348 62.385 27.2802 62.3821 27.2824C62.2917 27.354 62.3204 27.258 62.291 27.223C62.2771 27.2062 62.2296 27.2068 62.201 27.2115C62.1783 27.2155 62.1895 27.1758 62.1626 27.1895C62.159 27.1914 62.1224 27.2577 62.1204 27.2599C62.0588 27.3288 62.1603 27.1737 62.1739 27.1433C62.2233 27.0329 62.2487 26.9736 62.2 27.0105C62.1889 27.019 62.0401 27.2407 62.0239 27.2492C62.0029 27.2598 62.0556 27.1799 62.0324 27.1931C62.0305 27.1942 62.0008 27.2451 61.9951 27.2387C61.9682 27.2097 61.95 27.1592 61.9131 27.1443C61.9082 27.1421 61.8666 27.2261 61.8587 27.2242C61.8217 27.2153 61.7891 27.192 61.7807 27.1363C61.7788 27.1223 61.8168 27.0687 61.825 27.051C61.8747 26.9438 61.7737 27.0826 61.7697 27.084C61.672 27.1217 61.7076 26.9632 61.6132 26.993C61.6079 26.9949 61.4909 27.1386 61.56 26.997C61.5646 26.9875 61.6357 26.8429 61.5706 26.932C61.5665 26.9376 61.531 27.0127 61.5238 26.9987C61.5166 26.9847 61.4701 27.0214 61.5005 26.9338C61.51 26.9062 61.5797 26.7611 61.4998 26.8624C61.4943 26.8695 61.3246 27.1049 61.4176 26.9283C61.433 26.8992 61.5415 26.7183 61.4688 26.801C61.4547 26.8171 61.437 26.8612 61.4131 26.8813C61.3764 26.9122 61.3869 26.8528 61.3223 26.9238C61.3109 26.9364 61.2257 27.0524 61.2709 26.9529C61.2779 26.9373 61.3167 26.8784 61.3154 26.8684C61.3094 26.821 61.2591 26.846 61.2582 26.7889C61.2578 26.7688 61.3203 26.6735 61.3263 26.6416C61.3324 26.6098 61.3282 26.5733 61.2919 26.6123C61.2556 26.6513 61.1742 26.814 61.152 26.8177C61.0556 26.8341 61.0458 26.7047 60.9894 26.6534C60.981 26.6457 60.9559 26.7064 60.9412 26.6991C60.8869 26.6727 60.7665 26.6724 60.7916 26.527C60.8117 26.4105 60.8998 26.3648 60.895 26.3098C60.8927 26.2835 60.7711 26.4568 60.7645 26.4606C60.6989 26.5002 60.7246 26.4069 60.6818 26.4149C60.673 26.4166 60.6353 26.4937 60.6282 26.4943C60.6037 26.4971 60.6053 26.4537 60.5856 26.4502C60.5766 26.4488 60.5448 26.5058 60.5407 26.4975C60.5304 26.4784 60.5302 26.4464 60.5457 26.3845C60.5472 26.3788 60.598 26.3145 60.5877 26.3049C60.5709 26.2896 60.5778 26.2236 60.5241 26.2643C60.5081 26.2766 60.432 26.405 60.4703 26.308C60.4783 26.2877 60.5731 26.1355 60.4781 26.2592C60.4623 26.2798 60.3287 26.4435 60.3836 26.3196C60.398 26.287 60.4634 26.1553 60.4439 26.1705C60.4409 26.173 60.4045 26.2446 60.394 26.2475C60.3577 26.2565 60.338 26.235 60.3017 26.2427C60.2919 26.2449 60.2592 26.3219 60.2459 26.3229C60.2095 26.3257 60.188 26.2885 60.1759 26.2513C60.1716 26.2374 60.2129 26.182 60.216 26.1752C60.2669 26.064 60.1771 26.2016 60.1686 26.2077C60.117 26.2439 60.1391 26.1673 60.108 26.1727C60.0996 26.174 60.0638 26.2438 60.0592 26.2492C60.0127 26.301 60.0929 26.185 60.0933 26.1673C60.0947 26.1171 60.0682 26.1088 60.0419 26.105C60.0322 26.1036 59.9948 26.187 59.9867 26.1849C59.9374 26.174 59.8989 26.1412 59.8841 26.0744C59.8813 26.0616 59.9216 26.0042 59.9282 25.9896C59.974 25.8869 59.8806 26.0087 59.8696 26.0191C59.8192 26.0663 59.8441 26.0092 59.8235 26.0105C59.7222 26.0175 59.654 25.9297 59.5988 25.8678C59.5267 25.7875 59.4916 25.6896 59.3983 25.6546C59.3924 25.6523 59.3506 25.7356 59.3449 25.7347C59.2737 25.7187 59.2333 25.6527 59.1597 25.6405C59.1538 25.6393 59.1161 25.7195 59.105 25.7202C59.082 25.7222 59.0639 25.706 59.0619 25.6721C59.0608 25.6557 59.1099 25.5968 59.108 25.5817C59.1037 25.5462 59.0868 25.529 59.0604 25.5298C59.0491 25.5303 59.0156 25.6153 59.0045 25.6099C58.9275 25.5749 58.8485 25.5463 58.8346 25.4026C58.8336 25.3927 58.9223 25.2323 58.8938 25.2563C58.8672 25.2996 58.8368 25.3511 58.8089 25.3978C58.6885 25.3608 58.6164 25.2446 58.5157 25.1738C58.5114 25.1708 58.4698 25.259 58.4613 25.2536C58.4121 25.223 58.3499 25.2175 58.3479 25.1043C58.3476 25.0931 58.4369 24.9475 58.4089 24.961C58.4038 24.9635 58.3698 24.9698 58.3451 24.9984C58.3415 25.0027 58.3051 25.0738 58.2967 25.0715C58.2484 25.0571 58.2135 25.0154 58.1961 24.9486C58.1934 24.9377 58.2438 24.8689 58.2422 24.8604C58.2308 24.8014 58.1607 24.835 58.1671 24.7493C58.1715 24.6916 58.2542 24.57 58.3159 24.4387C58.3246 24.4201 58.3127 24.4093 58.3546 24.3365C58.4602 24.1534 58.5843 23.9579 58.6961 23.7622C58.7201 23.7201 58.6754 23.7544 58.7457 23.6597C58.7505 23.6534 58.7834 23.6277 58.8069 23.5953C58.8231 23.573 58.8624 23.4969 58.8849 23.4693C58.9074 23.4417 58.8761 23.5065 58.9048 23.4753C58.9337 23.4438 58.9797 23.358 59.0008 23.3571ZM62.4984 26.9876C62.5278 26.9102 62.3741 27.1668 62.4235 27.1128C62.4261 27.1099 62.497 26.9914 62.4984 26.9876ZM63.9835 27.8084C64.0347 27.6855 63.9254 27.8462 63.8848 27.9406C63.8442 28.0348 63.968 27.8457 63.9835 27.8084ZM64.1961 27.822C64.2305 27.7215 64.0122 28.0852 64.0755 28.023C64.0791 28.0195 64.1941 27.8278 64.1961 27.822ZM58.3909 24.4351C58.3927 24.4316 58.3849 24.4225 58.3827 24.4257C58.3292 24.5045 58.3449 24.5226 58.3909 24.4351ZM64.4118 27.8275C64.4352 27.7747 64.385 27.8219 64.3559 27.8876C64.3325 27.9404 64.3828 27.8932 64.4118 27.8275ZM62.0305 26.3412C62.0326 26.3373 62.0277 26.3297 62.015 26.3515C61.9743 26.4216 61.9956 26.4077 62.0305 26.3412ZM64.6904 27.9861C64.6578 27.9483 64.811 27.6319 64.8353 27.6921C64.8397 27.703 64.7612 27.7781 64.7554 27.8114C64.7449 27.872 64.8691 27.6899 64.8284 27.8027C64.8209 27.8233 64.6919 27.9889 64.6901 27.9864C64.6902 27.9863 64.6903 27.9862 64.6904 27.9861ZM62.6739 26.6741C62.6757 26.6705 62.6679 26.6616 62.6656 26.6648C62.6122 26.7435 62.6278 26.7616 62.6739 26.6741ZM61.7159 25.941C61.7197 25.9335 61.7012 25.9134 61.6965 25.9197C61.6059 26.0465 61.6431 26.0874 61.7159 25.941ZM63.4378 26.8704C63.4969 26.7943 63.5152 26.7921 63.4627 26.9004C63.4555 26.8887 63.4454 26.8817 63.4378 26.8704Z" fill="#B92E2D"/>
</svg>
