<svg width="62" height="44" viewBox="0 0 62 44" fill="none" xmlns="http://www.w3.org/2000/svg">
<path d="M28.1478 6.20771L29.4495 3.45953L31.4787 4.43382C31.5655 4.47414 31.6656 4.4943 31.7591 4.4943C31.9994 4.4943 32.233 4.35991 32.3465 4.12474C32.5 3.80221 32.3665 3.4125 32.0394 3.25795L29.4294 2.00817C29.4294 2.00817 29.4294 2.00817 29.4228 2.00817C29.4161 2.00817 29.4228 2.00817 29.4161 2.00817L26.8128 0.751669C26.4924 0.597126 26.1052 0.731512 25.9517 1.06076C25.7981 1.38328 25.9316 1.773 26.2587 1.92754L28.288 2.90183L26.9863 5.65001C18.0015 1.72596 7.44143 5.65001 3.19602 14.6202C3.04249 14.9427 3.17599 15.3325 3.50308 15.487H3.50975L35.3637 30.7599C35.4504 30.8002 35.5506 30.8204 35.644 30.8204C35.8843 30.8204 36.118 30.686 36.2314 30.4508C40.4635 21.4806 36.8389 10.7499 28.1478 6.20771ZM27.013 7.08793C35.2836 11.0523 38.9082 20.9027 35.3169 29.2951L4.65121 14.5933C8.86324 6.50336 18.7492 3.12357 27.013 7.08793ZM13.8896 21.1715C13.616 20.943 13.2088 20.9834 12.9818 21.2589C12.1341 22.3003 12.5012 23.1604 12.9151 23.8861C13.1153 24.2422 13.2956 24.7394 13.0018 25.0687C12.7615 25.3374 12.7816 25.7473 13.0486 25.9892C13.1754 26.1034 13.3289 26.1572 13.4825 26.1572C13.6627 26.1572 13.8362 26.0833 13.9631 25.9422C14.5905 25.2434 14.6172 24.2556 14.0365 23.241C13.6627 22.5825 13.6894 22.4482 13.9831 22.092C14.2034 21.8098 14.1633 21.4 13.8896 21.1715ZM17.4742 24.5714C17.2005 24.343 16.7933 24.3833 16.5664 24.6588C15.8455 25.539 16.2727 26.2781 16.4996 26.6813C16.5864 26.8291 16.7066 27.1046 16.5864 27.2457C16.3461 27.5145 16.3661 27.9244 16.6331 28.1663C16.76 28.2805 16.9135 28.3342 17.067 28.3342C17.2473 28.3342 17.4208 28.2603 17.5476 28.1192C18.0349 27.575 18.0616 26.8157 17.6211 26.0362C17.4141 25.6734 17.4208 25.66 17.561 25.492C17.7879 25.2098 17.7479 24.7999 17.4742 24.5714ZM10.2917 24.5714C10.018 24.343 9.61086 24.3833 9.3839 24.6588C8.66298 25.539 9.09019 26.2781 9.31715 26.6813C9.40393 26.8291 9.52408 27.1046 9.40393 27.2457C9.16362 27.5145 9.18365 27.9244 9.45065 28.1663C9.57748 28.2805 9.73101 28.3342 9.88454 28.3342C10.0648 28.3342 10.2383 28.2603 10.3652 28.1192C10.8524 27.575 10.8791 26.8157 10.4386 26.0362C10.2316 25.6734 10.2383 25.66 10.3785 25.492C10.6055 25.2098 10.5654 24.7999 10.2917 24.5714ZM26.2654 36.693H25.3643C25.3643 36.6796 25.3709 36.6594 25.3709 36.646C25.3709 35.329 24.4898 34.2203 23.2883 33.8843C23.3083 33.7567 23.315 33.6223 23.315 33.4879C23.315 31.9089 22.04 30.6255 20.4714 30.6255C20.0441 30.6255 19.6236 30.7263 19.2431 30.9077C18.6691 29.6311 17.3808 28.7508 15.9389 28.7508C14.9577 28.7508 14.0432 29.1473 13.3757 29.8259C12.855 29.0801 12.0006 28.5963 11.0393 28.5963C9.99134 28.5963 9.05682 29.1809 8.56286 30.0544C8.04887 29.752 7.46145 29.5907 6.86069 29.5907C5.00499 29.5907 3.4964 31.1093 3.4964 32.9772C3.4964 33.2729 3.53645 33.5618 3.60988 33.844C2.43505 34.0926 1.55393 35.1408 1.55393 36.3906C1.55393 36.4914 1.5606 36.5922 1.57395 36.693H0.646103C0.425823 36.693 0.225567 36.8072 0.105414 36.9886C-0.0147387 37.1768 -0.0347641 37.4052 0.0586883 37.6068C1.23352 40.2542 3.13594 41.1815 5.15184 42.1625C5.99291 42.5723 6.86736 43.0024 7.71511 43.5735C7.82191 43.6474 7.94874 43.6877 8.07557 43.6877H18.8493C18.9761 43.6877 19.1029 43.6474 19.2098 43.5735C20.0575 43.0024 20.9253 42.5723 21.773 42.1625C23.7822 41.1815 25.6847 40.2542 26.8662 37.6068C26.9529 37.4052 26.9396 37.1701 26.8194 36.9886C26.6926 36.8072 26.4857 36.693 26.2654 36.693ZM2.83556 36.3839C2.83556 35.6649 3.4163 35.0804 4.13054 35.0804C4.24402 35.0804 4.33747 35.0938 4.42425 35.114C4.68458 35.1879 4.96494 35.0871 5.11847 34.8654C5.272 34.6436 5.27867 34.348 5.12514 34.1195C4.89819 33.7768 4.77803 33.3804 4.77803 32.9638C4.77803 31.8148 5.70588 30.8808 6.84734 30.8808C7.43475 30.8808 7.97544 31.1227 8.37595 31.5595C8.54283 31.7409 8.80316 31.8148 9.04347 31.7409C9.28377 31.667 9.45733 31.4587 9.4907 31.2101C9.60418 30.4575 10.2583 29.8864 11.026 29.8864C11.807 29.8864 12.4678 30.4777 12.568 31.2571C12.6013 31.546 12.8283 31.7812 13.1153 31.8215C13.4024 31.8618 13.6827 31.7073 13.8029 31.4385C14.1767 30.5919 15.0111 30.0409 15.9322 30.0409C17.0804 30.0409 18.0683 30.901 18.2352 32.05C18.2686 32.2986 18.4421 32.5002 18.6824 32.5741C18.916 32.648 19.1764 32.5808 19.3499 32.3994C19.6436 32.0903 20.0375 31.9223 20.4714 31.9223C21.3258 31.9223 22.02 32.6211 22.02 33.4812C22.02 33.7096 21.9733 33.9381 21.8731 34.1531C21.7797 34.3547 21.793 34.5899 21.9132 34.778C22.0333 34.9661 22.2403 35.0804 22.4606 35.0804H22.5273C23.3817 35.0804 24.076 35.7792 24.076 36.6392C24.076 36.6527 24.0759 36.6728 24.0693 36.6863H2.87561C2.84891 36.5922 2.83556 36.4914 2.83556 36.3839ZM21.2056 40.9933C20.3712 41.3965 19.5168 41.8198 18.649 42.3842H8.26247C7.3947 41.8198 6.54028 41.3965 5.70588 40.9933C4.11719 40.2206 2.71541 39.5352 1.72748 37.9965H25.184C24.1961 39.5352 22.7876 40.2206 21.2056 40.9933Z" fill="#B92E2D"/>
<path d="M49.171 11.9039C49.1997 11.8662 49.2579 11.8752 49.3078 11.8981C49.3234 11.9052 49.3351 11.9573 49.3467 11.9644C49.3693 11.9783 49.3753 11.9486 49.399 11.9663C49.407 11.9724 49.4285 12.0538 49.4362 12.0584C49.4781 12.083 49.499 12.0529 49.535 12.0592C49.712 12.0901 49.8678 12.0686 50.03 12.0519C50.0835 12.0463 50.1688 12.097 50.2087 12.0476C50.2133 12.0418 50.1852 11.9735 50.1844 11.9674C50.1712 11.8734 50.2148 12.0158 50.2329 12.0304C50.3049 12.0878 50.3583 12.0761 50.3931 12.0337C50.4078 12.0154 50.3402 11.884 50.3865 11.9548C50.3897 11.9596 50.4109 12.0351 50.4189 12.0412C50.4368 12.0547 50.4544 12.0337 50.4655 12.0363C50.4871 12.0418 50.4897 12.0401 50.5066 12.0351C50.5298 12.0289 50.5697 12.0561 50.588 12.0308C50.5919 12.0252 50.5583 11.9519 50.562 11.9361C50.5658 11.9204 50.5899 11.9191 50.6036 11.9343C50.6172 11.9495 50.6351 12.0101 50.6412 12.0233C50.6925 12.1345 50.6616 11.9663 50.6635 11.9612C50.6991 11.8731 50.782 11.9459 50.8376 11.926C50.8798 11.9107 50.9144 11.8648 50.9561 11.8547C51.0059 11.843 51.061 11.8696 51.1051 11.8462C51.1098 11.8438 51.0726 11.7568 51.0783 11.7537C51.1384 11.7209 51.2052 11.7082 51.2899 11.7459C51.2984 11.7497 51.3177 11.8307 51.3279 11.8393C51.3895 11.8897 51.5055 12.0222 51.4087 11.6739C51.4398 11.6779 51.4766 11.6803 51.5244 11.7405C51.5552 11.7793 51.5705 11.8696 51.5763 11.8267C51.5777 11.8171 51.5459 11.7445 51.55 11.7358C51.567 11.6991 51.6046 11.7131 51.6174 11.6653C51.6199 11.6554 51.5949 11.5891 51.5921 11.5766C51.5706 11.4747 51.6486 11.6282 51.6573 11.6382C51.7234 11.713 51.737 11.6696 51.7706 11.6602C51.7784 11.658 51.7378 11.5715 51.7441 11.5662C51.7776 11.5399 51.8198 11.5337 51.871 11.5604C51.8825 11.5665 51.9019 11.6456 51.9087 11.6525C51.9387 11.6817 51.8916 11.5361 51.9194 11.5613C51.9252 11.5665 51.9462 11.6326 51.9494 11.6395C51.9993 11.7487 51.9517 11.5859 51.953 11.5814C51.9688 11.5217 52.0486 11.6811 52.0719 11.6463C52.0747 11.6419 52.0369 11.5622 52.0464 11.5551C52.1093 11.5072 52.1924 11.5035 52.2859 11.5449C52.3005 11.5512 52.3146 11.6161 52.318 11.6235C52.3714 11.7393 52.3221 11.5763 52.3235 11.569C52.3362 11.5156 52.41 11.6409 52.3616 11.4431C52.504 11.4674 52.5845 11.3184 52.7629 11.4479C52.7651 11.4494 52.7903 11.5293 52.7946 11.5319C52.8463 11.5635 52.796 11.4432 52.7669 11.2846C52.7596 11.2448 52.8418 11.4196 52.8481 11.4324C52.8713 11.4793 52.9067 11.599 52.912 11.6077C52.9546 11.6765 52.8148 11.2887 52.8367 11.2808C52.8377 11.2812 52.86 11.3538 52.8644 11.3602C52.878 11.3805 52.8737 11.3501 52.888 11.3727C52.9209 11.4252 52.9921 11.6125 52.973 11.4956C52.9705 11.4805 52.8889 11.2613 52.9122 11.2648C52.9216 11.2664 52.9549 11.2503 52.9697 11.2612C52.9844 11.272 53.0028 11.3455 53.0046 11.3483C53.0639 11.433 53.0677 11.4755 53.1299 11.6099C53.1919 11.7439 53.0717 11.4146 53.064 11.3759C53.0564 11.3372 53.1029 11.4079 53.1171 11.4332C53.1314 11.4585 53.1414 11.5058 53.151 11.5195C53.2139 11.6094 53.1053 11.3512 53.0959 11.2955C53.0737 11.1636 53.177 11.4028 53.2052 11.4199C53.2128 11.4245 53.1888 11.3702 53.1917 11.3633C53.2035 11.3367 53.2418 11.4092 53.2385 11.3315C53.238 11.3188 53.2034 11.1653 53.2527 11.2695C53.2598 11.2846 53.2769 11.3473 53.2897 11.3581C53.309 11.3744 53.3353 11.3801 53.341 11.3552C53.3452 11.3367 53.2988 11.2399 53.3218 11.2669C53.3321 11.279 53.343 11.3414 53.3605 11.3592C53.378 11.377 53.4025 11.3654 53.4115 11.3599C53.4204 11.3544 53.3882 11.28 53.3872 11.2745C53.3815 11.2434 53.3871 11.2 53.3887 11.1996C53.4682 11.161 53.5899 11.2628 53.6554 11.1918C53.6606 11.1864 53.6279 11.1073 53.6284 11.1057C53.6382 11.0643 53.6966 11.2844 53.737 11.3507C53.6772 11.1881 53.6966 11.2145 53.7055 11.1912C53.7097 11.1799 53.6834 11.118 53.6818 11.1113C53.6588 11.0114 53.7102 11.1328 53.7211 11.1575C53.7613 11.2484 53.7302 11.1352 53.7571 11.1959C53.7839 11.2562 53.805 11.352 53.8192 11.3457C53.8027 11.2857 53.7379 11.1367 53.7402 11.108C53.7491 10.9996 53.8695 11.0919 53.9076 11.0925C53.9456 11.0931 53.9526 11.0784 53.9797 11.0927C54.0285 11.1184 53.9756 11.0096 53.9792 10.9499C53.9829 10.8903 54.0707 11.1731 54.095 11.2319C54.1193 11.2908 54.1009 11.2279 54.1164 11.2595C54.1318 11.2911 54.1379 11.3348 54.1513 11.344C54.1648 11.3531 54.1519 11.2377 54.133 11.1739C54.0929 11.0386 54.0325 10.9031 54.0738 10.9436C54.0762 10.946 54.0976 11.021 54.1055 11.0265C54.1674 11.0682 54.2123 11.0563 54.2718 11.0915C54.28 11.0964 54.3037 11.1799 54.3088 11.1837C54.3622 11.2235 54.3011 11.0903 54.2663 10.9307C54.3338 11.1357 54.3883 11.2564 54.4153 11.2482C54.4315 11.2434 54.3974 11.1555 54.3856 11.0893C54.382 11.0693 54.4148 11.1263 54.4021 11.0838C54.3607 10.9448 54.2961 10.7957 54.3449 10.8469C54.3472 10.8494 54.3697 10.9255 54.3755 10.9286C54.4127 10.9488 54.3655 10.8048 54.3884 10.7772C54.4063 10.7557 54.4774 10.8285 54.5082 10.8336C54.5884 11.0625 54.5943 11.0015 54.5486 10.8403C54.5676 10.8409 54.5826 10.8255 54.6065 10.8416C54.6147 10.8471 54.6344 10.9146 54.6376 10.9215C54.688 11.03 54.6412 10.874 54.6427 10.8667C54.6613 10.7943 54.7343 10.8994 54.7316 10.7725C54.7315 10.7679 54.6776 10.6083 54.7286 10.7208C54.732 10.7285 54.7452 10.8052 54.7648 10.8046C54.7844 10.8039 54.8476 10.8774 54.8461 10.7951C54.8458 10.7753 54.8152 10.6411 54.8628 10.7376C54.8692 10.7507 54.8836 10.7969 54.8948 10.8215C54.9308 10.8996 54.8782 10.7376 54.9351 10.8709C54.992 11.0042 55.0464 11.1 55.0378 10.9971C55.0376 10.9941 54.9986 10.8648 55.007 10.8641C55.0206 10.863 55.0475 10.8833 55.0602 10.8779C55.0662 10.8753 55.0344 10.7977 55.0349 10.7958C55.0609 10.7369 55.1154 10.7969 55.1708 10.8117C55.181 10.8146 55.1665 10.6985 55.2124 10.7782C55.2627 10.8653 55.3817 11.2596 55.389 11.1531C55.3921 11.1104 55.2388 10.611 55.3577 10.8558C55.3916 10.7728 55.4896 10.885 55.5141 10.7749C55.5152 10.77 55.4747 10.6298 55.4813 10.6295C55.4912 10.6295 55.5187 10.692 55.5265 10.694C55.5598 10.704 55.5646 10.6405 55.5931 10.6401C55.6039 10.6398 55.6239 10.7073 55.6368 10.707C55.6496 10.7066 55.6265 10.6164 55.657 10.6531C55.6802 10.6811 55.755 10.8557 55.778 10.871C55.7165 10.6945 55.7285 10.6943 55.7312 10.6411C55.7317 10.6307 55.7061 10.5708 55.7052 10.5627C55.7012 10.5286 55.7256 10.5771 55.7202 10.5403C55.7189 10.5315 55.6978 10.4713 55.6955 10.4606C55.6756 10.368 55.7421 10.4968 55.7537 10.5192C55.7976 10.6044 55.7757 10.5241 55.7976 10.556C55.8195 10.5879 55.8209 10.637 55.8395 10.6545C55.878 10.6907 55.9039 10.6706 55.9281 10.6652C55.9376 10.6626 55.903 10.5845 55.9037 10.5823C55.9156 10.5551 55.9652 10.6338 55.9193 10.47C56.0786 10.8792 55.9167 10.4257 55.9733 10.4989C55.9778 10.5049 56.0496 10.6996 56.0515 10.7313C56.0533 10.7629 56.0192 10.7062 56.0235 10.755C56.0245 10.7665 56.0736 10.9554 56.0754 10.9672C56.0894 11.0599 55.9838 10.7683 55.9773 10.7525C55.9061 10.5827 55.9568 10.787 55.9566 10.8024C55.9557 10.8731 55.9217 10.8388 55.9183 10.8902C55.9159 10.9235 55.9823 11.1156 55.9704 11.1132C55.9308 11.1053 55.825 10.8421 55.8759 11.0847C55.8867 11.1365 55.9672 11.3436 55.8854 11.1873C55.8802 11.1774 55.8095 11.033 55.8329 11.1319C55.8359 11.1443 55.8574 11.2054 55.8576 11.2111C55.858 11.2482 55.8333 11.2023 55.8292 11.2299C55.8251 11.2575 55.8226 11.2974 55.8012 11.2817C55.7884 11.2723 55.7374 11.1624 55.7235 11.136C55.6838 11.0599 55.7179 11.1957 55.6766 11.1011C55.635 11.006 55.5967 10.8529 55.5557 10.7964C55.6109 10.9552 55.6668 11.1185 55.7219 11.2784C55.6788 11.2873 55.6203 11.2503 55.5816 11.2718C55.5768 11.2746 55.6121 11.358 55.6078 11.3633C55.5895 11.385 55.5479 11.3313 55.5324 11.364C55.5206 11.3896 55.5321 11.487 55.5207 11.5166C55.4449 11.3393 55.4378 11.4111 55.411 11.4019C55.4017 11.3987 55.3851 11.3501 55.3743 11.3361C55.334 11.2846 55.3998 11.4417 55.4033 11.4688C55.4182 11.5846 55.2882 11.2225 55.2641 11.2411C55.2628 11.2419 55.3134 11.4416 55.3152 11.4545C55.3275 11.5385 55.2889 11.388 55.2742 11.3772C55.2473 11.3573 55.2187 11.3154 55.218 11.3794C55.2179 11.3983 55.246 11.524 55.2013 11.4348C55.1955 11.4232 55.1738 11.3589 55.1712 11.3556C55.1267 11.3011 55.197 11.5022 55.2082 11.5748C55.2193 11.6474 55.1506 11.5157 55.1324 11.4771C55.0854 11.3775 55.1249 11.4301 55.1219 11.4198C55.086 11.2966 55.0789 11.3225 55.0642 11.3162C54.9931 11.1198 54.9819 11.1371 55.0493 11.3105C55.0567 11.3294 55.0588 11.308 55.0642 11.3162C55.1227 11.5129 55.1145 11.5437 55.032 11.3697C54.9933 11.2881 54.9668 11.1865 54.9529 11.232C54.9465 11.2526 54.999 11.3866 55.0014 11.4273C55.0067 11.5203 54.9304 11.405 54.9122 11.4338C54.9057 11.4443 54.9407 11.5154 54.9371 11.5251C54.9277 11.5511 54.8934 11.5005 54.8868 11.5349C54.8863 11.5381 54.9174 11.6145 54.9126 11.6174C54.8765 11.6402 54.8248 11.6025 54.7833 11.6156C54.7633 11.6219 54.7431 11.6773 54.7195 11.6759C54.6789 11.6739 54.5953 11.5764 54.5746 11.6145C54.561 11.6391 54.5928 11.7153 54.603 11.7712C54.6229 11.8797 54.529 11.706 54.515 11.6789C54.5146 11.678 54.5252 11.6537 54.502 11.617C54.4674 11.5357 54.5151 11.6785 54.515 11.6789C54.506 11.6614 54.4657 11.6558 54.4642 11.673C54.4634 11.6824 54.4915 11.7554 54.4905 11.7589C54.4683 11.8408 54.4293 11.8756 54.371 11.8575C54.3697 11.8563 54.3418 11.7735 54.339 11.7717C54.2994 11.7445 54.3178 11.8513 54.3169 11.9189C54.316 11.9865 54.2914 11.9726 54.2285 11.8358C54.2182 11.8595 54.1722 11.8054 54.1451 11.7723C54.118 11.7392 54.1727 11.9002 54.1726 11.9038C54.1707 12.0186 54.1166 11.9345 54.0724 11.934C54.0514 11.9334 54.0227 11.9697 54.0088 11.9943C53.9979 12.0141 53.975 11.9799 53.9689 12.0091C53.968 12.013 53.9952 12.0837 53.9956 12.0866C54.0094 12.1778 53.9556 12.0005 53.9413 11.9705C53.889 11.8615 53.8602 11.8038 53.858 11.8645C53.8575 11.8784 53.9321 12.1347 53.9285 12.1525C53.9236 12.1752 53.8962 12.0836 53.8919 12.1096C53.8915 12.1118 53.9113 12.1673 53.9031 12.1674C53.865 12.1689 53.8161 12.1498 53.7824 12.1679C53.7777 12.1702 53.8151 12.2561 53.8088 12.2609C53.7795 12.283 53.7421 12.2925 53.6954 12.2626C53.6838 12.2549 53.667 12.1915 53.6588 12.1738C53.6091 12.0666 53.651 12.233 53.6496 12.2369C53.618 12.3351 53.5214 12.2053 53.4858 12.2959C53.484 12.3011 53.5198 12.4827 53.4563 12.3385C53.452 12.3289 53.3874 12.1813 53.4142 12.2884C53.4159 12.2951 53.4503 12.3707 53.4354 12.367C53.4205 12.3633 53.4195 12.4223 53.3726 12.3424C53.3578 12.3173 53.2921 12.1705 53.3189 12.2965C53.3209 12.3053 53.3928 12.5863 53.3178 12.4014C53.3055 12.3709 53.2368 12.1714 53.254 12.28C53.2574 12.3011 53.2796 12.3432 53.2799 12.3742C53.2806 12.422 53.2427 12.3755 53.2562 12.4703C53.2586 12.4871 53.2931 12.6268 53.2464 12.5281C53.239 12.5126 53.2187 12.4451 53.2105 12.4396C53.1714 12.4133 53.1593 12.4675 53.1162 12.4311C53.1009 12.4183 53.0679 12.3092 53.0478 12.2839C53.0277 12.2587 52.9979 12.2381 53.0048 12.2908C53.0117 12.3436 53.0835 12.5107 53.0727 12.5299C53.0259 12.6133 52.9233 12.5366 52.8504 12.5458C52.8396 12.5472 52.8695 12.6055 52.8551 12.6119C52.8021 12.6357 52.7282 12.7263 52.6349 12.6129C52.5602 12.5221 52.58 12.4259 52.536 12.3937C52.5149 12.3784 52.5699 12.5827 52.5688 12.5902C52.5582 12.6654 52.5042 12.5854 52.4841 12.6229C52.4799 12.6307 52.5144 12.7092 52.5105 12.7149C52.4976 12.7352 52.4662 12.7058 52.4515 12.7184C52.4449 12.7242 52.4681 12.7853 52.4594 12.7831C52.4388 12.7783 52.4148 12.7577 52.378 12.7057C52.3747 12.701 52.3577 12.6208 52.3443 12.6224C52.3226 12.6251 52.2775 12.577 52.275 12.644C52.2744 12.6641 52.3238 12.8049 52.2747 12.7129C52.2644 12.6937 52.2088 12.5233 52.2431 12.6754C52.2487 12.7007 52.2893 12.9079 52.2303 12.7859C52.2148 12.7538 52.1564 12.6189 52.1558 12.6436C52.1559 12.6474 52.1871 12.7214 52.1828 12.7312C52.1674 12.7644 52.1392 12.7653 52.1228 12.7977C52.1184 12.8066 52.1559 12.8813 52.1485 12.8919C52.1284 12.9213 52.0874 12.9133 52.0522 12.8982C52.0392 12.8925 52.0231 12.8253 52.0199 12.8185C51.968 12.7078 52.0158 12.8651 52.0152 12.8754C52.0106 12.9378 51.967 12.8714 51.952 12.8984C51.9477 12.9056 51.9781 12.978 51.9792 12.985C51.9895 13.0537 51.9519 12.9178 51.9389 12.906C51.9023 12.8724 51.8798 12.8869 51.8609 12.9042C51.854 12.9107 51.8934 12.9931 51.8868 12.9979C51.8486 13.028 51.8005 13.0357 51.7415 13.0035C51.7303 12.9972 51.712 12.9295 51.7051 12.9151C51.6564 12.8138 51.6903 12.9634 51.6913 12.9784C51.6957 13.0471 51.6683 12.9913 51.6567 13.0076C51.5999 13.0886 51.4926 13.083 51.4126 13.0844C51.3084 13.0866 51.2139 13.0495 51.1306 13.0972C51.1253 13.1001 51.1619 13.1858 51.1578 13.1895C51.1023 13.2328 51.0282 13.2204 50.9741 13.268C50.9696 13.2717 51.0064 13.3522 51.0001 13.3611C50.9875 13.3797 50.9644 13.3828 50.9378 13.3623C50.9249 13.3525 50.911 13.2772 50.8985 13.2688C50.8693 13.249 50.8461 13.2505 50.8306 13.271C50.8241 13.2799 50.8671 13.3603 50.8562 13.3652C50.783 13.4006 50.7133 13.4416 50.5974 13.3587C50.5894 13.353 50.5238 13.1818 50.5243 13.2189C50.5404 13.2672 50.5603 13.3236 50.578 13.375C50.4768 13.4417 50.3458 13.4206 50.2313 13.4506C50.2265 13.4519 50.2669 13.5406 50.2577 13.5435C50.2046 13.5607 50.1625 13.6041 50.0767 13.5321C50.0682 13.525 50.0141 13.363 50.007 13.3929C50.0058 13.3983 49.9897 13.4282 49.9959 13.4653C49.9969 13.4709 50.0277 13.5445 50.0209 13.5494C49.9806 13.5765 49.928 13.5757 49.8676 13.5454C49.8577 13.5403 49.8371 13.4576 49.8299 13.4533C49.7788 13.4235 49.761 13.4983 49.7008 13.4377C49.6605 13.3969 49.6202 13.2555 49.5599 13.1236C49.5514 13.105 49.536 13.107 49.5073 13.028C49.4351 12.8293 49.365 12.6086 49.2872 12.3972C49.2704 12.3516 49.2687 12.4077 49.241 12.2931C49.2392 12.2854 49.2401 12.2438 49.2303 12.2051C49.2235 12.1783 49.1908 12.0992 49.1839 12.0643C49.1771 12.0294 49.2063 12.0951 49.2006 12.0533C49.1947 12.0109 49.1588 11.9205 49.171 11.9039ZM54.0235 11.6245C53.9836 11.552 54.0813 11.8347 54.0712 11.7624C54.0706 11.7585 54.0255 11.6281 54.0235 11.6245ZM55.5455 11.0374C55.485 10.9189 55.5382 11.1058 55.5838 11.1978C55.6294 11.2896 55.5639 11.0734 55.5455 11.0374ZM55.6858 10.8858C55.6317 10.7946 55.7698 11.1956 55.7621 11.1074C55.7617 11.1024 55.6889 10.8911 55.6858 10.8858ZM49.6031 13.0647C49.6016 13.061 49.59 13.061 49.5911 13.0648C49.6172 13.1563 49.6403 13.1563 49.6031 13.0647ZM55.8218 10.7266C55.7967 10.6747 55.8013 10.7433 55.8325 10.8079C55.8577 10.8599 55.8531 10.7913 55.8218 10.7266ZM53.2543 11.5574C53.2526 11.5533 53.2439 11.5521 53.2525 11.5758C53.28 11.6521 53.2826 11.6269 53.2543 11.5574ZM56.1108 10.6195C56.0626 10.6196 55.92 10.2984 55.9799 10.3192C55.9907 10.3229 55.9988 10.431 56.0201 10.4569C56.0589 10.5043 55.9988 10.2922 56.0582 10.3962C56.069 10.4153 56.1138 10.6202 56.1109 10.62C56.1109 10.6198 56.1108 10.6197 56.1108 10.6195ZM53.8967 11.2883C53.8951 11.2847 53.8836 11.2847 53.8847 11.2885C53.9108 11.38 53.9338 11.3799 53.8967 11.2883ZM52.7628 11.5347C52.7595 11.5269 52.7332 11.5278 52.735 11.5354C52.7743 11.6862 52.8276 11.6848 52.7628 11.5347ZM54.5108 10.8395C54.4901 10.7455 54.4997 10.7302 54.5485 10.8402C54.5353 10.8381 54.5239 10.8412 54.5108 10.8395ZM45.7663 7.22716C45.7588 7.18651 45.8035 7.16297 45.8523 7.15327C45.8675 7.15018 45.9116 7.18006 45.9242 7.17907C45.9488 7.17709 45.932 7.15356 45.96 7.15362C45.9695 7.15376 46.0405 7.19889 46.0488 7.19812C46.0935 7.1936 46.0863 7.16221 46.1144 7.14815C46.2526 7.07899 46.3401 6.98458 46.4354 6.89015C46.4667 6.85898 46.5583 6.85034 46.5501 6.79594C46.5491 6.78955 46.4829 6.75685 46.4781 6.75309C46.4038 6.69508 46.5319 6.77093 46.554 6.77168C46.6415 6.77446 46.6685 6.73915 46.6618 6.69213C46.6588 6.67202 46.5226 6.61601 46.6025 6.64114C46.6079 6.64282 46.6746 6.68398 46.684 6.68409C46.7053 6.68427 46.7022 6.6608 46.7114 6.65693C46.7295 6.64967 46.73 6.64711 46.7376 6.63506C46.7486 6.61892 46.7938 6.61731 46.7882 6.5905C46.7868 6.58467 46.7136 6.55134 46.7051 6.53856C46.6965 6.52578 46.7115 6.51256 46.7311 6.51607C46.7508 6.51959 46.8048 6.55222 46.818 6.55817C46.9295 6.60862 46.7917 6.50846 46.7894 6.504C46.7514 6.42508 46.8568 6.43289 46.8795 6.39075C46.8966 6.35866 46.8874 6.30931 46.9078 6.28105C46.9324 6.24754 46.9873 6.23776 47 6.19906C47.0014 6.19502 46.9163 6.15409 46.9178 6.14906C46.9345 6.0957 46.9697 6.05287 47.0517 6.03554C47.06 6.03384 47.1293 6.07978 47.1419 6.08046C47.2177 6.08374 47.3866 6.11573 47.0798 5.92523C47.103 5.91209 47.129 5.89491 47.2025 5.91199C47.2498 5.92296 47.3229 5.97741 47.2968 5.94483C47.291 5.93753 47.2195 5.90375 47.216 5.89568C47.2016 5.86172 47.2362 5.8521 47.2112 5.81265C47.206 5.80453 47.1432 5.77166 47.1327 5.7644C47.0474 5.70523 47.2059 5.77112 47.2187 5.77358C47.3143 5.79137 47.293 5.75449 47.3086 5.73081C47.3122 5.72533 47.2251 5.68649 47.2256 5.67958C47.2293 5.64435 47.2527 5.61856 47.3051 5.61072C47.317 5.60909 47.3849 5.65371 47.3942 5.65492C47.4343 5.65977 47.3017 5.58343 47.3376 5.58667C47.345 5.58726 47.405 5.62204 47.412 5.62521C47.521 5.67498 47.376 5.58708 47.3738 5.58333C47.3425 5.53409 47.5063 5.60315 47.4974 5.56725C47.4962 5.56287 47.4156 5.5272 47.4169 5.51746C47.4249 5.45233 47.477 5.40731 47.5676 5.38802C47.5816 5.38497 47.6362 5.42248 47.6436 5.42586C47.7596 5.47834 47.6133 5.39124 47.6092 5.38548C47.5803 5.34216 47.7163 5.39084 47.5464 5.27921C47.6572 5.22324 47.6062 5.07933 47.8141 5.07747C47.8166 5.07735 47.889 5.11958 47.8936 5.11917C47.9497 5.11457 47.8326 5.0573 47.7027 4.96289C47.6701 4.93917 47.8463 5.01766 47.8594 5.02321C47.9074 5.04369 48.0142 5.10811 48.0239 5.11145C48.0999 5.13705 47.7371 4.94123 47.7461 4.92456C47.747 4.92437 47.8124 4.96297 47.8197 4.96519C47.8429 4.97223 47.8188 4.95347 47.844 4.96177C47.9023 4.98107 48.08 5.07374 47.9858 5.00299C47.9735 4.99385 47.7668 4.8845 47.7846 4.87498C47.7919 4.87128 47.8027 4.84319 47.82 4.84313C47.8373 4.84308 47.9006 4.88426 47.9038 4.88531C48.002 4.91339 48.0341 4.94069 48.169 5.0016C48.3033 5.06224 47.9943 4.89677 47.9622 4.87397C47.9301 4.85121 48.0102 4.87619 48.0372 4.88635C48.0642 4.89652 48.1038 4.92393 48.1197 4.92854C48.2239 4.95831 47.9721 4.83585 47.9271 4.80225C47.8204 4.72276 48.0554 4.83483 48.0859 4.83215C48.0941 4.83142 48.0404 4.8063 48.0375 4.80006C48.0267 4.77569 48.1026 4.80607 48.0462 4.7542C48.037 4.74574 47.907 4.65767 48.0123 4.70424C48.0274 4.71098 48.0824 4.74547 48.0985 4.74637C48.1225 4.74777 48.1439 4.73826 48.1302 4.71814C48.1201 4.70327 48.0219 4.66028 48.0559 4.66715C48.0711 4.67024 48.1218 4.70765 48.1458 4.71095C48.1697 4.71428 48.1778 4.69377 48.1799 4.68543C48.182 4.67707 48.1088 4.64221 48.1043 4.63901C48.0789 4.62045 48.0523 4.58771 48.053 4.58652C48.0785 4.51939 48.2297 4.52735 48.2233 4.44493C48.2229 4.43852 48.1462 4.40073 48.1454 4.39933C48.1229 4.36584 48.3151 4.48764 48.388 4.5127C48.235 4.43121 48.2663 4.43953 48.2559 4.41892C48.2507 4.40892 48.1902 4.37974 48.1845 4.37594C48.0996 4.31883 48.2182 4.37627 48.2426 4.38771C48.3325 4.4298 48.233 4.36772 48.2931 4.39579C48.3528 4.42362 48.4336 4.47888 48.4386 4.46726C48.3858 4.4344 48.2392 4.36481 48.2207 4.34383C48.1508 4.26457 48.2946 4.26664 48.3201 4.24759C48.3455 4.22858 48.34 4.21491 48.3677 4.2109C48.4179 4.20367 48.307 4.15574 48.2678 4.11276C48.2286 4.06974 48.4837 4.2198 48.5408 4.24794C48.5979 4.2761 48.5419 4.24214 48.5741 4.25599C48.6064 4.26986 48.6409 4.2969 48.6561 4.29636C48.6714 4.29581 48.5824 4.22284 48.5254 4.1885C48.4045 4.11576 48.2702 4.05322 48.3257 4.06006C48.329 4.0605 48.3954 4.10121 48.4044 4.101C48.4743 4.09809 48.4955 4.06699 48.5593 4.0608C48.5682 4.06 48.642 4.10542 48.648 4.10543C48.711 4.10565 48.5778 4.04504 48.4435 3.9528C48.631 4.05957 48.7511 4.11493 48.7632 4.09554C48.7705 4.08392 48.6867 4.04077 48.6327 4.00113C48.6164 3.98919 48.6778 4.01173 48.6398 3.98893C48.5155 3.91433 48.3689 3.84453 48.4368 3.8549C48.44 3.85547 48.508 3.8964 48.5139 3.89557C48.5525 3.89045 48.4209 3.81533 48.4168 3.78468C48.4135 3.76066 48.5112 3.77455 48.535 3.76227C48.7476 3.87907 48.709 3.83401 48.5663 3.74629C48.5793 3.73692 48.5784 3.71872 48.6054 3.71759C48.6146 3.71716 48.6747 3.75363 48.6817 3.75674C48.7905 3.80572 48.6508 3.72215 48.6467 3.71636C48.6085 3.65701 48.7299 3.69207 48.6396 3.606C48.6363 3.60291 48.4894 3.52044 48.6015 3.57192C48.6092 3.5755 48.6713 3.62162 48.6838 3.61118C48.6963 3.60074 48.7892 3.61903 48.7308 3.56312C48.7167 3.54964 48.6029 3.47271 48.7016 3.51493C48.715 3.52069 48.7567 3.5452 48.7812 3.55636C48.8595 3.59184 48.7118 3.50704 48.8423 3.56985C48.9729 3.63265 49.0755 3.67087 48.9981 3.60437C48.9958 3.60238 48.8798 3.5332 48.8849 3.52838C48.8931 3.52073 48.925 3.52096 48.9296 3.51079C48.9317 3.5059 48.8566 3.46866 48.8557 3.46712C48.8316 3.41319 48.9094 3.4267 48.9562 3.40863C48.965 3.4054 48.8744 3.33283 48.9602 3.36426C49.0542 3.39862 49.4078 3.60955 49.3383 3.53238C49.3105 3.50141 48.8609 3.23552 49.1102 3.34347C49.0745 3.26897 49.2174 3.29623 49.1567 3.20784C49.154 3.2039 49.0295 3.12795 49.0337 3.12441C49.0401 3.11929 49.1019 3.14831 49.1084 3.1457C49.1373 3.13561 49.0962 3.0894 49.1147 3.07452C49.1215 3.0688 49.1819 3.10514 49.1901 3.09833C49.1983 3.09148 49.1201 3.04119 49.1658 3.05089C49.2007 3.05836 49.3718 3.1404 49.3976 3.13918C49.2339 3.04902 49.2417 3.04275 49.2063 3.00465C49.1994 2.99728 49.1407 2.96903 49.1345 2.96393C49.108 2.9425 49.158 2.96344 49.1288 2.94085C49.1218 2.93541 49.0658 2.90472 49.0569 2.89854C48.9791 2.84485 49.1128 2.89964 49.1361 2.90921C49.2245 2.94548 49.154 2.90129 49.1907 2.9121C49.2274 2.92292 49.2626 2.956 49.287 2.95857C49.3376 2.96385 49.3407 2.93675 49.3528 2.92065C49.3573 2.91404 49.28 2.87791 49.2789 2.87601C49.2678 2.8512 49.3553 2.88009 49.2108 2.79062C49.6013 2.99122 49.1782 2.76148 49.2666 2.783C49.2737 2.78478 49.4569 2.88231 49.4803 2.90317C49.5035 2.92403 49.4414 2.90236 49.4784 2.93382C49.487 2.94122 49.6512 3.0463 49.6607 3.05356C49.7346 3.1103 49.4615 2.96325 49.4462 2.95574C49.2808 2.87506 49.4568 2.98996 49.4674 3.00069C49.5161 3.04983 49.4698 3.04359 49.5035 3.08079C49.5251 3.10494 49.7029 3.20336 49.6933 3.2078C49.6618 3.22265 49.4084 3.09527 49.6113 3.23647C49.6545 3.26661 49.852 3.36821 49.6891 3.30231C49.6788 3.29815 49.5314 3.23478 49.6159 3.29094C49.6265 3.29801 49.6833 3.32904 49.6874 3.33292C49.7136 3.35831 49.6652 3.33925 49.6818 3.36038C49.6984 3.3815 49.7246 3.41032 49.6995 3.41038C49.6845 3.41047 49.5743 3.3608 49.5467 3.34969C49.4674 3.31752 49.5846 3.39367 49.4914 3.3496C49.3976 3.30533 49.2655 3.21937 49.1991 3.20142C49.3463 3.28263 49.4971 3.36664 49.645 3.44862C49.6228 3.47676 49.5584 3.48115 49.548 3.5158C49.5468 3.52017 49.6283 3.55961 49.6291 3.56542C49.6321 3.58974 49.5673 3.57404 49.5799 3.60443C49.59 3.62812 49.6655 3.68938 49.6787 3.71558C49.505 3.6322 49.5504 3.68525 49.5264 3.69258C49.518 3.69519 49.4732 3.67016 49.4563 3.66605C49.3938 3.65112 49.5468 3.72576 49.568 3.74266C49.6587 3.81489 49.3202 3.63172 49.3173 3.65684C49.3171 3.6581 49.4897 3.76985 49.5 3.77781C49.5667 3.82943 49.4363 3.74548 49.419 3.74549C49.3874 3.74551 49.3394 3.73125 49.3835 3.7757C49.3967 3.78879 49.5028 3.86107 49.4112 3.82246C49.3993 3.81741 49.3401 3.78423 49.3361 3.78326C49.2688 3.76845 49.4554 3.87112 49.5134 3.91543C49.5714 3.95973 49.4342 3.90412 49.3954 3.88683C49.2948 3.84218 49.3576 3.85824 49.3484 3.85264C49.2388 3.78613 49.2522 3.80762 49.2382 3.81076C49.0542 3.71173 49.0589 3.72941 49.2243 3.81443C49.2424 3.82369 49.2289 3.80786 49.2382 3.81076C49.414 3.91643 49.43 3.94184 49.2542 3.86409C49.1718 3.82764 49.0834 3.77115 49.106 3.80965C49.1162 3.82708 49.2443 3.89257 49.2743 3.91944C49.3427 3.98079 49.2119 3.94033 49.2201 3.96946C49.223 3.98003 49.2958 4.0111 49.3002 4.01963C49.3121 4.04238 49.2543 4.02505 49.2739 4.05212C49.2758 4.05462 49.3496 4.09139 49.3484 4.0958C49.3406 4.12998 49.2802 4.13041 49.262 4.1606C49.2533 4.1752 49.2786 4.2237 49.2621 4.23478C49.234 4.25421 49.1108 4.22966 49.1238 4.26653C49.132 4.2904 49.2061 4.32668 49.2519 4.36003C49.3406 4.42462 49.1576 4.35289 49.1295 4.34134C49.1286 4.34095 49.1186 4.31878 49.0777 4.30533C48.9982 4.26701 49.1293 4.34101 49.1295 4.34134C49.1113 4.33391 49.0809 4.3506 49.0919 4.36326C49.098 4.37016 49.1673 4.40609 49.1692 4.40898C49.2117 4.47684 49.2103 4.52074 49.1593 4.53802C49.1575 4.53788 49.0814 4.49504 49.0783 4.49522C49.0332 4.49673 49.1199 4.56092 49.1665 4.60798C49.213 4.65503 49.1872 4.65802 49.0502 4.59589C49.06 4.61749 48.9919 4.60366 48.951 4.59471C48.91 4.58575 49.0584 4.6688 49.0609 4.67132C49.1397 4.75136 49.0454 4.72108 49.016 4.74328C49.0017 4.75369 49.0082 4.79332 49.0162 4.81742C49.0228 4.8366 48.9838 4.8247 49.0002 4.84797C49.0023 4.8511 49.0696 4.88592 49.0719 4.88778C49.1446 4.94358 48.9855 4.84883 48.9551 4.83551C48.8446 4.78705 48.7853 4.76203 48.8262 4.80496C48.8356 4.81481 49.0636 4.95332 49.0737 4.96743C49.0863 4.98555 49.0043 4.93645 49.0196 4.9566C49.0209 4.95828 49.0727 4.9864 49.0673 4.99073C49.0433 5.0112 48.9977 5.02298 48.9882 5.05272C48.9867 5.05667 49.0713 5.09682 49.0705 5.10327C49.0666 5.1335 49.0486 5.15915 48.9969 5.16243C48.984 5.1631 48.9286 5.12794 48.9108 5.11991C48.8033 5.07145 48.947 5.16473 48.9489 5.16816C48.9966 5.252 48.8423 5.21182 48.8821 5.29245C48.8846 5.29698 49.0349 5.40386 48.8924 5.33695C48.8829 5.33251 48.7374 5.26377 48.8297 5.32391C48.8355 5.32766 48.9109 5.36215 48.8985 5.36721C48.8862 5.37228 48.9266 5.41346 48.84 5.38236C48.8127 5.37258 48.667 5.30502 48.7726 5.37818C48.78 5.38323 49.0235 5.54015 48.8451 5.451C48.8157 5.4363 48.6312 5.33395 48.7184 5.39998C48.7353 5.41274 48.7793 5.43043 48.8012 5.45163C48.8349 5.48425 48.7775 5.47156 48.8526 5.53004C48.8659 5.54036 48.9861 5.61901 48.8864 5.57482C48.8708 5.5679 48.8103 5.53173 48.8011 5.53216C48.757 5.53403 48.7868 5.57759 48.733 5.57452C48.714 5.5735 48.6161 5.51518 48.5853 5.50804C48.5544 5.50091 48.5204 5.50194 48.5617 5.53476C48.6031 5.5676 48.767 5.6461 48.7733 5.66484C48.8007 5.74624 48.6796 5.74582 48.638 5.78942C48.6318 5.79587 48.6922 5.82076 48.6872 5.83251C48.6689 5.87598 48.6835 5.97625 48.5429 5.94574C48.4303 5.92132 48.3761 5.84493 48.3247 5.84522C48.3001 5.84547 48.479 5.95813 48.4834 5.96386C48.529 6.02112 48.4376 5.99356 48.4505 6.02972C48.4531 6.0372 48.5307 6.0737 48.5321 6.07961C48.5378 6.10017 48.4966 6.09598 48.4957 6.11218C48.4954 6.11954 48.5533 6.14982 48.546 6.1527C48.5291 6.15996 48.4989 6.15801 48.4384 6.141C48.4329 6.13945 48.3658 6.09286 48.358 6.1008C48.3456 6.11376 48.2823 6.10364 48.3275 6.15104C48.3411 6.16523 48.4719 6.23707 48.3754 6.19875C48.3552 6.19075 48.1996 6.10176 48.3284 6.18906C48.3498 6.2036 48.5211 6.32566 48.3971 6.27175C48.3645 6.25756 48.2318 6.19439 48.2487 6.21169C48.2514 6.2143 48.3236 6.24938 48.3277 6.25831C48.3406 6.28908 48.3227 6.30406 48.3345 6.33483C48.3378 6.34312 48.4146 6.37549 48.4172 6.38657C48.4244 6.41712 48.3919 6.43255 48.3582 6.44012C48.3456 6.44283 48.2881 6.40474 48.2812 6.40169C48.1698 6.35195 48.311 6.43586 48.3179 6.44332C48.3584 6.48867 48.2833 6.46523 48.2922 6.49147C48.2945 6.49861 48.3649 6.53296 48.3706 6.53722C48.4253 6.57931 48.3058 6.50486 48.2889 6.50335C48.2413 6.4989 48.2367 6.52044 48.2363 6.54203C48.2363 6.55002 48.3197 6.58665 48.3187 6.59332C48.3145 6.63359 48.2883 6.66349 48.2269 6.67145C48.2152 6.67287 48.1559 6.63553 48.1412 6.62913C48.0385 6.58417 48.1652 6.66996 48.1764 6.67985C48.2273 6.72491 48.1702 6.7004 48.1739 6.71765C48.193 6.80243 48.1185 6.85343 48.0667 6.8953C47.9997 6.95005 47.9115 6.97275 47.8899 7.04815C47.8885 7.0529 47.9724 7.09323 47.9722 7.09789C47.9659 7.15612 47.9085 7.18542 47.906 7.24588C47.9057 7.25076 47.9861 7.28744 47.9881 7.2967C47.9929 7.31599 47.9798 7.32996 47.948 7.32945C47.9326 7.32928 47.8709 7.28447 47.8568 7.28504C47.8237 7.28629 47.8095 7.2992 47.8136 7.32123C47.8155 7.33071 47.8999 7.36418 47.8962 7.37312C47.8726 7.4349 47.8554 7.49881 47.7212 7.50087C47.712 7.501 47.5493 7.41656 47.5755 7.44189C47.6197 7.46693 47.6722 7.49561 47.7198 7.52197C47.6997 7.61971 47.5987 7.67205 47.5441 7.75126C47.5419 7.75461 47.6304 7.79509 47.6264 7.80181C47.6035 7.84077 47.606 7.89218 47.4991 7.88642C47.4887 7.88592 47.3399 7.80188 47.3561 7.82613C47.3591 7.83049 47.3693 7.85928 47.3993 7.88169C47.4039 7.885 47.4756 7.92001 47.4745 7.92688C47.4668 7.96613 47.4317 7.99244 47.3707 8.00245C47.3607 8.00399 47.2894 7.95751 47.2816 7.95825C47.2272 7.96385 47.2676 8.02443 47.1858 8.01345C47.1307 8.00595 47.0055 7.92908 46.8737 7.869C46.8551 7.86053 46.8463 7.86976 46.7723 7.82998C46.5861 7.72998 46.3859 7.6137 46.187 7.50773C46.1442 7.48489 46.1822 7.52441 46.084 7.45959C46.0774 7.45523 46.049 7.42608 46.0155 7.40441C45.9924 7.38942 45.9156 7.35163 45.8867 7.33107C45.8579 7.31053 45.9229 7.34089 45.89 7.31497C45.8565 7.2888 45.7698 7.24481 45.7663 7.22716ZM48.7677 4.55503C48.6909 4.52542 48.9525 4.67037 48.8954 4.62566C48.8923 4.62333 48.7715 4.55645 48.7677 4.55503ZM49.3606 3.37271C49.238 3.32193 49.4035 3.4236 49.4977 3.46365C49.5919 3.50365 49.3978 3.38809 49.3606 3.37271ZM49.3472 3.19656C49.2479 3.16129 49.6188 3.36713 49.5521 3.3103C49.5484 3.30706 49.353 3.1986 49.3472 3.19656ZM46.861 7.80635C46.8575 7.80458 46.8498 7.81047 46.8532 7.81254C46.9343 7.86226 46.9495 7.85044 46.861 7.80635ZM49.3257 3.0173C49.2729 2.99434 49.3238 3.03929 49.3895 3.06785C49.4423 3.09081 49.3914 3.04586 49.3257 3.0173ZM48.2142 4.90181C48.2102 4.89982 48.2037 4.90346 48.2258 4.91543C48.2972 4.954 48.2814 4.93527 48.2142 4.90181ZM49.4413 2.79582C49.4096 2.82053 49.0915 2.67204 49.1454 2.65575C49.1552 2.6528 49.2359 2.72313 49.2681 2.73016C49.3267 2.7429 49.1391 2.62746 49.2508 2.66886C49.2713 2.67646 49.4438 2.79478 49.4417 2.79611C49.4416 2.79601 49.4414 2.79592 49.4413 2.79582ZM48.4495 4.38814C48.446 4.38644 48.4385 4.39233 48.4418 4.3944C48.5228 4.44413 48.538 4.43228 48.4495 4.38814ZM47.8746 5.1373C47.867 5.13368 47.8503 5.14775 47.8568 5.15206C47.9879 5.23589 48.0221 5.20766 47.8746 5.1373ZM48.5409 3.76506C48.4617 3.71083 48.4573 3.69539 48.5662 3.74627C48.556 3.75155 48.5506 3.7595 48.5409 3.76506ZM50.0008 17.1196C50.0495 17.118 50.0819 17.1694 50.0978 17.2232C50.1028 17.24 50.0703 17.2823 50.0726 17.2959C50.0771 17.3225 50.1042 17.3083 50.1065 17.3382C50.1071 17.3483 50.0584 17.417 50.06 17.426C50.0693 17.4745 50.1068 17.4718 50.1262 17.504C50.2219 17.6626 50.3439 17.7712 50.4666 17.8879C50.5071 17.9263 50.5253 18.0256 50.5907 18.0254C50.5983 18.0253 50.6324 17.9598 50.6366 17.9552C50.7006 17.8851 50.6195 18.0099 50.6204 18.0335C50.6245 18.1265 50.6696 18.1609 50.7261 18.1612C50.7503 18.1612 50.8067 18.0245 50.783 18.1059C50.7814 18.1114 50.7371 18.1762 50.7378 18.1862C50.7394 18.209 50.7676 18.2094 50.773 18.2198C50.7834 18.2402 50.7865 18.2412 50.8018 18.2512C50.8223 18.2655 50.8281 18.3141 50.8602 18.3124C50.8671 18.3119 50.9014 18.2389 50.9162 18.2318C50.9309 18.2247 50.9483 18.2428 50.9457 18.2632C50.9431 18.2836 50.908 18.3362 50.9019 18.3494C50.8502 18.4605 50.96 18.3291 50.9653 18.3273C51.0578 18.2992 51.0573 18.4107 51.1103 18.4416C51.1507 18.465 51.2098 18.4629 51.2459 18.4892C51.2886 18.5208 51.3052 18.581 51.3532 18.6007C51.3582 18.6028 51.4007 18.5184 51.4069 18.5208C51.4731 18.5471 51.528 18.5914 51.556 18.6819C51.5588 18.691 51.5089 18.7578 51.5092 18.7712C51.5116 18.8516 51.4871 19.027 51.6923 18.7293C51.7102 18.7563 51.7333 18.7867 51.7188 18.8626C51.7095 18.9114 51.6496 18.9808 51.6869 18.9582C51.6953 18.9531 51.7302 18.882 51.7397 18.8796C51.7797 18.8696 51.7943 18.908 51.8401 18.8876C51.8495 18.8833 51.884 18.8215 51.8919 18.8114C51.9565 18.7296 51.89 18.8885 51.8881 18.9018C51.8746 19.0012 51.9176 18.9843 51.9476 19.0046C51.9546 19.0094 51.9943 18.9224 52.0028 18.924C52.0458 18.9336 52.0791 18.9627 52.0931 19.0199C52.0961 19.0329 52.0477 19.0984 52.047 19.1081C52.0445 19.1502 52.1259 19.0206 52.125 19.0585C52.1249 19.0663 52.0878 19.1249 52.0846 19.1318C52.0334 19.2405 52.1278 19.0994 52.1321 19.0977C52.1893 19.072 52.1193 19.2361 52.1622 19.2323C52.1674 19.2317 52.2038 19.1513 52.2157 19.1542C52.2955 19.1731 52.3545 19.2359 52.3856 19.3357C52.3905 19.3511 52.3496 19.4035 52.3461 19.4109C52.2923 19.5266 52.3856 19.3841 52.3922 19.3805C52.4423 19.3566 52.3948 19.4942 52.5159 19.3303C52.5932 19.4575 52.7635 19.4258 52.7834 19.6483C52.7838 19.651 52.7387 19.7216 52.7396 19.7266C52.7499 19.7873 52.8095 19.6713 52.913 19.5475C52.939 19.5164 52.8587 19.6922 52.8531 19.7053C52.8323 19.7533 52.7632 19.8573 52.76 19.867C52.7354 19.9442 52.9422 19.5876 52.9632 19.5999C52.9635 19.6008 52.9222 19.6646 52.9201 19.6721C52.9136 19.6957 52.9343 19.673 52.9264 19.6986C52.9079 19.7579 52.8105 19.933 52.8884 19.8436C52.8984 19.8319 53.0136 19.6284 53.0266 19.6489C53.0318 19.6572 53.0668 19.6732 53.0683 19.6917C53.0698 19.7102 53.0252 19.7714 53.0242 19.7746C52.9985 19.8751 52.9681 19.9051 52.9056 20.0395C52.8434 20.1734 53.018 19.8695 53.0429 19.8388C53.0678 19.8081 53.0443 19.8897 53.0343 19.917C53.0242 19.9442 52.9943 19.9822 52.9901 19.9985C52.9628 20.1051 53.09 19.8554 53.127 19.8126C53.2144 19.7113 53.0984 19.9446 53.1042 19.9776C53.1058 19.9865 53.1317 19.9331 53.139 19.931C53.1677 19.9233 53.1373 19.9995 53.1954 19.9475C53.2049 19.939 53.3008 19.8141 53.2532 19.9192C53.2463 19.9343 53.2091 19.9876 53.2094 20.0046C53.2097 20.0301 53.2231 20.0544 53.2463 20.043C53.2635 20.0345 53.3073 19.9365 53.3019 19.9717C53.2994 19.9875 53.2583 20.0357 53.2564 20.0608C53.2543 20.0859 53.2799 20.0978 53.2902 20.1013C53.3005 20.1049 53.3366 20.0321 53.3401 20.0279C53.3605 20.0036 53.398 19.9804 53.3995 19.9814C53.4831 20.0192 53.4863 20.1795 53.5858 20.1857C53.5935 20.1863 53.6329 20.1104 53.6345 20.1097C53.6732 20.0911 53.5417 20.277 53.5175 20.351C53.6034 20.2005 53.596 20.2325 53.6201 20.2247C53.6318 20.2208 53.6621 20.1608 53.6662 20.1552C53.7283 20.0735 53.6687 20.1912 53.6568 20.2155C53.6134 20.3048 53.6803 20.2084 53.6513 20.2682C53.6226 20.3275 53.5624 20.4051 53.5769 20.4122C53.6123 20.3611 53.6843 20.2154 53.7082 20.199C53.7985 20.1369 53.8082 20.2902 53.8335 20.3204C53.8587 20.3506 53.8748 20.3469 53.882 20.3771C53.8951 20.4319 53.9438 20.321 53.9926 20.2859C54.0415 20.2508 53.8811 20.4997 53.8518 20.5563C53.8224 20.6128 53.8589 20.5583 53.8448 20.5906C53.8307 20.6228 53.8009 20.6554 53.8028 20.6718C53.8048 20.6882 53.8858 20.6046 53.9226 20.5491C54.0006 20.4316 54.0651 20.2979 54.0615 20.3561C54.0613 20.3596 54.0175 20.4241 54.0185 20.4338C54.028 20.5089 54.0675 20.5365 54.0805 20.6057C54.0822 20.6153 54.0333 20.6869 54.0338 20.6934C54.0389 20.7606 54.1012 20.6279 54.2017 20.499C54.088 20.6824 54.0311 20.8021 54.0556 20.818C54.0703 20.8277 54.1156 20.745 54.1591 20.6936C54.1722 20.678 54.1501 20.7401 54.1745 20.7031C54.2545 20.5821 54.3267 20.4364 54.3199 20.5074C54.3195 20.5107 54.2756 20.5768 54.2771 20.5833C54.2866 20.6254 54.3666 20.4967 54.4034 20.4971C54.4323 20.4974 54.4238 20.5996 54.4407 20.627C54.317 20.8357 54.3684 20.8015 54.4627 20.663C54.4752 20.6783 54.4972 20.6803 54.5009 20.7093C54.5022 20.7192 54.463 20.7776 54.4598 20.7846C54.4096 20.8931 54.4992 20.7571 54.5059 20.7536C54.5747 20.7222 54.5424 20.8463 54.6392 20.7635C54.6427 20.7605 54.7303 20.6166 54.6773 20.7282C54.6736 20.7358 54.6229 20.7949 54.6367 20.8099C54.6504 20.8249 54.6361 20.9213 54.699 20.8678C54.7141 20.8549 54.7978 20.7454 54.755 20.8442C54.7491 20.8576 54.7229 20.8983 54.7115 20.9227C54.675 21.0007 54.7654 20.8563 54.7003 20.9859C54.6351 21.1154 54.5975 21.219 54.6716 21.1468C54.6738 21.1447 54.7479 21.0317 54.7542 21.0379C54.7642 21.0479 54.7666 21.082 54.7794 21.0885C54.7855 21.0915 54.8243 21.0171 54.8261 21.0164C54.8895 20.9993 54.8797 21.0802 54.9056 21.1331C54.9103 21.143 54.9906 21.0577 54.9598 21.1444C54.926 21.2393 54.7001 21.5838 54.7878 21.5217C54.8231 21.497 55.1076 21.0587 54.9977 21.3079C55.0851 21.2816 55.0642 21.43 55.1663 21.3791C55.1708 21.3768 55.2524 21.2558 55.2571 21.2609C55.2638 21.2686 55.2339 21.33 55.2376 21.3374C55.2523 21.3699 55.3049 21.3332 55.3245 21.3553C55.332 21.3636 55.293 21.4223 55.302 21.4322C55.311 21.442 55.3654 21.3664 55.3575 21.4138C55.3514 21.4498 55.2664 21.6196 55.2701 21.6475C55.3656 21.4868 55.3738 21.4961 55.4171 21.4643C55.4254 21.4581 55.4547 21.3999 55.4604 21.3941C55.4841 21.3692 55.463 21.4193 55.4879 21.3916C55.4939 21.385 55.5264 21.33 55.5332 21.3215C55.5917 21.2469 55.5366 21.3811 55.5269 21.4044C55.4904 21.4931 55.5381 21.4248 55.5281 21.4623C55.518 21.4998 55.4809 21.5322 55.4798 21.5579C55.4777 21.6111 55.5109 21.6187 55.5314 21.6342C55.5399 21.6401 55.5771 21.5631 55.5793 21.5623C55.6085 21.5544 55.5809 21.6433 55.6772 21.5031C55.4669 21.8885 55.7098 21.4729 55.6912 21.5639C55.6896 21.5712 55.5868 21.7515 55.5635 21.7731C55.5401 21.7947 55.5612 21.7318 55.5261 21.7663C55.5179 21.7743 55.4043 21.9331 55.3963 21.9421C55.3337 22.0121 55.489 21.7436 55.4968 21.7284C55.5807 21.5645 55.4562 21.7343 55.444 21.7439C55.3885 21.7882 55.3922 21.7397 55.3499 21.7698C55.3224 21.7891 55.2181 21.9634 55.2119 21.9525C55.1912 21.9165 55.3243 21.6659 55.1701 21.8603C55.1372 21.9018 55.0307 22.0967 55.0968 21.933C55.101 21.9227 55.1654 21.7753 55.1044 21.8566C55.0967 21.8668 55.0639 21.9226 55.0595 21.9263C55.0309 21.9503 55.05 21.9017 55.0257 21.9161C55.0015 21.9304 54.9688 21.9539 54.9666 21.9271C54.9652 21.911 55.0161 21.8011 55.0272 21.7734C55.0596 21.6937 54.9771 21.807 55.0226 21.7143C55.0684 21.6211 55.1615 21.4936 55.1777 21.4255C55.0916 21.5699 55.0025 21.7177 54.9155 21.8627C54.8795 21.8346 54.8687 21.7651 54.8258 21.7484C54.8204 21.7465 54.7794 21.8273 54.7724 21.8272C54.7432 21.8266 54.7567 21.7598 54.7209 21.7685C54.693 21.7755 54.6251 21.8465 54.5944 21.8564C54.6809 21.6841 54.6203 21.7242 54.6094 21.6974C54.6055 21.688 54.6321 21.644 54.6356 21.6267C54.6485 21.5623 54.5709 21.7139 54.5522 21.7339C54.4722 21.8193 54.6658 21.4867 54.635 21.4796C54.6335 21.4792 54.5125 21.646 54.5037 21.6556C54.4467 21.7187 54.5376 21.5927 54.5361 21.5742C54.5334 21.5405 54.5466 21.4914 54.4964 21.5315C54.4816 21.5435 54.4029 21.6455 54.442 21.5537C54.4471 21.5417 54.4824 21.4838 54.4832 21.4797C54.4955 21.4101 54.3867 21.5933 54.3379 21.6482C54.289 21.7032 54.3449 21.5654 54.3625 21.5266C54.4082 21.4262 54.394 21.4908 54.4 21.4818C54.4715 21.3753 54.4465 21.3862 54.4415 21.3706C54.5461 21.1898 54.525 21.192 54.4359 21.3553C54.4262 21.3731 54.4442 21.3612 54.4415 21.3706C54.3282 21.5417 54.2987 21.5548 54.3782 21.3793C54.4154 21.2971 54.4764 21.2116 54.4316 21.2296C54.4114 21.2377 54.3428 21.3643 54.3127 21.392C54.244 21.4554 54.282 21.3221 54.2474 21.3262C54.2348 21.3277 54.2033 21.4005 54.1933 21.4038C54.1667 21.413 54.1828 21.3539 54.1516 21.3706C54.1488 21.3722 54.1104 21.4453 54.105 21.4433C54.0628 21.4296 54.0572 21.365 54.019 21.3407C54.0005 21.3291 53.9438 21.3484 53.929 21.329C53.903 21.2959 53.9223 21.1682 53.8787 21.1763C53.8504 21.1812 53.8127 21.2547 53.7761 21.2983C53.7053 21.3829 53.7768 21.1987 53.7884 21.1705C53.7888 21.1696 53.8148 21.1624 53.8277 21.1208C53.8675 21.0419 53.7888 21.1703 53.7884 21.1705C53.7959 21.1522 53.773 21.1171 53.7586 21.1269C53.7507 21.1322 53.713 21.2006 53.7097 21.2022C53.6309 21.2369 53.5775 21.2284 53.5522 21.1711C53.5523 21.1693 53.5978 21.0947 53.5973 21.0914C53.5917 21.043 53.5211 21.1254 53.468 21.1678C53.4148 21.21 53.409 21.1819 53.4728 21.0455C53.4474 21.0524 53.4584 20.9819 53.4658 20.9396C53.4732 20.8972 53.385 21.0427 53.3821 21.0449C53.2917 21.1165 53.3204 21.0204 53.291 20.9855C53.2771 20.9686 53.2296 20.9692 53.201 20.974C53.1783 20.9779 53.1895 20.9383 53.1626 20.952C53.159 20.9538 53.1224 21.0202 53.1204 21.0223C53.0588 21.0912 53.1603 20.9362 53.1739 20.9058C53.2233 20.7954 53.2487 20.736 53.2 20.773C53.1889 20.7814 53.0401 21.0031 53.0239 21.0116C53.0029 21.0222 53.0556 20.9424 53.0324 20.9556C53.0305 20.9567 53.0008 21.0075 52.9951 21.0012C52.9682 20.9722 52.95 20.9217 52.9131 20.9068C52.9082 20.9046 52.8666 20.9886 52.8587 20.9867C52.8217 20.9777 52.7891 20.9544 52.7807 20.8987C52.7788 20.8848 52.8168 20.8312 52.825 20.8135C52.8747 20.7062 52.7737 20.845 52.7697 20.8464C52.672 20.8842 52.7076 20.7257 52.6132 20.7554C52.6079 20.7573 52.4909 20.901 52.56 20.7594C52.5646 20.75 52.6357 20.6053 52.5706 20.6945C52.5665 20.7 52.531 20.7752 52.5238 20.7612C52.5166 20.7471 52.4701 20.7838 52.5005 20.6962C52.51 20.6686 52.5797 20.5236 52.4998 20.6249C52.4943 20.632 52.3246 20.8673 52.4176 20.6907C52.433 20.6617 52.5415 20.4808 52.4688 20.5635C52.4547 20.5795 52.437 20.6237 52.4131 20.6437C52.3764 20.6747 52.3869 20.6153 52.3223 20.6863C52.3109 20.6989 52.2257 20.8148 52.2709 20.7153C52.2779 20.6997 52.3167 20.6408 52.3154 20.6309C52.3094 20.5834 52.2591 20.6085 52.2582 20.5514C52.2578 20.5313 52.3203 20.4359 52.3263 20.4041C52.3324 20.3722 52.3282 20.3357 52.2919 20.3747C52.2556 20.4137 52.1742 20.5764 52.152 20.5802C52.0556 20.5965 52.0458 20.4672 51.9894 20.4158C51.981 20.4082 51.9559 20.4688 51.9412 20.4616C51.8869 20.4352 51.7665 20.4348 51.7916 20.2894C51.8117 20.173 51.8998 20.1273 51.895 20.0723C51.8927 20.046 51.7711 20.2192 51.7645 20.223C51.6989 20.2627 51.7246 20.1693 51.6818 20.1774C51.673 20.1791 51.6353 20.2561 51.6282 20.2567C51.6037 20.2595 51.6053 20.2161 51.5856 20.2126C51.5766 20.2112 51.5448 20.2683 51.5407 20.26C51.5304 20.2408 51.5302 20.2088 51.5457 20.1469C51.5472 20.1413 51.598 20.0769 51.5877 20.0673C51.5709 20.052 51.5778 19.986 51.5241 20.0267C51.5081 20.0391 51.432 20.1675 51.4703 20.0704C51.4783 20.0501 51.5731 19.8979 51.4781 20.0217C51.4623 20.0422 51.3287 20.206 51.3836 20.082C51.398 20.0494 51.4634 19.9177 51.4439 19.9329C51.4409 19.9355 51.4045 20.0071 51.394 20.01C51.3577 20.019 51.338 19.9974 51.3017 20.0051C51.2919 20.0073 51.2592 20.0843 51.2459 20.0853C51.2095 20.0882 51.188 20.051 51.1759 20.0137C51.1716 19.9999 51.2129 19.9445 51.216 19.9376C51.2669 19.8264 51.1771 19.9641 51.1686 19.9702C51.117 20.0063 51.1391 19.9298 51.108 19.9352C51.0996 19.9365 51.0638 20.0063 51.0592 20.0116C51.0127 20.0634 51.0929 19.9475 51.0933 19.9297C51.0947 19.8796 51.0682 19.8713 51.0419 19.8674C51.0322 19.8661 50.9948 19.9494 50.9867 19.9474C50.9374 19.9365 50.8989 19.9037 50.8841 19.8368C50.8813 19.8241 50.9216 19.7667 50.9282 19.752C50.974 19.6494 50.8806 19.7712 50.8696 19.7815C50.8192 19.8288 50.8441 19.7717 50.8235 19.7729C50.7222 19.7799 50.654 19.6921 50.5988 19.6302C50.5267 19.5499 50.4916 19.4521 50.3983 19.4171C50.3924 19.4148 50.3506 19.4981 50.3449 19.4971C50.2737 19.4812 50.2333 19.4151 50.1597 19.4029C50.1538 19.4018 50.1161 19.4819 50.105 19.4826C50.082 19.4846 50.0639 19.4684 50.0619 19.4345C50.0608 19.4181 50.1099 19.3593 50.108 19.3441C50.1037 19.3086 50.0868 19.2914 50.0604 19.2922C50.0491 19.2928 50.0156 19.3777 50.0045 19.3723C49.9275 19.3373 49.8485 19.3088 49.8346 19.165C49.8336 19.1552 49.9223 18.9947 49.8938 19.0187C49.8672 19.062 49.8368 19.1136 49.8089 19.1602C49.6885 19.1233 49.6164 19.007 49.5157 18.9362C49.5114 18.9332 49.4698 19.0214 49.4613 19.0161C49.4121 18.9854 49.3499 18.98 49.3479 18.8667C49.3476 18.8556 49.4369 18.71 49.4089 18.7234C49.4038 18.7259 49.3698 18.7323 49.3451 18.7608C49.3415 18.7652 49.3051 18.8363 49.2967 18.834C49.2484 18.8196 49.2135 18.7779 49.1961 18.7111C49.1934 18.7002 49.2438 18.6313 49.2422 18.6229C49.2308 18.5638 49.1607 18.5974 49.1671 18.5117C49.1715 18.4541 49.2542 18.3324 49.3159 18.2011C49.3246 18.1826 49.3127 18.1718 49.3546 18.099C49.4602 17.9158 49.5843 17.7204 49.6961 17.5247C49.7201 17.4826 49.6754 17.5169 49.7457 17.4222C49.7505 17.4159 49.7834 17.3901 49.8069 17.3578C49.8231 17.3354 49.8624 17.2594 49.8849 17.2318C49.9074 17.2042 49.8761 17.2689 49.9048 17.2378C49.9337 17.2062 49.9797 17.1205 50.0008 17.1196ZM53.4984 20.7501C53.5278 20.6726 53.3741 20.9292 53.4235 20.8753C53.4261 20.8724 53.497 20.7539 53.4984 20.7501ZM54.9835 21.5709C55.0347 21.4479 54.9254 21.6087 54.8848 21.703C54.8442 21.7972 54.968 21.6082 54.9835 21.5709ZM55.1961 21.5845C55.2305 21.484 55.0122 21.8476 55.0755 21.7854C55.0791 21.7819 55.1941 21.5903 55.1961 21.5845ZM49.3909 18.1976C49.3927 18.194 49.3849 18.1849 49.3827 18.1882C49.3292 18.267 49.3449 18.2851 49.3909 18.1976ZM55.4118 21.5899C55.4352 21.5371 55.385 21.5844 55.3559 21.65C55.3325 21.7029 55.3828 21.6556 55.4118 21.5899ZM53.0305 20.1037C53.0326 20.0997 53.0277 20.0921 53.015 20.1139C52.9743 20.1841 52.9956 20.1701 53.0305 20.1037ZM55.6904 21.7485C55.6578 21.7107 55.811 21.3943 55.8353 21.4546C55.8397 21.4655 55.7612 21.5406 55.7554 21.5738C55.7449 21.6345 55.8691 21.4523 55.8284 21.5651C55.8209 21.5857 55.6919 21.7513 55.6901 21.7489C55.6902 21.7488 55.6903 21.7486 55.6904 21.7485ZM53.6739 20.4365C53.6757 20.433 53.6679 20.424 53.6656 20.4273C53.6122 20.506 53.6278 20.524 53.6739 20.4365ZM52.7159 19.7035C52.7197 19.6959 52.7012 19.6759 52.6965 19.6821C52.6059 19.8089 52.6431 19.8499 52.7159 19.7035ZM54.4378 20.6328C54.4969 20.5568 54.5152 20.5546 54.4627 20.6629C54.4555 20.6512 54.4454 20.6441 54.4378 20.6328Z" fill="#B92E2D"/>
</svg>
