<svg width="40" height="39" viewBox="0 0 40 39" fill="none" xmlns="http://www.w3.org/2000/svg">
<path d="M27.5297 3.57299L27.6886 3.63319L27.7703 3.6644C27.6377 3.6152 27.5043 3.56644 27.3684 3.51968L27.5297 3.57299Z" fill="#B92E2D"/>
<path d="M39.8275 15.8958C39.8235 15.8826 39.8232 15.8757 39.8198 15.8626C39.8498 15.8295 39.8752 15.799 39.8932 15.7713L39.8275 15.8958Z" fill="#B92E2D"/>
<path d="M37.7396 28.2995C37.7606 28.2801 37.7812 28.2594 37.8034 28.2284C37.7808 28.2706 37.7599 28.289 37.7396 28.2995Z" fill="#B92E2D"/>
<path d="M6.68512 20.4088C6.68393 20.4247 6.68111 20.4403 6.68024 20.4562C6.67839 20.4318 6.68067 20.4171 6.68512 20.4088Z" fill="#B92E2D"/>
<path d="M30.0918 4.89365L30.0431 4.83706C30.066 4.85863 30.0808 4.87693 30.0918 4.89365Z" fill="#B92E2D"/>
<path d="M39.8294 19.457C39.8365 19.5579 39.8453 19.6536 39.8616 19.7343L39.9253 19.7213C39.9752 19.9496 40.0061 20.1702 40.0003 20.3876C39.9954 20.6051 39.9724 20.8197 39.942 21.0376C39.8649 21.4731 39.7578 21.9206 39.6655 22.447L39.8141 22.3259C39.8879 22.708 39.6102 22.3976 39.5972 22.8343L39.751 22.883C39.4694 23.2226 39.7097 23.3804 39.7223 23.6591L39.5463 23.4937L39.4724 23.9884C39.4434 24.2644 39.4826 24.3631 39.5489 24.3867C39.6156 24.4105 39.7121 24.3593 39.7745 24.3331C39.6877 24.4423 39.5969 24.5492 39.5086 24.6554L39.6654 24.7781C39.3769 24.9833 39.6278 25.06 39.3527 25.4861C39.4056 25.5468 39.4849 25.4424 39.4575 25.61L39.2 25.9475L38.9264 26.2723C39.0216 26.1371 39.1238 26.0035 39.2138 25.864L38.9405 25.8257C38.7526 26.0209 38.695 26.1767 38.6601 26.3251C38.6241 26.4725 38.6139 26.6132 38.5012 26.7574C38.5597 26.6943 38.6213 26.6321 38.6756 26.5662C38.3752 27.0687 38.4632 27.1415 38.3757 27.467C38.3761 27.3526 38.3738 27.1797 38.2421 27.3767C38.1483 27.5223 38.2834 27.5014 38.233 27.6597C38.1435 27.6362 38.0288 27.7052 37.924 27.8253C37.8198 27.9459 37.7256 28.1179 37.6626 28.2983C37.6872 28.3071 37.7127 28.3125 37.7396 28.2995C37.6648 28.3676 37.5993 28.3866 37.5504 28.5518L37.7736 28.5687L37.4433 28.7481C37.3798 28.9624 37.0759 29.1395 37.2069 29.191L37.3089 29.111C37.0238 29.5761 36.7124 30.0265 36.381 30.4629L36.4914 30.5799C36.3531 30.5746 36.2262 30.76 36.1101 30.9211C35.9949 31.0829 35.8789 31.209 35.7963 31.0997C35.746 31.262 35.5235 31.4748 35.3465 31.6428C35.1683 31.8097 35.0474 31.9474 35.2221 31.9923C35.1268 32.0903 35.0334 32.1791 34.9415 32.2614C34.846 32.34 34.7516 32.4117 34.6586 32.4799C34.5036 32.5911 34.3542 32.6959 34.1982 32.7956C34.163 32.831 34.1273 32.866 34.0923 32.9018C34.0176 32.9769 33.9426 33.0521 33.8676 33.1274C33.7926 33.2027 33.7175 33.2779 33.6423 33.3532C33.5637 33.4252 33.4852 33.4973 33.4065 33.5695C33.3278 33.6417 33.2492 33.7139 33.1703 33.7863C33.0917 33.8588 33.0134 33.9319 32.9299 33.9992C32.7655 34.137 32.6008 34.2749 32.4357 34.4132C32.3951 34.4484 32.3526 34.4816 32.3094 34.5139L31.9234 34.8086C31.8369 34.8734 31.7529 34.9417 31.6641 35.0037L31.1291 35.3747C31.0842 35.4054 31.0401 35.4372 30.9946 35.467L30.8563 35.5538C30.6718 35.6695 30.4869 35.7856 30.3018 35.9017C29.921 36.1164 29.5437 36.3405 29.1468 36.5313L28.8521 36.6801L28.7784 36.7172L28.5519 36.8186C28.3501 36.9077 28.1499 37.0014 27.946 37.0869C27.7401 37.1677 27.5338 37.2485 27.3275 37.3294C27.2757 37.3492 27.2246 37.371 27.1722 37.3891L26.6989 37.5492C25.8552 37.8276 24.9894 38.0575 24.1062 38.2042C23.7368 38.2673 23.3648 38.3194 22.9916 38.3627C22.9702 38.3786 22.9481 38.392 22.9272 38.4C22.7485 38.4695 22.5698 38.5483 22.3895 38.6205C22.2083 38.6894 22.0236 38.7454 21.8385 38.7824C21.8364 38.7829 21.8345 38.7831 21.8324 38.7835C21.8205 38.7967 21.8099 38.8118 21.7968 38.8234C21.6823 38.9189 21.5169 38.9507 21.2614 38.8769C21.1659 38.8492 21.0669 38.8316 20.9658 38.8218C20.8646 38.811 20.7605 38.8026 20.6562 38.8025C20.4475 38.8007 20.2361 38.8216 20.0351 38.844C19.8352 38.8591 19.6359 38.8784 19.4364 38.8999C19.3366 38.9099 19.2369 38.9232 19.1371 38.9317L18.8373 38.954C18.6374 38.9681 18.4369 38.9861 18.2363 38.9947C18.0356 38.9991 17.8347 39.0013 17.6335 38.9992C16.669 38.9772 15.7063 38.8483 14.7575 38.6529C14.9697 38.6352 15.2292 38.6273 15.5206 38.6321C15.666 38.637 15.8212 38.6319 15.9823 38.633C16.0715 38.6332 16.1631 38.634 16.256 38.6353C16.2223 38.5905 16.1882 38.546 16.1553 38.5013C16.2365 38.5423 16.318 38.5849 16.4003 38.6211C16.396 38.6266 16.3918 38.6321 16.3877 38.6376C16.4198 38.6382 16.4513 38.6386 16.4837 38.6393C16.6563 38.6406 16.8345 38.6353 17.0155 38.6357C17.1059 38.6357 17.1972 38.6357 17.2892 38.6357C17.3352 38.6355 17.3813 38.6369 17.4276 38.6357C17.4738 38.6341 17.5202 38.6325 17.5668 38.6309C17.7527 38.6248 17.9404 38.6197 18.128 38.6158L18.2688 38.6131C18.3156 38.6115 18.3625 38.6078 18.4094 38.6053C18.503 38.6002 18.5964 38.5949 18.6895 38.5897C18.7826 38.585 18.8753 38.5804 18.9674 38.5757C19.0595 38.5708 19.1511 38.5693 19.2417 38.5599C19.423 38.5445 19.6014 38.5306 19.7749 38.5182C19.8617 38.512 19.9473 38.506 20.0315 38.5001C20.1156 38.4914 20.1981 38.4829 20.2792 38.4746C20.2933 38.4732 20.3068 38.4721 20.3208 38.4707C20.2424 38.4695 20.1641 38.468 20.086 38.4614L19.9867 38.4549C19.9823 38.4573 19.9783 38.4585 19.9739 38.4611C19.8589 38.5278 19.6797 38.5241 19.543 38.4838C19.3959 38.4441 19.2509 38.4137 19.1075 38.3911C19.042 38.3809 18.977 38.3729 18.912 38.3655L18.8576 38.3593C18.7985 38.3529 18.7396 38.3468 18.6805 38.3403C18.5389 38.3272 18.3982 38.321 18.2579 38.3207C18.1877 38.3205 18.1176 38.3217 18.0475 38.3243C17.9776 38.3274 17.9072 38.326 17.8372 38.3288C17.6969 38.333 17.5565 38.3419 17.4157 38.3542C17.3453 38.3603 17.2749 38.3673 17.2044 38.375C17.1338 38.3827 17.0632 38.3862 16.9924 38.3929C16.8508 38.4051 16.7086 38.4195 16.5658 38.4348L16.3512 38.4584C16.2796 38.4658 16.208 38.4694 16.1362 38.4751C16.1432 38.4833 16.1484 38.4924 16.1552 38.5014C16.1394 38.4933 16.1235 38.4852 16.1075 38.4769H16.1073L16.1251 38.4604C15.9482 38.3973 15.7434 38.4039 15.5388 38.3517C15.3352 38.2957 15.1329 38.1725 14.9765 37.8691C15.096 37.8726 15.2065 37.8738 15.3103 37.8743C15.362 37.8746 15.4121 37.8747 15.461 37.8749C15.5096 37.8755 15.5569 37.8751 15.6033 37.8729C15.7884 37.8667 15.9546 37.8648 16.1196 37.8786C16.2019 37.8851 16.2844 37.8946 16.3671 37.9047C16.3939 37.907 16.4207 37.9102 16.4475 37.9129C16.3344 37.8833 16.2206 37.8562 16.1083 37.8239C16.0005 37.794 15.8917 37.7676 15.7851 37.7345L15.1475 37.5288L14.9884 37.4769L14.832 37.418C14.8047 37.4077 14.7777 37.3975 14.7505 37.3872C14.6204 37.3591 14.4902 37.331 14.3596 37.3047L14.2368 37.2801L14.1151 37.2511L13.871 37.1949L13.4797 37.1071C13.4362 37.0972 13.3936 37.0843 13.3505 37.073L12.7037 36.8975C12.6606 36.8854 12.6184 36.8707 12.5757 36.8575L11.9351 36.6523C11.8927 36.6377 11.8508 36.6214 11.8087 36.6061L11.3025 36.418L11.1757 36.3706L11.0512 36.318L10.802 36.2121L10.5525 36.1055C10.5109 36.0875 10.4689 36.0701 10.4277 36.0515L10.3054 35.9927L9.81529 35.7556C9.17057 35.4221 8.53269 35.0597 7.93202 34.6362L7.70449 34.4798C7.62811 34.4282 7.55682 34.3702 7.48272 34.3154L7.04263 33.9794C6.89909 33.8632 6.75912 33.7424 6.61752 33.6227L6.40605 33.442C6.33726 33.3797 6.27021 33.3157 6.2024 33.2524C6.0595 33.1172 5.91487 32.983 5.77414 32.8447L5.36335 32.4174C5.22382 32.2766 5.0973 32.1244 4.96591 31.9756C4.83668 31.8252 4.70171 31.6787 4.58062 31.521L4.20889 31.0528C4.08835 30.8939 3.97323 30.7307 3.85507 30.5692C3.79659 30.4879 3.73702 30.4073 3.67951 30.3253L3.34685 29.8236C3.29216 29.7393 3.23357 29.657 3.18312 29.57L2.79121 28.9227L2.57073 28.5243C2.36783 28.1722 2.19347 27.8054 2.00663 27.4409C1.91875 27.2565 1.83531 27.0698 1.74862 26.8834L1.6195 26.603L1.50058 26.3181C1.42192 26.1276 1.33859 25.9376 1.26188 25.7449C1.18799 25.5505 1.11399 25.3562 1.04021 25.1619C0.957529 24.9581 0.950584 24.731 0.910981 24.5119C1.00115 24.7298 1.08534 24.947 1.18506 25.1594C1.20708 25.2079 1.22835 25.2555 1.25005 25.3038L1.08458 24.7684C1.02285 24.5786 0.977818 24.3846 0.926822 24.1916C0.878539 23.998 0.823312 23.8051 0.785662 23.6088L0.662512 23.0203C0.62573 22.8231 0.595784 22.6246 0.562257 22.4262C0.546307 22.3268 0.528947 22.2275 0.514299 22.1278L0.44106 21.5273C0.429884 21.4269 0.41426 21.3266 0.407967 21.2259L0.346663 20.4683L0.327459 20.0116C0.303154 19.6043 0.311075 19.1968 0.306626 18.7858C0.310315 18.581 0.319104 18.376 0.324746 18.1699L0.334402 17.8605L0.355126 17.5518C0.369774 17.3457 0.379973 17.1378 0.397442 16.9308C0.418057 16.7235 0.438673 16.5161 0.45918 16.309C0.476214 16.0892 0.571045 15.8834 0.633217 15.6698C0.616616 15.9056 0.595133 16.138 0.589491 16.3734C0.58081 16.6078 0.568441 16.8397 0.561497 17.0711C0.559435 17.302 0.557374 17.5331 0.555312 17.7642C0.555095 17.8216 0.553033 17.8787 0.554335 17.9361L0.558784 18.1084L0.575602 18.7923L0.596109 19.1326L0.625947 19.6395L0.642223 19.8079L0.70613 20.4773L0.794776 21.1404C0.925412 22.0199 1.10574 22.8815 1.34021 23.7201C1.58076 24.5575 1.87871 25.3698 2.23166 26.1489C2.21778 26.0611 2.19738 25.9758 2.18078 25.8891C2.16396 25.8026 2.14454 25.7169 2.12306 25.632C2.08096 25.4617 2.0266 25.295 1.97441 25.1275C1.92515 24.959 1.87111 24.7914 1.81621 24.6235C1.78974 24.5393 1.75892 24.456 1.73581 24.3709L1.66539 24.1154C1.62069 23.9444 1.57458 23.7733 1.54365 23.5996C1.51512 23.4254 1.49374 23.2501 1.48344 23.0741C1.47931 22.986 1.47356 22.8982 1.4792 22.8092C1.48376 22.7205 1.49157 22.6316 1.50318 22.5427C1.52727 22.365 1.56275 22.1877 1.62449 22.0113C1.68113 22.1981 1.742 22.3832 1.79581 22.568L1.87676 22.8445C1.90649 22.936 1.93546 23.0275 1.96356 23.1188C1.99166 23.2101 2.01889 23.3013 2.04526 23.3926C2.07152 23.4839 2.09615 23.5753 2.12631 23.6656C2.18349 23.8467 2.23709 24.028 2.28689 24.2099C2.31055 24.3029 2.34266 24.3938 2.3712 24.4855L2.45887 24.7597L2.54686 25.0332L2.79403 25.7061C2.8103 25.751 2.83027 25.7945 2.84817 25.8387L3.06919 26.3656C3.38178 27.0595 3.73463 27.7308 4.14043 28.3642C4.55252 28.9938 5.00779 29.5891 5.51319 30.131C5.64057 30.2656 5.77381 30.3945 5.90456 30.5241C5.96879 30.5859 6.03064 30.6494 6.09704 30.7087C5.92203 30.4628 5.75331 30.2132 5.59196 29.9596L5.35456 29.646L5.21004 29.4546C5.16143 29.3909 5.11857 29.3236 5.07246 29.2582L4.79925 28.8619C4.75216 28.7965 4.71147 28.7273 4.66829 28.6595L4.4106 28.2501L4.34626 28.1473L4.28615 28.0421C4.12676 27.761 3.95847 27.4819 3.81362 27.1902C3.30366 26.2172 2.83895 25.197 2.47937 24.117C2.1198 23.0383 1.86764 21.9017 1.78366 20.7377C1.75675 20.4702 1.74916 20.1991 1.74026 19.9256L1.73625 19.7202L1.73549 19.6174L1.73993 19.5148C1.74688 19.378 1.75708 19.2411 1.77173 19.1047C1.779 19.0366 1.78746 18.9685 1.79722 18.9007C1.80742 18.8329 1.81654 18.7651 1.83325 18.6983C1.86395 18.5645 1.90041 18.4318 1.94392 18.3012C1.97202 18.2182 2.00338 18.1365 2.03734 18.0554C2.05589 17.4985 2.09582 16.9379 2.16396 16.3756C2.1543 16.3278 2.14703 16.2799 2.14443 16.233C2.14313 16.176 2.14823 16.1207 2.15973 16.0692C2.20009 15.896 2.24143 15.7223 2.28526 15.5491C2.45247 14.5857 2.712 13.6263 3.091 12.7059C3.18605 12.4548 3.29997 12.2097 3.41368 11.9618L3.50146 11.7767L3.5466 11.6847L3.59629 11.5953C3.66335 11.4765 3.73333 11.3592 3.80711 11.2443C3.844 11.1869 3.88187 11.13 3.92071 11.0741C3.95988 11.0183 3.9984 10.9621 4.04289 10.9101C4.1298 10.8049 4.22137 10.7034 4.31837 10.6069C4.41592 10.511 4.5165 10.4182 4.62738 10.3354C4.66102 10.3111 4.69639 10.2887 4.73122 10.2657C4.92479 9.9831 5.12562 9.70519 5.33525 9.43311C5.33471 9.41343 5.33536 9.3946 5.33395 9.37418C5.3257 9.26353 5.33503 9.14028 5.3627 9.02328C5.37648 8.96478 5.39493 8.90798 5.41771 8.85508C5.44191 8.80367 5.47109 8.7567 5.5043 8.71597C5.66412 8.52397 5.82383 8.32995 5.99234 8.14408C6.16409 7.96192 6.33857 7.78102 6.51499 7.60139C6.69662 7.42822 6.88238 7.25864 7.06846 7.08842C7.16014 7.00157 7.25931 6.92446 7.35544 6.8429L7.64677 6.6017C7.70851 6.5525 7.77665 6.51157 7.86041 6.47623C7.94352 6.43995 8.03803 6.40271 8.14642 6.35151C8.11745 6.46862 8.06147 6.5634 7.99452 6.64761C8.15673 6.51051 8.32002 6.37446 8.48755 6.24297C8.48549 6.24762 8.4831 6.25302 8.48148 6.25694C8.47876 6.25873 8.47605 6.26053 8.47312 6.26095C8.47507 6.26106 8.47724 6.26233 8.47985 6.26339C8.39836 6.4739 8.32805 6.69965 8.24082 6.97174C8.32957 7.00094 8.40986 7.03743 8.48365 7.06864C8.66094 6.90478 8.84105 6.74409 9.02431 6.58668C8.98243 6.52691 8.93491 6.46967 8.88901 6.42736C8.78832 6.33299 8.62112 6.31332 8.47985 6.26317C8.4805 6.26116 8.48115 6.25916 8.48148 6.25672C8.69392 6.16363 8.9004 6.03033 9.11252 5.95618C9.11773 5.931 9.12033 5.90381 9.12674 5.87969C9.16167 5.74947 9.21278 5.63046 9.2832 5.52953C9.42273 5.32484 9.62248 5.16076 9.86672 5.01255C10.7028 4.52022 11.5829 4.09442 12.4957 3.74035C12.521 3.72744 12.5454 3.71496 12.571 3.70195C12.6541 3.66037 12.7388 3.61795 12.8248 3.57479C12.9117 3.53385 13.0012 3.49524 13.092 3.45462C13.2738 3.37422 13.4623 3.29234 13.6567 3.20951C13.8525 3.13218 14.0555 3.05802 14.2635 2.98122C14.3677 2.94355 14.4728 2.90378 14.5799 2.8676C14.6877 2.83396 14.7965 2.7999 14.9062 2.76562C15.0165 2.73198 15.1278 2.69813 15.2397 2.66396C15.352 2.63011 15.4653 2.59509 15.5805 2.56801C15.8106 2.50993 16.0446 2.45259 16.282 2.39632L16.3712 2.37527L16.4608 2.3577C16.5208 2.34617 16.5808 2.33475 16.641 2.32322C16.7618 2.30079 16.8831 2.27826 17.0046 2.25562C17.1265 2.23435 17.249 2.20949 17.3719 2.19225C17.495 2.17606 17.6185 2.15977 17.7421 2.14348C17.8662 2.12804 17.9905 2.1127 18.1147 2.09726C18.177 2.09007 18.2393 2.08171 18.3016 2.07578L18.4889 2.0615C18.7389 2.04299 18.9895 2.02627 19.2399 2.01167C19.3058 2.00998 19.3715 2.01019 19.4374 2.00903C19.9167 1.9593 20.3974 1.92821 20.8779 1.91996C21.9664 1.8971 23.0568 1.96544 24.1355 2.12751C25.5834 2.3504 27.0037 2.74837 28.3637 3.30302C28.2148 3.22347 28.0654 3.14508 27.9188 3.0631C27.7587 2.97243 27.5989 2.88199 27.4402 2.79207C27.2828 2.70046 27.1296 2.60334 26.9825 2.49766C26.8982 2.438 26.8148 2.37696 26.7282 2.32237C26.6415 2.2681 26.5542 2.21542 26.4664 2.16411C26.2909 2.0616 26.1131 1.96512 25.9338 1.87542C25.8448 1.82908 25.7519 1.7911 25.6599 1.75217C25.5677 1.71378 25.475 1.67717 25.3819 1.64226C25.1955 1.57329 25.0091 1.50813 24.819 1.45682C24.6276 1.40826 24.435 1.36742 24.2418 1.33463C24.0483 1.30268 23.8559 1.27433 23.6584 1.26767C23.462 1.25814 23.2653 1.25719 23.069 1.26545C22.9707 1.26989 22.8729 1.27507 22.7745 1.28544C22.6757 1.29739 22.5768 1.31157 22.4783 1.32818C22.3151 1.35558 22.1423 1.37177 21.9777 1.35378C21.7937 1.33125 21.6075 1.32172 21.4224 1.31136C21.2372 1.3011 21.0525 1.29221 20.8686 1.28417C20.6843 1.27772 20.4992 1.28089 20.3155 1.27973C20.1316 1.28089 19.9488 1.27803 19.7658 1.28343L19.2179 1.30533L18.9455 1.3158C18.8549 1.3177 18.764 1.32776 18.6735 1.33305C18.3111 1.36034 17.951 1.37515 17.5916 1.41111C16.282 1.51563 14.9928 1.73726 13.7445 2.08064C13.1494 2.2443 12.5641 2.43652 11.9905 2.6555C11.8492 2.7287 11.7077 2.80032 11.5689 2.87723L11.0902 3.14889L10.8519 3.28366C10.7721 3.32714 10.6953 3.37781 10.617 3.42425C10.3059 3.61541 9.9915 3.79441 9.68704 3.99181C8.56578 4.68779 7.51483 5.47876 6.55448 6.35955C5.59424 7.24002 4.7246 8.21062 3.97019 9.25855C3.84031 9.43977 3.70751 9.65251 3.52631 9.75681C3.43517 9.81034 3.34869 9.86853 3.26645 9.93063C3.18702 9.99494 3.11183 10.0633 3.04044 10.1348C2.89754 10.278 2.76951 10.4342 2.65178 10.5984C2.53927 10.7661 2.43836 10.9428 2.34201 11.1225C2.29394 11.2125 2.24718 11.3032 2.20107 11.3944C2.1568 11.4869 2.11524 11.5809 2.07249 11.6743C1.98233 11.875 1.87361 12.0665 1.75512 12.2805C1.6412 12.4969 1.51273 12.7332 1.37266 13.0151C1.36691 12.7341 1.34228 12.6374 1.37092 12.564C1.54409 12.1268 1.73364 11.6939 1.93752 11.2668C1.90345 11.2546 1.86949 11.2424 1.83542 11.2302C1.88923 11.1188 1.94327 11.0071 1.9973 10.8954L2.07922 10.7279L2.16765 10.5643C2.1989 10.581 2.23123 10.5984 2.26335 10.6155C2.55554 10.0611 2.87823 9.52101 3.23563 9.00202C3.19549 8.99567 3.14113 8.9724 3.09805 8.96319C3.14449 8.89157 3.18333 8.8116 3.24269 8.75246C3.26265 8.73258 3.32786 8.76262 3.39415 8.77849C3.43408 8.72285 3.47217 8.66604 3.51296 8.61082C4.31956 7.51009 5.24085 6.48681 6.26001 5.5581C6.22735 5.58212 6.19545 5.60518 6.16171 5.63035C6.2816 5.3772 6.30265 5.27956 6.36092 5.2273C7.46688 4.24464 8.68578 3.35962 10.0304 2.68819C10.6268 2.38722 11.2399 2.11703 11.8664 1.87616C13.041 1.34077 14.2709 0.900162 15.5404 0.563335C16.8433 0.217514 18.1908 0.0315399 19.5555 0.0036087C20.922 -0.0243187 22.3091 0.109924 23.6718 0.401051C25.0349 0.69165 26.3732 1.13839 27.6523 1.72255C28.9319 2.30661 30.1525 3.02755 31.293 3.86243C32.6275 4.84329 33.8353 6.00283 34.8929 7.28984C34.961 7.36855 35.0233 7.45223 35.088 7.534L35.2795 7.78112L35.4697 8.0293C35.5327 8.11234 35.5967 8.19444 35.6559 8.28055L36.0142 8.79383L36.1915 9.05185L36.3596 9.31642L36.4311 9.43088C36.5257 9.49605 36.5942 9.56798 36.5751 9.66129L36.6918 9.848C36.7405 9.92438 36.7848 10.0036 36.8297 10.0824C37.0115 10.3418 37.1892 10.6045 37.3588 10.8738C37.3731 10.8657 37.382 10.8618 37.376 10.9005C37.4086 10.9523 37.4435 11.0024 37.4755 11.0546C37.7583 11.5146 38.022 11.9893 38.2679 12.4757L38.2869 12.4864C38.5085 12.7722 38.5717 12.9747 38.6372 13.2154C38.6424 13.236 38.6473 13.2575 38.6522 13.2789C38.778 13.5581 38.8984 13.8404 39.0116 14.1269C39.054 14.2342 39.0993 14.3435 39.1368 14.4562C39.1439 14.4781 39.15 14.5002 39.157 14.5221C39.3333 14.6973 39.4903 14.7023 39.5378 14.4383C39.5083 14.6903 39.484 14.7514 39.484 14.8254C39.4833 14.8991 39.5027 14.9866 39.538 15.2886C39.6563 15.3503 39.6571 15.2843 39.6993 15.1321C39.8332 15.3735 39.8354 15.4602 39.8173 15.5337C39.8006 15.6071 39.7669 15.6674 39.82 15.8621C39.7241 15.9673 39.5855 16.088 39.5084 16.1943C39.5091 16.2066 39.5102 16.2203 39.5106 16.2319C39.5108 16.2932 39.5069 16.3446 39.5005 16.3839C39.4874 16.4624 39.4619 16.4926 39.4221 16.4606C39.4063 16.4479 39.3877 16.4224 39.3674 16.3893C39.3729 16.5428 39.3803 16.6998 39.4064 16.8571C39.4441 17.078 39.4916 17.3046 39.5719 17.5352L39.6579 17.5036C39.6672 17.6756 39.6861 17.8457 39.6868 18.0177L39.8045 18.036C39.8176 18.2817 39.8379 18.5263 39.8435 18.7716L39.8062 18.6736C39.8045 18.7602 39.8015 18.9453 39.8093 19.1482C39.8128 19.2502 39.8191 19.3562 39.8294 19.457ZM3.2748 28.0887L3.24258 28.0327L3.15328 27.8611C3.07429 27.7079 2.9953 27.5547 2.91653 27.4019C2.85186 27.4355 2.78741 27.4691 2.72242 27.5028C2.89439 27.8077 3.05671 28.1157 3.24551 28.408C3.29954 28.3751 3.35032 28.3443 3.40392 28.3118C3.36084 28.2375 3.31788 28.1631 3.2748 28.0887ZM17.3322 0.566608C17.2323 0.566292 17.1324 0.575073 17.0332 0.582794C16.9339 0.591045 16.8349 0.600994 16.7364 0.612736C16.5395 0.637066 16.3443 0.664783 16.1519 0.706463C16.029 0.73513 15.9073 0.767925 15.7866 0.802624C16.1632 0.738514 16.542 0.683403 16.9235 0.639927C17.1701 0.611572 17.4178 0.588718 17.666 0.569042C17.5543 0.566399 17.443 0.565235 17.3322 0.566608ZM4.93607 15.3185C4.93293 15.322 4.92858 15.3245 4.92544 15.328C4.85545 15.4047 4.78753 15.4891 4.73209 15.5794C4.7054 15.623 4.68196 15.6679 4.66221 15.7138C4.65527 15.7468 4.64843 15.7797 4.6416 15.8124C4.62717 15.8802 4.61209 15.9462 4.597 16.0121C4.58691 16.0832 4.5765 16.1544 4.56706 16.2253L4.54395 16.404L4.53277 16.4931C4.52973 16.5229 4.52811 16.5533 4.52572 16.5832L4.51053 16.8062C4.62782 16.3486 4.76323 15.8953 4.91817 15.4482C4.92359 15.405 4.92869 15.362 4.93607 15.3185ZM17.748 3.5073C17.6913 3.51809 17.6348 3.52878 17.5782 3.53946C17.5422 3.5877 17.5021 3.62483 17.4571 3.64927C17.4346 3.6609 17.4107 3.66926 17.386 3.67593C17.42 3.67836 17.4542 3.6792 17.4885 3.68005L17.5285 3.67105L17.6101 3.65667L17.7736 3.62757C17.8373 3.61615 17.9014 3.60473 17.9653 3.5933C17.9615 3.58347 17.9573 3.57447 17.9537 3.56421C17.9433 3.53469 17.9358 3.50423 17.9261 3.4744C17.8667 3.4854 17.8072 3.4963 17.748 3.5073ZM8.37775 8.84715C8.43384 8.79319 8.49037 8.73882 8.54723 8.68402L8.56307 8.66879C8.58358 8.64605 8.60419 8.62319 8.62481 8.60034C8.69989 8.51677 8.78376 8.43574 8.86243 8.35227C8.90192 8.3107 8.93957 8.26796 8.97527 8.2248C9.01194 8.18259 9.04579 8.139 9.07498 8.09319C9.08247 8.08156 9.08865 8.06939 9.09538 8.05744C9.02062 8.13054 8.94597 8.20374 8.87284 8.2778C8.63457 8.52587 8.40205 8.77859 8.17865 9.03725C8.24483 8.9742 8.31026 8.91168 8.37775 8.84715ZM7.8947 9.76538L7.92465 9.73291C7.92541 9.73026 7.92638 9.72794 7.92714 9.72529C7.91651 9.73873 7.90522 9.75195 7.8947 9.76538ZM21.0074 3.81599C20.9811 3.81546 20.9555 3.81514 20.929 3.81461C20.7882 3.81355 20.6429 3.81789 20.4952 3.81757C20.4214 3.81757 20.347 3.81757 20.2719 3.81757C20.2344 3.81768 20.1968 3.81662 20.1591 3.81757C20.1213 3.81884 20.0835 3.82022 20.0456 3.82149C19.8938 3.82646 19.7408 3.83059 19.5877 3.83386L19.4729 3.83619C19.4347 3.83746 19.3964 3.84053 19.3582 3.84254C19.2819 3.84678 19.2057 3.85111 19.1297 3.85534C19.1149 3.85608 19.1001 3.85682 19.0852 3.85756C19.0846 3.8583 19.0839 3.85904 19.0833 3.85978C19.0201 3.92251 18.9567 3.97012 18.8935 4.00905L19.2655 3.95943C19.3671 3.94346 19.4701 3.93955 19.5724 3.92982L20.1875 3.87935C20.2902 3.87226 20.3931 3.87174 20.4959 3.86761L21.0402 3.85069C21.0258 3.84391 21.0116 3.83598 20.9972 3.82964C21.0005 3.82498 21.0039 3.82053 21.0074 3.81599ZM19.1369 4.05856C19.2523 4.06924 19.3671 4.07432 19.4816 4.07464C19.5389 4.07485 19.5961 4.07379 19.6531 4.07178C19.7103 4.06924 19.7675 4.0704 19.8248 4.06808C19.9026 4.06575 19.9806 4.05951 20.0585 4.05401C20.1439 4.02576 20.2274 3.99932 20.3051 3.97753C19.8871 3.98472 19.4666 4.00842 19.0456 4.04809C19.076 4.05136 19.1065 4.05528 19.1369 4.05856ZM17.762 4.0172C17.8599 4.04121 17.9624 4.0301 18.0818 3.96018C18.1052 3.94664 18.1317 3.9368 18.1602 3.92992C18.1574 3.92685 18.155 3.92315 18.1522 3.92008C18.113 3.92283 18.0734 3.92558 18.0348 3.92833C17.9663 3.93542 17.8989 3.9423 17.8328 3.94918C17.7663 3.95573 17.701 3.96187 17.6371 3.96747C17.6783 3.98895 17.7197 4.00683 17.762 4.0172ZM21.6997 4.04935C21.7453 4.06194 21.7907 4.07919 21.8353 4.10183C21.887 4.10458 21.9386 4.10585 21.9902 4.10902C22.1515 4.1123 22.3248 4.10574 22.507 4.09199C22.1247 4.04491 21.7379 4.01149 21.3475 3.99234C21.4594 4.01244 21.5794 4.01867 21.6997 4.04935ZM16.9896 4.51345C16.912 4.4907 16.8329 4.46447 16.7522 4.43506C16.7213 4.44342 16.6908 4.45304 16.66 4.46161C16.6636 4.50943 16.6639 4.55291 16.6608 4.59237C16.7701 4.56497 16.8797 4.53862 16.9896 4.51345ZM9.17328 12.5745C9.20345 12.5146 9.23404 12.4539 9.2641 12.3942C9.22363 12.3722 9.18424 12.3508 9.14421 12.329C9.13097 12.403 9.11762 12.4771 9.10449 12.5506C9.12728 12.5586 9.15006 12.5672 9.17328 12.5745ZM12.7951 6.04377C12.787 6.06006 12.779 6.07646 12.7717 6.09338C12.9707 5.98728 13.1714 5.88446 13.3741 5.78639C13.4017 5.75381 13.4296 5.7225 13.4578 5.69277C13.2341 5.8048 13.0133 5.92212 12.7951 6.04377ZM16.6596 4.45717C16.6893 4.44955 16.7189 4.44119 16.7487 4.43379C16.7172 4.42226 16.6864 4.4122 16.6544 4.39941C16.657 4.41982 16.6581 4.43823 16.6596 4.45717ZM23.8958 3.9533L23.8287 4.01212C23.8147 4.01222 23.8012 4.01244 23.7879 4.01254L23.887 3.9479C23.8308 3.90993 23.7721 3.87819 23.7104 3.85344C23.6004 3.8071 23.4834 3.77685 23.3596 3.75791C23.2976 3.7485 23.2339 3.74183 23.1686 3.73749C23.1034 3.73273 23.0363 3.73083 22.9665 3.73379C22.8289 3.7376 22.6823 3.70618 22.5406 3.65329C22.4697 3.62684 22.4001 3.595 22.3335 3.55945C22.2667 3.52422 22.2036 3.4835 22.1439 3.44616C22.1411 3.44436 22.1385 3.44287 22.1357 3.44107C21.8146 3.42245 21.493 3.41241 21.1712 3.41061C21.1455 3.42648 21.1208 3.4451 21.0944 3.45927C21.0316 3.49281 20.9669 3.52158 20.9004 3.55035C20.8776 3.55998 20.8539 3.56675 20.8308 3.57553C21.3358 3.62441 21.8389 3.70099 22.3372 3.80361C22.1641 3.8181 21.9524 3.82445 21.7147 3.82064C21.5961 3.81662 21.4695 3.82075 21.3381 3.82001C21.2653 3.8199 21.1906 3.81916 21.1149 3.8181C21.1226 3.82837 21.1303 3.83863 21.138 3.84889L21.7304 3.86031C21.8333 3.86317 21.9363 3.86264 22.0391 3.86825L22.6554 3.91162C22.7579 3.9203 22.8612 3.92283 22.9632 3.93764L23.408 3.99181C23.4122 3.97774 23.4164 3.96378 23.4205 3.9497L23.6252 3.99128L23.7274 4.01276L23.7301 4.01339C23.7493 4.01328 23.7688 4.01222 23.7878 4.01265C23.7823 4.01635 23.7768 4.02005 23.7712 4.02365L23.8285 4.03803C23.8661 4.04766 23.9037 4.05729 23.9412 4.06702L24.0513 4.08607C24.0018 4.03571 23.9502 3.99096 23.8958 3.9533ZM21.9008 3.3098C21.8298 3.27742 21.7592 3.25256 21.6881 3.23977C21.6125 3.22612 21.5363 3.22527 21.4586 3.24082C21.4295 3.24675 21.4001 3.25552 21.3706 3.26632C21.3598 3.27605 21.3483 3.2844 21.3372 3.29382C21.4665 3.29678 21.5953 3.30048 21.7228 3.30376C21.7826 3.30577 21.8415 3.30779 21.9008 3.3098ZM23.8245 4.31456C23.7012 4.28822 23.5779 4.26209 23.4532 4.23861C23.4481 4.2422 23.4429 4.24549 23.4378 4.24919L23.4256 4.25818C23.5549 4.27679 23.6837 4.29795 23.8123 4.31932C23.8164 4.31763 23.8204 4.31604 23.8245 4.31456ZM6.60646 23.4981C6.62143 23.4454 6.6364 23.3929 6.65127 23.3404C6.66526 23.2884 6.68545 23.2355 6.70107 23.1839C6.73395 23.0803 6.76281 22.9786 6.78125 22.8784C6.79048 22.8283 6.7972 22.7785 6.80057 22.7291C6.80664 22.6792 6.80957 22.6295 6.80838 22.58C6.80773 22.554 6.80252 22.528 6.79959 22.502C6.787 22.4659 6.77539 22.4282 6.76075 22.3955C6.72635 22.3208 6.70747 22.2414 6.69792 22.1604C6.68371 22.1192 6.67069 22.0777 6.65702 22.036C6.63033 21.953 6.60483 21.8692 6.58074 21.7849C6.56924 21.7427 6.55589 21.7005 6.547 21.6579L6.52248 21.5297C6.50696 21.444 6.49329 21.358 6.48179 21.2717C6.47571 21.2236 6.47419 21.175 6.4794 21.1256C6.48602 21.0761 6.49654 21.0257 6.50891 20.974C6.53376 20.8704 6.5662 20.7614 6.58931 20.6412C6.6747 20.665 6.75456 20.6893 6.82997 20.7142C6.81717 20.655 6.80165 20.6011 6.78483 20.556C6.74653 20.4411 6.70042 20.3803 6.68512 20.4088C6.7257 19.8819 6.97742 19.3964 6.92491 18.6755C6.86719 18.6072 6.86502 18.4473 6.89008 18.2461C6.92057 18.0454 6.98697 17.8051 7.04784 17.5733C7.10524 17.3717 7.16546 17.1777 7.20343 17.0194C7.15135 17.0447 7.09971 17.0698 7.04285 17.0982C6.93153 16.8386 6.7232 16.5908 6.7806 16.3995C6.80534 16.3098 6.82303 16.2206 6.8354 16.1313C6.84766 16.0449 6.85254 15.9584 6.86046 15.8726C6.68382 16.3499 6.52844 16.834 6.39944 17.3248C6.35343 17.5151 6.30753 17.7053 6.26153 17.8954C6.2254 18.0877 6.18916 18.2798 6.15303 18.4719C6.11158 18.6632 6.094 18.8584 6.0659 19.0519L6.02652 19.3425C6.01881 19.3908 6.01534 19.4396 6.01165 19.4883L5.99993 19.6345C5.9766 19.7919 5.95187 19.9464 5.92572 20.0977C5.91053 20.1732 5.90532 20.2486 5.89469 20.323C5.8846 20.3975 5.87472 20.471 5.86485 20.5438C5.84499 20.6893 5.81993 20.8316 5.79953 20.9705C5.78336 21.1094 5.76513 21.2448 5.74495 21.3767C5.7672 21.4839 5.78738 21.5995 5.80626 21.7228C5.83186 21.8456 5.85606 21.9759 5.87895 22.1131C5.8898 22.1818 5.90098 22.2521 5.91237 22.3241C5.92441 22.3959 5.93071 22.47 5.94731 22.5443C5.97617 22.6935 6.00416 22.8488 6.03129 23.0094C6.04528 23.0896 6.057 23.1714 6.0723 23.254C6.08782 23.3273 6.10366 23.402 6.11961 23.4771C6.26988 23.5004 6.4322 23.5085 6.60646 23.4981ZM7.95307 10.0731C7.9611 10.0224 7.97108 9.97231 7.98389 9.9229C7.95937 9.93623 7.93257 9.9522 7.90631 9.96765C7.77155 10.1237 7.63907 10.2819 7.50876 10.4423C7.51473 10.4911 7.5233 10.5405 7.5374 10.5914C7.67227 10.4159 7.81148 10.2435 7.95307 10.0731ZM13.2305 5.56011C13.1769 5.59713 13.1242 5.63427 13.0767 5.6788C13.0039 5.74471 12.9409 5.8196 12.8839 5.89979C13.1314 5.76967 13.3811 5.644 13.6342 5.52584C13.7161 5.45633 13.799 5.39254 13.8859 5.34324C13.9965 5.27787 14.1084 5.22244 14.2204 5.17145C14.2763 5.14606 14.3323 5.12152 14.3883 5.09761C14.4452 5.07592 14.5019 5.05423 14.5588 5.03265C14.6629 4.99266 14.7737 4.95903 14.881 4.92084C14.9347 4.9019 14.9874 4.88106 15.0383 4.85916C15.0899 4.83842 15.1395 4.81516 15.1859 4.78775C15.1874 4.78691 15.1887 4.78585 15.1901 4.785C15.1127 4.80933 15.035 4.83324 14.9583 4.85853C14.3664 5.06291 13.7822 5.28559 13.2305 5.56011ZM25.2621 4.21883C25.5535 4.18836 25.7159 4.20603 25.817 4.24306C25.8721 4.17937 25.9461 4.11029 26.0456 4.00408C26.0807 4.25098 26.1072 4.38968 26.1137 4.45601C26.1487 4.46648 26.1929 4.47176 26.2527 4.46891C26.3325 4.45801 26.4128 4.44743 26.4932 4.43749C26.4933 4.40998 26.4924 4.38206 26.4941 4.35498C26.4826 4.34461 26.4726 4.33594 26.4614 4.32599C26.404 4.31552 26.3467 4.30483 26.2892 4.29468C26.339 4.29531 26.3833 4.29595 26.4282 4.29658C26.2761 4.16149 26.1514 4.05581 26.047 3.98366C25.9877 3.94145 25.9328 3.91268 25.8818 3.89417C25.8309 3.87544 25.7839 3.86666 25.7387 3.86814C25.5895 3.8728 25.4572 3.98938 25.2621 4.21883ZM5.11391 14.6831C5.1164 14.6765 5.1189 14.6697 5.12139 14.663C5.16154 14.5594 5.2096 14.4503 5.24508 14.3418C5.26331 14.2876 5.27644 14.2329 5.28751 14.1799C5.29847 14.1269 5.30368 14.0744 5.30053 14.0231C5.29977 14.0122 5.29988 14.0014 5.29923 13.9905C5.25279 14.0943 5.20526 14.1981 5.16045 14.3022C5.11054 14.4179 5.06291 14.5347 5.0156 14.6516C5.04946 14.6603 5.08244 14.6702 5.11391 14.6831ZM5.41532 12.3722C5.36183 12.4613 5.31485 12.5537 5.26765 12.6459C5.22013 12.7378 5.17271 12.8296 5.1253 12.9214C5.07778 13.013 5.03036 13.1045 4.98305 13.1958C4.9352 13.2868 4.8956 13.3817 4.85144 13.4742C4.76486 13.6601 4.6786 13.8452 4.59266 14.0296C4.67296 13.8607 4.75314 13.6921 4.83321 13.5237L4.95343 13.2714C4.99531 13.1883 5.04088 13.1069 5.08439 13.0247C5.1725 12.8608 5.26049 12.6972 5.34838 12.5336C5.43995 12.3722 5.53837 12.2148 5.63298 12.0556C5.6435 12.0372 5.65501 12.0195 5.66575 12.0012C5.62951 12.0396 5.59446 12.0789 5.56072 12.1192C5.51222 12.2036 5.46361 12.2881 5.41532 12.3722ZM28.2458 4.69953C28.2461 4.69963 28.2463 4.69963 28.2465 4.69974C28.5136 4.7794 28.7411 4.8819 29.01 4.9878C29.0176 4.99108 29.0264 4.99415 29.0341 4.99743L28.9373 4.94823C28.7715 4.86879 28.6025 4.79622 28.4351 4.72005C28.2299 4.62283 28.0192 4.53841 27.8079 4.45558C27.9564 4.53429 28.102 4.61638 28.2458 4.69953ZM24.9791 2.84687C25.0336 2.86739 25.0872 2.88866 25.14 2.90886C25.2982 2.97128 25.4478 3.03284 25.5878 3.09303C25.6575 3.12371 25.725 3.15354 25.7904 3.18232C25.8555 3.21173 25.9163 3.24474 25.9757 3.27499C26.037 3.30694 26.0951 3.33825 26.1507 3.36903L26.4684 3.46266C26.5173 3.47747 26.5667 3.4909 26.6153 3.50687L27.05 3.65752C28.0874 4.01222 29.0863 4.46817 30.0422 4.99869C30.1022 4.9843 30.1304 4.95278 30.0918 4.89386L30.2697 5.10068C30.6573 5.27607 30.9335 5.43602 31.1712 5.55873C31.4102 5.67901 31.5938 5.79263 31.787 5.89462C31.9085 5.95925 32.0335 6.02357 32.1688 6.09582C31.7383 5.76629 31.2996 5.4612 30.8487 5.17811C29.9648 4.62516 29.0312 4.15229 28.0034 3.75389L28.0058 3.75474L28.323 3.8766C28.4291 3.91638 28.531 3.96578 28.6351 4.01011C28.8419 4.10183 29.0504 4.19069 29.2557 4.28579L29.8631 4.58876L30.0147 4.66483C30.0646 4.69138 30.1136 4.71973 30.1631 4.74702L30.4591 4.9128L30.706 5.0517C30.2163 4.76342 29.7098 4.49218 29.1849 4.24485C28.1144 3.74024 26.975 3.32735 25.7915 3.03073C25.5228 2.96302 25.2517 2.9023 24.9791 2.84687Z" fill="#B92E2D"/>
<path d="M0.667286 23.3281C0.649817 23.3654 0.633434 23.4001 0.616508 23.436C0.601209 23.4175 0.584825 23.3976 0.5692 23.3786C0.57864 23.3553 0.581787 23.3219 0.598713 23.3124C0.613252 23.3047 0.642981 23.3215 0.667286 23.3281Z" fill="#B92E2D"/>
<path d="M0.169697 19.4364C0.170673 19.4965 0.17382 19.5566 0.175881 19.6164C0.180981 19.7361 0.185972 19.8557 0.191072 19.9757C0.130962 19.9837 0.0684646 19.9921 0.00705264 20.0002C0.00553361 19.8761 0.00390616 19.7516 0.00238714 19.6272L0.000976563 19.4402L0.00694419 19.2536C0.0602186 19.2543 0.116531 19.2552 0.170348 19.256C0.170239 19.3162 0.169914 19.3763 0.169697 19.4364Z" fill="#B92E2D"/>
<path d="M0.432163 15.6198C0.473393 15.4608 0.51419 15.303 0.554987 15.1455C0.602077 15.1584 0.649275 15.1715 0.696039 15.1843C0.655785 15.34 0.614988 15.4978 0.574734 15.6534C0.527427 15.6422 0.479252 15.6308 0.432163 15.6198Z" fill="#B92E2D"/>
<path d="M0.124018 17.3977C0.133566 17.3124 0.132589 17.2232 0.159172 17.1431C0.168503 17.115 0.246299 17.1131 0.314872 17.0947C0.311942 17.1836 0.329954 17.2748 0.300875 17.3449C0.285034 17.3806 0.185755 17.3808 0.124018 17.3977Z" fill="#B92E2D"/>
<path d="M8.60246 5.15674C8.61298 5.17674 8.62448 5.19589 8.63685 5.21663L8.16899 5.52034L7.93582 5.67352C7.85857 5.72535 7.78403 5.78111 7.70808 5.83495C7.70395 5.80819 7.69918 5.78417 7.69636 5.75857C7.77057 5.70652 7.84229 5.65109 7.91857 5.60233L8.14577 5.45316C8.29778 5.35446 8.4499 5.25576 8.60246 5.15674Z" fill="#B92E2D"/>
<path d="M10.6777 37.5056C10.6636 37.544 10.6493 37.5828 10.6355 37.6207C10.5083 37.5507 10.3841 37.4736 10.2588 37.4C10.2747 37.3721 10.2904 37.3444 10.3068 37.3155C10.4304 37.3792 10.5534 37.4452 10.6777 37.5056Z" fill="#B92E2D"/>
<path d="M12.9781 38.2316L13.0968 38.2719L13.2171 38.3073L13.4581 38.3775C13.4486 38.4093 13.4388 38.4416 13.4292 38.4737L13.1783 38.4229L13.053 38.3966L12.9291 38.3655C12.7636 38.3231 12.5981 38.2806 12.4328 38.2382C12.4555 38.1817 12.4804 38.1253 12.5043 38.0688C12.6621 38.1231 12.82 38.1773 12.9781 38.2316Z" fill="#B92E2D"/>
<path d="M5.28697 33.4579L5.37485 33.5485L5.46632 33.6354L5.65001 33.8088C5.62734 33.8328 5.60433 33.8572 5.58133 33.8814L5.38028 33.7205L5.28024 33.6394L5.18357 33.5545C5.05488 33.4405 4.92631 33.3265 4.79773 33.2126C4.84319 33.1726 4.89039 33.1339 4.93694 33.0945C5.05347 33.2157 5.17011 33.3367 5.28697 33.4579Z" fill="#B92E2D"/>
<path d="M7.78696 35.1985C7.93061 35.2729 8.07915 35.3521 8.23116 35.4349C8.38458 35.5155 8.54571 35.5928 8.70694 35.6765C8.78756 35.7181 8.86904 35.7602 8.95107 35.8025C8.99219 35.8236 9.03267 35.8459 9.07444 35.8662C9.11643 35.8861 9.15853 35.906 9.20063 35.926C9.36924 36.0061 9.53883 36.0879 9.70787 36.1707L9.8346 36.2331C9.87714 36.2533 9.92054 36.2715 9.96339 36.2908C10.0492 36.3292 10.1348 36.3676 10.2202 36.4058C10.3053 36.4445 10.39 36.483 10.4742 36.5213C10.5585 36.5593 10.6409 36.6001 10.7259 36.6335C10.8944 36.7033 11.0597 36.7729 11.22 36.8418C11.3001 36.8762 11.3791 36.9103 11.4568 36.9437C11.5356 36.9747 11.6131 37.0052 11.689 37.035C11.8407 37.0954 11.986 37.1548 12.1232 37.2128C12.6769 37.43 13.106 37.6172 13.301 37.7514C13.1631 37.8911 13.0328 38.0086 12.8869 38.0446C12.7422 38.077 12.5806 38.0292 12.3856 37.8458C12.3128 37.7771 12.2324 37.7159 12.1466 37.6606C12.0611 37.6043 11.9721 37.5489 11.8791 37.5009C11.6938 37.4032 11.496 37.3246 11.3068 37.252C11.1219 37.1735 10.9355 37.0989 10.7481 37.0261C10.6547 36.9892 10.5598 36.9553 10.4671 36.9168L10.1898 36.7987C10.0053 36.7193 9.81854 36.643 9.63572 36.5585C9.45485 36.47 9.27462 36.3794 9.09625 36.2849C8.24603 35.8213 7.44485 35.2633 6.68588 34.6524C6.88292 34.7343 7.11783 34.8467 7.37563 34.985C7.50311 35.0565 7.64373 35.1234 7.78696 35.1985Z" fill="#B92E2D"/>
<path d="M3.55864 31.7517C3.52902 31.7794 3.49896 31.8075 3.46978 31.8348C3.38753 31.7139 3.31104 31.588 3.23216 31.4648C3.25863 31.4472 3.285 31.4298 3.31256 31.4115C3.39459 31.5252 3.47488 31.6407 3.55864 31.7517Z" fill="#B92E2D"/>
<path d="M4.16397 7.52026C4.2715 7.39744 4.37816 7.27546 4.4846 7.15391C4.52084 7.18713 4.55718 7.22045 4.5931 7.25335C4.48796 7.37363 4.3813 7.49571 4.27616 7.61589C4.23884 7.58415 4.20097 7.55178 4.16397 7.52026Z" fill="#B92E2D"/>
<path d="M15.5671 2.00501C15.7465 1.98703 15.9261 1.96894 16.1062 1.95085C16.1067 1.97348 16.1084 1.99591 16.1102 2.02003L15.5579 2.07557L15.2817 2.10487C15.1898 2.11556 15.0985 2.131 15.0068 2.14401C15.015 2.11831 15.0214 2.09472 15.0303 2.07049C15.1196 2.05822 15.2083 2.04183 15.2981 2.03336L15.5671 2.00501Z" fill="#B92E2D"/>
<path d="M6.67384 19.9833C6.62132 19.9847 6.56924 19.9874 6.51553 19.9905C6.4972 19.8993 6.47636 19.8073 6.45596 19.7149C6.50815 19.7139 6.56024 19.7129 6.61069 19.712C6.63152 19.8017 6.65279 19.8926 6.67384 19.9833Z" fill="#B92E2D"/>
<path d="M0.832751 14.502C0.851522 14.4856 0.869208 14.4572 0.888521 14.4565C0.904905 14.4563 0.924001 14.485 0.942772 14.5021C0.910547 14.5273 0.880601 14.5507 0.84946 14.575C0.844035 14.5514 0.838176 14.5262 0.832751 14.502Z" fill="#B92E2D"/>
<path d="M21.291 14.867C21.9924 15.0035 22.637 15.3459 23.1424 15.8503C23.6477 16.3546 23.9907 16.998 24.1276 17.6981M21.291 12C22.7483 12.1616 24.1072 12.8129 25.1446 13.847C26.182 14.8812 26.8363 16.2367 27 17.6909M26.2819 23.4105V25.5607C26.2827 25.7603 26.2417 25.9579 26.1616 26.1408C26.0815 26.3237 25.964 26.4879 25.8166 26.6228C25.6692 26.7578 25.4952 26.8605 25.3058 26.9244C25.1163 26.9884 24.9156 27.0121 24.7164 26.9942C22.5067 26.7545 20.384 26.0009 18.5191 24.7938C16.784 23.6934 15.313 22.2251 14.2104 20.4934C12.9968 18.6235 12.2415 16.4947 12.0058 14.2792C11.9879 14.081 12.0115 13.8813 12.0751 13.6927C12.1388 13.5041 12.2411 13.3308 12.3755 13.1838C12.5099 13.0368 12.6735 12.9194 12.8559 12.839C13.0383 12.7585 13.2355 12.7169 13.4349 12.7167H15.5892C15.9377 12.7133 16.2756 12.8365 16.5398 13.0633C16.8041 13.2901 16.9767 13.6051 17.0254 13.9495C17.1164 14.6376 17.285 15.3133 17.5281 15.9636C17.6247 16.2201 17.6456 16.4989 17.5884 16.7669C17.5311 17.035 17.398 17.281 17.205 17.4759L16.293 18.3861C17.3152 20.1805 18.8038 21.6663 20.6016 22.6866L21.5136 21.7763C21.7089 21.5836 21.9554 21.4508 22.2239 21.3936C22.4925 21.3365 22.7718 21.3574 23.0288 21.4538C23.6804 21.6964 24.3573 21.8648 25.0467 21.9555C25.3956 22.0046 25.7142 22.18 25.9419 22.4483C26.1696 22.7165 26.2906 23.059 26.2819 23.4105Z" stroke="white" stroke-linecap="round" stroke-linejoin="round"/>
</svg>
