<svg width="169" height="167" viewBox="0 0 169 167" fill="none" xmlns="http://www.w3.org/2000/svg">
<path d="M111.023 17.1896L111.667 17.3998L111.998 17.5088C111.461 17.3377 110.921 17.1684 110.371 17.0078L111.023 17.1896Z" fill="#B92E2D"/>
<path d="M162.475 64.4613C162.457 64.4086 162.454 64.3809 162.438 64.3285C162.549 64.1883 162.644 64.0597 162.709 63.9438L162.475 64.4613Z" fill="#B92E2D"/>
<path d="M156.841 115.08C156.92 114.998 156.998 114.91 157.079 114.779C156.998 114.955 156.92 115.034 156.841 115.08Z" fill="#B92E2D"/>
<path d="M31.8837 89.6769C31.8824 89.7414 31.8745 89.8053 31.8745 89.8697C31.8619 89.7712 31.8678 89.7113 31.8837 89.6769Z" fill="#B92E2D"/>
<path d="M121.476 21.9946L121.27 21.7759C121.366 21.8584 121.429 21.9293 121.476 21.9946Z" fill="#B92E2D"/>
<path d="M163.245 78.8683C163.295 79.2751 163.35 79.6602 163.432 79.9833L163.682 79.9173C163.929 80.8304 164.099 81.7167 164.122 82.5974C164.149 83.4783 164.104 84.3511 164.03 85.2391C163.817 87.0173 163.487 88.8501 163.234 90.9991L163.798 90.4779C164.172 92.0083 163.004 90.8109 163.046 92.5803L163.667 92.7449C162.621 94.1782 163.609 94.7659 163.719 95.891L162.985 95.2586L162.797 97.2757C162.741 98.3984 162.918 98.7895 163.186 98.871C163.456 98.9533 163.828 98.7259 164.07 98.6067C163.749 99.0666 163.411 99.5183 163.084 99.9665L163.732 100.43C162.631 101.32 163.643 101.578 162.643 103.36C162.865 103.594 163.158 103.155 163.085 103.839L162.135 105.259L161.119 106.63C161.467 106.063 161.845 105.501 162.172 104.918L161.079 104.82C160.375 105.65 160.179 106.292 160.073 106.899C159.962 107.504 159.951 108.075 159.535 108.682C159.753 108.414 159.984 108.15 160.186 107.872C159.101 109.967 159.466 110.244 159.188 111.579C159.165 111.116 159.119 110.417 158.639 111.242C158.297 111.85 158.829 111.738 158.663 112.388C158.303 112.312 157.862 112.615 157.472 113.123C157.084 113.633 156.747 114.349 156.535 115.092C156.635 115.122 156.737 115.139 156.841 115.08C156.559 115.372 156.303 115.462 156.144 116.141L157.034 116.163L155.761 116.958C155.555 117.838 154.387 118.618 154.917 118.799L155.305 118.454C154.273 120.396 153.134 122.283 151.911 124.118L152.375 124.568C151.824 124.576 151.361 125.352 150.934 126.029C150.511 126.707 150.078 127.242 149.726 126.817C149.562 127.484 148.724 128.392 148.057 129.109C147.385 129.821 146.935 130.404 147.638 130.549C147.281 130.965 146.929 131.344 146.582 131.696C146.22 132.034 145.86 132.344 145.506 132.64C144.914 133.122 144.344 133.578 143.746 134.013C143.614 134.164 143.479 134.313 143.348 134.465C143.068 134.785 142.786 135.105 142.505 135.425C142.223 135.745 141.941 136.065 141.658 136.386C141.362 136.694 141.066 137.002 140.769 137.311C140.472 137.619 140.175 137.928 139.878 138.237C139.581 138.547 139.286 138.859 138.969 139.149C138.346 139.741 137.721 140.334 137.096 140.928C136.942 141.079 136.781 141.222 136.616 141.362L135.147 142.635C134.817 142.915 134.499 143.209 134.159 143.479L132.115 145.092C131.944 145.225 131.775 145.363 131.601 145.494L131.07 145.874C130.363 146.381 129.654 146.889 128.944 147.398C127.478 148.346 126.029 149.332 124.494 150.187L123.356 150.851L123.071 151.017L122.194 151.474C121.412 151.877 120.637 152.298 119.846 152.687C119.046 153.057 118.245 153.427 117.443 153.798C117.242 153.889 117.044 153.988 116.839 154.072L114.995 154.819C111.705 156.122 108.318 157.234 104.843 158.013C103.391 158.346 101.925 158.635 100.453 158.888C100.371 158.957 100.287 159.016 100.205 159.053C99.5107 159.372 98.8183 159.728 98.1179 160.058C97.4134 160.375 96.6923 160.64 95.9655 160.829C95.9574 160.831 95.9497 160.832 95.9416 160.834C95.897 160.89 95.8585 160.954 95.8089 161.003C95.3749 161.414 94.7249 161.577 93.6948 161.332C93.3099 161.24 92.9133 161.19 92.5098 161.171C92.1057 161.149 91.6909 161.137 91.277 161.158C90.4479 161.195 89.6134 161.323 88.8201 161.456C88.03 161.559 87.2429 161.679 86.4555 161.808C86.0618 161.87 85.6689 161.944 85.2745 162L84.0892 162.153C83.2985 162.252 82.5068 162.367 81.7123 162.444C80.9165 162.503 80.1193 162.555 79.3204 162.588C75.4872 162.702 71.6381 162.383 67.8303 161.791C68.6685 161.675 69.6971 161.589 70.8549 161.547C71.4331 161.536 72.0479 161.483 72.6877 161.453C73.0418 161.435 73.4055 161.42 73.7744 161.405C73.6313 161.231 73.4866 161.058 73.3461 160.884C73.6774 161.033 74.01 161.189 74.3442 161.318C74.3286 161.341 74.313 161.364 74.2978 161.387C74.4254 161.383 74.5504 161.378 74.6793 161.374C75.3648 161.343 76.0709 161.284 76.7894 161.248C77.1481 161.229 77.5108 161.209 77.876 161.19C78.0586 161.18 78.2419 161.175 78.4251 161.161C78.6083 161.145 78.7923 161.129 78.9767 161.113C79.7136 161.049 80.4576 160.989 81.2014 160.934L81.7595 160.893C81.9452 160.877 82.1304 160.852 82.316 160.832C82.6866 160.791 83.0563 160.75 83.4247 160.71C83.7932 160.672 84.16 160.633 84.5247 160.595C84.8893 160.556 85.2525 160.53 85.6101 160.473C86.3265 160.373 87.0316 160.279 87.7176 160.193C88.0608 160.15 88.3994 160.107 88.7323 160.066C89.0642 160.013 89.3902 159.961 89.7101 159.911C89.7658 159.902 89.819 159.895 89.8742 159.886C89.563 159.898 89.2518 159.908 88.9402 159.898L88.5448 159.892C88.5281 159.903 88.5124 159.909 88.4953 159.92C88.053 160.214 87.3411 160.237 86.7898 160.102C86.1973 159.973 85.6154 159.88 85.0412 159.819C84.7789 159.791 84.5192 159.773 84.2596 159.756L84.0425 159.743C83.8064 159.729 83.5713 159.717 83.3356 159.703C82.7707 159.68 82.2108 159.684 81.6538 159.712C81.3751 159.726 81.0972 159.746 80.8195 159.771C80.5424 159.798 80.263 159.807 79.9853 159.833C79.4294 159.88 78.8739 159.945 78.318 160.025C78.0398 160.064 77.7617 160.107 77.4834 160.153C77.2051 160.199 76.9255 160.228 76.6457 160.27C76.0862 160.349 75.5251 160.437 74.9616 160.529L74.1147 160.67C73.8321 160.715 73.5486 160.744 73.2647 160.782C73.2944 160.814 73.317 160.85 73.3457 160.885C73.2815 160.855 73.2164 160.826 73.1514 160.796L73.1505 160.796L73.2176 160.725C72.502 160.507 71.6903 160.577 70.8669 160.408C70.0469 160.225 69.2173 159.769 68.5318 158.574C69.0067 158.563 69.4458 158.545 69.8577 158.525C70.0632 158.515 70.2622 158.505 70.4561 158.496C70.6491 158.488 70.8368 158.477 71.0207 158.458C71.7541 158.394 72.4135 158.352 73.0711 158.373C73.3994 158.382 73.7288 158.403 74.0591 158.426C74.166 158.43 74.2731 158.437 74.38 158.442C73.9249 158.347 73.4673 158.261 73.0146 158.154C72.5806 158.055 72.1429 157.971 71.7125 157.86L69.1377 157.162L68.4952 156.985L67.8616 156.779C67.7513 156.744 67.6418 156.708 67.5315 156.672C67.0091 156.586 66.4863 156.499 65.9621 156.42L65.4697 156.347L64.9803 156.255L63.9992 156.079L62.4273 155.806C62.2525 155.775 62.0805 155.732 61.9071 155.695L59.3022 155.121C59.1286 155.081 58.9579 155.03 58.7854 154.986L56.1987 154.29C56.0271 154.24 55.8574 154.183 55.687 154.129L53.6376 153.475L53.124 153.31L52.6187 153.123L51.6068 152.747L50.5934 152.368C50.4246 152.304 50.2542 152.243 50.0865 152.176L49.5885 151.964L47.5924 151.107C44.9618 149.893 42.3522 148.561 39.8773 146.974L38.9407 146.389C38.6265 146.196 38.3311 145.977 38.0252 145.771L36.2064 144.503C35.6117 144.064 35.0303 143.604 34.4426 143.15L33.5645 142.463C33.2782 142.226 32.9983 141.981 32.7156 141.739C32.1194 141.222 31.5166 140.709 30.9284 140.179L29.2064 138.537C28.6224 137.996 28.0876 137.407 27.5342 136.833C26.9891 136.251 26.422 135.687 25.9076 135.074L24.3318 133.259C23.8193 132.641 23.3275 132.005 22.8239 131.376C22.5743 131.06 22.3206 130.746 22.0748 130.427L20.647 128.466C20.4119 128.137 20.1617 127.816 19.9428 127.475L18.2486 124.938L17.2882 123.373C16.4075 121.991 15.6369 120.544 14.8173 119.108C14.429 118.381 14.0578 117.643 13.6738 116.907L13.1013 115.8L12.5683 114.672C12.2153 113.918 11.8438 113.167 11.4981 112.404C11.1632 111.632 10.8279 110.862 10.4935 110.091C10.1217 109.284 10.0455 108.367 9.84143 107.489C10.246 108.351 10.6266 109.212 11.0679 110.051C11.1657 110.242 11.2603 110.43 11.3568 110.621L10.5854 108.49C10.2998 107.735 10.0795 106.96 9.83577 106.189C9.60269 105.416 9.34221 104.648 9.15075 103.861L8.53599 101.506C8.3478 100.716 8.18647 99.9197 8.01092 99.1239C7.92636 98.7253 7.83619 98.3271 7.75673 97.927L7.33751 95.5128C7.27167 95.109 7.18819 94.7065 7.14166 94.3004L6.73621 91.2481L6.56227 89.4045C6.37865 87.7619 6.3229 86.1117 6.21731 84.4499C6.18813 83.6206 6.17915 82.7893 6.15746 81.9544L6.12958 80.7006L6.1458 79.4474C6.15985 78.6106 6.15586 77.7675 6.1809 76.9263C6.21837 76.0831 6.25584 75.24 6.29292 74.3977C6.31351 73.5048 6.64591 72.6524 6.847 71.7753C6.83156 72.7327 6.79601 73.6775 6.82397 74.631C6.83967 75.5812 6.84019 76.5219 6.86213 77.4593C6.90335 78.394 6.9446 79.3292 6.98588 80.2647C6.99731 80.4972 7.00132 80.7283 7.01878 80.9604L7.07331 81.6567L7.28638 84.4196L7.44059 85.7921L7.6675 87.8367L7.76814 88.5146L8.16505 91.2094L8.6588 93.8734C9.36553 97.4042 10.2657 100.852 11.3758 104.195C12.5098 107.532 13.8663 110.756 15.4341 113.834C15.3602 113.482 15.2609 113.141 15.1765 112.794C15.0912 112.447 14.9958 112.105 14.8924 111.766C14.6888 111.086 14.4374 110.423 14.1944 109.756C13.9628 109.085 13.7124 108.418 13.4586 107.75C13.3355 107.415 13.1953 107.085 13.0854 106.745L12.7512 105.726C12.5372 105.044 12.3175 104.361 12.1576 103.665C12.0071 102.966 11.8847 102.262 11.8061 101.552C11.7709 101.196 11.7293 100.842 11.7327 100.481C11.7318 100.121 11.7438 99.7599 11.7708 99.3979C11.8284 98.6739 11.9313 97.9492 12.1386 97.2223C12.4034 97.9662 12.6847 98.7024 12.9378 99.4388L13.3183 100.54C13.4558 100.904 13.5904 101.268 13.7215 101.632C13.8526 101.995 13.9802 102.359 14.1044 102.723C14.2282 103.086 14.3455 103.451 14.4845 103.81C14.7503 104.53 15.0018 105.253 15.2384 105.978C15.3522 106.35 15.4992 106.71 15.632 107.076L16.0387 108.166L16.4465 109.254L17.5716 111.925C17.6458 112.103 17.7344 112.275 17.8149 112.45L18.805 114.535C20.1942 117.276 21.7385 119.918 23.4848 122.396C25.2553 124.856 27.1898 127.169 29.312 129.255C29.8464 129.773 30.4029 130.267 30.9496 130.764C31.2178 131 31.4768 131.244 31.7531 131.47C31.0058 130.512 30.2827 129.538 29.588 128.546L28.5785 127.326L27.9639 126.583C27.7573 126.335 27.5728 126.072 27.3757 125.817L26.2065 124.271C26.0056 124.016 25.8292 123.745 25.6433 123.48L24.5328 121.877L24.2554 121.475L23.9943 121.062C23.3015 119.958 22.5738 118.864 21.9364 117.715C19.7039 113.885 17.641 109.855 15.9826 105.562C14.3245 101.273 13.0804 96.7279 12.498 92.0365C12.3339 90.9598 12.2458 89.8649 12.1519 88.76L12.092 87.9301L12.067 87.5143L12.0627 87.0982C12.061 86.5434 12.0722 85.9874 12.1012 85.4327C12.1155 85.1556 12.1345 84.8782 12.1587 84.6018C12.1847 84.3253 12.2064 84.0491 12.2584 83.7755C12.3517 83.2277 12.468 82.6833 12.6128 82.1456C12.7066 81.8042 12.8136 81.4668 12.931 81.1318C12.8855 78.8746 12.9241 76.5984 13.0742 74.3094C13.0257 74.118 12.9866 73.9256 12.9662 73.7366C12.9488 73.5062 12.9572 73.2813 12.9919 73.0704C13.115 72.3614 13.242 71.65 13.3789 70.9402C13.8365 67.0075 14.6614 63.0716 15.9689 59.2682C16.2924 58.2327 16.6922 57.2171 17.0905 56.1901L17.3994 55.4231L17.5589 55.0413L17.737 54.6693C17.9777 54.1746 18.2304 53.6852 18.4987 53.2049C18.6329 52.9648 18.771 52.7271 18.9132 52.4925C19.0568 52.2587 19.1977 52.0229 19.3631 51.8035C19.6856 51.3594 20.0274 50.9297 20.3918 50.5191C20.7584 50.1104 21.1378 49.7139 21.5603 49.3556C21.6886 49.2505 21.8242 49.1523 21.9575 49.0517C22.6654 47.868 23.4032 46.7015 24.1771 45.5567C24.1707 45.4772 24.1693 45.4009 24.1593 45.3186C24.1029 44.8727 24.1136 44.3721 24.1984 43.893C24.2405 43.6534 24.3016 43.4197 24.3807 43.201C24.4658 42.9879 24.5716 42.7917 24.6947 42.62C25.288 41.8097 25.8805 40.9912 26.5096 40.2039C27.1524 39.4308 27.8062 38.6624 28.4681 37.8986C29.152 37.1599 29.8531 36.4349 30.5553 35.7072C30.9006 35.3366 31.2778 35.0038 31.6419 34.6536L32.7467 33.6166C32.9813 33.4047 33.243 33.2247 33.5679 33.0642C33.8901 32.9 34.2572 32.7295 34.6766 32.4996C34.5866 32.9794 34.3847 33.3747 34.1369 33.7294C34.7515 33.1407 35.3706 32.556 36.0074 31.9889C36.0002 32.0081 35.9919 32.0305 35.9863 32.0466C35.9759 32.0545 35.9655 32.0623 35.954 32.0646C35.9618 32.0647 35.9707 32.0693 35.9812 32.0731C35.7028 32.9419 35.472 33.8699 35.184 34.989C35.5425 35.0885 35.869 35.2193 36.1686 35.33C36.8373 34.6299 37.5178 33.942 38.2116 33.2667C38.0326 33.0337 37.8317 32.8121 37.6404 32.6505C37.2206 32.2899 36.5527 32.2454 35.9812 32.0722C35.9833 32.0639 35.9855 32.0557 35.9863 32.0458C36.8096 31.6246 37.6007 31.042 38.4269 30.6974C38.4421 30.5945 38.4467 30.4839 38.4669 30.385C38.5777 29.8508 38.7551 29.3586 39.0131 28.9355C39.5231 28.0781 40.2809 27.3724 41.2187 26.7215C44.4323 24.5542 47.8345 22.6468 51.3822 21.0228C51.4798 20.9652 51.574 20.9096 51.6729 20.8516C51.9939 20.6659 52.3207 20.4766 52.6531 20.2839C52.9893 20.1 53.3363 19.925 53.6881 19.7416C54.3923 19.3782 55.1229 19.0074 55.877 18.6314C56.6379 18.2775 57.4278 17.9348 58.237 17.5805C58.6424 17.4062 59.0513 17.2232 59.4686 17.0544C59.8891 16.8957 60.3138 16.735 60.7419 16.5733C61.1727 16.4141 61.6069 16.2538 62.0441 16.092C62.4826 15.9315 62.9248 15.766 63.3764 15.6323C64.277 15.349 65.1937 15.0679 66.1241 14.7904L66.4736 14.6865L66.8256 14.5967C67.0613 14.5374 67.297 14.4786 67.5336 14.4193C68.0081 14.3032 68.4848 14.1866 68.9624 14.0695C69.4415 13.9579 69.9224 13.8316 70.4067 13.736C70.8921 13.6447 71.3787 13.5529 71.8658 13.461C72.3552 13.3725 72.8451 13.2844 73.3349 13.1958C73.5806 13.1536 73.826 13.1067 74.0724 13.0697L74.8127 12.9726C75.8011 12.8452 76.7924 12.725 77.7829 12.6134C78.0444 12.5927 78.305 12.5797 78.5666 12.5612C80.4583 12.2594 82.3596 12.0327 84.2654 11.8984C88.5812 11.5775 92.9243 11.625 97.2405 12.0542C103.036 12.652 108.759 13.9639 114.276 15.9223C113.668 15.6317 113.058 15.3459 112.459 15.045C111.803 14.7119 111.15 14.3795 110.501 14.049C109.856 13.7115 109.227 13.3507 108.621 12.954C108.274 12.7304 107.929 12.5009 107.574 12.2983C107.218 12.0969 106.86 11.9021 106.501 11.713C105.782 11.3351 105.056 10.9821 104.325 10.6568C103.962 10.4881 103.585 10.3539 103.211 10.2157C102.837 10.0798 102.461 9.95112 102.084 9.82943C101.33 9.58952 100.576 9.36503 99.8104 9.19736C99.0402 9.0411 98.267 8.91632 97.4929 8.82422C96.7182 8.73558 95.9481 8.66129 95.1628 8.67578C94.3812 8.6785 93.6001 8.71594 92.8228 8.79053C92.4335 8.82914 92.0466 8.87065 91.6582 8.93325C91.2684 9.00236 90.879 9.08046 90.4915 9.16833C89.8496 9.31344 89.167 9.4152 88.5098 9.377C87.7745 9.32447 87.0334 9.32504 86.2964 9.32196C85.559 9.31933 84.8241 9.32214 84.0923 9.32822C83.3597 9.34079 82.6256 9.39249 81.8962 9.42635C81.1664 9.46967 80.4401 9.49648 79.7146 9.55673L77.5447 9.76034L76.4655 9.85991C76.1063 9.88663 75.7475 9.94639 75.3895 9.98679C73.9568 10.1733 72.5305 10.3088 71.1117 10.5297C65.9356 11.2275 60.8656 12.3948 55.9839 14.046C53.657 14.833 51.3746 15.7336 49.1448 16.7399C48.5992 17.0657 48.0529 17.3852 47.5185 17.7255L45.6764 18.925L44.7595 19.5203C44.4518 19.7129 44.1581 19.934 43.8571 20.1383C42.6632 20.977 41.4534 21.7672 40.2871 22.6297C35.9852 25.6808 31.9828 29.1014 28.3592 32.8663C24.7359 36.6299 21.4916 40.7392 18.7212 45.1371C18.2444 45.8975 17.7628 46.7861 17.0658 47.2461C16.7155 47.4818 16.3847 47.7353 16.0715 48.0038C15.77 48.2807 15.4862 48.573 15.2181 48.8773C14.6815 49.4867 14.2067 50.1453 13.7745 50.8343C13.3638 51.5367 13.001 52.2725 12.657 53.0199C12.4855 53.3938 12.3193 53.7708 12.1557 54.1494C11.9998 54.5328 11.855 54.9219 11.7053 55.3088C11.3903 56.1396 10.9997 56.9371 10.5752 57.8278C10.1693 58.7273 9.70986 59.71 9.21416 60.8799C9.13121 59.7444 9.01276 59.3584 9.11075 59.0554C9.70459 57.2502 10.3644 55.4591 11.0823 53.6886C10.9444 53.6461 10.807 53.604 10.6692 53.5619C10.859 53.1 11.0495 52.6367 11.2401 52.1734L11.5295 51.4787L11.8455 50.7981C11.9731 50.8591 12.1051 50.9225 12.2363 50.9851C13.2775 48.6808 14.4429 46.4282 15.7505 44.2535C15.5898 44.2362 15.369 44.1535 15.1961 44.1253C15.3651 43.8258 15.5022 43.4941 15.7251 43.2424C15.8001 43.1578 16.0654 43.2656 16.3319 43.3159C16.4785 43.0824 16.6175 42.8446 16.7677 42.6126C19.7339 37.9902 23.172 33.6569 27.0188 29.6858C26.8943 29.7898 26.7726 29.8898 26.644 29.9987C27.0658 28.9494 27.1284 28.5499 27.3485 28.3263C31.5283 24.1186 36.1774 20.2823 41.3713 17.2836C43.674 15.9408 46.05 14.7191 48.4853 13.613C53.0334 11.2004 57.8211 9.15974 62.7881 7.53056C67.8859 5.85798 73.1948 4.82271 78.6061 4.42322C84.0243 4.02336 89.559 4.27526 95.0308 5.16696C100.504 6.05645 105.911 7.58286 111.114 9.67763C116.318 11.7719 121.318 14.4323 126.023 17.5705C131.53 21.2585 136.573 25.696 141.046 30.6808C141.333 30.9849 141.599 31.3104 141.873 31.6276L142.686 32.5872L143.494 33.5513C143.762 33.874 144.034 34.1927 144.287 34.5286L145.819 36.5299L146.578 37.5366L147.302 38.5717L147.61 39.0197C148 39.2635 148.287 39.5401 148.231 39.9216L148.734 40.6525C148.944 40.9513 149.137 41.2625 149.332 41.572C150.109 42.5832 150.87 43.6086 151.601 44.6626C151.656 44.6266 151.691 44.6089 151.675 44.7668C151.816 44.9697 151.965 45.1648 152.103 45.3695C153.324 47.171 154.472 49.036 155.553 50.9522L155.63 50.9914C156.571 52.1013 156.865 52.9072 157.177 53.8675C157.202 53.9495 157.226 54.0357 157.25 54.1211C157.809 55.2242 158.348 56.3412 158.858 57.4764C159.049 57.9014 159.252 58.334 159.426 58.7824C159.458 58.8695 159.487 58.9576 159.52 59.0448C160.257 59.7165 160.881 59.7036 161.014 58.6259C160.95 59.6515 160.867 59.9035 160.883 60.2031C160.895 60.5012 160.991 60.8514 161.196 62.0655C161.679 62.2906 161.668 62.0234 161.803 61.3986C162.386 62.3472 162.414 62.6972 162.357 62.9985C162.307 63.299 162.186 63.55 162.438 64.3268C162.08 64.7723 161.556 65.2898 161.273 65.736C161.278 65.7855 161.285 65.841 161.289 65.8875C161.303 66.1357 161.299 66.3445 161.282 66.5046C161.246 66.825 161.152 66.9527 160.987 66.8314C160.922 66.7833 160.842 66.6841 160.754 66.5544C160.809 67.1742 160.872 67.8078 161.009 68.4387C161.206 69.3244 161.443 70.2312 161.811 71.1473L162.146 71.0017C162.22 71.6952 162.331 72.3794 162.371 73.0752L162.842 73.1245C162.946 74.116 163.079 75.1012 163.154 76.0925L162.985 75.7036C162.997 76.0545 163.024 76.8041 163.099 77.6233C163.134 78.0351 163.182 78.4626 163.245 78.8683ZM19.9898 121.463L19.8499 121.243L19.4587 120.568C19.1124 119.965 18.7661 119.361 18.4207 118.76C18.1712 118.909 17.9225 119.058 17.6718 119.209C18.4197 120.406 19.1299 121.618 19.9418 122.761C20.1493 122.617 20.3442 122.481 20.5501 122.338C20.3632 122.047 20.1767 121.755 19.9898 121.463ZM69.9012 7.16764C69.5045 7.18734 69.1102 7.24382 68.7177 7.29591C68.3254 7.35013 67.9347 7.41114 67.5462 7.47933C66.7697 7.61911 66.0008 7.77221 65.2461 7.98122C64.7643 8.12301 64.2885 8.28121 63.8165 8.44694C65.2977 8.10853 66.7895 7.80605 68.2945 7.55006C69.2674 7.38359 70.2458 7.23912 71.227 7.1074C70.7828 7.12016 70.3407 7.13882 69.9012 7.16764ZM23.8518 69.4506C23.8401 69.4654 23.8234 69.4766 23.8116 69.4914C23.5502 69.8164 23.2987 70.1722 23.0979 70.5489C23.0013 70.7308 22.9179 70.9176 22.8493 71.1075C22.8288 71.2425 22.8087 71.377 22.7886 71.5107C22.7458 71.7881 22.7001 72.0583 22.6543 72.3281C22.6295 72.6178 22.6033 72.908 22.581 73.1968L22.5275 73.9245L22.5022 74.2872C22.4966 74.4085 22.4966 74.5317 22.4935 74.6533L22.4809 75.5587C22.8486 73.6826 23.2891 71.8203 23.8085 69.9791C23.8208 69.8034 23.8318 69.6281 23.8518 69.4506ZM72.1809 18.9773C71.9583 19.0328 71.7362 19.0879 71.5137 19.1431C71.3815 19.3458 71.2301 19.5044 71.0565 19.6127C70.9699 19.6645 70.8769 19.7033 70.7801 19.7355C70.9155 19.7382 71.0518 19.7344 71.188 19.7307L71.3446 19.6859L71.6654 19.6106L72.3082 19.4585C72.5586 19.3989 72.8107 19.3393 73.0619 19.2796C73.0448 19.2406 73.026 19.2051 73.0096 19.1644C72.962 19.0471 72.9257 18.9254 72.881 18.8068C72.6473 18.8638 72.4137 18.9204 72.1809 18.9773ZM36.1288 42.5474C36.3399 42.3174 36.5526 42.0856 36.7666 41.8519L36.8262 41.787C36.9028 41.6907 36.9797 41.5939 37.0566 41.4971C37.3368 41.1432 37.6524 40.7978 37.9468 40.4436C38.0947 40.2671 38.235 40.0863 38.3674 39.9042C38.504 39.7258 38.629 39.5423 38.7351 39.3509C38.7623 39.3022 38.7843 39.2517 38.8084 39.2019C38.5273 39.5134 38.2466 39.8252 37.9722 40.1401C37.0795 41.1938 36.2106 42.265 35.3791 43.3583C35.6283 43.0894 35.8747 42.8227 36.1288 42.5474ZM34.4078 46.3637L34.5197 46.226C34.5222 46.2152 34.5255 46.2056 34.528 46.1947C34.4887 46.2513 34.4467 46.3071 34.4078 46.3637ZM85.1849 19.5419C85.0806 19.5452 84.9789 19.5493 84.8737 19.5528C84.3144 19.578 83.7386 19.6261 83.1524 19.6558C82.8595 19.6713 82.5641 19.6869 82.266 19.7027C82.117 19.711 81.9678 19.7146 81.8181 19.7264C81.6685 19.7394 81.5185 19.753 81.3684 19.766C80.767 19.818 80.1606 19.8668 79.5536 19.9122L79.0984 19.9458C78.947 19.9589 78.7957 19.9794 78.6445 19.9955C78.3422 20.0287 78.0408 20.0622 77.7402 20.0953C77.6814 20.1014 77.6229 20.1075 77.5641 20.1136C77.5617 20.1167 77.5592 20.1198 77.5568 20.123C77.3196 20.39 77.0778 20.5959 76.8355 20.7667L78.3013 20.4879C78.7014 20.4019 79.1093 20.3645 79.5134 20.3036L81.9442 19.9703C82.3501 19.9201 82.7587 19.8964 83.1657 19.8581L85.3228 19.6754C85.2641 19.651 85.206 19.6219 85.1474 19.5992C85.1597 19.5797 85.1721 19.561 85.1849 19.5419ZM77.8121 20.9159C78.2727 20.9349 78.7294 20.9313 79.1839 20.9086C79.4113 20.8974 79.6381 20.8811 79.8642 20.861C80.0906 20.8388 80.3178 20.8314 80.5447 20.81C80.853 20.7843 81.1614 20.7426 81.4694 20.704C81.8023 20.5718 82.1283 20.4473 82.432 20.3428C80.7741 20.4597 79.1103 20.6438 77.4477 20.8927C77.569 20.8996 77.6908 20.909 77.8121 20.9159ZM72.3455 21.0372C72.7396 21.1138 73.1438 21.0474 73.603 20.7394C73.6927 20.6797 73.7961 20.6343 73.9075 20.6005C73.8961 20.5887 73.8854 20.5742 73.8739 20.5624C73.7186 20.5818 73.562 20.6012 73.4097 20.6204C73.139 20.6635 72.873 20.7055 72.6122 20.7472C72.3496 20.7877 72.0916 20.8262 71.8392 20.8623C72.0074 20.9405 72.1758 21.0041 72.3455 21.0372ZM87.9831 20.3406C88.1667 20.382 88.3508 20.4422 88.5327 20.5245C88.7383 20.5247 88.9436 20.519 89.1488 20.5211C89.79 20.5005 90.4764 20.4375 91.1966 20.3437C89.6692 20.2335 88.1266 20.1794 86.5729 20.1839C87.0212 20.2418 87.4989 20.2418 87.9831 20.3406ZM69.386 23.207C69.0728 23.1313 68.7532 23.0418 68.4269 22.9397C68.3059 22.98 68.187 23.0253 68.0665 23.0665C68.0909 23.2592 68.1015 23.435 68.0975 23.5953C68.5258 23.4615 68.9551 23.3319 69.386 23.207ZM40.0841 57.4598C40.191 57.2112 40.2995 56.9592 40.406 56.7115C40.2407 56.631 40.0798 56.5528 39.9162 56.473C39.8794 56.7749 39.8423 57.0778 39.8059 57.3775C39.8981 57.4053 39.9904 57.4352 40.0841 57.4598ZM53.0633 30.2787C53.0349 30.3463 53.0066 30.4143 52.9813 30.4843C53.7485 30.0133 54.5229 29.5552 55.3068 29.1159C55.4093 28.9783 55.5133 28.8457 55.6189 28.7195C54.7548 29.2197 53.9034 29.7407 53.0633 30.2787ZM68.0638 23.0486C68.1802 23.0115 68.296 22.9715 68.4124 22.9353C68.285 22.8953 68.1606 22.8611 68.0308 22.816C68.0455 22.8981 68.0537 22.9723 68.0638 23.0486ZM96.6798 19.491L96.4262 19.7431C96.3706 19.7464 96.3169 19.7501 96.2643 19.7533L96.6437 19.471C96.4125 19.3292 96.1727 19.2131 95.9223 19.1259C95.4761 18.9616 95.005 18.8637 94.5095 18.8131C94.2615 18.788 94.0073 18.7744 93.7471 18.7706C93.4872 18.765 93.2206 18.7714 92.9439 18.7981C92.3986 18.8424 91.81 18.746 91.2362 18.5618C90.9493 18.4697 90.666 18.3555 90.394 18.2256C90.1215 18.0971 89.8622 17.9456 89.6173 17.8071C89.6057 17.8004 89.5951 17.7949 89.5835 17.7883C88.3051 17.7803 87.0263 17.8072 85.7485 17.8675C85.6498 17.9371 85.5561 18.0176 85.454 18.0805C85.2118 18.2293 84.9613 18.3593 84.7034 18.4897C84.615 18.5334 84.5226 18.5658 84.4327 18.6062C86.4476 18.6979 88.4611 18.9021 90.4608 19.2126C89.777 19.3076 88.9381 19.3777 87.9936 19.4122C87.522 19.4209 87.0203 19.4641 86.4985 19.4887C86.2095 19.5036 85.913 19.5163 85.6122 19.5279C85.645 19.5678 85.6777 19.6077 85.7105 19.6476L88.0645 19.5694C88.4734 19.5594 88.8825 19.5356 89.2916 19.5367L91.7472 19.5828C92.156 19.5964 92.5666 19.585 92.9746 19.6235L94.7516 19.7492C94.7654 19.6914 94.7792 19.634 94.7926 19.5762L95.6137 19.7015L96.024 19.7669L96.0349 19.7689C96.1112 19.7644 96.1885 19.7561 96.2639 19.7538C96.2428 19.7699 96.2216 19.7861 96.2004 19.8018L96.4309 19.8479C96.5819 19.879 96.7335 19.9101 96.8846 19.9416L97.3254 19.9955C97.1182 19.8022 96.904 19.632 96.6798 19.491ZM88.6229 17.3065C88.3343 17.1904 88.0486 17.1047 87.7638 17.0678C87.4607 17.0285 87.1581 17.041 86.8531 17.1202C86.7389 17.1503 86.6241 17.192 86.5093 17.2418C86.4683 17.2835 86.4244 17.3197 86.3825 17.3601C86.8965 17.345 87.4085 17.3329 87.9153 17.3194C88.153 17.315 88.3873 17.3108 88.6229 17.3065ZM96.4741 20.9675C95.9792 20.8868 95.4839 20.807 94.984 20.7382C94.9645 20.7538 94.9446 20.7682 94.9251 20.7842L94.8788 20.8231C95.3957 20.8713 95.9115 20.9299 96.4269 20.9893C96.4424 20.9816 96.458 20.9744 96.4741 20.9675ZM32.2324 102.192C32.2806 101.975 32.3288 101.76 32.3766 101.544C32.421 101.331 32.4898 101.113 32.5408 100.901C32.6491 100.474 32.7419 100.057 32.7937 99.6479C32.8196 99.4431 32.8356 99.2405 32.8384 99.0399C32.8519 98.8367 32.8528 98.6349 32.8375 98.4349C32.8294 98.3297 32.8031 98.226 32.7859 98.1213C32.7283 97.978 32.6741 97.8276 32.609 97.6985C32.4565 97.4035 32.3645 97.0861 32.3093 96.7607C32.2441 96.5968 32.1835 96.4317 32.1203 96.266C31.9966 95.9356 31.8775 95.602 31.7638 95.266C31.7091 95.0976 31.6471 94.9297 31.6027 94.7595L31.4779 94.2459C31.398 93.9025 31.3253 93.5574 31.2612 93.2106C31.2268 93.0172 31.2104 92.821 31.2205 92.6201C31.2362 92.4184 31.2672 92.2125 31.3052 92.0006C31.3817 91.5764 31.4871 91.1283 31.5531 90.6373C31.8972 90.7157 32.2194 90.7973 32.524 90.8821C32.4605 90.6451 32.3874 90.4305 32.311 90.2517C32.1344 89.7945 31.9383 89.5586 31.8837 89.6769C31.932 87.5367 32.8274 85.5198 32.4647 82.6142C32.2209 82.3502 32.1781 81.7036 32.2345 80.8843C32.3126 80.066 32.5248 79.0802 32.7168 78.1292C32.9015 77.3019 33.0991 76.5043 33.2159 75.8557C33.0146 75.9693 32.815 76.0816 32.5953 76.2082C32.0979 75.1813 31.218 74.2228 31.4049 73.4369C31.4839 73.0688 31.535 72.7039 31.565 72.3401C31.5952 71.9883 31.596 71.6372 31.6091 71.2884C31.0101 73.2565 30.4969 75.2476 30.0898 77.2601C29.9479 78.0396 29.8064 78.8188 29.6645 79.5975C29.5622 80.3832 29.4595 81.168 29.3572 81.9528C29.2336 82.7353 29.2056 83.5286 29.1354 84.3172L29.0412 85.5012C29.021 85.6984 29.0177 85.8964 29.0134 86.0945L28.9982 86.6884C28.9393 87.3301 28.8741 87.9601 28.8027 88.5776C28.7586 88.8864 28.754 89.1927 28.7277 89.4958C28.7036 89.7992 28.6802 90.0987 28.6565 90.3952C28.6089 90.9883 28.5398 91.5692 28.4886 92.1354C28.4541 92.7007 28.4107 93.2524 28.3589 93.7903C28.4701 94.2191 28.5749 94.6827 28.6762 95.1773C28.8042 95.6688 28.9281 96.191 29.0483 96.7413C29.1061 97.0168 29.1655 97.299 29.2261 97.5877C29.2893 97.8757 29.3301 98.174 29.4119 98.4714C29.5584 99.0688 29.7027 99.6912 29.8448 100.335C29.9175 100.657 29.9815 100.985 30.0599 101.316C30.1372 101.609 30.216 101.908 30.2954 102.209C30.8969 102.272 31.543 102.27 32.2324 102.192ZM34.7053 47.5964C34.7264 47.3897 34.7553 47.1848 34.7955 46.9822C34.701 47.0413 34.5981 47.1116 34.4971 47.1796C33.9956 47.8391 33.5036 48.5072 33.0206 49.1833C33.0548 49.3794 33.0994 49.5775 33.1662 49.7804C33.664 49.042 34.1798 48.3156 34.7053 47.5964ZM54.6882 28.2306C54.4834 28.3916 54.282 28.5529 54.1033 28.743C53.8284 29.0249 53.5942 29.3412 53.3852 29.6776C54.3398 29.0992 55.3039 28.5383 56.2835 28.0072C56.5938 27.7088 56.9092 27.4333 57.2436 27.2156C57.6685 26.9279 58.1007 26.6802 58.5342 26.4504C58.751 26.3359 58.968 26.2249 59.1852 26.1164C59.4062 26.0167 59.6268 25.9171 59.8479 25.8178C60.2528 25.6342 60.6853 25.4748 61.1031 25.2978C61.3123 25.2099 61.5167 25.1146 61.7144 25.0153C61.9146 24.9206 62.1064 24.816 62.2849 24.6954C62.2907 24.6917 62.2957 24.6871 62.3011 24.6834C61.9988 24.7981 61.6955 24.9111 61.3964 25.0295C59.0907 25.9806 56.8195 27.0041 54.6882 28.2306ZM102.16 20.2784C103.31 20.094 103.959 20.1314 104.368 20.2599C104.573 19.9907 104.852 19.6957 105.224 19.2451C105.416 20.2367 105.551 20.7922 105.591 21.0592C105.732 21.0942 105.909 21.1063 106.146 21.0822C106.46 21.0213 106.777 20.9617 107.094 20.9046C107.088 20.7933 107.079 20.6805 107.08 20.5706C107.032 20.5311 106.99 20.4981 106.944 20.4602C106.714 20.4299 106.484 20.3987 106.253 20.3697C106.451 20.3618 106.627 20.355 106.806 20.3482C106.173 19.8336 105.655 19.4322 105.226 19.1622C104.981 19.0039 104.757 18.899 104.551 18.8349C104.345 18.7698 104.156 18.7441 103.977 18.7596C103.386 18.8098 102.886 19.3092 102.16 20.2784ZM24.4218 66.8429C24.4302 66.8154 24.4387 66.7875 24.4472 66.76C24.5844 66.3322 24.7518 65.8808 24.8694 65.4343C24.9302 65.2113 24.9706 64.9873 25.0032 64.7705C25.0354 64.5538 25.0448 64.3405 25.0213 64.1335C25.016 64.0896 25.0141 64.046 25.0092 64.002C24.8471 64.4316 24.6806 64.8614 24.525 65.292C24.3517 65.7706 24.1876 66.2532 24.0248 66.736C24.1611 66.764 24.2941 66.7973 24.4218 66.8429ZM25.1238 57.4304C24.9305 57.802 24.7638 58.1859 24.5962 58.5686C24.4272 58.9505 24.2586 59.3319 24.09 59.713C23.921 60.0936 23.7524 60.4737 23.5841 60.853C23.4137 61.2315 23.2768 61.6237 23.1213 62.0071C22.8173 62.7772 22.5145 63.5443 22.2129 64.3083C22.4955 63.6084 22.7777 62.9093 23.0595 62.2112L23.4827 61.1652C23.6312 60.82 23.7947 60.4813 23.9498 60.1397C24.2644 59.4582 24.5787 58.7777 24.8926 58.0976C25.2216 57.4253 25.5785 56.7678 25.92 56.1038C25.9579 56.0271 25.9997 55.9532 26.0384 55.8769C25.9028 56.0399 25.7721 56.206 25.6468 56.3762C25.4723 56.7279 25.2974 57.0801 25.1238 57.4304ZM114.107 21.5968C114.108 21.5972 114.109 21.5971 114.109 21.5975C115.187 21.8637 116.112 22.2306 117.202 22.6026C117.233 22.6143 117.268 22.6248 117.299 22.6365L116.905 22.4578C116.23 22.1712 115.543 21.9131 114.862 21.6401C114.027 21.2898 113.173 20.9925 112.316 20.7018C112.922 20.989 113.518 21.2906 114.107 21.5968ZM100.743 14.7874C100.964 14.859 101.181 14.9337 101.395 15.0044C102.036 15.2237 102.643 15.4414 103.212 15.6555C103.495 15.765 103.77 15.8715 104.036 15.9742C104.3 16.0795 104.549 16.2003 104.791 16.3102C105.041 16.4266 105.278 16.5411 105.505 16.6539L106.787 16.966C106.984 17.0156 107.183 17.0596 107.379 17.114L109.137 17.6322C113.331 18.8494 117.393 20.4843 121.301 22.43C121.536 22.3592 121.642 22.2257 121.476 21.9954L122.226 22.7948C123.802 23.423 124.933 24.0121 125.903 24.4587C126.877 24.8951 127.63 25.3162 128.419 25.6882C128.915 25.9242 129.425 26.1582 129.978 26.4221C128.198 25.1793 126.392 24.0371 124.541 22.9865C120.914 20.935 117.107 19.218 112.942 17.822L112.952 17.8249L114.237 18.2513C114.667 18.39 115.082 18.5685 115.505 18.7259C116.345 19.0535 117.191 19.3693 118.027 19.711L120.503 20.8092L121.121 21.085C121.325 21.182 121.525 21.2864 121.727 21.3864L122.938 21.995L123.948 22.505C121.942 21.4416 119.874 20.4506 117.737 19.5602C113.38 17.7434 108.768 16.3123 104.007 15.3607C102.926 15.1432 101.837 14.9544 100.743 14.7874Z" fill="#B92E2D"/>
<path d="M8.62081 102.751C8.55944 102.905 8.50183 103.049 8.44234 103.198C8.37765 103.126 8.30836 103.049 8.24226 102.975C8.27475 102.879 8.28009 102.743 8.34524 102.701C8.40133 102.667 8.52291 102.729 8.62081 102.751Z" fill="#B92E2D"/>
<path d="M5.81298 87.1108C5.82971 87.3536 5.85506 87.5961 5.87605 87.8379C5.92189 88.3209 5.96731 88.8039 6.01322 89.2881C5.77633 89.3333 5.53004 89.3802 5.28801 89.426C5.25541 88.9239 5.22233 88.4209 5.18968 87.918L5.14407 87.1616L5.12783 86.4054C5.33946 86.3972 5.56316 86.3888 5.77697 86.3809C5.78942 86.6245 5.80098 86.8676 5.81298 87.1108Z" fill="#B92E2D"/>
<path d="M6.03822 71.6151C6.16786 70.9632 6.29603 70.3161 6.42429 69.6707C6.61398 69.713 6.80411 69.7557 6.99248 69.7977C6.86601 70.4361 6.73784 71.0832 6.61135 71.7212C6.42117 71.6858 6.22749 71.6497 6.03822 71.6151Z" fill="#B92E2D"/>
<path d="M5.19545 78.8724C5.2151 78.5254 5.19215 78.1648 5.28053 77.8353C5.31155 77.7195 5.61995 77.6954 5.88821 77.6066C5.89562 77.9671 5.98662 78.3322 5.88618 78.6217C5.83095 78.7696 5.43691 78.7914 5.19545 78.8724Z" fill="#B92E2D"/>
<path d="M36.2311 27.5703C36.2772 27.649 36.3269 27.724 36.3805 27.8053L34.5883 29.1322L33.6955 29.8009C33.4 30.0268 33.116 30.268 32.826 30.5018C32.8039 30.3944 32.7799 30.2983 32.7632 30.1953C33.0466 29.9691 33.3195 29.7298 33.6118 29.5165L34.4818 28.8653C35.064 28.4341 35.6468 28.0029 36.2311 27.5703Z" fill="#B92E2D"/>
<path d="M51.3899 158.006C51.3422 158.164 51.2941 158.324 51.247 158.48C50.7273 158.224 50.2177 157.938 49.7049 157.667C49.7618 157.55 49.8183 157.435 49.8772 157.315C50.3813 157.546 50.8839 157.788 51.3899 158.006Z" fill="#B92E2D"/>
<path d="M60.6768 160.46L61.1566 160.598L61.6419 160.717L62.6134 160.95C62.5823 161.08 62.5505 161.213 62.519 161.345L61.5124 161.192L61.0093 161.112L60.5108 161.012C59.8449 160.875 59.179 160.738 58.5136 160.601C58.5915 160.368 58.6785 160.135 58.7612 159.901C59.399 160.088 60.0377 160.274 60.6768 160.46Z" fill="#B92E2D"/>
<path d="M29.1258 142.762L29.494 143.11L29.8757 143.443L30.642 144.106C30.5571 144.208 30.471 144.311 30.3849 144.414L29.5524 143.805L29.1379 143.498L28.736 143.175C28.2008 142.74 27.6661 142.307 27.1313 141.873C27.3032 141.701 27.4823 141.535 27.6586 141.366C28.1471 141.831 28.636 142.296 29.1258 142.762Z" fill="#B92E2D"/>
<path d="M39.4218 149.279C40.008 149.55 40.6145 149.839 41.2356 150.142C41.8619 150.436 42.518 150.715 43.1759 151.02C43.5048 151.171 43.8373 151.324 44.1719 151.478C44.3397 151.555 44.5051 151.637 44.6753 151.71C44.8462 151.782 45.0176 151.853 45.1889 151.925C45.8754 152.215 46.5661 152.51 47.2548 152.809L47.7712 153.035C47.9443 153.108 48.1205 153.172 48.2948 153.241C48.6437 153.379 48.9917 153.516 49.3388 153.653C49.6848 153.792 50.0294 153.93 50.3718 154.067C50.7146 154.203 51.0502 154.351 51.395 154.468C52.0788 154.715 52.7496 154.962 53.4005 155.207C53.7262 155.329 54.047 155.45 54.3625 155.569C54.6818 155.678 54.9959 155.785 55.3038 155.89C55.9188 156.103 56.5082 156.312 57.0654 156.518C59.3097 157.281 61.0532 157.948 61.8558 158.45C61.3383 159.044 60.8462 159.547 60.2746 159.723C59.7074 159.884 59.0555 159.725 58.2423 159.024C57.9386 158.761 57.6063 158.53 57.2538 158.325C56.9024 158.115 56.5374 157.91 56.158 157.735C55.4015 157.378 54.5995 157.102 53.8328 156.848C53.0821 156.569 52.3263 156.307 51.5669 156.052C51.1882 155.922 50.8045 155.804 50.428 155.668L49.3023 155.249C48.5527 154.966 47.7952 154.697 47.0514 154.393C46.3145 154.073 45.5797 153.744 44.8514 153.4C41.3773 151.703 38.0777 149.613 34.9343 147.301C35.7339 147.591 36.6905 147.997 37.7434 148.502C38.2647 148.764 38.8372 149.006 39.4218 149.279Z" fill="#B92E2D"/>
<path d="M21.9002 136.222C21.7886 136.341 21.6753 136.461 21.5653 136.577C21.2129 136.105 20.8824 135.612 20.5429 135.13C20.6442 135.054 20.7451 134.977 20.8506 134.898C21.2006 135.34 21.544 135.791 21.9002 136.222Z" fill="#B92E2D"/>
<path d="M19.1185 38.064C19.519 37.5445 19.9163 37.0286 20.3128 36.5146C20.4638 36.6413 20.6152 36.7685 20.7648 36.8941C20.3732 37.4028 19.9759 37.919 19.5843 38.4273C19.4293 38.3067 19.2721 38.1837 19.1185 38.064Z" fill="#B92E2D"/>
<path d="M63.2025 13.3574C63.911 13.247 64.62 13.1361 65.331 13.0251C65.3376 13.1166 65.3493 13.207 65.3618 13.3042L63.181 13.6448L62.0912 13.8213C61.7286 13.8839 61.3693 13.9655 61.0082 14.0374C61.0354 13.9317 61.0557 13.8349 61.0859 13.735C61.4377 13.6666 61.7861 13.5817 62.1409 13.5286L63.2025 13.3574Z" fill="#B92E2D"/>
<path d="M31.7479 87.958C31.5397 87.9746 31.3336 87.9966 31.121 88.0203C31.0287 87.6552 30.9263 87.2873 30.8256 86.9179C31.0326 86.9027 31.2391 86.8879 31.4392 86.8735C31.541 87.232 31.6449 87.5952 31.7479 87.958Z" fill="#B92E2D"/>
<path d="M7.38918 67.009C7.46018 66.9387 7.5243 66.8199 7.60082 66.8132C7.66581 66.8089 7.74775 66.9209 7.82592 66.9863C7.7034 67.0949 7.58953 67.1958 7.47112 67.3008C7.44454 67.2065 7.41588 67.1054 7.38918 67.009Z" fill="#B92E2D"/>
</svg>
