<svg width="83" height="17" viewBox="0 0 83 17" fill="none" xmlns="http://www.w3.org/2000/svg">
<path d="M7.82057 1.46353C7.97024 1.00287 8.62195 1.00287 8.77162 1.46353L10.0473 5.38967C10.1142 5.59568 10.3062 5.73516 10.5228 5.73516H14.651C15.1354 5.73516 15.3368 6.35497 14.9449 6.63967L11.6051 9.06616C11.4299 9.19348 11.3566 9.41916 11.4235 9.62517L12.6992 13.5513C12.8489 14.012 12.3216 14.395 11.9298 14.1103L8.58999 11.6838C8.41474 11.5565 8.17745 11.5565 8.0022 11.6838L4.66243 14.1103C4.27057 14.395 3.74333 14.012 3.893 13.5513L5.16868 9.62517C5.23562 9.41916 5.16229 9.19348 4.98705 9.06616L1.64727 6.63967C1.25542 6.35497 1.4568 5.73516 1.94117 5.73516H6.06936C6.28597 5.73516 6.47795 5.59568 6.54488 5.38967L7.82057 1.46353Z" fill="#FF8800"/>
<path d="M24.4202 1.46353C24.5699 1.00287 25.2216 1.00287 25.3712 1.46353L26.6469 5.38967C26.7139 5.59568 26.9058 5.73516 27.1224 5.73516H31.2506C31.735 5.73516 31.9364 6.35497 31.5445 6.63967L28.2047 9.06616C28.0295 9.19348 27.9562 9.41916 28.0231 9.62517L29.2988 13.5513C29.4485 14.012 28.9212 14.395 28.5294 14.1103L25.1896 11.6838C25.0144 11.5565 24.7771 11.5565 24.6018 11.6838L21.262 14.1103C20.8702 14.395 20.3429 14.012 20.4926 13.5513L21.7683 9.62517C21.8352 9.41916 21.7619 9.19348 21.5867 9.06616L18.2469 6.63967C17.855 6.35497 18.0564 5.73516 18.5408 5.73516H22.669C22.8856 5.73516 23.0776 5.59568 23.1445 5.38967L24.4202 1.46353Z" fill="#FF8800"/>
<path d="M41.0198 1.46353C41.1695 1.00287 41.8212 1.00287 41.9708 1.46353L43.2465 5.38967C43.3135 5.59568 43.5054 5.73516 43.7221 5.73516H47.8502C48.3346 5.73516 48.536 6.35497 48.1441 6.63967L44.8044 9.06616C44.6291 9.19348 44.5558 9.41916 44.6227 9.62517L45.8984 13.5513C46.0481 14.012 45.5208 14.395 45.129 14.1103L41.7892 11.6838C41.614 11.5565 41.3767 11.5565 41.2014 11.6838L37.8616 14.1103C37.4698 14.395 36.9425 14.012 37.0922 13.5513L38.3679 9.62517C38.4348 9.41916 38.3615 9.19348 38.1863 9.06616L34.8465 6.63967C34.4546 6.35497 34.656 5.73516 35.1404 5.73516H39.2686C39.4852 5.73516 39.6772 5.59568 39.7441 5.38967L41.0198 1.46353Z" fill="#FF8800"/>
<path d="M57.6213 1.46353C57.771 1.00287 58.4227 1.00287 58.5724 1.46353L59.8481 5.38967C59.915 5.59568 60.107 5.73516 60.3236 5.73516H64.4518C64.9362 5.73516 65.1376 6.35497 64.7457 6.63967L61.4059 9.06616C61.2307 9.19348 61.1573 9.41916 61.2243 9.62517L62.5 13.5513C62.6496 14.012 62.1224 14.395 61.7305 14.1103L58.3908 11.6838C58.2155 11.5565 57.9782 11.5565 57.803 11.6838L54.4632 14.1103C54.0713 14.395 53.5441 14.012 53.6938 13.5513L54.9695 9.62517C55.0364 9.41916 54.9631 9.19348 54.7878 9.06616L51.4481 6.63967C51.0562 6.35497 51.2576 5.73516 51.7419 5.73516H55.8701C56.0868 5.73516 56.2787 5.59568 56.3457 5.38967L57.6213 1.46353Z" fill="#002922"/>
<path d="M74.221 1.46353C74.3706 1.00287 75.0223 1.00287 75.172 1.46353L76.4477 5.38967C76.5146 5.59568 76.7066 5.73516 76.9232 5.73516H81.0514C81.5358 5.73516 81.7372 6.35497 81.3453 6.63967L78.0055 9.06616C77.8303 9.19348 77.757 9.41916 77.8239 9.62517L79.0996 13.5513C79.2492 14.012 78.722 14.395 78.3302 14.1103L74.9904 11.6838C74.8151 11.5565 74.5778 11.5565 74.4026 11.6838L71.0628 14.1103C70.671 14.395 70.1437 14.012 70.2934 13.5513L71.5691 9.62517C71.636 9.41916 71.5627 9.19348 71.3874 9.06616L68.0477 6.63967C67.6558 6.35497 67.8572 5.73516 68.3416 5.73516H72.4697C72.6864 5.73516 72.8783 5.59568 72.9453 5.38967L74.221 1.46353Z" fill="#002922"/>
</svg>
