<svg width="117" height="24" viewBox="0 0 117 24" fill="none" xmlns="http://www.w3.org/2000/svg">
<path d="M11.2247 1.46353C11.3744 1.00287 12.0261 1.00287 12.1757 1.46353L14.2148 7.73916C14.2818 7.94517 14.4737 8.08465 14.6904 8.08465H21.2889C21.7733 8.08465 21.9747 8.70446 21.5828 8.98916L16.2445 12.8677C16.0692 12.995 15.9959 13.2207 16.0628 13.4267L18.1019 19.7024C18.2516 20.163 17.7243 20.5461 17.3325 20.2614L11.9941 16.3828C11.8189 16.2555 11.5816 16.2555 11.4063 16.3828L6.06795 20.2614C5.6761 20.5461 5.14886 20.163 5.29853 19.7024L7.33761 13.4267C7.40455 13.2207 7.33122 12.995 7.15597 12.8677L1.8176 8.98916C1.42574 8.70446 1.62713 8.08465 2.11149 8.08465H8.71009C8.9267 8.08465 9.11868 7.94517 9.18561 7.73916L11.2247 1.46353Z" fill="#FF8800"/>
<path d="M34.627 1.46353C34.7767 1.00287 35.4284 1.00287 35.5781 1.46353L37.6172 7.73916C37.6841 7.94517 37.8761 8.08465 38.0927 8.08465H44.6913C45.1757 8.08465 45.377 8.70446 44.9852 8.98916L39.6468 12.8677C39.4716 12.995 39.3982 13.2207 39.4652 13.4267L41.5043 19.7024C41.6539 20.163 41.1267 20.5461 40.7348 20.2614L35.3965 16.3828C35.2212 16.2555 34.9839 16.2555 34.8087 16.3828L29.4703 20.2614C29.0784 20.5461 28.5512 20.163 28.7009 19.7024L30.74 13.4267C30.8069 13.2207 30.7336 12.995 30.5583 12.8677L25.2199 8.98916C24.8281 8.70446 25.0295 8.08465 25.5138 8.08465H32.1124C32.329 8.08465 32.521 7.94517 32.588 7.73916L34.627 1.46353Z" fill="#FF8800"/>
<path d="M58.0255 1.46359C58.1751 1.00293 58.8269 1.00293 58.9765 1.46359L61.0156 7.73922C61.0825 7.94523 61.2745 8.08471 61.4911 8.08471H68.0897C68.5741 8.08471 68.7755 8.70452 68.3836 8.98922L63.0452 12.8678C62.87 12.9951 62.7967 13.2208 62.8636 13.4268L64.9027 19.7024C65.0524 20.1631 64.5251 20.5462 64.1333 20.2614L58.7949 16.3829C58.6197 16.2556 58.3824 16.2556 58.2071 16.3829L52.8687 20.2614C52.4769 20.5462 51.9496 20.1631 52.0993 19.7024L54.1384 13.4268C54.2053 13.2208 54.132 12.9951 53.9568 12.8678L48.6184 8.98922C48.2265 8.70452 48.4279 8.08471 48.9123 8.08471H55.5109C55.7275 8.08471 55.9195 7.94523 55.9864 7.73922L58.0255 1.46359Z" fill="#FF8800"/>
<path d="M81.4278 1.46359C81.5775 1.00293 82.2292 1.00293 82.3789 1.46359L84.418 7.73922C84.4849 7.94523 84.6769 8.08471 84.8935 8.08471H91.4921C91.9764 8.08471 92.1778 8.70452 91.786 8.98922L86.4476 12.8678C86.2724 12.9951 86.199 13.2208 86.266 13.4268L88.305 19.7024C88.4547 20.1631 87.9275 20.5462 87.5356 20.2614L82.1972 16.3829C82.022 16.2556 81.7847 16.2556 81.6095 16.3829L76.2711 20.2614C75.8792 20.5462 75.352 20.1631 75.5017 19.7024L77.5407 13.4268C77.6077 13.2208 77.5343 12.9951 77.3591 12.8678L72.0207 8.98922C71.6289 8.70452 71.8303 8.08471 72.3146 8.08471H78.9132C79.1298 8.08471 79.3218 7.94523 79.3887 7.73922L81.4278 1.46359Z" fill="#FF8800"/>
<path d="M104.822 1.46353C104.972 1.00287 105.624 1.00287 105.773 1.46353L107.812 7.73916C107.879 7.94517 108.071 8.08465 108.288 8.08465H114.887C115.371 8.08465 115.572 8.70446 115.181 8.98916L109.842 12.8677C109.667 12.995 109.594 13.2207 109.66 13.4267L111.7 19.7024C111.849 20.163 111.322 20.5461 110.93 20.2614L105.592 16.3828C105.417 16.2555 105.179 16.2555 105.004 16.3828L99.6656 20.2614C99.2738 20.5461 98.7465 20.163 98.8962 19.7024L100.935 13.4267C101.002 13.2207 100.929 12.995 100.754 12.8677L95.4153 8.98916C95.0234 8.70446 95.2248 8.08465 95.7091 8.08465H102.308C102.524 8.08465 102.716 7.94517 102.783 7.73916L104.822 1.46353Z" fill="#002922"/>
</svg>
