<svg width="259" height="60" viewBox="0 0 259 60" fill="none" xmlns="http://www.w3.org/2000/svg">
<path d="M-435.05 57.7796C-420.198 63.0232 -410.06 57.4518 -396.281 56.5638C-365.951 54.613 -325.953 56.37 -294.932 56.2306C-271.452 56.1249 -247.593 55.7507 -224.255 55.4506C-223.058 55.4358 -222.344 54.8609 -221.801 54.8537C-216.691 54.786 -208.123 55.3068 -203.054 55.2308C-192.391 55.0723 -173.837 55.1619 -164.071 54.6229C-159.924 54.3947 -155.67 54.2996 -154.058 52.9311C-152.543 52.8614 -151.716 54.0979 -151.32 54.1652C-151.315 54.164 -151.311 54.1628 -151.306 54.1615C-150.032 54.3703 -146.814 53.5033 -146.103 53.5573C-145.997 53.5658 -146.651 54.4614 -144.928 54.1908C-144.774 54.1676 -144.916 53.5586 -143.465 53.55C-143.088 53.5479 -138.235 54.4816 -136.849 54.5387C-132.234 54.7246 -121.213 53.9915 -115.696 54.0041C-114.852 54.0041 -114.366 54.3603 -113.475 54.3666C-113.015 54.3703 -112.324 53.9836 -112.183 53.9858C-111.562 53.9995 -108.85 55.7554 -109.824 52.2902C-106.993 52.51 -107.827 53.6556 -107.763 54.3996C-104.689 54.507 -103.208 52.875 -102.405 54.6046C-87.2915 54.3959 -72.1775 54.1872 -57.0635 53.9784C-57.059 54.2604 -57.0545 54.5424 -57.05 54.8243C-52.5952 53.6981 -51.067 55.6031 -48.5238 53.9674C-46.9557 54.3275 -45.3875 54.6876 -43.8193 55.0477C-3.5164 53.9382 36.6923 55.257 76.5408 55.2528C78.2227 55.2528 78.6425 54.6528 81.416 54.6486C84.4784 54.6443 88.7853 55.3417 92.8213 55.3333C96.3615 55.327 101.584 54.7594 105.532 54.6705C106.423 54.6515 107.068 55.0315 107.168 55.0294C107.758 55.0146 107.787 54.4129 108.36 54.3959C109.044 54.3769 109.871 54.8225 110.662 54.795C113.616 54.6958 116.837 54.8494 117.211 54.839C119.013 54.782 119.411 54.1936 119.559 54.1871C121.564 54.1153 120.812 54.6464 121.311 54.6156C123.902 54.4528 125.733 53.1272 129.279 54.3995C129.183 53.9076 129.086 53.4157 128.99 52.9238C131.704 52.647 129.911 53.9541 130.466 54.1908C130.692 54.2785 136.534 54.1189 136.985 54.0956C138.554 54.0111 138.596 53.3574 138.732 53.3485C139.062 53.3274 143.01 54.0693 145.034 53.4987C147.429 52.8224 144.611 51.4926 145.205 51.2429C145.305 51.2006 147.813 51.3369 148.149 50.9206C148.521 50.4728 146.353 50.4823 146.386 50.2944C146.409 50.1655 150.009 49.2423 149.319 48.6209C148.765 47.9977 143.881 48.7968 142.846 48.5037C142.675 48.4552 142.997 47.686 142.846 47.6578C142.238 47.5543 130.986 47.5311 130.471 47.6578C131.057 48.0081 131.643 48.3585 132.229 48.7088C131.45 48.7442 130.671 48.7796 129.892 48.815C130.999 49.0957 132.107 49.3765 133.215 49.6572C131.569 52.5419 126.61 49.6176 126.406 48.1778C126.317 47.512 129.349 45.799 126.528 44.8014C126.957 44.6305 127.385 44.4597 127.814 44.2888C128.698 44.5695 129.582 44.8503 130.466 45.131C129.877 45.308 129.289 45.485 128.7 45.662C128.917 45.8622 129.133 46.0624 129.35 46.2626C131.002 46.5836 132.654 46.9046 134.306 47.2257C135.156 47.0777 134.979 46.4867 135.563 46.3724C142.845 44.9331 138.095 46.7647 142.862 46.5006C143.543 46.1832 144.224 45.8659 144.904 45.5485C144.664 46.8611 146.776 46.0369 149.33 46.6031C149.025 46.1784 148.72 45.7536 148.415 45.3288C152.115 45.5549 159.615 43.4133 157.591 45.7572C158.438 45.557 159.286 45.3568 160.134 45.1567C160.85 45.5399 161.566 45.9232 162.282 46.3065C163.271 46.2626 164.261 46.2186 165.25 46.1747C165.255 45.9672 165.259 45.7597 165.264 45.5521C164.475 45.5509 163.686 45.5497 162.897 45.5485C163.489 44.9162 164.081 44.2839 164.673 43.6516C165.256 43.7565 165.838 43.8615 166.42 43.9665C163.978 44.5645 167.198 45.5413 167.978 46.3761C170.037 46.6846 171.353 45.601 172.043 45.5521C172.367 45.5289 176.191 47.4406 174.692 45.3398C176.659 45.5949 178.626 45.85 180.594 46.1051C181.363 45.944 182.132 45.7829 182.901 45.6217C181.232 44.6432 186.07 43.4641 182.506 43.0583C179.844 42.754 179.188 43.6689 177.926 43.6626C176.787 43.6581 176.185 43.0419 174.946 43.0144C166.614 42.8411 159.827 42.9541 151.914 43.2268C150.351 43.2816 148.929 42.9794 147.878 43.0217C146.693 43.0704 148.178 43.8433 146.668 43.6552C145.081 43.4564 144.738 42.8257 144.319 42.813C144.059 42.8058 143.233 43.3733 142.472 43.3733C139.348 43.3731 134.769 42.8244 134.325 42.8276C133.824 42.834 124.987 43.346 124.564 43.4392C124.34 43.4899 124.805 45.5853 122.858 43.3513C122.25 43.3098 121.643 43.2683 121.035 43.2268C121.133 43.6455 121.232 44.0642 121.33 44.4828C117.731 42.8956 118.969 43.7836 115.499 43.6589C107.19 43.3588 94.9343 43.7116 85.847 43.5637C83.8177 43.5298 83.0446 43.0285 80.6442 42.9924C78.4138 42.9607 72.5904 44.4566 73.8568 42.3845C68.8943 44.1788 68.0965 41.0847 65.6123 43.0144C65.3116 42.7336 65.0112 42.4529 64.7104 42.1721C62.0139 43.3768 61.1814 42.3181 58.2372 42.1721C56.9686 42.1087 58.4311 43.3901 55.8701 41.9634C55.3807 42.0696 54.8914 42.1758 54.4021 42.282C54.5159 42.592 54.6296 42.9021 54.7434 43.2121C51.8992 42.9585 51.7157 43.1201 52.0403 41.9597C50.6672 42.1709 49.294 42.3821 47.9208 42.5933C47.7502 42.2124 47.5796 41.8316 47.4089 41.4507C48.0667 40.7243 79.2458 41.8198 83.5882 42.1685C88.6804 41.3064 98.9102 42.3842 103.024 42.1795C104.67 42.097 105.398 41.2357 107.793 41.1321C110.189 41.0286 113.203 41.811 114.478 41.8389C118.726 41.9361 138.856 41.7643 125.165 40.6927C125.559 40.2728 125.952 39.8529 126.346 39.433C131.786 40.8658 129.817 39.9837 134.331 39.8358C136.231 39.7726 140.75 40.7103 140.498 38.8031C136.969 38.448 133.22 39.0576 130.152 39.0301C129.847 39.0272 126.214 38.1563 124.345 38.3929C122.658 38.6089 123.819 40.4271 120.149 38.3856C117.424 40.3798 115.848 38.5706 115.128 38.3783C113.884 38.0448 113.747 39.029 112.503 39.1437C111.148 39.2703 110.216 38.6169 110.031 38.6127C108.173 38.5979 98.4948 38.5088 98.0513 38.9056C98.4403 39.0802 98.8295 39.2547 99.2186 39.4293C96.7052 39.7102 97.2307 38.7038 96.5697 38.5834C96.0776 38.587 95.5857 38.5907 95.0936 38.5944C95.2885 38.8031 95.4837 39.0118 95.6786 39.2206C92.7104 39.1762 94.9816 38.4508 90.7683 38.4699C88.0929 38.4826 85.3297 39.2795 85.0697 39.2206C84.9931 39.2037 85.8353 38.6664 84.7447 38.5944C82.9395 38.476 79.8177 38.4897 79.4687 39.2206C78.5845 39.1171 78.66 38.4019 78.5423 38.3856C78.0291 38.3159 69.1963 38.0727 67.6138 38.0304C63.2293 37.9142 58.348 38.0667 53.5977 37.9462C53.1093 37.9341 53.4208 38.3931 52.9314 38.3783C52.1456 38.3548 48.1116 37.6345 47.5091 37.5837C46.0051 37.459 42.0485 37.7447 41.426 37.536C41.3375 37.5065 42.6397 36.8861 41.1172 36.6938C39.427 36.481 40.337 37.3153 40.2451 37.3237C36.8051 37.609 34.6334 37.0293 32.285 36.9172C31.5239 36.8812 30.1196 37.5092 29.0457 37.3237C28.9222 37.3026 29.1672 36.7223 29.0457 36.6938C27.4229 36.3894 25.9047 37.4663 25.2025 37.536C23.4843 37.7065 24.4199 36.9118 24.3303 36.9062C23.1857 36.8808 21.6452 37.1675 19.9048 37.1296C12.145 36.9605 5.8124 36.9119 -2.43712 36.9648C-3.47309 36.9711 -4.70272 37.5317 -4.86117 37.5324C-5.35091 37.5282 -5.21082 36.8694 -6.62707 36.8842C-9.61282 36.918 -12.3811 36.8862 -15.3374 36.8989C-15.9325 36.9015 -16.1864 37.5119 -16.6402 37.5251C-18.1622 37.5631 -23.3531 35.9649 -23.4383 37.9535C-26.4595 36.1931 -28.4663 37.7104 -30.8974 37.6935C-36.6567 37.6555 -45.6748 37.2968 -51.4165 37.5251C-52.6252 37.574 -53.1925 38.0835 -53.8649 38.111C-55.0709 38.1616 -61.9655 37.8769 -62.326 37.9572C-63.0342 38.1115 -62.6097 40.3553 -66.2506 38.4003C-68.385 38.261 -68.133 39.1819 -68.5744 39.2316C-72.0146 39.6014 -75.3617 37.5461 -74.7361 39.4293C-78.7417 38.9179 -81.3378 37.8773 -82.9724 39.638C-82.9511 38.7788 -84.835 38.2633 -87.1055 38.5907C-84.7807 40.0342 -85.0685 40.9567 -79.4461 40.6927C-79.3575 40.6885 -79.5264 40.0671 -79.4379 40.0628C-78.635 40.0209 -76.9603 40.3346 -75.5919 40.3009C-74.2234 40.2671 -74.9832 39.8423 -74.4354 39.8504C-73.9339 39.8589 -73.9506 40.4535 -73.2248 40.462C-70.8705 40.4853 -68.7871 40.6492 -67.4477 40.6597C-66.6039 40.6659 -65.6596 40.1434 -65.0047 40.1434C-62.473 40.1477 -57.1082 40.5557 -53.8865 40.4986C-53.2153 40.4853 -53.4971 39.899 -52.0286 39.8504C-51.857 39.8448 -51.2315 40.4561 -49.9458 40.5828C-48.6596 40.7096 -47.6626 40.406 -46.8365 40.4693C-46.1462 40.5221 -46.4346 41.0652 -45.0191 41.0992C-43.8389 41.1267 -30.4721 40.7354 -29.7463 40.6487C-28.7022 40.5238 -28.2059 39.7611 -27.5687 39.8541C-27.4565 39.874 -27.2667 40.6107 -26.878 40.6634C-20.4695 41.534 -6.28524 40.529 1.0378 40.5352C16.3445 40.5458 30.466 40.9792 45.9084 41.1504C46.1838 41.2786 46.4592 41.4068 46.7345 41.5349C45.1736 41.5398 43.6126 41.5447 42.0516 41.5496C42.0417 41.8963 42.0318 42.2429 42.0218 42.5896C39.9115 42.6445 40.1911 41.8246 40.2505 41.3299C39.4696 41.5398 38.6887 41.7498 37.9077 41.9597C37.234 40.7516 32.0259 41.5551 29.341 41.5533C27.5945 41.5533 25.5166 41.0927 24.5958 41.1285C22.6502 41.2024 22.7011 41.9479 22.5482 41.9597C22.2886 41.9766 19.5726 41.3192 17.6134 41.3445C14.7171 41.3807 14.4037 42.5254 10.4388 41.5533C5.35828 42.1471 -0.271047 41.8482 -5.74683 41.751C-4.70427 42.8091 -9.6115 41.8076 -11.8246 41.8242C-25.3258 41.9278 -41.9199 42.3799 -55.5983 42.7983C-57.3561 42.8512 -58.6843 43.4745 -59.6636 43.4538C-60.1947 43.4433 -60.4264 42.7084 -61.1641 42.8057C-61.2936 42.8244 -61.3839 43.5115 -62.7567 43.615C-66.1733 43.8749 -74.684 42.7282 -76.8378 44.0471C-88.5193 43.8432 -100.201 43.6394 -111.882 43.4355C-112.176 43.7163 -112.469 43.997 -112.763 44.2778C-114.982 42.8431 -123.754 43.6861 -128.033 43.6186C-135.562 43.4982 -145.169 43.0521 -151.767 43.0034C-153.2 42.9929 -154.375 43.3999 -155.732 43.3916C-156.316 43.3874 -157.042 42.8597 -157.649 42.8569C-164.471 42.8168 -173.707 43.3603 -180.582 43.3477C-196.19 43.3202 -210.889 43.4002 -226.704 43.377C-279.978 43.2945 -332.945 42.5185 -385.765 42.8313C-386.473 42.8356 -386.437 43.4423 -386.986 43.4465C-390.226 43.4761 -397.46 42.976 -401.119 43.0034C-404.034 43.0246 -408.661 43.9523 -409.664 43.0181C-399.308 41.6041 -388.366 41.7105 -377.585 41.3153C-376.819 41.2874 -376.723 40.7106 -376.629 40.7C-374.884 40.4996 -375.986 41.294 -373.455 41.3299C-372.609 41.342 -364.795 39.5006 -365.725 41.3336C-363.854 40.6003 -350.663 40.2338 -348.117 40.4767C-347.344 40.5506 -347.892 41.0937 -347.738 41.1212C-347.072 41.2411 -346.771 40.4924 -346.175 40.473C-344.588 40.4265 -340.551 41.0339 -339.784 41.0296C-338.018 41.0231 -332.727 40.4136 -330.396 40.5572C-328.26 40.6883 -328.66 41.4704 -326.813 41.5423C-325.357 41.5969 -326.943 40.939 -323.693 40.7403C-322.082 40.6431 -316.447 41.1138 -315.077 41.1138C-313.708 41.1138 -312.185 40.6458 -310.297 40.6817C-307.577 40.7325 -301.66 40.9931 -298.892 41.1431C-298.726 41.1516 -298.324 41.7601 -297.917 41.7474C-297.073 41.7219 -297.326 40.9704 -296.69 40.8941C-296.052 40.8181 -285.016 40.9099 -283.142 40.9014C-281.85 40.8972 -280.958 41.3448 -280.244 41.3409C-279.684 41.3367 -279.624 40.7107 -279.052 40.7037C-278.875 40.7037 -277.369 41.2474 -275.864 41.2347C-274.443 41.2219 -269.044 40.7049 -268.419 40.7C-268.012 40.6979 -268.458 41.1427 -267.254 41.1322C-266.157 41.1213 -265.437 40.5437 -264.811 40.5352C-263.36 40.5165 -261.738 41.009 -260.199 41.0113C-255.773 41.0176 -256.001 40.3022 -255.735 40.2789C-254.999 40.2143 -254.704 40.8696 -254.462 40.8831C-253.442 40.9381 -250.941 41.0591 -250.031 41.0845C-248.898 41.1162 -248.418 40.4934 -247.215 40.4913C-246.317 40.4917 -244.506 41.0989 -242.459 41.1285C-237.844 41.1982 -232.357 41.3129 -227.825 41.2896C-226.474 41.2833 -226.266 40.7148 -225.853 40.7C-223.682 40.622 -222.467 41.2576 -221.847 41.2493C-217.428 41.1923 -209.544 40.195 -205.442 40.1105C-203.772 40.0766 -196.461 40.5371 -192.336 40.4547C-191.864 40.4461 -192.306 40.0004 -191.781 40.0702C-190.525 40.2374 -190.642 41.145 -190.004 41.1175C-189.697 41.1015 -188.996 40.5898 -188.1 40.5389C-183.456 40.2747 -180.263 40.6726 -178.144 40.6451C-157.798 40.3809 -137.05 40.1432 -118.049 40.0628C-115.931 40.0544 -113.304 40.5943 -110.106 40.0702C-110.007 39.7882 -109.909 39.5062 -109.81 39.2242C-109.698 39.5013 -109.586 39.7784 -109.474 40.0555C-105.852 40.2056 -104.483 40.5622 -100.783 40.2093C-100.465 40.1797 -99.4918 38.8925 -98.8899 40.4913C-95.2254 39.3331 -97.2362 40.5007 -94.5158 40.6085C-91.7958 40.7162 -89.1525 40.3593 -86.5151 40.2789C-85.0693 39.7061 -91.1358 38.3851 -91.5311 38.3893C-92.1681 38.3944 -92.8299 39.1893 -93.4432 39.2316C-95.26 39.358 -97.0173 38.7272 -97.4246 39.4366C-99.7727 38.6865 -96.8495 39.0613 -97.1429 38.3856C-98.7103 38.6652 -100.278 38.9447 -101.845 39.2242C-102.643 36.9262 -111.303 39.9231 -110.701 38.1732C-111.39 38.5236 -112.079 38.8739 -112.768 39.2242C-115.789 37.029 -117.565 38.5748 -121.595 39.2279C-121.304 38.9471 -121.013 38.6664 -120.723 38.3856C-120.805 38.2685 -124.361 37.8195 -123.09 39.0155C-126.735 37.4397 -126.582 40.0609 -129.85 38.1659C-131.791 37.9229 -130.624 39.0235 -134.1 39.0045C-136.159 38.994 -138.716 38.4185 -141.017 38.3783C-141.547 38.3709 -141.778 39.0082 -142.249 39.0082C-142.721 39.0079 -142.951 38.3831 -143.522 38.3673C-144.702 38.3335 -146.232 38.7721 -146.97 38.7299C-147.631 38.6938 -148.576 38.1427 -150.169 38.0561C-155.732 37.7497 -154.052 38.5367 -154.93 38.8031C-155.874 39.0863 -156.553 38.0493 -158.435 38.1696C-158.624 38.1823 -158.135 38.8285 -158.749 38.8031C-159.244 38.7832 -159.493 38.0808 -161.132 37.9499C-161.785 37.897 -171.92 37.7466 -173.464 37.7338C-175.83 37.7148 -181.101 38.3093 -183.55 38.3051C-184.494 38.305 -185.502 37.741 -186.505 37.7448C-189.827 37.7575 -195.146 37.8052 -199.359 37.8327C-203.153 37.8582 -209.814 39.103 -211.891 37.9792C-217.219 37.8334 -218.513 38.7937 -218.914 38.8068C-220 38.8427 -220.503 38.2065 -221.872 38.1769C-239.604 37.8071 -262.954 38.2276 -279.748 38.1769C-318.706 38.0543 -357.876 37.7067 -396.969 37.9645C-397.074 37.6826 -397.179 37.4006 -397.284 37.1186C-392.663 36.9368 -387.233 36.447 -382.672 36.3349C-376.582 36.1871 -367.548 37.3614 -363.081 35.4341C-364.893 35.2651 -367.844 36.0041 -367.791 35.013C-364.553 34.9422 -361.315 34.8714 -358.076 34.8006C-358.173 35.2583 -358.27 35.7161 -358.366 36.1738C-354.985 36.307 -351.527 36.2072 -348.134 36.2727C-347.544 36.2835 -347.962 36.699 -347.448 36.7011C-346.874 36.7027 -347.263 36.2797 -347.156 36.2764C-345.705 36.2721 -345.266 36.7 -345.089 36.6938C-344.635 36.6769 -344.988 36.2696 -343.678 36.1555C-341.248 35.9423 -339.508 37.0243 -340.079 35.2217C-339.294 35.2217 -338.51 35.2217 -337.725 35.2217C-337.522 35.7124 -337.319 36.2031 -337.116 36.6938C-332.29 34.7127 -330.065 38.1879 -327.398 35.4304C-326.519 35.8516 -325.639 36.2727 -324.76 36.6938C-324.264 36.2031 -323.769 35.7124 -323.273 35.2217C-323.176 35.6428 -323.08 36.064 -322.983 36.4851C-318.245 36.1746 -313.2 36.6801 -308.669 36.6316C-305.512 36.5978 -304.756 36.4315 -301.96 36.4631C-295.741 36.535 -301.917 35.6993 -296.749 34.7969C-297.018 35.3132 -297.287 35.8296 -297.556 36.3459C-296.7 36.5351 -295.845 36.7243 -294.989 36.9135C-294.393 36.4924 -293.797 36.0713 -293.201 35.6501C-290.558 37.8345 -288.846 36.0713 -288.486 36.0713C-288.195 36.0751 -287.196 37.3901 -284.068 36.2763C-285.366 38.0742 -281.682 36.2869 -281.387 36.2763C-281.107 36.2691 -277.52 36.6704 -276.065 36.6535C-274.92 36.6407 -272.478 36.2537 -270.773 36.2727C-269.267 36.2895 -269.42 36.8999 -269.31 36.9062C-267.457 36.9569 -268.618 36.4827 -267.279 36.4594C-265.939 36.4362 -264.9 36.9564 -264.611 36.9099C-264.465 36.8851 -264.952 36.3166 -264.286 36.2617C-262.498 36.1119 -259.264 36.6097 -257.217 36.5949C-256.491 36.5904 -255.577 36.108 -254.768 36.0932C-253.53 36.0722 -252.951 36.7128 -252.231 36.6938C-251.98 36.6855 -250.382 35.6959 -248.396 35.8479C-248.018 35.8784 -246.907 37.9724 -245.432 35.0056C-245.319 35.4231 -245.205 35.8406 -245.091 36.258C-238.429 37.2916 -236.575 33.9001 -233.613 36.9099C-228.776 36.5737 -232.096 35.4013 -231.565 35.2217C-231.222 35.1082 -229.645 35.4305 -229.472 35.4121C-229.165 35.3762 -229.218 34.9999 -228.881 35.002C-222.715 35.0717 -225.453 35.7822 -223.5 36.2324C-218.856 37.3039 -215.232 34.925 -223.31 35.6392C-223.31 35.4292 -223.31 35.2192 -223.31 35.0093C-221.321 35.21 -216.272 35.1147 -217.958 34.0498C-219.286 33.2108 -231.264 33.7584 -224.48 32.5814C-222.94 32.3151 -222.142 33.103 -219.475 31.6256C-217.711 31.5455 -217.457 33.4594 -215.068 32.6912C-215.461 33.359 -215.854 34.0267 -216.246 34.6944C-212.989 35.5647 -208.971 34.3972 -206.469 34.7713C-205.619 34.8987 -202.556 38.0821 -203.27 34.8994C-201.841 35.0979 -195.109 34.5116 -193.858 34.7969C-193.558 34.8658 -193.166 36.5603 -188.813 35.9687C-188.51 35.7563 -188.208 35.5439 -187.905 35.3315C-191.887 34.7145 -184.855 34.0868 -186.765 32.4788C-187.414 33.2016 -190.571 33.6424 -191.08 34.0059C-191.947 34.6315 -189.363 35.4378 -192.656 35.218C-194.732 32.5306 -188.797 33.7672 -189.704 31.2155C-185.381 32.4066 -184.949 31.2701 -183.97 31.2228C-179.787 31.0305 -177.154 31.3009 -173.207 31.0031C-172.245 31.5272 -179.391 32.2839 -180.276 32.0577C-177.018 33.9155 -182.625 33.9996 -184.991 32.8963C-185.19 33.4578 -185.388 34.0193 -185.587 34.5808C-182.507 34.2765 -179.502 34.1201 -176.451 34.5808C-176.253 34.3709 -176.054 34.1609 -175.856 33.951C-176.54 33.6348 -177.224 33.3187 -177.909 33.0025C-175.371 32.4848 -176.893 34.1222 -173.513 32.6876C-173.408 33.3199 -173.303 33.9522 -173.199 34.5845C-169.957 34.3745 -166.716 34.1646 -163.475 33.9546C-161.788 35.2226 -155.551 34.7503 -156.693 33.1087C-154.176 32.9928 -157.284 33.8665 -154.925 34.2659C-153.898 34.4392 -151.891 34.4879 -151.396 34.0462C-151.609 32.483 -154.612 32.2889 -155.521 31.2155C-154.969 30.8691 -141.004 31.9852 -142.249 30.1571C-141.134 29.9374 -141.647 30.8791 -139.636 31.1202C-134 31.7924 -125.271 29.931 -120.733 32.2664C-126.062 33.5663 -127.638 32.1896 -131.722 32.1346C-134.33 32.0987 -150.233 31.877 -146.68 33.5298C-147.264 33.3199 -147.848 33.1099 -148.433 32.9C-149.023 33.3919 -149.613 33.8838 -150.204 34.3758C-148.54 34.4466 -146.876 34.5174 -145.212 34.5882C-144.815 34.0974 -144.418 33.6067 -144.021 33.116C-143.837 33.4664 -143.654 33.8167 -143.471 34.167C-142.77 34.2366 -142.07 34.3062 -141.369 34.3758C-141.566 33.9546 -141.763 33.5335 -141.959 33.1124C-140.88 33.0404 -139.8 32.9683 -138.72 32.8963C-139.011 33.459 -139.302 34.0218 -139.592 34.5845C-134.507 34.726 -136.229 34.3736 -133.409 33.3211C-131.303 33.2135 -134.86 34.2951 -130.405 34.5698C-125.225 34.8889 -128.623 33.1694 -121.914 33.5372C-121.818 33.8179 -121.721 34.0987 -121.625 34.3794C-120.149 34.0987 -118.674 33.8179 -117.199 33.5372C-117.394 33.8863 -117.589 34.2354 -117.784 34.5845C-114.739 34.4492 -110.543 35.1155 -109.534 33.7459C-112.62 34.4053 -112.59 32.014 -111.787 31.5743C-110.131 30.6723 -85.6579 31.5115 -80.914 31.5707C-74.8482 31.6467 -70.2636 30.8807 -64.723 32.0577C-68.4777 33.0231 -81.6811 32.2322 -84.1831 32.9C-84.4309 32.9655 -84.3612 35.1577 -85.9544 32.6912C-91.0878 33.1096 -97.2242 32.4107 -103.638 32.4825C-103.442 33.1136 -103.246 33.7447 -103.05 34.3758C-99.1082 33.0336 -95.4596 35.9816 -95.9729 33.5298C-95.1884 33.5298 -94.4038 33.5298 -93.6193 33.5298C-93.6193 33.9522 -93.6193 34.3745 -93.6193 34.7969C-92.4366 34.7969 -91.2539 34.7969 -90.0712 34.7969C-90.0712 34.3745 -90.0712 33.9522 -90.0712 33.5298C-89.0917 33.5298 -88.1121 33.5298 -87.1326 33.5298C-87.0306 33.951 -86.9286 34.3721 -86.8265 34.7932C-83.8933 33.9185 -73.8936 36.2573 -78.2895 33.7422C-76.9119 33.7422 -75.5342 33.7422 -74.1565 33.7422C-74.161 34.0511 -74.1655 34.3599 -74.17 34.6687C-73.5778 34.7102 -72.9855 34.7517 -72.3933 34.7932C-72.5883 34.5137 -72.7833 34.2342 -72.9783 33.9546C-70.2643 34.4555 -67.6914 32.9839 -65.9093 33.951C-67.0848 34.1621 -68.2602 34.3733 -69.4357 34.5845C-67.1812 34.1833 -63.0282 35.0145 -62.6565 35.0166C-61.5236 35.0208 -60.9262 34.3965 -59.6989 34.3648C-58.5909 34.3377 -58.7433 34.8174 -58.5369 34.8005C-52.5603 34.3122 -54.8381 31.715 -52.0475 34.7896C-51.7505 34.3696 -51.4535 33.9497 -51.1564 33.5298C-50.761 33.8802 -50.3656 34.2305 -49.9702 34.5808C-48.2052 34.5479 -46.4402 34.5149 -44.6752 34.4819C-45.2638 35.0068 -45.8524 35.5317 -46.4411 36.0566C-43.7955 36.2909 -42.5615 35.2385 -42.3053 35.2143C-41.5801 35.1531 -41.2485 35.8137 -41.0242 35.8149C-30.243 35.7578 -36.7914 35.1762 -31.4038 32.6949C-29.4828 33.6686 -31.4264 34.6448 -31.6991 35.6355C-29.1447 35.1707 -28.3475 35.4451 -25.6511 35.3901C-24.9496 35.3752 -24.1951 34.8407 -23.7525 34.8335C-23.369 34.8272 -22.1704 35.3951 -21.2499 35.3974C-19.7157 35.4017 -17.6737 35.0631 -15.573 35.0715C-13.8263 35.08 -8.47956 35.4811 -4.75012 35.4853C-3.15858 35.4853 -3.52798 35.0103 -3.11694 35.0093C-2.94578 35.0093 -1.70562 35.5783 -0.684761 35.5805C7.64131 35.5932 16.1742 35.2331 24.5416 35.2436C30.4365 35.25 36.4266 35.7076 42.3333 35.6611C43.5902 35.6505 42.9248 35.2328 43.4736 35.218C43.6622 35.2143 43.8891 35.9432 45.8326 35.6501C46.5348 35.5444 45.7272 35.0346 46.4176 35.0093C46.7537 34.9972 46.8965 35.6362 48.8606 35.7819C52.4304 36.0481 54.3489 35.1963 54.6675 35.2217C55.2685 35.2707 55.0927 35.7996 55.889 35.8186C59.7829 35.9115 63.0338 36.0012 66.5088 36.0456C68.1315 36.0667 79.3201 36.1737 79.9345 36.0786C81.3092 35.8673 80.0297 34.7629 81.7925 34.8005C82.2864 35.0801 82.7801 35.3596 83.2741 35.6391C82.4894 35.8515 81.7049 36.0639 80.9204 36.2763C83.0801 35.9213 85.529 36.4235 87.1281 36.4045C87.4236 36.4002 90.1424 35.8993 91.5294 35.9541C90.9396 35.7465 90.3503 35.539 89.7607 35.3315C89.9691 35.1545 90.1779 34.9775 90.3863 34.8005C93.1597 35.0689 96.0929 35.062 98.9369 35.0239C99.9625 35.011 99.6158 34.581 100.654 34.5662C106.701 34.4755 105.174 36.2634 110.992 32.9073C109.028 33.2115 101.861 32.7846 100.819 32.8963C100.093 32.9745 97.2786 35.8103 98.3113 32.9C92.5047 32.9126 97.5482 34.5179 92.1252 34.167C92.2334 33.8118 92.3419 33.4566 92.4502 33.1014C90.5571 32.8774 89.1586 32.6979 88.0084 33.3247C87.6224 31.6015 81.1902 32.6097 77.6622 32.4935C72.5638 32.3286 66.8039 31.9083 61.7528 31.8343C60.0126 31.8092 59.0271 32.4846 58.8087 32.4825C58.4896 32.4776 57.5931 31.8861 56.9562 31.8819C54.5779 31.8651 47.3426 32.865 45.5428 31.2228C59.6935 31.2228 73.8441 31.2228 87.9948 31.2228C86.2157 32.03 100.529 32.1088 101.255 32.0687C101.927 32.0326 101.362 31.4659 101.561 31.4315C103.048 31.1884 104.318 32.0101 104.79 32.0101C105.15 32.01 105.877 31.6244 107.157 31.6329C107.392 31.6341 107.457 32.0418 107.71 32.043C109.379 32.043 111.028 32.0373 112.704 32.0394C112.806 32.0354 113.229 31.4399 113.652 31.4388C114.076 31.4388 114.495 32.0339 114.602 32.0357C115.942 32.0315 118.238 31.6445 119.513 31.6402C119.955 31.6404 119.649 32.0765 120.144 32.0723C121.666 32.0618 121.165 31.208 123.047 31.4278C123.678 31.5019 123.637 32.1548 124.846 32.0687C125.701 32.0074 125.609 30.8439 125.745 30.8016C125.932 30.7505 128.885 31.6693 129.851 30.9078C127.74 28.8974 132.16 30.8029 131.947 31.6512C133.117 31.4376 134.287 31.224 135.457 31.0104C135.856 31.2252 136.256 31.44 136.655 31.6549C141.375 30.6869 144.255 31.2681 148.899 30.9701C149.124 30.9553 153.037 30.4777 152.854 30.1754C150.512 29.6556 148.175 29.6318 146.676 30.5929C144.209 28.7604 144.167 30.2207 140.184 29.9777C138.85 29.8952 138.755 29.3981 138.602 29.3918C133.415 29.1445 125.109 28.9306 121.615 30.3842C120.635 29.991 124.156 29.8351 122.787 29.5456C122.04 29.387 104.07 28.9228 109.811 30.5966C109.215 30.5502 108.62 30.5038 108.024 30.4574C107.428 28.8764 104.464 29.238 104.801 30.8126C104.52 30.4904 104.239 30.1681 103.958 29.8458C103.404 29.5732 102.747 29.4272 101.827 29.3405C98.302 29.0109 77.3311 29.5593 76.2158 29.3332C76.1906 28.9596 76.1651 28.5861 76.14 28.2126C85.4046 27.7899 94.3921 28.7181 104.495 27.6487C104.201 27.999 103.908 28.3493 103.614 28.6996C107.645 28.2089 111.677 27.7182 115.708 27.2275C111.441 26.5934 104.653 26.061 100.175 26.583C99.3784 26.6761 99.9622 27.1647 99.7792 27.2239C99.3014 27.3776 98.7874 26.5299 97.0708 26.4475C95.3533 26.3652 91.039 26.9661 90.6437 26.9492C89.8815 26.9143 87.8243 25.9445 86.5268 25.9568C84.8214 25.9737 85.9645 26.574 85.6222 26.5867C84.2064 26.6457 82.9368 26.3482 81.8277 26.3926C80.1811 26.4586 76.76 27.5142 75.6091 25.9641C76.7857 25.8933 77.9618 25.8225 79.1382 25.7517C72.7592 25.1959 67.7719 27.1773 61.4874 25.6492C60.0593 23.7724 65.252 24.026 60.8617 23.225C61.6589 23.2518 62.456 23.2787 63.2533 23.3055C63.4401 23.6986 63.627 24.0916 63.8139 24.4847C65.1871 24.2039 66.5602 23.9232 67.9335 23.6424C67.5415 23.9928 67.1499 24.3431 66.758 24.6934C71.6263 24.9576 76.5422 25.3168 78.2417 23.4337C78.3419 23.889 78.4422 24.3443 78.5423 24.7996C83.0623 24.246 89.8474 26.1758 88.5798 23.6424C88.7937 23.7767 89.0078 23.911 89.2217 24.0452C91.9538 23.5274 90.787 24.5751 91.8137 24.6934C92.1068 24.7267 97.4175 24.1858 95.0638 23.4337C100.245 22.8588 98.647 25.2267 100.074 25.3306C103.391 24.1576 109.356 25.9172 106.848 24.0636C107.342 23.994 107.836 23.9244 108.33 23.8548C109.952 25.3132 111.552 23.6631 113.311 23.1114C113.906 23.0785 114.502 23.0455 115.098 23.0126C115.497 23.5033 115.896 23.994 116.295 24.4847C121.901 22.1492 120.126 28.5364 122.687 23.17C122.288 22.849 121.889 22.528 121.49 22.2069C120.544 22.0543 119.598 21.9018 118.652 21.7492C122.468 21.6076 126.284 21.466 130.1 21.3244C134.944 19.8202 137.7 21.4522 143.082 20.2624C143.586 20.4052 144.089 20.548 144.593 20.6909C144.079 19.4756 142.125 19.6541 145.766 19.1089C146.076 18.2496 143.617 18.1384 142.497 18.7976C142.226 18.9584 144.525 19.6166 141.941 19.6399C140.185 19.6564 143.375 18.6238 138.112 19.0063C138.307 18.7964 138.502 18.5864 138.697 18.3765C138.126 18.3826 137.556 18.3887 136.985 18.3948C136.478 18.8806 135.97 19.3664 135.463 19.8523C134.159 19.1506 133.427 18.1672 130.447 18.3765C131.255 18.6808 130.158 19.6564 128.684 19.6399C128.684 19.2883 128.684 18.9368 128.684 18.5852C125.113 18.3591 126.346 19.3905 123.378 18.5852C123.081 18.8647 122.784 19.1443 122.487 19.4238C120.87 18.2719 114.917 17.4883 116.003 19.2151C114.333 17.5369 110.826 18.2941 109.521 19.6362C109.421 19.2871 109.321 18.938 109.221 18.5889C108.527 18.5181 107.832 18.4473 107.138 18.3765C106.751 18.5876 106.363 18.7988 105.976 19.01C105.484 18.7988 104.992 18.5876 104.5 18.3765C104.203 18.7268 103.906 19.0771 103.609 19.4275C102.818 19.0076 102.027 18.5876 101.236 18.1677C100.752 18.4473 100.269 18.7268 99.7847 19.0063C99.7345 18.2756 94.9405 18.1129 93.6013 18.5925C93.2022 18.3801 92.8032 18.1677 92.4041 17.9553C92.2093 18.3032 92.0141 18.6511 91.8191 18.999C91.5221 18.7207 91.2251 18.4424 90.928 18.1641C90.2438 18.4424 89.5594 18.7207 88.8751 18.999C86.084 17.2935 85.994 18.7899 85.3568 18.7793C84.1754 18.7597 80.1521 17.6917 79.4795 17.7466C78.8078 17.802 78.4832 18.4141 77.9411 18.4717C69.0015 19.4333 72.6763 17.7906 70.8829 17.5306C69.9152 17.389 69.2304 17.96 68.3749 17.8968C66.9115 17.7911 59.5289 17.0355 59.1039 17.1094C58.4854 17.2162 59.9416 19.9091 57.9312 19.2151C57.8645 17.7691 53.5655 19.2285 55.5748 17.212C53.8044 17.389 52.034 17.566 50.2636 17.743C50.4642 16.0288 48.2811 17.1313 45.903 17.0362C42.5332 16.9029 34.9464 15.7759 35.2237 17.5342C34.4166 17.1302 33.6094 16.7261 32.8023 16.3221C27.2795 16.8756 21.8627 16.2956 16.3811 16.2745C0.112119 16.209 -17.5381 16.5907 -33.7304 16.9373C-34.5088 16.9544 -34.3969 17.5289 -34.9573 17.5416C-37.9018 17.605 -45.5556 17.1987 -49.6804 17.3255C-51.0017 17.3657 -51.6448 17.926 -52.0638 17.9517C-53.4859 18.0426 -53.1503 17.3044 -53.8053 17.3255C-54.8385 17.3594 -60.3029 18.0446 -62.1852 18.1165C-63.117 18.1521 -64.2197 17.5655 -65.3107 17.7466C-65.4046 17.7613 -65.2313 18.3659 -65.3107 18.3765C-67.2994 18.4505 -66.1033 17.9279 -66.776 17.9554C-71.5732 18.1519 -76.7009 18.1639 -81.9053 18.2886C-83.1976 18.3203 -85.1755 18.7465 -86.2849 18.7866C-86.7081 18.8008 -85.949 18.3421 -87.4116 18.3802C-87.9125 18.3931 -88.0838 18.9896 -88.6493 19.0283C-91.0861 19.191 -91.9016 17.2742 -93.9958 18.8159C-98.038 18.7145 -105.074 18.2223 -108.762 18.2117C-109.635 18.2099 -110.059 18.5622 -110.891 18.5559C-111.481 18.5517 -112.519 18.0059 -113.44 17.9993C-114.36 17.993 -115.813 18.5127 -117.584 18.4937C-119.447 18.4746 -121.765 18.1659 -122.185 18.1678C-122.693 18.1678 -122.929 18.8242 -123.436 18.8159C-124.971 18.7948 -129.078 18.1496 -131.055 18.0799C-133.179 18.006 -134.454 18.3242 -135.18 18.3179C-135.852 18.3091 -136.636 17.7552 -136.943 17.7503C-137.421 17.7418 -137.534 18.3892 -138.141 18.3838C-139.132 18.3733 -140.154 17.9662 -141.64 17.9554C-168.407 17.7546 -194.65 18.1102 -220.691 18.5816C-223.594 18.6344 -225.234 18.1804 -229.512 18.3875C-231.247 18.472 -230.516 19.14 -231.866 19.0137C-232.468 18.9566 -232.316 18.4312 -233.077 18.4058C-236.44 18.2959 -240.359 18.7841 -241.817 18.7757C-242.395 18.7732 -243.056 18.1764 -244.241 18.1678C-253.074 18.1001 -263.525 18.2677 -273.031 18.1641C-278.065 18.1092 -285.685 17.8051 -291.462 17.765C-307.424 17.653 -324.595 17.7912 -339.152 17.732C-361.134 17.6453 -383.009 17.0936 -404.943 17.7467C-394.681 16.3031 -380.708 16.4236 -369.284 16.2672C-336.286 15.8191 -301.151 16.6578 -267.333 16.6261C-255.567 16.6155 -240.731 16.6487 -227.849 16.3148C-227.265 16.3 -226.054 16.7589 -224.792 16.7103C-224.523 16.699 -221.197 15.8618 -220.076 15.8534C-221.138 17.3413 -216.748 16.0152 -215.391 16.0511C-213.679 16.0979 -210.109 16.8415 -206.103 16.421C-202.468 16.0406 -203.471 15.4682 -203.27 15.4323C-201.985 15.2003 -201.536 16.1227 -200.551 16.2159C-196.527 16.5879 -175.826 16.052 -170.049 16.0182C-168.556 16.0097 -168.513 15.4234 -168.177 15.4213C-167.286 15.4174 -166.018 15.9965 -164.591 15.9925C-162.018 15.9841 -159.055 15.4307 -157.639 15.4286C-154.251 15.4223 -147.824 16.0751 -143.422 16.0877C-142.184 16.0916 -142.26 15.4814 -141.699 15.4835C-139.232 15.4942 -132.807 16.2132 -129.744 16.2196C-124.77 16.2301 -119.653 15.8357 -114.596 16.0365C-114.276 15.7643 -113.955 15.4921 -113.635 15.2199C-113.129 15.5055 -112.623 15.7911 -112.118 16.0768C-103.568 15.8591 -94.8638 16.4721 -86.3607 16.432C-85.3809 16.4277 -80.5312 15.9068 -79.7223 15.9046C-79.0496 15.9046 -78.3876 16.5789 -77.3904 16.4796C-75.9934 16.3417 -77.3079 15.0577 -75.0259 15.4249C-74.4123 15.5242 -75.0072 16.0739 -73.7746 16.2452C-73.3674 16.3023 -65.4648 16.5249 -65.0399 16.4869C-64.332 16.4228 -63.7006 15.2452 -63.5177 15.2198C-62.5679 15.0869 -62.6085 15.9907 -61.9712 16.0731C-60.0911 16.3198 -57.6346 15.7119 -57.329 15.7252C-53.635 15.8922 -46.7294 16.6136 -42.8524 16.1866C-42.3162 16.1271 -42.3805 15.4541 -42.2863 15.4322C-41.6788 15.2928 -41.3013 16.059 -40.7236 16.0768C-37.6137 16.1634 -32.7438 15.6475 -29.6163 15.5165C-29.2561 15.5022 -28.4958 15.8708 -27.8531 15.8351C-24.218 15.6279 -25.3972 15.0365 -25.1907 15.0111C-24.7009 14.9483 -23.8396 15.6006 -22.5364 15.641C-19.1789 15.7488 -12.74 15.6551 -9.1405 15.6044C-6.44376 15.5642 -6.48454 14.8172 -6.30747 14.8024C-5.92938 14.7755 -4.87866 15.372 -3.1034 15.4396C0.312619 15.5726 -0.0764933 14.9858 1.3276 15.0111C1.44565 15.0111 1.24041 15.5855 2.79828 15.6446C5.80822 15.7586 12.5689 15.194 15.7906 15.2235C17.0299 15.2341 17.3197 15.7879 18.5885 15.7984C20.5999 15.8174 25.1398 15.2183 25.4977 15.2198C25.598 15.2198 25.823 15.857 26.4131 15.857C27.0621 15.8569 27.7007 15.529 28.1844 15.5311C30.9399 15.5399 35.687 16.6519 34.3678 14.3776C35.2508 14.9391 36.1337 15.5006 37.0167 16.0621C42.7878 15.9501 48.3943 16.175 54.1123 16.2891C55.3983 16.3144 56.472 15.8837 57.5574 15.9046C58.6426 15.9258 63.4308 16.6383 64.231 16.6517C65.6591 16.6749 73.7738 16.75 74.7831 16.6993C76.754 16.6021 78.666 15.6622 79.4687 15.846C80.1118 15.994 79.517 16.5236 80.7443 16.6736C82.8688 16.9332 86.4791 16.2529 87.1281 16.2635C87.4052 16.2678 86.8865 16.6806 89.4817 16.7103C90.8802 16.7272 91.6313 16.2724 92.1387 16.2745C92.2964 16.2769 92.0599 17.0144 94.8282 16.9153C96.7401 16.8456 97.5554 16.2766 97.756 16.2745C98.0571 16.2707 98.784 16.8779 99.9931 16.8567C102.82 16.8038 107.988 16.1077 110.673 16.0548C111.192 16.0442 111.015 16.7777 113.086 16.7103C114.567 16.6617 114.308 16.0781 114.862 16.0548C115.742 16.0188 117.052 16.7334 118.993 16.7103C121.436 16.6807 139.576 15.9395 140.514 15.7472C141.145 15.6182 141.878 15.6101 142.191 15.2931C141.923 14.9891 141.654 14.6852 141.386 14.3812C138.608 15.4478 139.729 14.2288 138.992 14.1505C137.924 14.0385 133.899 14.194 132.925 13.9235C132.578 13.8258 133.372 13.177 131.509 12.8432C129.509 12.4863 128.619 13.6414 127.822 12.0632C124.984 13.8153 122.258 11.9557 125.545 11.459C127.379 11.182 145.378 10.5564 149.054 10.4592C152.034 10.3811 157.615 10.8507 161.28 10.7302C163.434 10.6584 168.738 10.5769 168.514 9.73782C170.426 9.63214 168.402 10.4675 168.804 10.5837C169.643 10.8265 175.61 10.2496 176.739 10.2725C182.31 10.3824 189.339 11.3204 194.75 10.2615C194.499 10.0369 194.247 9.81228 193.995 9.58767C192.779 9.17553 187.138 9.76474 186.501 8.68682C194.75 8.68682 203 8.68682 211.25 8.68682C211.097 9.60411 221.329 9.59179 221.813 9.17753C221.634 8.73321 221.454 8.28888 221.274 7.84456C215.492 9.53081 216.011 7.30186 212.128 8.48541C210.547 8.5021 211.024 7.76798 210.245 7.6285C202.493 6.2424 210.121 9.13498 204.187 8.47809C205.973 7.41324 201.113 7.0241 198.935 6.88878C198.439 6.85919 191.929 7.12907 191.156 7.11216C186.813 7.01705 179.355 6.43369 175.041 7.01695C171.643 7.0867 169.771 6.32821 166.686 6.15272C164.343 6.01959 165.015 6.55266 163.912 6.5592C161.599 6.574 160.838 4.95107 159.357 7.2147C157.788 6.93273 156.22 6.65076 154.652 6.36878C154.652 6.72033 154.652 7.07188 154.652 7.42344C153.667 7.42344 152.682 7.42344 151.697 7.42344C151.407 7.07311 151.118 6.72277 150.828 6.37244C147.702 6.85226 149.007 7.69878 148.423 8.69415C147.747 8.76251 147.072 8.83086 146.397 8.89922C145.874 8.13509 145.351 7.37095 144.829 6.60681C141.813 6.66907 138.798 6.73132 135.782 6.79357C135.588 7.14391 135.392 7.49424 135.197 7.84457C135.191 7.49424 135.185 7.14391 135.178 6.79357C130.072 6.72156 124.966 6.64954 119.86 6.57752C118.501 6.01551 126.683 5.58963 127.302 5.55582C130.749 5.36989 139.901 5.93333 139.913 4.68426C142.055 5.61623 148.505 5.38483 150.511 4.2668C147.466 4.33393 144.421 4.40107 141.375 4.46821C141.474 4.04952 141.572 3.63083 141.671 3.21214C137.876 4.9008 137.321 4.80786 133.421 3.21214C133.417 3.77365 133.414 4.33515 133.41 4.89666C130.69 2.94417 125.883 6.25621 125.745 3.84567C124.297 4.04097 122.849 4.23628 121.401 4.43159C118.274 4.13774 123.129 2.28386 110.887 3.01073C110.043 3.06146 110.219 3.67551 108.95 3.63327C108.584 3.62059 106.489 2.72731 102.482 2.82031C101.857 2.83517 101.81 3.36789 101.161 3.43553C99.6619 3.59613 96.677 2.54253 98.0323 4.25948C92.0969 4.76022 94.5566 3.35109 92.7156 2.79102C91.4887 2.41932 91.7355 3.43518 90.6735 3.20482C89.3593 2.91914 90.3238 1.89504 85.0616 2.36622C85.6519 2.4358 86.2425 2.50538 86.8329 2.57496C86.536 2.85327 86.2388 3.13158 85.9418 3.40989C82.9385 2.7421 83.2223 3.71783 81.806 2.15383C79.6228 2.8513 77.7336 2.90684 74.7479 2.78003C68.9474 2.53275 71.921 0.847223 65.3008 3.11694C64.2283 2.79834 63.1557 2.47975 62.0833 2.16115C60.3201 2.8311 61.7461 3.66929 59.1148 3.83835C61.1742 2.18342 55.6221 2.78685 54.6838 1.31157C54.5854 1.66312 54.487 2.01468 54.3886 2.36623C53.8008 2.36623 53.2131 2.36623 52.6254 2.36623C52.6236 2.08425 52.6218 1.80228 52.6199 1.52031C51.8372 1.73148 51.0545 1.94266 50.2717 2.15383C49.6831 1.8743 49.0945 1.59477 48.5058 1.31523C47.538 1.90482 46.5702 2.4944 45.6024 3.08398C44.9948 3.12426 44.3872 3.16454 43.7796 3.20483C43.9719 2.78492 44.1642 2.36501 44.3565 1.9451C43.5756 2.08548 42.7946 2.22585 42.0137 2.36623C42.9225 1.6772 42.3513 0.869309 39.9201 0.890444C37.9139 0.907395 40.1737 2.34548 35.8601 1.74735C35.5592 1.70471 35.0266 0.679071 30.9498 0.520583C26.0604 0.330546 28.4355 1.07344 27.5642 1.09918C27.3931 1.10341 25.8995 0.587243 24.501 0.51326C23.7073 0.471143 22.9429 0.887871 22.838 0.886783C22.3482 0.867765 22.2056 0.278216 21.5271 0.25692C19.8045 0.206207 17.4918 0.495075 15.8042 0.465654C15.0371 0.452973 14.3155 0.103682 13.9733 0.0994549C13.4422 0.0954174 12.7686 0.628896 12.2318 0.626783C10.2492 0.615622 7.24 -1.1544 6.31925 1.30425C4.41341 -0.956583 0.420579 1.77683 0.712789 0.260584C-4.38027 0.832825 -17.9649 -1.02731 -17.5664 1.52031C-20.451 -0.658043 -20.1933 0.919506 -21.4016 0.886787C-22.7529 0.850858 -22.0529 0.428326 -23.1269 0.447348C-25.6344 0.491761 -28.0306 0.673262 -30.5263 0.681716C-30.1345 1.03083 -29.7427 1.37994 -29.3508 1.72905C-31.9708 1.84106 -31.0687 1.02862 -33.7412 0.87214C-38.6565 0.586816 -36.5853 1.23504 -37.3109 2.15018C-37.1162 1.26671 -42.9123 1.40407 -43.5024 1.52031C-43.8542 1.59117 -42.3121 2.72986 -45.8615 2.36257C-45.6674 2.01224 -45.4733 1.66191 -45.2791 1.31158C-46.8962 1.79074 -51.2885 1.18274 -52.034 1.3006C-52.3762 1.35555 -54.2068 4.18083 -55.8827 1.94511C-56.0849 2.29544 -56.2871 2.64577 -56.4894 2.9961C-58.3501 2.57497 -60.2107 2.15384 -62.0714 1.73271C-62.3685 2.3638 -62.6655 2.99488 -62.9625 3.62596C-63.553 3.62596 -64.1434 3.62596 -64.7338 3.62596C-64.342 3.06568 -63.9502 2.50539 -63.5584 1.94511C-67.2043 2.19867 -71.6583 1.31517 -72.4095 3.20484C-73.1905 2.8545 -73.9714 2.50417 -74.7523 2.15384C-75.2606 2.78249 -75.7689 3.41113 -76.2772 4.03977C-79.8932 3.88122 -79.9531 3.46096 -82.4253 2.79103C-82.3287 3.28174 -82.2321 3.77245 -82.1355 4.26315C-83.9589 3.57415 -87.2879 2.93262 -89.9196 2.84596C-91.1707 2.80599 -93.3188 3.48218 -93.6139 3.4209C-93.9121 3.35628 -96.8462 0.699574 -97.1646 2.99977C-101.484 1.98103 -103.386 3.02147 -105.138 2.9961C-106.277 2.97903 -106.796 2.42696 -108.082 2.3699C-109.923 2.28749 -111.776 2.5544 -112.838 2.51638C-113.446 2.49314 -113.56 1.9547 -113.979 1.93779C-115.96 1.85564 -114.799 2.40583 -116.887 2.3699C-117.08 2.36369 -118.607 1.7069 -120.327 1.79131C-121.289 1.83799 -123.778 2.57677 -123.997 2.57498C-124.971 2.5623 -124.193 1.08538 -127.521 2.79104C-127.424 2.51028 -127.328 2.22953 -127.231 1.94878C-131.35 1.2365 -132 2.48832 -132.832 2.57498C-132.938 2.5821 -133.941 2.0982 -134.541 2.16483C-135.555 2.27881 -135.963 2.94129 -136.188 2.97047C-136.979 3.07193 -139.642 2.78049 -141.383 3.4209C-141.017 1.53559 -147.116 0.865066 -148.468 2.99977C-149.548 2.57864 -150.627 2.15751 -151.707 1.73638C-152.195 2.08793 -152.684 2.43949 -153.172 2.79104C-153.469 2.44071 -153.766 2.09038 -154.063 1.74004C-155.637 2.51151 -157.211 3.28297 -158.784 4.05443C-158.885 3.28175 -158.985 2.50906 -159.085 1.73638C-159.525 1.82427 -159.966 1.91216 -160.407 2.00005C-160.751 2.61404 -161.095 3.22804 -161.439 3.84203C-161.989 3.72485 -162.54 3.60766 -163.091 3.49048C-163.227 3.04616 -163.363 2.60184 -163.5 2.15751C-166.46 1.64532 -164.939 5.88316 -170.579 2.15751C-171.457 2.50784 -172.335 2.85818 -173.212 3.20851C-174.203 1.50346 -176.061 2.53591 -177.559 2.34428C-178.615 2.20903 -178.558 1.53171 -179.997 1.51666C-181.437 1.50187 -181.385 2.14963 -181.497 2.15385C-182.671 2.1937 -183.556 1.62257 -184.417 1.73638C-184.547 1.75329 -184.872 2.52252 -185.969 2.57132C-187.066 2.61993 -187.728 1.80181 -189.362 1.95611C-190.2 2.03432 -190.442 2.68243 -191.185 2.73977C-194.726 3.01876 -198.291 -0.263168 -200.946 3.62964C-201.545 3.13644 -205.886 1.41004 -207.745 1.50934C-210.634 1.66789 -209.521 2.43149 -210.67 2.57132C-210.835 2.59245 -211.715 2.33452 -214.139 2.3809C-214.573 2.3893 -214.472 1.95816 -214.535 1.95245C-217.361 1.9609 -222.849 2.30125 -225.953 2.36259C-226.231 2.36893 -227.683 1.16718 -230.143 2.78372C-233.79 1.58966 -240.658 4.15507 -245.468 2.35527C-246.134 2.31723 -246.944 2.7471 -247.239 2.73245C-249.782 2.5993 -248.85 1.2942 -254.598 3.20485C-254.133 2.53929 -255.477 1.93844 -257.377 1.98907C-260.233 2.06516 -258.204 3.3063 -260.5 3.20485C-260.5 2.85452 -260.5 2.50419 -260.5 2.15386C-265.78 3.09618 -266.831 1.59837 -272.13 1.58991C-274.036 1.58781 -276.851 2.36414 -277.305 2.36626C-277.481 2.36399 -279.566 1.51936 -279.765 1.51301C-280.886 1.48765 -281.519 1.8771 -282.487 1.87921C-285.685 1.88747 -289.501 0.788695 -288.811 2.78373C-289.69 2.3626 -290.569 1.94147 -291.449 1.52034C-294.771 3.65081 -297.255 0.71454 -297.952 2.78373C-298.546 2.35649 -299.14 1.92926 -299.734 1.50203C-313.983 1.71809 -328.232 1.93415 -342.481 2.1502C-343.048 1.48443 -349.261 1.72072 -349.58 1.82429C-351.043 2.29357 -349.498 3.74541 -352.483 3.41359C-352.814 2.77763 -353.144 2.14166 -353.475 1.50569C-357.227 1.29859 -355.422 1.93144 -356.904 2.3626C-357.522 2.28417 -357.323 1.79063 -358.16 1.75471C-362.704 1.55817 -372.021 1.53486 -376.989 1.49471C-377.991 1.48627 -377.84 1.94762 -378.151 1.9488C-379.007 1.94457 -380.695 1.36318 -382.412 1.36288C-393.027 1.36711 -408.069 1.69496 -418.756 2.18317C-419.482 2.21699 -419.572 2.76725 -420.062 2.79472C-420.74 2.83048 -422.257 2.38569 -422.97 2.43219C-423.643 2.47447 -424.074 2.89241 -424.793 2.9412C-428.086 3.16947 -432.513 2.46336 -436.036 3.69558C-436.332 3.79952 -440.023 6.01479 -440.107 6.1601C-440.596 7.02244 -437.316 8.3772 -442.704 9.639C-437.889 10.7402 -439.393 12.6868 -445.648 13.6379C-442.511 13.8833 -439.374 14.1286 -436.236 14.374C-436.232 14.6047 -436.227 14.8354 -436.223 15.0661C-439.079 16.2094 -441.912 16.59 -446.255 16.6957C-446.119 16.9093 -445.984 17.1229 -445.849 17.3365C-442.013 18.4038 -437.386 18.6011 -434.465 20.0574C-438.749 21.1352 -443.033 22.2131 -447.317 23.2909C-447.103 23.4594 -446.889 23.6278 -446.675 23.7963C-444.621 24.2338 -440.136 24.4906 -438.43 24.8985C-431.917 26.454 -444.131 26.0625 -442.124 27.0115C-435.248 26.9773 -428.371 26.9432 -421.494 26.909C-421.253 27.6078 -447.708 29.538 -447.436 31.6476C-445.274 31.7892 -443.113 31.9308 -440.952 32.0724C-441.915 32.6083 -442.878 33.1441 -443.842 33.68C-443.576 33.8497 -443.311 34.0194 -443.045 34.189C-439.399 34.6053 -435.752 35.0215 -432.106 35.4378C-443.192 35.0194 -448.344 35.3231 -451 39.5429C-450.699 39.6503 -450.399 39.7577 -450.098 39.8651C-447.696 37.2253 -436.36 38.0791 -430.335 38.6054C-431.563 39.3787 -436.868 38.7813 -437.989 39.2462C-438.306 39.3795 -437.199 39.9163 -437.935 40.191C-439.858 40.9054 -448.055 41.8245 -446.864 42.6995C-446.097 43.2617 -432.907 44.0331 -430.335 43.9739C-436.365 44.9841 -442.579 45.2764 -448.627 46.5043C-444.81 48.2163 -441.428 50.3113 -434.46 50.4043C-432.335 51.3026 -447.088 52.547 -447.43 53.0373C-444.877 53.5634 -442.324 54.0895 -439.771 54.6156C-441.93 54.4753 -444.09 54.3349 -446.249 54.1945C-446.256 54.3703 -446.262 54.5461 -446.268 54.7218C-440.674 55.5377 -435.556 57.0351 -429.154 56.9337C-429.36 57.8637 -433.191 57.7712 -435.05 57.7796ZM177.625 4.88567C177.754 4.11458 175.407 4.241 174.085 4.25581C174.284 4.11543 174.482 3.97505 174.681 3.83468C171.86 3.98051 166.61 4.27643 166.415 2.78002C164.403 2.59404 165.292 3.89533 164.644 4.04341C164.39 4.10259 161.763 3.34528 159.663 4.26679C159.163 4.26313 158.664 4.25947 158.165 4.25581C158.068 3.7651 157.972 3.27439 157.875 2.78369C157.179 3.37937 156.483 3.97506 155.787 4.57074C163.063 4.67572 170.338 4.78069 177.614 4.88567C177.618 4.88567 177.621 4.88567 177.625 4.88567ZM105.101 4.25215C102.452 4.52903 98.3934 4.96621 99.2131 3.62229C100.887 3.69309 102.561 3.76389 104.235 3.83468C104.523 3.97384 104.812 4.113 105.101 4.25215ZM-158.475 5.31049C-160.688 6.63359 -162.726 5.48913 -166.148 5.72796C-166.144 5.44843 -166.139 5.1689 -166.135 4.88936C-164.735 5.56058 -161.036 5.11399 -158.475 5.31049ZM243.37 9.94288C243.857 9.83913 244.345 9.73537 244.832 9.63161C242.849 8.12886 242.495 9.18787 240.252 9.04203C240.117 9.03291 240.164 8.68893 240.117 8.68682C239.568 8.66361 239.06 9.07767 238.565 9.07133C237.609 9.05863 236.83 8.63907 235.136 8.65386C233.826 8.66669 233.814 9.32627 233.354 9.30936C232.962 9.29305 229.076 7.47855 226.575 8.26203C221.818 9.75421 241.918 10.0824 243.37 9.94288ZM257.467 8.70146C256.997 8.69536 256.526 8.68926 256.056 8.68315C257.47 9.69699 254.616 9.54291 252.521 9.52175C252.586 10.494 257.017 10.0781 259 10.3677C258.489 9.81227 257.978 9.25687 257.467 8.70146ZM197.984 10.7851C199.825 10.8842 199.518 9.67075 199.441 9.30936C198.856 9.30936 198.27 9.30936 197.684 9.30936C197.784 9.80129 197.884 10.2932 197.984 10.7851ZM211.827 11.2063C211.255 10.382 207.259 10.0215 205.365 9.95387C205.282 9.95374 205.802 10.4061 204.463 10.364C204.061 10.3508 200.104 8.70475 200.974 10.5727C204.59 10.7839 208.206 10.9951 211.822 11.2063C211.824 11.2063 211.825 11.2063 211.827 11.2063ZM215.863 10.7192C215.11 10.4604 214.357 10.2017 213.604 9.94289C213.215 10.3298 212.826 10.7168 212.437 11.1037C213.293 11.2014 214.15 11.299 215.007 11.3967C215.292 11.1709 215.578 10.9451 215.863 10.7192ZM-350.631 11.8179C-350.456 11.4041 -350.281 10.9903 -350.105 10.5765C-349.427 10.3228 -346.128 12.1246 -347.172 12.4734C-348.325 12.2549 -349.478 12.0364 -350.631 11.8179ZM-364.563 12.6858C-365.249 12.8945 -365.935 13.1032 -366.621 13.312C-367.41 12.6101 -368.2 11.9082 -368.989 11.2063C-365.561 10.733 -361.914 10.1876 -362.502 12.2573C-361.717 12.2573 -360.933 12.2573 -360.148 12.2573C-360.809 11.4015 -360.72 11.1196 -358.667 10.5765C-358.218 11.7673 -356.095 11.1606 -353.664 11.4224C-355.432 11.492 -357.2 11.5615 -358.967 11.6311C-358.967 11.8411 -358.967 12.051 -358.967 12.261C-355.027 12.1851 -359.924 13.5169 -362.491 12.6821C-362.693 12.9616 -362.896 13.2412 -363.098 13.5207C-363.586 13.2424 -364.075 12.9641 -364.563 12.6858ZM-79.7629 12.261C-80.2514 12.4721 -80.7398 12.6833 -81.2282 12.8945C-83.121 10.144 -79.2673 12.7531 -76.5237 10.5764C-77.43 12.23 -73.2475 12.1609 -73.0081 12.2719C-73.4893 12.8286 -73.9705 13.3852 -74.4517 13.9418C-76.2221 13.3815 -77.9925 12.8212 -79.7629 12.261ZM-93.6085 14.1579C-91.9149 12.7862 -100.234 12.7021 -103.026 13.0043C-103.704 13.0787 -104.914 13.8318 -105.404 13.7367C-105.701 13.4584 -105.998 13.1801 -106.295 12.9018C-106.647 13.8637 -112.097 12.7823 -114.244 12.2646C-114.446 12.615 -114.648 12.9653 -114.851 13.3156C-115.634 13.1765 -116.416 13.0373 -117.199 12.8981C-117.101 13.2473 -117.002 13.5964 -116.904 13.9455C-117.496 13.5256 -118.088 13.1057 -118.68 12.6858C-121.005 12.2187 -119.572 14.1219 -121.318 13.528C-123.26 12.8686 -120.079 11.7352 -120.138 10.9976C-118.562 11.1878 -114.979 11.6136 -113.38 11.6348C-112.462 11.6461 -113.503 10.3246 -109.545 11.8435C-108.677 11.4895 -107.81 11.1355 -106.942 10.7815C-105.35 11.3442 -103.757 11.907 -102.164 12.4697C-101.867 11.9802 -101.57 11.4907 -101.273 11.0012C-101.103 10.9246 -97.4202 12.0361 -97.6169 12.4038C-96.125 11.4681 -93.062 11.3013 -89.8356 11.2539C-89.525 11.52 -89.2145 11.7861 -88.9039 12.0522C-92.0245 11.4775 -89.8969 12.3338 -90.8269 12.8432C-91.3639 13.137 -93.0065 13.714 -93.6085 14.1579ZM-328.89 12.8908C-334.13 11.6967 -330.886 12.682 -336.55 12.6821C-336.154 12.0498 -335.759 11.4175 -335.363 10.7852C-332.579 11.9405 -327.997 11.1722 -328.885 12.8908C-328.887 12.8908 -328.888 12.8908 -328.89 12.8908ZM-384.313 10.7889C-381.316 11.1714 -382.82 12.1547 -379.021 12.4697C-379.019 12.4697 -379.017 12.4697 -379.015 12.4697C-380.98 12.5405 -382.944 12.6113 -384.909 12.6821C-384.71 12.051 -384.512 11.4199 -384.313 10.7889ZM-209.102 11.5542C-206.228 11.2795 -206.793 11.7714 -204.186 10.7888C-200.303 11.9808 -203.59 11.8124 -203.59 12.8945C-204.477 12.5771 -205.365 12.2597 -206.252 11.9424C-208.404 12.9543 -206.363 13.4638 -206.363 13.561C-206.365 13.561 -206.367 13.561 -206.369 13.561C-206.369 13.8858 -206.299 13.9542 -207.124 14.1506C-207.783 13.2851 -208.442 12.4197 -209.102 11.5542ZM-196.803 12.8908C-197.788 12.1722 -198.231 11.2496 -195.641 10.7888C-195.639 10.7888 -195.637 10.7888 -195.635 10.7888C-195.427 12.3949 -192.944 11.0986 -191.811 11.2063C-191.514 11.3809 -191.217 11.5554 -190.92 11.73C-192.881 12.1169 -194.842 12.5039 -196.803 12.8908ZM-153.468 14.3666C-153.457 12.5924 -155.631 12.4237 -152.571 10.7888C-151.977 10.8206 -151.383 10.8523 -150.789 10.8841C-150.399 11.2734 -150.009 11.6628 -149.619 12.0522C-142.083 8.8418 -139.837 14.3084 -152.571 12.2646C-152.573 12.2634 -152.575 12.2622 -152.577 12.261C-152.873 12.9628 -153.171 13.6647 -153.468 14.3666ZM-166.739 14.2165C-166.835 13.2851 -166.93 12.3537 -167.026 11.4224C-168.69 13.6691 -170.84 11.5254 -174.103 13.1105C-174.398 12.8274 -174.694 12.5442 -174.989 12.261C-176.208 12.8842 -188.187 13.0637 -185.592 11.6311C-184.459 11.0055 -181.991 11.8552 -181.779 11.8362C-181.059 11.7659 -180.12 10.9657 -178.905 11.0122C-178.203 11.0402 -176.723 11.9807 -175.289 11.979C-172.085 11.9748 -166.237 9.44971 -162.024 11.8398C-161.72 11.5591 -161.417 11.2783 -161.113 10.9976C-157.987 11.1689 -159.031 12.0585 -156.122 10.9976C-154.112 15.4214 -167.816 10.7794 -164.962 14.3666C-164.964 14.3666 -164.966 14.3666 -164.968 14.3666C-165.558 14.3166 -166.148 14.2665 -166.739 14.2165ZM-252.821 12.8908C-253.01 13.6852 -256.636 12.4595 -255.784 14.363C-256.968 13.7001 -258.151 13.0373 -259.335 12.3745C-259.326 12.1975 -259.317 12.0205 -259.308 11.8435C-258.131 11.9827 -256.955 12.1218 -255.779 12.261C-255.774 11.9802 -255.77 11.6995 -255.765 11.4187C-254.012 12.4344 -246.697 11.9919 -246.919 10.9976C-246.529 11.4175 -246.138 11.8374 -245.747 12.2573C-242.247 11.1139 -239.237 12.3296 -235.425 11.2136C-235.13 11.5615 -234.834 11.9094 -234.539 12.2573C-234.347 11.9766 -234.155 11.6958 -233.962 11.415C-232.574 11.3796 -231.185 11.3442 -229.797 11.3088C-225.272 12.4393 -234.064 13.9028 -235.13 13.7368C-235.271 13.7135 -235.249 12.9867 -236.134 12.8725C-237.707 12.6722 -246.506 13.3958 -249.227 12.9165C-249.25 13.3986 -249.274 13.8808 -249.297 14.363C-250.472 13.8722 -251.647 13.3815 -252.821 12.8908ZM-136.654 12.4697C-136.455 11.979 -136.256 11.4883 -136.058 10.9976C-132.63 11.4877 -130.472 11.0593 -131.351 12.6821C-131.352 12.6821 -131.354 12.6821 -131.356 12.6821C-133.122 12.6113 -134.888 12.5405 -136.654 12.4697ZM118.083 12.0522C117.993 13.0277 116.354 13.3923 114.237 12.6931C114.339 12.4099 114.441 12.1267 114.543 11.8435C115.646 12.6741 117.023 11.2263 120.428 11.4187C120.428 11.9094 120.428 12.4001 120.428 12.8908C119.646 12.6113 118.865 12.3317 118.083 12.0522ZM-139.611 12.6821C-140.656 13.2607 -143.588 11.5053 -141.659 11.4187C-140.184 11.3532 -139.051 12.3714 -139.611 12.6821ZM-396.103 11.7373C-395.328 11.6348 -394.554 11.5322 -393.779 11.4297C-393.375 11.8472 -392.972 12.2646 -392.568 12.6821C-392.57 12.6821 -392.572 12.6821 -392.574 12.6821C-393.75 12.3672 -394.926 12.0522 -396.103 11.7373ZM-218.925 11.4736C-216.298 11.5347 -213.671 11.5957 -211.043 11.6567C-211.017 11.9289 -210.991 12.2012 -210.965 12.4734C-213.597 11.48 -214.655 12.5507 -215.269 12.6162C-215.266 12.6162 -215.263 12.6162 -215.261 12.6162C-217.231 12.8317 -219.108 12.9903 -220.973 13.3156C-220.29 12.7016 -219.608 12.0876 -218.925 11.4736ZM-227.931 13.1911C-227.488 11.2678 -226.91 11.0438 -222.874 12.3965C-223.034 12.6333 -223.194 12.8701 -223.353 13.1069C-225.445 12.9654 -226.665 12.5213 -226.297 13.5244C-226.842 13.4133 -227.386 13.3022 -227.931 13.1911ZM-186.789 12.5759C-187.274 13.1882 -191.118 12.5733 -190.909 12.2646C-190.826 12.142 -185.845 11.3754 -186.789 12.5759ZM147.266 12.477C146.381 12.6174 145.495 12.7577 144.609 12.8981C145.787 13.1069 146.966 13.3156 148.144 13.5243C147.851 13.1752 147.559 12.8261 147.266 12.477ZM156.989 15.2125C157.621 14.9674 155.568 13.2381 159.343 12.7919C156.596 12.7553 153.849 12.7187 151.101 12.6821C152.39 12.9616 153.678 13.2411 154.966 13.5207C154.742 14.0175 154.517 14.5143 154.292 15.0111C155.191 15.0782 156.09 15.1454 156.989 15.2125ZM159.939 13.9455C158.46 15.2598 166.25 15.3585 166.976 15.1979C167.137 15.1597 167.906 14.1633 168.189 13.9491C167.012 13.9479 165.836 13.9467 164.66 13.9455C165.053 13.6317 165.447 13.318 165.841 13.0043C164.464 12.8969 163.087 12.7895 161.71 12.6821C162.299 12.997 162.888 13.3119 163.476 13.6269C162.297 13.7331 161.118 13.8393 159.939 13.9455ZM128.684 13.6269C129.669 13.5939 130.654 13.5609 131.639 13.528C131.442 14.0187 131.245 14.5094 131.048 15.0001C130.459 15.0001 129.869 15.0001 129.279 15.0001C129.081 14.5424 128.882 14.0846 128.684 13.6269ZM148.753 14.2604C147.319 11.8977 143.411 17.0629 147.978 15.1503C148.439 14.9558 148.889 14.4887 148.753 14.2604ZM169.895 14.9159C172.958 16.6384 172.267 12.8353 169.375 13.9491C169.23 14.0084 169.665 14.7887 169.895 14.9159ZM192.857 14.9708C193.105 14.958 193.539 13.7266 195.907 14.8976C196.298 14.7572 196.689 14.6168 197.08 14.4764C196.165 13.9043 188.339 13.5639 189.42 14.784C190.618 14.8031 191.618 15.0089 192.857 14.9708ZM185.279 19.5263C184.105 19.4922 182.93 19.458 181.755 19.4238C182.143 19.0381 182.53 18.6523 182.917 18.2666C182.34 18.1616 181.762 18.0567 181.184 17.9517C180.196 18.6169 179.209 19.2822 178.221 19.9475C180.774 20.0537 183.327 20.1599 185.88 20.2661C185.68 20.0195 185.48 19.7729 185.279 19.5263ZM154.051 20.4785C156.311 19.9944 159.08 20.5096 162.75 20.4272C162.752 20.426 162.754 20.4247 162.756 20.4235C162.939 20.4179 163.263 19.888 163.853 19.8669C164.355 19.85 174.268 20.4319 173.495 19.5337C169.659 18.7285 168.226 19.9526 167.306 17.9553C167.119 18.3765 166.932 18.7976 166.745 19.2187C163.057 19.9479 162.005 18.4901 159.934 17.9553C159.942 18.2727 159.95 18.5901 159.958 18.9075C158.575 18.9392 157.192 18.9709 155.809 19.0027C156.004 18.7939 156.199 18.5852 156.394 18.3765C155.904 18.3765 155.415 18.3765 154.926 18.3765C153.734 19.3169 152.222 19.5361 154.051 20.4785ZM190.607 19.0027C191.692 21.41 202.273 19.761 207.106 20.2661C204.569 18.8165 200.638 19.8155 197.871 19.8303C192.521 19.8576 196.219 18.9705 195.311 18.5815C194.863 18.3892 191.828 19.9326 190.607 19.0027ZM145.796 20.0573C148.463 19.8629 149.956 20.4171 152.263 19.5337C152.07 19.3579 151.877 19.1821 151.684 19.0063C150.894 19.1672 144.451 19.675 145.796 20.0573ZM214.189 19.6362C209.037 20.5006 211.578 18.321 208.899 19.9548C210.663 20.0585 212.426 20.1623 214.189 20.2661C214.189 20.0561 214.189 19.8461 214.189 19.6362ZM-145.507 21.7382C-147.678 21.7933 -150.103 22.2326 -151.401 21.3244C-149.926 21.184 -148.451 21.0437 -146.975 20.9033C-146.486 21.1816 -145.997 21.4599 -145.507 21.7382ZM-83.5981 30.6112C-84.0937 30.8289 -86.054 30.1864 -86.2605 30.1864C-86.6443 30.1864 -86.5394 30.5029 -86.5449 30.5856C-89.0567 30.5282 -86.7394 29.5466 -88.5979 29.3332C-88.9157 29.298 -93.2815 29.7832 -95.0575 29.7433C-97.7896 29.682 -100.518 29.7456 -101.539 29.7287C-103.262 29.701 -106.461 28.9647 -109.293 28.9267C-110.461 28.9123 -110.868 29.5018 -112.042 29.487C-119.578 29.3876 -134.412 28.5783 -141.098 28.9523C-142.75 29.0453 -144.325 29.8173 -145.199 29.7543C-145.888 29.4723 -146.576 29.1904 -147.265 28.9084C-149.384 31.4467 -150.092 29.1891 -152.376 28.9523C-153.827 28.8027 -154.505 29.5548 -154.7 29.5529C-155.992 29.5381 -156.629 29.1801 -157.644 29.1208C-158.783 29.0553 -160.419 29.3945 -160.826 29.3332C-161.076 29.2921 -160.278 28.2925 -164.697 28.3115C-169.2 28.3312 -173.646 28.4369 -178.225 28.4836C-176.698 25.4657 -175.382 27.5312 -173.513 27.6414C-173.011 27.6709 -173.329 27.1918 -172.892 27.2129C-171.659 27.27 -169.298 27.7408 -168.277 27.6267C-167.175 27.5036 -167.552 26.393 -166.154 26.8028C-166.083 26.8239 -166.307 27.2825 -165.978 27.3594C-162.673 28.1181 -161.592 27.3204 -157.414 27.2971C-154.646 27.2803 -137.835 27.7354 -137.258 27.4363C-134.248 25.83 -151.962 25.819 -154.034 25.9458C-154.759 25.9904 -153.999 26.4968 -154.659 26.594C-154.939 26.6329 -157.458 25.6672 -159.946 25.587C-162.956 25.4898 -169.003 26.1485 -171.871 26.1253C-196.525 25.9245 -220.837 26.5081 -245.468 26.5208C-245.993 26.5208 -246.684 25.9422 -248.396 25.9422C-280.332 25.9528 -313.431 26.4089 -345.775 26.1363C-352.826 26.0771 -359.819 25.533 -366.936 25.9642C-367.819 25.5418 -368.701 25.1195 -369.584 24.6971C-367.326 25.0329 -363.188 24.0776 -362.811 24.0636C-362.675 24.0594 -361.819 24.5356 -360.438 24.5104C-358.497 24.4765 -357.645 24.0636 -357.486 24.0636C-356.992 24.0623 -357.316 24.5015 -356.844 24.4994C-353.327 24.4804 -350.606 24.605 -347.378 24.6092C-343.732 24.6133 -341.884 23.7953 -339.228 24.6935C-338.928 24.3431 -338.627 23.9928 -338.326 23.6425C-336.343 25.1576 -324.529 24.9898 -319.744 24.9095C-318.234 24.884 -318.499 24.2687 -317.991 24.2687C-317.668 24.2694 -317.795 25.0751 -313.845 24.9168C-311.856 24.8365 -311.335 24.2496 -310.337 24.2687C-309.796 24.2799 -309.884 24.8619 -309.105 24.8619C-304.603 24.8619 -300.927 24.6731 -296.519 24.5653C-295.28 24.5357 -295.266 24.0499 -294.989 24.0563C-293.968 24.078 -292.192 24.9006 -289.596 24.8985C-285.324 24.8943 -276.809 24.8915 -273.316 24.492C-272.802 24.4329 -272.377 23.8501 -272 23.8585C-271.428 23.8734 -271.203 24.4815 -271.103 24.4847C-269.191 24.4953 -270.341 23.9299 -269.061 24.0673C-268.371 24.1413 -267.651 24.8348 -266.046 24.9132C-263.928 25.0167 -264.345 24.1936 -263.46 24.276C-263.366 24.2889 -263.338 24.8613 -262.469 24.8802C-259.17 24.9479 -254.385 25.0801 -251.264 25.078C-250.367 25.078 -249.7 24.6926 -248.45 24.6861C-245.93 24.6734 -231.608 24.919 -230.433 24.6971C-230.309 24.6739 -231.583 23.8295 -229.553 23.8549C-228.963 24.2064 -228.374 24.558 -227.784 24.9095C-226.798 24.3468 -225.813 23.7841 -224.827 23.2213C-224.862 25.1656 -219.062 25.4659 -219.12 23.4777C-218.485 23.3971 -217.851 23.3165 -217.216 23.236C-215.894 24.6096 -215.014 24.1025 -212.46 24.9095C-212.062 24.4884 -211.664 24.0672 -211.266 23.6461C-211.165 23.9269 -211.065 24.2076 -210.965 24.4884C-209.602 22.9669 -207.366 24.4946 -207.095 24.503C-206.051 24.5368 -205.266 24.15 -204.776 24.1625C-202.947 24.2026 -198.988 24.7355 -196.851 24.4884C-196.751 24.4757 -196.85 23.8253 -196.242 23.745C-195.146 23.5999 -195.039 24.5521 -193.577 23.4337C-193.282 23.7145 -192.986 23.9952 -192.691 24.276C-192.378 24.1307 -192.065 23.9855 -191.751 23.8402C-189.902 23.9147 -188.053 23.9891 -186.204 24.0636C-187.886 22.9624 -185.951 22.3474 -184.122 23.214C-183.503 23.5078 -184.052 24.1781 -183.845 24.2796C-183.562 24.417 -175.264 24.0757 -174.715 23.6425C-174.323 23.8536 -173.93 24.0648 -173.537 24.276C-173.338 23.8536 -173.14 23.4313 -172.941 23.0089C-172.725 23.1566 -172.508 23.3043 -172.291 23.452C-170.132 22.7081 -164.526 24.4144 -163.51 24.2796C-162.968 24.2078 -163.456 22.4076 -160.853 22.5915C-160.763 23.0858 -160.673 23.5802 -160.583 24.0746C-159.987 24.1454 -159.391 24.2162 -158.795 24.287C-157.677 24.2429 -156.049 23.3861 -155.997 22.8002C-155.648 23.1517 -155.299 23.5033 -154.949 23.8548C-154.011 22.7094 -149.007 23.1154 -146.994 23.8402C-146.406 23.4947 -145.817 23.1493 -145.229 22.8039C-144.438 23.2238 -143.647 23.6437 -142.856 24.0636C-141.024 24.19 -142.959 23.4919 -142.569 23.4337C-141.743 23.3132 -137.533 24.4925 -137.81 23.0236C-137.236 23.0199 -136.662 23.0162 -136.088 23.0126C-135.792 23.4325 -135.497 23.8524 -135.202 24.2723C-134.216 22.8246 -132.511 23.3357 -129.013 22.8075C-128.72 23.1408 -128.426 23.474 -128.133 23.8072C-127.051 23.3336 -125.97 22.86 -124.888 22.3864C-124.666 22.9381 -124.444 23.4899 -124.222 24.0416C-123.752 24.1209 -123.281 24.2003 -122.811 24.2796C-121.855 23.0437 -120.139 24.3793 -119.265 23.8695C-117.991 23.1255 -118.977 22.239 -121.343 22.0678C-121.166 21.1677 -114.117 21.581 -112.492 21.6467C-112.599 21.8224 -112.707 21.9982 -112.814 22.174C-114.476 22.0348 -116.138 21.8957 -117.8 21.7565C-119.193 24.0201 -114.679 23.413 -112.608 23.7047C-112.419 23.7326 -111.345 24.5902 -109.258 24.5103C-108.449 24.4786 -105.296 23.2251 -104.694 23.1554C-99.8333 22.583 -103.407 24.3741 -98.6516 22.8038C-99.6429 24.0065 -96.9105 23.0071 -94.0662 23.2396C-93.582 23.2793 -89.4763 24.2543 -89.1991 24.2796C-87.4702 24.436 -89.3524 23.373 -86.8509 23.6498C-86.5503 23.9293 -86.2496 24.2088 -85.949 24.4884C-85.3667 24.4884 -84.7844 24.4884 -84.2021 24.4884C-80.6684 21.9972 -79.8464 23.8317 -78.5902 24.0672C-78.0827 24.1623 -78.7361 23.5124 -77.4201 23.6498C-76.9246 23.7009 -76.3753 24.2416 -75.0421 24.2796C-70.8708 24.3978 -69.4546 22.0831 -65.6195 24.492C-65.0309 24.1429 -64.4422 23.7938 -63.8536 23.4447C-63.4564 23.8634 -63.0591 24.2821 -62.6619 24.7008C-59.6236 23.4858 -60.7205 24.7302 -59.623 24.7154C-56.7256 24.6773 -50.7954 24.4392 -50.2762 23.4374C-47.7746 25.7386 -44.7838 23.1425 -43.7976 23.2323C-43.2117 23.5118 -42.6258 23.7914 -42.0399 24.0709C-41.351 23.7901 -40.6622 23.5094 -39.9733 23.2286C-40.3082 25.4884 -36.7406 23.2662 -36.3982 23.2323C-36.0029 23.1985 -30.5159 23.8673 -28.4733 23.8548C-26.4336 23.8422 -22.8792 23.2298 -22.5662 23.2286C-22.2062 23.2286 -18.7344 23.8429 -16.0199 23.8365C-13.6446 23.8299 0.426599 22.9573 -0.459962 23.9647C-1.38049 24.2437 -2.69092 24.4855 -3.82384 24.6165C-7.341 25.0181 -27.9836 25.5325 -33.2591 25.6932C-43.839 26.0123 -54.8733 25.9531 -65.5003 26.1729C-66.1255 26.1856 -66.2207 26.7713 -66.757 26.7844C-67.5713 26.8013 -69.638 26.2151 -70.4405 26.2278C-73.4382 26.2785 -77.0854 26.3741 -78.6904 26.3889C-82.2775 26.4186 -84.7381 26.7713 -87.4522 26.8284C-88.3019 26.8453 -92.5976 26.1192 -95.5423 26.4256C-96.0758 26.5904 -96.6094 26.7551 -97.1429 26.9199C-95.6264 27.1123 -91.6474 27.6099 -89.8004 27.667C-87.0515 27.7493 -85.6178 27.2742 -84.6029 27.2825C-83.7533 27.2888 -79.4111 27.8299 -77.4337 27.8428C-76.82 27.847 -76.694 27.2327 -76.1688 27.2349C-73.3189 27.2497 -69.5651 27.2661 -67.0929 27.8684C-68.1019 27.6718 -61.8007 27.295 -61.4702 27.2971C-60.9038 27.2973 -60.2892 27.872 -59.1328 27.872C-56.909 27.8717 -57.191 26.6696 -54.412 27.872C-53.724 27.5217 -53.0361 27.1714 -52.3482 26.8211C-52.3058 28.4226 -43.6131 26.2441 -41.1407 28.1906C-41.0758 28.4105 -52.3719 29.0342 -53.3042 29.0659C-58.898 29.2581 -67.1759 28.8654 -72.6045 29.1464C-74.2384 29.2309 -79.3754 30.2046 -79.7629 30.1864C-80.388 30.159 -79.8233 29.602 -80.0934 29.5822C-85.6207 29.1681 -82.8631 30.2874 -83.5981 30.6112ZM159.934 21.5331C158.254 21.599 156.575 21.6649 154.896 21.7309C155.018 22.0824 155.14 22.434 155.262 22.7855C156.031 22.6488 156.8 22.5121 157.569 22.3754C158.16 22.5853 158.752 22.7953 159.343 23.0052C159.54 22.5145 159.737 22.0238 159.934 21.5331ZM164.072 23.0052C165.528 23.1822 165.599 22.4409 165.935 22.4047C166.938 22.2948 167.806 22.5945 168.779 22.5841C167.658 20.8231 165.27 21.6301 164.072 23.0052ZM133.995 23.6388C134.323 23.5545 136.515 21.6587 139.008 23.4227C140.873 22.8624 142.738 22.3021 144.604 21.7418C141.435 22.5978 137.05 21.708 135.498 21.7418C134.909 21.7547 134.796 22.3366 134.325 22.3461C131.611 22.3926 128.972 21.074 128.694 23.0016C131.262 22.4415 133.576 23.7423 133.995 23.6388ZM150.375 22.954C150.81 22.5511 151.244 22.1483 151.678 21.7455C150.109 21.7455 148.54 21.7455 146.971 21.7455C147.395 22.1532 147.82 22.5609 148.244 22.9686C148.955 22.9637 149.665 22.9588 150.375 22.954ZM29.6633 24.2869C30.6311 24.2821 31.5989 24.2772 32.5667 24.2723C32.5136 24.5659 31.4063 24.5647 30.9985 24.763C31.0003 24.763 31.0021 24.763 31.0039 24.763C30.5496 24.987 30.744 25.3651 29.9178 25.532C29.833 25.117 29.7481 24.702 29.6633 24.2869ZM-370.757 25.9568C-372.379 25.978 -387.36 25.9801 -386.084 24.9095C-385.441 24.3748 -380.317 24.8411 -378.807 24.8326C-376.77 24.8218 -371.271 23.6639 -370.757 25.9568ZM-397.289 26.1656C-397.549 25.0987 -388.186 24.929 -387.271 25.1146C-387.465 25.2667 -387.764 25.6054 -388.023 25.6822C-389.286 26.0499 -395.271 25.874 -397.289 26.1656ZM-24.5352 27.3667C-23.7805 26.8272 -23.0257 26.2876 -22.271 25.7481C-22.4696 26.45 -22.6682 27.1519 -22.8668 27.8537C-23.423 27.6914 -23.9791 27.529 -24.5352 27.3667ZM-97.7496 26.594C-110.323 26.6282 -122.897 26.6624 -135.47 26.6966C-134.364 26.9883 -133.258 27.28 -132.152 27.5718C-121.318 27.4682 -109.764 27.1728 -99.3016 27.623C-98.7843 27.28 -98.267 26.937 -97.7496 26.594ZM130.452 26.7991C127.231 26.8095 124.54 26.294 121.035 27.114C124.375 27.9087 126.029 26.6791 129.274 27.8501C129.276 27.8501 129.278 27.8501 129.279 27.8501C129.67 27.4997 130.061 27.1494 130.452 26.7991ZM58.527 27.0115C59.5066 27.5022 60.4861 27.9929 61.4657 28.4836C60.2875 28.4836 59.1094 28.4836 57.9312 28.4836C58.1298 27.9929 58.3284 27.5022 58.527 27.0115ZM-207.425 29.3222C-210.795 28.2512 -219.415 30.1896 -222.153 28.9011C-222.33 28.8165 -220.703 28.2728 -223.334 27.2202C-221.346 27.4357 -219.943 27.6557 -219.794 28.4836C-219.204 28.2029 -218.614 27.9221 -218.023 27.6414C-217.044 27.8538 -216.064 28.0661 -215.084 28.2785C-215.191 27.4542 -215.113 27.4982 -213.608 28.0625C-212.922 27.8538 -212.236 27.645 -211.55 27.4363C-211.259 27.7854 -210.969 28.1345 -210.678 28.4836C-210.084 27.9953 -209.49 27.5071 -208.896 27.0188C-206.58 27.5485 -207.99 28.4946 -207.425 29.3222ZM-195.63 29.1208C-196.178 29.3023 -211.801 28.7103 -204.7 27.0664C-202.855 27.1189 -201.01 27.1714 -199.164 27.2239C-200.693 29.9462 -195.664 27.5117 -195.251 27.4546C-193.274 27.1887 -190.756 27.836 -189.322 27.8025C-188.089 27.7729 -187.356 27.2845 -186.489 27.2971C-183.534 27.3394 -178.868 27.3572 -178.225 28.4836C-180.522 28.507 -182.855 28.5192 -185.243 28.4909C-187.769 28.4613 -189.989 29.5245 -194.733 28.0661C-195.906 28.2229 -195.488 29.0743 -195.63 29.1208ZM64.4151 28.3701C64.2975 27.2386 70.2597 27.5092 70.2979 27.9563C70.3097 28.2183 68.368 28.2121 68.0905 28.3115C68.0888 28.3115 68.0869 28.3115 68.0852 28.3115C67.9695 28.3549 68.556 28.788 67.6437 28.9084C66.5674 28.7289 65.4914 28.5495 64.4151 28.3701ZM-347.457 28.4873C-348.263 29.1222 -366.675 28.8939 -367.217 28.5898C-367.365 28.5054 -367.159 28.2269 -367.217 28.0662C-362.922 28.962 -356.815 27.9017 -352.738 27.8318C-351.601 27.8129 -351.941 28.2627 -351.877 28.2712C-351.874 28.2712 -351.871 28.2712 -351.869 28.2712C-351.224 28.2723 -348.312 27.1734 -347.457 28.4873ZM-228.05 28.3847C-227.267 28.2077 -226.484 28.0307 -225.702 27.8538C-225.503 28.2041 -225.304 28.5544 -225.106 28.9047C-225.107 28.9047 -225.109 28.9047 -225.111 28.9047C-226.091 28.7314 -227.07 28.5581 -228.05 28.3847ZM-255.169 29.5383C-254.979 29.2917 -254.788 29.0451 -254.598 28.7985C-252.627 28.7644 -250.656 28.7302 -248.685 28.696C-248.884 28.5569 -249.083 28.4177 -249.281 28.2785C-246.301 27.9066 -245.067 28.7731 -243.48 28.6484C-243.482 28.6484 -243.483 28.6484 -243.485 28.6484C-243.314 28.6339 -243.108 28.1201 -242.472 28.1028C-241.015 28.0626 -236.84 27.8714 -236.335 28.3884C-235.267 29.4914 -243.671 28.9679 -245.237 29.0183C-245.946 29.0415 -246.797 29.4911 -247.228 29.5017C-247.7 29.5115 -248.343 28.9044 -249.492 28.9231C-249.829 28.9294 -253.558 29.6437 -255.169 29.5383ZM-289.956 28.8022C-289.349 28.2463 -288.08 28.7832 -287.614 28.6924C-287.502 28.6709 -288.368 28.2056 -287.318 28.0662C-287.021 28.3835 -286.724 28.7009 -286.427 29.0183C-287.604 28.9463 -288.78 28.8742 -289.956 28.8022ZM74.4337 28.9047C74.2621 29.024 71.0613 28.9804 70.9073 28.9047C68.9895 27.8902 75.6198 28.0001 74.4337 28.9047ZM155.218 30.0656C153.746 31.5401 171.216 30.0905 172.91 30.1681C172.825 29.2414 168.669 30.1731 170.846 28.901C168.769 29.6006 163.027 29.2291 161.675 29.432C160.855 29.5547 160.648 30.3551 160.524 30.3805C160.038 30.4707 155.737 29.5458 155.218 30.0656ZM187.346 29.5382C185.685 29.714 184.025 29.8898 182.365 30.0656C184.324 30.1705 186.283 30.2755 188.242 30.3805C187.943 30.0997 187.644 29.819 187.346 29.5382ZM189.434 29.9594C189.381 30.8576 195.016 30.1734 196.497 30.3805C194.828 28.8525 192.042 30.2931 189.434 29.9594ZM95.6679 31.2228C93.0713 31.8167 91.9557 29.0786 95.1126 30.2706C95.2086 30.31 95.7761 31.1913 95.6679 31.2228ZM-208.227 33.1746C-208.669 33.1915 -214.175 34.0793 -214.494 33.6397C-215.502 32.2373 -211.889 32.7997 -210.678 32.2701C-208.725 31.412 -211.597 30.705 -206.829 31.2228C-207.024 30.942 -207.219 30.6613 -207.414 30.3805C-204.624 30.2875 -205.537 32.2324 -205.036 32.4825C-204.883 32.5585 -203.138 32.395 -202.823 32.5191C-198.891 34.086 -207.816 33.1616 -208.227 33.1746ZM31.3939 31.4315C26.2249 32.2558 28.4486 31.0463 23.144 31.1202C22.9671 30.5031 30.7212 30.8904 31.3939 31.4315ZM-157.893 32.065C-163.239 31.8221 -167.635 32.6292 -172.622 31.545C-172.297 29.8753 -156.506 31.6339 -157.893 32.065ZM-409.079 33.7569C-388.278 30.7832 -364.286 31.7622 -342.14 31.8087C-339.726 31.8129 -339.495 31.1509 -338.622 31.2228C-338.05 31.2693 -338.15 31.8025 -337.389 31.8051C-309.908 31.8917 -283.595 32.5893 -257.271 32.2701C-255.613 32.249 -247.546 31.1039 -245.823 32.8304C-244.519 34.1402 -250.314 33.119 -251.28 33.1307C-252.006 33.1391 -252.037 33.7547 -252.52 33.7569C-253.034 33.759 -252.61 33.3384 -253.206 33.3321C-255.731 33.3025 -258.487 33.4669 -260.77 33.431C-283.164 33.0865 -304.951 33.185 -327.227 33.2442C-329.924 33.2506 -329.369 33.7438 -329.505 33.7459C-329.507 33.7447 -329.509 33.7435 -329.51 33.7422C-343.968 33.7888 -360.479 32.6824 -375.792 33.1051C-386.575 33.4444 -397.359 33.7838 -408.142 34.1231C-408.454 34.001 -408.766 33.879 -409.079 33.7569ZM-196.811 31.4352C-198.156 33.2951 -198.457 31.4198 -203.284 32.1786C-203.677 31.8612 -204.069 31.5438 -204.462 31.2264C-201.909 31.296 -199.356 31.3656 -196.803 31.4352C-196.805 31.4352 -196.808 31.4352 -196.811 31.4352ZM-228.692 32.1127C-229.507 34.6246 -240.301 32.8493 -245.162 33.3284C-246.053 32.0669 -238.987 32.6336 -237.321 32.5008C-236.489 32.4353 -232.033 31.1378 -228.646 31.8563C-228.661 31.9418 -228.676 32.0272 -228.692 32.1127ZM136.939 33.7569C136.154 33.6836 135.368 33.6104 134.583 33.5371C136.548 33.2588 138.513 32.9805 140.479 32.7022C137.343 32.8816 134.208 33.0611 131.073 33.2405C131.657 33.7617 132.241 34.283 132.825 34.8042C134.196 34.4551 135.567 34.106 136.939 33.7569ZM126.766 33.4895C132.257 33.6858 126.525 32.2905 125.155 32.9109C124.334 33.2829 126.206 33.4684 126.766 33.4895ZM112.484 34.3867C115.045 35.3018 120.22 35.3648 118.381 33.5371C115.613 34.3931 113.829 33.6819 109.817 34.1743C110.402 34.5247 110.989 34.875 111.574 35.2253C111.577 35.2253 111.58 35.2253 111.583 35.2253C111.883 34.9458 112.184 34.6663 112.484 34.3867ZM129.274 34.5955C132.87 33.5455 122.459 33.9045 125.731 34.5955C125.885 34.6272 129.132 34.6356 129.274 34.5955ZM-386.084 35.6465C-386.517 35.0493 -383.751 35.0604 -382.831 35.0203C-378.843 34.8428 -373.727 35.1027 -369.579 35.0203C-369.891 35.2168 -370.204 35.4133 -370.516 35.6099C-375.706 35.6221 -380.895 35.6343 -386.084 35.6465ZM-356.603 35.0166C-353.753 35.0166 -350.903 35.0166 -348.052 35.0166C-347.787 35.0166 -346.541 35.5291 -347.467 35.6538C-350.513 35.4414 -353.558 35.229 -356.603 35.0166ZM-178.819 35.0166C-181.004 35.351 -174.711 37.0653 -174.994 35.229C-176.269 35.1582 -177.544 35.0874 -178.819 35.0166ZM-158.484 35.749C-159.854 35.5745 -161.224 35.3999 -162.595 35.2253C-162.597 35.4365 -162.599 35.6477 -162.6 35.8589C-161.228 35.8222 -159.856 35.7856 -158.484 35.749ZM-397.289 36.0676C-395.837 35.345 -392.374 35.4562 -390.215 35.4414C-391.702 36.0623 -395.248 35.7571 -397.289 36.0676ZM-211.561 35.7563C-211.384 35.2639 -220.077 35.3878 -217.067 36.2544C-215.232 36.0884 -213.396 35.9223 -211.561 35.7563ZM-229.217 36.4851C-227.353 36.5928 -225.908 36.4236 -226.292 35.6501C-227.281 35.6831 -228.269 35.7161 -229.258 35.749C-229.244 35.9944 -229.231 36.2397 -229.217 36.4851ZM102.737 35.8588C99.595 35.7893 96.4534 35.7197 93.3114 35.6501C93.4279 35.8613 93.5444 36.0725 93.6609 36.2836C96.6898 36.352 99.7187 36.4204 102.748 36.4887C102.744 36.2788 102.74 36.0688 102.737 35.8588ZM-399.066 37.9645C-401.223 37.8266 -403.381 37.6887 -405.539 37.5507C-403.379 37.4091 -401.22 37.2675 -399.06 37.1259C-399.06 37.4067 -399.06 37.6874 -399.06 37.9682C-399.062 37.967 -399.064 37.9658 -399.066 37.9645ZM145.777 38.5944C136.179 39.5792 148.425 40.6202 150.958 39.1729C150.961 39.1742 150.963 39.1754 150.966 39.1766C151.188 39.0487 150.719 38.4301 151.088 38.1805C150.111 38.4601 149.134 38.7396 148.157 39.0191C147.266 38.6713 146.375 38.3234 145.484 37.9755C145.191 38.1122 144.897 38.2489 144.604 38.3856C144.995 38.4552 145.386 38.5248 145.777 38.5944ZM184.513 39.1437C193.215 39.0294 184.311 37.4826 180.003 38.7042C180.034 38.9869 183.711 39.1542 184.513 39.1437ZM161.705 38.8104C160.333 38.67 158.962 38.5297 157.591 38.3893C157.416 38.5663 157.241 38.7433 157.065 38.9203C158.118 39.096 159.171 39.2718 160.223 39.4476C160.717 39.2352 161.211 39.0228 161.705 38.8104ZM116.604 41.5423C114.397 41.7367 111.582 39.7686 118.668 40.2862C118.664 40.4974 118.661 40.7085 118.657 40.9197C118.375 40.886 117.546 40.6879 117.5 40.7037C117.371 40.7565 117.524 41.4617 116.604 41.5423ZM200.628 44.7062C200.875 44.7866 201.011 47.0141 203.588 44.7099C204.367 44.8503 205.146 44.9906 205.926 45.131C206.127 44.6403 206.328 44.1496 206.529 43.6589C203.514 44.0393 203.194 43.0465 202.976 43.0254C201.974 42.9325 202.715 43.4431 202.069 43.4502C200.399 43.4671 196.605 43.1242 198.326 44.5817C198.945 45.1038 200.38 44.6259 200.628 44.7062ZM194.732 45.9733C195.097 45.7873 193.919 45.1357 194.195 44.9516C194.437 44.791 198.072 44.1262 197.088 43.0254C196.491 43.0718 195.894 43.1181 195.298 43.1645C195.095 43.466 194.893 43.7675 194.691 44.069C194.113 43.7907 193.535 43.5124 192.958 43.2341C191.984 43.9781 189.912 44.9419 192.372 45.5485C191.468 45.485 190.563 45.4215 189.659 45.3581C189.19 45.0016 188.721 44.6452 188.253 44.2888C188.498 44.832 188.744 45.3751 188.99 45.9183C190.903 45.9367 192.818 45.955 194.732 45.9733ZM222.775 45.7645C222.665 45.4838 222.554 45.203 222.444 44.9223C225.766 45.4442 230.94 45.6427 228.002 43.8823C223.501 43.7358 219.001 43.5893 214.5 43.4428C214.202 43.654 213.903 43.8652 213.604 44.0764C216.961 43.2627 215.924 46.7249 218.845 45.7316C219.337 45.5632 217.908 44.3524 221.003 45.1274C220.893 45.4093 220.783 45.6913 220.673 45.9733C221.374 45.9037 222.074 45.8341 222.775 45.7645ZM251.335 45.3434C245.647 45.7492 251.913 46.7738 252.963 45.922C252.961 45.922 252.959 45.922 252.957 45.922C255.836 43.5912 249.646 44.7174 249.269 44.7026C248.767 44.6819 247.598 43.0133 244.867 45.4459C247.023 45.4118 249.179 45.3776 251.335 45.3434ZM232.763 45.7609C233.241 45.8158 232.977 45.3921 233.183 45.3983C233.185 45.3983 233.187 45.3983 233.189 45.3983C236.233 45.4892 243.476 45.8686 244.261 44.5011C242.007 44.387 231.922 44.0915 231.312 45.0212C231.796 45.2677 232.279 45.5143 232.763 45.7609ZM211.337 44.7428C209.468 45.6282 213.676 45.7461 214.779 45.3361C214.988 45.2473 213.274 43.8257 211.337 44.7428ZM67.9443 47.0279C63.8313 46.4953 69.2353 45.9638 67.3647 45.131C68.15 45.2018 68.9357 45.2726 69.721 45.3434C69.1288 45.9049 68.5366 46.4664 67.9443 47.0279ZM-119.572 48.7088C-120.53 48.8072 -120.076 48.2989 -120.159 48.2913C-120.789 48.3055 -121.383 48.7197 -121.625 48.6759C-126.093 47.8398 -123.121 47.4129 -123.076 47.3136C-122.982 46.8107 -124.156 46.2222 -122.529 45.6474C-121.541 45.8256 -120.554 46.0038 -119.566 46.182C-119.076 45.9025 -118.586 45.623 -118.095 45.3434C-116.133 45.9432 -118.701 46.1077 -118.992 46.9034C-119.104 47.2163 -117.258 47.5907 -119.572 48.7088ZM60.5746 48.7125C59.9078 47.829 58.2734 46.7145 59.8786 45.8268C59.8804 45.8268 59.8822 45.8268 59.884 45.8268C60.1808 45.6644 61.3895 45.5751 61.7609 45.3471C64.4087 46.5241 63.3944 47.7404 60.5746 48.7125ZM-101.856 50.2908C-100.263 50.0845 -98.6706 49.8782 -97.0779 49.6719C-97.1051 49.1421 -97.1321 48.6124 -97.1592 48.0826C-98.0115 48.2254 -98.8637 48.3682 -99.716 48.5111C-100.015 48.2694 -100.314 48.0277 -100.612 47.786C-99.5544 47.1818 -98.4963 46.5775 -97.4382 45.9733C-96.1635 46.1845 -94.8886 46.3957 -93.6139 46.6068C-94.1998 46.8864 -94.7857 47.1659 -95.3716 47.4454C-92.256 47.754 -92.9343 46.4658 -90.3556 45.9733C-89.4727 46.464 -88.5897 46.9547 -87.7068 47.4454C-86.4284 46.9523 -85.15 46.4591 -83.8716 45.966C-81.7237 46.1964 -81.5348 46.5719 -82.9806 47.1342C-81.9126 47.7766 -80.7432 46.7661 -79.4569 47.028C-79.3508 47.0491 -79.5507 47.6542 -79.4569 47.6615C-72.8065 48.0694 -73.1603 46.4804 -72.0981 46.4127C-71.3485 46.3663 -68.3562 47.4387 -68.309 47.8043C-68.2514 48.297 -74.4749 50.24 -64.7284 50.2908C-69.7674 51.6347 -75.4962 50.2667 -71.792 48.295C-73.3869 48.4934 -80.4195 48.0015 -80.868 48.0606C-81.5216 48.1499 -81.2924 48.898 -82.1111 48.9175C-82.5949 48.9281 -83.8771 47.2182 -87.7068 48.7125C-88.1961 48.4317 -88.6854 48.151 -89.1747 47.8702C-89.6334 48.1009 -90.092 48.3316 -90.5506 48.5623C-89.6063 49.3851 -88.662 50.2078 -87.7176 51.0305C-91.4584 50.1366 -94.5619 51.8159 -96.8396 50.4007C-98.809 50.5654 -99.7657 50.7282 -98.9197 51.4516C-99.5111 51.4516 -100.102 51.4516 -100.694 51.4516C-101.081 51.0647 -101.468 50.6777 -101.856 50.2908ZM48.4896 47.4491C46.5323 48.2705 45.8286 46.4984 46.1332 46.3981C47.8498 45.8466 49.5081 47.0217 48.4896 47.4491ZM-116.018 47.7677C-113.859 47.3112 -111.699 46.8546 -109.539 46.3981C-109.539 46.9584 -109.539 47.5187 -109.539 48.0789C-111.699 47.9752 -113.859 47.8714 -116.018 47.7677ZM68.5455 48.2877C68.7442 47.8678 68.9428 47.4478 69.1414 47.0279C71.5068 48.5617 73.8554 46.3611 75.0241 46.8155C75.2778 46.9148 74.7657 47.6563 74.2821 47.8153C73.9811 47.9146 68.9645 48.4293 68.5455 48.2877ZM167.016 48.0862C166.135 47.8043 165.254 47.5223 164.373 47.2403C164.421 47.7127 164.47 48.1851 164.519 48.6575C164.954 48.7454 165.389 48.8333 165.824 48.9212C166.222 48.6429 166.619 48.3646 167.016 48.0862ZM156.989 47.3355C155.418 47.3734 153.846 47.4112 152.274 47.4491C158.269 47.8823 153.349 48.0938 156.989 48.7088C156.989 48.251 156.989 47.7933 156.989 47.3355ZM141.08 48.2913C141.273 48.5733 141.466 48.8553 141.66 49.1372C143.231 49.1372 144.803 49.1372 146.375 49.1372C145.381 50.1162 144.387 51.0952 143.393 52.0742C142.817 52.0766 142.241 52.079 141.665 52.0815C141.47 50.8181 141.275 49.5547 141.08 48.2913ZM-162.029 50.8145C-162.979 50.8314 -166.285 49.9759 -166.143 49.6609C-164.77 49.274 -163.397 48.887 -162.024 48.5001C-162.017 49.0616 -162.011 49.6231 -162.005 50.1846C-161.81 49.9051 -161.616 49.6255 -161.422 49.346C-160.641 49.556 -159.86 49.7659 -159.079 49.9759C-158.686 49.4852 -158.292 48.9945 -157.899 48.5037C-157.503 49.064 -157.108 49.6243 -156.712 50.1846C-160.483 51.1779 -160.353 50.1851 -161.138 50.1956C-161.536 50.2003 -161.788 50.548 -161.929 50.7229C-161.962 50.7534 -161.996 50.7839 -162.029 50.8145ZM-114.526 51.3418C-119.028 51.4813 -121.601 50.003 -124.858 51.2393C-122.769 48.6058 -109.28 51.3259 -104.523 49.1299C-104.03 49.5523 -103.536 49.9746 -103.042 50.397C-105.632 50.0209 -107.426 50.8908 -108.689 51.0159C-109.692 51.1152 -109.587 50.6726 -109.664 50.679C-109.668 50.679 -109.671 50.679 -109.675 50.679C-112.023 50.8607 -112.75 51.2868 -114.526 51.3418ZM71.8905 50.353C70.6805 51.0203 68.5637 50.9536 68.5402 49.9795C69.7183 49.6975 70.8965 49.4156 72.0746 49.1336C71.8327 49.383 72.097 50.2389 71.8905 50.353ZM139.252 51.0122C138.308 51.3292 136.077 51.0514 137.039 50.2102C137.212 50.0609 139.434 50.6522 138.131 49.1336C140.295 49.1571 139.789 50.83 139.252 51.0122ZM-37.5899 49.346C-36.7954 49.3741 -36.0009 49.4021 -35.2065 49.4302C-35.0214 49.8233 -34.8363 50.2163 -34.6512 50.6094C-35.6308 50.1883 -36.6103 49.7671 -37.5899 49.346ZM82.1013 51.0268C83.1574 49.1032 84.9619 50.9752 86.9439 49.3936C87.6761 49.3814 88.4083 49.3692 89.1405 49.357C89.1423 49.357 89.1439 49.357 89.1459 49.357C89.1657 49.8819 89.1856 50.4067 89.2055 50.9316C86.8374 50.9634 84.4693 50.9951 82.1013 51.0268ZM-87.1272 50.2945C-86.6378 50.0503 -86.1485 49.8062 -85.6592 49.5621C-84.788 49.8465 -83.9168 50.1309 -83.0456 50.4153C-83.5168 50.6192 -83.9881 50.823 -84.4594 51.0269C-85.3486 50.7827 -86.2379 50.5386 -87.1272 50.2945ZM94.9717 51.1916C92.4108 51.4326 91.4475 49.7604 94.7226 49.7561C96.1032 49.7561 97.655 50.9399 94.9717 51.1916ZM-210.954 50.1919C-210.077 50.0491 -209.199 49.9063 -208.322 49.7635C-208.023 50.115 -207.724 50.4666 -207.425 50.8181C-208.601 50.6094 -209.778 50.4007 -210.954 50.1919ZM151.397 50.8218C151.294 50.4702 151.191 50.1187 151.088 49.7671C150.305 49.8379 149.522 49.9087 148.74 49.9795C148.936 50.3286 149.133 50.6777 149.33 51.0268C150.019 50.9585 150.708 50.8901 151.397 50.8218ZM-205.05 49.9759C-204.348 49.9087 -203.647 49.8416 -202.945 49.7745C-202.474 49.9454 -202.003 50.1162 -201.531 50.2871C-202.188 50.4568 -202.844 50.6265 -203.5 50.7962C-204.017 50.5227 -204.533 50.2493 -205.05 49.9759ZM119.247 51.0305C118.262 51.4532 114.326 50.1362 117.872 49.8001C120.131 49.5867 119.395 50.9662 119.247 51.0305ZM124.559 51.4516C120.806 52.2569 123.62 48.1698 128.099 50.8181C123.59 50.455 124.779 51.403 124.559 51.4516ZM157.561 53.5609C157.655 53.5588 157.733 52.9711 158.487 52.9494C161.202 52.8733 164.785 52.6411 166.726 52.6052C171.394 52.5185 185.69 53.5809 187.362 51.8801C187.71 51.5229 186.909 50.4556 187.05 50.4006C187.466 50.2473 189.857 50.7652 189.415 49.9795C187.068 49.9856 184.722 49.9917 182.376 49.9978C182.952 50.552 183.528 51.1062 184.104 51.6604C178.257 51.3645 180.192 51.3987 178.511 50.1919C177.521 50.6594 176.532 51.1269 175.542 51.5944C173.388 51.1245 171.234 50.6545 169.08 50.1846C169.568 50.5349 170.057 50.8852 170.545 51.2356C167.3 51.8844 168.202 51.4589 166.426 50.6094C166.422 50.9597 166.418 51.31 166.415 51.6604C163.282 50.8065 162.671 51.8564 161.987 51.8691C160.582 51.8897 158.792 47.7447 153.436 51.8691C151.178 49.8855 151.229 53.9209 149.902 51.8691C146.079 54.1028 153.349 53.2943 156.789 53.2204C156.791 53.2204 156.793 53.2204 156.794 53.2204C157.054 53.214 156.642 53.5902 157.561 53.5609ZM137.925 51.5066C140.239 53.3274 131.096 53.4978 134.122 50.8694C134.573 50.7839 135.023 50.6985 135.474 50.613C136.293 50.9109 137.111 51.2087 137.93 51.5066C137.928 51.5066 137.927 51.5066 137.925 51.5066ZM52.0241 52.715C43.5561 51.9668 48.3708 50.9194 51.2386 51.9423C51.8108 52.1452 52.1244 52.4234 52.0241 52.715ZM-120.958 52.7407C-121.082 52.5222 -121.206 52.3037 -121.329 52.0852C-118.49 52.2897 -112.999 51.4468 -113.074 52.9201C-115.702 52.8603 -118.33 52.8005 -120.958 52.7407ZM-98.4945 53.7038C-99.1043 53.7926 -101.596 54.0024 -101.295 53.4511C-100.215 53.0605 -99.1355 52.6699 -98.0557 52.2793C-97.5528 52.5234 -97.05 52.7675 -96.5471 53.0117C-97.2494 53.0947 -98.3293 53.6805 -98.4945 53.7038Z" fill="#B92E2D"/>
</svg>
