<svg width="131" height="60" viewBox="0 0 131 60" fill="none" xmlns="http://www.w3.org/2000/svg">
<path d="M279.575 57.7796C273.592 63.0232 269.509 57.4518 263.958 56.5638C251.741 54.613 235.629 56.37 223.133 56.2306C213.675 56.1249 204.064 55.7507 194.663 55.4506C194.181 55.4358 193.894 54.8609 193.675 54.8537C191.617 54.786 188.165 55.3068 186.123 55.2308C181.828 55.0723 174.354 55.1619 170.42 54.6229C168.75 54.3947 167.036 54.2996 166.387 52.9311C165.776 52.8614 165.443 54.0979 165.284 54.1652C165.282 54.164 165.28 54.1628 165.278 54.1615C164.765 54.3703 163.469 53.5033 163.182 53.5573C163.14 53.5658 163.403 54.4614 162.709 54.1908C162.647 54.1676 162.704 53.5586 162.12 53.55C161.968 53.5479 160.013 54.4817 159.455 54.5387C157.596 54.7246 153.156 53.9915 150.934 54.0041C150.594 54.0041 150.398 54.3603 150.039 54.3666C149.854 54.3703 149.576 53.9836 149.519 53.9858C149.269 53.9995 148.176 55.7554 148.568 52.2903C147.428 52.51 147.764 53.6556 147.738 54.3996C146.5 54.507 145.904 52.875 145.58 54.6046C139.492 54.3959 133.404 54.1872 127.316 53.9784C127.314 54.2604 127.312 54.5424 127.31 54.8244C125.516 53.6981 124.9 55.6032 123.876 53.9674C123.244 54.3275 122.612 54.6876 121.981 55.0477C105.746 53.9382 89.5493 55.257 73.4976 55.2528C72.8202 55.2528 72.651 54.6528 71.5338 54.6486C70.3003 54.6444 68.5653 55.3417 66.9396 55.3334C65.5136 55.327 63.4097 54.7594 61.8195 54.6706C61.4606 54.6515 61.201 55.0315 61.1606 55.0294C60.9229 55.0146 60.911 54.413 60.6805 54.3959C60.4048 54.3769 60.0717 54.8225 59.7532 54.7951C58.5629 54.6958 57.2658 54.8494 57.1151 54.839C56.3892 54.782 56.2289 54.1937 56.1692 54.1872C55.3617 54.1154 55.6644 54.6464 55.4633 54.6156C54.4198 54.4529 53.6822 53.1272 52.2536 54.3996C52.2925 53.9076 52.3314 53.4157 52.3703 52.9238C51.277 52.647 51.9992 53.9541 51.7758 54.1908C51.6846 54.2785 49.3313 54.1189 49.1497 54.0956C48.5176 54.0111 48.5006 53.3574 48.446 53.3486C48.3129 53.3274 46.7225 54.0694 45.9072 53.4987C44.9426 52.8225 46.0781 51.4926 45.8385 51.2429C45.7981 51.2007 44.7882 51.3369 44.6526 50.9207C44.5029 50.4728 45.3762 50.4823 45.3628 50.2945C45.3533 50.1655 43.9032 49.2423 44.1813 48.6209C44.4047 47.9977 46.372 48.7968 46.7888 48.5037C46.8576 48.4552 46.7279 47.686 46.7888 47.6578C47.0335 47.5543 51.5662 47.5312 51.7736 47.6578C51.5376 48.0082 51.3015 48.3585 51.0655 48.7088C51.3793 48.7442 51.6932 48.7796 52.007 48.815C51.5608 49.0958 51.1146 49.3765 50.6684 49.6573C51.3314 52.5419 53.3289 49.6176 53.4112 48.1778C53.4469 47.5121 52.2258 45.7991 53.3621 44.8015C53.1893 44.6306 53.0166 44.4597 52.8438 44.2888C52.4878 44.5695 52.1318 44.8503 51.7758 45.131C52.0129 45.308 52.25 45.485 52.4871 45.662C52.3998 45.8622 52.3125 46.0624 52.2252 46.2626C51.5597 46.5836 50.8942 46.9047 50.2287 47.2257C49.8865 47.0777 49.9576 46.4867 49.7225 46.3725C46.7894 44.9332 48.7026 46.7647 46.7822 46.5006C46.508 46.1833 46.2338 45.8659 45.9596 45.5485C46.0563 46.8611 45.2058 46.037 44.1769 46.6032C44.2998 46.1784 44.4227 45.7536 44.5457 45.3288C43.0553 45.5549 40.034 43.4133 40.8493 45.7572C40.5079 45.5571 40.1664 45.3569 39.8249 45.1567C39.5365 45.54 39.2481 45.9233 38.9597 46.3065C38.5612 46.2626 38.1626 46.2187 37.764 46.1747C37.7622 45.9672 37.7604 45.7597 37.7585 45.5522C38.0764 45.551 38.3942 45.5497 38.7121 45.5485C38.4735 44.9162 38.2349 44.2839 37.9964 43.6516C37.7618 43.7566 37.5273 43.8616 37.2927 43.9665C38.2766 44.5646 36.9794 45.5414 36.6654 46.3761C35.8359 46.6846 35.3059 45.601 35.0278 45.5522C34.897 45.5289 33.357 47.4407 33.9608 45.3398C33.1683 45.5949 32.3759 45.85 31.5835 46.1051C31.2736 45.944 30.9638 45.7829 30.6539 45.6218C31.3264 44.6432 29.3775 43.4641 30.8132 43.0584C31.8853 42.754 32.1494 43.6689 32.6581 43.6626C33.1166 43.6581 33.3591 43.0419 33.8582 43.0144C37.2146 42.8411 39.9485 42.9542 43.1361 43.2268C43.7658 43.2816 44.3387 42.9795 44.7617 43.0217C45.2392 43.0705 44.6409 43.8434 45.2494 43.6553C45.8883 43.4564 46.0266 42.8257 46.1953 42.813C46.3002 42.8058 46.633 43.3733 46.9393 43.3733C48.198 43.3732 50.0422 42.8245 50.2211 42.8277C50.4231 42.834 53.9826 43.346 54.153 43.4392C54.2434 43.4899 54.056 45.5854 54.8404 43.3513C55.0851 43.3098 55.3299 43.2683 55.5746 43.2268C55.535 43.6455 55.4953 44.0642 55.4557 44.4829C56.9057 42.8956 56.4069 43.7836 57.8046 43.6589C61.1514 43.3589 66.0885 43.7117 69.7489 43.5637C70.5663 43.5298 70.8778 43.0285 71.8448 42.9924C72.7431 42.9607 75.089 44.4566 74.5788 42.3845C76.5778 44.1788 76.8991 41.0848 77.8998 43.0144C78.0209 42.7337 78.142 42.4529 78.2631 42.1722C79.3494 43.3768 79.6846 42.3181 80.8706 42.1722C81.3817 42.1087 80.7926 43.3901 81.8242 41.9634C82.0213 42.0696 82.2184 42.1758 82.4155 42.282C82.3697 42.5921 82.3239 42.9021 82.278 43.2122C83.4237 42.9585 83.4976 43.1201 83.3669 41.9598C83.92 42.1709 84.4731 42.3821 85.0263 42.5933C85.095 42.2124 85.1637 41.8316 85.2325 41.4507C84.9675 40.7243 72.4081 41.8198 70.6588 42.1685C68.6076 41.3064 64.4868 42.3842 62.8298 42.1795C62.1666 42.097 61.8736 41.2357 60.9085 41.1321C59.9438 41.0287 58.7297 41.811 58.2159 41.8389C56.5045 41.9361 48.3962 41.7643 53.9108 40.6927C53.7523 40.2728 53.5937 39.8529 53.4352 39.433C51.2438 40.8658 52.0372 39.9837 50.2189 39.8358C49.4535 39.7727 47.633 40.7103 47.7347 38.8031C49.1561 38.448 50.6663 39.0576 51.9023 39.0302C52.0248 39.0272 53.4883 38.1564 54.2414 38.393C54.9209 38.6089 54.4531 40.4271 55.9314 38.3856C57.0293 40.3798 57.6641 38.5706 57.9541 38.3783C58.4553 38.0449 58.5103 39.0291 59.0113 39.1437C59.5571 39.2703 59.9328 38.617 60.0074 38.6127C60.7559 38.5979 64.6541 38.5088 64.8329 38.9057C64.6761 39.0802 64.5194 39.2548 64.3627 39.4293C65.375 39.7102 65.1634 38.7039 65.4297 38.5834C65.6279 38.5871 65.826 38.5907 66.0243 38.5944C65.9457 38.8031 65.8672 39.0119 65.7886 39.2206C66.9843 39.1762 66.0694 38.4509 67.7666 38.4699C68.8442 38.4827 69.9573 39.2795 70.0621 39.2206C70.0929 39.2037 69.7537 38.6664 70.193 38.5944C70.9202 38.476 72.1776 38.4897 72.3183 39.2206C72.6744 39.1171 72.6441 38.4019 72.6914 38.3856C72.8981 38.3159 76.4562 38.0727 77.0936 38.0304C78.8597 37.9142 80.826 38.0667 82.7395 37.9462C82.9363 37.9342 82.8107 38.3931 83.0079 38.3783C83.3245 38.3548 84.9494 37.6345 85.1921 37.5837C85.7979 37.459 87.3917 37.7447 87.6425 37.5361C87.6782 37.5065 87.1536 36.8861 87.7669 36.6938C88.4477 36.481 88.0812 37.3153 88.1182 37.3237C89.5038 37.609 90.3786 37.0293 91.3246 36.9172C91.6312 36.8813 92.1969 37.5092 92.6295 37.3237C92.6792 37.3026 92.5806 36.7223 92.6295 36.6938C93.2832 36.3895 93.8947 37.4663 94.1776 37.5361C94.8697 37.7066 94.4928 36.9119 94.5289 36.9062C94.99 36.8808 95.6104 37.1675 96.3116 37.1296C99.4374 36.9605 101.988 36.912 105.311 36.9648C105.729 36.9711 106.224 37.5317 106.288 37.5324C106.485 37.5282 106.429 36.8694 106.999 36.8842C108.202 36.918 109.317 36.8862 110.508 36.8989C110.748 36.9015 110.85 37.5119 111.033 37.5251C111.646 37.5631 113.737 35.9649 113.771 37.9535C114.988 36.1931 115.796 37.7104 116.776 37.6935C119.096 37.6555 122.728 37.2968 125.041 37.5251C125.528 37.574 125.756 38.0835 126.027 38.111C126.513 38.1616 129.29 37.8769 129.436 37.9572C129.721 38.1115 129.55 40.3554 131.016 38.4003C131.876 38.261 131.775 39.1819 131.952 39.2316C133.338 39.6014 134.686 37.5461 134.435 39.4293C136.048 38.918 137.094 37.8773 137.752 39.6381C137.744 38.7788 138.503 38.2633 139.417 38.5907C138.481 40.0342 138.597 40.9567 136.332 40.6927C136.296 40.6885 136.364 40.0671 136.329 40.0628C136.005 40.0209 135.33 40.3346 134.779 40.3009C134.228 40.2671 134.534 39.8423 134.313 39.8504C134.111 39.8589 134.118 40.4535 133.826 40.462C132.877 40.4853 132.038 40.6492 131.499 40.6598C131.159 40.6659 130.778 40.1434 130.515 40.1434C129.495 40.1477 127.334 40.5557 126.036 40.4986C125.766 40.4853 125.879 39.899 125.288 39.8504C125.218 39.8448 124.966 40.4561 124.449 40.5828C123.931 40.7096 123.529 40.4061 123.196 40.4693C122.918 40.5222 123.034 41.0652 122.464 41.0992C121.989 41.1267 116.604 40.7354 116.312 40.6488C115.891 40.5239 115.691 39.7611 115.435 39.8541C115.39 39.874 115.313 40.6107 115.157 40.6634C112.575 41.534 106.861 40.529 103.912 40.5352C97.7457 40.5458 92.0573 40.9792 85.8369 41.1505C85.726 41.2786 85.615 41.4068 85.5041 41.535C86.1329 41.5398 86.7617 41.5447 87.3905 41.5496C87.3945 41.8963 87.3985 42.243 87.4025 42.5896C88.2525 42.6445 88.1399 41.8246 88.116 41.3299C88.4306 41.5398 88.7451 41.7498 89.0597 41.9598C89.331 40.7516 91.429 41.5551 92.5105 41.5533C93.214 41.5533 94.0511 41.0927 94.422 41.1285C95.2057 41.2024 95.1852 41.9479 95.2468 41.9598C95.3513 41.9767 96.4454 41.3192 97.2346 41.3445C98.4013 41.3807 98.5275 42.5254 100.125 41.5533C102.171 42.1471 104.439 41.8483 106.644 41.751C106.225 42.8091 108.201 41.8077 109.093 41.8243C114.531 41.9278 121.216 42.3799 126.726 42.7984C127.434 42.8512 127.969 43.4745 128.363 43.4539C128.577 43.4433 128.67 42.7085 128.968 42.8057C129.02 42.8244 129.056 43.5115 129.609 43.615C130.985 43.875 134.414 42.7282 135.281 44.0471C139.987 43.8432 144.692 43.6394 149.398 43.4355C149.516 43.7163 149.634 43.9971 149.752 44.2778C150.646 42.8431 154.18 43.6862 155.903 43.6186C158.936 43.4982 162.806 43.0521 165.464 43.0034C166.041 42.9929 166.514 43.3999 167.061 43.3916C167.296 43.3874 167.589 42.8597 167.833 42.8569C170.581 42.8168 174.302 43.3603 177.071 43.3477C183.358 43.3202 189.279 43.4002 195.65 43.377C217.109 43.2945 238.445 42.5185 259.722 42.8313C260.007 42.8355 259.993 43.4423 260.214 43.4465C261.519 43.4761 264.433 42.976 265.907 43.0034C267.081 43.0246 268.945 43.9523 269.349 43.0181C265.177 41.6041 260.77 41.7105 256.427 41.3153C256.119 41.2874 256.08 40.7106 256.042 40.7C255.339 40.4996 255.783 41.294 254.763 41.3299C254.423 41.3419 251.275 39.5006 251.65 41.3336C250.896 40.6003 245.583 40.2338 244.557 40.4767C244.246 40.5506 244.466 41.0937 244.404 41.1212C244.136 41.2411 244.015 40.4923 243.775 40.473C243.135 40.4265 241.509 41.0338 241.2 41.0296C240.489 41.0231 238.358 40.4136 237.419 40.5572C236.558 40.6883 236.719 41.4704 235.975 41.5423C235.389 41.5969 236.028 40.939 234.718 40.7403C234.07 40.6431 231.8 41.1138 231.248 41.1138C230.697 41.1138 230.083 40.6458 229.322 40.6817C228.227 40.7325 225.843 40.9931 224.728 41.1431C224.662 41.1516 224.499 41.76 224.335 41.7474C223.996 41.7219 224.098 40.9704 223.841 40.8941C223.585 40.818 219.139 40.9098 218.384 40.9014C217.864 40.8972 217.504 41.3448 217.217 41.3409C216.991 41.3367 216.967 40.7107 216.737 40.7037C216.665 40.7037 216.059 41.2474 215.452 41.2347C214.88 41.2219 212.705 40.7049 212.453 40.7C212.289 40.6979 212.469 41.1427 211.984 41.1321C211.542 41.1213 211.252 40.5437 211 40.5352C210.416 40.5165 209.762 41.0089 209.142 41.0113C207.359 41.0176 207.451 40.3022 207.344 40.2789C207.048 40.2143 206.929 40.8696 206.831 40.8831C206.42 40.9381 205.413 41.0591 205.046 41.0845C204.59 41.1162 204.397 40.4934 203.912 40.4913C203.55 40.4917 202.821 41.0989 201.996 41.1285C200.137 41.1982 197.927 41.3129 196.101 41.2896C195.557 41.2833 195.473 40.7148 195.307 40.7C194.433 40.622 193.943 41.2576 193.693 41.2493C191.913 41.1923 188.737 40.195 187.085 40.1105C186.413 40.0766 183.467 40.5371 181.806 40.4547C181.616 40.4461 181.794 40.0004 181.582 40.0702C181.076 40.2374 181.123 41.145 180.867 41.1175C180.743 41.1015 180.46 40.5898 180.1 40.5389C178.229 40.2747 176.942 40.6726 176.089 40.6451C167.893 40.3809 159.536 40.1432 151.882 40.0628C151.028 40.0544 149.97 40.5943 148.682 40.0702C148.642 39.7882 148.603 39.5062 148.563 39.2242C148.518 39.5013 148.473 39.7784 148.428 40.0555C146.968 40.2056 146.417 40.5622 144.927 40.2093C144.798 40.1797 144.407 38.8925 144.164 40.4913C142.688 39.3331 143.498 40.5007 142.402 40.6085C141.306 40.7162 140.242 40.3593 139.179 40.2789C138.597 39.7061 141.041 38.3851 141.2 38.3893C141.456 38.3944 141.723 39.1893 141.97 39.2316C142.702 39.358 143.41 38.7272 143.574 39.4366C144.52 38.6865 143.342 39.0613 143.46 38.3857C144.092 38.6652 144.723 38.9447 145.354 39.2242C145.676 36.9262 149.164 39.9231 148.922 38.1733C149.199 38.5236 149.477 38.8739 149.754 39.2242C150.971 37.029 151.687 38.5748 153.31 39.2279C153.193 38.9472 153.076 38.6664 152.959 38.3857C152.992 38.2685 154.424 37.8195 153.912 39.0155C155.381 37.4397 155.319 40.0609 156.635 38.1659C157.417 37.9229 156.947 39.0235 158.347 39.0045C159.177 38.994 160.207 38.4185 161.134 38.3783C161.347 38.3709 161.44 39.0082 161.63 39.0082C161.82 39.0079 161.913 38.3831 162.143 38.3673C162.618 38.3335 163.234 38.7722 163.532 38.7299C163.798 38.6938 164.178 38.1427 164.82 38.0561C167.061 37.7497 166.384 38.5367 166.738 38.8031C167.118 39.0863 167.392 38.0493 168.15 38.1696C168.226 38.1823 168.029 38.8285 168.276 38.8031C168.476 38.7832 168.576 38.0808 169.236 37.9499C169.499 37.897 173.582 37.7466 174.204 37.7338C175.157 37.7148 177.28 38.3093 178.267 38.3051C178.647 38.305 179.053 37.741 179.457 37.7448C180.795 37.7575 182.938 37.8052 184.635 37.8327C186.163 37.8582 188.846 39.103 189.683 37.9792C191.829 37.8334 192.35 38.7937 192.512 38.8068C192.949 38.8427 193.152 38.2065 193.703 38.1769C200.846 37.8071 210.252 38.2276 217.017 38.1769C232.71 38.0543 248.488 37.7067 264.236 37.9645C264.278 37.6825 264.32 37.4006 264.362 37.1186C262.501 36.9368 260.314 36.447 258.476 36.3349C256.023 36.1871 252.384 37.3614 250.585 35.4341C251.315 35.2651 252.504 36.004 252.482 35.013C251.178 34.9422 249.873 34.8714 248.569 34.8006C248.608 35.2583 248.647 35.7161 248.686 36.1738C247.324 36.3069 245.93 36.2072 244.564 36.2727C244.326 36.2835 244.494 36.699 244.288 36.7011C244.056 36.7026 244.213 36.2797 244.17 36.2763C243.585 36.2721 243.409 36.7 243.337 36.6938C243.154 36.6769 243.297 36.2696 242.769 36.1555C241.79 35.9423 241.089 37.0243 241.319 35.2217C241.003 35.2217 240.687 35.2217 240.371 35.2217C240.289 35.7124 240.207 36.2031 240.125 36.6938C238.182 34.7127 237.285 38.1879 236.211 35.4304C235.857 35.8516 235.503 36.2727 235.148 36.6938C234.949 36.2031 234.749 35.7124 234.549 35.2217C234.51 35.6428 234.472 36.0639 234.433 36.4851C232.524 36.1745 230.492 36.6801 228.667 36.6316C227.395 36.5977 227.091 36.4315 225.964 36.4631C223.459 36.535 225.947 35.6993 223.865 34.7969C223.974 35.3132 224.082 35.8296 224.19 36.3459C223.846 36.5351 223.501 36.7243 223.156 36.9135C222.916 36.4924 222.676 36.0713 222.436 35.6501C221.371 37.8345 220.682 36.0713 220.537 36.0713C220.419 36.0751 220.017 37.3901 218.757 36.2763C219.28 38.0742 217.796 36.2869 217.677 36.2763C217.564 36.2691 216.119 36.6704 215.533 36.6535C215.072 36.6407 214.088 36.2537 213.401 36.2727C212.795 36.2895 212.856 36.8999 212.812 36.9062C212.066 36.9569 212.534 36.4827 211.994 36.4594C211.454 36.4362 211.036 36.9564 210.919 36.9099C210.861 36.8851 211.057 36.3166 210.788 36.2617C210.068 36.1119 208.766 36.6097 207.941 36.5949C207.649 36.5903 207.28 36.108 206.955 36.0932C206.456 36.0722 206.222 36.7128 205.932 36.6938C205.831 36.6854 205.188 35.6959 204.387 35.8479C204.235 35.8784 203.788 37.9724 203.194 35.0056C203.148 35.4231 203.102 35.8406 203.056 36.258C200.373 37.2916 199.626 33.9001 198.433 36.9099C196.484 36.5737 197.822 35.4013 197.608 35.2217C197.47 35.1082 196.834 35.4305 196.765 35.4121C196.641 35.3762 196.662 34.9999 196.527 35.002C194.043 35.0717 195.146 35.7822 194.359 36.2324C192.488 37.3039 191.029 34.925 194.283 35.6392C194.283 35.4292 194.283 35.2192 194.283 35.0093C193.481 35.21 191.448 35.1147 192.127 34.0498C192.662 33.2108 197.487 33.7584 194.754 32.5814C194.134 32.3151 193.812 33.103 192.738 31.6256C192.027 31.5455 191.925 33.4594 190.963 32.6912C191.121 33.359 191.279 34.0267 191.437 34.6944C190.125 35.5647 188.507 34.3972 187.499 34.7713C187.156 34.8987 185.923 38.0821 186.21 34.8994C185.635 35.0979 182.923 34.5116 182.419 34.7969C182.298 34.8658 182.14 36.5603 180.387 35.9687C180.265 35.7563 180.143 35.5439 180.021 35.3315C181.625 34.7145 178.792 34.0868 179.562 32.4789C179.823 33.2016 181.095 33.6424 181.3 34.0059C181.649 34.6315 180.608 35.4378 181.935 35.218C182.771 32.5306 180.38 33.7672 180.745 31.2155C179.004 32.4066 178.83 31.2701 178.436 31.2228C176.751 31.0305 175.69 31.3009 174.1 31.0031C173.713 31.5272 176.591 32.2839 176.948 32.0577C175.636 33.9155 177.894 33.9996 178.847 32.8963C178.927 33.4578 179.007 34.0193 179.087 34.5808C177.846 34.2765 176.636 34.1201 175.407 34.5808C175.327 34.3709 175.247 34.1609 175.167 33.951C175.443 33.6348 175.718 33.3187 175.994 33.0025C174.972 32.4848 175.585 34.1222 174.223 32.6876C174.181 33.3199 174.139 33.9522 174.097 34.5845C172.791 34.3745 171.486 34.1646 170.18 33.9546C169.5 35.2226 166.988 34.7503 167.448 33.1087C166.434 32.9928 167.686 33.8665 166.736 34.2659C166.322 34.4392 165.514 34.4879 165.314 34.0462C165.4 32.483 166.61 32.289 166.976 31.2155C166.754 30.8691 161.128 31.9852 161.63 30.1571C161.181 29.9374 161.387 30.8791 160.577 31.1202C158.307 31.7924 154.791 29.931 152.963 32.2665C155.109 33.5663 155.744 32.1896 157.389 32.1346C158.44 32.0987 164.846 31.877 163.415 33.5298C163.65 33.3199 163.885 33.1099 164.121 32.9C164.359 33.3919 164.596 33.8838 164.834 34.3758C164.164 34.4466 163.494 34.5174 162.824 34.5882C162.664 34.0975 162.504 33.6067 162.343 33.116C162.27 33.4664 162.196 33.8167 162.122 34.167C161.84 34.2366 161.558 34.3062 161.275 34.3758C161.355 33.9546 161.434 33.5335 161.513 33.1124C161.078 33.0404 160.643 32.9683 160.208 32.8963C160.326 33.459 160.443 34.0218 160.56 34.5845C158.511 34.726 159.205 34.3736 158.069 33.3211C157.221 33.2135 158.654 34.2951 156.859 34.5699C154.772 34.8889 156.141 33.1694 153.439 33.5372C153.4 33.8179 153.361 34.0987 153.322 34.3794C152.728 34.0987 152.134 33.8179 151.539 33.5372C151.618 33.8863 151.696 34.2354 151.775 34.5845C150.548 34.4492 148.858 35.1155 148.452 33.7459C149.695 34.4053 149.683 32.014 149.359 31.5743C148.692 30.6723 138.834 31.5115 136.923 31.5707C134.48 31.6467 132.633 30.8807 130.401 32.0577C131.914 33.0231 137.232 32.2322 138.24 32.9C138.34 32.9655 138.312 35.1577 138.953 32.6912C141.021 33.1096 143.493 32.4107 146.077 32.4825C145.998 33.1136 145.919 33.7447 145.84 34.3758C144.252 33.0336 142.782 35.9816 142.989 33.5298C142.673 33.5298 142.357 33.5298 142.041 33.5298C142.041 33.9522 142.041 34.3745 142.041 34.7969C141.565 34.7969 141.088 34.7969 140.612 34.7969C140.612 34.3745 140.612 33.9522 140.612 33.5298C140.217 33.5298 139.823 33.5298 139.428 33.5298C139.387 33.951 139.346 34.3721 139.305 34.7932C138.123 33.9185 134.095 36.2573 135.866 33.7422C135.311 33.7422 134.756 33.7422 134.201 33.7422C134.203 34.0511 134.205 34.3599 134.207 34.6687C133.968 34.7102 133.729 34.7517 133.491 34.7932C133.569 34.5137 133.648 34.2342 133.726 33.9546C132.633 34.4555 131.597 32.9839 130.879 33.951C131.352 34.1621 131.826 34.3733 132.299 34.5845C131.391 34.1833 129.718 35.0145 129.569 35.0166C129.112 35.0208 128.872 34.3965 128.377 34.3648C127.931 34.3377 127.992 34.8175 127.909 34.8006C125.502 34.3122 126.419 31.715 125.295 34.7896C125.176 34.3697 125.056 33.9498 124.936 33.5298C124.777 33.8802 124.618 34.2305 124.458 34.5808C123.747 34.5479 123.036 34.5149 122.325 34.482C122.563 35.0068 122.8 35.5317 123.037 36.0566C121.971 36.2909 121.474 35.2385 121.371 35.2144C121.079 35.1531 120.945 35.8137 120.855 35.8149C116.512 35.7579 119.15 35.1762 116.98 32.6949C116.206 33.6687 116.989 34.6449 117.098 35.6355C116.07 35.1708 115.748 35.4451 114.662 35.3901C114.38 35.3752 114.076 34.8407 113.897 34.8335C113.743 34.8272 113.26 35.3951 112.889 35.3975C112.271 35.4017 111.449 35.0631 110.603 35.0715C109.899 35.08 107.745 35.4811 106.243 35.4853C105.602 35.4853 105.751 35.0103 105.585 35.0093C105.516 35.0093 105.017 35.5783 104.605 35.5806C101.252 35.5932 97.8143 35.2331 94.4438 35.2437C92.0692 35.25 89.6563 35.7076 87.277 35.6611C86.7707 35.6506 87.0387 35.2328 86.8177 35.218C86.7417 35.2143 86.6503 35.9432 85.8674 35.6501C85.5846 35.5445 85.9099 35.0347 85.6318 35.0093C85.4964 34.9972 85.4389 35.6362 84.6477 35.782C83.2098 36.0481 82.4369 35.1963 82.3086 35.2217C82.0665 35.2707 82.1373 35.7996 81.8165 35.8186C80.2481 35.9116 78.9385 36.0012 77.5387 36.0456C76.8851 36.0668 72.3781 36.1737 72.1306 36.0786C71.5769 35.8673 72.0923 34.763 71.3822 34.8006C71.1832 35.0801 70.9843 35.3596 70.7854 35.6392C71.1014 35.8515 71.4174 36.0639 71.7335 36.2763C70.8635 35.9213 69.8771 36.4235 69.2329 36.4045C69.1138 36.4002 68.0187 35.8994 67.46 35.9541C67.6975 35.7466 67.935 35.5391 68.1724 35.3315C68.0884 35.1545 68.0044 34.9776 67.9204 34.8006C66.8033 35.0689 65.6217 35.062 64.4761 35.0239C64.063 35.011 64.2026 34.581 63.7844 34.5662C61.3484 34.4755 61.9637 36.2635 59.6201 32.9073C60.4114 33.2116 63.2982 32.7846 63.7179 32.8963C64.0102 32.9745 65.1441 35.8104 64.7281 32.9C67.0671 32.9127 65.0355 34.5179 67.22 34.167C67.1764 33.8118 67.1327 33.4566 67.0891 33.1014C67.8517 32.8775 68.415 32.698 68.8783 33.3248C69.0338 31.6015 71.6248 32.6097 73.046 32.4935C75.0996 32.3286 77.4199 31.9083 79.4545 31.8343C80.1555 31.8093 80.5525 32.4846 80.6404 32.4825C80.769 32.4777 81.1301 31.8862 81.3867 31.8819C82.3447 31.8651 85.2592 32.865 85.9842 31.2228C80.284 31.2228 74.5839 31.2228 68.8838 31.2228C69.6004 32.03 63.8346 32.1089 63.5422 32.0687C63.2716 32.0326 63.4994 31.4659 63.4189 31.4315C62.82 31.1885 62.3086 32.0101 62.1185 32.0101C61.9735 32.01 61.6806 31.6245 61.1649 31.6329C61.0703 31.6341 61.044 32.0419 60.9424 32.0431C60.2697 32.0431 59.6056 32.0373 58.9306 32.0394C58.8894 32.0355 58.7191 31.4399 58.5487 31.4388C58.3778 31.4388 58.2088 32.0339 58.1658 32.0357C57.6262 32.0315 56.7012 31.6445 56.1878 31.6403C56.0097 31.6404 56.1331 32.0765 55.9336 32.0724C55.3203 32.0618 55.5223 31.208 54.764 31.4279C54.5098 31.5019 54.5263 32.1548 54.0396 32.0687C53.6949 32.0074 53.7321 30.8439 53.6774 30.8017C53.6019 30.7506 52.4125 31.6694 52.0234 30.9079C52.8736 28.8974 51.0934 30.8029 51.179 31.6512C50.7077 31.4376 50.2363 31.224 49.765 31.0104C49.6043 31.2252 49.4435 31.4401 49.2828 31.6549C47.3812 30.6869 46.2211 31.2681 44.3504 30.9701C44.2601 30.9553 42.6838 30.4777 42.7575 30.1755C43.701 29.6556 44.6423 29.6319 45.2461 30.5929C46.2397 28.7605 46.2567 30.2208 47.8612 29.9777C48.3984 29.8953 48.4366 29.3981 48.4984 29.3918C50.5875 29.1445 53.9337 28.9306 55.3412 30.3842C55.7357 29.9911 54.3173 29.8351 54.8687 29.5456C55.1696 29.387 62.4083 28.9228 60.0957 30.5966C60.3358 30.5502 60.5758 30.5038 60.8158 30.4574C61.0559 28.8765 62.2496 29.238 62.1141 30.8126C62.2272 30.4904 62.3403 30.1681 62.4534 29.8459C62.6768 29.5732 62.9412 29.4272 63.312 29.3405C64.7319 29.0109 73.1793 29.5593 73.6285 29.3332C73.6387 28.9597 73.6489 28.5861 73.6591 28.2126C69.9272 27.7899 66.3068 28.7181 62.2374 27.6487C62.3556 27.999 62.4738 28.3493 62.5919 28.6997C60.9682 28.209 59.3444 27.7183 57.7206 27.2275C59.4392 26.5935 62.1734 26.061 63.9775 26.583C64.2982 26.6761 64.0631 27.1647 64.1368 27.2239C64.3293 27.3776 64.5363 26.5299 65.2278 26.4475C65.9196 26.3652 67.6575 26.9661 67.8168 26.9492C68.1238 26.9144 68.9524 25.9445 69.4751 25.9568C70.1621 25.9737 69.7016 26.574 69.8395 26.5867C70.4098 26.6457 70.9212 26.3482 71.368 26.3926C72.0313 26.4586 73.4093 27.5142 73.8729 25.9642C73.3991 25.8934 72.9252 25.8226 72.4514 25.7518C75.0209 25.1959 77.0299 27.1773 79.5614 25.6492C80.1367 23.7724 78.045 24.026 79.8134 23.225C79.4923 23.2518 79.1712 23.2787 78.8501 23.3055C78.7748 23.6986 78.6995 24.0917 78.6243 24.4847C78.0711 24.204 77.518 23.9232 76.9648 23.6425C77.1227 23.9928 77.2805 24.3431 77.4383 24.6934C75.4773 24.9576 73.4971 25.3169 72.8125 23.4337C72.7721 23.889 72.7317 24.3443 72.6914 24.7996C70.8707 24.246 68.1375 26.1759 68.6481 23.6425C68.5619 23.7767 68.4757 23.911 68.3895 24.0453C67.289 23.5274 67.759 24.5751 67.3455 24.6934C67.2273 24.7268 65.0882 24.1858 66.0363 23.4337C63.9494 22.8589 64.5929 25.2267 64.0179 25.3306C62.682 24.1576 60.2791 25.9172 61.2893 24.0636C61.0904 23.994 60.8914 23.9244 60.6925 23.8548C60.0388 25.3132 59.3945 23.6631 58.6862 23.1115C58.4461 23.0785 58.2061 23.0455 57.9661 23.0126C57.8054 23.5033 57.6446 23.994 57.4839 24.4847C55.2257 22.1492 55.9407 28.5364 54.9091 23.1701C55.0699 22.849 55.2306 22.528 55.3913 22.2069C55.7725 22.0544 56.1536 21.9018 56.5347 21.7492C54.9975 21.6076 53.4603 21.466 51.923 21.3244C49.9718 19.8202 48.8615 21.4523 46.6938 20.2624C46.4909 20.4052 46.288 20.5481 46.0851 20.6909C46.2919 19.4756 47.0792 19.6542 45.6127 19.1089C45.4876 18.2497 46.4781 18.1385 46.9295 18.7976C47.0383 18.9585 46.1123 19.6166 47.1532 19.6399C47.8608 19.6565 46.5759 18.6239 48.6958 19.0064C48.6173 18.7964 48.5387 18.5865 48.4602 18.3765C48.69 18.3826 48.9199 18.3887 49.1497 18.3948C49.3541 18.8806 49.5585 19.3665 49.7628 19.8523C50.2881 19.1506 50.583 18.1673 51.7834 18.3765C51.4578 18.6808 51.8996 19.6564 52.4936 19.6399C52.4936 19.2883 52.4936 18.9368 52.4936 18.5852C53.9317 18.3591 53.4353 19.3905 54.6309 18.5852C54.7506 18.8648 54.8702 19.1443 54.9898 19.4238C55.6411 18.2719 58.0391 17.4883 57.6017 19.2151C58.2744 17.5369 59.6872 18.2941 60.2125 19.6362C60.2528 19.2871 60.2932 18.938 60.3336 18.5889C60.6132 18.5181 60.8929 18.4473 61.1726 18.3765C61.3286 18.5877 61.4846 18.7988 61.6406 19.01C61.8388 18.7988 62.037 18.5877 62.2352 18.3765C62.3548 18.7268 62.4745 19.0772 62.5941 19.4275C62.9127 19.0076 63.2313 18.5877 63.5499 18.1678C63.7448 18.4473 63.9397 18.7268 64.1346 19.0064C64.1548 18.2756 66.086 18.1129 66.6254 18.5926C66.7861 18.3802 66.9469 18.1678 67.1076 17.9554C67.1862 18.3033 67.2647 18.6511 67.3433 18.999C67.4629 18.7207 67.5826 18.4424 67.7022 18.1641C67.9779 18.4424 68.2535 18.7207 68.5292 18.999C69.6535 17.2935 69.6897 18.7899 69.9464 18.7793C70.4223 18.7597 72.043 17.6917 72.3139 17.7466C72.5845 17.802 72.7151 18.4141 72.9336 18.4717C76.5346 19.4333 75.0543 17.7907 75.7767 17.5306C76.1665 17.389 76.4424 17.96 76.787 17.8968C77.3765 17.7911 80.3503 17.0355 80.5215 17.1094C80.7706 17.2162 80.1841 19.9091 80.9939 19.2151C81.0208 17.7691 82.7525 19.2286 81.9431 17.212C82.6562 17.389 83.3694 17.566 84.0825 17.743C84.0017 16.0289 84.8811 17.1313 85.8391 17.0362C87.1965 16.9029 90.2526 15.7759 90.1409 17.5342C90.466 17.1302 90.7911 16.7262 91.1162 16.3221C93.341 16.8756 95.5229 16.2956 97.731 16.2745C104.284 16.209 111.394 16.5907 117.917 16.9373C118.23 16.9545 118.185 17.5289 118.411 17.5416C119.597 17.605 122.68 17.1987 124.342 17.3255C124.874 17.3657 125.133 17.926 125.302 17.9517C125.875 18.0426 125.739 17.3044 126.003 17.3255C126.419 17.3594 128.621 18.0446 129.379 18.1165C129.754 18.1521 130.198 17.5655 130.638 17.7466C130.676 17.7614 130.606 18.3659 130.638 18.3765C131.439 18.4505 130.957 17.9279 131.228 17.9554C133.16 18.1519 135.226 18.1639 137.322 18.2886C137.843 18.3203 138.64 18.7465 139.087 18.7866C139.257 18.8008 138.951 18.3421 139.54 18.3802C139.742 18.3932 139.811 18.9896 140.039 19.0283C141.021 19.1911 141.349 17.2743 142.193 18.8159C143.821 18.7145 146.655 18.2223 148.141 18.2117C148.492 18.2099 148.663 18.5622 148.998 18.5559C149.236 18.5517 149.654 18.0059 150.025 17.9993C150.396 17.993 150.981 18.5127 151.694 18.4937C152.445 18.4746 153.379 18.1659 153.548 18.1678C153.752 18.1678 153.848 18.8242 154.052 18.8159C154.67 18.7948 156.325 18.1496 157.121 18.0799C157.976 18.006 158.49 18.3242 158.782 18.3179C159.053 18.3091 159.369 17.7552 159.493 17.7503C159.685 17.7419 159.731 18.3892 159.975 18.3838C160.374 18.3733 160.786 17.9662 161.384 17.9554C172.167 17.7546 182.738 18.1102 193.228 18.5816C194.397 18.6344 195.058 18.1804 196.781 18.3875C197.48 18.472 197.185 19.14 197.729 19.0137C197.972 18.9566 197.91 18.4312 198.217 18.4058C199.572 18.2959 201.15 18.7841 201.737 18.7757C201.97 18.7732 202.236 18.1764 202.714 18.1678C206.272 18.1001 210.482 18.2677 214.311 18.1641C216.339 18.1092 219.408 17.8051 221.736 17.7649C228.165 17.6529 235.082 17.7912 240.946 17.732C249.8 17.6453 258.612 17.0935 267.447 17.7466C263.314 16.3031 257.685 16.4236 253.083 16.2672C239.791 15.8191 225.638 16.6578 212.016 16.6261C207.276 16.6155 201.3 16.6487 196.111 16.3148C195.876 16.3 195.388 16.7589 194.879 16.7103C194.771 16.699 193.431 15.8618 192.98 15.8534C193.408 17.3413 191.639 16.0152 191.093 16.0511C190.403 16.0979 188.965 16.8415 187.351 16.421C185.887 16.0406 186.291 15.4682 186.21 15.4323C185.692 15.2003 185.512 16.1227 185.115 16.2159C183.494 16.5879 175.155 16.052 172.828 16.0182C172.227 16.0097 172.21 15.4234 172.074 15.4213C171.715 15.4174 171.205 15.9965 170.63 15.9925C169.593 15.9841 168.4 15.4307 167.829 15.4286C166.465 15.4223 163.876 16.0751 162.102 16.0878C161.604 16.0916 161.634 15.4814 161.409 15.4835C160.415 15.4942 157.826 16.2132 156.593 16.2196C154.589 16.2301 152.528 15.8357 150.491 16.0365C150.362 15.7643 150.233 15.4921 150.104 15.2199C149.9 15.5055 149.696 15.7911 149.493 16.0768C146.048 15.8591 142.542 16.4721 139.117 16.432C138.722 16.4277 136.769 15.9068 136.443 15.9047C136.172 15.9047 135.905 16.5789 135.504 16.4796C134.941 16.3418 135.471 15.0577 134.551 15.4249C134.304 15.5243 134.544 16.0739 134.047 16.2452C133.883 16.3023 130.7 16.525 130.529 16.4869C130.244 16.4228 129.989 15.2452 129.916 15.2199C129.533 15.0869 129.549 15.9907 129.293 16.0731C128.535 16.3198 127.546 15.7119 127.423 15.7252C125.935 15.8922 123.153 16.6136 121.591 16.1866C121.375 16.1271 121.401 15.4541 121.363 15.4323C121.119 15.2928 120.966 16.059 120.734 16.0768C119.481 16.1634 117.519 15.6475 116.26 15.5165C116.114 15.5022 115.808 15.8708 115.549 15.8351C114.085 15.6279 114.56 15.0365 114.477 15.0111C114.28 14.9484 113.933 15.6007 113.408 15.641C112.055 15.7488 109.461 15.6551 108.012 15.6044C106.925 15.5642 106.942 14.8172 106.87 14.8024C106.718 14.7756 106.295 15.372 105.58 15.4396C104.204 15.5727 104.36 14.9858 103.795 15.0111C103.747 15.0111 103.83 15.5855 103.202 15.6446C101.99 15.7586 99.2666 15.194 97.9688 15.2235C97.4697 15.2341 97.3529 15.7879 96.8418 15.7985C96.0316 15.8174 94.2028 15.2183 94.0587 15.2199C94.0183 15.2199 93.9276 15.857 93.6899 15.857C93.4285 15.8569 93.1713 15.529 92.9764 15.5311C91.8665 15.5399 89.9543 16.6519 90.4856 14.3776C90.13 14.9391 89.7743 15.5006 89.4186 16.0621C87.0939 15.9501 84.8355 16.175 82.5322 16.2892C82.0142 16.3145 81.5817 15.8837 81.1445 15.9047C80.7073 15.9258 78.7786 16.6383 78.4562 16.6517C77.881 16.6749 74.6122 16.75 74.2057 16.6993C73.4118 16.6021 72.6416 15.6622 72.3183 15.8461C72.0591 15.994 72.2988 16.5236 71.8044 16.6737C70.9486 16.9332 69.4943 16.253 69.2329 16.2635C69.1212 16.2678 69.3302 16.6806 68.2848 16.7103C67.7214 16.7272 67.419 16.2724 67.2145 16.2745C67.151 16.2769 67.2463 17.0144 66.1312 16.9154C65.3611 16.8456 65.0326 16.2766 64.9518 16.2745C64.8305 16.2707 64.5378 16.8779 64.0506 16.8568C62.912 16.8038 60.8303 16.1077 59.7488 16.0548C59.5396 16.0442 59.6108 16.7777 58.7767 16.7103C58.1802 16.6617 58.2844 16.0781 58.061 16.0548C57.7069 16.0189 57.1792 16.7334 56.3972 16.7103C55.4132 16.6807 48.1062 15.9395 47.7281 15.7472C47.4738 15.6183 47.1787 15.6101 47.0528 15.2931C47.1608 14.9892 47.2688 14.6852 47.3768 14.3813C48.4958 15.4479 48.0443 14.2289 48.3413 14.1506C48.7715 14.0385 50.3929 14.194 50.7851 13.9235C50.9249 13.8258 50.6049 13.177 51.3557 12.8432C52.1613 12.4864 52.5197 13.6414 52.8406 12.0632C53.9839 13.8154 55.0821 11.9557 53.7581 11.459C53.019 11.182 45.7688 10.5565 44.2882 10.4593C43.0877 10.3812 40.8394 10.8507 39.3634 10.7302C38.4958 10.6584 36.359 10.5769 36.4493 9.73785C35.6792 9.63217 36.4942 10.4675 36.3326 10.5838C35.9946 10.8265 33.5908 10.2496 33.136 10.2725C30.892 10.3824 28.0605 11.3204 25.8808 10.2615C25.9822 10.0369 26.0837 9.81231 26.1852 9.58771C26.6748 9.17556 28.9473 9.76478 29.204 8.68685C25.8808 8.68685 22.5576 8.68685 19.2344 8.68685C19.2962 9.60414 15.1744 9.59182 14.9795 9.17756C15.0518 8.73324 15.1242 8.28892 15.1966 7.84459C17.5258 9.53084 17.3169 7.30189 18.8809 8.48544C19.5176 8.50213 19.3255 7.76801 19.6392 7.62854C22.7619 6.24243 19.6892 9.13501 22.0797 8.47812C21.3602 7.41327 23.3179 7.02414 24.1952 6.88881C24.3949 6.85922 27.0171 7.1291 27.3286 7.1122C29.0779 7.01708 32.0824 6.43372 33.82 7.01698C35.1891 7.08673 35.9428 6.32824 37.1858 6.15275C38.1293 6.01962 37.8588 6.55269 38.303 6.55923C39.2347 6.57403 39.5414 4.9511 40.138 7.21473C40.7697 6.93276 41.4014 6.65078 42.0331 6.36881C42.0331 6.72036 42.0331 7.07191 42.0331 7.42347C42.4299 7.42347 42.8266 7.42347 43.2234 7.42347C43.3401 7.07314 43.4569 6.7228 43.5736 6.37247C44.8328 6.85228 44.3071 7.69881 44.5424 8.69418C44.8144 8.76253 45.0864 8.83089 45.3585 8.89925C45.569 8.13511 45.7796 7.37098 45.9902 6.60684C47.2048 6.66909 48.4195 6.73135 49.6341 6.7936C49.7127 7.14393 49.7912 7.49426 49.8698 7.8446C49.8723 7.49426 49.8749 7.14393 49.8774 6.7936C51.9343 6.72158 53.9912 6.64956 56.0481 6.57754C56.5953 6.01553 53.2996 5.58966 53.05 5.55585C51.6617 5.36992 47.9751 5.93336 47.9703 4.68429C47.1073 5.61626 44.5094 5.38486 43.7012 4.26682C44.9279 4.33396 46.1545 4.4011 47.3812 4.46823C47.3416 4.04955 47.3019 3.63086 47.2623 3.21217C48.7906 4.90083 49.0143 4.80789 50.5855 3.21217C50.5869 3.77367 50.5884 4.33518 50.5898 4.89669C51.6854 2.94419 53.6218 6.25624 53.6774 3.84569C54.2607 4.041 54.844 4.23631 55.4273 4.43161C56.6869 4.13776 54.731 2.28388 59.6626 3.01076C60.0025 3.06148 59.9317 3.67553 60.4427 3.6333C60.5901 3.62062 61.434 2.72734 63.048 2.82033C63.2999 2.83519 63.319 3.36792 63.5804 3.43555C64.1841 3.59615 65.3865 2.54255 64.8405 4.2595C67.2315 4.76025 66.2405 3.35111 66.9821 2.79104C67.4764 2.41935 67.3769 3.4352 67.8048 3.20485C68.3342 2.91916 67.9456 1.89506 70.0653 2.36625C69.8275 2.43583 69.5896 2.5054 69.3518 2.57498C69.4715 2.85329 69.5911 3.13161 69.7108 3.40992C70.9205 2.74212 70.8062 3.71786 71.3767 2.15385C72.2562 2.85132 73.0171 2.90686 74.2199 2.78005C76.5564 2.53277 75.3586 0.847245 78.0253 3.11696C78.4573 2.79836 78.8894 2.47977 79.3214 2.16118C80.0316 2.83112 79.4571 3.66931 80.5171 3.83837C79.6876 2.18345 81.9241 2.78687 82.302 1.31159C82.3417 1.66314 82.3813 2.0147 82.4209 2.36625C82.6577 2.36625 82.8944 2.36625 83.1312 2.36625C83.1319 2.08428 83.1326 1.8023 83.1334 1.52033C83.4487 1.7315 83.764 1.94268 84.0793 2.15385C84.3164 1.87432 84.5535 1.59479 84.7906 1.31526C85.1805 1.90484 85.5703 2.49442 85.9602 3.084C86.2049 3.12428 86.4497 3.16456 86.6944 3.20485C86.6169 2.78494 86.5395 2.36503 86.462 1.94512C86.7766 2.08549 87.0912 2.22587 87.4057 2.36625C87.0397 1.67722 87.2698 0.869329 88.2491 0.890465C89.0572 0.907415 88.1469 2.3455 89.8845 1.74737C90.0058 1.70473 90.2203 0.679091 91.8625 0.520601C93.832 0.330565 92.8753 1.07346 93.2262 1.0992C93.2952 1.10342 93.8968 0.587262 94.4602 0.513277C94.7799 0.471161 95.0878 0.887888 95.13 0.886801C95.3273 0.867783 95.3849 0.278235 95.6581 0.256939C96.352 0.206225 97.2836 0.495093 97.9634 0.465672C98.2724 0.452992 98.563 0.1037 98.7009 0.0994728C98.9148 0.095435 99.1861 0.628915 99.4024 0.626799C100.201 0.61564 101.413 -1.15439 101.784 1.30427C102.552 -0.956567 104.16 1.77684 104.042 0.2606C106.094 0.832841 111.566 -1.0273 111.406 1.52033C112.568 -0.658028 112.464 0.919521 112.95 0.886803C113.495 0.850872 113.213 0.428341 113.645 0.447363C114.656 0.491776 115.621 0.673277 116.626 0.681731C116.468 1.03084 116.31 1.37995 116.153 1.72906C117.208 1.84107 116.845 1.02863 117.921 0.872155C119.901 0.586829 119.067 1.23506 119.359 2.15019C119.281 1.26672 121.615 1.40408 121.853 1.52033C121.995 1.59118 121.374 2.72987 122.803 2.36259C122.725 2.01226 122.647 1.66193 122.569 1.31159C123.22 1.79075 124.989 1.18276 125.29 1.30061C125.428 1.35556 126.165 4.18084 126.84 1.94512C126.922 2.29545 127.003 2.64578 127.084 2.99611C127.834 2.57498 128.583 2.15385 129.333 1.73272C129.453 2.36381 129.572 2.99489 129.692 3.62598C129.93 3.62598 130.168 3.62598 130.405 3.62598C130.248 3.06569 130.09 2.50541 129.932 1.94512C131.401 2.19868 133.195 1.31518 133.497 3.20485C133.812 2.85452 134.127 2.50418 134.441 2.15385C134.646 2.7825 134.851 3.41114 135.055 4.03978C136.512 3.88123 136.536 3.46097 137.532 2.79104C137.493 3.28175 137.454 3.77246 137.415 4.26316C138.15 3.57416 139.491 2.93263 140.551 2.84597C141.055 2.806 141.92 3.48219 142.039 3.4209C142.159 3.35629 143.341 0.699584 143.469 2.99978C145.209 1.98104 145.975 3.02148 146.681 2.99611C147.14 2.97903 147.349 2.42697 147.867 2.36991C148.609 2.2875 149.355 2.55441 149.783 2.51639C150.028 2.49314 150.073 1.9547 150.242 1.9378C151.04 1.85565 150.573 2.40583 151.414 2.36991C151.491 2.36369 152.106 1.70691 152.799 1.79132C153.187 1.83799 154.189 2.57678 154.278 2.57498C154.67 2.5623 154.356 1.08539 155.697 2.79104C155.658 2.51029 155.619 2.22954 155.58 1.94878C157.24 1.23651 157.501 2.48833 157.837 2.57498C157.879 2.58211 158.283 2.09821 158.525 2.16484C158.933 2.27882 159.098 2.94129 159.188 2.97048C159.507 3.07193 160.58 2.78049 161.281 3.4209C161.133 1.5356 163.591 0.865071 164.135 2.99978C164.57 2.57865 165.005 2.15752 165.44 1.73639C165.636 2.08794 165.833 2.43949 166.03 2.79104C166.15 2.44071 166.269 2.09038 166.389 1.74005C167.023 2.51151 167.657 3.28297 168.291 4.05443C168.331 3.28175 168.371 2.50907 168.412 1.73639C168.589 1.82428 168.767 1.91216 168.944 2.00005C169.083 2.61405 169.221 3.22804 169.36 3.84203C169.582 3.72485 169.803 3.60767 170.025 3.49048C170.08 3.04616 170.135 2.60184 170.19 2.15752C171.383 1.64532 170.77 5.88316 173.042 2.15752C173.395 2.50785 173.749 2.85818 174.102 3.20851C174.502 1.50347 175.25 2.53591 175.853 2.34428C176.279 2.20904 176.256 1.53171 176.835 1.51667C177.415 1.50187 177.395 2.14963 177.44 2.15385C177.912 2.1937 178.269 1.62257 178.616 1.73639C178.668 1.75329 178.799 2.52252 179.241 2.57132C179.683 2.61993 179.95 1.80182 180.608 1.95611C180.945 2.03432 181.043 2.68243 181.342 2.73978C182.768 3.01876 184.205 -0.263168 185.274 3.62964C185.515 3.13644 187.264 1.41004 188.013 1.50934C189.177 1.66789 188.728 2.43149 189.191 2.57132C189.257 2.59245 189.612 2.33452 190.588 2.3809C190.763 2.38929 190.723 1.95816 190.748 1.95245C191.886 1.9609 194.097 2.30125 195.347 2.36259C195.459 2.36893 196.044 1.16718 197.035 2.78372C198.504 1.58966 201.271 4.15507 203.208 2.35527C203.477 2.31722 203.803 2.7471 203.922 2.73245C204.946 2.5993 204.571 1.29419 206.886 3.20485C206.698 2.53928 207.24 1.93844 208.005 1.98907C209.156 2.06516 208.339 3.3063 209.263 3.20485C209.263 2.85452 209.263 2.50419 209.263 2.15386C211.39 3.09618 211.814 1.59836 213.948 1.58991C214.716 1.5878 215.85 2.36414 216.033 2.36625C216.104 2.36399 216.943 1.51935 217.023 1.51301C217.475 1.48764 217.73 1.87709 218.12 1.87921C219.408 1.88746 220.946 0.788689 220.667 2.78372C221.022 2.36259 221.376 1.94146 221.73 1.52033C223.068 3.65081 224.069 0.714533 224.35 2.78372C224.589 2.35649 224.828 1.92925 225.067 1.50202C230.807 1.71808 236.547 1.93414 242.287 2.15019C242.515 1.48442 245.018 1.72071 245.146 1.82428C245.736 2.29356 245.113 3.7454 246.316 3.41358C246.449 2.77762 246.582 2.14165 246.715 1.50568C248.227 1.29858 247.5 1.93143 248.096 2.36259C248.346 2.28416 248.265 1.79062 248.603 1.7547C250.433 1.55816 254.186 1.53485 256.187 1.4947C256.591 1.48625 256.53 1.94761 256.655 1.94879C257 1.94456 257.68 1.36317 258.371 1.36286C262.648 1.36709 268.707 1.69494 273.012 2.18315C273.304 2.21697 273.34 2.76723 273.537 2.79471C273.811 2.83046 274.422 2.38568 274.709 2.43217C274.98 2.47445 275.154 2.89239 275.443 2.94119C276.77 3.16945 278.553 2.46335 279.972 3.69556C280.092 3.7995 281.578 6.01477 281.612 6.16008C281.809 7.02242 280.488 8.37718 282.658 9.63898C280.719 10.7401 281.325 12.6868 283.844 13.6379C282.58 13.8832 281.317 14.1286 280.053 14.3739C280.051 14.6046 280.049 14.8354 280.047 15.0661C281.198 16.2094 282.339 16.5899 284.089 16.6956C284.034 16.9093 283.979 17.1229 283.925 17.3365C282.38 18.4038 280.516 18.6011 279.339 20.0574C281.065 21.1352 282.791 22.2131 284.516 23.2909C284.43 23.4594 284.344 23.6278 284.258 23.7963C283.43 24.2338 281.624 24.4906 280.937 24.8985C278.313 26.4539 283.233 26.0625 282.425 27.0115C279.655 26.9773 276.885 26.9431 274.115 26.909C274.017 27.6078 284.674 29.538 284.564 31.6476C283.694 31.7892 282.823 31.9308 281.952 32.0724C282.34 32.6082 282.728 33.1441 283.116 33.68C283.01 33.8497 282.903 34.0193 282.796 34.189C281.327 34.6053 279.858 35.0215 278.389 35.4377C282.855 35.0193 284.93 35.3231 286 39.5428C285.879 39.6503 285.758 39.7577 285.637 39.8651C284.669 37.2253 280.103 38.0791 277.676 38.6054C278.17 39.3786 280.307 38.7813 280.759 39.2462C280.887 39.3795 280.441 39.9163 280.737 40.191C281.512 40.9054 284.814 41.8245 284.334 42.6995C284.025 43.2617 278.712 44.033 277.676 43.9739C280.105 44.9841 282.608 45.2764 285.044 46.5043C283.506 48.2163 282.144 50.3113 279.337 50.4043C278.482 51.3026 284.424 52.547 284.562 53.0373C283.534 53.5634 282.505 54.0895 281.477 54.6156C282.347 54.4752 283.216 54.3349 284.086 54.1945C284.089 54.3703 284.091 54.546 284.094 54.7218C281.841 55.5377 279.779 57.0351 277.2 56.9337C277.283 57.8636 278.826 57.7711 279.575 57.7796ZM32.7792 4.8857C32.7271 4.11461 33.6727 4.24103 34.2051 4.25584C34.1251 4.11546 34.0451 3.97509 33.9651 3.83471C35.1013 3.98054 37.2164 4.27646 37.2949 2.78005C38.1054 2.59407 37.747 3.89536 38.0084 4.04344C38.1106 4.10262 39.1685 3.34531 40.0147 4.26682C40.2158 4.26316 40.4169 4.2595 40.6181 4.25584C40.657 3.76513 40.6959 3.27442 40.7348 2.78372C41.0152 3.3794 41.2956 3.97509 41.576 4.57077C38.6452 4.67575 35.7144 4.78072 32.7836 4.8857C32.7821 4.8857 32.7807 4.8857 32.7792 4.8857ZM61.993 4.25218C63.0603 4.52905 64.6951 4.96623 64.3648 3.62231C63.6906 3.69311 63.0164 3.76391 62.3421 3.83471C62.2257 3.97387 62.1094 4.11302 61.993 4.25218ZM168.166 5.3105C169.058 6.63359 169.878 5.48913 171.257 5.72796C171.255 5.44843 171.253 5.1689 171.252 4.88937C170.688 5.56058 169.197 5.114 168.166 5.3105ZM6.29617 9.94292C6.09982 9.83916 5.90338 9.73541 5.70703 9.63165C6.50577 8.1289 6.64859 9.1879 7.55194 9.04207C7.60636 9.03294 7.58747 8.68896 7.60648 8.68685C7.82749 8.66365 8.03198 9.0777 8.23163 9.07136C8.6167 9.05866 8.9306 8.6391 9.61283 8.6539C10.1404 8.66672 10.1453 9.3263 10.3307 9.30939C10.4887 9.29309 12.0541 7.47858 13.0615 8.26206C14.9774 9.75424 6.88089 10.0824 6.29617 9.94292ZM0.617495 8.7015C0.807009 8.6954 0.996431 8.68929 1.18591 8.68319C0.616152 9.69703 1.76602 9.54295 2.60968 9.52179C2.5835 10.494 0.798677 10.0782 1.71631e-06 10.3677C0.205873 9.81231 0.411684 9.2569 0.617495 8.7015ZM24.5781 10.7852C23.8367 10.8843 23.9603 9.67078 23.9912 9.30939C24.2272 9.30939 24.4632 9.30939 24.6992 9.30939C24.6588 9.80132 24.6185 10.2932 24.5781 10.7852ZM19.002 11.2063C19.2325 10.382 20.8421 10.0215 21.6051 9.9539C21.6385 9.95377 21.4289 10.4061 21.9684 10.364C22.1305 10.3508 23.7244 8.70478 23.3737 10.5728C21.9171 10.784 20.4607 10.9951 19.0042 11.2063C19.0034 11.2063 19.0028 11.2063 19.002 11.2063ZM17.3764 10.7193C17.6797 10.4605 17.983 10.2017 18.2863 9.94292C18.4431 10.3299 18.5998 10.7168 18.7565 11.1038C18.4114 11.2014 18.0663 11.2991 17.7212 11.3967C17.6063 11.1709 17.4913 10.9451 17.3764 10.7193ZM245.57 11.8179C245.499 11.4041 245.428 10.9903 245.358 10.5764C245.085 10.3228 243.756 12.1246 244.176 12.4734C244.641 12.2549 245.105 12.0364 245.57 11.8179ZM251.182 12.6858C251.458 12.8945 251.734 13.1032 252.011 13.312C252.329 12.6101 252.647 11.9082 252.964 11.2063C251.584 10.733 250.115 10.1876 250.351 12.2573C250.035 12.2573 249.719 12.2573 249.403 12.2573C249.67 11.4015 249.634 11.1196 248.807 10.5764C248.626 11.7673 247.77 11.1606 246.792 11.4224C247.504 11.4919 248.216 11.5615 248.928 11.6311C248.928 11.8411 248.928 12.051 248.928 12.261C247.341 12.1851 249.313 13.5169 250.347 12.6821C250.429 12.9616 250.51 13.2412 250.591 13.5207C250.788 13.2424 250.985 12.9641 251.182 12.6858ZM136.459 12.261C136.656 12.4721 136.853 12.6833 137.05 12.8945C137.812 10.144 136.26 12.7531 135.155 10.5764C135.52 12.23 133.835 12.1609 133.738 12.272C133.932 12.8286 134.126 13.3852 134.32 13.9418C135.033 13.3815 135.746 12.8213 136.459 12.261ZM142.037 14.1579C141.354 12.7862 144.706 12.7021 145.83 13.0044C146.103 13.0787 146.591 13.8318 146.788 13.7368C146.908 13.4584 147.027 13.1801 147.147 12.9018C147.289 13.8637 149.484 12.7823 150.349 12.2646C150.43 12.615 150.512 12.9653 150.593 13.3156C150.909 13.1765 151.224 13.0373 151.539 12.8982C151.5 13.2473 151.46 13.5964 151.42 13.9455C151.659 13.5256 151.897 13.1057 152.136 12.6858C153.073 12.2187 152.495 14.1219 153.199 13.528C153.981 12.8686 152.699 11.7352 152.723 10.9976C152.088 11.1878 150.645 11.6136 150.001 11.6348C149.631 11.6461 150.05 10.3246 148.456 11.8435C148.107 11.4895 147.757 11.1355 147.408 10.7815C146.766 11.3442 146.125 11.907 145.483 12.4697C145.363 11.9802 145.244 11.4907 145.124 11.0012C145.056 10.9246 143.572 12.0361 143.651 12.4038C143.05 11.4681 141.817 11.3013 140.517 11.2539C140.392 11.52 140.267 11.7861 140.142 12.0522C141.399 11.4775 140.542 12.3338 140.916 12.8432C141.132 13.137 141.794 13.714 142.037 14.1579ZM236.812 12.8908C238.923 11.6967 237.616 12.682 239.897 12.6821C239.738 12.0498 239.579 11.4175 239.42 10.7852C238.298 11.9405 236.452 11.1722 236.81 12.8908C236.811 12.8908 236.811 12.8908 236.812 12.8908ZM259.137 10.7888C257.93 11.1714 258.536 12.1547 257.005 12.4697C257.005 12.4697 257.004 12.4697 257.003 12.4697C257.795 12.5405 258.586 12.6113 259.377 12.6821C259.297 12.051 259.217 11.4199 259.137 10.7888ZM188.559 11.5542C187.402 11.2795 187.629 11.7714 186.579 10.7888C185.015 11.9808 186.339 11.8124 186.339 12.8945C186.697 12.5771 187.054 12.2597 187.411 11.9424C188.278 12.9543 187.456 13.4638 187.456 13.561C187.457 13.561 187.458 13.561 187.458 13.561C187.458 13.8858 187.43 13.9542 187.763 14.1506C188.028 13.2851 188.294 12.4197 188.559 11.5542ZM183.605 12.8908C184.002 12.1722 184.18 11.2496 183.137 10.7888C183.136 10.7888 183.135 10.7888 183.135 10.7888C183.051 12.3949 182.05 11.0986 181.594 11.2063C181.475 11.3809 181.355 11.5554 181.235 11.73C182.025 12.1169 182.815 12.5039 183.605 12.8908ZM166.149 14.3666C166.144 12.5924 167.02 12.4237 165.788 10.7888C165.548 10.8206 165.309 10.8523 165.07 10.8841C164.913 11.2734 164.756 11.6628 164.599 12.0522C161.563 8.84181 160.658 14.3084 165.788 12.2646C165.789 12.2634 165.789 12.2622 165.79 12.261C165.91 12.9628 166.029 13.6647 166.149 14.3666ZM171.495 14.2165C171.533 13.2851 171.572 12.3537 171.61 11.4224C172.281 13.6691 173.147 11.5254 174.461 13.1105C174.58 12.8274 174.699 12.5442 174.818 12.261C175.309 12.8842 180.135 13.0637 179.089 11.6311C178.633 11.0055 177.639 11.8552 177.553 11.8362C177.263 11.7659 176.885 10.9657 176.396 11.0122C176.113 11.0402 175.516 11.9807 174.939 11.979C173.648 11.9748 171.293 9.44971 169.595 11.8398C169.473 11.5591 169.351 11.2783 169.229 10.9976C167.969 11.1689 168.39 12.0585 167.218 10.9976C166.409 15.4214 171.929 10.7794 170.779 14.3666C170.78 14.3666 170.781 14.3666 170.781 14.3666C171.019 14.3166 171.257 14.2665 171.495 14.2165ZM206.17 12.8908C206.246 13.6852 207.707 12.4595 207.364 14.363C207.841 13.7001 208.317 13.0373 208.794 12.3745C208.79 12.1975 208.787 12.0205 208.783 11.8435C208.309 11.9827 207.835 12.1218 207.362 12.261C207.36 11.9802 207.358 11.6995 207.356 11.4187C206.65 12.4344 203.703 11.9919 203.793 10.9976C203.635 11.4175 203.478 11.8374 203.32 12.2573C201.911 11.1139 200.698 12.3296 199.163 11.2136C199.044 11.5615 198.925 11.9094 198.806 12.2573C198.728 11.9766 198.651 11.6958 198.574 11.415C198.014 11.3796 197.455 11.3442 196.896 11.3088C195.073 12.4393 198.614 13.9028 199.044 13.7368C199.101 13.7135 199.092 12.9867 199.449 12.8725C200.082 12.6722 203.626 13.3958 204.722 12.9165C204.732 13.3986 204.741 13.8808 204.751 14.363C205.224 13.8722 205.697 13.3815 206.17 12.8908ZM159.376 12.4697C159.296 11.979 159.216 11.4883 159.136 10.9976C157.755 11.4877 156.886 11.0593 157.24 12.6821C157.241 12.6821 157.241 12.6821 157.242 12.6821C157.953 12.6113 158.665 12.5405 159.376 12.4697ZM56.7638 12.0522C56.8 13.0277 57.4601 13.3923 58.313 12.6931C58.2719 12.4099 58.2309 12.1267 58.1898 11.8435C57.7453 12.6741 57.1906 11.2264 55.819 11.4187C55.819 11.9094 55.819 12.4001 55.819 12.8908C56.1339 12.6113 56.4489 12.3318 56.7638 12.0522ZM160.567 12.6821C160.988 13.2607 162.169 11.5054 161.392 11.4187C160.798 11.3532 160.342 12.3714 160.567 12.6821ZM263.886 11.7373C263.574 11.6348 263.262 11.5322 262.95 11.4297C262.788 11.8472 262.625 12.2646 262.463 12.6821C262.463 12.6821 262.464 12.6821 262.465 12.6821C262.939 12.3672 263.413 12.0522 263.886 11.7373ZM192.516 11.4736C191.458 11.5347 190.4 11.5957 189.341 11.6567C189.331 11.9289 189.32 12.2012 189.31 12.4734C190.37 11.48 190.796 12.5507 191.043 12.6162C191.042 12.6162 191.041 12.6162 191.04 12.6162C191.834 12.8317 192.59 12.9903 193.341 13.3156C193.066 12.7016 192.791 12.0876 192.516 11.4736ZM196.144 13.1911C195.966 11.2678 195.733 11.0438 194.107 12.3965C194.171 12.6333 194.236 12.8701 194.3 13.1069C195.143 12.9654 195.634 12.5213 195.486 13.5244C195.705 13.4133 195.925 13.3022 196.144 13.1911ZM179.572 12.5759C179.767 13.1882 181.315 12.5733 181.231 12.2646C181.198 12.142 179.191 11.3754 179.572 12.5759ZM45.0083 12.477C45.365 12.6174 45.7218 12.7578 46.0785 12.8982C45.6039 13.1069 45.1294 13.3156 44.6548 13.5244C44.7726 13.1752 44.8904 12.8261 45.0083 12.477ZM41.0916 15.2125C40.8373 14.9674 41.6641 13.2381 40.1435 12.792C41.2501 12.7553 42.3568 12.7187 43.4634 12.6821C42.9444 12.9616 42.4255 13.2412 41.9065 13.5207C41.9971 14.0175 42.0876 14.5143 42.1782 15.0111C41.816 15.0783 41.4538 15.1454 41.0916 15.2125ZM39.9034 13.9455C40.4994 15.2598 37.3614 15.3585 37.069 15.1979C37.0039 15.1597 36.6943 14.1633 36.5802 13.9491C37.0541 13.9479 37.528 13.9467 38.0018 13.9455C37.8433 13.6318 37.6847 13.3181 37.5262 13.0043C38.0808 12.8969 38.6353 12.7895 39.1899 12.6821C38.9528 12.997 38.7157 13.312 38.4786 13.6269C38.9536 13.7331 39.4285 13.8393 39.9034 13.9455ZM52.4936 13.6269C52.0969 13.5939 51.7001 13.561 51.3033 13.528C51.3826 14.0187 51.4619 14.5094 51.5412 15.0001C51.7787 15.0001 52.0161 15.0001 52.2536 15.0001C52.3336 14.5424 52.4136 14.0846 52.4936 13.6269ZM44.4093 14.2604C44.9869 11.8978 46.5611 17.063 44.7213 15.1503C44.5359 14.9558 44.3546 14.4887 44.4093 14.2604ZM35.8929 14.9159C34.6592 16.6385 34.9377 12.8353 36.1024 13.9491C36.161 14.0084 35.9855 14.7887 35.8929 14.9159ZM26.6434 14.9708C26.5435 14.9581 26.3688 13.7267 25.4149 14.8976C25.2574 14.7572 25.1 14.6168 24.9425 14.4765C25.3111 13.9043 28.4633 13.564 28.0279 14.7841C27.5454 14.8031 27.1425 15.0089 26.6434 14.9708ZM29.696 19.5264C30.1692 19.4922 30.6423 19.458 31.1154 19.4238C30.9594 19.0381 30.8034 18.6524 30.6474 18.2666C30.8801 18.1617 31.1129 18.0567 31.3456 17.9517C31.7435 18.617 32.1413 19.2822 32.5392 19.9475C31.5107 20.0537 30.4823 20.1599 29.4538 20.2661C29.5345 20.0195 29.6153 19.7729 29.696 19.5264ZM42.2753 20.4785C41.3649 19.9945 40.2495 20.5096 38.771 20.4272C38.7703 20.426 38.7695 20.4248 38.7688 20.4236C38.6951 20.4179 38.5643 19.888 38.327 19.8669C38.1246 19.8501 34.1316 20.4319 34.443 19.5337C35.988 18.7285 36.5651 19.9526 36.9359 17.9554C37.0112 18.3765 37.0865 18.7976 37.1618 19.2188C38.6474 19.9479 39.0713 18.4901 39.9056 17.9554C39.9024 18.2727 39.8991 18.5901 39.8958 18.9075C40.453 18.9392 41.0101 18.971 41.5672 19.0027C41.4887 18.794 41.4101 18.5852 41.3316 18.3765C41.5287 18.3765 41.7258 18.3765 41.9229 18.3765C42.403 19.3169 43.0118 19.5361 42.2753 20.4785ZM27.55 19.0027C27.1127 21.41 22.8504 19.7611 20.9036 20.2661C21.9257 18.8166 23.5092 19.8155 24.624 19.8303C26.779 19.8577 25.2894 18.9705 25.6549 18.5816C25.8356 18.3892 27.058 19.9327 27.55 19.0027ZM45.6007 20.0574C44.5262 19.8629 43.9248 20.4172 42.9953 19.5337C43.0732 19.3579 43.151 19.1821 43.2288 19.0064C43.5472 19.1673 46.1423 19.675 45.6007 20.0574ZM18.0507 19.6362C20.1258 20.5007 19.1022 18.321 20.1814 19.9548C19.4712 20.0586 18.7609 20.1623 18.0507 20.2661C18.0507 20.0561 18.0507 19.8462 18.0507 19.6362ZM162.942 21.7382C163.817 21.7933 164.794 22.2326 165.316 21.3244C164.722 21.184 164.128 21.0437 163.534 20.9033C163.337 21.1816 163.14 21.4599 162.942 21.7382ZM138.004 30.6112C138.204 30.8289 138.994 30.1864 139.077 30.1864C139.231 30.1864 139.189 30.5029 139.191 30.5856C140.203 30.5282 139.27 29.5466 140.018 29.3332C140.146 29.298 141.905 29.7832 142.62 29.7433C143.721 29.682 144.82 29.7456 145.231 29.7287C145.925 29.701 147.214 28.9648 148.355 28.9267C148.825 28.9123 148.989 29.5018 149.462 29.487C152.497 29.3877 158.473 28.5783 161.166 28.9523C161.832 29.0453 162.466 29.8173 162.818 29.7543C163.096 29.4724 163.373 29.1904 163.651 28.9084C164.504 31.4467 164.789 29.1891 165.709 28.9523C166.294 28.8028 166.567 29.5548 166.645 29.5529C167.166 29.5381 167.423 29.1801 167.831 29.1208C168.29 29.0553 168.949 29.3945 169.113 29.3332C169.214 29.2921 168.892 28.2925 170.672 28.3115C172.486 28.3312 174.277 28.4369 176.122 28.4836C175.506 25.4658 174.977 27.5312 174.223 27.6414C174.021 27.6709 174.149 27.1918 173.974 27.2129C173.477 27.27 172.526 27.7408 172.115 27.6267C171.671 27.5036 171.822 26.393 171.259 26.8028C171.231 26.8239 171.321 27.2825 171.188 27.3594C169.857 28.1182 169.421 27.3204 167.739 27.2971C166.623 27.2803 159.852 27.7355 159.619 27.4363C158.407 25.83 165.543 25.819 166.377 25.9458C166.669 25.9904 166.363 26.4968 166.629 26.594C166.742 26.6329 167.756 25.6672 168.759 25.587C169.971 25.4898 172.407 26.1485 173.562 26.1253C183.493 25.9245 193.287 26.5081 203.208 26.5208C203.42 26.5208 203.698 25.9422 204.387 25.9422C217.252 25.9528 230.585 26.4089 243.613 26.1363C246.454 26.0771 249.271 25.533 252.137 25.9642C252.493 25.5418 252.849 25.1195 253.204 24.6971C252.295 25.0329 250.628 24.0776 250.476 24.0636C250.421 24.0594 250.076 24.5356 249.52 24.5103C248.738 24.4765 248.395 24.0636 248.331 24.0636C248.132 24.0623 248.262 24.5015 248.072 24.4994C246.656 24.4803 245.56 24.605 244.259 24.6092C242.791 24.6133 242.046 23.7952 240.976 24.6934C240.855 24.3431 240.734 23.9928 240.613 23.6425C239.814 25.1576 235.055 24.9898 233.128 24.9095C232.52 24.884 232.626 24.2687 232.422 24.2687C232.291 24.2694 232.343 25.075 230.752 24.9168C229.951 24.8365 229.74 24.2496 229.339 24.2687C229.12 24.2799 229.156 24.8619 228.842 24.8619C227.029 24.8619 225.548 24.6731 223.772 24.5653C223.273 24.5357 223.268 24.0499 223.156 24.0563C222.745 24.078 222.029 24.9006 220.984 24.8985C219.263 24.8943 215.833 24.8915 214.426 24.492C214.219 24.4329 214.048 23.8501 213.896 23.8585C213.665 23.8734 213.575 24.4815 213.534 24.4847C212.764 24.4953 213.228 23.9299 212.712 24.0672C212.434 24.1413 212.144 24.8348 211.498 24.9132C210.644 25.0167 210.812 24.1935 210.456 24.276C210.418 24.2889 210.407 24.8613 210.056 24.8802C208.728 24.9478 206.8 25.0801 205.543 25.078C205.182 25.078 204.913 24.6926 204.409 24.6861C203.394 24.6734 197.625 24.919 197.152 24.6971C197.102 24.6739 197.615 23.8295 196.797 23.8548C196.56 24.2064 196.322 24.558 196.085 24.9095C195.688 24.3468 195.291 23.7841 194.894 23.2213C194.908 25.1656 192.572 25.4659 192.595 23.4777C192.339 23.3971 192.084 23.3165 191.828 23.236C191.295 24.6096 190.941 24.1025 189.912 24.9095C189.752 24.4884 189.591 24.0672 189.431 23.6461C189.391 23.9269 189.35 24.2076 189.31 24.4884C188.761 22.9669 187.86 24.4946 187.751 24.503C187.33 24.5368 187.014 24.15 186.817 24.1625C186.08 24.2026 184.485 24.7355 183.625 24.4884C183.584 24.4757 183.624 23.8253 183.379 23.745C182.938 23.5999 182.894 24.5521 182.306 23.4337C182.187 23.7145 182.068 23.9952 181.949 24.276C181.823 24.1307 181.696 23.9855 181.57 23.8402C180.825 23.9147 180.081 23.9891 179.336 24.0636C180.013 22.9624 179.234 22.3474 178.497 23.214C178.248 23.5078 178.469 24.1781 178.386 24.2796C178.272 24.417 174.929 24.0757 174.708 23.6425C174.55 23.8536 174.391 24.0648 174.233 24.276C174.153 23.8536 174.073 23.4313 173.993 23.0089C173.906 23.1566 173.819 23.3043 173.731 23.452C172.861 22.7081 170.604 24.4144 170.194 24.2796C169.976 24.2078 170.172 22.4076 169.124 22.5915C169.088 23.0858 169.051 23.5802 169.015 24.0746C168.775 24.1454 168.535 24.2162 168.295 24.287C167.845 24.2429 167.189 23.3861 167.168 22.8002C167.027 23.1517 166.886 23.5033 166.746 23.8548C166.368 22.7094 164.352 23.1154 163.541 23.8402C163.304 23.4948 163.067 23.1493 162.83 22.8039C162.512 23.2238 162.193 23.6437 161.874 24.0636C161.136 24.19 161.916 23.492 161.759 23.4337C161.426 23.3132 159.73 24.4925 159.842 23.0236C159.611 23.0199 159.379 23.0163 159.148 23.0126C159.029 23.4325 158.91 23.8524 158.791 24.2723C158.394 22.8246 157.707 23.3357 156.298 22.8075C156.18 23.1408 156.062 23.474 155.944 23.8072C155.508 23.3336 155.072 22.86 154.637 22.3864C154.547 22.9381 154.458 23.4899 154.368 24.0416C154.179 24.121 153.989 24.2003 153.8 24.2796C153.415 23.0437 152.724 24.3793 152.372 23.8695C151.858 23.1255 152.255 22.239 153.209 22.0678C153.137 21.1677 150.298 21.581 149.643 21.6467C149.686 21.8224 149.73 21.9982 149.773 22.174C150.442 22.0348 151.112 21.8957 151.781 21.7565C152.342 24.0202 150.524 23.413 149.69 23.7047C149.614 23.7327 149.181 24.5903 148.34 24.5103C148.015 24.4786 146.745 23.2252 146.502 23.1554C144.544 22.583 145.984 24.3741 144.068 22.8039C144.467 24.0065 143.367 23.0071 142.221 23.2396C142.026 23.2794 140.372 24.2543 140.26 24.2796C139.564 24.436 140.322 23.3731 139.315 23.6498C139.193 23.9293 139.072 24.2088 138.951 24.4884C138.717 24.4884 138.482 24.4884 138.248 24.4884C136.824 21.9972 136.493 23.8317 135.987 24.0672C135.783 24.1624 136.046 23.5124 135.516 23.6498C135.316 23.7009 135.095 24.2416 134.558 24.2796C132.878 24.3978 132.307 22.0831 130.762 24.492C130.525 24.1429 130.288 23.7938 130.051 23.4447C129.891 23.8634 129.731 24.2821 129.571 24.7008C128.347 23.4858 128.789 24.7302 128.347 24.7154C127.18 24.6774 124.791 24.4392 124.582 23.4374C123.574 25.7386 122.369 23.1425 121.972 23.2323C121.736 23.5118 121.5 23.7914 121.264 24.0709C120.986 23.7902 120.709 23.5094 120.432 23.2286C120.566 25.4884 119.129 23.2662 118.991 23.2323C118.832 23.1985 116.622 23.8673 115.799 23.8548C114.978 23.8422 113.546 23.2298 113.42 23.2286C113.275 23.2286 111.876 23.8429 110.783 23.8365C109.826 23.8299 104.158 22.9574 104.515 23.9647C104.886 24.2437 105.414 24.4855 105.87 24.6165C107.287 25.0181 115.602 25.5325 117.727 25.6932C121.989 26.0123 126.433 25.9531 130.714 26.1729C130.966 26.1856 131.004 26.7713 131.22 26.7844C131.548 26.8014 132.381 26.2151 132.704 26.2278C133.912 26.2785 135.381 26.3742 136.027 26.389C137.472 26.4186 138.464 26.7713 139.557 26.8284C139.899 26.8453 141.629 26.1192 142.816 26.4256C143.031 26.5904 143.245 26.7551 143.46 26.9199C142.85 27.1123 141.247 27.6099 140.503 27.667C139.395 27.7493 138.818 27.2742 138.409 27.2825C138.067 27.2888 136.318 27.8299 135.521 27.8428C135.274 27.847 135.223 27.2328 135.012 27.2349C133.864 27.2497 132.352 27.2661 131.356 27.8684C131.762 27.6718 129.224 27.295 129.091 27.2971C128.863 27.2973 128.615 27.8721 128.149 27.8721C127.253 27.8718 127.367 26.6696 126.248 27.8721C125.971 27.5217 125.693 27.1714 125.416 26.8211C125.399 28.4226 121.898 26.2442 120.902 28.1907C120.876 28.4105 125.426 29.0342 125.801 29.0659C128.055 29.2581 131.389 28.8654 133.576 29.1464C134.234 29.2309 136.303 30.2046 136.459 30.1864C136.711 30.159 136.484 29.602 136.593 29.5822C138.819 29.1681 137.708 30.2874 138.004 30.6112ZM39.9056 21.5331C40.582 21.5991 41.2585 21.665 41.9349 21.7309C41.8858 22.0824 41.8367 22.434 41.7876 22.7855C41.4778 22.6488 41.1679 22.5121 40.8581 22.3754C40.6199 22.5854 40.3817 22.7953 40.1435 23.0053C40.0642 22.5146 39.9849 22.0238 39.9056 21.5331ZM38.2386 23.0053C37.652 23.1823 37.6233 22.4409 37.488 22.4047C37.084 22.2948 36.7345 22.5946 36.3424 22.5841C36.794 20.8231 37.7561 21.6302 38.2386 23.0053ZM50.3542 23.6388C50.2219 23.5545 49.339 21.6587 48.3347 23.4227C47.5834 22.8624 46.832 22.3022 46.0807 21.7419C47.3571 22.5979 49.1235 21.7081 49.7487 21.7419C49.9861 21.7547 50.0314 22.3366 50.2211 22.3461C51.3145 22.3926 52.3775 21.074 52.4893 23.0016C51.4553 22.4415 50.5229 23.7424 50.3542 23.6388ZM43.7558 22.954C43.5809 22.5512 43.4059 22.1484 43.231 21.7455C43.8631 21.7455 44.4951 21.7455 45.1272 21.7455C44.9563 22.1532 44.7853 22.5609 44.6144 22.9686C44.3282 22.9638 44.042 22.9589 43.7558 22.954ZM92.3807 24.287C91.9909 24.2821 91.601 24.2772 91.2112 24.2723C91.2326 24.5659 91.6785 24.5647 91.8429 24.763C91.8421 24.763 91.8414 24.763 91.8407 24.763C92.0237 24.9871 91.9454 25.3651 92.2782 25.532C92.3123 25.117 92.3465 24.702 92.3807 24.287ZM253.677 25.9568C254.33 25.978 260.365 25.9801 259.851 24.9095C259.592 24.3748 257.528 24.8411 256.919 24.8326C256.099 24.8218 253.884 23.6639 253.677 25.9568ZM264.364 26.1656C264.469 25.0987 260.697 24.929 260.329 25.1146C260.407 25.2667 260.528 25.6053 260.632 25.6822C261.141 26.0499 263.551 25.8739 264.364 26.1656ZM114.213 27.3667C113.909 26.8272 113.605 26.2876 113.301 25.7481C113.381 26.45 113.461 27.1519 113.541 27.8537C113.765 27.6914 113.989 27.5291 114.213 27.3667ZM143.705 26.594C148.77 26.6282 153.834 26.6624 158.899 26.6966C158.454 26.9883 158.008 27.28 157.563 27.5718C153.199 27.4682 148.544 27.1729 144.33 27.623C144.122 27.28 143.913 26.937 143.705 26.594ZM51.7812 26.7991C53.0789 26.8096 54.1628 26.294 55.5746 27.114C54.2292 27.9087 53.5632 26.6792 52.2558 27.8501C52.2551 27.8501 52.2543 27.8501 52.2536 27.8501C52.0961 27.4998 51.9387 27.1494 51.7812 26.7991ZM80.7539 27.0115C80.3593 27.5022 79.9647 27.9929 79.5701 28.4836C80.0447 28.4836 80.5193 28.4836 80.9939 28.4836C80.9139 27.9929 80.8339 27.5022 80.7539 27.0115ZM187.884 29.3222C189.241 28.2512 192.714 30.1896 193.817 28.9011C193.888 28.8165 193.232 28.2728 194.292 27.2202C193.492 27.4357 192.926 27.6557 192.866 28.4836C192.629 28.2029 192.391 27.9221 192.153 27.6414C191.758 27.8538 191.364 28.0661 190.969 28.2785C191.012 27.4542 190.981 27.4982 190.375 28.0625C190.098 27.8537 189.822 27.645 189.545 27.4363C189.428 27.7854 189.311 28.1345 189.194 28.4836C188.955 27.9953 188.716 27.5071 188.476 27.0188C187.544 27.5485 188.112 28.4946 187.884 29.3222ZM183.133 29.1208C183.353 29.3023 189.646 28.7103 186.786 27.0664C186.043 27.1189 185.3 27.1714 184.556 27.2239C185.172 29.9462 183.146 27.5117 182.98 27.4546C182.184 27.1887 181.169 27.836 180.592 27.8025C180.095 27.7729 179.8 27.2845 179.45 27.2971C178.26 27.3394 176.38 27.3572 176.122 28.4836C177.047 28.507 177.987 28.5192 178.949 28.4909C179.966 28.4613 180.86 29.5245 182.771 28.0661C183.244 28.2229 183.076 29.0743 183.133 29.1208ZM78.382 28.3701C78.4295 27.2386 76.0278 27.5092 76.0124 27.9563C76.0076 28.2184 76.7898 28.2122 76.9016 28.3115C76.9023 28.3115 76.903 28.3115 76.9037 28.3115C76.9503 28.3549 76.714 28.788 77.0816 28.9084C77.5151 28.729 77.9486 28.5495 78.382 28.3701ZM244.291 28.4873C244.616 29.1222 252.032 28.8939 252.251 28.5898C252.31 28.5054 252.227 28.2269 252.251 28.0661C250.521 28.962 248.061 27.9017 246.418 27.8318C245.961 27.8129 246.097 28.2627 246.071 28.2712C246.07 28.2712 246.069 28.2712 246.068 28.2712C245.808 28.2723 244.635 27.1734 244.291 28.4873ZM196.192 28.3847C195.877 28.2077 195.561 28.0307 195.246 27.8538C195.166 28.2041 195.086 28.5544 195.006 28.9047C195.007 28.9047 195.007 28.9047 195.008 28.9047C195.403 28.7314 195.797 28.5581 196.192 28.3847ZM207.116 29.5383C207.039 29.2917 206.963 29.0451 206.886 28.7985C206.092 28.7644 205.298 28.7302 204.504 28.696C204.584 28.5569 204.664 28.4177 204.744 28.2785C203.544 27.9066 203.047 28.7731 202.407 28.6484C202.408 28.6484 202.409 28.6484 202.41 28.6484C202.341 28.6339 202.257 28.1201 202.001 28.1028C201.415 28.0626 199.733 27.8714 199.529 28.3884C199.099 29.4914 202.484 28.9679 203.115 29.0183C203.401 29.0415 203.744 29.4911 203.917 29.5016C204.107 29.5115 204.366 28.9044 204.829 28.9231C204.965 28.9294 206.467 29.6437 207.116 29.5383ZM221.129 28.8022C220.884 28.2463 220.373 28.7832 220.185 28.6923C220.14 28.6709 220.489 28.2056 220.066 28.0661C219.947 28.3835 219.827 28.7009 219.707 29.0183C220.181 28.9462 220.655 28.8742 221.129 28.8022ZM74.3464 28.9047C74.4155 29.024 75.7049 28.9804 75.7669 28.9047C76.5395 27.8902 73.8686 28.0001 74.3464 28.9047ZM41.8051 30.0656C42.3982 31.5401 35.3607 30.0905 34.6786 30.1681C34.7127 29.2414 36.3869 30.1731 35.51 28.9011C36.3467 29.6007 38.6598 29.2292 39.2041 29.4321C39.5345 29.5547 39.6179 30.3552 39.6678 30.3805C39.8637 30.4707 41.596 29.5458 41.8051 30.0656ZM28.8636 29.5383C29.5324 29.714 30.2012 29.8898 30.8699 30.0656C30.0808 30.1706 29.2916 30.2755 28.5025 30.3805C28.6228 30.0998 28.7433 29.819 28.8636 29.5383ZM28.0224 29.9594C28.0439 30.8577 25.7737 30.1734 25.1771 30.3805C25.8498 28.8525 26.9718 30.2931 28.0224 29.9594ZM65.793 31.2228C66.8388 31.8167 67.2883 29.0786 66.0166 30.2707C65.978 30.3101 65.7493 31.1913 65.793 31.2228ZM188.207 33.1746C188.385 33.1915 190.603 34.0793 190.731 33.6397C191.137 32.2372 189.682 32.7997 189.194 32.2701C188.407 31.412 189.564 30.705 187.644 31.2228C187.722 30.942 187.801 30.6613 187.88 30.3805C186.755 30.2875 187.123 32.2324 186.922 32.4825C186.86 32.5585 186.157 32.395 186.03 32.5191C184.446 34.086 188.041 33.1616 188.207 33.1746ZM91.6836 31.4315C93.7657 32.2558 92.87 31.0463 95.0068 31.1202C95.078 30.5031 91.9546 30.8904 91.6836 31.4315ZM167.932 32.065C170.085 31.8221 171.856 32.6292 173.864 31.545C173.734 29.8753 167.373 31.6339 167.932 32.065ZM269.113 33.7569C260.735 30.7832 251.07 31.7622 242.149 31.8087C241.177 31.8129 241.084 31.1509 240.732 31.2228C240.502 31.2693 240.542 31.8025 240.236 31.805C229.166 31.8917 218.567 32.5893 207.963 32.2701C207.295 32.249 204.045 31.1039 203.351 32.8304C202.826 34.1402 205.16 33.119 205.549 33.1307C205.842 33.1391 205.854 33.7547 206.049 33.7569C206.256 33.759 206.085 33.3384 206.325 33.3321C207.342 33.3025 208.452 33.4669 209.372 33.431C218.393 33.0865 227.169 33.185 236.142 33.2442C237.228 33.2506 237.005 33.7438 237.06 33.7459C237.06 33.7447 237.061 33.7435 237.062 33.7422C242.886 33.7887 249.537 32.6823 255.705 33.1051C260.049 33.4444 264.392 33.7837 268.736 34.1231C268.862 34.001 268.988 33.879 269.113 33.7569ZM183.608 31.4352C184.15 33.2951 184.271 31.4198 186.216 32.1786C186.374 31.8612 186.532 31.5438 186.69 31.2264C185.662 31.296 184.633 31.3656 183.605 31.4352C183.606 31.4352 183.607 31.4352 183.608 31.4352ZM196.45 32.1127C196.779 34.6246 201.127 32.8493 203.085 33.3284C203.444 32.0669 200.598 32.6336 199.926 32.5008C199.591 32.4353 197.796 31.1378 196.432 31.8563C196.438 31.9418 196.444 32.0272 196.45 32.1127ZM49.1683 33.7569C49.4846 33.6836 49.801 33.6104 50.1174 33.5372C49.3257 33.2589 48.534 32.9805 47.7423 32.7022C49.0053 32.8817 50.2683 33.0611 51.5314 33.2405C51.2961 33.7618 51.0608 34.283 50.8255 34.8042C50.2731 34.4551 49.7207 34.106 49.1683 33.7569ZM53.2661 33.4896C51.0543 33.6858 53.3632 32.2905 53.9152 32.911C54.2456 33.283 53.4919 33.4684 53.2661 33.4896ZM59.0189 34.3867C57.9874 35.3018 55.9028 35.3648 56.6438 33.5372C57.7586 34.3932 58.4772 33.6819 60.0936 34.1744C59.8575 34.5247 59.6215 34.875 59.3855 35.2253C59.3844 35.2253 59.3833 35.2253 59.3822 35.2253C59.2611 34.9458 59.14 34.6663 59.0189 34.3867ZM52.2558 34.5955C50.8071 33.5455 55.0011 33.9045 53.6828 34.5955C53.621 34.6272 52.3128 34.6356 52.2558 34.5955ZM259.851 35.6465C260.025 35.0493 258.911 35.0604 258.541 35.0203C256.934 34.8428 254.873 35.1027 253.202 35.0203C253.328 35.2168 253.454 35.4133 253.58 35.6099C255.67 35.6221 257.76 35.6343 259.851 35.6465ZM247.975 35.0166C246.827 35.0166 245.679 35.0166 244.531 35.0166C244.424 35.0166 243.922 35.5291 244.295 35.6538C245.522 35.4414 246.749 35.229 247.975 35.0166ZM176.361 35.0166C177.241 35.3511 174.706 37.0653 174.82 35.229C175.334 35.1582 175.847 35.0874 176.361 35.0166ZM168.169 35.749C168.721 35.5745 169.274 35.3999 169.826 35.2253C169.826 35.4365 169.827 35.6477 169.828 35.8589C169.275 35.8223 168.722 35.7856 168.169 35.749ZM264.364 36.0676C263.78 35.345 262.385 35.4562 261.515 35.4414C262.114 36.0623 263.542 35.757 264.364 36.0676ZM189.55 35.7563C189.479 35.2639 192.98 35.3878 191.768 36.2544C191.029 36.0884 190.289 35.9223 189.55 35.7563ZM196.662 36.4851C195.911 36.5928 195.329 36.4236 195.484 35.6501C195.882 35.6831 196.28 35.7161 196.678 35.749C196.673 35.9944 196.668 36.2397 196.662 36.4851ZM62.9454 35.8589C64.211 35.7893 65.4766 35.7197 66.7421 35.6501C66.6952 35.8613 66.6483 36.0725 66.6014 36.2837C65.3813 36.352 64.1612 36.4204 62.9411 36.4887C62.9425 36.2788 62.944 36.0688 62.9454 35.8589ZM265.08 37.9645C265.949 37.8266 266.818 37.6887 267.688 37.5507C266.818 37.4091 265.948 37.2675 265.078 37.1259C265.078 37.4067 265.078 37.6874 265.078 37.9682C265.079 37.967 265.079 37.9657 265.08 37.9645ZM45.6083 38.5944C49.4745 39.5792 44.5414 40.6203 43.5212 39.173C43.5201 39.1742 43.519 39.1754 43.5179 39.1766C43.4286 39.0487 43.6175 38.4302 43.4689 38.1806C43.8623 38.4601 44.2558 38.7396 44.6493 39.0192C45.0083 38.6713 45.3672 38.3234 45.7261 37.9755C45.8443 38.1122 45.9625 38.2489 46.0807 38.3856C45.9232 38.4552 45.7658 38.5248 45.6083 38.5944ZM30.0048 39.1437C26.4991 39.0295 30.0861 37.4826 31.8213 38.7042C31.8089 38.9869 30.3277 39.1542 30.0048 39.1437ZM39.1921 38.8104C39.7445 38.6701 40.2969 38.5297 40.8493 38.3893C40.9199 38.5663 40.9904 38.7433 41.061 38.9203C40.637 39.0961 40.2129 39.2719 39.7889 39.4476C39.59 39.2352 39.391 39.0228 39.1921 38.8104ZM57.3595 41.5423C58.2485 41.7367 59.3824 39.7686 56.5282 40.2862C56.5296 40.4974 56.5311 40.7086 56.5325 40.9198C56.6463 40.886 56.9801 40.6879 56.9984 40.7037C57.0507 40.7565 56.9889 41.4617 57.3595 41.5423ZM23.5133 44.7063C23.4135 44.7866 23.3591 47.0141 22.3208 44.7099C22.007 44.8503 21.6931 44.9907 21.3793 45.131C21.2982 44.6403 21.2171 44.1496 21.136 43.6589C22.3507 44.0394 22.4794 43.0465 22.5674 43.0254C22.9712 42.9325 22.6724 43.4432 22.9329 43.4502C23.6055 43.4671 25.1339 43.1242 24.4407 44.5817C24.191 45.1038 23.6132 44.6259 23.5133 44.7063ZM25.8884 45.9733C25.7411 45.7874 26.2156 45.1358 26.1044 44.9516C26.007 44.791 24.543 44.1262 24.9392 43.0254C25.1797 43.0718 25.42 43.1182 25.6604 43.1646C25.7419 43.4661 25.8233 43.7676 25.9048 44.0691C26.1375 43.7908 26.3703 43.5124 26.603 43.2341C26.9952 43.9781 27.8299 44.9419 26.8387 45.5485C27.203 45.485 27.5675 45.4216 27.9319 45.3581C28.1206 45.0017 28.3094 44.6452 28.4981 44.2888C28.3992 44.832 28.3003 45.3752 28.2014 45.9184C27.4304 45.9367 26.6594 45.955 25.8884 45.9733ZM14.5922 45.7646C14.6366 45.4838 14.6808 45.2031 14.7253 44.9223C13.387 45.4443 11.3029 45.6427 12.4865 43.8823C14.2994 43.7358 16.1123 43.5893 17.9252 43.4429C18.0456 43.654 18.1659 43.8652 18.2863 44.0764C16.9338 43.2628 17.3518 46.725 16.1752 45.7316C15.9769 45.5632 16.5524 44.3525 15.3057 45.1274C15.3501 45.4094 15.3944 45.6913 15.4388 45.9733C15.1566 45.9037 14.8744 45.8342 14.5922 45.7646ZM3.08752 45.3434C5.37903 45.7492 2.85495 46.7738 2.43185 45.922C2.43265 45.922 2.43323 45.922 2.43402 45.922C1.27441 43.5912 3.76785 44.7174 3.91998 44.7026C4.12219 44.682 4.59299 43.0133 5.69287 45.446C4.8244 45.4118 3.95599 45.3776 3.08752 45.3434ZM10.5685 45.7609C10.376 45.8159 10.4826 45.3921 10.3994 45.3984C10.3987 45.3984 10.3979 45.3984 10.3973 45.3984C9.17068 45.4893 6.25336 45.8687 5.93725 44.5012C6.84515 44.3871 10.9077 44.0916 11.1533 45.0212C10.9584 45.2678 10.7635 45.5143 10.5685 45.7609ZM19.1995 44.7429C19.9525 45.6282 18.2573 45.7461 17.8128 45.3361C17.7289 45.2473 18.4194 43.8257 19.1995 44.7429ZM76.9605 47.028C78.6172 46.4953 76.4405 45.9638 77.194 45.131C76.8776 45.2018 76.5612 45.2726 76.2448 45.3434C76.4833 45.905 76.7219 46.4665 76.9605 47.028ZM152.495 48.7088C152.881 48.8072 152.698 48.2989 152.732 48.2914C152.985 48.3055 153.225 48.7197 153.322 48.6759C155.122 47.8398 153.925 47.4129 153.907 47.3136C153.869 46.8107 154.342 46.2222 153.686 45.6474C153.289 45.8256 152.891 46.0038 152.493 46.182C152.295 45.9025 152.098 45.623 151.9 45.3434C151.11 45.9432 152.144 46.1077 152.262 46.9035C152.307 47.2163 151.563 47.5907 152.495 48.7088ZM79.9291 48.7125C80.1977 47.829 80.856 46.7145 80.2095 45.8268C80.2088 45.8268 80.208 45.8268 80.2073 45.8268C80.0878 45.6644 79.6008 45.5751 79.4512 45.3471C78.3847 46.5241 78.7933 47.7404 79.9291 48.7125ZM145.359 50.2908C144.717 50.0845 144.076 49.8782 143.434 49.6719C143.445 49.1422 143.456 48.6124 143.467 48.0826C143.81 48.2254 144.154 48.3683 144.497 48.5111C144.617 48.2694 144.738 48.0277 144.858 47.786C144.432 47.1818 144.006 46.5775 143.579 45.9733C143.066 46.1845 142.552 46.3957 142.039 46.6068C142.275 46.8864 142.511 47.1659 142.747 47.4454C141.492 47.754 141.765 46.4658 140.726 45.9733C140.371 46.464 140.015 46.9547 139.659 47.4454C139.144 46.9523 138.629 46.4591 138.114 45.966C137.249 46.1964 137.173 46.572 137.756 47.1342C137.325 47.7766 136.854 46.7661 136.336 47.028C136.293 47.0491 136.374 47.6542 136.336 47.6615C133.657 48.0694 133.8 46.4804 133.372 46.4127C133.07 46.3663 131.865 47.4387 131.846 47.8043C131.822 48.297 134.329 50.24 130.403 50.2908C132.433 51.6347 134.741 50.2667 133.249 48.295C133.891 48.4934 136.724 48.0015 136.905 48.0606C137.168 48.1499 137.076 48.898 137.405 48.9176C137.6 48.9281 138.117 47.2182 139.659 48.7125C139.856 48.4317 140.054 48.151 140.251 47.8702C140.435 48.1009 140.62 48.3316 140.805 48.5623C140.424 49.3851 140.044 50.2078 139.664 51.0305C141.171 50.1366 142.421 51.8159 143.338 50.4007C144.131 50.5654 144.517 50.7282 144.176 51.4517C144.414 51.4517 144.652 51.4517 144.891 51.4517C145.047 51.0647 145.203 50.6778 145.359 50.2908ZM84.7971 47.4491C85.5856 48.2705 85.869 46.4984 85.7463 46.3981C85.0549 45.8467 84.3869 47.0218 84.7971 47.4491ZM151.064 47.7677C150.194 47.3112 149.324 46.8546 148.454 46.3981C148.454 46.9584 148.454 47.5187 148.454 48.079C149.324 47.9752 150.194 47.8714 151.064 47.7677ZM76.7183 48.2877C76.6383 47.8678 76.5583 47.4479 76.4783 47.028C75.5254 48.5618 74.5794 46.3611 74.1086 46.8156C74.0064 46.9149 74.2127 47.6563 74.4075 47.8153C74.5287 47.9146 76.5495 48.4293 76.7183 48.2877ZM37.0527 48.0863C37.4076 47.8043 37.7625 47.5223 38.1175 47.2404C38.0978 47.7128 38.0782 48.1852 38.0586 48.6576C37.8833 48.7454 37.708 48.8333 37.5327 48.9212C37.3727 48.6429 37.2127 48.3646 37.0527 48.0863ZM41.0916 47.3356C41.7247 47.3734 42.3578 47.4113 42.991 47.4491C40.576 47.8824 42.558 48.0938 41.0916 48.7088C41.0916 48.2511 41.0916 47.7933 41.0916 47.3356ZM47.5001 48.2914C47.4223 48.5733 47.3445 48.8553 47.2666 49.1373C46.6335 49.1373 46.0003 49.1373 45.3672 49.1373C45.7676 50.1162 46.168 51.0952 46.5684 52.0742C46.8004 52.0766 47.0324 52.0791 47.2644 52.0815C47.343 50.8181 47.4216 49.5547 47.5001 48.2914ZM169.598 50.8145C169.98 50.8314 171.312 49.9759 171.255 49.6609C170.702 49.274 170.149 48.887 169.595 48.5001C169.593 49.0616 169.59 49.6231 169.588 50.1846C169.51 49.9051 169.431 49.6255 169.353 49.346C169.039 49.556 168.724 49.7659 168.409 49.9759C168.251 49.4852 168.092 48.9945 167.934 48.5037C167.775 49.064 167.615 49.6243 167.456 50.1846C168.975 51.1779 168.923 50.1851 169.239 50.1956C169.399 50.2003 169.5 50.548 169.557 50.7229C169.571 50.7534 169.584 50.784 169.598 50.8145ZM150.462 51.3418C152.276 51.4813 153.313 50.003 154.625 51.2393C153.783 48.6059 148.349 51.3259 146.433 49.13C146.234 49.5523 146.036 49.9747 145.837 50.397C146.88 50.0209 147.603 50.8908 148.111 51.0159C148.515 51.1152 148.473 50.6726 148.504 50.679C148.506 50.679 148.507 50.679 148.508 50.679C149.454 50.8607 149.747 51.2868 150.462 51.3418ZM75.3709 50.3531C75.8582 51.0204 76.711 50.9536 76.7205 49.9795C76.2459 49.6976 75.7713 49.4156 75.2967 49.1336C75.3942 49.383 75.2877 50.2389 75.3709 50.3531ZM48.2365 51.0122C48.6169 51.3293 49.5153 51.0514 49.1279 50.2102C49.0583 50.0609 48.1633 50.6522 48.6882 49.1336C47.8162 49.1571 48.0203 50.83 48.2365 51.0122ZM119.471 49.346C119.151 49.3741 118.831 49.4022 118.511 49.4302C118.437 49.8233 118.362 50.2163 118.288 50.6094C118.682 50.1883 119.077 49.7671 119.471 49.346ZM71.2578 51.0269C70.8323 49.1033 70.1055 50.9752 69.3071 49.3936C69.0121 49.3814 68.7172 49.3692 68.4223 49.357C68.4216 49.357 68.4208 49.357 68.4201 49.357C68.4121 49.8819 68.4041 50.4068 68.3961 50.9317C69.35 50.9634 70.3039 50.9951 71.2578 51.0269ZM139.426 50.2945C139.229 50.0503 139.032 49.8062 138.835 49.5621C138.484 49.8465 138.133 50.1309 137.782 50.4153C137.972 50.6192 138.161 50.823 138.351 51.0269C138.709 50.7827 139.068 50.5386 139.426 50.2945ZM66.0733 51.1917C67.1049 51.4326 67.493 49.7604 66.1737 49.7562C65.6176 49.7562 64.9925 50.9399 66.0733 51.1917ZM189.305 50.1919C188.952 50.0491 188.598 49.9063 188.245 49.7635C188.125 50.115 188.004 50.4666 187.884 50.8181C188.358 50.6094 188.832 50.4007 189.305 50.1919ZM43.3445 50.8218C43.3859 50.4702 43.4274 50.1187 43.4689 49.7671C43.7841 49.8379 44.0995 49.9087 44.4147 49.9795C44.3355 50.3286 44.2562 50.6778 44.1769 51.0269C43.8994 50.9585 43.6219 50.8901 43.3445 50.8218ZM186.927 49.9759C186.644 49.9087 186.362 49.8416 186.079 49.7745C185.89 49.9454 185.7 50.1162 185.51 50.2871C185.774 50.4568 186.039 50.6265 186.303 50.7962C186.511 50.5227 186.719 50.2493 186.927 49.9759ZM56.2947 51.0305C56.6916 51.4532 58.2772 50.1362 56.8489 49.8001C55.9388 49.5867 56.2352 50.9662 56.2947 51.0305ZM54.1552 51.4517C55.667 52.2569 54.5334 48.1698 52.7293 50.8181C54.5455 50.455 54.0664 51.403 54.1552 51.4517ZM40.8614 53.561C40.8233 53.5589 40.792 52.9712 40.4882 52.9494C39.3948 52.8733 37.9514 52.6411 37.1694 52.6052C35.2893 52.5185 29.5306 53.5809 28.8571 51.8801C28.7168 51.5229 29.0395 50.4556 28.9825 50.4007C28.8152 50.2474 27.8519 50.7653 28.0301 49.9795C28.9753 49.9856 29.9204 49.9917 30.8656 49.9978C30.6336 50.552 30.4015 51.1062 30.1695 51.6604C32.5245 51.3646 31.745 51.3987 32.4224 50.1919C32.821 50.6594 33.2196 51.127 33.6182 51.5945C34.4859 51.1245 35.3536 50.6546 36.2213 50.1846C36.0246 50.5349 35.8278 50.8853 35.6311 51.2356C36.9383 51.8844 36.5752 51.459 37.2905 50.6094C37.2919 50.9597 37.2934 51.3101 37.2949 51.6604C38.5571 50.8065 38.8029 51.8564 39.0787 51.8691C39.6443 51.8898 40.3653 47.7447 42.5229 51.8691C43.4327 49.8855 43.412 53.9209 43.9467 51.8691C45.4865 54.1028 42.558 53.2944 41.1723 53.2204C41.1716 53.2204 41.1708 53.2204 41.1701 53.2204C41.0655 53.2141 41.2316 53.5902 40.8614 53.561ZM48.7711 51.5066C47.8389 53.3274 51.5217 53.4979 50.3029 50.8694C50.1214 50.784 49.94 50.6985 49.7585 50.6131C49.4286 50.9109 49.0988 51.2087 48.7689 51.5066C48.7697 51.5066 48.7704 51.5066 48.7711 51.5066ZM83.3734 52.715C86.7844 51.9668 84.845 50.9194 83.6898 51.9424C83.4593 52.1453 83.333 52.4234 83.3734 52.715ZM153.054 52.7407C153.103 52.5222 153.153 52.3037 153.203 52.0852C152.059 52.2897 149.847 51.4468 149.878 52.9201C150.936 52.8603 151.995 52.8005 153.054 52.7407ZM144.005 53.7038C144.25 53.7926 145.254 54.0024 145.133 53.4511C144.698 53.0605 144.263 52.6699 143.828 52.2793C143.626 52.5234 143.423 52.7675 143.22 53.0117C143.503 53.0947 143.938 53.6806 144.005 53.7038Z" fill="#B92E2D"/>
</svg>
