<svg width="52" height="52" viewBox="0 0 52 52" fill="none" xmlns="http://www.w3.org/2000/svg">
<path d="M50.2164 26C50.2164 25.2547 50.6133 24.258 50.9981 23.2925C51.6499 21.658 52.39 19.8033 51.7591 17.9417C51.1108 16.0281 49.348 14.9396 47.7949 13.9776C46.9109 13.4316 46.0009 12.8665 45.5693 12.2997C45.1343 11.7277 44.8656 10.7657 44.5796 9.74653C44.1029 8.0392 43.5587 6.10307 41.8929 4.94173C40.2671 3.8116 38.2183 3.91213 36.4069 3.9988C35.3288 4.0508 34.2143 4.10627 33.4637 3.87227C32.7791 3.65907 31.9852 3.042 31.1445 2.3868C29.7093 1.26707 28.0817 0 26 0C23.9183 0 22.2907 1.26707 20.8537 2.3868C20.0148 3.042 19.2209 3.65907 18.5345 3.87227C17.784 4.10453 16.6695 4.0508 15.5913 3.9988C13.7852 3.9156 11.7312 3.81333 10.1053 4.94693C8.43959 6.1048 7.89706 8.04267 7.42039 9.75C7.13266 10.7692 6.86399 11.7312 6.42892 12.3032C5.99906 12.8683 5.08732 13.4316 4.20506 13.9759C2.65199 14.9396 0.88919 16.0299 0.23919 17.9417C-0.390009 19.8033 0.348391 21.658 1.00012 23.2925C1.38492 24.258 1.78359 25.2547 1.78359 26C1.78359 26.7453 1.38666 27.742 1.00186 28.7075C0.350124 30.342 -0.390009 32.1967 0.240924 34.0583C0.889191 35.9719 2.65199 37.0604 4.20506 38.0224C5.08906 38.5684 5.99906 39.1335 6.43066 39.7003C6.86572 40.2723 7.13439 41.2343 7.42039 42.2535C7.89706 43.9608 8.44132 45.8969 10.1071 47.0583C11.7329 48.1884 13.7783 48.0861 15.5931 48.0012C16.6729 47.9509 17.7892 47.8955 18.5363 48.1277C19.2209 48.3409 20.0148 48.958 20.8555 49.6132C22.2907 50.7329 23.9183 52 26 52C28.0817 52 29.7093 50.7329 31.1463 49.6132C31.9852 48.958 32.7791 48.3409 33.4655 48.1277C34.216 47.8955 35.3288 47.9475 36.4087 48.0012C38.2148 48.0879 40.2705 48.1884 41.8947 47.0548C43.5604 45.8952 44.1029 43.9591 44.5813 42.2517C44.8673 41.2325 45.136 40.2705 45.5711 39.6985C46.0009 39.1335 46.9127 38.5701 47.7949 38.0241C49.348 37.0604 51.1108 35.9701 51.7608 34.0583C52.39 32.1967 51.6516 30.342 50.9999 28.7075C50.6151 27.742 50.2164 26.7453 50.2164 26ZM47.7793 29.9901C48.2317 31.122 48.6963 32.2937 48.4761 32.9437C48.2265 33.6769 47.0791 34.3876 45.9697 35.074C44.8205 35.7847 43.6297 36.5213 42.8116 37.5977C41.9761 38.6967 41.6035 40.0261 41.2429 41.314C40.9067 42.5169 40.5565 43.7615 39.9117 44.2104C39.2565 44.668 37.8924 44.6021 36.5751 44.5363C35.1988 44.4687 33.7688 44.4011 32.4341 44.8153C31.1463 45.2157 30.0629 46.0616 29.0125 46.8763C27.9223 47.7291 26.8909 48.5333 26 48.5333C25.1091 48.5333 24.0777 47.7291 22.9857 46.878C21.9371 46.0616 20.8537 45.2175 19.5641 44.8171C18.7304 44.5588 17.862 44.4877 16.9901 44.4877C16.4667 44.4877 15.9432 44.5155 15.4249 44.538C14.1076 44.6039 12.7435 44.668 12.0883 44.2121C11.4435 43.7615 11.0951 42.5187 10.7571 41.3157C10.3965 40.0296 10.0239 38.6984 9.18839 37.5995C8.36852 36.5231 7.17946 35.7847 6.02852 35.074C4.91919 34.3876 3.77172 33.6752 3.52386 32.9437C3.30372 32.2937 3.76999 31.122 4.22066 29.9901C4.70252 28.7803 5.25026 27.4092 5.25026 26C5.25026 24.5908 4.70426 23.2197 4.22066 22.0099C3.76826 20.878 3.30372 19.7063 3.52386 19.0563C3.77346 18.3231 4.92092 17.6124 6.03026 16.926C7.17946 16.2153 8.37026 15.4787 9.18839 14.4023C10.0239 13.3033 10.3965 11.9739 10.7571 10.686C11.0933 9.48307 11.4417 8.23853 12.0883 7.7896C12.7417 7.33027 14.1041 7.39267 15.4249 7.46373C16.8012 7.53133 18.2312 7.59893 19.5659 7.18467C20.8537 6.78427 21.9371 5.9384 22.9875 5.12373C24.0777 4.27093 25.1091 3.46667 26 3.46667C26.8909 3.46667 27.9223 4.27093 29.0143 5.122C30.0629 5.9384 31.1463 6.78253 32.4359 7.18293C33.7705 7.5972 35.1953 7.52613 36.5768 7.462C37.8959 7.3944 39.2583 7.33027 39.9135 7.78787C40.5583 8.23853 40.9067 9.48133 41.2447 10.6843C41.6052 11.9704 41.9779 13.3016 42.8133 14.4005C43.6332 15.4769 44.8223 16.2153 45.9732 16.926C47.0825 17.6124 48.23 18.3248 48.4779 19.0563C48.698 19.7063 48.2317 20.878 47.7811 22.0099C47.2992 23.218 46.7515 24.5891 46.7515 26C46.7515 27.4109 47.2975 28.7803 47.7793 29.9901Z" fill="#B92E2D"/>
<path d="M19.0684 22.5334C20.983 22.5334 22.5351 20.9814 22.5351 19.0668C22.5351 17.1522 20.983 15.6001 19.0684 15.6001C17.1538 15.6001 15.6017 17.1522 15.6017 19.0668C15.6017 20.9814 17.1538 22.5334 19.0684 22.5334Z" fill="#B92E2D"/>
<path d="M32.9328 36.4C34.8473 36.4 36.3994 34.8479 36.3994 32.9333C36.3994 31.0187 34.8473 29.4666 32.9328 29.4666C31.0182 29.4666 29.4661 31.0187 29.4661 32.9333C29.4661 34.8479 31.0182 36.4 32.9328 36.4Z" fill="#B92E2D"/>
<path d="M32.0933 15.8478C31.2699 15.3556 30.2074 15.6225 29.7151 16.4424L19.3151 33.7757C18.8229 34.5973 19.0881 35.6616 19.9097 36.1538C20.187 36.3202 20.4955 36.4 20.7989 36.4C21.3882 36.4 21.9619 36.1001 22.2861 35.5593L32.6861 18.226C33.1801 17.4044 32.9131 16.3401 32.0933 15.8478Z" fill="#B92E2D"/>
</svg>
