<svg width="45" height="45" viewBox="0 0 45 45" fill="none" xmlns="http://www.w3.org/2000/svg">
<mask id="mask0_3008_1010" style="mask-type:alpha" maskUnits="userSpaceOnUse" x="0" y="0" width="45" height="45">
<rect width="44.68" height="44.5" fill="#D9D9D9"/>
</mask>
<g mask="url(#mask0_3008_1010)">
<path d="M30.9698 4.01962L31.1485 4.08734L31.2405 4.12245C31.0913 4.06711 30.9413 4.01224 30.7883 3.95964L30.9698 4.01962Z" fill="#B92E2D"/>
<path d="M44.8049 17.8828C44.8004 17.8679 44.8 17.8601 44.7962 17.8454C44.8299 17.8081 44.8585 17.7739 44.8787 17.7427L44.8049 17.8828Z" fill="#B92E2D"/>
<path d="M42.456 31.8369C42.4795 31.8152 42.5027 31.7918 42.5278 31.757C42.5023 31.8045 42.4788 31.8252 42.456 31.8369Z" fill="#B92E2D"/>
<path d="M7.51966 22.9599C7.51832 22.9778 7.51515 22.9954 7.51417 23.0132C7.51209 22.9857 7.51466 22.9692 7.51966 22.9599Z" fill="#B92E2D"/>
<path d="M33.8522 5.50535L33.7973 5.44169C33.8231 5.46597 33.8398 5.48655 33.8522 5.50535Z" fill="#B92E2D"/>
<path d="M44.807 21.8892C44.815 22.0027 44.8249 22.1103 44.8432 22.2011L44.9149 22.1864C44.971 22.4433 45.0058 22.6915 44.9992 22.9361C44.9937 23.1808 44.9678 23.4221 44.9337 23.6673C44.8469 24.1573 44.7264 24.6607 44.6226 25.2529L44.7897 25.1166C44.8727 25.5465 44.5604 25.1973 44.5457 25.6886L44.7188 25.7433C44.4019 26.1255 44.6723 26.3029 44.6865 26.6165L44.4885 26.4304L44.4054 26.987C44.3728 27.2975 44.4168 27.4085 44.4914 27.4351C44.5665 27.4618 44.675 27.4043 44.7452 27.3747C44.6475 27.4976 44.5454 27.6179 44.4461 27.7374L44.6225 27.8754C44.2979 28.1062 44.5802 28.1925 44.2707 28.6718C44.3302 28.7402 44.4194 28.6227 44.3886 28.8112L44.0989 29.191L43.7911 29.5563C43.8982 29.4042 44.0132 29.2539 44.1145 29.0969L43.807 29.0539C43.5956 29.2736 43.5308 29.4487 43.4915 29.6157C43.4511 29.7816 43.4396 29.9399 43.3128 30.1021C43.3786 30.0311 43.4479 29.9611 43.5089 29.8869C43.171 30.4522 43.27 30.5342 43.1715 30.9003C43.172 30.7717 43.1695 30.5772 43.0213 30.7988C42.9157 30.9626 43.0678 30.9391 43.011 31.1172C42.9103 31.0907 42.7813 31.1683 42.6634 31.3034C42.5462 31.4391 42.4402 31.6326 42.3693 31.8356C42.397 31.8455 42.4257 31.8516 42.456 31.8369C42.3718 31.9136 42.2982 31.9349 42.2431 32.1208L42.4942 32.1398L42.1226 32.3417C42.0512 32.5827 41.7093 32.7819 41.8567 32.8398L41.9714 32.7499C41.6507 33.2732 41.3004 33.7798 40.9275 34.2707L41.0518 34.4023C40.8961 34.3964 40.7534 34.605 40.6228 34.7863C40.4932 34.9682 40.3627 35.1101 40.2697 34.9872C40.2132 35.1697 39.9628 35.4092 39.7637 35.5982C39.5632 35.786 39.4272 35.9408 39.6237 35.9914C39.5166 36.1016 39.4115 36.2014 39.3081 36.294C39.2006 36.3825 39.0945 36.4631 38.9898 36.5399C38.8154 36.665 38.6473 36.7829 38.4719 36.895C38.4323 36.9349 38.3921 36.9743 38.3528 37.0145C38.2687 37.099 38.1843 37.1836 38.1 37.2684C38.0155 37.353 37.9311 37.4376 37.8465 37.5223C37.7581 37.6034 37.6697 37.6844 37.5812 37.7657C37.4927 37.8469 37.4042 37.9282 37.3155 38.0096C37.2271 38.0911 37.139 38.1733 37.045 38.2491C36.8601 38.4041 36.6748 38.5593 36.4891 38.7148C36.4433 38.7545 36.3956 38.7918 36.347 38.8281L35.9127 39.1597C35.8154 39.2325 35.721 39.3094 35.621 39.3792L35.0191 39.7965C34.9687 39.831 34.919 39.8669 34.8678 39.9004L34.7122 39.998C34.5047 40.1282 34.2967 40.2588 34.0885 40.3894C33.66 40.6309 33.2356 40.8831 32.7891 41.0977L32.4576 41.2651L32.3746 41.3069L32.1198 41.4209C31.8928 41.5211 31.6676 41.6266 31.4382 41.7227C31.2065 41.8137 30.9745 41.9046 30.7423 41.9956C30.6841 42.0179 30.6266 42.0424 30.5676 42.0627L30.0352 42.2428C29.086 42.556 28.1119 42.8146 27.1183 42.9797C26.7028 43.0508 26.2843 43.1093 25.8645 43.158C25.8403 43.176 25.8155 43.191 25.792 43.2C25.5909 43.2782 25.3899 43.3669 25.187 43.448C24.9832 43.5256 24.7754 43.5886 24.5672 43.6302C24.5649 43.6307 24.5627 43.6309 24.5604 43.6314C24.5469 43.6463 24.5351 43.6633 24.5203 43.6763C24.3915 43.7838 24.2054 43.8196 23.9179 43.7365C23.8105 43.7053 23.6992 43.6856 23.5854 43.6745C23.4715 43.6624 23.3545 43.653 23.2372 43.6528C23.0023 43.6508 22.7645 43.6743 22.5384 43.6995C22.3135 43.7165 22.0893 43.7382 21.8648 43.7623C21.7526 43.7736 21.6404 43.7886 21.5281 43.7982L21.1909 43.8233C20.9659 43.8391 20.7405 43.8593 20.5148 43.8691C20.289 43.874 20.0629 43.8765 19.8366 43.8741C18.7515 43.8493 17.6685 43.7044 16.6011 43.4846C16.8398 43.4646 17.1318 43.4558 17.4596 43.4611C17.6232 43.4666 17.7977 43.4609 17.979 43.4621C18.0793 43.4623 18.1824 43.4633 18.2869 43.4647C18.249 43.4143 18.2107 43.3642 18.1736 43.3139C18.265 43.3601 18.3567 43.408 18.4492 43.4487C18.4444 43.4549 18.4397 43.4611 18.435 43.4673C18.4712 43.468 18.5066 43.4684 18.5431 43.4692C18.7373 43.4706 18.9377 43.4647 19.1413 43.4652C19.243 43.4652 19.3458 43.4652 19.4493 43.4652C19.501 43.4649 19.5529 43.4665 19.6049 43.4652C19.6569 43.4634 19.7091 43.4616 19.7615 43.4598C19.9707 43.4529 20.1819 43.4472 20.393 43.4428L20.5513 43.4397C20.604 43.4379 20.6567 43.4338 20.7095 43.431C20.8148 43.4252 20.9199 43.4192 21.0246 43.4134C21.1294 43.4082 21.2336 43.4029 21.3372 43.3977C21.4409 43.3921 21.5439 43.3904 21.6458 43.3798C21.8498 43.3626 22.0505 43.3469 22.2456 43.3329C22.3433 43.326 22.4396 43.3193 22.5343 43.3126C22.6289 43.3028 22.7218 43.2933 22.813 43.2839C22.8289 43.2824 22.844 43.2811 22.8598 43.2795C22.7716 43.2782 22.6835 43.2765 22.5956 43.269L22.4839 43.2618C22.479 43.2645 22.4745 43.2658 22.4695 43.2687C22.3401 43.3438 22.1386 43.3396 21.9848 43.2943C21.8193 43.2496 21.6562 43.2154 21.4948 43.19C21.4211 43.1785 21.348 43.1695 21.2749 43.1612L21.2137 43.1542C21.1472 43.147 21.0809 43.1402 21.0145 43.1329C20.8552 43.1181 20.6969 43.1111 20.5391 43.1108C20.4601 43.1105 20.3812 43.1119 20.3024 43.1148C20.2236 43.1184 20.1446 43.1167 20.0657 43.1199C19.9079 43.1247 19.7499 43.1347 19.5916 43.1485C19.5124 43.1554 19.4332 43.1632 19.3538 43.1719C19.2745 43.1805 19.195 43.1844 19.1153 43.192C18.956 43.2057 18.7961 43.2219 18.6355 43.2392L18.394 43.2657C18.3135 43.274 18.2329 43.2781 18.1521 43.2845C18.16 43.2937 18.1659 43.3039 18.1735 43.314C18.1558 43.305 18.1378 43.2958 18.1199 43.2865H18.1196L18.1396 43.268C17.9407 43.1969 17.7102 43.2044 17.48 43.1456C17.251 43.0827 17.0234 42.944 16.8475 42.6027C16.9819 42.6066 17.1062 42.608 17.2229 42.6086C17.2812 42.6089 17.3376 42.609 17.3925 42.6092C17.4472 42.61 17.5004 42.6095 17.5526 42.607C17.7609 42.6001 17.9479 42.5979 18.1334 42.6134C18.2261 42.6208 18.3188 42.6314 18.4118 42.6428C18.442 42.6454 18.4721 42.649 18.5023 42.652C18.3751 42.6188 18.2471 42.5882 18.1207 42.5519C17.9995 42.5182 17.8771 42.4886 17.7571 42.4513L17.0398 42.22L16.8609 42.1615L16.6849 42.0952C16.6542 42.0837 16.6238 42.0721 16.5932 42.0606C16.4469 42.0289 16.3004 41.9974 16.1534 41.9678L16.0154 41.9402L15.8784 41.9074L15.6037 41.8442L15.1636 41.7455C15.1146 41.7344 15.0667 41.7199 15.0182 41.7071L14.2906 41.5097C14.2421 41.4961 14.1946 41.4796 14.1465 41.4647L13.4259 41.2338C13.3781 41.2174 13.331 41.1991 13.2837 41.1818L12.7142 40.9702L12.5715 40.9169L12.4315 40.8578L12.1512 40.7386L11.8704 40.6187C11.8237 40.5984 11.7764 40.5789 11.73 40.558L11.5925 40.4918L11.0411 40.2251C10.3158 39.8498 9.59818 39.4421 8.92243 38.9657L8.66646 38.7898C8.58052 38.7317 8.50033 38.6665 8.41696 38.6049L7.92186 38.2268C7.76037 38.0961 7.60291 37.9602 7.44362 37.8256L7.20571 37.6222C7.12832 37.5522 7.05289 37.4802 6.9766 37.4089C6.81584 37.2568 6.65313 37.1059 6.49481 36.9503L6.03267 36.4696C5.8757 36.3112 5.73337 36.1399 5.58555 35.9726C5.44017 35.8033 5.28832 35.6385 5.1521 35.4611L4.73391 34.9344C4.59829 34.7557 4.46878 34.5721 4.33585 34.3903C4.27006 34.2989 4.20305 34.2082 4.13835 34.116L3.7641 33.5515C3.70258 33.4567 3.63667 33.3641 3.57991 33.2663L3.13901 32.538L2.89098 32.0898C2.66271 31.6938 2.46656 31.281 2.25636 30.871C2.15749 30.6636 2.06362 30.4536 1.96609 30.2439L1.82084 29.9284L1.68705 29.6079C1.59856 29.3935 1.50481 29.1798 1.41851 28.9631C1.33539 28.7443 1.25214 28.5257 1.16913 28.3072C1.07612 28.0778 1.06831 27.8223 1.02376 27.5759C1.12519 27.821 1.21991 28.0654 1.33209 28.3043C1.35687 28.3588 1.38079 28.4124 1.40521 28.4668L1.21906 27.8645C1.1496 27.651 1.09895 27.4327 1.04158 27.2155C0.987257 26.9977 0.925127 26.7807 0.882771 26.5599L0.744227 25.8978C0.702847 25.676 0.669158 25.4527 0.63144 25.2294C0.613497 25.1177 0.593966 25.0059 0.577488 24.8938L0.495094 24.2182C0.482521 24.1053 0.464944 23.9924 0.457864 23.8791L0.388897 23.0268L0.367292 22.513C0.33995 22.0548 0.348861 21.5964 0.343856 21.134C0.348006 20.9036 0.357893 20.673 0.364241 20.4411L0.375104 20.093L0.398419 19.7458C0.414897 19.5139 0.426371 19.2801 0.446024 19.0472C0.469216 18.8139 0.492408 18.5806 0.515478 18.3476C0.534642 18.1003 0.641327 17.8688 0.71127 17.6286C0.692594 17.8938 0.668426 18.1553 0.662078 18.4201C0.652313 18.6838 0.638397 18.9447 0.630585 19.205C0.628266 19.4648 0.625947 19.7247 0.623628 19.9847C0.623384 20.0494 0.621064 20.1135 0.622529 20.1781L0.627533 20.372L0.646453 21.1413L0.669524 21.5241L0.703092 22.0944L0.721402 22.2839L0.793297 23.037L0.893024 23.783C1.03999 24.7724 1.24286 25.7417 1.50664 26.6851C1.77726 27.6272 2.11245 28.541 2.50952 29.4176C2.4939 29.3188 2.47095 29.2227 2.45228 29.1253C2.43336 29.0279 2.41151 28.9315 2.38734 28.836C2.33998 28.6445 2.27882 28.4569 2.22011 28.2684C2.16469 28.0789 2.1039 27.8903 2.04214 27.7014C2.01236 27.6067 1.97769 27.513 1.95169 27.4172L1.87247 27.1298C1.82218 26.9375 1.7703 26.7449 1.73551 26.5495C1.70341 26.3536 1.67936 26.1564 1.66777 25.9584C1.66313 25.8592 1.65666 25.7605 1.66301 25.6604C1.66813 25.5605 1.67692 25.4606 1.68998 25.3606C1.71708 25.1607 1.757 24.9612 1.82645 24.7627C1.89017 24.9729 1.95865 25.1811 2.01919 25.389L2.11025 25.7C2.1437 25.803 2.17629 25.9059 2.2079 26.0086C2.23952 26.1113 2.27016 26.214 2.29982 26.3167C2.32936 26.4194 2.35707 26.5223 2.391 26.6238C2.45533 26.8275 2.51563 27.0315 2.57166 27.2361C2.59827 27.3408 2.6344 27.443 2.6665 27.5462L2.76513 27.8547L2.86412 28.1623L3.14218 28.9194C3.16049 28.9698 3.18295 29.0188 3.2031 29.0685L3.45174 29.6613C3.80341 30.4419 4.20036 31.1971 4.65688 31.9098C5.12048 32.618 5.63267 33.2877 6.20124 33.8974C6.34455 34.0488 6.49444 34.1938 6.64153 34.3396C6.71379 34.4091 6.78337 34.4805 6.85807 34.5473C6.66118 34.2706 6.47137 33.9898 6.28986 33.7046L6.02278 33.3517L5.86019 33.1364C5.80551 33.0648 5.7573 32.9891 5.70542 32.9154L5.39806 32.4696C5.34508 32.3961 5.29931 32.3182 5.25073 32.2419L4.96082 31.7814L4.88844 31.6657L4.82082 31.5474C4.6415 31.2312 4.45218 30.9171 4.28922 30.589C3.71552 29.4943 3.19272 28.3466 2.7882 27.1316C2.38368 25.918 2.1 24.6394 2.00552 23.3299C1.97525 23.0289 1.9667 22.724 1.95669 22.4163L1.95218 22.1852L1.95132 22.0696L1.95633 21.9541C1.96414 21.8003 1.97561 21.6462 1.99209 21.4928C2.00027 21.4162 2.00979 21.3396 2.02078 21.2633C2.03225 21.187 2.04251 21.1107 2.0613 21.0356C2.09585 20.8851 2.13686 20.7358 2.18581 20.5888C2.21742 20.4955 2.2527 20.4035 2.29091 20.3124C2.31178 19.6858 2.3567 19.0551 2.43336 18.4226C2.42249 18.3688 2.41431 18.3149 2.41138 18.2622C2.40992 18.198 2.41566 18.1358 2.4286 18.0778C2.474 17.883 2.52051 17.6876 2.56982 17.4928C2.75793 16.4089 3.0499 15.3296 3.47627 14.2941C3.5832 14.0117 3.71137 13.7359 3.83929 13.457L3.93805 13.2488L3.98882 13.1453L4.04473 13.0447C4.12016 12.9111 4.1989 12.7791 4.2819 12.6498C4.3234 12.5852 4.366 12.5213 4.4097 12.4583C4.45377 12.3956 4.4971 12.3323 4.54715 12.2739C4.64492 12.1555 4.74794 12.0413 4.85707 11.9328C4.96681 11.8248 5.07996 11.7205 5.20471 11.6273C5.24255 11.6 5.28234 11.5748 5.32152 11.5489C5.53929 11.231 5.76523 10.9183 6.00106 10.6122C6.00045 10.5901 6.00118 10.5689 5.99959 10.546C5.99031 10.4215 6.00081 10.2828 6.03194 10.1512C6.04744 10.0854 6.06819 10.0215 6.09383 9.96197C6.12105 9.90413 6.15388 9.85129 6.19123 9.80547C6.37104 9.58946 6.55071 9.37119 6.74028 9.16209C6.93351 8.95715 7.12979 8.75364 7.32827 8.55156C7.5326 8.35674 7.74158 8.16597 7.95092 7.97448C8.05406 7.87677 8.16563 7.79001 8.27378 7.69825L8.60152 7.42691C8.67097 7.37157 8.74763 7.32551 8.84186 7.28576C8.93537 7.24494 9.04168 7.20305 9.16363 7.14545C9.13104 7.27719 9.06805 7.38383 8.99274 7.47856C9.17522 7.32432 9.35893 7.17127 9.5474 7.02334C9.54508 7.02858 9.54239 7.03465 9.54056 7.03905C9.53751 7.04107 9.53446 7.04309 9.53116 7.04357C9.53336 7.04369 9.5358 7.04512 9.53873 7.04631C9.44706 7.28314 9.36796 7.53711 9.26982 7.84321C9.36967 7.87605 9.46 7.91711 9.543 7.95222C9.74246 7.76787 9.94508 7.5871 10.1513 7.41001C10.1041 7.34277 10.0507 7.27838 9.99904 7.23077C9.88576 7.12462 9.69766 7.10248 9.53873 7.04607C9.53946 7.04381 9.5402 7.04155 9.54056 7.03881C9.77956 6.93408 10.0119 6.78413 10.2505 6.7007C10.2563 6.67238 10.2593 6.64179 10.2665 6.61465C10.3058 6.46815 10.3633 6.33426 10.4425 6.22073C10.5995 5.99044 10.8242 5.80586 11.099 5.63912C12.0396 5.08524 13.0297 4.60622 14.0566 4.20789C14.085 4.19337 14.1125 4.17933 14.1413 4.16469C14.2348 4.11792 14.33 4.0702 14.4268 4.02164C14.5246 3.97558 14.6253 3.93215 14.7275 3.88645C14.9319 3.796 15.1439 3.70388 15.3627 3.61069C15.583 3.5237 15.8114 3.44027 16.0454 3.35387C16.1626 3.3115 16.2808 3.26675 16.4013 3.22605C16.5225 3.18821 16.645 3.14989 16.7684 3.11133C16.8925 3.07348 17.0176 3.0354 17.1436 2.99696C17.2699 2.95887 17.3974 2.91947 17.527 2.88901C17.7858 2.82367 18.0491 2.75917 18.3161 2.69585L18.4165 2.67217L18.5173 2.65242C18.5848 2.63944 18.6523 2.62659 18.7201 2.61362C18.8559 2.58839 18.9924 2.56304 19.1291 2.53757C19.2662 2.51365 19.404 2.48568 19.5423 2.46628C19.6808 2.44807 19.8197 2.42974 19.9588 2.41142C20.0984 2.39404 20.2382 2.37679 20.3779 2.35941C20.448 2.35132 20.5181 2.34192 20.5883 2.33525L20.7989 2.31919C21.0802 2.29836 21.3621 2.27955 21.6437 2.26313C21.718 2.26123 21.7918 2.26146 21.866 2.26015C22.4052 2.20422 22.9459 2.16923 23.4866 2.15995C24.7111 2.13424 25.9379 2.21112 27.1513 2.39345C28.7802 2.6442 30.3781 3.09192 31.908 3.7159C31.7406 3.6264 31.5725 3.53821 31.4076 3.44598C31.2274 3.34399 31.0477 3.24224 30.8691 3.14108C30.692 3.03801 30.5197 2.92876 30.3543 2.80987C30.2594 2.74275 30.1656 2.67408 30.0682 2.61267C29.9706 2.55162 29.8724 2.49234 29.7736 2.43462C29.5761 2.3193 29.3762 2.21076 29.1744 2.10984C29.0743 2.05771 28.9698 2.01499 28.8663 1.9712C28.7625 1.928 28.6583 1.88682 28.5536 1.84754C28.3439 1.76995 28.1342 1.69664 27.9203 1.63892C27.705 1.58429 27.4883 1.53835 27.2709 1.50146C27.0533 1.46552 26.8367 1.43362 26.6146 1.42612C26.3936 1.41541 26.1723 1.41434 25.9515 1.42362C25.8409 1.42862 25.731 1.43446 25.6202 1.44612C25.509 1.45957 25.3978 1.47552 25.287 1.4942C25.1034 1.52502 24.909 1.54323 24.7238 1.523C24.5168 1.49765 24.3073 1.48694 24.0991 1.47528C23.8907 1.46373 23.683 1.45373 23.4761 1.44469C23.2688 1.43743 23.0605 1.441 22.8539 1.43969C22.647 1.441 22.4413 1.43778 22.2354 1.44385L21.6191 1.46849L21.3126 1.48028C21.2107 1.48242 21.1084 1.49373 21.0066 1.49968C20.5989 1.53038 20.1937 1.54704 19.7895 1.5875C18.3161 1.70509 16.8658 1.95441 15.4614 2.34072C14.792 2.52483 14.1335 2.74108 13.4883 2.98743C13.3292 3.06979 13.17 3.15036 13.0139 3.23688L12.4754 3.5425L12.2073 3.69412C12.1175 3.74303 12.0312 3.80004 11.943 3.85228C11.5931 4.06734 11.2393 4.26871 10.8968 4.49079C9.63541 5.27376 8.45309 6.1636 7.3727 7.15449C6.29243 8.14502 5.31408 9.23695 4.46536 10.4159C4.31925 10.6197 4.16985 10.8591 3.966 10.9764C3.86346 11.0366 3.76618 11.1021 3.67365 11.172C3.5843 11.2443 3.49971 11.3212 3.41939 11.4016C3.25864 11.5628 3.1146 11.7384 2.98216 11.9232C2.85558 12.1119 2.74206 12.3106 2.63366 12.5128C2.57959 12.614 2.52698 12.7161 2.4751 12.8187C2.4253 12.9227 2.37855 13.0285 2.33046 13.1336C2.22902 13.3594 2.10671 13.5748 1.97342 13.8156C1.84525 14.059 1.70073 14.3248 1.54314 14.642C1.53667 14.3259 1.50896 14.2171 1.54119 14.1345C1.736 13.6426 1.94925 13.1556 2.17861 12.6752C2.14028 12.6614 2.10207 12.6477 2.06375 12.634C2.12429 12.5087 2.18508 12.383 2.24586 12.2573L2.33802 12.0689L2.43751 11.8848C2.47266 11.9036 2.50904 11.9232 2.54517 11.9424C2.87389 11.3187 3.23691 10.7111 3.63899 10.1273C3.59382 10.1201 3.53267 10.0939 3.48421 10.0836C3.53645 10.003 3.58015 9.91305 3.64692 9.84652C3.66938 9.82415 3.74274 9.85795 3.81732 9.8758C3.86224 9.8132 3.90509 9.74929 3.95098 9.68717C4.85841 8.44886 5.89486 7.29766 7.04141 6.25286C7.00467 6.27988 6.96879 6.30582 6.93082 6.33414C7.0657 6.04935 7.08939 5.9395 7.15493 5.88071C8.39914 4.77522 9.77041 3.77957 11.2832 3.02421C11.954 2.68562 12.6438 2.38167 13.3486 2.11068C14.6701 1.50836 16.0537 1.01268 17.4818 0.633751C18.9476 0.244704 20.4635 0.0354801 21.9988 0.0040611C23.5361 -0.0273579 25.0966 0.123662 26.6297 0.451181C28.1632 0.778105 29.6688 1.28069 31.1078 1.93787C32.5473 2.59493 33.9205 3.406 35.2035 4.34523C36.7048 5.4487 38.0636 6.75318 39.2534 8.20107C39.33 8.28962 39.4001 8.38375 39.4729 8.47575L39.6883 8.75376L39.9023 9.03296C39.9732 9.12639 40.0452 9.21874 40.1117 9.31561L40.5149 9.89305L40.7144 10.1833L40.9034 10.481L40.9839 10.6097C41.0903 10.6831 41.1674 10.764 41.1459 10.8689L41.2772 11.079C41.332 11.1649 41.3818 11.2541 41.4324 11.3427C41.6368 11.6345 41.8368 11.9301 42.0275 12.2331C42.0437 12.2239 42.0537 12.2195 42.0469 12.263C42.0836 12.3214 42.1229 12.3777 42.1589 12.4364C42.477 12.9539 42.7736 13.4879 43.0503 14.0351L43.0717 14.0471C43.3209 14.3687 43.3921 14.5965 43.4657 14.8674C43.4716 14.8905 43.4771 14.9147 43.4827 14.9388C43.6241 15.2528 43.7596 15.5705 43.887 15.8928C43.9347 16.0134 43.9856 16.1364 44.0278 16.2632C44.0357 16.2879 44.0427 16.3128 44.0505 16.3374C44.2489 16.5345 44.4255 16.5401 44.479 16.2431C44.4458 16.5266 44.4184 16.5953 44.4184 16.6786C44.4176 16.7614 44.4394 16.86 44.4792 17.1996C44.6123 17.2691 44.6131 17.1949 44.6606 17.0236C44.8112 17.2952 44.8138 17.3927 44.7934 17.4754C44.7746 17.558 44.7366 17.6258 44.7965 17.8449C44.6885 17.9632 44.5325 18.099 44.4459 18.2186C44.4466 18.2324 44.4478 18.2479 44.4483 18.2609C44.4486 18.3299 44.4442 18.3877 44.437 18.4319C44.4222 18.5202 44.3935 18.5542 44.3487 18.5182C44.331 18.5039 44.31 18.4752 44.2872 18.4379C44.2934 18.6106 44.3017 18.7872 44.3311 18.9642C44.3735 19.2127 44.427 19.4676 44.5173 19.7271L44.6141 19.6916C44.6245 19.885 44.6458 20.0764 44.6466 20.2699L44.779 20.2905C44.7936 20.5669 44.8166 20.8421 44.8228 21.1181L44.7808 21.0078C44.779 21.1052 44.7756 21.3135 44.7844 21.5418C44.7883 21.6565 44.7954 21.7757 44.807 21.8892ZM3.68305 31.5998L3.6468 31.5368L3.54634 31.3438C3.45748 31.1714 3.36861 30.999 3.27999 30.8271C3.20724 30.865 3.13474 30.9027 3.06162 30.9407C3.25509 31.2837 3.4377 31.6302 3.6501 31.959C3.71088 31.922 3.76801 31.8873 3.82831 31.8507C3.77985 31.7672 3.73151 31.6835 3.68305 31.5998ZM19.4976 0.637434C19.3852 0.637077 19.2729 0.646957 19.1612 0.655645C19.0495 0.664927 18.9382 0.676117 18.8273 0.689327C18.6058 0.7167 18.3862 0.747879 18.1698 0.794769C18.0315 0.827021 17.8947 0.863915 17.7588 0.90295C18.1825 0.830829 18.6086 0.768829 19.0378 0.719915C19.3152 0.68802 19.5939 0.662309 19.8732 0.640173C19.7475 0.637197 19.6222 0.635887 19.4976 0.637434ZM5.55198 17.2333C5.54844 17.2372 5.54356 17.2401 5.54002 17.244C5.46129 17.3303 5.38488 17.4253 5.3225 17.5268C5.29247 17.5758 5.26611 17.6264 5.24389 17.6781C5.23608 17.7152 5.22839 17.7522 5.2207 17.789C5.20446 17.8653 5.1875 17.9395 5.17053 18.0137C5.15918 18.0936 5.14746 18.1737 5.13684 18.2535L5.11084 18.4545L5.09827 18.5547C5.09485 18.5883 5.09302 18.6224 5.09033 18.6561L5.07325 18.907C5.2052 18.3921 5.35753 17.8822 5.53184 17.3792C5.53795 17.3307 5.54368 17.2822 5.55198 17.2333ZM19.9654 3.94571C19.9016 3.95785 19.838 3.96987 19.7743 3.98189C19.7339 4.03616 19.6888 4.07793 19.6381 4.10542C19.6128 4.11851 19.586 4.12792 19.5581 4.13541C19.5964 4.13815 19.6349 4.1391 19.6735 4.14006L19.7184 4.12994L19.8102 4.11375L19.9942 4.08102C20.0658 4.06817 20.138 4.05532 20.2099 4.04247C20.2056 4.0314 20.2008 4.02128 20.1968 4.00974C20.1851 3.97653 20.1767 3.94226 20.1658 3.9087C20.0989 3.92107 20.032 3.93333 19.9654 3.94571ZM9.42387 9.95304C9.48698 9.89234 9.55057 9.83117 9.61453 9.76952L9.63235 9.75239C9.65542 9.7268 9.67862 9.70109 9.70181 9.67539C9.78628 9.58137 9.88063 9.49021 9.96913 9.39631C10.0136 9.34954 10.0559 9.30145 10.0961 9.2529C10.1373 9.20541 10.1754 9.15638 10.2083 9.10484C10.2167 9.09175 10.2236 9.07807 10.2312 9.06462C10.1471 9.14685 10.0631 9.22921 9.98085 9.31252C9.7128 9.5916 9.45121 9.87592 9.19988 10.1669C9.27434 10.096 9.34794 10.0256 9.42387 9.95304ZM8.88044 10.9861L8.91413 10.9495C8.91498 10.9465 8.91608 10.9439 8.91693 10.941C8.90497 10.9561 8.89228 10.9709 8.88044 10.9861ZM23.6322 4.29298C23.6026 4.29239 23.5738 4.29203 23.544 4.29144C23.3856 4.29025 23.2222 4.29513 23.056 4.29477C22.973 4.29477 22.8893 4.29477 22.8048 4.29477C22.7626 4.29489 22.7204 4.2937 22.6779 4.29477C22.6354 4.2962 22.5928 4.29774 22.5502 4.29917C22.3794 4.30477 22.2073 4.30941 22.0351 4.3131L21.9059 4.31572C21.863 4.31715 21.8199 4.3206 21.7769 4.32286C21.691 4.32762 21.6053 4.3325 21.5199 4.33726C21.5031 4.33809 21.4865 4.33892 21.4698 4.33975C21.4691 4.34059 21.4683 4.34142 21.4676 4.34225C21.3966 4.41283 21.3252 4.46638 21.2541 4.51018L21.6726 4.45436C21.7869 4.43639 21.9028 4.43199 22.0179 4.42104L22.7099 4.36427C22.8253 4.3563 22.9412 4.35571 23.0568 4.35106L23.6692 4.33202C23.6529 4.3244 23.6369 4.31548 23.6207 4.30834C23.6245 4.3031 23.6283 4.2981 23.6322 4.29298ZM21.5279 4.56588C21.6578 4.5779 21.7869 4.58361 21.9157 4.58397C21.9802 4.5842 22.0445 4.58302 22.1087 4.58076C22.173 4.5779 22.2373 4.5792 22.3018 4.57659C22.3893 4.57397 22.4771 4.56695 22.5647 4.56076C22.6608 4.52898 22.7548 4.49923 22.8422 4.47472C22.3719 4.48281 21.8989 4.50947 21.4253 4.5541C21.4594 4.55779 21.4937 4.56219 21.5279 4.56588ZM19.9811 4.51935C20.0913 4.54636 20.2066 4.53387 20.341 4.4552C20.3672 4.43997 20.3971 4.4289 20.4291 4.42116C20.426 4.41771 20.4232 4.41354 20.4202 4.41009C20.376 4.41319 20.3314 4.41628 20.2881 4.41937C20.211 4.42735 20.1352 4.43509 20.0608 4.44282C19.986 4.4502 19.9125 4.4571 19.8406 4.46341C19.887 4.48757 19.9336 4.50768 19.9811 4.51935ZM24.4111 4.55552C24.4623 4.56968 24.5135 4.58909 24.5637 4.61455C24.6218 4.61765 24.6799 4.61908 24.7378 4.62265C24.9193 4.62634 25.1143 4.61896 25.3192 4.60348C24.8892 4.55052 24.454 4.51292 24.0148 4.49138C24.1407 4.51399 24.2757 4.52101 24.4111 4.55552ZM19.1123 5.07763C19.0249 5.05204 18.9359 5.02253 18.8452 4.98944C18.8104 4.99884 18.7761 5.00967 18.7414 5.01931C18.7454 5.0731 18.7458 5.12202 18.7423 5.16641C18.8653 5.13559 18.9886 5.10595 19.1123 5.07763ZM10.3188 14.1463C10.3528 14.0789 10.3872 14.0106 10.421 13.9435C10.3755 13.9187 10.3312 13.8947 10.2861 13.8702C10.2712 13.9534 10.2562 14.0368 10.2415 14.1194C10.2671 14.1284 10.2927 14.1381 10.3188 14.1463ZM14.3934 6.79924C14.3843 6.81757 14.3753 6.83602 14.3671 6.85506C14.591 6.73569 14.8167 6.62001 15.0448 6.50969C15.0758 6.47303 15.1072 6.43781 15.1389 6.40436C14.8872 6.5304 14.6388 6.66238 14.3934 6.79924ZM18.7409 5.01431C18.7744 5.00575 18.8077 4.99634 18.8411 4.98801C18.8057 4.97504 18.7711 4.96373 18.7351 4.94933C18.738 4.9723 18.7392 4.99301 18.7409 5.01431ZM26.8817 4.44746L26.8062 4.51363C26.7905 4.51375 26.7752 4.51399 26.7603 4.51411L26.8718 4.44139C26.8085 4.39867 26.7425 4.36296 26.673 4.33511C26.5494 4.28299 26.4177 4.24895 26.2784 4.22765C26.2087 4.21706 26.1371 4.20956 26.0636 4.20468C25.9902 4.19932 25.9148 4.19718 25.8362 4.20051C25.6814 4.2048 25.5165 4.16945 25.3571 4.10995C25.2774 4.08019 25.199 4.04437 25.1241 4.00438C25.049 3.96475 24.9779 3.91893 24.9108 3.87692C24.9076 3.8749 24.9047 3.87323 24.9015 3.87121C24.5403 3.85026 24.1785 3.83896 23.8165 3.83694C23.7876 3.85479 23.7599 3.87574 23.7301 3.89168C23.6594 3.92941 23.5866 3.96178 23.5118 3.99415C23.4862 4.00498 23.4596 4.0126 23.4336 4.02248C24.0017 4.07746 24.5677 4.16362 25.1282 4.27906C24.9335 4.29536 24.6954 4.3025 24.4279 4.29822C24.2945 4.2937 24.152 4.29834 24.0042 4.29751C23.9223 4.29739 23.8383 4.29656 23.7531 4.29537C23.7618 4.30691 23.7705 4.31846 23.7791 4.33L24.4456 4.34285C24.5613 4.34606 24.6773 4.34547 24.7929 4.35178L25.4862 4.40058C25.6016 4.41033 25.7178 4.41319 25.8325 4.42985L26.3329 4.49079C26.3376 4.47496 26.3424 4.45925 26.347 4.44342L26.5772 4.49019L26.6922 4.51435L26.6953 4.51506C26.7169 4.51494 26.7388 4.51375 26.7602 4.51423C26.754 4.51839 26.7477 4.52256 26.7415 4.5266L26.806 4.54279C26.8482 4.55362 26.8906 4.56445 26.9328 4.5754L27.0566 4.59682C27.0009 4.54017 26.9429 4.48983 26.8817 4.44746ZM24.6373 3.72352C24.5574 3.6871 24.478 3.65913 24.398 3.64473C24.3129 3.62938 24.2272 3.62843 24.1398 3.64592C24.1071 3.65259 24.074 3.66246 24.0408 3.6746C24.0286 3.68555 24.0157 3.69495 24.0033 3.70555C24.1488 3.70888 24.2936 3.71304 24.4371 3.71673C24.5043 3.71899 24.5706 3.72126 24.6373 3.72352ZM26.8015 4.85388C26.6628 4.82425 26.524 4.79485 26.3838 4.76843C26.378 4.77248 26.3722 4.77617 26.3664 4.78034L26.3527 4.79045C26.4981 4.81139 26.643 4.8352 26.7878 4.85924C26.7923 4.85733 26.7968 4.85555 26.8015 4.85388ZM7.43117 26.4354C7.44801 26.3761 7.46485 26.317 7.48158 26.2579C7.49732 26.1995 7.52003 26.14 7.53761 26.0819C7.57459 25.9653 7.60706 25.8509 7.62781 25.7382C7.63819 25.6818 7.64576 25.6259 7.64954 25.5703C7.65638 25.5141 7.65967 25.4582 7.65833 25.4025C7.65759 25.3732 7.65174 25.344 7.64844 25.3148C7.63428 25.2742 7.62122 25.2317 7.60474 25.1949C7.56605 25.1109 7.54481 25.0215 7.53407 24.9305C7.51808 24.8841 7.50343 24.8374 7.48805 24.7905C7.45802 24.6971 7.42933 24.6028 7.40224 24.508C7.3893 24.4605 7.37428 24.413 7.36427 24.3652L7.33669 24.2209C7.31923 24.1245 7.30385 24.0278 7.29091 23.9307C7.28408 23.8765 7.28237 23.8219 7.28823 23.7663C7.29567 23.7106 7.30751 23.654 7.32143 23.5958C7.34938 23.4793 7.38588 23.3566 7.41188 23.2214C7.50794 23.2481 7.59778 23.2755 7.68262 23.3035C7.66821 23.2368 7.65076 23.1763 7.63184 23.1256C7.58875 22.9962 7.53687 22.9279 7.51966 22.9599C7.56531 22.3671 7.8485 21.821 7.78942 21.0099C7.72449 20.9331 7.72205 20.7532 7.75024 20.5268C7.78454 20.3011 7.85925 20.0308 7.92772 19.7699C7.9923 19.5432 8.06004 19.3249 8.10276 19.1468C8.04417 19.1753 7.98607 19.2035 7.92211 19.2354C7.79687 18.9434 7.56251 18.6647 7.62708 18.4495C7.65491 18.3486 7.67481 18.2481 7.68872 18.1477C7.70252 18.0506 7.70801 17.9532 7.71692 17.8567C7.5182 18.3937 7.3434 18.9383 7.19827 19.4904C7.14651 19.7045 7.09488 19.9184 7.04312 20.1323C7.00248 20.3487 6.96171 20.5648 6.92106 20.7809C6.87443 20.9961 6.85465 21.2157 6.82304 21.4333L6.77873 21.7603C6.77006 21.8146 6.76616 21.8695 6.76201 21.9244L6.74882 22.0888C6.72258 22.2659 6.69475 22.4397 6.66533 22.6099C6.64824 22.6949 6.64239 22.7797 6.63042 22.8634C6.61907 22.9472 6.60796 23.0299 6.59685 23.1118C6.57452 23.2755 6.54632 23.4356 6.52337 23.5918C6.50518 23.7481 6.48468 23.9004 6.46197 24.0488C6.487 24.1694 6.5097 24.2995 6.53094 24.4381C6.55975 24.5763 6.58697 24.7229 6.61272 24.8773C6.62493 24.9545 6.6375 25.0337 6.65032 25.1146C6.66387 25.1954 6.67095 25.2787 6.68962 25.3624C6.72209 25.5302 6.75358 25.7049 6.7841 25.8855C6.79985 25.9758 6.81303 26.0679 6.83024 26.1607C6.8477 26.2432 6.86552 26.3272 6.88346 26.4117C7.05252 26.438 7.23513 26.447 7.43117 26.4354ZM8.94611 11.3323C8.95514 11.2753 8.96637 11.2188 8.98077 11.1633C8.95319 11.1783 8.92304 11.1962 8.8935 11.2136C8.74189 11.3891 8.59285 11.5672 8.44625 11.7476C8.45297 11.8025 8.46261 11.858 8.47848 11.9153C8.63021 11.7179 8.78681 11.524 8.94611 11.3323ZM14.8832 6.25512C14.8229 6.29677 14.7636 6.33855 14.7102 6.38865C14.6283 6.4628 14.5574 6.54705 14.4933 6.63727C14.7718 6.49088 15.0526 6.3495 15.3374 6.21656C15.4296 6.13837 15.5228 6.06661 15.6206 6.01115C15.745 5.9376 15.8708 5.87524 15.9968 5.81788C16.0598 5.78932 16.1228 5.76171 16.1858 5.73481C16.2497 5.71041 16.3136 5.68601 16.3775 5.66174C16.4947 5.61675 16.6193 5.5789 16.74 5.53594C16.8005 5.51464 16.8597 5.49119 16.917 5.46655C16.975 5.44323 17.0308 5.41705 17.0831 5.38622C17.0848 5.38527 17.0862 5.38408 17.0878 5.38313C17.0007 5.4105 16.9133 5.4374 16.827 5.46584C16.1611 5.69577 15.5039 5.94629 14.8832 6.25512ZM28.4188 4.74618C28.7466 4.71191 28.9293 4.73178 29.0431 4.77344C29.1051 4.70179 29.1883 4.62407 29.3002 4.50459C29.3397 4.78236 29.3695 4.93839 29.3768 5.01301C29.4162 5.02479 29.4659 5.03073 29.5331 5.02752C29.623 5.01526 29.7133 5.00336 29.8038 4.99217C29.8039 4.96123 29.8029 4.92982 29.8047 4.89935C29.7918 4.88769 29.7806 4.87793 29.768 4.86674C29.7034 4.85496 29.639 4.84294 29.5743 4.83151C29.6303 4.83223 29.6801 4.83294 29.7306 4.83365C29.5595 4.68168 29.4193 4.56278 29.3018 4.48162C29.2351 4.43413 29.1733 4.40176 29.1159 4.38093C29.0587 4.35987 29.0058 4.34999 28.9549 4.35166C28.7871 4.3569 28.6383 4.48805 28.4188 4.74618ZM5.75205 16.5185C5.75485 16.511 5.75766 16.5034 5.76047 16.4959C5.80563 16.3793 5.85971 16.2566 5.89962 16.1345C5.92013 16.0735 5.9349 16.012 5.94735 15.9524C5.95968 15.8928 5.96554 15.8337 5.962 15.776C5.96114 15.7638 5.96126 15.7516 5.96053 15.7394C5.90829 15.8561 5.85482 15.9729 5.80441 16.09C5.74826 16.2202 5.69468 16.3516 5.64146 16.4831C5.67954 16.4928 5.71665 16.504 5.75205 16.5185ZM6.09114 13.9187C6.03096 14.0189 5.97811 14.123 5.92501 14.2266C5.87155 14.33 5.81821 14.4333 5.76486 14.5365C5.7114 14.6396 5.65806 14.7425 5.60484 14.8452C5.55101 14.9477 5.50645 15.0545 5.45677 15.1585C5.35936 15.3676 5.26232 15.5758 5.16565 15.7833C5.25598 15.5933 5.34618 15.4036 5.43627 15.2142L5.57151 14.9303C5.61863 14.8368 5.6699 14.7453 5.71884 14.6528C5.81796 14.4684 5.91696 14.2843 6.01583 14.1003C6.11885 13.9187 6.22956 13.7416 6.336 13.5625C6.34784 13.5418 6.36078 13.5219 6.37287 13.5014C6.3321 13.5446 6.29267 13.5887 6.25471 13.6341C6.20015 13.729 6.14546 13.8241 6.09114 13.9187ZM31.7755 5.28697C31.7757 5.28709 31.776 5.28708 31.7762 5.2872C32.0767 5.37682 32.3327 5.49214 32.6352 5.61127C32.6437 5.61496 32.6536 5.61841 32.6623 5.6221L32.5534 5.56676C32.3669 5.47738 32.1767 5.39574 31.9883 5.31005C31.7575 5.20068 31.5205 5.10571 31.2828 5.01253C31.4498 5.10107 31.6136 5.19343 31.7755 5.28697ZM28.1003 3.20273C28.1617 3.22582 28.222 3.24974 28.2814 3.27247C28.4593 3.34268 28.6277 3.41194 28.7851 3.47966C28.8636 3.51418 28.9395 3.54774 29.0131 3.58011C29.0864 3.61319 29.1547 3.65033 29.2215 3.68437C29.2905 3.72031 29.3559 3.75553 29.4184 3.79016L29.7758 3.89549C29.8309 3.91215 29.8864 3.92726 29.9411 3.94523L30.4302 4.11471C31.5973 4.51375 32.721 5.02669 33.7964 5.62353C33.8639 5.60734 33.8956 5.57188 33.8522 5.50559L34.0523 5.73826C34.4883 5.93558 34.7991 6.11552 35.0664 6.25357C35.3354 6.38889 35.5419 6.51671 35.7593 6.63144C35.896 6.70416 36.0366 6.77651 36.1888 6.8578C35.7045 6.48708 35.211 6.14385 34.7037 5.82538C33.7093 5.2033 32.659 4.67132 31.5028 4.22313L31.5055 4.22408L31.8623 4.36118C31.9816 4.40592 32.0962 4.46151 32.2134 4.51137C32.4461 4.61455 32.6806 4.71453 32.9115 4.82152L33.5948 5.16236L33.7655 5.24793C33.8216 5.27781 33.8767 5.3097 33.9323 5.3404L34.2653 5.5269L34.5432 5.68316C33.9923 5.35885 33.4225 5.0537 32.8319 4.77546C31.6276 4.20777 30.3457 3.74327 29.0144 3.40957C28.712 3.3334 28.4071 3.26509 28.1003 3.20273Z" fill="#B92E2D"/>
<path d="M0.749598 26.2441C0.729946 26.286 0.711515 26.3251 0.692472 26.3655C0.675261 26.3447 0.656829 26.3223 0.639252 26.3009C0.649871 26.2747 0.653412 26.2371 0.672454 26.2264C0.68881 26.2178 0.722256 26.2366 0.749598 26.2441Z" fill="#B92E2D"/>
<path d="M0.18981 21.8659C0.190909 21.9335 0.194449 22.0011 0.196768 22.0685C0.202505 22.2031 0.20812 22.3377 0.213857 22.4727C0.146233 22.4817 0.0759241 22.4911 0.00683558 22.5003C0.00512668 22.3606 0.0032958 22.2206 0.0015869 22.0806L0 21.8702L0.00671359 21.6603C0.0666473 21.6611 0.129998 21.6621 0.190542 21.663C0.19042 21.7307 0.190054 21.7983 0.18981 21.8659Z" fill="#B92E2D"/>
<path d="M0.485084 17.5723C0.531469 17.3934 0.577365 17.2158 0.623262 17.0387C0.676238 17.0533 0.729335 17.0679 0.781945 17.0823C0.736659 17.2575 0.690763 17.435 0.645477 17.6101C0.592257 17.5975 0.53806 17.5846 0.485084 17.5723Z" fill="#B92E2D"/>
<path d="M0.138421 19.5724C0.149163 19.4764 0.148064 19.3761 0.17797 19.286C0.188468 19.2544 0.275988 19.2522 0.353132 19.2315C0.349837 19.3316 0.3701 19.4342 0.337386 19.513C0.319565 19.5532 0.207876 19.5534 0.138421 19.5724Z" fill="#B92E2D"/>
<path d="M9.67666 5.80134C9.6885 5.82383 9.70144 5.84537 9.71536 5.8687L9.18902 6.21038L8.9267 6.38271C8.83979 6.44102 8.75593 6.50374 8.67049 6.56432C8.66585 6.53421 8.66048 6.50719 8.6573 6.47839C8.7408 6.41984 8.82148 6.35748 8.90729 6.30262L9.16289 6.13481C9.33391 6.02377 9.50504 5.91273 9.67666 5.80134Z" fill="#B92E2D"/>
<path d="M12.0113 42.1938C11.9954 42.237 11.9794 42.2807 11.9638 42.3233C11.8207 42.2446 11.681 42.1578 11.5401 42.075C11.5579 42.0436 11.5756 42.0124 11.5941 41.9799C11.7331 42.0516 11.8715 42.1258 12.0113 42.1938Z" fill="#B92E2D"/>
<path d="M14.5993 43.0105L14.7328 43.0559L14.8682 43.0958L15.1393 43.1747C15.1286 43.2105 15.1176 43.2468 15.1067 43.283L14.8245 43.2257L14.6835 43.1962L14.5441 43.1612C14.358 43.1135 14.1718 43.0657 13.9858 43.0179C14.0113 42.9544 14.0394 42.8909 14.0662 42.8274C14.2437 42.8884 14.4214 42.9495 14.5993 43.0105Z" fill="#B92E2D"/>
<path d="M5.94674 37.6402L6.04561 37.742L6.14851 37.8399L6.35517 38.0349C6.32966 38.0619 6.30378 38.0893 6.2779 38.1166L6.05171 37.9356L5.93917 37.8443L5.83041 37.7488C5.68564 37.6205 5.541 37.4924 5.39635 37.3642C5.4475 37.3192 5.50059 37.2756 5.55296 37.2314C5.68406 37.3676 5.81527 37.5038 5.94674 37.6402Z" fill="#B92E2D"/>
<path d="M8.75923 39.5983C8.92084 39.682 9.08795 39.7711 9.25896 39.8642C9.43156 39.9549 9.61282 40.0419 9.79421 40.1361C9.88491 40.1828 9.97658 40.2302 10.0689 40.2778C10.1151 40.3015 10.1607 40.3266 10.2076 40.3495C10.2549 40.3718 10.3022 40.3942 10.3496 40.4167C10.5393 40.5069 10.7301 40.5989 10.9203 40.6921L11.0628 40.7622C11.1107 40.7849 11.1595 40.8054 11.2077 40.8272C11.3043 40.8704 11.4006 40.9136 11.4966 40.9565C11.5923 41.0001 11.6877 41.0434 11.7824 41.0865C11.8772 41.1292 11.9699 41.1752 12.0656 41.2126C12.2552 41.2912 12.4411 41.3695 12.6213 41.447C12.7116 41.4858 12.8004 41.5241 12.8878 41.5617C12.9764 41.5966 13.0636 41.6309 13.149 41.6644C13.3197 41.7324 13.4831 41.7991 13.6375 41.8644C14.2604 42.1088 14.7432 42.3193 14.9625 42.4704C14.8074 42.6274 14.6608 42.7597 14.4966 42.8001C14.3339 42.8367 14.152 42.7829 13.9327 42.5765C13.8508 42.4993 13.7603 42.4304 13.6638 42.3681C13.5676 42.3048 13.4675 42.2426 13.3629 42.1885C13.1544 42.0786 12.9319 41.9901 12.719 41.9085C12.511 41.8202 12.3013 41.7363 12.0905 41.6544C11.9854 41.6129 11.8787 41.5747 11.7743 41.5314L11.4625 41.3985C11.2548 41.3092 11.0448 41.2234 10.8391 41.1283C10.6356 41.0288 10.4329 40.9268 10.2322 40.8205C9.27568 40.299 8.37436 39.6712 7.52052 38.9839C7.74219 39.076 8.00645 39.2025 8.29648 39.3581C8.43991 39.4385 8.5981 39.5139 8.75923 39.5983Z" fill="#B92E2D"/>
<path d="M4.00237 35.7206C3.96905 35.7518 3.93524 35.7835 3.9024 35.8142C3.80988 35.6781 3.72382 35.5365 3.63508 35.3979C3.66487 35.3781 3.69453 35.3585 3.72553 35.3379C3.81781 35.4658 3.90814 35.5958 4.00237 35.7206Z" fill="#B92E2D"/>
<path d="M4.68337 8.46029C4.80434 8.32212 4.92433 8.1849 5.04407 8.04815C5.08484 8.08552 5.12573 8.12301 5.16614 8.16002C5.04786 8.29534 4.92787 8.43268 4.80959 8.56787C4.7676 8.53217 4.725 8.49575 4.68337 8.46029Z" fill="#B92E2D"/>
<path d="M17.5119 2.25564C17.7138 2.23541 17.9158 2.21505 18.1184 2.1947C18.1189 2.22017 18.1208 2.2454 18.1229 2.27253L17.5015 2.33502L17.1908 2.36798C17.0874 2.38 16.9847 2.39738 16.8815 2.41202C16.8908 2.3831 16.898 2.35655 16.908 2.3293C17.0085 2.3155 17.1082 2.29706 17.2093 2.28753L17.5119 2.25564Z" fill="#B92E2D"/>
<path d="M7.50697 22.4812C7.44789 22.4828 7.3893 22.4859 7.32888 22.4893C7.30825 22.3867 7.28481 22.2832 7.26186 22.1793C7.32057 22.1781 7.37917 22.177 7.43593 22.176C7.45936 22.2769 7.48329 22.3791 7.50697 22.4812Z" fill="#B92E2D"/>
<path d="M0.935747 16.3148C0.956864 16.2963 0.97676 16.2643 0.998488 16.2636C1.01692 16.2634 1.0384 16.2956 1.05952 16.3149C1.02327 16.3432 0.989577 16.3695 0.954544 16.3969C0.948441 16.3704 0.94185 16.3419 0.935747 16.3148Z" fill="#B92E2D"/>
<path d="M23.9524 16.7253C24.7415 16.879 25.4667 17.2642 26.0351 17.8316C26.6036 18.399 26.9895 19.1228 27.1435 19.9103M23.9524 13.5C25.5918 13.6818 27.1205 14.4145 28.2876 15.5779C29.4547 16.7413 30.1908 18.2662 30.375 19.9023M29.5671 26.3368V28.7558C29.568 28.9804 29.522 29.2026 29.4318 29.4084C29.3417 29.6142 29.2095 29.7989 29.0437 29.9507C28.8779 30.1025 28.6822 30.2181 28.469 30.29C28.2559 30.3619 28.03 30.3887 27.806 30.3685C25.32 30.0988 22.932 29.251 20.834 27.893C18.882 26.655 17.2271 25.0033 15.9867 23.055C14.6214 20.9515 13.7717 18.5565 13.5066 16.0641C13.4864 15.8412 13.5129 15.6164 13.5845 15.4043C13.6561 15.1921 13.7712 14.9971 13.9224 14.8318C14.0737 14.6664 14.2577 14.5343 14.4629 14.4438C14.6681 14.3534 14.8899 14.3065 15.1142 14.3063H17.5379C17.9299 14.3025 18.31 14.4411 18.6073 14.6962C18.9046 14.9514 19.0987 15.3057 19.1536 15.6932C19.2559 16.4674 19.4456 17.2275 19.7191 17.959C19.8278 18.2476 19.8513 18.5613 19.7869 18.8628C19.7225 19.1644 19.5728 19.4411 19.3556 19.6604L18.3296 20.6844C19.4796 22.7031 21.1543 24.3745 23.1768 25.5224L24.2028 24.4984C24.4225 24.2816 24.6998 24.1322 25.0019 24.0679C25.304 24.0035 25.6183 24.027 25.9074 24.1355C26.6404 24.4085 27.402 24.5978 28.1776 24.6999C28.57 24.7552 28.9284 24.9525 29.1846 25.2543C29.4408 25.5561 29.577 25.9414 29.5671 26.3368Z" stroke="white" stroke-linecap="round" stroke-linejoin="round"/>
</g>
</svg>
