<svg width="45" height="45" viewBox="0 0 45 45" fill="none" xmlns="http://www.w3.org/2000/svg">
<path d="M30.7496 4.46503L30.9271 4.53356L31.0183 4.56908C30.8702 4.51308 30.7213 4.45757 30.5694 4.40434L30.7496 4.46503Z" fill="#B92E2D"/>
<path d="M44.4859 18.4933C44.4814 18.4783 44.481 18.4704 44.4773 18.4555C44.5107 18.4178 44.5391 18.3831 44.5592 18.3516L44.4859 18.4933Z" fill="#B92E2D"/>
<path d="M42.1538 32.6137C42.1772 32.5917 42.2002 32.5681 42.225 32.5328C42.1997 32.5808 42.1764 32.6018 42.1538 32.6137Z" fill="#B92E2D"/>
<path d="M7.46694 23.6309C7.4656 23.649 7.46245 23.6668 7.46148 23.6849C7.45942 23.6571 7.46197 23.6403 7.46694 23.6309Z" fill="#B92E2D"/>
<path d="M33.6114 5.96847L33.557 5.90404C33.5825 5.92861 33.5991 5.94944 33.6114 5.96847Z" fill="#B92E2D"/>
<path d="M44.4879 22.5474C44.4959 22.6623 44.5057 22.7712 44.5239 22.8631L44.5951 22.8483C44.6508 23.1081 44.6854 23.3594 44.6788 23.6068C44.6734 23.8544 44.6477 24.0987 44.6137 24.3467C44.5276 24.8426 44.4079 25.352 44.3049 25.9512L44.4708 25.8133C44.5533 26.2483 44.2431 25.895 44.2286 26.3921L44.4004 26.4475C44.0858 26.8342 44.3543 27.0138 44.3683 27.3311L44.1717 27.1427L44.0892 27.706C44.0569 28.0202 44.1006 28.1325 44.1746 28.1594C44.2492 28.1865 44.3569 28.1282 44.4266 28.0984C44.3297 28.2226 44.2282 28.3444 44.1297 28.4653L44.3048 28.605C43.9826 28.8385 44.2628 28.9258 43.9555 29.4109C44.0146 29.48 44.1031 29.3612 44.0726 29.5519L43.7849 29.9362L43.4794 30.3059C43.5857 30.152 43.6998 29.9999 43.8004 29.8411L43.4951 29.7975C43.2852 30.0198 43.2209 30.1971 43.1818 30.366C43.1417 30.5339 43.1303 30.6941 43.0044 30.8582C43.0697 30.7863 43.1386 30.7155 43.1992 30.6405C42.8637 31.2125 42.962 31.2955 42.8642 31.6659C42.8647 31.5358 42.8621 31.339 42.715 31.5632C42.6102 31.7289 42.7612 31.7052 42.7048 31.8854C42.6048 31.8586 42.4767 31.9371 42.3597 32.0738C42.2433 32.2111 42.1381 32.4069 42.0677 32.6124C42.0952 32.6224 42.1237 32.6285 42.1538 32.6137C42.0701 32.6913 41.9971 32.7128 41.9424 32.9009L42.1917 32.9202L41.8228 33.1245C41.7519 33.3683 41.4124 33.5699 41.5587 33.6286L41.6726 33.5375C41.3543 34.067 41.0064 34.5797 40.6362 35.0765L40.7596 35.2097C40.605 35.2037 40.4634 35.4148 40.3337 35.5982C40.205 35.7823 40.0754 35.9259 39.9831 35.8015C39.927 35.9862 39.6784 36.2285 39.4807 36.4197C39.2816 36.6098 39.1466 36.7665 39.3417 36.8176C39.2353 36.9292 39.131 37.0302 39.0283 37.1239C38.9217 37.2134 38.8162 37.295 38.7124 37.3727C38.5392 37.4993 38.3723 37.6186 38.1982 37.7321C38.1588 37.7724 38.1189 37.8123 38.0799 37.853C37.9964 37.9385 37.9126 38.0241 37.8289 38.1098C37.745 38.1955 37.6611 38.2811 37.5772 38.3668C37.4894 38.4489 37.4017 38.5309 37.3138 38.6131C37.2259 38.6952 37.1381 38.7775 37.05 38.8599C36.9622 38.9424 36.8747 39.0256 36.7814 39.1023C36.5978 39.2591 36.4138 39.4161 36.2295 39.5735C36.184 39.6136 36.1367 39.6515 36.0884 39.6882L35.6572 40.0237C35.5606 40.0974 35.4668 40.1752 35.3676 40.2458L34.77 40.6681C34.7199 40.703 34.6706 40.7393 34.6198 40.7732L34.4653 40.872C34.2593 41.0037 34.0528 41.1359 33.846 41.2681C33.4206 41.5124 32.9992 41.7676 32.5559 41.9848L32.2267 42.1542L32.1443 42.1965L31.8914 42.3118C31.666 42.4132 31.4424 42.5199 31.2147 42.6173C30.9846 42.7093 30.7542 42.8013 30.5237 42.8934C30.4659 42.9159 30.4088 42.9407 30.3503 42.9613L29.8217 43.1435C28.8793 43.4605 27.9122 43.7222 26.9256 43.8892C26.5131 43.9611 26.0975 44.0204 25.6808 44.0696C25.6568 44.0878 25.6322 44.103 25.6088 44.1121C25.4092 44.1913 25.2096 44.281 25.0081 44.3631C24.8057 44.4416 24.5995 44.5053 24.3927 44.5475C24.3904 44.548 24.3882 44.5482 24.3859 44.5487C24.3726 44.5637 24.3608 44.581 24.3462 44.5941C24.2183 44.7028 24.0335 44.7391 23.7481 44.655C23.6414 44.6235 23.5309 44.6035 23.418 44.5923C23.3049 44.58 23.1887 44.5705 23.0722 44.5704C22.839 44.5683 22.6029 44.592 22.3784 44.6176C22.1551 44.6348 21.9325 44.6567 21.7096 44.6812C21.5983 44.6926 21.4869 44.7078 21.3754 44.7174L21.0405 44.7428C20.8172 44.7588 20.5933 44.7793 20.3692 44.7892C20.145 44.7941 19.9206 44.7967 19.6959 44.7942C18.6186 44.7692 17.5433 44.6225 16.4836 44.4001C16.7205 44.3798 17.0104 44.3709 17.3359 44.3764C17.4983 44.3819 17.6716 44.3761 17.8516 44.3773C17.9512 44.3776 18.0535 44.3785 18.1572 44.38C18.1197 44.329 18.0816 44.2783 18.0448 44.2274C18.1355 44.2741 18.2266 44.3226 18.3184 44.3638C18.3137 44.3701 18.309 44.3764 18.3044 44.3826C18.3402 44.3833 18.3754 44.3837 18.4116 44.3845C18.6044 44.386 18.8034 44.38 19.0056 44.3805C19.1065 44.3805 19.2086 44.3805 19.3113 44.3805C19.3627 44.3802 19.4142 44.3818 19.4659 44.3805C19.5175 44.3786 19.5694 44.3768 19.6214 44.375C19.8291 44.3681 20.0387 44.3623 20.2483 44.3578L20.4055 44.3547C20.4578 44.3529 20.5102 44.3487 20.5625 44.3459C20.6671 44.34 20.7715 44.334 20.8755 44.3281C20.9794 44.3228 21.0829 44.3175 21.1858 44.3122C21.2887 44.3065 21.391 44.3048 21.4922 44.2941C21.6947 44.2766 21.894 44.2607 22.0878 44.2467C22.1847 44.2397 22.2803 44.2328 22.3744 44.2261C22.4683 44.2162 22.5605 44.2066 22.6511 44.197C22.6668 44.1955 22.6818 44.1942 22.6975 44.1926C22.61 44.1913 22.5225 44.1896 22.4352 44.182L22.3243 44.1746C22.3195 44.1774 22.315 44.1787 22.31 44.1816C22.1816 44.2576 21.9815 44.2534 21.8288 44.2075C21.6644 44.1624 21.5025 44.1277 21.3423 44.102C21.2691 44.0903 21.1965 44.0813 21.1239 44.0729L21.0632 44.0658C20.9971 44.0585 20.9313 44.0516 20.8654 44.0442C20.7072 44.0293 20.5501 44.0222 20.3934 44.0218C20.3149 44.0216 20.2367 44.023 20.1584 44.0259C20.0802 44.0295 20.0017 44.0278 19.9234 44.0311C19.7667 44.0359 19.6098 44.046 19.4527 44.06C19.374 44.067 19.2954 44.0749 19.2166 44.0837C19.1378 44.0924 19.0589 44.0964 18.9798 44.1041C18.8216 44.1179 18.6628 44.1343 18.5034 44.1518L18.2636 44.1786C18.1836 44.187 18.1037 44.1911 18.0234 44.1976C18.0313 44.2069 18.0371 44.2173 18.0446 44.2275C18.0271 44.2184 18.0093 44.2091 17.9914 44.1997H17.9912L18.0111 44.1809C17.8135 44.109 17.5847 44.1166 17.3561 44.0571C17.1288 43.9934 16.9028 43.8531 16.7281 43.5077C16.8616 43.5117 16.9851 43.5131 17.1009 43.5137C17.1587 43.514 17.2147 43.5141 17.2693 43.5143C17.3235 43.515 17.3764 43.5146 17.4283 43.512C17.635 43.5051 17.8207 43.5029 18.0049 43.5185C18.0969 43.526 18.189 43.5367 18.2813 43.5483C18.3113 43.5509 18.3412 43.5546 18.3711 43.5576C18.2449 43.524 18.1177 43.493 17.9923 43.4563C17.8719 43.4222 17.7504 43.3922 17.6313 43.3545L16.9191 43.1204L16.7415 43.0613L16.5667 42.9942C16.5363 42.9825 16.5061 42.9708 16.4757 42.9592C16.3304 42.9271 16.1849 42.8952 16.039 42.8652L15.902 42.8373L15.766 42.8042L15.4933 42.7402L15.0563 42.6403C15.0077 42.6291 14.96 42.6144 14.9119 42.6015L14.1895 42.4017C14.1414 42.388 14.0942 42.3712 14.0465 42.3562L13.331 42.1225C13.2836 42.1059 13.2368 42.0874 13.1898 42.0699L12.6244 41.8558L12.4827 41.8018L12.3437 41.742L12.0654 41.6214L11.7866 41.5C11.7402 41.4796 11.6933 41.4598 11.6472 41.4386L11.5107 41.3717L10.9632 41.1018C10.2431 40.7221 9.53061 40.3095 8.85968 39.8274L8.60554 39.6494C8.52022 39.5906 8.4406 39.5246 8.35782 39.4623L7.86627 39.0797C7.70593 38.9474 7.54959 38.8099 7.39143 38.6737L7.15523 38.4679C7.07839 38.3971 7.0035 38.3242 6.92775 38.2521C6.76814 38.0982 6.60659 37.9455 6.4494 37.7879L5.99057 37.3015C5.83471 37.1412 5.6934 36.9679 5.54664 36.7986C5.4023 36.6274 5.25153 36.4606 5.11628 36.281L4.70108 35.7481C4.56643 35.5672 4.43784 35.3814 4.30587 35.1975C4.24054 35.105 4.17401 35.0133 4.10978 34.9199L3.7382 34.3487C3.67712 34.2528 3.61167 34.1591 3.55532 34.0601L3.11757 33.3232L2.87131 32.8696C2.64468 32.4688 2.44992 32.0512 2.24123 31.6363C2.14306 31.4264 2.04986 31.2138 1.95303 31.0016L1.80881 30.6824L1.67598 30.3581C1.58812 30.1412 1.49504 29.9249 1.40936 29.7056C1.32682 29.4843 1.24417 29.263 1.16176 29.0419C1.06941 28.8098 1.06166 28.5513 1.01742 28.3019C1.11813 28.55 1.21218 28.7972 1.32355 29.039C1.34816 29.0942 1.37191 29.1484 1.39615 29.2034L1.21133 28.5939C1.14237 28.3779 1.09207 28.157 1.03511 27.9372C0.981183 27.7168 0.919497 27.4973 0.877443 27.2738L0.739889 26.6038C0.698805 26.3793 0.665356 26.1534 0.627907 25.9275C0.610092 25.8144 0.590701 25.7013 0.57434 25.5879L0.492534 24.9042C0.480052 24.7899 0.4626 24.6758 0.455571 24.5611L0.387096 23.6986L0.365646 23.1787C0.338499 22.7151 0.347346 22.2512 0.342377 21.7833C0.346497 21.5501 0.356314 21.3168 0.362616 21.0822L0.373402 20.7299L0.39655 20.3785C0.412911 20.1439 0.424303 19.9073 0.443815 19.6716C0.466842 19.4355 0.489868 19.1995 0.512774 18.9637C0.531801 18.7135 0.637724 18.4792 0.707167 18.2361C0.688625 18.5045 0.664629 18.7691 0.658327 19.037C0.648631 19.3039 0.634815 19.5679 0.627059 19.8313C0.624756 20.0942 0.622453 20.3572 0.620151 20.6203C0.619908 20.6857 0.617605 20.7506 0.61906 20.816L0.624029 21.0122L0.642813 21.7906L0.665719 22.1781L0.699047 22.7552L0.717226 22.9469L0.788608 23.709L0.887623 24.4638C1.03354 25.4651 1.23496 26.4458 1.49686 27.4005C1.76554 28.3538 2.09834 29.2786 2.49258 30.1655C2.47707 30.0656 2.45428 29.9684 2.43574 29.8697C2.41695 29.7712 2.39526 29.6737 2.37127 29.577C2.32424 29.3832 2.26352 29.1934 2.20523 29.0027C2.15021 28.8109 2.08986 28.6201 2.02853 28.4289C1.99896 28.3331 1.96454 28.2383 1.93873 28.1413L1.86007 27.8505C1.81014 27.6559 1.75863 27.461 1.72409 27.2633C1.69222 27.0651 1.66835 26.8655 1.65683 26.6651C1.65223 26.5648 1.64581 26.4649 1.65211 26.3636C1.6572 26.2625 1.66592 26.1614 1.67889 26.0602C1.70579 25.8579 1.74543 25.6561 1.81438 25.4552C1.87765 25.6679 1.94564 25.8786 2.00575 26.089L2.09616 26.4037C2.12936 26.5078 2.16172 26.612 2.19311 26.716C2.2245 26.8199 2.25492 26.9238 2.28437 27.0277C2.3137 27.1317 2.34121 27.2357 2.3749 27.3384C2.43877 27.5446 2.49864 27.751 2.55427 27.958C2.58069 28.064 2.61656 28.1675 2.64843 28.2719L2.74636 28.584L2.84464 28.8953L3.12072 29.6614C3.1389 29.7125 3.1612 29.762 3.1812 29.8123L3.42807 30.4121C3.77722 31.202 4.17134 31.9663 4.6246 32.6874C5.08489 33.4041 5.59342 34.0817 6.15793 34.6987C6.30021 34.8519 6.44904 34.9987 6.59508 35.1462C6.66682 35.2165 6.7359 35.2888 6.81007 35.3564C6.61459 35.0764 6.42613 34.7923 6.24592 34.5036L5.98075 34.1465L5.81932 33.9287C5.76503 33.8562 5.71716 33.7796 5.66565 33.705L5.36048 33.2539C5.30789 33.1795 5.26244 33.1007 5.2142 33.0235L4.92637 32.5575L4.8545 32.4404L4.78736 32.3207C4.60933 32.0007 4.42136 31.6829 4.25957 31.3509C3.68996 30.2432 3.1709 29.0818 2.76926 27.8523C2.36763 26.6243 2.08598 25.3304 1.99217 24.0053C1.96212 23.7008 1.95364 23.3922 1.9437 23.0808L1.93921 22.847L1.93836 22.73L1.94333 22.6132C1.95109 22.4575 1.96248 22.3016 1.97884 22.1464C1.98696 22.0688 1.99642 21.9913 2.00732 21.9141C2.01872 21.8369 2.0289 21.7597 2.04756 21.6837C2.08186 21.5314 2.12258 21.3803 2.17118 21.2316C2.20257 21.1372 2.23759 21.0441 2.27552 20.9519C2.29625 20.3178 2.34085 19.6797 2.41696 19.0396C2.40617 18.9851 2.39805 18.9306 2.39514 18.8772C2.39369 18.8123 2.39938 18.7493 2.41223 18.6907C2.45731 18.4935 2.50349 18.2958 2.55245 18.0987C2.73921 17.0019 3.0291 15.9097 3.45243 14.8619C3.55859 14.5761 3.68584 14.2971 3.81285 14.0148L3.9109 13.8042L3.96131 13.6994L4.01682 13.5976C4.09172 13.4624 4.16989 13.3288 4.2523 13.198C4.2935 13.1327 4.3358 13.068 4.37919 13.0043C4.42294 12.9408 4.46596 12.8767 4.51565 12.8176C4.61273 12.6978 4.71501 12.5823 4.82336 12.4725C4.93231 12.3632 5.04466 12.2576 5.16852 12.1633C5.20609 12.1357 5.24559 12.1102 5.2845 12.084C5.5007 11.7623 5.72503 11.4459 5.95918 11.1362C5.95857 11.1138 5.9593 11.0924 5.95772 11.0691C5.94851 10.9431 5.95894 10.8028 5.98984 10.6696C6.00523 10.603 6.02583 10.5384 6.05128 10.4782C6.07831 10.4196 6.11091 10.3662 6.148 10.3198C6.32651 10.1012 6.50491 9.88036 6.69312 9.66876C6.88497 9.46138 7.07985 9.25545 7.27691 9.05096C7.47978 8.85382 7.68726 8.66077 7.89511 8.467C7.99752 8.36813 8.10829 8.28034 8.21567 8.18749L8.54107 7.91291C8.61003 7.85691 8.68614 7.81031 8.7797 7.77008C8.87253 7.72878 8.97809 7.68638 9.09916 7.62809C9.0668 7.76141 9.00427 7.86932 8.92949 7.96518C9.11067 7.8091 9.29307 7.65423 9.48019 7.50454C9.47789 7.50983 9.47522 7.51598 9.4734 7.52043C9.47037 7.52248 9.46734 7.52452 9.46407 7.52501C9.46625 7.52512 9.46868 7.52657 9.47159 7.52777C9.38057 7.76743 9.30204 8.02442 9.2046 8.33417C9.30373 8.3674 9.39342 8.40895 9.47583 8.44448C9.67386 8.25793 9.87504 8.07501 10.0797 7.89581C10.033 7.82777 9.97987 7.76261 9.92861 7.71444C9.81614 7.60702 9.62938 7.58462 9.47159 7.52753C9.47231 7.52525 9.47304 7.52296 9.4734 7.52019C9.7107 7.41421 9.94133 7.26247 10.1783 7.17805C10.1841 7.14939 10.187 7.11843 10.1941 7.09098C10.2332 6.94273 10.2902 6.80725 10.3689 6.69236C10.5248 6.45933 10.7479 6.27255 11.0207 6.10383C11.9546 5.54335 12.9376 5.05863 13.9572 4.65555C13.9854 4.64086 14.0127 4.62664 14.0413 4.61183C14.1341 4.5645 14.2286 4.51622 14.3247 4.46708C14.4218 4.42048 14.5218 4.37652 14.6232 4.33027C14.8262 4.23875 15.0368 4.14553 15.2539 4.05124C15.4727 3.9632 15.6994 3.87878 15.9318 3.79135C16.0481 3.74848 16.1656 3.7032 16.2852 3.66201C16.4055 3.62372 16.5271 3.58494 16.6496 3.54592C16.7728 3.50763 16.8971 3.46909 17.0221 3.43019C17.1476 3.39165 17.2741 3.35178 17.4028 3.32095C17.6597 3.25484 17.9211 3.18957 18.1863 3.1255L18.2859 3.10154L18.386 3.08155C18.4531 3.06842 18.5201 3.05541 18.5873 3.04229C18.7222 3.01675 18.8577 2.9911 18.9935 2.96533C19.1296 2.94112 19.2664 2.91282 19.4037 2.89319C19.5413 2.87477 19.6792 2.85622 19.8172 2.83767C19.9559 2.82009 20.0946 2.80264 20.2334 2.78505C20.3029 2.77686 20.3725 2.76735 20.4422 2.7606L20.6514 2.74435C20.9306 2.72327 21.2106 2.70424 21.4902 2.68762C21.5638 2.6857 21.6372 2.68593 21.7108 2.68461C22.2462 2.62801 22.783 2.59261 23.3198 2.58321C24.5356 2.5572 25.7536 2.63499 26.9584 2.81949C28.5757 3.07323 30.1621 3.52629 31.6811 4.1577C31.5149 4.06713 31.348 3.97789 31.1842 3.88456C31.0054 3.78135 30.827 3.67839 30.6497 3.57603C30.4738 3.47174 30.3027 3.36118 30.1385 3.24087C30.0443 3.17295 29.9511 3.10347 29.8544 3.04132C29.7576 2.97954 29.66 2.91957 29.562 2.86116C29.3659 2.74446 29.1673 2.63463 28.967 2.53251C28.8676 2.47976 28.7639 2.43653 28.6611 2.39221C28.5581 2.3485 28.4546 2.30683 28.3506 2.26709C28.1424 2.18856 27.9342 2.11438 27.7219 2.05597C27.5081 2.0007 27.293 1.95421 27.0771 1.91687C26.8611 1.8805 26.6461 1.84823 26.4255 1.84064C26.2061 1.82981 25.9864 1.82872 25.7672 1.83812C25.6574 1.84317 25.5482 1.84908 25.4382 1.86088C25.3278 1.87449 25.2174 1.89062 25.1074 1.90953C24.9251 1.94072 24.7321 1.95915 24.5482 1.93867C24.3427 1.91302 24.1347 1.90219 23.9279 1.89038C23.7211 1.8787 23.5148 1.86858 23.3094 1.85943C23.1036 1.85209 22.8968 1.8557 22.6917 1.85437C22.4862 1.8557 22.282 1.85244 22.0776 1.85859L21.4657 1.88352L21.1614 1.89544C21.0602 1.89761 20.9586 1.90905 20.8575 1.91507C20.4527 1.94614 20.0505 1.963 19.6491 2.00395C18.1863 2.12293 16.7463 2.37523 15.352 2.76614C14.6874 2.95244 14.0335 3.17126 13.3929 3.42055C13.235 3.50389 13.077 3.58542 12.9219 3.67297L12.3872 3.98223L12.1211 4.13566C12.0319 4.18515 11.9462 4.24284 11.8587 4.2957C11.5113 4.51332 11.16 4.71709 10.82 4.94181C9.56757 5.73411 8.3937 6.63456 7.32102 7.63725C6.24846 8.63958 5.2771 9.74451 4.43445 10.9375C4.28938 11.1438 4.14104 11.386 3.93865 11.5047C3.83685 11.5656 3.74026 11.6319 3.64839 11.7026C3.55968 11.7758 3.4757 11.8536 3.39595 11.935C3.23634 12.0981 3.09333 12.2758 2.96184 12.4627C2.83616 12.6537 2.72345 12.8548 2.61583 13.0594C2.56214 13.1618 2.50991 13.2651 2.4584 13.3689C2.40896 13.4742 2.36254 13.5813 2.31479 13.6876C2.21408 13.916 2.09264 14.134 1.9603 14.3777C1.83305 14.6241 1.68956 14.893 1.5331 15.2139C1.52667 14.894 1.49916 14.784 1.53116 14.7004C1.72458 14.2027 1.9363 13.7099 2.16403 13.2237C2.12597 13.2097 2.08804 13.1959 2.04998 13.182C2.1101 13.0552 2.17045 12.928 2.2308 12.8009L2.3223 12.6102L2.42108 12.4239C2.45598 12.443 2.49209 12.4627 2.52797 12.4822C2.85434 11.8511 3.21477 11.2363 3.61398 10.6454C3.56913 10.6382 3.50842 10.6117 3.4603 10.6012C3.51217 10.5197 3.55556 10.4287 3.62185 10.3613C3.64415 10.3387 3.71699 10.3729 3.79104 10.391C3.83564 10.3276 3.87818 10.263 3.92374 10.2001C4.82469 8.94703 5.85374 7.78212 6.9921 6.72488C6.95562 6.75222 6.91999 6.77847 6.8823 6.80713C7.01622 6.51894 7.03973 6.40779 7.10481 6.34829C8.34013 5.22963 9.70161 4.22213 11.2036 3.45777C11.8696 3.11515 12.5545 2.80757 13.2543 2.53335C14.5663 1.92386 15.94 1.42228 17.358 1.03883C18.8132 0.645153 20.3183 0.433437 21.8427 0.401642C23.369 0.36985 24.9183 0.522667 26.4405 0.854088C27.9631 1.18491 29.4578 1.69348 30.8866 2.35849C32.3158 3.02337 33.6792 3.8441 34.9531 4.79453C36.4436 5.91114 37.7928 7.23116 38.974 8.6963C39.0501 8.7859 39.1197 8.88115 39.1919 8.97425L39.4058 9.25557L39.6183 9.53809C39.6887 9.63263 39.7602 9.72608 39.8263 9.82411L40.2266 10.4084L40.4246 10.7022L40.6123 11.0033L40.6922 11.1337C40.7979 11.2078 40.8743 11.2897 40.853 11.396L40.9834 11.6085C41.0378 11.6955 41.0873 11.7857 41.1374 11.8754C41.3404 12.1707 41.5389 12.4697 41.7284 12.7763C41.7444 12.767 41.7543 12.7626 41.7476 12.8067C41.784 12.8657 41.823 12.9226 41.8588 12.9821C42.1746 13.5057 42.4691 14.0461 42.7439 14.5998L42.7651 14.612C43.0125 14.9374 43.0832 15.1679 43.1563 15.442C43.1621 15.4654 43.1675 15.4899 43.1731 15.5143C43.3136 15.8321 43.4481 16.1535 43.5745 16.4796C43.6219 16.6017 43.6724 16.7261 43.7144 16.8545C43.7222 16.8794 43.7291 16.9046 43.7369 16.9295C43.9338 17.129 44.1092 17.1346 44.1623 16.8342C44.1293 17.121 44.1022 17.1905 44.1022 17.2748C44.1013 17.3586 44.123 17.4583 44.1625 17.802C44.2946 17.8724 44.2955 17.7972 44.3426 17.6239C44.4922 17.8988 44.4947 17.9974 44.4745 18.0811C44.4558 18.1647 44.4181 18.2333 44.4775 18.455C44.3704 18.5747 44.2155 18.7121 44.1294 18.8332C44.1302 18.8471 44.1314 18.8628 44.1319 18.8759C44.1321 18.9458 44.1278 19.0043 44.1206 19.049C44.1059 19.1383 44.0775 19.1728 44.033 19.1363C44.0154 19.1218 43.9946 19.0928 43.9719 19.0551C43.9781 19.2298 43.9863 19.4086 44.0155 19.5876C44.0576 19.8391 44.1107 20.0971 44.2003 20.3596L44.2964 20.3237C44.3067 20.5194 44.328 20.713 44.3287 20.9089L44.4602 20.9297C44.4747 21.2095 44.4975 21.4879 44.5037 21.7672L44.462 21.6555C44.4602 21.7542 44.4568 21.9649 44.4655 22.1959C44.4694 22.312 44.4764 22.4327 44.4879 22.5474ZM3.65773 32.3737L3.62173 32.31L3.52199 32.1147C3.43376 31.9403 3.34553 31.7658 3.25755 31.5919C3.18532 31.6302 3.11333 31.6683 3.04073 31.7068C3.23282 32.0538 3.41413 32.4045 3.62501 32.7373C3.68536 32.6998 3.74208 32.6647 3.80195 32.6277C3.75383 32.5431 3.70584 32.4585 3.65773 32.3737ZM19.3593 1.04256C19.2477 1.0422 19.1362 1.0522 19.0253 1.06099C18.9144 1.07038 18.8039 1.0817 18.6939 1.09507C18.4739 1.12277 18.2559 1.15432 18.041 1.20177C17.9037 1.23441 17.7678 1.27174 17.6329 1.31124C18.0536 1.23826 18.4767 1.17552 18.9028 1.12602C19.1783 1.09375 19.455 1.06773 19.7323 1.04533C19.6074 1.04232 19.4831 1.041 19.3593 1.04256ZM5.51331 17.8361C5.50979 17.8401 5.50495 17.843 5.50143 17.847C5.42326 17.9343 5.3474 18.0304 5.28547 18.1331C5.25565 18.1827 5.22948 18.2339 5.20742 18.2862C5.19966 18.3237 5.19203 18.3612 5.18439 18.3984C5.16827 18.4756 5.15143 18.5507 5.13458 18.6258C5.12331 18.7067 5.11168 18.7878 5.10113 18.8684L5.07532 19.0718L5.06284 19.1732C5.05944 19.2072 5.05762 19.2418 5.05496 19.2759L5.03799 19.5297C5.169 19.0087 5.32025 18.4927 5.49331 17.9838C5.49937 17.9346 5.50507 17.8856 5.51331 17.8361ZM19.8237 4.39025C19.7605 4.40253 19.6973 4.4147 19.6341 4.42686C19.594 4.48177 19.5491 4.52404 19.4988 4.55186C19.4737 4.56511 19.4471 4.57462 19.4195 4.58221C19.4574 4.58498 19.4957 4.58594 19.534 4.58691L19.5786 4.57667L19.6697 4.56029L19.8524 4.52717C19.9235 4.51416 19.9951 4.50116 20.0665 4.48815C20.0623 4.47695 20.0575 4.46671 20.0535 4.45503C20.0419 4.42143 20.0335 4.38675 20.0227 4.35279C19.9563 4.36531 19.8899 4.37772 19.8237 4.39025ZM9.35754 10.4691C9.4202 10.4077 9.48334 10.3458 9.54685 10.2834L9.56454 10.2661C9.58745 10.2402 9.61047 10.2142 9.6335 10.1882C9.71736 10.093 9.81105 10.0008 9.89891 9.90577C9.94303 9.85844 9.98508 9.80978 10.025 9.76065C10.0659 9.7126 10.1037 9.66298 10.1363 9.61083C10.1447 9.59759 10.1516 9.58374 10.1591 9.57013C10.0756 9.65334 9.99223 9.73668 9.91055 9.82098C9.64441 10.1034 9.38469 10.3911 9.13515 10.6855C9.20908 10.6138 9.28216 10.5426 9.35754 10.4691ZM8.81799 11.5145L8.85144 11.4775C8.85229 11.4745 8.85338 11.4718 8.85423 11.4688C8.84235 11.4841 8.82975 11.4992 8.81799 11.5145ZM23.4644 4.74165C23.4351 4.74105 23.4065 4.74069 23.3769 4.74009C23.2196 4.73888 23.0573 4.74382 22.8924 4.74346C22.8099 4.74346 22.7268 4.74346 22.6429 4.74346C22.601 4.74358 22.5591 4.74238 22.5169 4.74346C22.4747 4.74491 22.4324 4.74647 22.3901 4.74792C22.2206 4.75357 22.0497 4.75827 21.8787 4.762L21.7505 4.76466C21.7078 4.76611 21.665 4.7696 21.6224 4.77188C21.5371 4.7767 21.452 4.78164 21.3671 4.78645C21.3505 4.7873 21.3341 4.78814 21.3175 4.78898C21.3167 4.78983 21.316 4.79067 21.3153 4.79151C21.2447 4.86293 21.1738 4.91712 21.1033 4.96144L21.5188 4.90496C21.6323 4.88677 21.7473 4.88232 21.8616 4.87124L22.5486 4.81379C22.6633 4.80572 22.7783 4.80512 22.8931 4.80043L23.5011 4.78115C23.485 4.77345 23.4691 4.76442 23.453 4.75719C23.4567 4.75189 23.4605 4.74683 23.4644 4.74165ZM21.3751 5.0178C21.5041 5.02996 21.6323 5.03574 21.7602 5.0361C21.8242 5.03634 21.888 5.03514 21.9518 5.03285C22.0156 5.02996 22.0795 5.03128 22.1435 5.02863C22.2304 5.02599 22.3175 5.01888 22.4046 5.01262C22.4999 4.98046 22.5933 4.95036 22.68 4.92555C22.2131 4.93374 21.7434 4.96072 21.2732 5.00588C21.3072 5.00961 21.3412 5.01407 21.3751 5.0178ZM19.8394 4.97071C19.9488 4.99805 20.0632 4.9854 20.1967 4.9058C20.2227 4.89039 20.2524 4.87918 20.2842 4.87136C20.2811 4.86787 20.2783 4.86365 20.2753 4.86016C20.2314 4.86329 20.1872 4.86642 20.1442 4.86955C20.0676 4.87762 19.9923 4.88545 19.9185 4.89328C19.8442 4.90075 19.7713 4.90773 19.6999 4.91411C19.7459 4.93856 19.7922 4.95891 19.8394 4.97071ZM24.2377 5.00732C24.2886 5.02165 24.3394 5.04128 24.3892 5.06705C24.4469 5.07019 24.5046 5.07163 24.5621 5.07524C24.7424 5.07898 24.9359 5.07151 25.1394 5.05585C24.7124 5.00226 24.2804 4.96421 23.8443 4.94241C23.9693 4.9653 24.1033 4.97239 24.2377 5.00732ZM18.9767 5.53564C18.89 5.50975 18.8016 5.47989 18.7116 5.44641C18.677 5.45592 18.643 5.46688 18.6086 5.47663C18.6126 5.53107 18.6129 5.58057 18.6094 5.62549C18.7316 5.5943 18.854 5.5643 18.9767 5.53564ZM10.2461 14.7123C10.2798 14.6442 10.314 14.575 10.3476 14.5071C10.3024 14.4821 10.2584 14.4577 10.2136 14.4329C10.1989 14.5171 10.184 14.6015 10.1693 14.6851C10.1947 14.6943 10.2202 14.704 10.2461 14.7123ZM14.2915 7.27777C14.2826 7.29631 14.2736 7.31498 14.2655 7.33425C14.4878 7.21346 14.7118 7.09641 14.9383 6.98476C14.9691 6.94767 15.0003 6.91203 15.0318 6.87819C14.7819 7.00572 14.5353 7.13927 14.2915 7.27777ZM18.6081 5.47158C18.6413 5.46291 18.6744 5.45339 18.7076 5.44496C18.6724 5.43184 18.638 5.42039 18.6022 5.40582C18.6052 5.42906 18.6064 5.45002 18.6081 5.47158ZM26.6907 4.89798L26.6158 4.96493C26.6001 4.96505 26.585 4.96529 26.5702 4.96542L26.6808 4.89183C26.6181 4.84859 26.5525 4.81247 26.4835 4.78429C26.3608 4.73154 26.23 4.6971 26.0917 4.67554C26.0225 4.66483 25.9514 4.65723 25.8784 4.65229C25.8056 4.64688 25.7307 4.64471 25.6526 4.64808C25.499 4.65242 25.3352 4.61665 25.177 4.55644C25.0978 4.52633 25.02 4.49008 24.9456 4.44962C24.8711 4.40951 24.8005 4.36315 24.7339 4.32064C24.7307 4.31859 24.7278 4.3169 24.7247 4.31485C24.3661 4.29366 24.0068 4.28222 23.6474 4.28017C23.6187 4.29824 23.5911 4.31944 23.5616 4.33558C23.4914 4.37375 23.4192 4.4065 23.3449 4.43926C23.3194 4.45022 23.293 4.45793 23.2672 4.46793C23.8312 4.52356 24.3932 4.61075 24.9497 4.72756C24.7564 4.74406 24.52 4.75129 24.2544 4.74695C24.122 4.74238 23.9805 4.74707 23.8338 4.74623C23.7525 4.74611 23.6691 4.74527 23.5845 4.74406C23.5931 4.75574 23.6017 4.76743 23.6103 4.77911L24.272 4.79211C24.3869 4.79536 24.502 4.79477 24.6168 4.80115L25.3052 4.85053C25.4197 4.8604 25.5351 4.86329 25.649 4.88015L26.1458 4.94181C26.1505 4.9258 26.1552 4.9099 26.1598 4.89388L26.3884 4.94121L26.5026 4.96566L26.5056 4.96638C26.527 4.96626 26.5489 4.96505 26.5701 4.96553C26.5639 4.96975 26.5577 4.97396 26.5515 4.97806L26.6155 4.99443C26.6574 5.00539 26.6995 5.01636 26.7414 5.02744L26.8643 5.04911C26.8091 4.99179 26.7515 4.94085 26.6907 4.89798ZM24.4623 4.16541C24.383 4.12856 24.3041 4.10025 24.2247 4.08568C24.1403 4.07015 24.0552 4.06918 23.9684 4.08689C23.9359 4.09363 23.9031 4.10362 23.8701 4.11591C23.858 4.12699 23.8452 4.1365 23.8328 4.14722C23.9773 4.15059 24.1211 4.1548 24.2635 4.15854C24.3303 4.16083 24.3961 4.16312 24.4623 4.16541ZM26.611 5.30923C26.4734 5.27925 26.3356 5.2495 26.1963 5.22277C26.1906 5.22686 26.1848 5.2306 26.1791 5.23481L26.1655 5.24504C26.3099 5.26624 26.4537 5.29033 26.5975 5.31466C26.6019 5.31273 26.6064 5.31092 26.611 5.30923ZM7.37907 27.1478C7.3958 27.0878 7.41252 27.028 7.42912 26.9682C7.44476 26.9091 7.4673 26.8489 7.48475 26.7901C7.52147 26.6721 7.55371 26.5564 7.57431 26.4423C7.58461 26.3852 7.59213 26.3286 7.59589 26.2724C7.60267 26.2156 7.60594 26.159 7.60461 26.1026C7.60388 26.073 7.59807 26.0435 7.5948 26.0138C7.58074 25.9728 7.56777 25.9298 7.55141 25.8926C7.51299 25.8076 7.4919 25.7171 7.48124 25.625C7.46536 25.578 7.45082 25.5308 7.43555 25.4834C7.40573 25.3888 7.37725 25.2934 7.35035 25.1975C7.3375 25.1494 7.3226 25.1014 7.31266 25.0529L7.28527 24.907C7.26794 24.8094 7.25267 24.7115 7.23982 24.6133C7.23303 24.5585 7.23134 24.5032 7.23715 24.4469C7.24455 24.3906 7.2563 24.3333 7.27012 24.2744C7.29787 24.1565 7.33411 24.0323 7.35992 23.8955C7.4553 23.9226 7.5445 23.9503 7.62873 23.9786C7.61443 23.9112 7.5971 23.8499 7.57831 23.7986C7.53553 23.6677 7.48402 23.5985 7.46694 23.6309C7.51226 23.0311 7.79343 22.4784 7.73477 21.6577C7.6703 21.58 7.66787 21.3979 7.69587 21.1689C7.72993 20.9404 7.80409 20.6669 7.87208 20.4029C7.93619 20.1735 8.00346 19.9527 8.04587 19.7724C7.9877 19.8013 7.93001 19.8298 7.86651 19.8621C7.74216 19.5666 7.50948 19.2845 7.57359 19.0668C7.60122 18.9647 7.62097 18.863 7.63479 18.7614C7.64848 18.6631 7.65394 18.5646 7.66278 18.4669C7.46548 19.0103 7.29193 19.5614 7.14784 20.1201C7.09645 20.3367 7.04519 20.5532 6.9938 20.7696C6.95344 20.9886 6.91296 21.2073 6.87261 21.426C6.82631 21.6437 6.80668 21.8659 6.77529 22.0862L6.7313 22.417C6.72269 22.472 6.71881 22.5276 6.71469 22.5831L6.7016 22.7495C6.67555 22.9287 6.64792 23.1045 6.61871 23.2767C6.60174 23.3627 6.59592 23.4486 6.58405 23.5333C6.57278 23.618 6.56175 23.7017 6.55072 23.7846C6.52854 23.9503 6.50054 24.1123 6.47776 24.2704C6.4597 24.4285 6.43934 24.5827 6.4168 24.7328C6.44165 24.8548 6.46419 24.9865 6.48528 25.1268C6.51388 25.2666 6.5409 25.415 6.56647 25.5711C6.57859 25.6493 6.59108 25.7294 6.6038 25.8113C6.61725 25.8931 6.62428 25.9774 6.64282 26.062C6.67506 26.2318 6.70633 26.4086 6.73663 26.5914C6.75226 26.6827 6.76535 26.7759 6.78244 26.8699C6.79977 26.9533 6.81746 27.0383 6.83528 27.1238C7.00313 27.1505 7.18444 27.1596 7.37907 27.1478ZM8.88319 11.8648C8.89216 11.8071 8.90331 11.75 8.91761 11.6938C8.89022 11.7089 8.86029 11.7271 8.83096 11.7447C8.68044 11.9223 8.53246 12.1025 8.38691 12.2851C8.39358 12.3406 8.40315 12.3968 8.41891 12.4548C8.56955 12.255 8.72504 12.0588 8.88319 11.8648ZM14.7779 6.72717C14.718 6.76931 14.6591 6.81158 14.6062 6.86229C14.5248 6.93731 14.4544 7.02258 14.3908 7.11386C14.6672 6.96573 14.9461 6.82267 15.2288 6.68815C15.3203 6.60903 15.4129 6.53641 15.51 6.48029C15.6335 6.40586 15.7585 6.34276 15.8835 6.28471C15.9461 6.25581 16.0086 6.22787 16.0711 6.20066C16.1346 6.17597 16.198 6.15128 16.2615 6.12671C16.3779 6.08119 16.5016 6.04289 16.6215 5.99942C16.6815 5.97786 16.7402 5.95413 16.7972 5.92921C16.8548 5.9056 16.9102 5.87911 16.962 5.84792C16.9637 5.84695 16.9652 5.84575 16.9668 5.84479C16.8802 5.87249 16.7934 5.8997 16.7078 5.92849C16.0467 6.16115 15.3942 6.41465 14.7779 6.72717ZM28.2168 5.20025C28.5422 5.16557 28.7237 5.18568 28.8366 5.22783C28.8982 5.15533 28.9808 5.07669 29.092 4.95578C29.1311 5.23686 29.1607 5.39474 29.168 5.47025C29.2071 5.48218 29.2564 5.48819 29.3232 5.48494C29.4124 5.47253 29.5021 5.46049 29.5919 5.44917C29.592 5.41786 29.591 5.38607 29.5929 5.35524C29.58 5.34344 29.5689 5.33357 29.5564 5.32225C29.4923 5.31033 29.4283 5.29816 29.364 5.2866C29.4197 5.28732 29.4691 5.28804 29.5193 5.28876C29.3494 5.13498 29.2101 5.01467 29.0935 4.93254C29.0273 4.88448 28.9659 4.85173 28.909 4.83065C28.8521 4.80934 28.7997 4.79934 28.7491 4.80103C28.5825 4.80633 28.4347 4.93904 28.2168 5.20025ZM5.71194 17.1128C5.71473 17.1052 5.71752 17.0975 5.72031 17.0899C5.76515 16.9719 5.81883 16.8478 5.85847 16.7242C5.87883 16.6625 5.89349 16.6003 5.90585 16.5399C5.91809 16.4796 5.92391 16.4199 5.92039 16.3615C5.91955 16.3491 5.91967 16.3368 5.91894 16.3244C5.86707 16.4425 5.81399 16.5607 5.76393 16.6792C5.70819 16.8109 5.65498 16.9439 5.60214 17.0769C5.63996 17.0868 5.6768 17.0981 5.71194 17.1128ZM6.04862 14.4821C5.98887 14.5835 5.93639 14.6887 5.88367 14.7936C5.83059 14.8983 5.77763 15.0028 5.72467 15.1072C5.67159 15.2115 5.61863 15.3157 5.56579 15.4196C5.51234 15.5233 5.4681 15.6313 5.41878 15.7366C5.32207 15.9482 5.22572 16.1589 5.12973 16.3688C5.21942 16.1766 5.30898 15.9847 5.39842 15.7929L5.5327 15.5057C5.57948 15.4111 5.63038 15.3184 5.67898 15.2249C5.77739 15.0383 5.87568 14.852 5.97384 14.6658C6.07613 14.4821 6.18605 14.3029 6.29173 14.1216C6.30349 14.1007 6.31633 14.0806 6.32833 14.0597C6.28785 14.1034 6.24871 14.1481 6.21102 14.194C6.15684 14.2901 6.10255 14.3863 6.04862 14.4821ZM31.5495 5.74748C31.5498 5.7476 31.55 5.7476 31.5502 5.74771C31.8486 5.8384 32.1028 5.9551 32.4031 6.07565C32.4116 6.07938 32.4214 6.08287 32.43 6.08661L32.3219 6.03061C32.1367 5.94016 31.9479 5.85755 31.7609 5.77084C31.5317 5.66017 31.2963 5.56406 31.0604 5.46977C31.2262 5.55937 31.3888 5.65282 31.5495 5.74748ZM27.9006 3.63841C27.9616 3.66177 28.0215 3.68598 28.0804 3.70898C28.2571 3.78003 28.4242 3.85012 28.5805 3.91864C28.6585 3.95357 28.7338 3.98753 28.8069 4.02029C28.8796 4.05376 28.9475 4.09134 29.0138 4.12579C29.0823 4.16216 29.1472 4.1978 29.2093 4.23285L29.5641 4.33942C29.6188 4.35629 29.6739 4.37157 29.7282 4.38976L30.2139 4.56125C31.3726 4.96505 32.4883 5.4841 33.556 6.08805C33.623 6.07167 33.6545 6.03579 33.6114 5.96871L33.8101 6.20415C34.243 6.40382 34.5516 6.5859 34.817 6.7256C35.084 6.86253 35.289 6.99187 35.5049 7.10797C35.6406 7.18155 35.7802 7.25476 35.9314 7.33702C35.4505 6.96188 34.9605 6.61457 34.4568 6.2923C33.4696 5.66282 32.4267 5.1245 31.2788 4.67096L31.2814 4.67193L31.6357 4.81066C31.7542 4.85594 31.868 4.91218 31.9844 4.96264C32.2153 5.06705 32.4482 5.16822 32.6775 5.27648L33.3559 5.62138L33.5253 5.70798C33.5811 5.73821 33.6357 5.77048 33.691 5.80155L34.0216 5.99026L34.2974 6.14839C33.7505 5.82022 33.1848 5.51144 32.5984 5.22987C31.4028 4.65543 30.13 4.18539 28.8081 3.84771C28.5079 3.77064 28.2052 3.70152 27.9006 3.63841Z" fill="#B92E2D"/>
<path d="M0.745221 26.9543C0.725709 26.9967 0.70741 27.0362 0.688504 27.0771C0.671416 27.056 0.653115 27.0334 0.635663 27.0117C0.646207 26.9852 0.649722 26.9472 0.668628 26.9363C0.684868 26.9277 0.718074 26.9467 0.745221 26.9543Z" fill="#B92E2D"/>
<path d="M0.189431 22.5239C0.190522 22.5923 0.194037 22.6608 0.196339 22.7289C0.202035 22.8651 0.20761 23.0013 0.213306 23.1379C0.146165 23.147 0.0763584 23.1566 0.00776333 23.1658C0.00606663 23.0244 0.00424883 22.8828 0.00255213 22.7412L0.000976563 22.5283L0.0076422 22.3158C0.0671479 22.3167 0.130047 22.3176 0.190158 22.3186C0.190037 22.3871 0.189674 22.4555 0.189431 22.5239Z" fill="#B92E2D"/>
<path d="M0.482597 18.1791C0.52865 17.9981 0.574219 17.8184 0.619787 17.6392C0.672385 17.6539 0.725103 17.6687 0.777337 17.6833C0.732375 17.8606 0.686807 18.0403 0.641844 18.2174C0.589004 18.2046 0.535194 18.1916 0.482597 18.1791Z" fill="#B92E2D"/>
<path d="M0.138409 20.203C0.149074 20.106 0.147983 20.0045 0.177676 19.9133C0.188098 19.8813 0.274993 19.8791 0.351587 19.8581C0.348315 19.9594 0.368433 20.0632 0.335953 20.1429C0.318259 20.1836 0.207368 20.1839 0.138409 20.203Z" fill="#B92E2D"/>
<path d="M9.60853 6.26797C9.62029 6.29073 9.63314 6.31254 9.64695 6.33614L9.12437 6.68189L8.86393 6.85627C8.77764 6.91528 8.69438 6.97874 8.60954 7.04004C8.60494 7.00957 8.5996 6.98224 8.59645 6.9531C8.67935 6.89384 8.75946 6.83074 8.84466 6.77522L9.09843 6.60542C9.26822 6.49306 9.43814 6.3807 9.60853 6.26797Z" fill="#B92E2D"/>
<path d="M11.9265 43.0939C11.9107 43.1376 11.8948 43.1818 11.8793 43.2249C11.7373 43.1453 11.5985 43.0575 11.4587 42.9737C11.4764 42.9419 11.4939 42.9104 11.5122 42.8775C11.6503 42.95 11.7877 43.0252 11.9265 43.0939Z" fill="#B92E2D"/>
<path d="M14.496 43.9204L14.6286 43.9663L14.763 44.0066L15.0322 44.0865C15.0215 44.1227 15.0106 44.1595 14.9998 44.1961L14.7196 44.1382L14.5796 44.1083L14.4412 44.0729C14.2564 44.0246 14.0716 43.9762 13.8869 43.9279C13.9122 43.8636 13.9401 43.7994 13.9667 43.7351C14.143 43.7969 14.3194 43.8586 14.496 43.9204Z" fill="#B92E2D"/>
<path d="M5.90525 38.4861L6.00341 38.5892L6.10558 38.6881L6.31076 38.8855C6.28543 38.9129 6.25974 38.9406 6.23404 38.9681L6.00947 38.785L5.89773 38.6926L5.78975 38.596C5.64602 38.4662 5.5024 38.3365 5.35879 38.2068C5.40957 38.1613 5.46229 38.1172 5.51428 38.0724C5.64444 38.2103 5.77472 38.3481 5.90525 38.4861Z" fill="#B92E2D"/>
<path d="M8.69765 40.4675C8.85811 40.5523 9.02402 40.6423 9.19381 40.7366C9.36518 40.8284 9.54515 40.9164 9.72524 41.0117C9.81529 41.059 9.9063 41.107 9.99793 41.1551C10.0439 41.1791 10.0891 41.2045 10.1357 41.2276C10.1826 41.2503 10.2296 41.2729 10.2767 41.2957C10.465 41.387 10.6544 41.48 10.8432 41.5743L10.9848 41.6453C11.0323 41.6683 11.0808 41.689 11.1287 41.711C11.2245 41.7547 11.3201 41.7985 11.4155 41.8419C11.5105 41.886 11.6052 41.9298 11.6992 41.9734C11.7934 42.0167 11.8854 42.0632 11.9804 42.1011C12.1686 42.1806 12.3532 42.2598 12.5322 42.3382C12.6217 42.3775 12.71 42.4163 12.7968 42.4543C12.8847 42.4896 12.9713 42.5243 13.0561 42.5582C13.2255 42.627 13.3878 42.6946 13.5411 42.7606C14.1596 43.0079 14.6389 43.221 14.8567 43.3738C14.7026 43.5328 14.5571 43.6665 14.3941 43.7075C14.2325 43.7445 14.0519 43.69 13.8342 43.4812C13.7528 43.403 13.663 43.3333 13.5672 43.2703C13.4717 43.2063 13.3723 43.1433 13.2684 43.0886C13.0614 42.9773 12.8405 42.8879 12.6291 42.8052C12.4226 42.7159 12.2144 42.631 12.0051 42.5481C11.9008 42.5061 11.7949 42.4674 11.6912 42.4236L11.3816 42.2892C11.1754 42.1988 10.9669 42.1119 10.7627 42.0157C10.5606 41.915 10.3593 41.8118 10.1601 41.7043C9.21041 41.1766 8.31553 40.5413 7.46778 39.8458C7.68787 39.939 7.95025 40.0671 8.23821 40.2245C8.38061 40.3059 8.53767 40.3821 8.69765 40.4675Z" fill="#B92E2D"/>
<path d="M3.97477 36.5437C3.94168 36.5752 3.90811 36.6073 3.87551 36.6383C3.78364 36.5007 3.69821 36.3574 3.6101 36.2171C3.63967 36.1971 3.66912 36.1772 3.6999 36.1564C3.79152 36.2858 3.8812 36.4173 3.97477 36.5437Z" fill="#B92E2D"/>
<path d="M4.6509 8.9586C4.771 8.81878 4.89014 8.67993 5.00903 8.54155C5.0495 8.57937 5.0901 8.6173 5.13022 8.65476C5.01278 8.79168 4.89365 8.93066 4.77621 9.06747C4.73452 9.03134 4.69223 8.99449 4.6509 8.9586Z" fill="#B92E2D"/>
<path d="M17.3878 2.68004C17.5882 2.65957 17.7888 2.63897 17.99 2.61838C17.9905 2.64415 17.9924 2.66968 17.9945 2.69714L17.3775 2.76036L17.069 2.79372C16.9664 2.80589 16.8643 2.82347 16.7619 2.83828C16.7712 2.80902 16.7783 2.78216 16.7882 2.75458C16.888 2.74061 16.987 2.72195 17.0873 2.71231L17.3878 2.68004Z" fill="#B92E2D"/>
<path d="M7.45433 23.1466C7.39568 23.1481 7.3375 23.1513 7.27751 23.1547C7.25703 23.0509 7.23376 22.9462 7.21098 22.841C7.26927 22.8398 7.32744 22.8387 7.3838 22.8377C7.40707 22.9398 7.43082 23.0432 7.45433 23.1466Z" fill="#B92E2D"/>
<path d="M0.93004 16.9067C0.951007 16.888 0.970761 16.8556 0.992334 16.8549C1.01063 16.8546 1.03196 16.8873 1.05293 16.9068C1.01694 16.9354 0.983486 16.9621 0.948704 16.9898C0.942644 16.9629 0.9361 16.9341 0.93004 16.9067Z" fill="#B92E2D"/>
<path d="M22.001 19.5952V23.5952L25.101 24.3952M29.001 22.2952C29.001 25.885 26.0908 28.7952 22.501 28.7952C18.9111 28.7952 16.001 25.885 16.001 22.2952C16.001 18.7053 18.9111 15.7952 22.501 15.7952C26.0908 15.7952 29.001 18.7053 29.001 22.2952Z" stroke="white" stroke-width="2" stroke-linecap="round" stroke-linejoin="round"/>
</svg>
