<svg width="240" height="199" viewBox="0 0 240 199" fill="none" xmlns="http://www.w3.org/2000/svg">
<path d="M239.805 81.626C240.629 96.1891 238.048 112.066 229.781 125.452C221.664 138.971 207.293 147.976 192.983 151.336C189.38 152.199 189.671 151.869 188.658 152.059C185.913 152.515 184.317 152.978 182.328 153.211C172.605 154.291 163.48 153.993 154.105 152.91C144.456 151.639 149.145 151.56 145.801 150.924C145.082 150.776 144.504 150.66 144.043 150.573C140.394 149.9 144.418 151.239 142.123 151.027C134.92 149.81 127.403 148.844 120.097 148.376C121.969 148.397 123.676 148.439 125.514 148.52C122.351 148.236 117.724 147.867 123.129 147.981C121.991 147.843 120.824 147.704 119.596 147.586C119.217 147.842 113.594 147.696 113.026 147.895C112.486 148.061 115.773 148.069 115.712 148.091C115.428 148.168 102.423 148.113 101.445 148.334C98.9471 148.481 101.09 147.92 98.9919 148.142C95.4197 148.585 97.8293 149.006 92.8634 148.725C90.9798 149.365 90.7339 149.228 88.3301 149.695C88.0153 149.759 88.2979 149.891 88.161 149.925C84.5115 150.882 87.262 149.906 87.2512 149.889C86.7983 149.638 82.9687 150.743 82.1212 150.986C71.8854 153.727 64.277 157.074 56.1688 164.951C54.3081 166.595 49.9722 172.671 48.9363 174.798C47.7884 176.846 48.1715 175.627 47.5257 176.674C47.1979 178.714 46.429 180.355 44.8785 184.491C44.87 186.189 44.5428 185.868 44.0678 188.986C43.6642 191.588 43.8987 196.091 43.7682 198.936C43.6234 195.687 43.4023 196.013 43.5125 192.305C43.5284 191.71 43.881 188.154 44.6693 184.992C45.4102 181.819 46.5059 178.997 46.1226 179.372C45.6778 179.752 44.501 183.928 44.4677 184.084C43.9895 184.971 44.3228 182.516 45.1674 180.537C45.0257 181.061 44.8638 181.676 44.7311 182.243C46.6076 177.808 44.4134 180.477 46.7317 177.476C47.0292 177.115 47.0714 177.313 47.5002 176.708C47.5178 176.549 47.0133 177.305 47.3259 176.595C47.6412 175.869 48.5766 174.638 48.5085 174.342C48.3856 173.889 46.9584 176.9 46.8677 177.13C46.8682 177.133 46.8688 177.136 46.8693 177.139C45.7912 179.091 47.7249 174.885 47.8574 174.693C48.3918 173.334 47.7546 174.128 48.7356 172.175C49.2884 171.045 51.1542 168.477 51.8706 167.572C52.5733 166.645 51.3322 167.971 51.7958 167.339C52.2607 166.704 52.9796 166.016 53.557 165.318C53.8069 165.016 53.6761 164.923 53.8007 164.778C55.1614 163.237 54.4868 164.42 55.7584 163.11C56.5717 162.236 59.4228 159.377 57.2777 161.12C58.2373 160.223 59.2547 159.356 60.3005 158.529C59.6122 158.992 58.8857 159.531 58.2248 160.014C60.2329 158.446 60.9672 157.602 62.2806 156.664C63.5864 155.749 64.9355 155.287 66.3789 154.278C69.4017 152.138 61.558 156.874 60.6782 157.684C60.3019 157.928 61.537 156.71 61.7626 156.554C62.7466 155.829 63.9665 155.268 64.7513 154.784C67.516 153.093 69.1882 151.975 71.9757 150.679C81.5042 146.181 94.4601 143.811 104.202 143.317C107.819 143.107 110.071 143.374 111.664 143.36C115.512 143.358 115.963 143.143 119.281 143.265C124.294 143.452 131.124 144.323 135.235 144.915C138.129 145.317 140.586 145.463 141.353 145.576C142.466 145.74 143.617 145.918 144.799 146.111C154.009 147.661 164.432 148.47 171.78 148.251C175.643 148.155 177.509 148.223 178.273 148.158C181.689 147.803 180.787 147.67 183.495 147.33C184.926 147.132 185.283 147.278 185.477 147.256C187.252 147.02 187.537 146.676 188.855 146.391C196.472 144.707 203.738 142.105 210.123 137.869C210.582 137.562 210.606 137.693 210.902 137.482C212.166 136.551 211.468 136.822 212.749 135.84C215.387 133.779 217.94 131.435 220.27 128.75C220.501 128.483 220.728 128.465 221.24 127.839C221.747 127.209 222.01 126.641 222.77 125.616C224.729 122.957 226.581 120.192 228.107 116.994C228.36 116.461 228.49 115.721 228.837 114.916C229.954 112.397 231.413 108.551 232.006 106.239C234.021 98.6342 234.577 91.2743 234.335 83.8412C234.276 82.0945 234.335 80.5396 234.259 79.6309C234.072 77.573 234.066 79.1251 233.835 77.0857C233.711 76.0673 233.568 75.0576 233.409 74.0854L233.453 74.3008C229.494 58.5467 222.7 43.496 211.644 31.6438C207.092 26.67 200.558 21.6599 194.972 18.3414C192.648 16.9516 192.315 16.531 190.615 15.6438C187.552 14.1129 186.859 14.1176 183.518 12.7783C180.842 11.7293 177.804 10.3832 174.897 9.57918C171.985 8.78793 170.576 8.72842 167.183 8.06266C164.394 7.51948 160.471 6.77951 157.376 6.47468C128.914 3.81505 100.311 9.87726 73.5572 20.6131C72.5243 21.0393 71.5029 21.4742 70.4981 21.9152L70.6442 21.845C62.1608 26.1705 53.8077 31.1966 46.0023 36.6384C45.2014 37.2026 46.2505 36.0582 43.7596 38.0149C42.396 39.1027 40.6165 40.7715 37.7209 43.2715C28.9291 50.8698 20.6974 59.9405 14.725 70.3626C8.72432 80.7184 5.08589 92.5707 4.3906 104.317C3.24535 122.028 8.48953 139.902 16.1197 155.555C23.78 171.272 33.6577 185.236 43.4247 197.393C44.371 198.562 43.3121 198.474 42.5362 197.958C42.0491 197.253 41.6253 196.566 41.1242 195.799C39.7132 195.54 39.9989 195.581 37.2815 192.385C35.6097 190.381 36.6804 192.187 35.7126 191.22C34.4265 190.018 28.8902 183.641 30.3527 184.561C29.9566 184.206 29.5883 183.877 29.2024 183.525C25.4987 178.724 22.0909 173.872 18.917 168.804C18.3744 167.935 18.1949 167.984 17.6418 167.075C16.1583 164.621 15.187 162.563 13.8463 159.934C13.1232 158.498 12.8338 158.391 11.9528 156.486C11.0867 154.573 11.3503 154.503 9.93997 151.99C10.3227 153.862 7.36196 146.046 6.46469 143.218C6.31444 142.815 4.91635 139.546 4.44717 137.717C3.95803 135.886 3.42301 133.067 2.70539 130.231C2.36943 128.899 1.96661 128.131 1.69182 126.671C1.50027 125.645 1.515 124.373 1.34092 123.064C1.15485 121.761 0.668108 118.941 0.626535 118.416C0.450509 116.53 0.781807 118.598 0.681674 117.308C0.189065 111.088 0.458242 103.809 1.2622 97.6924C1.35915 96.9363 1.02827 97.9543 1.03732 97.8536C1.61015 92.7312 1.43226 95.4863 1.82424 94.147C2.07225 92.8089 4.5696 83.2918 4.42121 83.1617C4.88326 83.0016 5.32019 80.8471 5.51943 80.306C6.27188 78.2178 6.44348 78.7119 7.16524 76.7252C7.43825 75.9939 6.62619 77.2979 6.96338 76.53C7.80262 74.6373 8.94528 73.049 10.2635 70.6179C10.5819 70.038 10.5337 69.7693 11.1149 68.7331C11.6593 67.689 14.5043 63.471 12.9761 65.2827C14.8191 62.8718 14.9919 62.3096 17.0779 59.401C17.6299 58.6476 18.4859 57.9274 19.587 56.3913C19.961 55.8733 19.7462 55.7278 20.3552 54.9719C21.7667 53.2313 23.3223 51.8238 25.2085 49.8005C28.833 45.9186 32.7468 42.0004 36.9574 38.5965C38.1033 37.677 37.9723 38.1078 39.6646 36.7647C39.8883 36.5812 41.9109 34.7242 43.0465 33.9145C43.732 33.3973 47.5787 30.8451 48.3926 30.3255C49.6931 29.4638 49.8343 29.0748 50.5325 28.6702C52.6091 27.48 51.1857 28.8355 53.36 26.8477C54.3158 26.5693 55.7667 25.6399 56.4217 25.6446C57.0719 24.8088 58.4572 24.3948 60.0167 23.3455C61.5817 22.2927 62.6137 20.8882 63.4022 21.3468C64.1282 20.8246 67.4915 18.8377 68.0925 18.5212C68.3709 18.37 68.5838 18.2609 68.7499 18.1812L68.8188 18.1481C69.663 17.8051 69.2477 18.1492 70.3367 17.647C70.5693 17.5422 70.255 17.5106 71.7743 16.8803C72.8006 16.4073 80.0845 13.583 80.5428 13.4787C85.6737 11.8836 77.8763 14.5825 76.8425 15.1993C76.6352 15.2347 76.4301 15.2694 76.211 15.3106C73.9888 16.1162 75.3594 15.9301 76.3862 15.6097C77.4239 15.2833 79.2393 14.4367 80.1016 14.2389C80.5362 14.1389 80.4106 14.6083 79.1576 15.025C80.5243 14.6464 78.7631 15.4436 79.3269 15.3569C79.9175 15.2417 86.0078 13.1411 85.9642 12.9478C84.8203 13.3215 83.4531 13.801 82.2769 14.2109C80.6506 14.3892 84.7442 11.4933 89.182 10.6636C92.362 10.0904 87.3539 11.8854 94.5837 9.42718C93.4726 9.72724 92.4791 9.98155 91.4603 10.2717C91.2674 10.0278 93.0174 9.83451 93.8605 9.49858C94.2629 9.33449 91.6468 9.8821 93.8496 9.17207C95.8297 9.03595 97.191 8.21725 100.394 7.39849C99.535 7.69079 98.6479 7.99629 97.7778 8.30433C103.268 7.17128 90.7448 10.5574 101.274 7.98732C100.027 8.31076 98.7616 8.6341 97.4987 8.99474C98.1516 8.9761 97.2854 9.66811 97.8581 9.61151C99.3711 9.45926 101.436 8.77818 103.204 8.37951C103.978 8.20474 103.527 8.43528 103.592 8.42047C104.653 8.18422 104.379 8.06789 105.31 7.84303C106.468 7.55616 109.876 7.01234 110.43 6.88944C111.849 6.55664 109.402 6.69027 109.535 6.63948C110.412 6.28603 112.301 6.06475 112.159 5.86957C107.69 6.78463 94.8839 9.72905 106.383 6.63999C103.108 7.02303 103.916 6.29861 108.529 5.27745C112.373 4.46487 109.939 5.15567 111.972 4.97966C112.224 4.94119 117.412 4.1421 117.656 3.9676C117.506 4.34568 119.227 4.39274 118.16 4.9249C118.008 4.99929 115.885 5.32527 116.672 5.49148C117.067 5.57362 118.17 5.72035 118.028 5.93161C118.439 5.73576 118.868 5.52221 119.287 5.3226C122.437 4.82046 122.926 4.91395 124.678 4.94068C124.588 4.85055 122.936 4.62009 125.382 4.45987C125.508 4.45394 125.633 4.58891 126.877 4.53082C129.396 4.42237 129.92 4.43154 128.045 5.05838C133.193 4.32681 134.347 4.74268 139.643 4.41983C138.573 3.88414 136.695 4.03302 131.84 4.49954C131.618 4.37962 131.509 4.25265 131.28 4.13252C137.789 3.99038 134.577 4.17771 138.246 3.73222C139.144 3.61107 143.957 3.6324 142.348 3.26327C141.967 3.1668 138.971 3.24041 139.31 3.09307C139.375 3.05346 143.023 2.92722 143.345 2.97598C147.372 3.5036 140.183 3.55856 151.246 3.80715C151.551 3.82009 151.668 3.65892 152.265 3.6742C153.387 3.70647 153.387 3.90128 154.387 3.93656C155.386 3.97353 156.802 3.84246 158.272 4.25327C160.948 5.00512 154.494 4.4902 151.633 4.13414C151.031 4.39174 155.874 4.77025 160.947 5.55835C166.038 6.30233 171.323 7.55949 171.939 7.69979C177.353 8.86529 168.4 6.70477 167.94 6.53978C167.762 6.43913 168.022 5.60236 165.614 5.71714C164.906 5.75097 167.705 6.49468 165.995 6.265C164.285 6.04495 164.999 5.92322 164.879 5.88272C164.467 5.74536 162.637 5.54359 162.406 5.47638C158.842 4.43394 159.297 3.62599 163.943 5.56787C166.086 5.64706 161.332 4.42814 163.978 4.67064C167.203 4.97396 169.431 5.88118 169.819 5.98313C174.494 7.30571 169.193 5.39349 174.899 7.06559C178.049 8.06193 170.051 6.07471 177.298 8.11993C183.299 10.0299 180.125 8.81418 180.709 8.51988C180.844 8.45699 184.179 9.48153 179.68 7.97266C179.516 8.04128 179.228 8.10812 178.91 8.11822C177.84 7.6757 176.146 6.56394 175.552 6.37927C172.653 5.48129 172.722 5.83636 171.068 5.07082C172.219 5.74353 170.256 5.03595 169.476 4.95688C166.582 4.68376 170.289 5.46291 163.989 3.94178C164.793 4.25938 165.512 4.56812 166.277 4.89634C165.517 4.7611 164.754 4.63391 163.99 4.51454C162.922 3.91515 158.816 3.39756 162.58 3.52415C158.141 2.75697 156.307 2.73117 155.301 2.94485C155.109 2.98795 154.436 2.95254 153.647 2.8987C153.789 2.99808 153.958 3.2851 153.832 3.30883C152.704 3.51342 151.014 2.9062 151.613 2.74721C151.06 2.70479 150.623 2.67137 150.468 2.65873C149.489 2.57886 151.422 2.50224 150.629 2.40082C150.368 2.36009 147.597 2.28863 147.546 2.22233C147.222 1.78506 151.788 2.12374 142.614 1.7707C142.396 2.17468 146.648 2.11797 145.55 2.55194C144.377 3.00366 141.994 2.37509 141.48 2.96932C141.285 2.87607 141.198 2.79744 141.03 2.69101C137.348 3.02187 137.285 2.57198 136.15 2.51043C133.935 2.35048 123.899 3.25913 132.947 2.94135C131.63 3.07393 130.293 3.20197 128.983 3.36129C128.606 2.5418 129.42 2.72455 123.105 3.34936C121.71 3.49967 121.202 3.18298 119.909 3.82893C120.027 3.35096 115.979 4.25329 115.586 4.27754C113.069 4.32253 122.114 2.37174 123.408 3.06737C124.912 2.57315 124.954 2.9753 126.673 2.73403C129.16 2.40121 129.508 2.28339 132.496 2.35913C135.391 1.65465 121.033 3.21637 129.702 1.83375C134.006 1.16513 149.091 -0.236221 164.467 2.22154C179.925 4.31719 194.664 11.4877 199.682 14.8965C209.025 20.7981 215.088 26.8979 220.168 33.2335C225.192 39.6123 229.336 46.5007 233.113 55.5321C234.077 57.2148 238.571 71.1429 237.142 68.3865C236.97 67.959 234.961 62.1758 236.157 67.3081C236.064 66.2081 237.098 69.1587 237.186 69.4188C237.925 71.3707 238.295 72.2961 238.581 73.0074L238.627 73.2312C239.003 74.6069 239.35 75.2365 239.805 81.626ZM232.421 108.9C235.545 97.3102 233.034 105.777 232.918 103.203C232.593 104.69 232.223 106.158 231.801 107.619C231.955 107.25 232.106 106.881 232.254 106.505C232.255 106.504 232.255 106.502 232.255 106.5C232.324 107.298 232.38 108.096 232.421 108.9ZM55.3524 162.269C55.6396 161.855 55.9314 161.446 56.2708 161.007C57.5379 159.89 58.8607 158.836 60.2178 157.855C60.0984 158.027 59.9866 158.195 59.8706 158.367C58.2712 159.593 56.7919 160.863 55.3524 162.269ZM149.929 4.14856C147.664 3.78375 147.856 4.25978 144.84 3.99475C145.207 4.35329 145.612 4.70616 145.992 5.06464C148.274 5.06364 148.801 4.94466 151.273 5.16597C150.992 5.03529 150.702 4.9045 150.426 4.77532C150.011 4.77834 149.57 4.78558 149.168 4.7904C148.542 4.43677 152.525 4.58926 149.937 4.1482C149.934 4.14832 149.931 4.14844 149.929 4.14856ZM126.655 5.06661C125.437 5.1322 120.592 5.58991 119.962 5.84784C117.81 6.60819 131.319 4.55001 121.391 6.27474C121.446 6.33763 121.41 6.41183 121.419 6.48039C123.242 6.25113 125.054 6.04831 126.888 5.87143C126.76 5.60782 126.796 5.33009 126.655 5.06661ZM232.329 66.1317C231.855 64.2181 228.445 56.1167 229.19 58.9014C229.422 59.686 231.223 63.2225 231.683 64.7159C231.981 65.6582 231.416 64.7152 232.088 66.4996C232.167 66.3871 232.266 66.3012 232.326 66.1271C232.327 66.1286 232.328 66.1302 232.329 66.1317ZM234.724 69.0389C234.132 67.1645 233.515 65.3882 232.807 63.4682C233.035 64.9718 234.024 67.539 233.689 67.8193C233.507 67.321 233.324 66.8323 233.137 66.3419C233.097 65.9295 233.064 65.5453 233.014 65.1133C232.262 63.5534 232.51 64.5477 231.51 61.5663C231.563 63.5296 231.492 64.0623 233.583 68.8775C232.982 68.0199 232.254 69.1801 233.77 71.8493C234.055 72.3508 233.527 70.0769 233.537 70.0505C233.707 69.6298 234.23 70.823 234.379 70.3826C234.448 70.1815 234.054 68.8197 234.151 68.5726C234.201 68.4542 234.799 69.6855 234.724 69.0389ZM234.401 73.1944C234.234 72.9059 234.195 73.3512 234.267 74.0956L234.236 73.9499C234.237 74.5883 234.3 75.4748 234.447 76.3096C234.841 78.6552 234.811 75.7192 234.571 73.8951L234.596 74.0126C234.529 73.7015 234.462 73.4198 234.401 73.1944ZM55.3448 162.277C55.3473 162.275 55.3499 162.272 55.3524 162.269C55.3514 162.271 55.3503 162.273 55.3492 162.274C55.3477 162.275 55.3463 162.276 55.3448 162.277ZM132.954 4.70249C131.528 4.9413 129.41 5.10952 129.585 5.32384C128.883 5.34242 128.175 5.36693 127.474 5.39435C127.487 5.46185 127.507 5.52883 127.521 5.59564C129.621 5.42186 131.708 5.28898 133.807 5.19749C133.532 5.03143 133.277 4.86394 132.954 4.70249ZM110.178 7.66718C107.568 8.17953 109.815 8.03395 109.274 8.2983C108.732 8.55944 106.411 8.94058 106.728 9.09274C108.241 8.7658 109.834 8.44119 111.392 8.14377C110.937 7.99489 110.604 7.81847 110.173 7.66824C110.175 7.66789 110.177 7.66753 110.178 7.66718ZM201.041 143.857C202.697 143.21 202.124 143.788 205.155 141.986C205.152 141.988 205.15 141.989 205.148 141.99C202.102 143.343 198.151 144.741 194.645 145.967C196.908 145.54 198.395 144.83 201.041 143.857ZM156.129 5.29613C156.902 5.17644 153.406 4.69933 152.619 4.83429C151.351 5.02766 154.957 5.45244 156.129 5.29613ZM129.472 146.851C126.719 147.17 131.697 148.245 137.204 148.74C137.695 148.779 134.196 148.126 135.255 148.154C135.373 148.156 137.292 148.428 137.754 148.415C138.232 148.402 137.768 148.146 138.545 148.179C139.903 148.232 142.966 148.973 144.046 148.978C144.185 148.975 142.28 148.407 142.163 148.381C140.199 147.912 138.287 147.969 137.99 147.929C136.452 147.723 136.739 147.508 136.336 147.392C135.583 147.175 134.234 147.118 134.143 147.099C131.747 146.573 137.317 147.337 137.979 147.355C139.972 147.398 138.151 146.868 142.953 147.485C143.112 147.507 143.876 147.631 144.525 147.729C145.419 147.863 146.076 147.935 144.549 147.585C144.006 147.46 143.192 147.282 142.034 147.049C143.068 147.167 143.915 147.267 144.59 147.345C147.8 147.696 146.947 147.489 144.632 147.094C141.064 146.445 134.43 145.658 133.146 145.6C132.129 145.541 133.63 145.964 133.004 146.001C131.571 146.08 129.24 145.884 129.415 146.259C129.78 147.041 132.891 146.883 135.066 147.296C134.817 147.427 134.709 147.572 134.269 147.676C134.926 147.531 129.646 146.809 129.472 146.85C129.472 146.85 129.472 146.851 129.472 146.851ZM163.305 150.151C166.276 150.5 166.026 150.022 168.825 150.32C171.272 149.904 166.418 149.917 165.899 149.855C163.418 149.666 163.502 149.212 160.879 149.193C161.765 149.523 162.48 149.838 163.305 150.151ZM137.311 146.746C139.311 146.785 135.792 146.298 135.607 146.234C134.15 145.524 144.744 147.142 137.311 146.746ZM229.078 54.8677C228.677 53.9259 228.733 54.61 228.303 53.8213C227.877 53.0172 226.741 50.2483 226.623 50.3487C226.564 50.511 228.62 55.6213 226.122 50.6667C226.138 50.876 226.055 50.8442 226.033 50.9602C226.712 52.3247 227.357 53.7017 227.983 55.1199C227.849 54.2508 227.708 53.3636 227.562 52.5383C228.096 53.239 228.085 53.7844 228.104 53.8253C228.104 53.8252 228.104 53.8251 228.104 53.825C228.792 55.2836 229.963 57.0042 229.078 54.8677ZM221.204 130.049C221.444 130.654 222.504 128.426 223.014 127.622C223.555 126.813 224.496 125.851 224.006 126.114C222.977 127.308 221.2 129.982 221.204 130.049C221.204 130.049 221.204 130.049 221.204 130.049ZM179.515 149.821C182.037 149.416 181.63 149.329 184.625 149.064C184.49 148.945 184.355 148.823 184.22 148.706C181.865 149.038 182.089 149.423 179.217 149.552C178.753 149.566 179.698 149.17 177.679 149.44C178.292 149.563 178.873 149.703 179.515 149.821ZM191.635 147.258C188.832 147.948 186.86 149.527 191.925 147.838C192.676 147.57 193.715 146.705 191.635 147.258ZM236.308 80.3939C235.898 75.4831 236.255 81.0718 236.113 82.3521C235.027 71.0029 236.381 83.643 235.68 84.7824C235.88 86.1707 236.233 88.7715 236.331 85.8777C236.357 84.6593 236.191 85.1087 236.191 85.035C236.171 82.8242 236.471 83.0592 236.308 80.3939ZM158.088 149.829C158.269 149.836 158.003 149.621 158.581 149.63C159.141 149.64 160.484 149.872 160.63 149.762C160.746 149.655 158.119 149.367 157.311 149.373C156.494 149.384 156.436 149.758 158.088 149.829ZM176.936 150.54C179.346 150.224 175.344 149.809 174.796 149.821C170.038 150.058 177.09 150.346 176.936 150.54ZM237.591 91.865C237.475 85.855 236.766 90.2429 236.074 93.8951C236.108 94.3859 236.136 94.8921 236.16 95.3815C235.887 93.1227 235.891 89.2502 235.337 97.8464C236.028 93.1684 235.674 97.1177 235.692 97.152C236.534 97.7902 236.779 90.7006 237.591 91.8704C237.591 91.8686 237.591 91.8668 237.591 91.865ZM150.191 148.744C148.801 148.561 146.113 148.199 144.475 148.022C143.159 147.885 142.576 147.914 143.964 148.311C144.115 148.324 144.267 148.337 144.419 148.35C146.388 148.52 148.308 148.65 150.191 148.744ZM190.102 11.9178C188.263 10.8056 186.455 10.0094 183.992 9.06626C186.086 10.2254 184.622 9.67983 183.853 9.46246C182.686 9.13066 185.415 10.1857 185.41 10.218C185.244 10.479 183.529 9.77564 187.415 11.4321C186.418 11.1033 185.43 10.8002 184.425 10.5078C187.394 11.7292 187.997 12.2423 189.728 13.3217C188.191 11.9635 190.4 13.3675 192.611 14.2221C193.725 14.6471 191.056 12.473 190.095 11.9143C190.097 11.9155 190.1 11.9167 190.102 11.9178ZM237.858 85.6595C237.748 85.0371 237.596 84.4747 237.459 83.8867C237.427 83.2472 237.388 82.5899 237.34 81.9369C237.426 81.8512 237.517 81.7783 237.599 81.679C237.572 80.8188 237.466 81.1624 237.437 80.9093C237.438 80.9093 237.438 80.9092 237.439 80.9092C237.034 77.548 236.827 76.0099 236.668 73.5519L236.656 73.4929C236.624 73.2921 236.591 73.0853 236.557 72.8714C236.287 72.9408 236.018 73.0102 235.748 73.0795C235.807 73.2777 235.867 73.477 235.926 73.6771C236.012 74.0937 236.096 74.5204 236.176 74.9492C236.373 75.2628 236.569 75.5827 236.762 75.9059C236.781 76.6778 236.781 77.3866 236.776 78.1365C236.891 78.7186 237.013 79.443 237.106 79.9492C236.571 82.9359 236.53 76.223 236.139 76.2056C235.991 76.1893 236.598 82.8713 236.699 83.8459C236.722 83.9868 237.264 82.5092 237.029 84.9838C236.981 85.3721 235.763 85.5323 236.746 88.1671C236.881 88.5452 237.697 87.2524 237.858 85.6595ZM233.524 61.2761C234.154 65.1073 229.82 51.6898 231.469 57.6115C230.464 56.1256 230.609 56.4542 230.949 58.1715C230.979 58.3229 230.443 57.2658 230.464 57.3563C230.91 58.9107 231.669 60.6696 231.367 60.8029C231.535 61.2041 231.691 61.5844 231.856 61.991C231.523 60.171 232.714 62.8197 233.324 63.8353C233.604 64.2927 233.252 63.1429 233.491 63.5259C233.581 63.6616 234.045 65.3036 234.161 65.3186C234.44 65.393 234.434 64.2633 234.017 62.5107C234.017 62.5106 234.017 62.5105 234.017 62.5105C233.855 62.0919 233.691 61.689 233.524 61.2761ZM216.807 136.912C215.997 136.993 213.982 138.586 217.604 135.168C217.364 135.267 217.118 135.37 216.877 135.466C216.261 136.018 215.628 136.559 214.984 137.082C213.823 139.746 209.007 141.071 212.025 140.199C212.339 140.115 213.947 138.847 212.462 140.218C212.464 140.217 212.466 140.216 212.469 140.215C214.718 138.532 214.847 138.212 216.807 136.912ZM228.362 122.565C229.498 119.561 228.366 121.454 226.999 123.709C225.634 125.983 223.852 128.557 224.709 127.628C224.946 127.506 228.284 121.952 228.362 122.565ZM187.423 150.675C190.253 150.15 190.282 149.585 189.977 149.476C189.669 149.364 187.792 149.933 187.529 149.947C186.694 150.007 188.414 149.621 187.331 149.693C186.953 149.757 182.076 150.312 181.846 150.328C180.606 150.597 182.49 150.791 182.137 150.881C180.993 151.183 179.317 151.128 179.015 151.375C178.305 151.918 181.295 151.134 181.785 151.054C183.293 150.845 183.193 151.122 184.315 151.015C185.402 150.908 186.197 150.683 187.188 150.523C187.522 150.468 187.279 150.7 187.423 150.675ZM196.314 147.375C193.565 148.658 200.633 146.811 201.386 146.3C203.635 145.109 197.651 146.846 196.314 147.375ZM235.257 70.7491C236.253 73.3191 234.772 67.0928 234.093 65.491C234.096 65.8241 234.929 69.8496 235.257 70.7491ZM237.47 93.5349C237.567 91.0149 236.735 94.2921 236.487 96.3519C236.743 97.6213 236.816 96.4605 236.971 95.104C237.118 93.7509 237.366 95.4831 237.47 93.5349ZM156.524 151.149C157.003 151.259 165.786 151.469 160.758 151.017C160.281 151.005 154.405 150.536 153.874 150.511C152.922 150.531 155.154 151.005 156.524 151.149ZM236.174 105.575C236.142 104.195 236.41 102.905 235.747 104.019C235.746 104.021 235.746 104.023 235.746 104.024C236.318 100.706 237.122 100.706 237.236 99.9745C237.563 97.436 236.603 99.7358 236.636 98.1343C236.264 101.818 236.025 100.699 235.453 103.439C235.327 104.061 234.978 106.548 235.018 106.948C235.071 107.346 235.843 106.208 236.174 105.575ZM144.286 149.608C147.245 150.241 149.971 150.053 145.938 149.343C145.304 149.228 144.722 149.172 144.282 149.162C143.369 149.144 143.082 149.338 144.209 149.591C144.234 149.597 144.26 149.602 144.286 149.608ZM122.231 3.56452C122.696 3.65466 123.176 3.74395 123.671 3.83245C122.6 4.00249 121.529 4.18343 120.465 4.37314C121.304 4.20507 122.147 4.0432 122.998 3.88659C120.973 4.09813 120.013 3.96088 122.226 3.56522C122.228 3.56499 122.229 3.56475 122.231 3.56452ZM54.1309 26.8804C53.2807 27.2406 52.0411 28.5751 52.2498 28.4828C53.7958 27.789 55.3067 26.3824 54.1309 26.8804ZM235.438 66.5176C234.489 63.3272 234.503 65.716 235.047 67.6898C234.815 66.4475 235.961 68.3484 235.438 66.5176ZM76.8425 15.1993C77.1514 15.1466 77.4635 15.0933 77.8094 15.0282C76.7627 15.3364 76.5714 15.3509 76.8425 15.1993ZM157.83 151.914C158.286 152.023 162.192 152.34 162.704 152.283C163.794 152.193 160.798 151.643 159.026 151.619C158.839 151.62 157.331 151.815 157.838 151.914C157.835 151.914 157.833 151.914 157.83 151.914ZM117.661 3.94682C117.668 3.95278 117.666 3.95987 117.656 3.9676C117.659 3.96057 117.657 3.95409 117.661 3.94682ZM4.3802 83.1793C4.39756 83.163 4.41178 83.1559 4.42121 83.1617C4.40862 83.1659 4.39287 83.178 4.3802 83.1793ZM184.945 151.913C186.345 152.414 189.266 151.487 186.858 151.579C186.733 151.586 185.227 151.875 184.945 151.913Z" fill="url(#paint0_linear_176_254)"/>
<defs>
<linearGradient id="paint0_linear_176_254" x1="105.5" y1="3" x2="45.5" y2="199" gradientUnits="userSpaceOnUse">
<stop offset="0.139378" stop-color="#B92E2D"/>
<stop offset="1" stop-color="#B92E2D" stop-opacity="0"/>
</linearGradient>
</defs>
</svg>
